<?xml version="1.0" encoding="UTF-8"?>
<svg xmlns="http://www.w3.org/2000/svg" viewBox="0 0 512 512">
  <defs>
    <style>
      .uuid-6d54c94d-b595-4afb-b195-3e096971226b {
        fill: #fff;
      }

      .uuid-8fe22baa-6b6f-4185-bc05-ee69adb41a72 {
        fill: #004020;
      }
    </style>
  </defs>
  <g id="uuid-30533497-64a0-44a0-8276-69005df04a42" data-name="Layer_2">
    <circle class="uuid-8fe22baa-6b6f-4185-bc05-ee69adb41a72" cx="256" cy="256" r="256"/>
  </g>
  <g id="uuid-e751e485-745b-4f2d-bdff-d1a0a834cf61" data-name="Layer_3">
    <path class="uuid-8fe22baa-6b6f-4185-bc05-ee69adb41a72" d="M512,256c0,33.19-6.32,64.91-17.82,94.02-9.35,23.67-22.13,45.61-37.72,65.21-39.5,49.67-97.09,84.33-162.79,94.01-12.29,1.82-24.87,2.76-37.67,2.76s-25.38-.94-37.67-2.76c-65.7-9.68-123.29-44.34-162.79-94.01-15.59-19.6-28.37-41.54-37.72-65.21C6.32,320.91,0,289.19,0,256s6.32-64.91,17.82-94.02c9.35-23.67,22.13-45.61,37.72-65.21C95.04,47.1,152.63,12.44,218.33,2.76c12.29-1.82,24.87-2.76,37.67-2.76s25.38.94,37.67,2.76c65.7,9.68,123.29,44.34,162.79,94.01,15.59,19.6,28.37,41.54,37.72,65.21,11.5,29.11,17.82,60.83,17.82,94.02Z"/>
    <g>
      <path class="uuid-6d54c94d-b595-4afb-b195-3e096971226b" d="M126.76,137.89l-37.67,65.24-71.27-41.15c9.35-23.67,22.13-45.61,37.72-65.21l71.22,41.12Z"/>
      <path class="uuid-6d54c94d-b595-4afb-b195-3e096971226b" d="M494.18,350.02c-9.35,23.67-22.13,45.61-37.72,65.21l-71.22-41.12,37.67-65.24,71.27,41.15Z"/>
    </g>
    <g>
      <path class="uuid-6d54c94d-b595-4afb-b195-3e096971226b" d="M293.67,2.76v82.26h-75.34V2.76c12.29-1.82,24.87-2.76,37.67-2.76s25.38.94,37.67,2.76Z"/>
      <path class="uuid-6d54c94d-b595-4afb-b195-3e096971226b" d="M293.67,426.98v82.26c-12.29,1.82-24.87,2.76-37.67,2.76s-25.38-.94-37.67-2.76v-82.26h75.34Z"/>
    </g>
    <g>
      <path class="uuid-6d54c94d-b595-4afb-b195-3e096971226b" d="M494.18,161.98l-71.27,41.15-37.67-65.24,71.22-41.12c15.59,19.6,28.37,41.54,37.72,65.21Z"/>
      <path class="uuid-6d54c94d-b595-4afb-b195-3e096971226b" d="M126.76,374.11l-71.22,41.12c-15.59-19.6-28.37-41.54-37.72-65.21l71.27-41.15,37.67,65.24Z"/>
    </g>
  </g>
  <g id="uuid-c214294a-e423-47e5-8ac4-2b4a41274284" data-name="Layer_10">
    <g id="uuid-d53738e9-ce75-4e0d-9a55-71364e16677c" data-name="Layer_4">
      <circle class="uuid-8fe22baa-6b6f-4185-bc05-ee69adb41a72" cx="256" cy="256" r="203.63"/>
    </g>
    <g id="uuid-decbf5ad-9a9f-4b95-99c0-c74a34d19994" data-name="Layer_5">
      <circle class="uuid-6d54c94d-b595-4afb-b195-3e096971226b" cx="256" cy="256" r="183.71"/>
    </g>
    <g id="uuid-21c7e6b6-fe2a-414b-9ec1-4623cc106acd" data-name="Layer_6">
      <circle class="uuid-8fe22baa-6b6f-4185-bc05-ee69adb41a72" cx="256" cy="256" r="174.22"/>
    </g>
    <g id="uuid-9170360f-c1ab-4613-a4b4-f9a2b52b0fbc" data-name="Layer_7">
      <circle class="uuid-6d54c94d-b595-4afb-b195-3e096971226b" cx="256" cy="256" r="156.02"/>
    </g>
    <g id="uuid-08a17be4-09de-4b76-92a0-4d20a7a2ee3b" data-name="Layer_8">
      <circle class="uuid-8fe22baa-6b6f-4185-bc05-ee69adb41a72" cx="256" cy="256" r="143.23"/>
    </g>
  </g>
  <g id="uuid-f96f2218-7eed-4282-b354-51a4f2ea723a" data-name="Layer_1">
    <path id="uuid-eee4702c-030a-4fc3-a90a-0da325cb1a2b" data-name="path153-6-3-1-6-92-7-2-9-8" class="uuid-6d54c94d-b595-4afb-b195-3e096971226b" d="M255.6,168.67c-32.63,46.53-67.54,73.31-68.12,109.62-.19,11.76,6.16,31.74,26.07,35.56,12.92,2.47,30.7-7.98,31.07-29.22-.06-4.23,4.48-4.12,4.43,1.68-.61,16.75-5.91,36.26-14.82,52.13h42.75c-8.91-15.88-14.22-35.38-14.82-52.13-.04-5.79,4.49-5.9,4.43-1.68.37,21.24,18.15,31.69,31.07,29.22,19.91-3.82,26.26-23.81,26.07-35.56-.58-36.3-35.49-63.08-68.12-109.62Z"/>
  </g>
</svg>