<?xml version="1.0" encoding="UTF-8"?>
<svg xmlns="http://www.w3.org/2000/svg" viewBox="0 0 512 512">
  <defs>
    <style>
      .uuid-380a114c-8008-45dd-a77d-5fc9eab1df3d {
        fill: #fff;
      }

      .uuid-2de7d573-6dce-4a41-93eb-d7a99ba20681 {
        fill: #004020;
      }
    </style>
  </defs>
  <g id="uuid-eae3bd72-7a85-4339-a01a-b0ac7c352e36" data-name="Layer_2">
    <circle class="uuid-2de7d573-6dce-4a41-93eb-d7a99ba20681" cx="256" cy="256" r="256"/>
  </g>
  <g id="uuid-c4434700-8198-44c1-86e7-41b1a79a1457" data-name="Layer_3">
    <path class="uuid-2de7d573-6dce-4a41-93eb-d7a99ba20681" d="M512,256c0,33.19-6.32,64.91-17.82,94.02-9.35,23.67-22.13,45.61-37.72,65.21-39.5,49.67-97.09,84.33-162.79,94.01-12.29,1.82-24.87,2.76-37.67,2.76s-25.38-.94-37.67-2.76c-65.7-9.68-123.29-44.34-162.79-94.01-15.59-19.6-28.37-41.54-37.72-65.21C6.32,320.91,0,289.19,0,256s6.32-64.91,17.82-94.02c9.35-23.67,22.13-45.61,37.72-65.21C95.04,47.1,152.63,12.44,218.33,2.76c12.29-1.82,24.87-2.76,37.67-2.76s25.38.94,37.67,2.76c65.7,9.68,123.29,44.34,162.79,94.01,15.59,19.6,28.37,41.54,37.72,65.21,11.5,29.11,17.82,60.83,17.82,94.02Z"/>
    <g>
      <path class="uuid-380a114c-8008-45dd-a77d-5fc9eab1df3d" d="M126.76,137.89l-37.67,65.24-71.27-41.15c9.35-23.67,22.13-45.61,37.72-65.21l71.22,41.12Z"/>
      <path class="uuid-380a114c-8008-45dd-a77d-5fc9eab1df3d" d="M494.18,350.02c-9.35,23.67-22.13,45.61-37.72,65.21l-71.22-41.12,37.67-65.24,71.27,41.15Z"/>
    </g>
    <g>
      <path class="uuid-380a114c-8008-45dd-a77d-5fc9eab1df3d" d="M293.67,2.76v82.26h-75.34V2.76c12.29-1.82,24.87-2.76,37.67-2.76s25.38.94,37.67,2.76Z"/>
      <path class="uuid-380a114c-8008-45dd-a77d-5fc9eab1df3d" d="M293.67,426.98v82.26c-12.29,1.82-24.87,2.76-37.67,2.76s-25.38-.94-37.67-2.76v-82.26h75.34Z"/>
    </g>
    <g>
      <path class="uuid-380a114c-8008-45dd-a77d-5fc9eab1df3d" d="M494.18,161.98l-71.27,41.15-37.67-65.24,71.22-41.12c15.59,19.6,28.37,41.54,37.72,65.21Z"/>
      <path class="uuid-380a114c-8008-45dd-a77d-5fc9eab1df3d" d="M126.76,374.11l-71.22,41.12c-15.59-19.6-28.37-41.54-37.72-65.21l71.27-41.15,37.67,65.24Z"/>
    </g>
  </g>
  <g id="uuid-fc658012-c660-4044-8cea-7e798079df78" data-name="Layer_10">
    <g id="uuid-6a48ec9e-8232-4212-b778-6df187261dc1" data-name="Layer_4">
      <circle class="uuid-2de7d573-6dce-4a41-93eb-d7a99ba20681" cx="256" cy="256" r="203.63"/>
    </g>
    <g id="uuid-2420b6e1-1d30-481a-a6f4-ac8662d55e1d" data-name="Layer_5">
      <circle class="uuid-380a114c-8008-45dd-a77d-5fc9eab1df3d" cx="256" cy="256" r="183.71"/>
    </g>
    <g id="uuid-f538c571-f2d6-4454-8452-792a7cab96fb" data-name="Layer_6">
      <circle class="uuid-2de7d573-6dce-4a41-93eb-d7a99ba20681" cx="256" cy="256" r="174.22"/>
    </g>
    <g id="uuid-b67d45c2-67a5-4ec7-af73-49847d64f366" data-name="Layer_7">
      <circle class="uuid-380a114c-8008-45dd-a77d-5fc9eab1df3d" cx="256" cy="256" r="156.02"/>
    </g>
    <g id="uuid-1bab54e7-d4b2-4dbe-9ecf-dd6c1517cfc8" data-name="Layer_8">
      <circle class="uuid-2de7d573-6dce-4a41-93eb-d7a99ba20681" cx="256" cy="256" r="143.23"/>
    </g>
  </g>
</svg>