<?xml version="1.0" encoding="UTF-8"?>
<svg id="uuid-0e432a94-a784-437c-9ef9-38f87bde148a" data-name="Layer_2" xmlns="http://www.w3.org/2000/svg" viewBox="0 0 512 423.65">
  <defs>
    <style>
      .uuid-5b755843-7489-448c-abb4-47be47c58e4a {
        fill: #fff;
      }

      .uuid-29ebe0fc-2dbe-475c-a5bf-86085becfc63 {
        fill: #004020;
      }
    </style>
  </defs>
  <g id="uuid-afebb2ca-3957-4e52-9295-89a58e14f0bc" data-name="Layer_1">
    <g>
      <g id="uuid-76093f46-48e9-40a5-bf74-74c375d5cf97" data-name="uuid-1bab54e7-d4b2-4dbe-9ecf-dd6c1517cfc8">
        <ellipse class="uuid-29ebe0fc-2dbe-475c-a5bf-86085becfc63" cx="256" cy="192.01" rx="143.23" ry="107.42"/>
      </g>
      <path class="uuid-29ebe0fc-2dbe-475c-a5bf-86085becfc63" d="M512,192v39.65c0,24.9-6.32,48.69-17.82,70.52-9.36,17.75-22.13,34.21-37.72,48.91-39.5,37.26-97.09,63.24-162.79,70.52-12.29,1.36-24.87,2.06-37.67,2.06s-25.38-.7-37.67-2.06c-65.7-7.27-123.29-33.25-162.79-70.52-15.59-14.69-28.36-31.16-37.72-48.91C6.32,280.35,0,256.55,0,231.65v-39.65c0-24.88,6.32-48.68,17.82-70.52,9.36-17.74,22.13-34.2,37.72-48.9C95.04,35.33,152.63,9.33,218.33,2.07c12.29-1.36,24.87-2.07,37.67-2.07s25.38.72,37.67,2.07c65.7,7.26,123.29,33.25,162.79,70.52,15.59,14.69,28.36,31.16,37.72,48.9,11.49,21.84,17.82,45.63,17.82,70.52Z"/>
      <path class="uuid-5b755843-7489-448c-abb4-47be47c58e4a" d="M293.67,342.11v79.49c-12.29,1.36-24.87,2.06-37.67,2.06s-25.38-.7-37.67-2.06v-79.49c12.21,1.72,24.79,2.62,37.67,2.62s25.46-.91,37.67-2.62Z"/>
      <path class="uuid-5b755843-7489-448c-abb4-47be47c58e4a" d="M101.53,92.49c-16.35,14.26-29.22,30.81-37.71,48.92l-46-19.93c9.36-17.74,22.13-34.2,37.72-48.9l45.99,19.9Z"/>
      <path class="uuid-5b755843-7489-448c-abb4-47be47c58e4a" d="M293.67,2.07v39.83c-12.21-1.72-24.79-2.62-37.67-2.62s-25.46.91-37.67,2.62V2.07c12.29-1.36,24.87-2.07,37.67-2.07s25.38.72,37.67,2.07Z"/>
      <path class="uuid-5b755843-7489-448c-abb4-47be47c58e4a" d="M494.18,121.48l-46,19.93c-8.47-18.11-21.36-34.66-37.71-48.92l45.99-19.9c15.59,14.69,28.36,31.16,37.72,48.9Z"/>
      <path class="uuid-5b755843-7489-448c-abb4-47be47c58e4a" d="M256,54.22c-101.47,0-183.71,61.7-183.71,137.78s82.24,137.79,183.71,137.79,183.71-61.7,183.71-137.79S357.47,54.22,256,54.22ZM256,322.68c-96.22,0-174.22-58.51-174.22-130.68S159.78,61.34,256,61.34s174.22,58.51,174.22,130.66-78,130.68-174.22,130.68Z"/>
      <path class="uuid-5b755843-7489-448c-abb4-47be47c58e4a" d="M256,75c-86.17,0-156.02,52.39-156.02,117s69.85,117.02,156.02,117.02,156.02-52.39,156.02-117.02-69.85-117-156.02-117ZM256,299.43c-79.1,0-143.23-48.1-143.23-107.43s64.13-107.42,143.23-107.42,143.23,48.09,143.23,107.42-64.13,107.43-143.23,107.43Z"/>
      <path class="uuid-5b755843-7489-448c-abb4-47be47c58e4a" d="M101.53,291.51l-45.99,19.92v39.65c-15.59-14.69-28.36-31.16-37.72-48.91v-39.65l46-19.92c8.49,18.11,21.36,34.65,37.71,48.91Z"/>
      <path class="uuid-5b755843-7489-448c-abb4-47be47c58e4a" d="M494.18,262.52v39.65c-9.36,17.75-22.13,34.21-37.72,48.91v-39.65l-45.99-19.92c16.35-14.26,29.24-30.8,37.71-48.91l46,19.92Z"/>
    </g>
  </g>
</svg>