<?xml version="1.0" encoding="UTF-8"?>
<svg id="uuid-e121c368-901b-468d-a036-673ff10a51af" data-name="Layer_1" xmlns="http://www.w3.org/2000/svg" viewBox="0 0 512 512">
  <defs>
    <style>
      .uuid-dae93760-0bbd-40fe-9ecf-7b0480eee2a0 {
        fill: #fff;
      }
    </style>
  </defs>
  <path d="M496.83,167.75l-1.36.78-47.52,27.44c-8.9-28.65-24.05-54.59-43.84-76.2l47.52-27.44C413.75,46.88,360.35,14.81,299.56,4.26v54.83c-14.15-3.16-28.86-4.84-43.96-4.84s-29.8,1.68-43.95,4.84V2.71c-61.35,10.59-115.24,42.94-153.43,88.84l1.35.78,47.53,27.44c-19.79,21.62-34.94,47.55-43.84,76.2l-47.53-27.44-1.35-.78C4.39,195.16-1.06,224.74-1.06,255.6s5.6,61.23,15.84,88.95l1.35-.78,47.49-27.42c9.07,28.6,24.36,54.44,44.28,75.95l-47.58,27.47-1.35.78c38.15,45.42,91.73,77.43,152.68,87.95v-56.38c14.15,3.16,28.86,4.84,43.95,4.84s29.81-1.68,43.96-4.84v56.38c60.95-10.52,114.53-42.53,152.67-87.95l-1.35-.78-47.57-27.47c19.92-21.51,35.21-47.35,44.28-75.95l47.48,27.42,1.36.78c10.24-27.72,15.83-57.68,15.83-88.95s-5.45-60.44-15.43-87.85ZM255.6,415.99c-88.57,0-160.38-71.81-160.38-160.39S167.03,95.22,255.6,95.22s160.39,71.81,160.39,160.38-71.81,160.39-160.39,160.39Z"/>
  <circle cx="255.6" cy="255.6" r="146.37" transform="translate(-105.87 255.6) rotate(-45)"/>
  <path id="uuid-4dbafef9-db5b-4bb5-9ce9-58b01d29869b" data-name="path153-6-3-1-6-92-7-2-9-8" class="uuid-dae93760-0bbd-40fe-9ecf-7b0480eee2a0" d="M255.6,159.29c-37.03,52.8-76.64,83.19-77.3,124.38-.22,13.34,6.99,36.01,29.58,40.35,14.66,2.8,34.83-9.06,35.26-33.16-.06-4.8,5.08-4.67,5.03,1.9-.69,19.01-6.71,41.14-16.82,59.16h48.5c-10.11-18.02-16.13-40.15-16.82-59.16-.05-6.57,5.1-6.7,5.03-1.9.42,24.1,20.6,35.96,35.26,33.16,22.59-4.34,29.8-27.01,29.58-40.35-.66-41.19-40.27-71.58-77.3-124.38Z"/>
  <path class="uuid-dae93760-0bbd-40fe-9ecf-7b0480eee2a0" d="M255.6,436.4c-99.69,0-180.8-81.11-180.8-180.8S155.91,74.8,255.6,74.8s180.8,81.11,180.8,180.8-81.11,180.8-180.8,180.8ZM255.6,82.8c-95.28,0-172.8,77.52-172.8,172.8s77.52,172.8,172.8,172.8,172.8-77.52,172.8-172.8-77.52-172.8-172.8-172.8Z"/>
  <path d="M255.6,5.94c14.47,0,28.95,1.24,43.03,3.7,58.03,10.07,110.88,40.68,148.81,86.19,18.59,22.28,33.03,47.37,42.9,74.57,9.9,27.26,14.92,55.92,14.92,85.21s-5.15,58.69-15.31,86.28c-10,27.16-24.55,52.18-43.24,74.37-37.86,45.01-90.45,75.3-148.08,85.31-14.08,2.45-28.55,3.7-43.02,3.7s-28.94-1.24-43.02-3.7c-57.63-10-110.22-40.3-148.09-85.31-18.69-22.19-33.24-47.21-43.24-74.37-10.16-27.59-15.31-56.62-15.31-86.28s5.02-57.95,14.92-85.21c9.87-27.19,24.31-52.28,42.9-74.57C101.69,50.32,154.54,19.71,212.59,9.64c14.08-2.45,28.55-3.7,43.01-3.7M255.6-1.06c-15.08,0-29.85,1.3-44.22,3.8-61.16,10.61-114.89,42.88-153,88.6-18.85,22.6-33.87,48.48-44.1,76.66C4.35,195.34-1.06,224.84-1.06,255.6s5.56,61.06,15.74,88.7c10.36,28.13,25.5,53.95,44.46,76.46,38.07,45.25,91.49,77.15,152.24,87.7,14.37,2.51,29.13,3.8,44.22,3.8s29.86-1.3,44.23-3.8c60.74-10.54,114.17-42.44,152.23-87.7,18.95-22.51,34.09-48.33,44.46-76.46,10.18-27.65,15.74-57.53,15.74-88.7s-5.41-60.26-15.34-87.6c-10.23-28.18-25.25-54.06-44.1-76.66C414.7,45.62,360.98,13.36,299.83,2.74c-14.37-2.51-29.14-3.8-44.23-3.8h0Z"/>
</svg>