<?xml version="1.0" encoding="UTF-8"?>
<svg id="uuid-22346e85-6b61-4995-89c2-b3206655120a" data-name="Cards" xmlns="http://www.w3.org/2000/svg" viewBox="0 0 250 350">
  <defs>
    <style>
      .uuid-7345e63e-7090-4178-b73b-12d2aa2d701d, .uuid-dc5ab754-6c8f-4611-9144-f14649e994c0 {
        stroke-width: 0px;
      }

      .uuid-dc5ab754-6c8f-4611-9144-f14649e994c0 {
        fill: #fff;
      }
    </style>
  </defs>
  <g id="uuid-2f76b23e-1da8-42fc-a687-4f84af865585" data-name="SPADE-5">
    <g id="uuid-9fa35146-7e67-43d9-b2b8-484b8926161e" data-name="g8459-0-4">
      <path id="uuid-ebd3d9ee-b3e8-4b7a-bf11-ea28d0bac7b7" data-name="rect6920-5-5" class="uuid-dc5ab754-6c8f-4611-9144-f14649e994c0" d="m237.99,349.99H11.92c-6.6,0-11.96-5.36-11.96-11.97V11.97C-.04,5.36,5.32,0,11.92,0h226.07c6.6,0,11.96,5.36,11.96,11.97v326.05c0,6.61-5.35,11.97-11.96,11.97Z"/>
      <path id="uuid-df34dbe8-36f5-44cd-b7bb-38129e60e840" data-name="path6950-9-9" class="uuid-7345e63e-7090-4178-b73b-12d2aa2d701d" d="m182.93,313.29c10.33-14.77,21.39-23.27,21.57-34.79.06-3.73-1.95-10.07-8.25-11.29-4.09-.78-9.72,2.53-9.84,9.27.02,1.34-1.42,1.31-1.4-.53.19-5.32,1.87-11.51,4.69-16.55h-13.53c2.82,5.04,4.5,11.23,4.69,16.55.01,1.84-1.42,1.87-1.4.53-.12-6.74-5.75-10.06-9.84-9.27-6.3,1.21-8.32,7.55-8.25,11.29.18,11.52,11.24,20.02,21.57,34.79h0Z"/>
      <path id="uuid-8513c4a2-c2cc-47f4-8a66-d5ac637bcf1e" data-name="path6952-6-0" class="uuid-7345e63e-7090-4178-b73b-12d2aa2d701d" d="m230.67,293.9c4.83-6.15,9.99-9.69,10.08-14.49.03-1.55-.91-4.2-3.86-4.7-1.91-.33-4.54,1.06-4.6,3.86.01.56-.66.54-.66-.22.09-2.22.87-4.79,2.19-6.89h-6.32c1.32,2.1,2.1,4.68,2.19,6.89.01.77-.66.78-.66.22-.05-2.81-2.69-4.19-4.6-3.86-2.95.51-3.89,3.15-3.86,4.7.09,4.8,5.25,8.34,10.08,14.49h0Z"/>
      <path id="uuid-79f2e382-60c7-4a60-b9d2-3e306dae42aa" data-name="path6956-5-0" class="uuid-7345e63e-7090-4178-b73b-12d2aa2d701d" d="m19.24,56.1c4.83,6.15,9.99,9.69,10.08,14.5.03,1.55-.91,4.2-3.86,4.7-1.91.33-4.54-1.06-4.6-3.86.01-.56-.66-.54-.66.22.09,2.22.87,4.79,2.19,6.89h-6.32c1.32-2.1,2.1-4.68,2.19-6.89.01-.77-.66-.78-.66-.22-.05,2.81-2.69,4.19-4.6,3.86-2.95-.51-3.89-3.15-3.86-4.7.09-4.8,5.25-8.34,10.08-14.5h0Z"/>
      <path id="uuid-d377c343-0b3f-4ae6-bbe0-8cd297cfce0b" data-name="path6958-4-1" class="uuid-7345e63e-7090-4178-b73b-12d2aa2d701d" d="m66.99,313.29c10.33-14.77,21.39-23.27,21.57-34.79.06-3.73-1.95-10.07-8.25-11.29-4.09-.78-9.72,2.53-9.84,9.27.02,1.34-1.42,1.31-1.4-.53.19-5.32,1.87-11.51,4.69-16.55h-13.53c2.82,5.04,4.5,11.23,4.69,16.55.01,1.84-1.42,1.87-1.4.53-.12-6.74-5.75-10.06-9.84-9.27-6.3,1.21-8.32,7.55-8.25,11.29.18,11.52,11.24,20.02,21.57,34.79h0Z"/>
      <path id="uuid-f61a71fc-1443-4994-99bc-db5147e912bb" data-name="path6970-5-5" class="uuid-7345e63e-7090-4178-b73b-12d2aa2d701d" d="m182.93,36.7c10.33,14.77,21.39,23.27,21.57,34.79.06,3.73-1.95,10.07-8.25,11.29-4.09.78-9.72-2.53-9.84-9.27.02-1.34-1.42-1.31-1.4.53.19,5.32,1.87,11.51,4.69,16.55h-13.53c2.82-5.04,4.5-11.23,4.69-16.55.01-1.84-1.42-1.87-1.4-.53-.12,6.74-5.75,10.06-9.84,9.27-6.3-1.21-8.32-7.55-8.25-11.29.18-11.52,11.24-20.02,21.57-34.79h0Z"/>
      <path id="uuid-a627965d-8748-46d6-b7b4-de9ab7ccc300" data-name="path6972-5-8" class="uuid-7345e63e-7090-4178-b73b-12d2aa2d701d" d="m66.99,36.7c10.33,14.77,21.39,23.27,21.57,34.79.06,3.73-1.95,10.07-8.25,11.29-4.09.78-9.72-2.53-9.84-9.27.02-1.34-1.42-1.31-1.4.53.19,5.32,1.87,11.51,4.69,16.55h-13.53c2.82-5.04,4.5-11.23,4.69-16.55.01-1.84-1.42-1.87-1.4-.53-.12,6.74-5.75,10.06-9.84,9.27-6.3-1.21-8.32-7.55-8.25-11.29.18-11.52,11.24-20.02,21.57-34.79h0Z"/>
      <path id="uuid-ca35accf-7019-4c4b-9dd3-9410a629a50c" data-name="path6980-6-3" class="uuid-7345e63e-7090-4178-b73b-12d2aa2d701d" d="m124.96,201.94c10.33-14.77,21.39-23.27,21.57-34.79.06-3.73-1.95-10.07-8.25-11.29-4.09-.78-9.72,2.53-9.84,9.27.02,1.34-1.42,1.31-1.4-.53.19-5.32,1.87-11.51,4.69-16.55h-13.53c2.82,5.04,4.5,11.23,4.69,16.55.01,1.84-1.42,1.87-1.4.53-.12-6.74-5.75-10.06-9.84-9.27-6.3,1.21-8.32,7.55-8.25,11.29.18,11.52,11.24,20.02,21.57,34.79h0Z"/>
      <path id="uuid-b3fe102f-214f-4af3-b8d8-40d65d023e61" data-name="path21-4-5-5" class="uuid-7345e63e-7090-4178-b73b-12d2aa2d701d" d="m242.32,307.01l-3.62.03c-.69-2.24-2.22-4.51-4.3-5.14-5.87-1.41-9.64,1.94-10.88,5.8-1.51,4.68.03,11.25,4.07,13.58,3.35,1.93,8.32.3,10.6-3.83l2.54,1.58-1.36,15.42h-16.57v-3.65h13.43l.21-6.42c-2.89,2.07-7.33,2.05-10.22.6-5.47-2.66-8.02-8.72-6.95-15.86,1.47-7.1,4.73-11.13,12.06-11.7,8.16-.08,11.04,5.65,11,9.59h0Z"/>
      <path id="uuid-b6da2adc-9f4b-4bf6-810f-a21ec23f13db" data-name="path21-4-9-2-8" class="uuid-7345e63e-7090-4178-b73b-12d2aa2d701d" d="m7.6,42.99l3.62-.03c.69,2.24,2.22,4.51,4.3,5.14,5.87,1.41,9.64-1.94,10.88-5.8,1.51-4.68-.03-11.25-4.07-13.58-3.35-1.93-8.32-.3-10.6,3.83l-2.54-1.58,1.36-15.42h16.57v3.65h-13.43l-.21,6.42c2.89-2.07,7.33-2.05,10.22-.6,5.47,2.66,8.02,8.72,6.95,15.86-1.47,7.1-4.73,11.13-12.06,11.7-8.16.08-11.04-5.65-11-9.59h0Z"/>
    </g>
  </g>
</svg>