<?xml version="1.0" encoding="UTF-8"?>
<svg id="uuid-77cc5841-0823-4548-8745-ac230aa4755d" data-name="Cards" xmlns="http://www.w3.org/2000/svg" viewBox="0 0 250 350">
  <defs>
    <style>
      .uuid-fee4214d-cb69-46a7-b428-fa04fade2274, .uuid-98ac57e5-2d82-49fc-aee5-2e4934c0226f {
        stroke-width: 0px;
      }

      .uuid-98ac57e5-2d82-49fc-aee5-2e4934c0226f {
        fill: #fff;
      }
    </style>
  </defs>
  <g id="uuid-88d99003-e4ab-4c88-9bc8-7fb053ed5b94" data-name="SPADE-4">
    <g id="uuid-89ed77fc-456a-47fd-aff3-be93abf6e8a5" data-name="g8473-4-9">
      <path id="uuid-d4de60b1-944d-4702-a019-11e9bae45a50" data-name="rect6852-0-4" class="uuid-98ac57e5-2d82-49fc-aee5-2e4934c0226f" d="m11.93,0h226.08c6.6,0,11.96,5.36,11.96,11.97v326.06c0,6.61-5.35,11.97-11.96,11.97H11.93c-6.6,0-11.96-5.36-11.96-11.97V11.97C-.03,5.36,5.32,0,11.93,0Z"/>
      <path id="uuid-bd4066af-1700-4808-9517-a8f2f48e60a1" data-name="path6882-1-0" class="uuid-fee4214d-cb69-46a7-b428-fa04fade2274" d="m66.99,36.7c-10.33,14.77-21.39,23.27-21.57,34.79-.06,3.73,1.95,10.07,8.25,11.29,4.09.78,9.72-2.53,9.84-9.27-.02-1.34,1.42-1.31,1.4.53-.19,5.32-1.87,11.51-4.69,16.55h13.54c-2.82-5.04-4.5-11.23-4.69-16.55-.01-1.84,1.42-1.87,1.4-.53.12,6.74,5.75,10.06,9.84,9.27,6.3-1.21,8.32-7.56,8.25-11.29-.18-11.52-11.24-20.02-21.57-34.79h0Z"/>
      <path id="uuid-a7af6e12-a16f-4980-9a5f-63d649833f67" data-name="path6884-6-5" class="uuid-fee4214d-cb69-46a7-b428-fa04fade2274" d="m19.25,56.09c-4.83,6.15-9.99,9.69-10.08,14.5-.03,1.55.91,4.2,3.86,4.7,1.91.33,4.54-1.06,4.6-3.86-.01-.56.66-.54.66.22-.09,2.22-.87,4.79-2.19,6.89h6.32c-1.32-2.1-2.1-4.68-2.19-6.89-.01-.77.66-.78.66-.22.05,2.81,2.69,4.19,4.6,3.86,2.95-.51,3.89-3.15,3.86-4.7-.09-4.8-5.25-8.34-10.08-14.5h0Z"/>
      <path id="uuid-cb2d9a06-9624-46d9-815a-2127b0611313" data-name="path6888-1-5" class="uuid-fee4214d-cb69-46a7-b428-fa04fade2274" d="m230.68,293.9c-4.83-6.15-9.99-9.69-10.08-14.5-.03-1.55.91-4.2,3.86-4.7,1.91-.33,4.54,1.06,4.6,3.86-.01.56.66.54.66-.22-.09-2.22-.87-4.79-2.19-6.89h6.32c-1.32,2.1-2.1,4.68-2.19,6.89-.01.77.66.78.66.22.05-2.81,2.69-4.19,4.6-3.86,2.95.51,3.89,3.15,3.86,4.7-.09,4.8-5.25,8.34-10.08,14.5h0Z"/>
      <path id="uuid-9fa78336-b039-4cd7-8654-053c66edb87c" data-name="path6890-4-9" class="uuid-fee4214d-cb69-46a7-b428-fa04fade2274" d="m182.94,36.7c-10.33,14.77-21.39,23.27-21.57,34.79-.06,3.73,1.95,10.07,8.25,11.29,4.09.78,9.72-2.53,9.84-9.27-.02-1.34,1.42-1.31,1.4.53-.19,5.32-1.87,11.51-4.69,16.55h13.54c-2.82-5.04-4.5-11.23-4.69-16.55-.01-1.84,1.42-1.87,1.4-.53.12,6.74,5.75,10.06,9.84,9.27,6.3-1.21,8.32-7.56,8.25-11.29-.18-11.52-11.24-20.02-21.57-34.79h0Z"/>
      <path id="uuid-84e0a545-cc40-43f8-b5c0-906eafecd7d5" data-name="path6902-7-5" class="uuid-fee4214d-cb69-46a7-b428-fa04fade2274" d="m66.99,313.3c-10.33-14.77-21.39-23.27-21.57-34.79-.06-3.73,1.95-10.07,8.25-11.29,4.09-.78,9.72,2.53,9.84,9.27-.02,1.34,1.42,1.31,1.4-.53-.19-5.32-1.87-11.51-4.69-16.55h13.54c-2.82,5.04-4.5,11.23-4.69,16.55-.01,1.84,1.42,1.87,1.4.53.12-6.74,5.75-10.06,9.84-9.27,6.3,1.21,8.32,7.56,8.25,11.29-.18,11.52-11.24,20.02-21.57,34.79h0Z"/>
      <path id="uuid-18200cae-7682-45c2-b93b-79a564fc6062" data-name="path6904-9-7" class="uuid-fee4214d-cb69-46a7-b428-fa04fade2274" d="m182.94,313.3c-10.33-14.77-21.39-23.27-21.57-34.79-.06-3.73,1.95-10.07,8.25-11.29,4.09-.78,9.72,2.53,9.84,9.27-.02,1.34,1.42,1.31,1.4-.53-.19-5.32-1.87-11.51-4.69-16.55h13.54c-2.82,5.04-4.5,11.23-4.69,16.55-.01,1.84,1.42,1.87,1.4.53.12-6.74,5.75-10.06,9.84-9.27,6.3,1.21,8.32,7.56,8.25,11.29-.18,11.52-11.24,20.02-21.57,34.79h0Z"/>
      <path id="uuid-22063efd-468b-4cdd-95df-79decfd3e9b1" data-name="path19-08-0-9" class="uuid-fee4214d-cb69-46a7-b428-fa04fade2274" d="m19.51,52.57v-3.27h2.95v-5.4H7.72v-3.81l15.94-24.56h2.6v24.56h4.51v3.81h-4.51l-.09,5.4h2.47v3.28h-9.14,0Zm2.95-28.05l-10.12,15.57h10.12v-15.57Z"/>
      <path id="uuid-7f9d6db4-4342-4879-9c65-78b767bb29a1" data-name="path19-08-1-1-4" class="uuid-fee4214d-cb69-46a7-b428-fa04fade2274" d="m230.42,297.43v3.27h-2.95v5.4h14.74v3.81l-15.94,24.56h-2.6v-24.56h-4.51v-3.81h4.51l.09-5.4h-2.47v-3.28h9.14,0Zm-2.95,28.05l10.12-15.57h-10.12v15.57Z"/>
    </g>
  </g>
</svg>