<?xml version="1.0" encoding="UTF-8"?>
<svg id="uuid-fdb51c4e-8572-43a5-ba84-a25fb06c0246" data-name="Cards" xmlns="http://www.w3.org/2000/svg" viewBox="0 0 250 350">
  <defs>
    <style>
      .uuid-f9b638f3-c1b1-4048-b687-4300da155345, .uuid-33dcb9e7-9e11-4a1e-a25b-85f356e1be70 {
        stroke-width: 0px;
      }

      .uuid-33dcb9e7-9e11-4a1e-a25b-85f356e1be70 {
        fill: #fff;
      }
    </style>
  </defs>
  <g id="uuid-4aaa76cf-368f-459f-b16a-a3936131e5bb" data-name="SPADE-3">
    <path id="uuid-7a77e7d8-a31b-485a-88e7-fa67df38eef5" data-name="rect6784-5-9" class="uuid-33dcb9e7-9e11-4a1e-a25b-85f356e1be70" d="m11.94,0h226.08c6.6,0,11.96,5.36,11.96,11.97v326.05c0,6.61-5.35,11.97-11.96,11.97H11.94c-6.6,0-11.96-5.36-11.96-11.97V11.97C-.02,5.36,5.34,0,11.94,0Z"/>
    <path id="uuid-27adc88d-1af4-44d5-b3ef-eee7310beb49" data-name="path6816-2-4" class="uuid-f9b638f3-c1b1-4048-b687-4300da155345" d="m19.26,56.09c-4.83,6.15-9.99,9.69-10.08,14.5-.03,1.55.91,4.2,3.86,4.7,1.91.33,4.54-1.06,4.6-3.86-.01-.56.66-.54.66.22-.09,2.22-.87,4.79-2.19,6.89h6.32c-1.32-2.1-2.1-4.68-2.19-6.89-.01-.77.66-.78.66-.22.05,2.81,2.69,4.19,4.6,3.86,2.95-.51,3.89-3.15,3.86-4.7-.09-4.8-5.25-8.34-10.08-14.5h0Z"/>
    <path id="uuid-40314d09-d1fa-4326-86bb-5f1cd19994ae" data-name="path6820-0-2" class="uuid-f9b638f3-c1b1-4048-b687-4300da155345" d="m230.69,293.9c-4.83-6.15-9.99-9.69-10.08-14.5-.03-1.55.91-4.2,3.86-4.7,1.91-.33,4.54,1.06,4.6,3.86-.01.56.66.54.66-.22-.09-2.22-.87-4.79-2.19-6.89h6.32c-1.32,2.1-2.1,4.68-2.19,6.89-.01.77.66.78.66.22.05-2.81,2.69-4.19,4.6-3.86,2.95.51,3.89,3.15,3.86,4.7-.09,4.8-5.25,8.34-10.08,14.5h0Z"/>
    <path id="uuid-101fc454-8bfb-4f43-815c-886e454b56f0" data-name="path6828-8-3" class="uuid-f9b638f3-c1b1-4048-b687-4300da155345" d="m124.98,36.7c-10.33,14.77-21.39,23.27-21.57,34.79-.06,3.73,1.95,10.07,8.25,11.29,4.09.78,9.72-2.53,9.84-9.27-.02-1.34,1.42-1.31,1.4.53-.19,5.32-1.87,11.51-4.69,16.55h13.54c-2.82-5.04-4.5-11.23-4.69-16.55-.01-1.84,1.42-1.87,1.4-.53.12,6.74,5.75,10.06,9.84,9.27,6.3-1.21,8.32-7.56,8.25-11.29-.18-11.52-11.24-20.02-21.57-34.79h0Z"/>
    <path id="uuid-8ce4771b-4a8d-48d6-8928-df647fb8e995" data-name="path6842-0-7" class="uuid-f9b638f3-c1b1-4048-b687-4300da155345" d="m124.98,313.3c-10.33-14.77-21.39-23.27-21.57-34.79-.06-3.73,1.95-10.07,8.25-11.29,4.09-.78,9.72,2.53,9.84,9.27-.02,1.34,1.42,1.31,1.4-.53-.19-5.32-1.87-11.51-4.69-16.55h13.54c-2.82,5.04-4.5,11.23-4.69,16.55-.01,1.84,1.42,1.87,1.4.53.12-6.74,5.75-10.06,9.84-9.27,6.3,1.21,8.32,7.56,8.25,11.29-.18,11.52-11.24,20.02-21.57,34.79h0Z"/>
    <path id="uuid-631c7202-ad83-42ea-b420-04e8d8b6a6ee" data-name="path6844-7-0" class="uuid-f9b638f3-c1b1-4048-b687-4300da155345" d="m124.98,148.06c-10.33,14.77-21.39,23.27-21.57,34.79-.06,3.73,1.95,10.07,8.25,11.29,4.09.78,9.72-2.53,9.84-9.27-.02-1.34,1.42-1.31,1.4.53-.19,5.32-1.87,11.51-4.69,16.55h13.54c-2.82-5.04-4.5-11.23-4.69-16.55-.01-1.84,1.42-1.87,1.4-.53.12,6.74,5.75,10.06,9.84,9.27,6.3-1.21,8.32-7.56,8.25-11.29-.18-11.52-11.24-20.02-21.57-34.79h0Z"/>
    <path id="uuid-b931b2c4-b397-4275-92ca-22e563395aa3" data-name="path17-9-11-4" class="uuid-f9b638f3-c1b1-4048-b687-4300da155345" d="m7.27,44.45l2.85-2.1c2.47,4.03,5.23,6.68,9.46,6.23,6.34-.44,8.96-7.1,7.64-12.11-1.28-4.5-6.53-6.69-10.7-4.29-.98.57-1.94,1.03-2.12,1.03-.44,0-1.43-1.98-1.29-2.58,2.8-4.1,9.6-11.28,9.6-11.28h-10.62v4.81h-4.08v-8.63h20.77v2.93s-5.56,5.78-7.4,8.95c4.53.17,8.18,3.04,9.49,7.59.76,2.39.42,7.87-.58,10.23-1.67,3.93-6.24,7.13-10.41,7.31-7.01.47-10.73-4.45-12.58-8.09h0Z"/>
    <path id="uuid-da34a360-d708-4b7b-acc5-8053393589c9" data-name="path17-9-1-0-8" class="uuid-f9b638f3-c1b1-4048-b687-4300da155345" d="m242.69,305.54l-2.85,2.1c-2.47-4.03-5.23-6.68-9.46-6.23-6.34.44-8.96,7.1-7.64,12.11,1.28,4.5,6.53,6.69,10.7,4.29.98-.57,1.94-1.03,2.12-1.03.44,0,1.43,1.98,1.29,2.58-2.8,4.1-9.6,11.28-9.6,11.28h10.62v-4.81h4.08v8.63h-20.77v-2.93s5.56-5.78,7.4-8.95c-4.53-.17-8.18-3.04-9.49-7.59-.76-2.39-.42-7.87.58-10.23,1.67-3.93,6.24-7.13,10.41-7.31,7.01-.47,10.73,4.45,12.58,8.09Z"/>
  </g>
</svg>