<?xml version="1.0" encoding="UTF-8"?>
<svg id="uuid-a28674fe-8960-4a62-8d52-cafd42cd1bae" data-name="Cards" xmlns="http://www.w3.org/2000/svg" viewBox="0 0 250 350">
  <defs>
    <style>
      .uuid-798d94bb-253f-43a3-aabc-b875a5f81a42, .uuid-84b9776e-72dd-4f0a-ba32-af02c1c8789a, .uuid-7fc8bd6e-4f58-47bb-aff2-e7dde117a451, .uuid-a38917ae-23c1-44fd-aa7d-003ba65bebe5, .uuid-86b1a0e9-b08d-4c5a-9fa8-3ff16a501c58 {
        stroke-width: 0px;
      }

      .uuid-84b9776e-72dd-4f0a-ba32-af02c1c8789a {
        fill: #c8102e;
      }

      .uuid-7fc8bd6e-4f58-47bb-aff2-e7dde117a451 {
        fill: #fff;
      }

      .uuid-a38917ae-23c1-44fd-aa7d-003ba65bebe5 {
        fill: #ffcd00;
      }

      .uuid-86b1a0e9-b08d-4c5a-9fa8-3ff16a501c58 {
        fill: #004c97;
      }
    </style>
  </defs>
  <g id="uuid-5801f39c-ba29-4e01-a7ae-dd2e773a8b58" data-name="SPADE-13-KING">
    <path id="uuid-e7e568f6-2fc0-4d11-ac25-137f337ef2bc" data-name="rect7467-2-2" class="uuid-7fc8bd6e-4f58-47bb-aff2-e7dde117a451" d="m11.85.01h226.06c6.6,0,11.96,5.36,11.96,11.97v326.03c0,6.61-5.35,11.97-11.96,11.97H11.85c-6.6,0-11.96-5.36-11.96-11.97V11.98C-.11,5.37,5.24.01,11.85.01Z"/>
    <path id="uuid-c160060b-617c-4c16-af67-bb4537bc2c74" data-name="path7499-2-5" class="uuid-798d94bb-253f-43a3-aabc-b875a5f81a42" d="m19.17,56.1c-4.83,6.15-9.99,9.69-10.08,14.49-.03,1.55.91,4.2,3.86,4.7,1.91.33,4.54-1.06,4.6-3.86-.01-.56.66-.54.66.22-.09,2.22-.87,4.79-2.19,6.89h6.32c-1.32-2.1-2.1-4.68-2.19-6.89-.01-.77.66-.78.66-.22.06,2.81,2.69,4.19,4.6,3.86,2.95-.51,3.89-3.15,3.86-4.7-.09-4.8-5.25-8.34-10.08-14.49h0Z"/>
    <path id="uuid-c5d3b005-ecdb-4ee1-a2ab-d6fa3f223e90" data-name="path7503-7-0" class="uuid-798d94bb-253f-43a3-aabc-b875a5f81a42" d="m230.58,293.89c-4.83-6.15-9.99-9.69-10.08-14.49-.03-1.55.91-4.2,3.86-4.7,1.91-.33,4.54,1.06,4.6,3.86-.01.56.66.54.66-.22-.09-2.22-.87-4.79-2.19-6.89h6.32c-1.32,2.1-2.1,4.68-2.19,6.89-.01.77.66.78.66.22.06-2.81,2.69-4.19,4.6-3.86,2.95.51,3.89,3.15,3.86,4.7-.09,4.8-5.25,8.34-10.08,14.49h0Z"/>
    <path id="uuid-93d3eedd-8b6c-4892-850d-05318751dd69" data-name="path39-5-1-0" class="uuid-798d94bb-253f-43a3-aabc-b875a5f81a42" d="m20.06,48.5h3.72l-5.46-13.68-4.17,5.78.03,7.9h2.93v4.07H6.78v-4.07h3.4v-29.41h-3.4s0-3.55,0-3.55h10.48v3.68h-2.89l-.06,14.33,9.15-14.46h-3.23v-3.56h11.15v3.56h-2.94l-7.53,11.81,7.37,17.59h3.27l.02,4.07h-11.46l-.03-4.08h0Z"/>
    <path id="uuid-40da1c22-66a3-4374-b5e7-af15ca3280c4" data-name="path39-5-7-0-0" class="uuid-798d94bb-253f-43a3-aabc-b875a5f81a42" d="m229.69,301.49h-3.72l5.46,13.68,4.17-5.78-.03-7.9h-2.93v-4.07h10.33v4.07h-3.4v29.41h3.4s0,3.55,0,3.55h-10.48v-3.68h2.89l.06-14.33-9.15,14.46h3.23v3.56h-11.15v-3.56h2.94l7.53-11.81-7.37-17.59h-3.27l-.02-4.07h11.46l.03,4.08h0Z"/>
    <path id="uuid-42d32338-1174-47ad-893a-f2671bd5ee46" data-name="path4096-2-4-0" class="uuid-86b1a0e9-b08d-4c5a-9fa8-3ff16a501c58" d="m33.05,26.84h183.65v296.31H33.05V26.84Zm130.35,294.42c-6.83-12.47-17.62-32.77-17.94-32.93-3.99,2.14-44.69,7.63-64.26,2.31-6.69,10.13-13.27,20.15-19.1,30.19l101.31.43Zm-62.5-37.28c-1.02.04-2.17.65-1.96.1.12-.32.41-3.51.54-4.66.31-.51.74.82.69,2.06-.03.71.31.2,2.63.33,2.51.13,4.56.61,5.41.79,2.96.65,8.7.18,11.16-1.62,1.33-.97,1.83.08.46,1.12-6.19,4.72-11.11,2.92-16.49,2.13-1.07-.23-1.47-.3-2.44-.26h0Zm2.63-4.48c-.39-.25-.64-.28-1.13-.05-1.9.89-1.4-.39-.03-1.68.63-.59.61-.89.13-1.51-.24-.31-.64-.35-.55-.82.41-2.02,3.24-5.08,6.39-6.45,1.31-.57,1.52.05-.14,1.03-2.55,1.51-3.38,2.8-1.94,2.27,2.8-1.02,5.36-.3,8.94,1.5,1.02.51,1.49.61,2.36.52.64-.54,1.22.11,1.62.45.25.2.3.3.59.23,2.04-.48.82.83-1.97,2.87-4.99,3.55-10.44,5.22-14.28,1.63h0Zm7.68.87c2.04-.62,4.53-1.91,6.05-3.26,1.85-1.64.81-1.39-1.33-.36-3.08,1.49-5.24,1.92-8.71,1.84-2.9-.07-2.81-.19-2.92.18-.37,1.28,3.63,2.58,6.91,1.59h0Zm-5.64-4.99c.17-.55.29-1.28.14-1.52-.27-.43-.85-.11-1.58.82-.45.58-.39.66.05,1.11.22.15.4.27.53.34.62.27.72-.31.85-.75h0Zm1.27.75c.89-3.06,2.89-3,4.32-.07h1.01c-2.07-5.68-6.07-2.8-6.21.03.47.16.88.04.88.04h0Zm7.47-.51c.94-.53.81-.89-.4-1.51-.85-.44-1.31-.53-1.46-.25.01.63.04,1.53.4,2.03.38.23.9,0,1.46-.27Zm-13.24-8.7c-.17-.29-.14-.81.51-1.12,4.05-1.88,1.1-5.86-2.03-2.88-.99.82-2.47,1.2-3.61.71-1.07-.47-1.09-1.78.33-2.07.47-.09,1.67-.35,2.11-.66,5.44-2.92,8.32,3.43,4.47,5.55-.79.46-1.63.72-1.79.46h0Zm-15.23-5.77c-2.21-1-2.51-4.49-.44-5.85,1.32-.9,2.66-1.15,6.29.65,2.56,1.27,4.03-.1,3.96,1.38-.04.9-.09,1.81-1.58,2.03-2.42.35-4.07-2.95-7.18-2.63-2.24.22-1.96,2.92-.34,3.47,2.16.73.85,1.59-.71.96h0Zm40.39.52c-.3,0-.41-.79-.25-1.19,1.09-2.63,2.12-4.71,3.12-7.18.8-1.96,1.33-2.8,1.69-2.8.37,0,.53.29-.08,1.5-.83,2.19-3.74,8.36-4.21,9.49-.07.17-.16.18-.27.18h0Zm-17.94-.7c-.98-.7-.81-1.73.3-.95,1.43,1.01,3.77-.84,3.29-2.58-.58-2.1-3.36-2.61-5.69-.73-3.67,2.97-7.71,3.12-7.71.8.01-.66-.09-.82,1.44-.92,1.78-.12,3.78-.94,4.78-1.55,4.47-2.74,9.23-.85,8.24,3.72-.44,2.15-3.07,3.2-4.66,2.2Zm-16.39-6.74c-.36-.01-1.03.36-1.22.21-.37-.28-.32-1.09-.62-1.96-.54-1.54-.01-1.06.94-.64,1.3.5,2.53.41,3.62.02,1.13-.39,2.61-.3,4.98,0,1.91.25,2.98.18,4.71-.32,1.88-.59,1.38-.38,1.07.79-.2.76-.46,1.79-.7,2.03-1.3-.73-2.29-.45-3.14.05-1.4.62-2.4.73-3.55.38-1.08-.62-1.72-.57-2.59-.03-1.5.73-2.16-.48-3.51-.54h0Zm28.02-3.2c.26-.46.65-1.1,1.01-1.82,2.9-5.79,3.1-7.41,1.05-9.36-2.75-2.62-5.1-1.49-7.74,3.75-.64,1.27-1.02,2.23-1.28,2.62-.3.45-.65.1-.82-.07-.33-.33,2.6-5.89,3.75-7.11,3-3.18,8.59-.64,8.23,3.69-.18,2.18-.59,3.37-2.57,7.36-.49.99-.92,1.82-1.18,2.23-.93.63-.72-.81-.45-1.28h0Zm-27.37-.23c.46-2.06,7.04-3.02,8.78-.31.17.26.07.25-.67.05-3.35-1.11-4.01-1.05-7.22.22-.48.19-.83.26-.88.04h0Zm25.12-.39c0-.19.24-.96.62-1.69,2.2-4.36,2.8-5.41,2.13-6.23-1.3-1.59-3.06-.21-4.67,4.34-.6,1.7-1.01,1.34-1.31,1.07-.56-.51,1.93-5.81,3.13-6.6,2.72-1.74,4.86.27,3.66,3.83-.94,1.61-1.71,4.08-2.59,5.38-.42.58-.98.41-.97-.1h0Zm-9.84-7.08c-.13-.22.12-.52,1.07-2.55,1.3-2.79,1.7-3.83,1.17-5.42-.94-2.84-4.48-3.54-6.63-1.67-.7.6-1.18,1.43-1.51,2.18-.78,1.73-1.42,3.97-1.88,4.44-.4.41-.96.49-.93-.22.51-1.51.75-2.68,1.96-4.88,3.01-6.58,11.69-3.53,9.66,3.39-.76,2.51-1.62,4.42-2.14,5.04-.29.34-.76.05-.77-.31Zm-2.01-1.21c0-.22.33-.83.67-1.69,1.47-3.65,1.48-4.77-.66-4.82-1.28.17-1.47.69-2.59,3.57-.36.94-.57,1.6-.78,1.89-.23.31-.67.12-.85-.06-.46-.47,1.54-5.19,2.6-6.08,2.44-2.13,5.59.89,4.11,3.61-.69,1.9-1.29,3.19-1.7,3.77-.36.52-.81.45-.81-.19h0Zm-51.85-42.55l-7.4-.51c1.31,7.96,1.38,16.72.05,22.93-1.13,5.31-1.15,9.22-.81,13.83.39,5.36,2.65,9.9,3.22,15.59.41,4.12-.5,8.42-1.3,12.52-1.35,6.85-1.07,7.56-.87,15.6.18,7.45-.51,7.18-.93,6.75-.06-.07-.12-1.38-.11-2.95.01-1.57-.09-5.4-.18-8.06-.18-5.31.41-10.01.84-11.94.87-3.93,1.84-7.96,1.24-12.31-1.22-5.49-2.93-10.98-3.54-16.28-.74-6.53,1.08-13.08,1.69-17.82.58-4.58-.03-12.5-1.23-15.8-.21-1.1-1.18-2.53-1.18-2.53-1.16-.14-2.75-.23-3.8-.31-.09,31.44,0,62.9.02,94.34l6.9,6.44,7.09-6.78.31-92.71Zm.5,36.07s10.53,6.1,22.13,12.1c-1.11-6.86,2.4-7.89,5.69-8.69-.79-13.25,11.27-10.53,13.12.98h1.19c2.09-5.74,4.16-9.7,8.91-10.64,3.69-.73,7.32,1.62,8.25,7.15-.16-.39,12.23-7.32,12.57,7.32,5.63-3.52,9.64-.48,11.26,3.99,2.38-3.64,8.32-3.8,10.22-4.07-.1-.83,6.91-2.19,10.06-1.1,3.84-.5,5.43,2.61,7.33,3.48,4-1.13,14.68-4.92,13.78-6.86.1.07.56.67,1.26.95.25.1,2.52-1.27,2.52-1.27-15.38-17.84-27.97-52.83-19.61-85.05-1.19-1.06,1.08-.19.55-.04,0,0-2.93,14.35-2.58,20.55,34.45,16.51,30.21,51.3,21.4,62.78l1.4,1.87c.62.42,27.13-15.15,26.26-15.79l5.02-2.51-.81-68.02-19.84-1.53s.21-.57.46-.72c.18-4.15-.19-10.29.01-15.43.08-14.69.22-19.69.03-20.09-6.12-4.06-15.24-9.99-22.92-12.87.31.09-.12,6.09-.36,6.43-7.18,2.31-3.85,5.26-6.51,8.43-1.78,1.97-5.96,2.35-7.97-.02-2.41-2.35-3.54-7.73-3.54-7.73-3.8,4.09-3.02,9.04-8.11,10.9-8.18,4.09-10.78-8.13-10.3-7.85-3.14,3.04-11.93,5.52-12.88-7.33-3.96,3.67-8.39,1.85-10.27-2.67-2.41.09-5.12,1.99-7.57,3.02-2.27,1.01-5.17,1.6-7.32,1.56-2.69.33-4.91.32-7.34-.41-1.14.37-3.71-.74-4.5-2.34-1.21-1.44-2.27-1.52-3.43-1.26-3.93,2.08-8.14,2.59-12.78,4.77-.29.2.41.58.17.51-.1-.03-2.44,1.16-2.44,1.16,23.5,31.11,24.78,62.51,19.85,84.78-.19.77-.3,1.33.21,1.94-.75-.13-.76.09-.9-.39.49-6.72,2.53-9.64,2.48-20.42-8.43-4.61-17.98-11.39-22.06-19.76-9.01-14.11-6.03-30.95.71-44.29l-1.68-1.75c-19.7,9.94-31.33,20.65-31.33,20.65l.08,66.74,20.24,2.35-.11,36.52Zm-9.77-44.57c-.65-.72-2.3-.85-2.99-.3-.16.14-.5.84-.6.82-.47-.43-.96-.46-1.67-1.21l.97-1.48c.77-1.17,1.88-1.59,3.75-2.03.66-.16,1.67-.3,2.02-.45,1.41-.61,1.9-1.94.47-1.34-1.04.29-2.49.19-2.69-.77-.16-.79-.82-1.1-1.57-1-1.37.33-2.62,1.05-3.84,1.78-.54.33-1.56,1.07-1.56,1.07-.16.25-.76-1.6-.2-2.14.69.08,1.28.09,1.95-.18,1.67-.67,3.28-1.48,4.97-2.13,1.08-.43,1.17-.39.89-1.16-.14-.28-.26-1.23-.08-1.72.2-.52.17-.79-.16-1.01-.76-.51-2.58-.03-5.15,1.2-.78.38-1.3.53-1.79.93.32-.82.13-.97.12-1.82,1.05.13,1.99-.29,2.82-.73.69-.36,1.46-.72,3.36-.96.52-.07.28-1.97-.31-2.53-.56-.52-1.73-.53-3.14-.11-1.27.29-2.84.59-3.71,1.96.84-2.31.21-1.41,2.03-2.84.88-.02,2.81-.44,3.27-.54.77-.17.9-2-.23-2.78-.7-.62,2.55-.63,2.49-.45-.04.11-.07.89.18,1.09,1.4.42,1.39,1.58,1.51,2.07,1.61,2.66,2.4.99,3.51.07-.23,5.8,1.78,6.46,2.05,6.82-2.77,5.2-.68,5.32,1.91,6.52,0,0-.99.4-1.64.36-1.03-.06-3.01,1.17-3.87,1.89-.48.4-.49.07-2.4.01-1.79-.05-1.93.08-2.75.45-1.61.72-1.61,1.4-.03,1.13,1.68-.29,3.33.74,3.52,2.14.13.26.01.29-.01.27-.35-.07-1.14.07-1.13-.1.01-.17,0-.36-.31-.8h0Zm2.45-7.03c.46-.29.53-1.13.14-1.46-.36-.31-1.89-.14-2.33.25-.98.78.81,2.08,2.19,1.22h0Zm.98-3.49c.56-.44.63-1.51.14-2.13-.83-1.05-2.99-.42-3.11.9-.12,1.41,1.79,2.15,2.97,1.22h0Zm-.7-4.79c.1-1.16-1.04-1.89-2.08-1.34-1.3.68-.51,2.12,1.12,2.04q.9-.05.96-.7h0Zm-3.81-4.69c-.61.3-.64,1.02-.06,1.49,2.28,1.27,1.59-2.13.06-1.49Zm159.57,6.91c-1-3.72-3.77-.03-3.77.02-.1-3.81.62-5.51-2.22-6.82,2.85-4.35,2.26-4.95-.77-6.62.28.02,4.01-.82,4.65-2.97.14.1,5.86,1.52,6.57-1.62-1.72.79-5.12.91-5.16-2.47.32-.1,1.13.07,1.06.18-.45,2.17,3.47,2.7,4.11.99,0,0,1.32.89,1.9,1.03.06.04-1.78,2.62-3.47,3.01-3.04,1.01-4.08,1.29-4.09,1.89,0,.24.5.27,1.4.46,1.89.13,1.85.54,2.09,1.17.22.56.43.67,1.06.61,2.15-.72,3.23-1.1,4.73-2.61.18-.04.39,1.59.51,1.65.02-.26-1.52.19-3.89,1.59-1.93,1.14-2.69,1.3-2.94,1.61-.18.23.29.95.34,1.73.04.66-.4.97-.07,1.18.37.24.95.19,1.71,0,1.67-.41,2.9-1.07,4.4-2-.32.61.22,2.15.22,2.15,0,0-.74-.53-1.35-.25-1.39.68-2.77,1.34-4.5,1.7-.24.2-.2.7-.2,1.42,0,.51-.15.97.17,1.13,2.37.29,3.78-.27,5.48-1.34l-.41,2.13c-.55-.62-2.12-.16-3.17.25-.53.17-.69.5-.82.97-.23.8.27,1.35.85,1.61.39.17.98.1.98.1-1.74,1.1-1.76,1.45-3.77.64-.69-.75-1.36-1.54-1.62-2.51h0Zm2.85,0c-.45-.53-1.24-.83-1.7-.62-.41.22-.26.68-.13,1.02.34.97,2.74.65,1.83-.4h0Zm-1.59-2.66c.64-.84-.06-1.98-1.24-1.98-.82,0-1.26.51-1.25,1.16.02,1.22,1.96,1.53,2.49.83h0Zm-1.31-3.21c1.18-.32,1.55-1.48.73-2.32-.58-.6-2.41-.67-2.89-.13-1.25,1.38.15,3,2.17,2.45h0Zm.98-4.23c.69-.36.83-.95.21-1.63-1.11-.95-3.06-.21-2.43,1.18.31.68,1.37.89,2.22.45h0Zm-142.37-32.08c1.04-.38,1.8-1.2,2.9-1.83.74-.41.52-.34-.43-.9-.75-.35-2.24-1.87-2.38-1.51-.34.65-.29,4.21-.09,4.24Zm26.52,34.62c.14-1.53-.13-1.08-.95-.58-.61.39-1.58.99-1.96,1.19-1.51.76-1.33.8.79,1.82,1.42.64,1.84.72,1.96.45.15-.95.14-1.98.16-2.88h0Zm-2.18-.96c1.44-.91,1.92-1.38,1.99-2.41.01-1.18-.13-1.61-1.16-.79-3.5,2.79-7.11-2.68-3.9-5.72.65-.62,1.48-1.59,1.49-1.83.05-1.76-1.92-.05-3.52,2.37-1.78,2.2-2.89,4.95-1.33,7.59,1.25,1.93,4.03,2.32,6.43.79h0Zm-7.96-3.56c-.06-.86.18-1.83.29-2.11.39-1.01.38-1.13-1.41-.29-.71.24-1.56.43-1.89.43-1.46,0-1.09.45,1,2.21,2.1,1.76,2.17,1.92,2.01-.23h0Zm4.96-8.44c.22-.53-.24-.73-.68-.63-.03,0-.8.58-1.7,1.29-2.72,2.16-4.72,2.41-6.07.77-1.37-1.67-.8-3.65,2.26-5.91,1.35-1,1.67-1.07,1.03-1.5-.49-.33-.52-.28-2.46,1.04-3.91,2.67-5.08,4.49-4.69,7.14.08,1.09.65,1.66,1.2,2.09,3.73,3.33,8.9-1.26,11.12-4.28h0Zm3.95,1.57l-.24-3.67c-8.18-7.25-11.35-16.92-9.12-26.97l-2.15-4.1c-1.87,4.35-2.69,10.98-.65,17.74,1.73,5.74,5.19,12.69,12.16,17h0Zm-16.75-2.14c1.26-2.44,1.3-2.18-1.14-2.2-2.79-.02-2.47-.37-.9,2.03,1.26,1.92,1.05,2.09,2.04.17Zm1.67-3.35c1.61-.52,1.24-.4,3.37-1.79,2.44-1.6,2.55-2.48.09-1.24-3.15,1.58-5.92,1.18-6.95-.89-.92-1.84,1-4.14,4.14-5.04,1.08-.31,1.64-.57,1.64-1.04.01-1.45-5.35.48-7.55,2.67-4.26,4.21-.53,9.21,5.25,7.34h0Zm-6.89-6.56c.14-.22.53-.75.88-1.29,1.51-1.77.24-1.24-1.1-1.72-.71-.26-1.43-.52-1.85-.46-.8.12.27,1.68.53,2.69.72,2.24.64,2.17,1.54.79Zm5.7-4.04c2.7-.27,2.98-.53,2.98-1.09,0-.56-.33-.45-1.69-.26-3.59.5-5.97-.42-6.48-2.34-.53-1.99,1.9-3.87,5.14-3.76,1.76.06,2.92-.55,1.85-1.14-.56-.31-5.39-.24-6.48.08-3.21.94-4.52,2.74-4.23,5.23.44,3.08,2.11,3.96,6.18,3.74.78-.04,1.77-.36,2.72-.45h0Zm2.09-10.02c0-.48-.77-.55-3.32-.93-3.39-.51-4.91-3.67-2.86-5.57.78-.72,2.62-1.03,3.65-.84,2.24.41,3.61.87,3.63.11,0-.68-.64-.73-4.85-1.62-6.35-1.35-9.83,4.92-4.76,7.99,1.93,1.17,8.5,1.83,8.5.87h0Zm1.57-8.98c0-.24-.2-.43-.69-.61-2.97-.81-7.08-4.8-4.08-7.13,1.36-1.44-1.08-3.15-3.03-1.52-2.02,1.69-1.85,4.35.48,6.45,2.14,1.94,7.31,3.95,7.31,2.82h0Zm-10.28-.37c2.21-1.04,3.79-.44,2.1-1.88-.95-.88-1.76-3.4-2.41-1.27-.5,1.27-.87,3.51-.89,3.73.15.15.11-.11,1.2-.59Zm74.43-11.8c.36-1.6,1.85-5.35,2.15-5.59,1.11-.89.96.29-.06,2.34-.93,2.09-1.65,3.77-1.36,5.01.41,1.77,1.12,3.12,2.95,3.57,1.28.32,2.49-.22,3.31-.81,1.08-.77,2.11-2.75,3.33-5.49.39-.77.92-3.14,1.57-1.69.31.75-2.3,5.72-3.28,6.97-4.28,5.25-9.94.17-8.61-4.32Zm18.73,4.73c1.22,1.18,3.29,1.77,4.64,1.35,3.31-1.18,4.82-4.33,3.56-9.4-.63-2.84-1.18-4.61-1.73-4.96-.27-.17-.56.15-.82.54-.23.35.12.85.5,2.19,1.58,5.63,1.17,8.18-.76,9.25-2.8,1.56-5.21-.24-6.02-4.25-.13-.62-.51-1.89-.51-1.89-.21-.56-1.95-.43-1.32,1.44.19,1.45,1.51,4.9,2.46,5.73Zm14.21-14.75c-.04-1.98-4.18-10.58-4.46-9.67,0,0-.02,2.01.14,2.8.06.3.28.57.45.89,3.6,6.46,3.04,11.01-.08,12-1.06.49-1.29.96-.82,1.46.96,1.05,3.37-1.03,3.84-1.78,1.18-1.69,1.02-4.79.92-5.71Zm-60.22-1.46c6.34-8.22,11.22-26.98,12.05-38.86-.22-.24-1.62-.11-2.09.13-.22.29-.07.95-.15,1.8-1.26,9.82-3.59,18.76-7.04,27.86-1.51,3.95-2.91,6.56-4.73,9.31-.32.48-.72.97-.88,1.25-.46.67-.12,1.11.41.82.95-.54,1.76-1.58,2.44-2.32h0Zm-4.62,2.39c7-10.51,10.85-21.86,13.48-40.78-.58-.16-1.67-.06-2.05.23-.23.35-.08,1.06-.29,2.69-.55,4.22-1.38,8.45-2.78,13.99-3.69,12.27-7.08,19.14-11.54,25.15-.36.51-.68.83-.65,1.05.05.31.48.29,1.19-.16.93-.73,1.98-1.37,2.64-2.18h0Zm-6.59,3.18c2.11-1.21,5.84-6.47,8.47-12.14,2.95-6.69,5.42-14.25,7.04-20.79.7-2.87,1.7-10.03,1.56-10.5-.13-.35-2.21.07-1.95.29,0,0-2.05,11.51-4.26,17.86-4.1,11.78-7.65,19.77-11.47,23.62-.5.5-1.49,1.49-1.49,1.49,0,0,.02.44.34.51.76.14,1.27-.08,1.76-.33h0Zm-3.24-.47c4.77-2.69,10.36-15.26,14.93-31.04.78-2.7,2.21-11.74,2.21-11.74,0,0-1.9.07-2.27.47-.37.55-.31,1.94-.84,5.24-2.05,9.98-5.15,19.09-9.8,28.09-2.01,3.99-5.36,7.74-7.47,8.81-1.18.6-1.53,1.26-.66,1.3,1.46.05,1.58.36,2.64-.21l1.26-.92Zm65.4,140.56c-3.58-.01-6.62,3.45-9.33,7.8-5.76,8.92-9.63,23.82-10.58,31.74l2.17-.41c-.33.15,4.06-21.08,10.75-30.18,3.62-5.74,3.46-5.82,5.49-6.35,2.57-.67,4.62,2.14,3.35,3.82-.46.57-.97.15-.82-.66.46-2.6-3.3-3.1-4.35-.54-1.21,2.93,2,5.55,5.14,4.4,2.8-1,3.98-4.95,2.01-7.87-1.01-.99-2.47-1.86-3.84-1.75h0Zm-18.84-.36c-4.29,5.43-6.41,11.01-9.04,18.63-2.63,7.61-4.52,15.05-5.34,23.6l2.31-.3c-.08-5.49,5.88-31.64,14.26-41.43.47-.62.84-1.14.81-1.28-.47-1.32-2.45.27-3.01.79Zm9.47-2.03c-5.55,4.59-9.99,14.62-12.92,23.89-3.16,10.02-4.58,19.21-4.34,19.21l2.21-.33c-.16-.58,6.2-35.9,18.01-42.33,1.02-.52,1.24-1.04.38-1.26-1.33-.19-2.4.25-3.33.81h0Zm6.22.02c-12.13,1.61-20.06,39.15-20.32,42.27,0,.05-.04.29-.04.29l2.41-.5s.02-.12.03-.18c1.66-9.59,3.28-16.32,7.06-24.99,2.95-6.42,7.01-14.64,13.09-15.44.49-.06.96.14.79-.44-.37-.92-2.19-1.04-3.02-1.01h0Zm-72.29-11.82c-4.38,1.14-4.53,6.44-1.61,13.21.22.51.18.79.4.99.5.44.89-.17.95-.58.08-.62-.18-1.44-.64-2.65-1.81-4.69-1.37-7.39.42-8.59,4.59-2.38,5.82,2.51,6.51,4.76.17.55.23,1.3.53,1.34.91.13,1.35-.2,1.34-.2,0,0-1.21-4.22-1.96-5.8-1.2-2.56-4.05-3.1-5.94-2.5h0Zm-31.8,5.01l-.05,55.89-8.39,7.96c-3.6-3.12-8.33-8-8.33-8l.15-94.48-2.7-.22c-.66,40.59-.01,82-.04,122.67h24.64c6.87-11.05,14.09-21.92,20.88-33,.25-.63.22-1.56.1-5-.05-1.4.11-2.47-.1-2.8-.21-.33-.65-.09-1.05.09-.42.19-.66.12-.44-.37.13-.28.54-.9.89-1.49,1.15-1.91,1.43-2.52,1.05-4.64-.1-.52-.57-.96-.98-1.58-3.46-5.15-4.86-12.79-3.15-18.38.55-2.47.35-2.97-.83-4.9l-21.63-11.75Zm108.62-60.09c-2.26-1.17-2.21-1.14-2.23,1.07.01,1.66.04,2.06.66,1.83.89-.46,1.98-.88,2.8-1.23,1.57-.54-.42-1.24-1.23-1.68h0Zm8.93,5.76c-1.75-1.41-1.1-1.25-1.6,1.93-.3,1.92-.69,1.97,1.28,1.34,1.12-.39,3.42-.14,2.39-1.47.01.02-1.73-1.51-2.07-1.8Zm-75.78,58.46c-9.39,1.13-13.32,10.46-13.73,18.23-.33,6.14-.74,13.31-.13,13.93,6.15-2.8,8.52.43,9.11-.44.27-.38-1.36-1.64-3.41-2.77-.48-.26-1.21-.73-1.49-.97-.75-.63,1.49-.09,2.91.89,1.8,1.24,2.11.98,1.33-2.64-.85-3.94-.99-4.43,2.01-5.99,1.2-.63,1.88-1.16,2.74-2.13.69-.78.86-.97.61.18-.44,1.98-2.18,2.85-3.75,3.65-.78.4-1.11,1.22-1.11,1.92,0,.71.81,4.57,1.18,5.8.35,1.17.48,2.34.74,3.53.7,3.1.75,3.7.39,5.95-.21,1.32-.31,2.07-.24,2.86.07.72.17,1.71.17,1.71,0-.03-1.68-1.74-5.35-.28-2.65,1.05-4.74-.04-6.23-.82-.34,1.22-.26,2.54-.22,3.94,15.28,2.82,28.33,2.44,39.32,1.28.18-2.72,2-19.31,8.7-33.94,1.05-1.88,2.12-3.17,2.51-3.36.2-.1.08-.29.13-.46-.04-.61-.18-1.56-.7-1.97-1.27-1.02-3.29.29-3.96,2.57-.58,1.37-3.24,7.27-3.43,7.17-.16-.1-.53-.11-.39-.56,1.02-2.39,2.42-4.93,3.2-7.08,1.09-3.09,3.45-4.73,5.22-2.78.61.67.85,1.29,1.13,1.5.21.16.49.05.67-.21.67-1.02-.88-3.32-2.54-3.78-2.39-.67-4.18,1.1-6.89,6.82-1.57,3.3-1.85,4.13-2.1,3.88-.06.02-.47.02-.32-.62.32-1.38,2.4-5.37,3.91-7.91,2.23-3.75,6.37-4.06,8.11-.8.27.44.28,1.02.58,1.42.53.7,1.41.56,1.63-.59-.24-.76-1.69-3.5-2.7-3.98-2.33-1.62-5.15-1.3-7.53.85-.54.49-1.1,1.48-2.68,4.71-2.32,5.19-2.39,5.21-3.02,4.37.93-2.52,3.39-6.63,4.38-9.14.19-.38.23-.78.21-1.17-.06-1.83.24-5.06-3.59-7.36-3.26-1.78-7.58.09-9.04,3.59-1.12,2.68-1.95,4.52-2.51,4.9-.8.53-.65-.21-.57-.48,1.13-2.43,2.72-4.88,2.97-7.32.15-5.93-5.18-8.51-9.38-6.56-3.52,1.5-5.22,6.15-6.82,10.44h0Zm-28.77-133.41c5.17-2.43,8.71-3.65,13.98-5.22.71-.32.82-.39.07-1.9-3.34-6.68,5.82-12.01,8.93-5.45.41.87.51,1.36.92.94,3.94-4.19,10.21-20.28,11.74-31.5-6.95-12.23-19.17-34.66-19.17-34.66h-48.83v98.07c13.6-11.48,22.86-15.63,32.36-20.28h0Zm57.98-9.68c.38-.78.98-2,1.23-2.56.32-1.03,1.51-1.68.93.17-.13.4-.36.94-.72,1.65-.7,1.28-1.37,2.85-1.87,3.87-2.71,5.48-2.58,8.68.45,11.06,2.26,2.18,7,2.43,9.52-1.1.38-.57.71-1.3.82-1.57,1.1-2.69,1.91-4.04,2.11-4.3,1.12-1.44,1.3.34-.37,3.09-1.92,3.15-1.96,6.56-.29,8.96,2.46,3.56,7.14,3.66,10.08.8h0c1.53-1.81,2.74-4.11,3.72-7.05.22-.65.44-1.14.6-1.52.24-.59.6-.81,1.51-.98,6.25-1.21,11.49-7.7,12.24-14.78.1-.96.37-2.65.47-3.66.2-2.01.2-12.4,0-13.02-.11-.33-.29-.51-.7-.51-.31,0-.75.11-1.39.34-2.06.74-3.02.93-5,.22-.65-.24-1.11-.32-1.37-.29-.87.08.29,1.34,2.83,2.74,1.09.6,1.95,1.41,1.07,1.35-.26-.02-3.33-1.62-3.75-1.89-1.4-.87-1.03.22-.31,3.1.97,3.86.41,4.94-2.6,6.46-.56.28-1.31.87-1.69,1.25-1.6,2.39-1.19.63-.38-.64,1.37-1.46.53-1.95-2.29-.94-3.22,1.15-4.67.31-5.57-1.5-1.02-2.04.9-4.67,2.49-4.62.52.02.42.2-.34.73-.92.63-1.36,1.25-1.45,2.33-.19,2.21,1.37,3.15,3.55,1.67,1.03-.7,1.84-1.18,2.63-1.36.77-.18,1.94.11,1.93.74,0,.26-.04.89.02,1.03.2.7,1.31-.29,1.79-.64,1.65-1.24,1.59-1.49,1.14-3.51-.73-2.82-1.11-5.41-1.81-8.27-.37-1.5-.44-3.19-.21-4.72.11-.77.41-2.34.47-3.42.06-1.08-.01-2.62.03-2.62,1.63,1.26,2.3,1.49,3.89.87,2.47-1.02,4.03-.92,6.11.09.77.37,1.47.63,1.47.63l.09-3.24s-1.92-.4-5.48-.87c-10.71-1.42-32.68-1.72-33.5-.42-1.45,8.66-3.41,19.05-5.69,25.75-.4,1.33-.78,1.87-.58,1.91.08.02.48-.5.67-.71,1.04-1.22.24,1.67-1.33,5.15-.14.31-.26.66-.26.76,0,.21-.99,2.63-1.67,4.1-.42.91-.77,1.18-.77.6.48-2,1.74-4.59,1.92-6.38-1.11,1.62-2.72,4.28-3.94,5.88-.22.43.01.56.21,1.09.73,1.98,2.51,2.16,3.53.36.57-1,2.35-4.76,2.97-6.41.64-1.69,1.08-2.59,1.29-2.7.43-.22.51.74-.25,2.34-2.29,4.86-3.27,7.59-4.39,8.6-.87.78-2.37.73-3.21-.66-1.42-2.35-2.63-1.58-1.33.84,1.34,2.49,4.41,2.73,6.01.48.53-.74,3.02-5.55,3.8-7.5.44-1.09.9-1.94,1.06-2,.84-.33-.12,2.17-2.52,7.15-.78,1.93-2.03,3.95-3.72,4.57-4.11.91-4.66-1.29-6.09-3.79-.69-.62-1.32.37-1.06,1.47.43,1.79,1.32,2.55,2.6,3.4,2.57,1.72,5.96.48,6.91-.79.95-1.27,1.6-2.29,3.72-6.68h0Zm15.11,16.5c-.37-.83-.32-1.68-.13-2.47.43-1.78,1.14-3.51,1.98-5.01,1.35-.65.32,1.92.15,2.3-1.63,3.43-1.78,4.76-.26,5.15,1.3.34,2-.47,3.23-3.54.63-1.58.88-2.28,1.11-2.37.47-.19.7,0,.67.48-.81,2.02-1.45,4.14-2.79,5.82-1.31,1.11-3.28,1.11-3.96-.37h0Zm-12.21-2.64c-6.51-2.33-2.6-9.49-1.28-12.08.22-.43,1.05-2.1,1.32-2.65.48-.98.95-.6.94.05,0,.18-.71,1.71-1.43,3.13-3.15,6.22-3.04,8.76.02,10.24,2.99,1.44,4.32.61,6.71-4.14,1.38-3.57,2.06-3.63,1.98-2.27,0,.51-1.67,3.92-2.75,5.51-1.51,2.26-3.23,3.02-5.51,2.2Zm.23-3c-1.17-.73-1.65-2.56-.96-4.05.63-1.23,2.24-5.95,3-6.22,1.22-.04.57.99-.94,3.89-1.79,3.85-1.72,4.87-.34,5.46,1.28.54,1.88-.57,3.77-5.07.3-.71.71-1.44.95-1.29.3-.02.82.21-.17,2.24-.24.49-.63,1.51-1.07,2.46-1.29,2.78-2.75,3.49-4.23,2.56h0Zm21.16-8.16c-.52-.27-2.93-1.23-2.58-2.02.04-.07.18-.02.26.03,2.21,1.5,4.97,1.88,7.84-.2.48-.43.84-.14.57.4-.87,1.74-4.74,2.49-6.1,1.79Zm-7.11-2.53c.07-.17.27-.67.44-1.34.27-1.01.2-1.75.44-1.62,1,.55,2.8.56,3.68.02.96-.59,2.92-.78,3.63-.31,1.02.67,1.53.36,2.25-.2.8-.63.82-.36,2.27.15,1.07.38,1.49.63,1.95.55.17-.03.53-.43.64-.41.35.06.39,1.06.71,2.21.28,1.01.12,1.25-.77.65-.67-.45-2.58-.66-4.57-.05-1.48.46-1.82.27-2.9.09-2.7-.46-4.65-.82-6.66.36-1.07.63-1.46.96-1.1-.09h0Zm-6.71-4.99c-1.31-2.65,1.7-6.16,4.34-4.92.88.41,1.66,1.97.36,1.25-6.01-1.23-4.51,7.67,1.95,2.97,4.29-2.88,7.33-3.32,7.58-.54-.12,1.02-1.02.86-1.7.95-1.78.25-2.44.54-4.5,1.44-3.14,1-6.2,1.81-8.03-1.15h0Zm23.53,1.23c-1.47-.38-2.74-.97-4.27-1.25-1.52-.27-2.2-1.07-1.93-2.14.28-1.12,1.8-1.24,4.08.17,2.53,1.56,4.36,1.94,5.29,1.35,1.87-1.19.86-3.13-.92-3.62-1.34-.38-.35-.9,1.09-.47,2.32.89,2.37,5.14-.02,6.02-.8.29-2.21.21-3.32-.06h0Zm-20.48-14.05c1.71-1.07,3.36-2.02,3.94-2.66.31-.33,1.16-1.46.5-1.11-3.48,2.11-7.52.36-10.45-1.09-1.41-.66-1.06-.37-2.14-.3-.73.05-1.32.2-1.45-.32-.06-.23-.47-.14-.73-.16-1.08-.11-.4-1.56,1.88-3.15,4.13-3.04,10.59-5.84,14.02-2.09.69.67.63,1.12,1.27.71,1.45-.94,1.46.31.24,1.47-.84.8-.53,1.01.49,1.77.49.36.09.71-.18,1.23-.1.32-.02.68-.07.92-.23,1.13-5.33,5.14-7.18,5.82-1.27.24-.6-.73-.12-1.04h0Zm2.7-7.35c-.96,2.98-2.75,3.99-4.23.42l-.68.07c-.03,3.01,5.08,4.89,5.74-.46-.4,0-.62-.04-.84-.03h0Zm-4.73,2.78c-.35-.59-.74-1.95-1.11-1.97-1-.04-2.37.14-2.04.76.51.99,3.56,1.9,3.15,1.21Zm6.82-.53c.92-.56,1.11-.94.51-1.56-.77-.79-1.18-.39-1.42.88-.21,1.09-.06,1.26.9.68Zm-12.44-2.09c6.15-2.81,8.48-3.17,10.97-2.48.58.16,1.09.49,1.41.47,1.2-.07.43-1.43-1.71-2.2-2.45-.89-4.01-.48-8.72,2-2.76,1.45-5,3.6-1.96,2.21h0Zm17.81-3.41c-.09-.17-.46-1.29-.57-1.69-.11-.41-.2-.83-.32-.83-2.85.46-5.36-.08-6.03-.24-4.31-1.04-8.48-.83-11.59.4-.76.3-1.7.79-1.79.87-.25.23-.61-.03-.61-.32,0-.34,1.91-1.87,3.11-2.47,3.66-1.83,7.52-2.14,11.77-.99,2.76,1.07,4.54.9,6.31.12.87-.38.25.57-.02,1.82-.19.87.02,1.62.05,2.11.11,1.19-.03,1.79-.32,1.22h0Zm64.23,251.03v-98.33c-24.5,17.05-35.22,20.44-46.73,24.62,4.4,7.65-5.33,15-9.5,6.66-5.01,5.68-11.91,25.57-12.15,32.18,0,0,13.32,23.28,19.82,34.88h48.56Zm-89.05-32.23c.44-4.95,1.49-13.34,4.75-23.1,1.37-4.09,3.02-8.79,5.35-13,.93-1.47,1-2.04,0-1.51-.62.33-3.47,3.58-3.86,4.4-3.88,10.8-6.88,18.75-8.47,33.37l2.22-.16Zm3.2-.41c1.04-12.02,5.42-28.25,12-38.82.62-1.01,1.38-1.88,1.35-2.23-.09-1.03-2.62.75-4.58,3.78-2.19,4.39-4.39,9.08-6.07,14.27-2.37,7.33-4.11,14.09-4.78,23.28l2.09-.28Zm6.32-1c.66-6.93,2.79-13.28,4.57-19.65,2.18-7.78,5.09-13.51,8.49-18.67,1.09-1.65,2.37-3.2,3.59-4.78.16-.19.31-.53.28-.67-.78-.14-1.41.11-2.01.45-.85.48-2.04,1.69-2.73,2.58-4.83,6.23-7.44,13.5-9.85,20.84-2.32,7.05-3.99,13.84-4.31,20.22l1.98-.33Zm-43.42-5.31c.97-.08,1.6.11,1.88-.15.28-.26.19-.96.28-1.85.19-1.91-.01-1.8-1.19-.57-1.95,2.04-5.51,2.82-7.63,1.59-1.07-.62-1.81-1.05-1.91-.54-.12.6.05,1.06.5,1.39,2.57,1.18,5,.37,8.07.13Zm-2.29-1.46c1.35-.45,2.73-1.18,3.5-2.3.74-1.06.73-1.21.17-1.01-2.75,1.36-4.55,2.06-7.01,1.68-3.33-.51-3.46-.08-1.27,1.31,1.44.91,2.63.94,4.61.32Zm-4.88-4.26c.52-.38.65-1.95.23-2.03-.42-.09-1.03.69-1.18,1.32-.17.84.45,1.05.95.72h0Zm5.15-.07l.88-.08c-.45-3.92-4.66-4.09-5.44.39l.67.1c.87-3.48,3.24-3.45,3.89-.41h0Zm2.94-.73c1.09-.7.61-1.54-1.05-1.87-1.14-.27-1.08.67-.49,1.95.26.56.45.54,1.08.19.15-.09.32-.17.46-.26Zm-10.08-4.71c-.01-.44-.19-1.14-.39-1.56-1.48-3.07-2.3-6.7-2.14-11.21.12-3.23.16-4.23-.5-4.24-.93.45-1.48,6.47-.3,11.48.83,3.53,3.39,7.92,3.33,5.54h0Zm-.04-4.9c-.09-1.69.28-5.47.09-6.3-.24-1.09-.88-2.07-1.24-2.33-.56-.41-.7.37-.5,2.4.45,4.76,1.21,8.37,1.65,6.23h0Zm.47-8.67c.37-.67.22-1.38-.58-2.97-3.18-6.27-3.6-10.56-.27-12.11.37-.17.61-.21.86-.35,1.05-.59.65-1.65-.92-1.21-4.33,1.22-5.19,5.31-1.53,12.89,1.86,3.78,2.15,4.31,2.45,3.75h0Zm1-5.05c.04-.21-.39-.81-.86-2.02-1.22-3.16-1.25-4.47.08-5.38.43-.26.88-.27.94-.56.1-.46.1-1.21-.18-1.43-1.91.01-2.79,1.14-3.13,2.21-.35,3.91,1.28,6.62,2.73,9.21.25-.64.34-1.46.41-2.02h0Zm1.25-2.59c1.02-2.08.05-4.78-1.35-3.86-.91.6-.96,1.23-.4,2.96.68,2.11,1.09,2.26,1.75.9h0Zm3.73-5.82c.11-.43-.24-1.17-.86-3.04-.65-1.97-.35-3.32.88-3.71,1.77-.44,2.4,2.48,2.77,3.71.19.95.81,1.21,1.36.55.15-.19.2-.34-.06-1.38-1.14-4.53-2.64-5.97-5.04-4.84-2.23,1.05-1.94,3.38-.32,8.3.22.66.36,1.15.52,1.21.37-.13.62-.4.76-.81h0Zm1.83-1.29c.53-.53.5-.29-.11-2.18-.69-2.15-1.05-2.6-1.79-1.86-.46.45-.23.95.29,2.72.6,2.05.76,2.16,1.61,1.32h0Zm92.43-7.38c3.52-2.45,2.07-6.84-2.56-8.47-.55-.19-1.15-.42-1.34-.52-2.13-1.03-3.78-1.35-3.79-.54,0,.47.64.71,2.68,1.72,3.02,1.48,3.7,3.2,2.21,5.36-1.07,1.56.94,3.34,2.8,2.46h0Zm3.19-5.35c.31-1.26.76-2.33.98-3.07.3-1.15-.09-.88-.84-.7-1.94,1.02-3.33.46-2.39,1.86,1.05,1.86,1.91,3.29,2.25,1.91Zm-.24-4.39c2.42-1.46,2.95-5.27.7-7.08-.54-.43-1.47-1.01-2.6-1.35-2.29-.7-5.59-1.02-6.8-.65-.26.31-.27.8-.01.94.34.13.95.21,1.83.3,8.52,1.47,5.04,7.78-.82,6.41-1.91-.42-2.8-.22-2.03.23.91.54,2.87,1.24,4.8,1.62,1.65.29,3.53.4,4.93-.42h0Zm-11.6-.63c2.72-6.16,4.15-22.32-11.39-34l.51,3.23c9.16,8.1,11.36,18.41,9.46,27.87l1.42,2.9Zm13.88-11.04c-.97.64-1.79,1.3-3.04,1.86-.75.34-.77.42.25.98.49.27,1.3.77,1.61,1.11.54.59,1.17.81,1.41.6-.02-.92.29-3.95-.23-4.54Zm-4.6,1.17c3.15-1,4.83-2.53,4.47-5.09-.53-3.75-3.64-4.54-9.46-3.08-2.8.71-3.05,2.03-.39,1.35,3.36-.86,5.99.44,5.64,2.92-.21,2.14-1.91,3.39-4.91,3.39-1.58,0-2.07.14-1.86.72.15.39,5.21.21,6.5-.21Zm-5.2-8.91c5.15-1.78,7.54-4.55,6.37-7.64-1.38-3.65-5.88-3.69-10.39-.29-2.11,1.56-1.79,2.13.26,1.34,2.65-1.23,4.35-1.42,5.44-.44,1.96,1.76.64,4.84-2.33,5.94-1.44.6-1.9.94-1.9,1.37,0,.69.26.52,2.57-.28h0Zm8.68-.06c.13-1.08-1.08-4.82-1.6-3.96-.14.23-.62,1.29-1.23,1.83-1.77,1.6-1.44.99.32,1.48.98.27,2.36.97,2.5.64Zm-13.61-8c5.2-3.04,7.19-7.38,4.49-10.27-2.42-2.59-6.44-1.08-10.18,3.63-1.71,2.16-.43,1.89,1.88-.17,2.69-2.4,6.11-1.24,6.09,1.75-.01,1.28-1.8,3.43-3.49,4.42-.53.31-.6.79-.42,1.09.2.33.62.12,1.62-.47h0Zm9.12-3.17c-.27-.82-2.23-4.33-2.65-4.21-.44.9-.48,2.08-1.01,3.04-.73,1.43-.63,1.21,1.68,1.2,1.72,0,1.93.24,1.98-.03h0Zm-15.3-3.97c4.37-4.58,4.76-9.93.66-11.17-2.27-.68-5.9.97-5.91,2.68-.01,1.06.19,1.26,1.11.87,3.86-1.45,6.93,2.3,3.38,6.6-.86,1.25-.98,1.56-.73,1.82.29.3.53.19,1.49-.81h0Zm47.11-38.45V29.72h-25.61l-20.32,32.29-.03,7.92c0,.27.46.44.76.1,1.15-.9.71.04-.62,2.08-1.34,2.06-.93,3.76.54,5.96,3.11,4.67,4.74,13.23,3.41,17.76-.5,1.71-.61,2.4-.29,3.36.37,1.09.6,1.68,1.68,2.38.94.66,8.67,3.7,21.12,11.77l-.06-56.98,7.85-7.58,8.29,8,.29,94.88,2.99.28Zm-4.51-94.89l-6.94-6.52-6.86,6.42c-.04,30.64.17,93.53.17,93.53l6.82.49s.5-1.43-.14-5.14c-.96-5.56-.9-12.36.64-22.7.96-6.34.01-11.84-1.45-17.63-1.26-3.86-1.31-7.43-1.08-10.88.48-5.5,1.99-9.66,2.17-17.58.1-4.51-.11-8.93.06-14.5.07-.75.38-.65.44.12.21,5.04.4,9.83.45,14.75-.15,6.4-1.7,12.99-1.87,18.84-.13,4.06-.19,5.46,1.51,10.4,2.67,7.77.91,19.7.88,19.91-1.13,7.64-1.96,17.42,1.86,24.73l3.7.33-.36-94.57Zm-47.74,57.8c2.05-.95,2.45-2.62,1.35-6.66-.2-.72-.42-1.58-.5-1.9-.24-1-.68-1.11-1.27-.31-.35.47-.03.58.52,2.8.82,3.35.34,4.46-.89,4.45-1.1,0-1.95-.92-2.26-3.09-.11-.74-.26-1.25-.44-1.55-.3-.5-.66-.41-.95.14-.37.71.33,3.65,1.26,5.07,1.01,1.43,1.71,1.73,3.18,1.05h0Zm-.56-3.01c.44-.83-.1-2.86-.39-4.19-.26-.74-.56-.92-1.04-.8-.73.18-.69.98-.43,2.3.53,2.68.82,3.02,1.86,2.69Zm6.22-4.84c2.34-1.35,2.57-3.67.99-7.89-.65-1.73-1.45-2.95-1.89-2.96-.17,1.1-.33,1.69-.14,2.12,1.39,2.14,2.43,5.52.4,7.42-1.2.91-.44,1.67.64,1.32h0Zm-76.67-1.62c5.51-1.12,10.45-10.09,13.57-18.03,2.84-8,5.87-16.79,6.34-24.12,0,0-2.08.1-2.33.53-.24.43-.34,1.35-.56,2.66-1.43,6.74-2.57,11.87-5.07,18.2-1.73,4.4-3.63,9.38-8.33,16.07-1.54,1.87-3.31,3.03-5.53,3.34-.56.08-1.52-.03-1.76.14-.42.3-.04.98,1.04,1.25,1.03.24,1.66.15,2.61-.04h0Zm75.7-1.04c.84-.9.92-1.97-.02-4.22-.26-.63-.38-.99-.7-.9-.66.19-1.44,1.94-.98,3.43.6,1.94.94,2.5,1.69,1.7h0Zm-77.62-1.41c1.61-.22,3.78-1.42,5.12-3.53,9-14.12,10.53-22.02,13.36-35.41,0,0-2.03-.07-2.46.36-.77,5.43-2.56,10.87-3.88,15.4-2.21,7.7-8.51,20.01-11.95,20.59-1.85.31-3.96-1.31-3.62-2.97.21-1.02.35-1.41.84-1.66,1.2-.42,1.89.4.58.93-1.52,1.33,1.22,3.37,2.9,1.95,2.85-2.42-1.34-7.04-4.77-4.92-3.8,2.36-2.82,6.44-.43,8.38,1.21.98,2.6,1.12,4.31.88h0Zm26.91-5.53c2.35-2.43,4.11-5.58,5.39-9.51,2.78-8.83,5.08-18.96,5.92-26.89,0,0-2.01-.21-2.45.22-.73,8.59-4.23,26.23-9.87,35.31-1.22,2.15-.77,2.7,1.01.86h0Zm52.09-18.41c-.22-.11-.2-.04-.29.03-.32.22-.11,1.35.62,3.09,1.91,3.11,2.14,9.16,2.01,11.43-.04.68-.11,1.07.1,1.68.2.59.56,1.29,1.13.13.63-4.48.14-9.16-1.57-12.96-.6-1.35-1.19-2.67-2-3.4h0Zm1.47,13.2c.34-1.2-.28-5.98-1.05-7.66-.31-.68-.87-.73-.8.04.01,1.65-.17,4.8,0,5.73.84,1.95,1.49,3.18,1.85,1.88h0Zm-4.33-19.29h-.9c.03,3.12-2.72,3.99-3.73.24l-.81.19c1.08,5.29,5.97,2.87,5.45-.43h0Zm-5.49,2.35c-.47-1.39-.28-1.89-1.47-1.27-.91.48-1.45.98-.17,1.6,1.14.49,1.94.54,1.64-.34h0Zm6.88-.8c.38-.77.33-1.46-.24-1.47-.44,0-.56.35-.68,1.1-.22,1.33.33,1.58.92.37h0Zm.48-5.19c.35-.11.25-.61.16-1.24-1.49-2.09-5.17-1.45-6.49-1.03-1.53.5-1.91.31-2.95-.17-.86-.16-.98.05-1.19.46-.18.36-.22,1.06-.28,2.26-.05,1.02-.01,1.49.34,1.17,3.13-3.12,5.52-3.87,10.42-1.47h0Zm-10.14,2.82c0,.42.35.16,1.26-.42,3.31-1.98,5.22-1.7,8.05-.76.63.21,1.02-.45.34-1.02-3.36-2.79-7.5-1.01-9.65,2.19Zm11.98-12.83l17.93-29.91-99.9-.07,16.96,31.75c13.83-3.23,36.6-7.35,65-1.77h0Z"/>
    <path id="uuid-9e058c4a-fdd9-41b6-8519-940a926e0388" data-name="path4098-7-2-7" class="uuid-a38917ae-23c1-44fd-aa7d-003ba65bebe5" d="m80.03,293.2c2.12-3.18,12.59,2.49,13.15,4.74,6.2-4.92,13.73-5.28,19.79.88,6.23-6.87,12.9-6.4,19.84-2.42-.78-1.55,8.87-8.41,14.74-4.05l15.86,28.49-101.59.33c6-9.09,11.32-19.94,18.21-27.96Zm-44.37-148.58c-.55-1.54-2.78-17.37,2.87-17.76,36.03,22.4,36.73,62.76,35.95,63.07-.54-.16,11.52,12.05,12.37,13.23,2.59,3.59-22.94,38.5-23.95,37.15l-8.32-4.75.21-12.18.18-24.57-19.91-1.75.7-5.35c6.68.55,13.53,1.82,19.72.37,4.07-7.52,2.52-18.73-2.38-23.25-2.59-1.59-5.03-1.08-7.66-.74-10.66-1.8-5.14-19.92-9.77-23.45h0Zm178.31,8.13l.06,4.49c-7.02,1.54-19.43-4.45-23.18,5.21.47,10.44,2.78,15.12,4.4,18.27,1.22,2.83,9.75-.4,12.76,2.46,8.63,10.71,6.59,24.97,6.67,37.82l-3.74,1.91c-25.86-15.39-45.72-63.19-48.47-76.8-.18-8.74,23.73-36.81,23.73-36.81.05-.06,8.71,5.32,8.71,5.32.21.08-.18,36.85-.18,36.68,6.83.35,13.46,1.03,19.25,1.46Zm-51.28-33.6c-30.16,53.23-17.83,92.62,4.37,126.6,0,0-1.92.44-2.13.25-6.07-6.08-13.54-3.29-19.53-2.01-18.38.35-11.47-5.46-37.67-14.67-6.37.58-16.07,3.61-19.74,1.16,25.54-47.55,21.71-77.99-4.73-127.82,2.19.65,2.53,2.72,4.17,3.23,5.43,2.12,12.92,1.31,17.41-.66,7.13-3.28,14.75,5.53,36.66,15.21,1.79.93,4.04-.54,6.01-.94,4.04-.83,7.5-2.57,10.52-1.55.97.33,4.66,1.21,4.66,1.21h0Zm-60.88-62.22c-1.3-2.44-14.6-27.96-14.6-27.96l98.91.6-14.84,24.62c-1.4,1.34-8.37,5.06-15.48-3.37-.13,1.21-10.55,8.71-19.5-.32-5.39,4.94-10.89,7.8-19.95,2.24-.2,1.55-7.27,8.51-14.53,4.19h0Z"/>
    <path id="uuid-201a6613-eb11-40db-b0d1-b6623b42bcda" data-name="path4094-0-9-9" class="uuid-84b9776e-72dd-4f0a-ba32-af02c1c8789a" d="m112.64,298.25c-9.58-9.07-19.56-.88-19.33-.36-3.67-3.69-6.97-5.67-12.75-5.36,0,0,.25-1.52.28-1.55,14.91,2.75,37.74,3.47,64.42-2.17l1.37,2.89c-7.16-2.57-10.85.9-14.02,4.94-11.49-7.24-14.29-.89-19.98,1.61Zm22.35-105.44l6.78-.13c1.28,19.92,17.75,50.41,18.15,50.41-1.15-1.61-12.02-.34-11.94-.14-5.98-16.12-12.55-32.22-12.98-50.14Zm-39.54,47.26c.09.01-1.63-5.64-3.49-8.15,7.12-12.28,12.96-24.99,15.95-39.13l4.85.04c-1.44,19.51-16.9,49.15-17.31,47.24Zm87.22-2.61c10.68-19.47,8.84-47.53-21.46-63.04,0,0,.79-20.57,3.04-20.62.51.16,13.71-.17,13.71-.17,3.46-8.58,9.03-18.95,16.8-25.96l.19,22.99c-5.76.57-9.27,2.43-11.01,6.98l-7.98,1.79c.59,23.1,9.19,44.44,34.7,63.6-6.1,5.29-26.93,16.04-26.85,15.85l-1.15-1.44Zm-127.82-14.51l.23-23.94c3.87-.84,6.92.29,10.11-6.72,0,0,5.36,2.57,7.14,3.52-5.01,9.06-9.34,18.74-17.48,27.14Zm50.79-42.19l.26-12.28h11.42c-.97,4.12-1.27,8.16.02,12.28h-11.71Zm26.06,0c.78-3.98,1.34-8.06-.28-12.28h12.37l-.29,12.28h-11.79Zm-23.52-24.11c-2.06-23.84-18.22-50.82-18.45-50.25,1.9.31,5.26,1.26,7.11.38,2.23.37,4.17.12,4.28-.09-.29-2.61,12.74,25.28,13.04,49.9-.18.19-5.42.13-5.97.05h0Zm28.58.21c1.75-11.01,6.25-31.16,16.89-47.5,1.21,2.9,2.22,5.88,3.88,8.59-8.02,11.79-12.96,25.27-15.96,39.03l-4.81-.13Zm-73.95-5.94c-4.87-10.03-25.12-25.83-24.08-24.24,8.38-7.59,17.73-12.42,27.06-17.29,0,0,1.66,1.59,1.41,1.99-5.74,9.14-8.52,28.5-2.96,39.59,5.34,11.85,14.81,18.86,24.46,24.36-.75,7.41-1.11,12.77-2.92,20.13,0,0-6.07-3.22-11.04-5.3-.79-13.99-3.66-26.51-11.93-39.25h0Zm53.63-98.33c7.14,4.4,13.53,3.93,19.73-2.03,7.78,7.13,16.19,3.81,19.75.6,3.29,3.75,7.58,5.82,13.84,4.59l-1.55,3.29c-19.98-3.99-41.7-2.42-64.33,1.36,0,0-1.46-2.88-1.33-2.9,1.84-.11,8.18,2.57,13.89-4.9h0Z"/>
    <path id="uuid-84362bb6-d4fe-46e4-8e74-15c615f0d01f" data-name="path4092-7-7-9" class="uuid-798d94bb-253f-43a3-aabc-b875a5f81a42" d="m85.77,28.17l17.62,33.18s.52-.1.77-.15c24.43-4.83,43.78-5.49,64.56-1.79l18.47-30.89c-33.62-.39-101.43-.35-101.43-.35Zm1.96,1.41l98.01.11-5.51,9.14c-3.3-1.03-5.14.5-5.6,3.7,0,0-.41-.18-1.17-.26-4.83-.53-5.44,5.91-.93,6.68,1.15.2,1.35-.03,1.35-.03-4.02,3.42-6.31,1.11-8.2-.02-.05.4-3.6,3.1-6.96-.13,4.8.48,5.55-4.38,3.25-6.22-.48-.48-.97-.85-.97-.85,1.13-.99,1.37-2.32.65-3.83-1.46-3.04-6.02-2.87-6.71.46-.27,1.29-.28,1.52-.28,1.52-3.68.24-4.43,3.76-3.17,5.71.72,1.11,2.3,1.35,3.76,1.27-1.97,2.82-6.48,1.86-8.48-.46-3.19,3.79-6.83,3.33-8.64,1.3,1.23-.01,2.08-.03,3.21-1.09,1.94-1.81.99-5.02-1.75-5.92-.53-.17-.91-.21-.94-.21.02-.03.07-.21.19-1.17.68-5.59-7.61-5.04-6.81.46.09.64.27.98.27.98,0,0-.88-.05-1.38.19-4.6,2.15-1.43,8.06,2.13,6.54.34-.14,1.26-.6,1.39-.59-4.41,5.52-8.11,1.61-9.08,1.01-2.98,4.46-8.15,1.42-8.25,1.11.32.09,1.29-.11,2.21-.59,2.91-1.53,2.09-5.49-.18-6.35-.7-.25-1.54-.27-2.48-.2,0,0,.07-.99-.02-1.34-1.43-5.38-8.05-2.69-6.42,1.85.14.4.53.8.53.8,0,0-.9.55-1.3.92-3.16,2.87.06,7.61,3.75,5.64.48-.25.94-.79,1.07-.76-1.74,3.21-4.37,4.33-8.13,1.67-2.32,3.71-6.1,2.17-7.17.31,3.53.33,5.83-6.52-.96-6.74-.53-1.86-.5-4.69-4.81-4.21l-5.44-10.38Zm47.86,11.75c.78,0,1.41.64,1.41,1.43,0,.79-.63,1.43-1.41,1.43s-1.41-.64-1.41-1.43.63-1.43,1.41-1.43Zm21.9.17c.82,0,1.49.68,1.49,1.51s-.67,1.51-1.49,1.51-1.49-.68-1.49-1.51c0-.83.67-1.51,1.49-1.51Zm-42.93,1.65c.79,0,1.44.65,1.44,1.45,0,.8-.64,1.46-1.44,1.46s-1.44-.66-1.44-1.46.65-1.45,1.44-1.45Zm60.9,1.67c.18.01.38.05.59.12l-1.25,2.24c-1.21-1.07-.63-2.43.66-2.36Zm-79.29.89c2.22.15,1.57,1.76,1.24,2.32l-1.24-2.32Zm39.23,1.06c8.41,9.7,15.95,6.83,20.89.38,2.12,5.49,6.83,9.29,14.94,5.6-.49.88-1.72,2.43-1.72,2.43-7.17,1.95-10.73-1.46-13.49-4.71-7.29,6.13-14.16,4.64-19.83-.76-4.84,6.16-12.67,7.49-19.92,2.46-3.32,4.95-8.07,6.95-14.05,4.47,0,0-1.27-2.02-1.38-2.15.87.74,11.88,5.36,14.57-5.76,3.83,6.58,16.4,6.93,20.01-1.95Zm.84,3.99c9.46,8.95,19.39,1.21,19.64.67.15.5,5.55,7.02,13.34,4.57l-1.27,2.19c-20.69-3.37-40.45-2.68-63.92,1.83l-1.28-2.31c6,1.87,11.25-.46,13.63-4.5,1.39.91,12.09,6.96,19.86-2.45Zm-24.81,50.12c-.25.01-.56.29-1.08.81-1.12,1.11-1.37,1.26-2.46,1.42-.82.12-2.54,1.12-3.59,2.09-.28.26-.82.48-1.47.59-.56.1-1.33.23-1.72.3-.38.07-.8.19-.93.27-.55.34-1.44.39-2.45.15-.97-.24-1.12-.23-2.19.1-1.56.48-2.57.49-3.34,0-.76-.48-1.98-.66-2.75-.41-1.14.37-4.09-1.42-4.09-2.47,0-.24-1.68-1.51-2.1-1.51-1.5-.22-14.65,5.03-14.58,5.33,16.15,20.17,29.74,50.91,19.5,88.52l-1.81-.88c1.52-6.84,2.12-13.72,2.59-20.71-30.31-13.24-32.91-44.02-21.15-63.45l-2-2.15c-7.13,3.85-14.37,6.03-31.99,20.98.05,22.47.09,44.94.08,67.4,6.38.71,13.4,1.3,20.32,1.9,0,0-.09,21.64-.25,30.1-.13,7.16.13,6.71.13,6.71l22.93,12.23c-1.61-6.44,2.37-9,5.69-8.73-1.47-6.21,2.18-9.05,6.35-8.26,2.82.54,3.8,2.11,5.41,7.3.26.84.62,1.97.62,1.97l1.61-.06c2.01-4.37,3.35-9.93,8.09-10.65,6.2-.94,8.5,3.36,8.5,7.67,6-5.35,13.19-1.21,12.73,6.79,3.02-1.96,8.14-3.74,11.36,3.83,1.21-.26,1.83-1.63,3.53-2.05.64-.13,2.08-.92,2.08-.92l.02-.26s1.34-.47,3.14-.77c1.54.58,1.09.56,1.92-.47.93-.48,2.43-.8,3.58-.69,1.21.11,1.75.2,2.47-.12,1.11-.49,2.14-.61,2.8.13.47.53,1.15.28,1.88.25,1.46-.06,3.41.55,4.02,1.88.9.92,2.86,1.86,2.86,1.86l1.59-.37.18-.59,12.99-5.02c-26.49-29.34-25.8-68.27-19.56-87.97l2.4,1.17c-1.27,5.84-2.71,11.84-2.53,20.54,23.85,10.76,35.72,38.57,21.26,62.84l1.53,2c6.02-2.55,21.15-11.15,26.38-15.82l1.11.09s3.17-2.08,4.57-3.19l.19-64.42-1.11.29-.2-3.76-19.67-1.58c.25-.19.44-.27.49-.64l-.11-35.66c-.73-1.13-17.2-10.89-23.33-13.17-.25,0-.08.42.01,1.44.3,3.5-2.03,6.61-4.74,6.62-.97,0-1.14.42-1.09,2.43.07,2.86-.95,4.77-3.93,5.86-3.52,1.29-5.91-.58-7.87-7.91-.51-1.93-1.52-1.44-2.49,1.19-.48,1.31-2.03,4.48-2.96,6.15-.71,1.28-1.84,1.85-3.37,2.54-1.2.6-3.79.49-5.28-.27-2.7-1.39-3.75-3.06-4.53-7.2-.1-.54-.45-.49-1.33.18-4.77,3.64-11.49-.12-11.45-6.42.01-1.85-.06-1.92-1.13-1.03-3.24,2.67-7.64,1.32-9.4-2.9-.41-.99-.63-1.43-.95-1.42h0Zm-27.4,2.23c.3.07.99.96,1.35,1.4.97,1.08,2.27,1.63,3.63,2.44.13-.19,15.81,21.1,18.48,50.46l7.29.04c-1.36-28.53-9.14-42.24-12.7-51.04l2.62-.84c5.87,11.37,13.02,34.45,12.78,54.66h-12.05c-1.7-20.24-9.48-39.97-20.36-54.94-.76-1.15-1.33-1.94-1.13-2.16.02-.03.06-.03.1-.02h0Zm-4.66,3.01l1.22,3.88s.15-.91.52-1.25c2.38-2.17,4.66.69,3.59,4.56-.25,1.19-.72,3.54-.72,3.54,0,0-2.39-1.24-3.6-1.64-3.32-1.43-4.43-4.24-1.89-4.56.42-.05,1.3-.09,1.3-.09-1.05-.84-3.38-2.75-3.38-2.75l2.96-1.69Zm11.14.43h0c1,.58,3.59,1.2,5.07.64,1.2-.46,2.12-.21,3.37-.1.72.06,2.14-.26,2.14-.26,7.13,15.18,12.04,33.19,12.86,49.66l-5.61.03c-2.12-17.5-8.81-35.28-17.31-48.46-.38-.57-.87-1.49-.52-1.52h0Zm23.22.37c2.62.08,5.15,3.68,5.89,5.7.69,2,.96,1.88,1.88,1.55,2.37-.82,4.89,1.81,1.72,2.25-3.12.52-1.34,6.69-1.6,7.23-1.26.22-3.64-5.02-3.58-6.58.15-3.82-3.4-7.02-5.6-5.41-1.05.76-.93,1.3-1.25,1.02-.99-.84-1.19-3.17-.03-4.49.83-.94,1.71-1.3,2.58-1.27h0Zm64.74,1.21s.12,5.03-.06,6.14c-.37,3.35-4.7,3.7-4.87,1.02-.71,1.07-1.19,2.4-1.47,3.6l-3.07-2.13c1.17-.85,2.28-1.59,3.14-2.64-2.28.17-3.55-1.82-2.02-3.51,1.69-1.94,6.37-2.15,8.36-2.48h0Zm-112.83,1.59l1.36,1.55c-12.09,21.68-7.83,49.4,21.36,63.96-.19,6.65-1.04,13.38-2.61,19.62l-10.77-5.28c.07-24.51-13.65-47.89-35.55-63.25,7.95-6.46,16.74-12.13,26.21-16.6Zm88.16.19c.51,2.86,3.19,8.05,3.39,7.75-.03-.17-11.15,14.41-15.98,38.8l-4.13.02c2.71-16.25,8.11-31.58,16.73-46.56Zm34.27.68l2.2,1.34c-11.52,9.76-19.11,22.14-24.69,35.48l-2.91-1.39c8.64-19.36,17.18-27.96,25.4-35.43Zm2.96,2.16c.98.07,1.81.97,2.55,1.42,1.06.65.81.92-1.23,2.5-2.41,1.87-2.64,1.79-2.62-.88.01-1.77.45-3.11,1.3-3.05Zm-2.54,2.75c.68-.11.35,3.05.17,4.07-.23,1.05-3.33,3.7-4.43,4.74-.44.29-.65.19-.73-.34.03-.83.11-1.93.13-3.06,0-.35-.07-.71.24-.98,1.52-1.81,3.74-4.3,4.61-4.44Zm5.86.86s-.01,0,0,.01c.29.17.2,3.81,0,4.05-.9.23-3.33-.15-3.95-.48-.14-.42,3.38-3.6,3.95-3.57h0Zm-108.05,1.18l.84,3.56s.24-.48.3-.57c1.67-2.58,3.7-1.07,3.67,2.52-.01,1.13-1.03,5.66-1.03,5.66,0,0-6.27-3.04-6.76-4.38-.48-1.31.2-2.47,1.36-2.58.43-.05.88-.09,1.38,0l-2.69-2.78,2.94-1.43Zm71.72.47l2.84,1.06c-5.93,9.75-12.04,19.39-16.5,41.36h-11.91c1.67-13.43,5.04-26.63,11.07-39.48.87-.15,2.9-.56,3.66-1.16,0,0-9.85,22.79-10.99,37.45l5.75.13c3.07-14.28,8.82-29.08,16.08-39.36Zm-22.56.35c1.6-.06,2.78,1.08,2.69,3.1-.02,1.85-.19,2.12-1.48,1.38-1.7-.97-3.04-.99-4.56.11-.84.61-1.66,1.11-1.66,1.11,0,0,.73-3.21,1.86-4.22,1.08-.97,2.19-1.43,3.15-1.47Zm-9.38,1.16c1.8.03,3.46,1.76,3.27,3.59-.12,1.09-.43,1.58-.72,2.51,0,0,.93-.37,1.38-.58,2.12-1,4.32.85,4.29,3.02.1,1.45-1.46,3.18-3.31,3.19-.64.01-1.33-.2-1.99-.7.48,2.65.57,3.87-1.34,5.2-1.6,1.08-4.97-.15-4.78-3.12l.12-1.82-1.62.21c-4.53.19-4.61-5.45-.95-6.33,1.46-.35,3.04.86,3.04.86-.69-1.38-.71-3.76.22-4.86.72-.84,1.57-1.18,2.39-1.17Zm42.78.07c.25,2.11,1.08,4.41.84,6.38-.35,2.52-2.47,4.01-4.13,2.38-.2-.2-.57-.62-.57-.62-.75.96-1.22,3.68-1.22,3.68l-2.93-1.83s2.04-1.45,2.6-2.27c.16-.23.23-.66.23-.66-1.63.52-3.02-1.17-2.57-2.66.88-2.44,5.27-3.34,7.76-4.38Zm20.72,1.46c1.11,0,2.82.37,3.92.49,1.03.18.46.77-1.85,3.05-2.12,2.09-2.06,1.9-3.69,1.87-3.82-.07-4.49.02-2.27-2.41,1.17-1.27,2.18-2.42,3.02-2.85.19-.11.5-.15.87-.15Zm-7.13.47c.06-.02.11-.02.15,0,.28.25.15,2.14.13,3.04-.03,1.72-.01,1.72-.72,2.61-.9,1.15-1.65,2.32-2.6,3.42-.82.9-.79.8-1.28-1.36-.47-2.09-.11-2.66,2.46-5.78.48-.59,1.43-1.78,1.86-1.94Zm11.89,1.55c.05,1.18-.01,2.58,0,3.93-7.89,7.8-13.14,16.57-16.79,26.24l-2.68-1.3c5.11-12.06,11.89-21.35,19.47-28.87Zm-68.29,2.25c-1.3,0-2.36,1.07-2.36,2.39,0,1.32,1.05,2.39,2.36,2.39s2.36-1.07,2.36-2.39-1.06-2.39-2.36-2.39Zm-.02.75c.9,0,1.63.74,1.63,1.65,0,.91-.73,1.65-1.63,1.65s-1.63-.74-1.63-1.65.73-1.65,1.63-1.65Zm-.02.89c-.43,0-.78.35-.78.78s.35.78.78.78c.43,0,.78-.35.78-.78s-.35-.78-.78-.78Zm-87.59.12c24.6,15.97,35.63,40.72,35.58,61.98l-1.39-.63c-1.44-30.04-17.58-48.52-35.03-60.47l.84-.88Zm145.4.23c.9-.01,1.84.12,2.64.21,2.04.11,2.29.24.88,1.87-1.04,1.26-2.52,3.44-3.09,3.62-.43.15-4-.02-5.02-.16-.33-.05.1-.39,1.85-2.91,1.33-1.93,1.48-2.57,2.74-2.62Zm10.51.88s.35,13.63,0,22.36c-5.61-.21-8.81,1.94-10.18,6.02l-5.83-2.95c4.33-11.24,10.08-18.99,16.01-25.43Zm-17.39.11c.32,0,.48.81.57,2.13.47,2.48.28,2.66-.64,4.14-.91,1.47-2.38,4.05-2.57,3.14-.77-2.54-1.01-4.11-.74-4.62.98-1.6,2.1-3.53,3.38-4.79Zm-140.34.4c19.77,12.39,34.24,33.54,34.83,59.09,0,0-4.21-2-6.82-3.46l-.13-2.48,1.37-.05.44,2.8,3.02-.1-.8-6.99-4.73.45-.95-3.96,1.43-.31.79,2.55,3.07-.82-1.64-6.23-4.75,1.31-1.52-4.2,1.58-.57,1.27,2.52,2.89-1.02-2.73-6.24-4.37,2.09-2.22-4.07,1.71-.92,1.37,2.42,2.7-1.41-3.34-5.74-4.14,2.34-2.08-3.16,1.29-.91,1.42,1.66,2.37-1.7-3.64-4.95-3.97,3.14-2.93-3.43,1.35-1.16,2.02,1.83,2.26-1.99-4.32-4.77-3.78,3.48-2.82-2.47,1.38-1.54,1.75,1.36,1.87-2.24-4.71-3.92-3.53,3.53-3.38-2.26v-1.68c1.1.43,2.26.93,3.3,1.49l1.75-2.68-5.05-3.45,1.09-1.16Zm55.07,1.06l.75,4.37c.71-1.19,1.28-2.01,2.81-1.55,1.84.76,1.87,3.57.31,7.87-.29.8-.65,1.49-.65,1.49,0,0-.81-.34-1.35-.71-1.13-.78-3.03-1.66-4-3.21-1.02-1.62-1.04-3.89.83-3.7.37,0,1.1.18,1.1.18l-2.81-3.62,3-1.12Zm-56.15,1.3l3.42,2.23-.71,1.31-2.71-1.24v-2.3Zm85.84,1.03c.99,1.4-2.5,5.54,2.07,7.19,0,0,.11.95-.84,1.53-2.23,1.64-5.44-1.36-4.45-4.45.64-1.97,2.48-4.26,3.22-4.27h0Zm9.47.13s1.38,1.02,1.65,1.29c2.54,2.47,2.57,6,.26,7.24-1.53.82-3.26.16-3.87-1.03-.28-.55.18-1.13.76-1.13,1.1.01,1.94-2.12,1.61-4.36-.13-.89-.43-2-.43-2Zm30,.82h0s.3,3.02.74,4.36c1.34,3.76-.37,6.05-2.86,4.79-.36-.18-.99-1-.99-1l-.25,4.32-3.55-1.05c.77-1.25,1.87-2.14,2.7-3.54,0,0-.53-.02-.99-.02-2.12.07-2.9-2.3-.68-4.26,1.66-1.44,5.88-3.61,5.88-3.61h0Zm18.87.96c1.29-.04,2.63.09,3.67.22-.9,1.83-1.86,3.41-2.95,4.89-.18.13-.41.22-.74.29-1.37.27-2.92.09-4.48.16-.34-.02.36-1.2.75-1.93.95-1.79,1.68-3.16,2.5-3.54.4-.05.83-.08,1.26-.09h0Zm-7.27,1.43c.27-.01.47.48.73,1.5.6,2.38.76,2.44-.22,4.39-.49.98-1.33,2.65-1.67,3.34-.88,1.77-.93,1.75-1.49.17-1.07-3.04-1.16-2.73.6-6.14,1.1-2.13,1.65-3.23,2.05-3.26Zm-129.75.83l3.18,2.58-.91.89-1.76-1.31-2.6,2.82,4.28,3.94,3.62-3.6,3.1,3.28-.95.81-1.82-1.78-2.72,2.35,4.06,4.86,4.1-3.16,2.57,3.4-1.05.66-1.67-1.65-2.67,1.87,3.32,4.73,4.18-2.42,2.37,3.95-1.32.64-1.34-2.17-3,1.75,2.83,5.53,4.51-1.91,1.81,4.22-1.38.57-1.16-2.54-3.04,1.21,2.03,5.81,4.58-1.33,1.11,4.31-1.41.4-.69-2.39-2.91.71,1.22,5.83,4.66-.3.55,4.71-1.45.07-.36-2.81-2.97.04c.02.99.13,3.01.13,3.01l-1.79-.84c-2.66-17.91-12.16-32.84-26.31-43.24l-.07-2.14,3.45,2.21s3.16-2.85,3.7-3.57h0Zm134.15,4.26c.69-.02,1.38-.01,2.19,0,.37.26-.1,1.13-1.07,3-1.34,2.58-1.58,2.64-4.09,3.26-3.05.75-2.97.92-1.31-2.64.64-1.37,1.5-3.01,2.08-3.46.82-.09,1.51-.13,2.2-.15Zm-141.13.68c14.7,9.59,23.99,29.43,25.14,41.46,0,0-.4-.27-1.2-.64-1.11-.52-1.39-.86-1.71-2.49-2.91-14.71-11.12-27.19-22.16-36.01l-.06-2.32Zm132.53,2.46c.73-.26,1.96,5.25,1.58,5.69l-3.55-1.63s1.55-3.98,1.97-4.06Zm-70.87.21l-.07,4.68s.56-.67.84-.88c1.09-.81,2.76.31,2.83,1.69.09,1.92-.2,2.69-1.72,5.36-.47.82-1.18,1.87-1.18,1.87,0,0-1.79-1.29-3.75-3.27-2.12-2.13-1.71-4.98.14-4.99.55,0,1.05.19,1.53.34-.4-1.38-1.89-4.06-1.89-4.06l3.26-.75Zm57.45,3.51s.96,1.28,2.06,4.64c1.05,3.21-.57,5.63-2.77,4.42-.39-.22-.81-.69-.81-.69-.15,1.56.12,4.36.15,4.38l-3.55-.63s1.95-3.13,2.09-3.9c0,0-.22.18-1.19.18-3.56,0-2.83-4.29,1.29-6.67.62-.36,2.72-1.72,2.72-1.72Zm20.44.05c.77-.03.41.72-.45,2.48-.46.96-.78,1.49-.78,1.49,0,0-2.56-1.11-3.71-1.79,1.6-1.35,2.6-1.61,4.93-2.18Zm-50.59.57c2.79.02,4.85,2.8,4.44,6.77-.71,6.8-.3,6.38.43,7.06,1.33,1.24-.47,1.98-2.06.8-1.11-.82-1.47-1.63-1.41-5.39.06-4.32-.17-5.41-1.7-5.04-.95.24-1.25,1.05-1.15,3.96.15,4.08-.12,5.11-1.65,6.42-1.65,1.29-3.44.14-1.93-.71.69-.79.82-1.78.55-4.25-.29-2.1-1.5-9.66,4.47-9.63Zm68.1,3.42c.68-.02,1.35,0,2.03.02,5.38.2,18.97,1.32,18.97,1.32l.12,4.06c-.84-.12-19.71-1.7-22.46-.89,1.21.51,1.1,6.64-4.24,5.15-4.53-1.65-2.36-7.98,3.47-9.4.73-.18,1.43-.25,2.11-.27Zm-68.12,2.4c.31,0,.55,1.23.55,2.76s-.25,2.76-.55,2.76-.55-1.23-.55-2.76.25-2.76.55-2.76Zm39.18.33l11.62,5.79c1.63,22.06,9.15,45.38,34.8,63.05-4.15,3.01-14.58,10.39-26.49,15.45l-.97-1.06c14.14-24.33,3.46-51.11-21.31-63.23.07-6.75.91-13.41,2.35-20Zm24.84,2.78c-.57,0-1.03.46-1.03,1.03,0,.57.46,1.03,1.03,1.03.57,0,1.03-.46,1.03-1.03,0-.57-.46-1.03-1.03-1.03Zm10.5.43c1.81-.03,3.71.45,5.52.48h.01c2.22-.09,2.8.17,2.99,1.19.18.97.89,1.19,1.73.88,2.04-.75,3.29,2.91,1.6,4.54-1.05,1.01-.87,1.4,0,1.4,2.14.01,2.08,2.84-.1,4.45-.9.67-.89.97.05,1.44,1.58.79,1.26,2.35-.74,3.63-1.09.7-1.13.87-.23,1.12,2.27.62-.05,3.89-2.53,3.31-1.02-.24-1.98-.01-2.96.63-2.66,1.12-3.1,1.34-5.96.98-2.52-.47-3.64-1.31-4.29-3.54-1.48-4.54-3.07-9.58-3.08-14.54-.22-3.05,4.82-5.8,7.21-5.92.25-.03.51-.04.77-.05h0Zm-153.38.56c2.67,0,4.83,2.19,4.83,4.89s-2.16,4.89-4.83,4.89-4.83-2.19-4.83-4.89,2.16-4.89,4.83-4.89Zm53.73,1.44l-.43,4.27s.71-.56.88-.7c1.26-1.06,3.24.13,2.79,1.78-.15,1.46-2.64,5.79-3.63,6.7,0,0-3.99-4.4-4.42-5.26-.95-1.91.35-3.91,2.07-3.06.25.12.96.65.96.65l-1.26-4.06,3.05-.33Zm-53.29.15c-1.75-.13-3.48.81-3.22,2.72.15.6,1.06-.27,1.95-.84,1.72-.74,2.73-.09,3.69,1.23.34.42.72.77.93.56.17-2.35-1.6-3.55-3.35-3.68Zm130.08.85l1.73.89c2.33,31.18,17.91,49.51,34.29,60.43l-1.3.8c-20.1-13.02-34.05-36.36-34.71-62.12Zm2.62,1.28s4.34,2.25,6.61,3.28l.09,2.82-1.52.06-.52-2.65-3.15.23.98,6.53,5.09-.63.71,3.94-1.72.36-.88-2.42-2.92.72,1.89,6.34,4.59-1.5,1.44,4.14-1.54.57-.98-2.43-3.02,1.07,2.34,6.19,4.77-1.55,1.93,3.87-1.45.65-1.38-2.4-2.86,1.48,3.36,5.78,4.31-2.29,2.01,3.09-1.58,1.07-1.44-1.89-2.32,1.55,3.71,5.13,3.72-2.82,2.78,3.24-1.23,1.1-1.89-1.94-2.25,2.03,4.42,4.91,3.84-3.38,2.73,2.57-.81.86-1.84-1.16-2.43,2.61,4.64,4.09,3.69-4.09,3.13,2.33v1.72l-2.79-1.43-1.87,2.85,4.67,3.57-.03,1.41c-26.64-16.08-33.66-41.03-35.01-59.58h0Zm-54.55.31c1.15-.03,2.37,1.06,4.38,3.41,5.61,6.58,4.12,16.76-3.22,22.07-1.07.77-1.5.7-2.81-.43-7.53-6.54-7.96-15.3-1.26-22.98,1.16-1.33,2.02-2.04,2.91-2.07Zm26.91.9c1.38,2.15,3.13,4.36,3.33,6.97-.1,2.58-1.82,3.05-3.6,1.55-.23,1.35.54,3.99.54,3.99l-3.22-.35s1.26-2.23,1.31-3.63c-2.24,1.58-3.94-.48-3.64-2.14.64-2.82,2.93-4.72,5.27-6.4Zm-26.81,1.68c-.26.02-.54.21-.96.55-1.96,1.59-3.5,3.57-4.3,5.62-1.69,4.34-.59,9.23,3.22,13.02,1.93,1.93,2.61,1.8,5.58-2.19,2.48-3.34,3-7.65,1.47-11.4-.75-1.83-2.1-3.61-3.72-4.9-.62-.5-.95-.74-1.29-.71h0Zm61.93.8l2.5,1.24c3.19,21.26,13.52,34.24,25.09,43.18l-.02,1.97-3.11-2.43-3.72,3.94-3.02-2.5,1.13-1.11,1.72,1.11,2.2-2.49-4.32-3.9-3.77,3.31-3.14-3.27.95-.81,2.17,1.92,2.43-2.18-4.2-4.76-3.76,2.88-2.62-3.52,1.14-.69,1.37,1.91,2.9-1.83-3.06-4.76-4.36,2.27-2.23-4.07,1.27-.62,1.45,2.29,2.72-1.32-2.74-5.62-4.46,1.49-1.64-4.42,1.28-.47,1.12,2.62,3.02-.98-2.05-6.05-4.61,1.32-1.14-4.45,1.43-.31.75,2.4,3.17-.65-1.16-5.76-4.72.61c-.16-.98-.85-3.62-.84-4.61l1.45-.12.46,2.54,3.18-.11-.18-3.16Zm-61.76.46c1.73.24,3.84,3.61,4.32,4.84.91,2.42.99,5.22.16,7.4-.68,1.78-2.72,4.94-4.01,5.82-1.04.57-1.92.15-3.41-1.9-2.94-4.05-3.51-8.92-1.19-12.25,1.78-2.55,3.09-3.91,4.13-3.9Zm65.11,1.05l1.25.6c1.54,12.32,8.76,29.23,22.96,39.35v1.55c-11.05-8.02-21.19-21.86-24.22-41.5Zm-65.33.84c-4.95,3.77-4.16,9.68-.41,13.66,4.04-2.7,5.46-10,.41-13.66Zm-75.51.25h0c2.79-.07,4.56.92,5.41,2.88,1.32,3.04,1.5,3.62,1.77,5.21.15.91.39,2.29.53,3.06,1.45,8.26.38,11.37-4.57,12.66-1.48.38-3.54.51-4.99.16-.38-.09-1.76-.1-2.85-.14-2.16-.07-2.82-.3-3.91-1.19-.39-.32-.77-.58-1.24-.65-2.47-.4-3.21-2.69-1.33-4.38,1.07-.97,1.18-1.1,1.08-1.26-.06-.09-.51-.17-1.02-.17-2.49-.02-2.47-2.61.04-4.47,1.19-.88,1.73-1.71.94-1.51-2.27.54-3.08-2.82-.7-3.86,1.27-.72,2.18-1.31.95-1.38-1.03.09-1.86-.68-1.55-1.58.38-1.09,2.46-2.09,3.66-1.72.94.29,1.85.55,2.44.13,1.42-1.03,2.06-1.5,3.28-1.66.71-.1,1.45-.12,2.05-.12h0Zm82.95.63l11.3.22v11.38l-10.97-.21s2.37-5.08-.33-11.4Zm-25.82.26l11.1.14c-1.81,4.29-1.13,8.69-.47,11.17l-10.63-.17v-11.14Zm18.35,1.49c1.85,1.09,2.36,6.19-.21,8.23-2.45-2.54-1.96-6.77.21-8.23Zm-26.99,3.47l2.95.28-1.05,4.26s.47-.51.63-.55c3.78-1.8,4.05,2.27.2,5.95-.85.81-2.22,1.92-2.22,1.92,0,0-1.07-1.64-1.92-3.12-.97-1.49-1.62-3.08-1.46-3.93.24-1.23,1.7-2.04,2.63-1.29.46.37.99.93.99.93l-.75-4.45Zm52.57,3.13s1.24,1.28,1.99,2.11c2.6,2.88,3.05,5.57,1.73,6.39-1.13.52-1.83.16-2.75-.58.19,1.78,1.59,4.42,1.56,4.42l-3.88.63s.96-3.57.88-4.92c0,0-.8.62-1.15.77-2.53.94-3.79-1.98-1.71-4.88,1.75-2.44,3.34-3.94,3.34-3.94Zm53.02,5.39c2.6,0,4.72,2.14,4.72,4.77s-2.11,4.77-4.72,4.77-4.72-2.14-4.72-4.77,2.11-4.77,4.72-4.77Zm2.33,2.18c-.2.05-.37.52-.39,1.56-.23,2.14-2,3-3.92,2.01-.78-.4-1.44-1-1.44-.54,0,.24.62,1.52,1.07,1.96,1.63,1.48,5.6,1.13,5.51-2.33-.04-1.63-.49-2.74-.82-2.66Zm-85.63,1.79h0c.51-.03,1.16.18,1.58.62,1.29.89,1.53,2.03,1.61,6.32.07,3.79,0,3.88.61,4.34,1.51,1.13,2.42-.59,1.99-4.43-.42-3.7.9-6.38,3.11-6.37,1.09.01,1.29.65.46,1.48-.87.87-1.08,1.93-.81,4.07.7,5.48.1,8.16-2.18,9.28-2.37,1.16-5.43-.17-5.96-3.2-.34-2.02-.34-4.42-.1-6.68.04-2.38-.01-2.65-.83-4.01-.58-.91-.15-1.37.51-1.42h0Zm-59.67,1.78c1.31,0,2.67.77,3.49,2.47,1.96,4.1-2.29,7.48-6.2,7.74-6.78.1-14.83-.89-21.64-1.8l.11-3.88c6.24.36,13.28.88,20.86,1.24-.86-3.61,1.19-5.76,3.37-5.77Zm35.65.8l3.77.84-2.4,3.97c.71-.31,1.21-.53,1.92-.27,1.54.56,1.56,2.53.43,4.37-.89,1.34-3.4,2.93-5.11,3.92-.96-2.09-3.08-5.74-2.24-7.74.45-1.06,1.69-1.58,2.85-1,.38.23,1.11.61,1.11.61l-.33-4.71Zm8.92.11l11.5.14c-1.67,11.76-4.94,27.47-11.39,40.27l-2.71.71c5.68-12.72,9.46-24.65,11.23-37.99h-5.75c-3.31,14.31-8.2,27.58-15.73,39.1l-3.34-1.1c8.04-12.9,14.41-27.29,16.18-41.13h0Zm26.23.21h12.82c2.36,23.95,10.36,40.29,22.26,56.46,0,0-.75.17-1.19-.02-1.23-1.56-2.37-2.51-4.22-2.99-10-14.57-16.72-34.95-18.33-50.53h-7.62c.87,19.57,6.23,35.62,13.36,51.17l-3.87.72c-5.73-13.91-12.01-26.02-13.2-54.81Zm-6.6,1.54c.31,0,.55,1.23.55,2.76s-.24,2.76-.55,2.76-.55-1.23-.55-2.76.25-2.76.55-2.76Zm-64.12.3c-.57,0-1.03.46-1.03,1.03,0,.57.46,1.03,1.03,1.03.57,0,1.03-.46,1.03-1.03,0-.57-.46-1.03-1.03-1.03Zm90.67,1.13c1.05.83,2.2,1.64,3.27,2.42,2.89,2.05,2.85,5.92.04,5.9-.3,0-.99-.05-.99-.05,0,0,1.15,2.54,1.87,3.82-1.17.32-3.61.78-3.61.78,0,0,.35-2.49.28-4.56,0,0-.47.53-.85.71-1.86.79-3.44-.86-3.2-2.8.31-2.62,3.2-6.24,3.2-6.24h0Zm-85.63.47l6.31,3.17c-4.3,9.9-9.36,19.17-16.48,26.22l.32-22.88c3.89-.11,7.87-.15,9.85-6.51Zm43.14.36h3.88c-1.72,18.27-13.65,42.98-15.89,45.96l-.74.56s-1.53-5.6-3.32-7.61c6.73-9.18,13.78-26.83,16.07-38.91h0Zm27.29,0h5.86c1.83,14.55,6.27,30.28,17.54,49.38,0,0-1.13.11-2-.41-1.92-1.2-3.26.39-4.4.33-1.79-.1-2.09-.21-3.94.24-9.3-19.85-11.94-35.47-13.06-49.53Zm-63.33,3.27h0l2.09,1c-4.5,10.54-8.71,18.91-19.38,29.19v-3.06c7.49-7.34,12.68-17.02,17.28-27.12h0Zm3.05,1.47c1.23.57,2.44,1.15,3.54,1.91-1.31,1.57-2.83,2.19-4.79,2.36-.91.22-.63-.71.36-2.73.45-.91.88-1.54.88-1.54Zm4.18,2.23l3.79,1.88s-.45,1.55-1.25,3.3c-1.23,2.69-1.47,2.75-1.84.54-.06-.38-.43-1.64-.65-2.47-.51-1.94-.05-3.25-.05-3.25h0Zm4.58,2.17s1.47.72,1.95,1.04c-6.57,19.9-24.06,36.35-23.97,35.97l-2.73-1.62c11.64-10.64,20.17-23.21,24.75-35.39Zm-6.94.28c.64.01.08.8-.78,2.72-.81,1.87-1.08,2.54-1.84,2.84-1.09.4-2.66.41-4.05.66-.6.1-.35-.36.57-2.24,1.08-2.21,1.13-2.67,2.82-3.13.97-.15,2.29-.86,3.27-.85Zm1.27.76c.54.22.86,3.01,1.03,3.2.68,2.46.66,2.95.21,3.81-.85,1.61-1.96,3.48-2.27,3.99-.77,1.27-.98,1-1.44-2.08-.28-1.91-.53-2.77-.32-3.61.38-.94,1.52-3.16,2.16-4.46.23-.69.43-.91.61-.84Zm13.13,1.04l3.45,1.14-2.7,3.3s1.14-.21,1.27-.15c2.71.18,2.26,2.91.16,4.56-.87.81-5.16,2.78-5.16,2.78-.46-2.44-1.4-4-1.18-6.5.16-1.35.28-2.57,1.91-2.6.86-.05,1.21.84,1.77,1.56l.49-4.08Zm62.46,2.96s2.08,1.09,4,2.58c2.51,1.95,2.94,4.25.43,5.14-.29.1-1.11.06-1.11.06.69,1.22,2.33,3.03,2.33,3.03-.82.58-1.98,1.04-3.27,1.44,0,0-.32-3.03-.62-4.2,0,0-.33.66-.74.92-2.42,1.52-4.31-1.35-3.02-4.97.79-2.2,2-4,2-4h0Zm-26.57.51c6.03-.15,2.5,9.85-.52,9.2-.05-.09,2.49-5.91-.93-6.84-1.57-.43-.22-2.38,1.45-2.36Zm-9.89.71c1.88-.01,3.24,1.33,1.45,2.17-2.82,1.32-1.14,4.5-1.08,6.3.04,1.1-2.51-.96-3.05-3.19-.7-2.89-.38-5.02,2.68-5.27h0Zm-44.63,1.05c.42,0,.73.03.83.12.18.47-.67,1.95-1.89,3.83-.65,1-.93,1.29-1.33,1.52-.95.54-2.28.4-3.4.48-1.66.02-1.37-.01.47-2.9.82-1.29,1.34-2.35,1.82-2.69.1-.06,2.25-.36,3.5-.36Zm1.82,1.06c.22.03.35.4.35,1.03,0,3.62,1.21,4.8.32,5.94-1.09,1.78-2.48,3.72-2.99,4.34-.85,1.04-.76.84-.98-1.87-.16-1.96-.34-3.28-.09-3.89.73-1.77,1.6-2.62,2.5-4.5.35-.76.66-1.07.88-1.05Zm47.98,2.84c1.75.02,2.84,1.91,2.76,3.64l-.08,1.66c2.26-.88,5.08-.02,5.2,2.22.21,3.81-2.56,3.37-4.91,3.21.24.09.58,3.44-.81,4.73-2.19,2.48-6.28-.05-5.25-3.69.21-.76.26-1.23.26-1.23,0,0-1.47.53-1.98.51-4.44-.19-4.1-6.55.36-5.8.91.15,1.53.38,1.53.38,0,0-.1-.4-.25-.97-.65-2.45.71-4.68,3.17-4.65h0Zm88.89,1.13l2.4,1.39v2.7l-3.41-2.55,1.01-1.55Zm-143.6,1.81c.94-.01,1.69.07,1.54.29,0,.48-2.07,3.39-3.29,4.72-1.04,1.13-1.19.97-3.74.84-1-.05-1.65-.06-1.63-.33,1.17-1.56,2.79-3.56,3.91-5.23.44-.14,1.99-.28,3.2-.29h0Zm2.19,1.48c.52.12.42,2.81.54,4.47q.17,1.55-.49,2.47c-.8.87-1.62,2.15-2.65,3.15-1.55,1.74-1.39,1.84-1.37-1.88.02-2.9-.2-2.9.38-3.58.32-.37,1.31-1.6,1.95-2.55.99-1.45,1.37-2.07,1.63-2.08Zm14.91.3l3.19,1.72-3.19,3.27s.8,0,1.07.05c2.05.4,1.9,2.6-.17,4.24-1.27.81-5.62,2.41-5.62,2.41-.15-1.85-.54-3.55-.46-5.53.03-.92.12-1.91.81-2.7.48-.54,1.28-.85,2.41-.11.59.53.9,1.13.9,1.13l1.08-4.48Zm37.61,1.12c-1.25,0-2.26,1.02-2.26,2.29s1.01,2.29,2.26,2.29,2.26-1.03,2.26-2.29-1.01-2.29-2.26-2.29Zm35.63.54s4.17,1.59,6.05,3.33c1.75,1.48.93,3.92-.81,3.97-.13,0-.87-.11-.87-.11.59.91,2.57,3.14,2.57,3.14l-3.23,1.32s-.52-2.51-.91-3.92c-1.12,2.63-3.9.92-4.08-.72-.45-2.4.56-4.74,1.28-7.01Zm-35.63.2c.87,0,1.57.71,1.57,1.59s-.7,1.59-1.57,1.59-1.57-.71-1.57-1.59.7-1.59,1.57-1.59Zm-.01.82c-.43,0-.78.35-.78.78s.35.78.78.78c.43,0,.78-.35.78-.78s-.35-.78-.78-.78Zm-60.78,2.43c.78,0,1.57.05,2.38.08h0c.48.37-.52,1.53-2.46,3.58-1.55,1.65-1.78,1.42-3.66,1.43-3.15.03-3.23.05-1.78-1.62,1.58-1.82,2.51-3,3.24-3.38.74-.09,1.49-.11,2.27-.1h0Zm3.05,1.66c.49.04.17,1.99.2,2.69l-.09,3.3-2.45,2.39c-2.84,2.57-2.5,2.73-2.48.33.02-1.91,0-3.25.4-4.1,1.24-1.51,2.53-2.85,3.94-4.29.21-.23.37-.33.48-.32h0Zm62.28.77c.68-.06,2.42,2.96,2.86,5.48,1,5.76,4.41,8.5,6.81,6.18.98-1.36,1.09.12,1.04.83-.5,7.3-8.68,4.26-9.61-2.99-2.87,1.88-5.55-1.92-3.84-1.86,4.05-1.3,2.94-5.06,2.75-7.64Zm-9.47.06c.4,2.53-4.1,6.85-6.63,3.82-1.29-1.54-.11-4.73,1.52-2.77,1.81,1.36,3.57-.22,5.11-1.05Zm-61.29,3.37c.77.04,1.69.15,2.3.17.83.08.24.49-1.55,2.13-1.54,1.42-2.06,2.05-2.23,1.43-.09-.96-.01-2.1,0-3.45.07-.29.71-.32,1.49-.28Zm20.43,1.77l2.75,2.02-2.72,2.54c2.44-.12,2.66,2.2,1.73,3.49-.6.91-2.92,1.86-5.23,2.24-1.39.23-2.53.4-2.53.4,0,0-.05-1.09-.09-2.89-.08-3.69.17-5.15,1.57-5.87,1-.52,2.7.29,3.12,1.23.14.31.5.86.5.86l.9-4.02Zm-17.67.2s.01,0,.02.01c.15.21-.4,6.22-.4,6.22l-3.87-2.27s3.92-3.89,4.25-3.96h0Zm105.29.71c2.83,1.35,4.8,1.28,6.86,2.76,1.53,1.09,1.17,3.3-.04,3.84-.55.17-1.45.08-1.45.08,1,1.25,3.19,2.83,3.19,2.83l-3.48,1.48s-.48-2.38-.92-3.68c-.63,1.93-2.79,1.88-4.01.98-.87-.67-1.23-2.93-.81-4.88.11-.52.67-3.4.67-3.4h0Zm-18.63,55.93c-34.4,8.25-62.34,3.15-65.11,2.17l-2.19,3.31c-.27.56-.43,2.24-1.92,2.69l-2.23,3.37.43.47-1.98,1.74.48.58-1.44,2.11-.57-.06-3.33,5.12.51.57-7.64,12.1,103.34.03c-6.01-11.46-12.43-22.71-18.37-34.2h0Zm-.62,1.49l.84,1.76c-5.91-1.54-10.66.8-13.61,5.04-6.35-4.83-14.34-3.31-19.64,2.11-4.9-5.03-13.48-5.79-19.68-.66-2.61-5.7-12.35-5.96-12.45-5.3,0,0,.38-.58.46-.86,11.98,2.79,39.36,3.94,64.08-2.08Zm-2.91,2.36c1.37.05,2.78.33,4.54.84l1.06,1.86c-2.24-1.2-11.81-3.95-14.53,5.68-2.86-3.91-14.65-9.58-20.62,2.47-1.7-3.26-11.6-12.66-20.63-.69-3.56-7.44-6.53-8.06-13.06-7.05,4.64-4.51,11.17.18,13.94,4.02,7.79-6.53,14.3-4.57,19.99.75,7.34-8.09,14.66-6.14,19.81-2.08,2.71-4.04,5.38-5.96,9.5-5.81Zm4.09,4.18c.2-.01.4,0,.6,0,.95.08,1.91.47,2.87,1.27,0,0-.94.16-1.24.24-4.09,1.1-3.2,6.92,1.01,6.92.4,0,1.4-.16,1.4-.16-.08,3.94,1.1,4.91,5.09,4.68l6.75,12.21-99.86-.44,6.34-10.26c3.19.38,5.19-1.42,4.48-4.15,0,0,1.96.61,2.51.61,3.61.02,4.55-5.58,1.09-6.55-.38-.11-1.35-.22-1.47-.25,1.58-4,5.93-1.64,7.18.02,2.8-2.33,5.9-1.29,7.23,1.73,0,0-.52-.3-.68-.41-3.28-2.43-6.33,2.6-3.12,4.92.32.23.98.42.98.42,0,0-.39.32-.75.93-1.67,2.84,1.02,6.3,4.26,5.41,2.49-.99,2.53-2.88,2.53-4.97,0,0,.86.07,1.63.08,2.99.04,3.85-3.84,2.02-5.64-.99-.97-2.28-.9-2.92-1.02,3.45-3.42,5.78-1.06,8.21.52.37-.01,4.22-4.69,8.8-.09-2.22-.59-4.5.87-4.53,3.21.04,1.51,1.11,2.84,3.41,2.94-.25.76-.41,1.32-.43,2.06-.05,2.46,1.84,3.99,4.24,3.61,2-.26,3.49-2.58,2.77-4.5-.32-.87-.76-1.19-.76-1.19,5.4.68,5.3-6.23,1.11-6.65-1-.1-1.76.34-2.77,1.27,2.47-5.11,6.98-4.08,8.67-1.99,2.32-1.7,5.52-4.03,9.34.12-.63-.13-1.52-.17-2.29.04-3.03.81-3.04,4.71-.64,5.89.68.33,1.5.53,2.4.49-.8,3.27,2.79,5.61,5.34,4.05,1.82-1.12,2.3-3.78.33-6.2,3.32-.15,3.64-4.33,1.73-5.8-1.5-1.15-3.28-.6-4.56.92-.41-1.2,2.87-5.37,7.5-2.37,1.43-1.12,2.82-1.84,4.21-1.92h0Zm4.91,4.55l1.3,2.39c-.86.09-2.1-.85-1.3-2.39Zm-16.74,2.42c.81,0,1.47.67,1.47,1.49s-.66,1.49-1.47,1.49-1.47-.67-1.47-1.49.66-1.49,1.47-1.49Zm-60.61.09c.2.8.28,1.59-1.15,1.75l1.15-1.75Zm16.88,1.44c.74,0,1.34.61,1.34,1.36s-.6,1.36-1.34,1.36-1.35-.61-1.35-1.36.61-1.36,1.35-1.36Zm22.4.42c.79,0,1.43.65,1.43,1.44s-.64,1.44-1.43,1.44-1.43-.65-1.43-1.44.64-1.44,1.43-1.44Z"/>
    <path id="uuid-51dc2861-fe52-4ba9-8920-52e795ced6f2" data-name="path153-6-3-1-9-0-4-7" class="uuid-798d94bb-253f-43a3-aabc-b875a5f81a42" d="m66.91,36.71c-10.33,14.77-21.39,23.27-21.57,34.79-.06,3.73,1.95,10.07,8.25,11.29,4.09.78,9.72-2.53,9.84-9.27-.02-1.34,1.42-1.31,1.4.53-.19,5.32-1.87,11.51-4.69,16.54h13.53c-2.82-5.04-4.5-11.23-4.69-16.54-.01-1.84,1.42-1.87,1.4-.53.12,6.74,5.75,10.06,9.84,9.27,6.3-1.21,8.32-7.55,8.25-11.29-.18-11.52-11.24-20.02-21.57-34.79h0Z"/>
    <path id="uuid-391d3c9a-4bb6-428f-98ca-dddc1a327aa9" data-name="path153-6-3-1-8-6-4-8-4" class="uuid-798d94bb-253f-43a3-aabc-b875a5f81a42" d="m182.84,313.29c-10.33-14.77-21.39-23.27-21.57-34.79-.06-3.73,1.95-10.07,8.25-11.29,4.09-.78,9.72,2.53,9.84,9.27-.02,1.34,1.42,1.31,1.4-.53-.19-5.32-1.87-11.51-4.69-16.54h13.53c-2.82,5.04-4.5,11.23-4.69,16.54-.01,1.84,1.42,1.87,1.4.53.12-6.74,5.75-10.06,9.84-9.27,6.3,1.21,8.32,7.55,8.25,11.29-.18,11.52-11.24,20.02-21.57,34.79h0Z"/>
  </g>
</svg>