<?xml version="1.0" encoding="UTF-8"?>
<svg id="uuid-68465c48-b905-483d-a4f6-2ec0511e6c23" data-name="Cards" xmlns="http://www.w3.org/2000/svg" viewBox="0 0 250 350">
  <defs>
    <style>
      .uuid-4c9a130e-7aa0-4e99-806c-1a6b49d6c93e {
        fill: #c8102e;
      }

      .uuid-4c9a130e-7aa0-4e99-806c-1a6b49d6c93e, .uuid-07e68afa-6843-4a4b-a29c-b82dd2cc8755 {
        stroke-width: 0px;
      }

      .uuid-07e68afa-6843-4a4b-a29c-b82dd2cc8755 {
        fill: #fff;
      }
    </style>
  </defs>
  <g id="uuid-8f3efa37-5e4f-43ce-a8d1-be3bc0a66ca4" data-name="HEART-3">
    <g id="uuid-c03366bd-c7ba-4e85-867d-62c5e2f1516a" data-name="g9800-8-2">
      <path id="uuid-75ba8bc0-c462-49f9-8482-98e387005229" data-name="rect9802-4-3" class="uuid-07e68afa-6843-4a4b-a29c-b82dd2cc8755" d="m11.94,0h226.08c6.6,0,11.96,5.36,11.96,11.97v326.05c0,6.61-5.35,11.97-11.96,11.97H11.94c-6.6,0-11.96-5.36-11.96-11.97V11.96C-.02,5.35,5.34,0,11.94,0Z"/>
    </g>
    <path id="uuid-be266c98-9239-4458-84ac-a22354fbb87c" data-name="path9834-5-2" class="uuid-4c9a130e-7aa0-4e99-806c-1a6b49d6c93e" d="m19.26,78.54s-2.49-3.58-5.85-7.79c-2.25-2.82-4.05-5.87-4.21-8.49-.19-3,1.62-6.01,4.91-6.16,3.28-.15,4.62,2.31,5.16,4.34.54-2.03,1.88-4.49,5.16-4.34,3.28.15,5.1,3.16,4.91,6.16-.17,2.63-1.96,5.68-4.21,8.49-3.36,4.21-5.85,7.79-5.85,7.79Z"/>
    <path id="uuid-6aa0d8e0-4e1f-4f91-a29e-029a6bc0dc0c" data-name="path9836-5-8" class="uuid-4c9a130e-7aa0-4e99-806c-1a6b49d6c93e" d="m230.69,271.45s-2.49,3.58-5.85,7.79c-2.25,2.82-4.05,5.87-4.21,8.49-.19,3,1.62,6.01,4.91,6.16,3.28.15,4.62-2.31,5.16-4.34.54,2.03,1.88,4.49,5.16,4.34,3.28-.15,5.1-3.16,4.91-6.16-.17-2.63-1.96-5.68-4.21-8.49-3.36-4.21-5.85-7.79-5.85-7.79Z"/>
    <path id="uuid-a5ccfdfb-59a6-46fb-af80-67a63f63393e" data-name="path9840-3-6" class="uuid-4c9a130e-7aa0-4e99-806c-1a6b49d6c93e" d="m124.98,90.58s-5.23-8.59-12.28-18.7c-4.72-6.76-8.49-14.08-8.84-20.39-.4-7.2,3.4-14.43,10.29-14.78,6.89-.35,9.68,5.55,10.82,10.42,1.14-4.87,3.93-10.77,10.82-10.42,6.89.35,10.7,7.58,10.29,14.78-.35,6.31-4.12,13.63-8.84,20.39-7.05,10.1-12.28,18.7-12.28,18.7Z"/>
    <path id="uuid-e98d6088-f863-4fd2-8fef-c7b174ccae11" data-name="path9850-2-3" class="uuid-4c9a130e-7aa0-4e99-806c-1a6b49d6c93e" d="m124.98,201.94s-5.23-8.59-12.28-18.7c-4.72-6.76-8.49-14.08-8.84-20.39-.4-7.2,3.4-14.43,10.29-14.78,6.89-.35,9.68,5.55,10.82,10.42,1.14-4.87,3.93-10.77,10.82-10.42,6.89.35,10.7,7.58,10.29,14.78-.35,6.31-4.12,13.63-8.84,20.39-7.05,10.1-12.28,18.7-12.28,18.7Z"/>
    <path id="uuid-84a0500e-54eb-48ef-bba5-495cc14318f9" data-name="path9854-8-0" class="uuid-4c9a130e-7aa0-4e99-806c-1a6b49d6c93e" d="m124.98,259.42s-5.23,8.59-12.28,18.7c-4.72,6.76-8.49,14.08-8.84,20.39-.4,7.2,3.4,14.43,10.29,14.78,6.89.35,9.68-5.55,10.82-10.42,1.14,4.87,3.93,10.77,10.82,10.42,6.89-.35,10.7-7.58,10.29-14.78-.35-6.31-4.12-13.63-8.84-20.39-7.05-10.1-12.28-18.7-12.28-18.7Z"/>
    <path id="uuid-2231cf8a-fa2c-4ba0-8ad5-d069262b82c1" data-name="path17-2-9-8-4" class="uuid-4c9a130e-7aa0-4e99-806c-1a6b49d6c93e" d="m7.27,44.45l2.85-2.1c2.47,4.03,5.23,6.68,9.46,6.23,6.34-.44,8.96-7.1,7.64-12.11-1.28-4.5-6.53-6.69-10.7-4.29-.98.57-1.94,1.03-2.12,1.03-.44,0-1.43-1.98-1.29-2.58,2.8-4.1,9.6-11.28,9.6-11.28h-10.62v4.81h-4.08v-8.63h20.77v2.93s-5.56,5.78-7.4,8.95c4.53.17,8.18,3.04,9.49,7.59.76,2.39.42,7.87-.58,10.23-1.67,3.93-6.24,7.13-10.41,7.31-7.01.47-10.73-4.45-12.58-8.09h0Z"/>
    <path id="uuid-f4a7c65f-7768-4d7d-a135-fad6c20b5a2f" data-name="path17-5-3-9-1-3" class="uuid-4c9a130e-7aa0-4e99-806c-1a6b49d6c93e" d="m242.69,305.54l-2.85,2.1c-2.47-4.03-5.23-6.68-9.46-6.23-6.34.44-8.96,7.1-7.64,12.11,1.28,4.5,6.53,6.69,10.7,4.29.98-.57,1.94-1.03,2.12-1.03.44,0,1.43,1.98,1.29,2.58-2.8,4.1-9.6,11.28-9.6,11.28h10.62v-4.81h4.08v8.63h-20.77v-2.93s5.56-5.78,7.4-8.95c-4.53-.17-8.18-3.04-9.49-7.59-.76-2.39-.42-7.87.58-10.23,1.67-3.93,6.24-7.13,10.41-7.31,7.01-.47,10.73,4.45,12.58,8.09h0Z"/>
  </g>
</svg>