<?xml version="1.0" encoding="UTF-8"?>
<svg id="uuid-25b9106d-c54b-4230-8282-ec410aaa74b8" data-name="Cards" xmlns="http://www.w3.org/2000/svg" viewBox="0 0 250 350">
  <defs>
    <style>
      .uuid-a1b4a65d-b1da-476b-9cd0-486d72ed299f {
        fill: #c8102e;
      }

      .uuid-a1b4a65d-b1da-476b-9cd0-486d72ed299f, .uuid-3ebbd9a1-2852-4e99-944d-5bc742536991 {
        stroke-width: 0px;
      }

      .uuid-3ebbd9a1-2852-4e99-944d-5bc742536991 {
        fill: #fff;
      }
    </style>
  </defs>
  <g id="uuid-29abc577-75bc-497c-a6f0-aa0e3ac60be5" data-name="HEART-9">
    <g id="uuid-7d5944bd-0498-4d95-abd8-836d8dc0950e" data-name="g10208-4-1">
      <path id="uuid-c3c7eec1-a5fc-4c0c-949e-529b46ccb8f7" data-name="rect10210-5-4" class="uuid-3ebbd9a1-2852-4e99-944d-5bc742536991" d="m11.88,0h226.08c6.6,0,11.96,5.36,11.96,11.97v326.06c0,6.61-5.35,11.97-11.96,11.97H11.88c-6.6,0-11.96-5.36-11.96-11.97V11.96C-.07,5.35,5.28,0,11.88,0Z"/>
    </g>
    <path id="uuid-b7067993-e87f-4514-9d7d-4a04d28a5a7d" data-name="path10240-7-9" class="uuid-a1b4a65d-b1da-476b-9cd0-486d72ed299f" d="m66.95,164.82s-5.23-8.59-12.28-18.7c-4.72-6.76-8.49-14.08-8.84-20.39-.4-7.2,3.4-14.43,10.29-14.78,6.89-.35,9.68,5.55,10.82,10.42,1.14-4.87,3.93-10.77,10.82-10.42,6.89.35,10.7,7.58,10.29,14.78-.35,6.31-4.12,13.63-8.84,20.39-7.05,10.1-12.28,18.7-12.28,18.7Z"/>
    <path id="uuid-ab464c91-bc08-4611-8407-2897cf96845d" data-name="path10242-3-8" class="uuid-a1b4a65d-b1da-476b-9cd0-486d72ed299f" d="m19.21,78.54s-2.49-3.58-5.85-7.79c-2.25-2.82-4.05-5.87-4.21-8.49-.19-3,1.62-6.01,4.91-6.16,3.28-.15,4.62,2.31,5.16,4.34.54-2.03,1.88-4.49,5.16-4.34,3.28.15,5.1,3.16,4.91,6.16-.17,2.63-1.96,5.68-4.21,8.49-3.36,4.21-5.85,7.79-5.85,7.79Z"/>
    <path id="uuid-9db549d2-fa38-4331-83ec-b96e0c06202f" data-name="path10244-4-5" class="uuid-a1b4a65d-b1da-476b-9cd0-486d72ed299f" d="m230.65,271.45s-2.49,3.58-5.85,7.79c-2.25,2.82-4.05,5.87-4.21,8.49-.19,3,1.62,6.01,4.91,6.16,3.28.15,4.62-2.31,5.16-4.34.54,2.03,1.88,4.49,5.16,4.34,3.28-.15,5.1-3.16,4.91-6.16-.17-2.63-1.96-5.68-4.21-8.49-3.36-4.21-5.85-7.79-5.85-7.79Z"/>
    <path id="uuid-c212e6a6-1a9c-4fb6-9055-13117438e994" data-name="path10250-9-0" class="uuid-a1b4a65d-b1da-476b-9cd0-486d72ed299f" d="m66.95,90.57s-5.23-8.59-12.28-18.7c-4.72-6.76-8.49-14.08-8.84-20.39-.4-7.2,3.4-14.43,10.29-14.78,6.89-.35,9.68,5.55,10.82,10.42,1.14-4.87,3.93-10.77,10.82-10.42,6.89.35,10.7,7.58,10.29,14.78-.35,6.31-4.12,13.63-8.84,20.39-7.05,10.1-12.28,18.7-12.28,18.7Z"/>
    <path id="uuid-949aa1da-f0c9-45b8-b997-813114d2a97f" data-name="path10254-7-3" class="uuid-a1b4a65d-b1da-476b-9cd0-486d72ed299f" d="m182.9,164.82s-5.23-8.59-12.28-18.7c-4.72-6.76-8.49-14.08-8.84-20.39-.4-7.2,3.4-14.43,10.29-14.78,6.89-.35,9.68,5.55,10.82,10.42,1.14-4.87,3.93-10.77,10.82-10.42,6.89.35,10.7,7.58,10.29,14.78-.35,6.31-4.12,13.63-8.84,20.39-7.05,10.1-12.28,18.7-12.28,18.7Z"/>
    <path id="uuid-26046935-fb94-4cb3-a1c5-5872bc5f6911" data-name="path10256-4-7" class="uuid-a1b4a65d-b1da-476b-9cd0-486d72ed299f" d="m182.9,90.57s-5.23-8.59-12.28-18.7c-4.72-6.76-8.49-14.08-8.84-20.39-.4-7.2,3.4-14.43,10.29-14.78,6.89-.35,9.68,5.55,10.82,10.42,1.14-4.87,3.93-10.77,10.82-10.42,6.89.35,10.7,7.58,10.29,14.78-.35,6.31-4.12,13.63-8.84,20.39-7.05,10.1-12.28,18.7-12.28,18.7Z"/>
    <path id="uuid-60862478-3866-44a4-b7f9-aca6509513d6" data-name="path10258-5-9" class="uuid-a1b4a65d-b1da-476b-9cd0-486d72ed299f" d="m124.93,201.94s-5.23-8.59-12.28-18.7c-4.72-6.76-8.49-14.08-8.84-20.39-.4-7.2,3.4-14.43,10.29-14.78,6.89-.35,9.68,5.55,10.82,10.42,1.14-4.87,3.93-10.77,10.82-10.42,6.89.35,10.7,7.58,10.29,14.78-.35,6.31-4.12,13.63-8.84,20.39-7.05,10.1-12.28,18.7-12.28,18.7Z"/>
    <path id="uuid-a090bd34-8bb4-494d-a294-c99000f5dc93" data-name="path10266-8-9" class="uuid-a1b4a65d-b1da-476b-9cd0-486d72ed299f" d="m182.9,185.18s-5.23,8.59-12.28,18.7c-4.72,6.76-8.49,14.08-8.84,20.39-.4,7.2,3.4,14.43,10.29,14.78,6.89.35,9.68-5.55,10.82-10.42,1.14,4.87,3.93,10.77,10.82,10.42,6.89-.35,10.7-7.58,10.29-14.78-.35-6.31-4.12-13.63-8.84-20.39-7.05-10.1-12.28-18.7-12.28-18.7Z"/>
    <path id="uuid-a4055622-5dfe-41d8-b9e7-725ab6649d6f" data-name="path10268-2-7" class="uuid-a1b4a65d-b1da-476b-9cd0-486d72ed299f" d="m66.95,185.18s-5.23,8.59-12.28,18.7c-4.72,6.76-8.49,14.08-8.84,20.39-.4,7.2,3.4,14.43,10.29,14.78,6.89.35,9.68-5.55,10.82-10.42,1.14,4.87,3.93,10.77,10.82,10.42,6.89-.35,10.7-7.58,10.29-14.78-.35-6.31-4.12-13.63-8.84-20.39-7.05-10.1-12.28-18.7-12.28-18.7Z"/>
    <path id="uuid-2be6f985-2ea1-4420-ac7b-017d7a935b0f" data-name="path10270-1-4" class="uuid-a1b4a65d-b1da-476b-9cd0-486d72ed299f" d="m182.9,259.42s-5.23,8.59-12.28,18.7c-4.72,6.76-8.49,14.08-8.84,20.39-.4,7.2,3.4,14.43,10.29,14.78,6.89.35,9.68-5.55,10.82-10.42,1.14,4.87,3.93,10.77,10.82,10.42,6.89-.35,10.7-7.58,10.29-14.78-.35-6.31-4.12-13.63-8.84-20.39-7.05-10.1-12.28-18.7-12.28-18.7Z"/>
    <path id="uuid-d2d6876b-b3bc-417c-84c4-43ff7c1687b4" data-name="path10272-0-7" class="uuid-a1b4a65d-b1da-476b-9cd0-486d72ed299f" d="m66.95,259.42s-5.23,8.59-12.28,18.7c-4.72,6.76-8.49,14.08-8.84,20.39-.4,7.2,3.4,14.43,10.29,14.78,6.89.35,9.68-5.55,10.82-10.42,1.14,4.87,3.93,10.77,10.82,10.42,6.89-.35,10.7-7.58,10.29-14.78-.35-6.31-4.12-13.63-8.84-20.39-7.05-10.1-12.28-18.7-12.28-18.7Z"/>
    <path id="uuid-a23e0e11-82ef-4f0c-bce9-72f81f10aa14" data-name="path29-5-8-5-4" class="uuid-a1b4a65d-b1da-476b-9cd0-486d72ed299f" d="m8.89,45.43l3.38-1.07c1.28,3.42,3.85,4.43,6.58,4.21,4.89-.39,6.52-5.87,6.88-10.72-1.91,2.03-4.77,3.06-7.21,2.95-7.8-.42-9.8-6.68-9.87-13.23-.21-5.52,2.06-9.52,5.97-11.36,2.07-.93,6.81-.93,8.89.17,4.78,2.53,6.55,6.89,6.23,17.32,0,8.58-1.82,18.57-10.99,18.79-5.3.73-9.32-3.4-9.87-7.05h0Zm13.28-9.4c1.59-1.01,2.49-1.96,3.2-3.38.58-1.17.79-1.77.62-4.18-.43-6.22-3.68-9.75-8.4-9.05-2.63.4-4.07,1.87-4.9,4.62-1.52,5.08.41,11.01,4.03,12.38,1.63.62,4.15.44,5.45-.39h0Z"/>
    <path id="uuid-04fcc100-472a-40a3-806e-651b637f773b" data-name="path29-6-2-3-6-6" class="uuid-a1b4a65d-b1da-476b-9cd0-486d72ed299f" d="m240.97,304.56l-3.38,1.07c-1.28-3.42-3.85-4.43-6.58-4.21-4.89.39-6.52,5.87-6.88,10.72,1.91-2.03,4.77-3.06,7.21-2.95,7.8.42,9.8,6.68,9.87,13.23.21,5.52-2.06,9.52-5.97,11.36-2.07.93-6.81.93-8.89-.17-4.78-2.53-6.55-6.89-6.23-17.32,0-8.58,1.82-18.57,10.99-18.79,5.3-.73,9.32,3.4,9.87,7.05h0Zm-13.28,9.4c-1.59,1.01-2.49,1.96-3.2,3.38-.58,1.17-.79,1.77-.62,4.18.43,6.22,3.68,9.75,8.4,9.05,2.63-.4,4.07-1.87,4.9-4.62,1.52-5.08-.41-11.01-4.03-12.38-1.63-.62-4.15-.44-5.45.39h0Z"/>
  </g>
</svg>