<?xml version="1.0" encoding="UTF-8"?>
<svg id="uuid-e74f051b-a451-435a-a11a-f8e9aefff348" data-name="Cards" xmlns="http://www.w3.org/2000/svg" viewBox="0 0 250 350">
  <defs>
    <style>
      .uuid-35a379ca-3bc5-4d0f-ae36-a0d0ad2e300c {
        fill: #c8102e;
      }

      .uuid-35a379ca-3bc5-4d0f-ae36-a0d0ad2e300c, .uuid-430558e0-a42f-4698-9bdf-5a49447300a8 {
        stroke-width: 0px;
      }

      .uuid-430558e0-a42f-4698-9bdf-5a49447300a8 {
        fill: #fff;
      }
    </style>
  </defs>
  <g id="uuid-fc6933cb-bda8-4c4f-8ef0-c84c5bb7d5cb" data-name="HEART-7">
    <path id="uuid-d1a3f51e-db92-4a1d-98d6-950e257d37a9" data-name="rect10074-2-8" class="uuid-430558e0-a42f-4698-9bdf-5a49447300a8" d="m11.91,0h226.08c6.6,0,11.96,5.36,11.96,11.97v326.05c0,6.61-5.35,11.97-11.96,11.97H11.91c-6.6,0-11.96-5.36-11.96-11.97V11.97C-.05,5.36,5.3,0,11.91,0Z"/>
    <path id="uuid-6730c6d0-e4fd-41e4-9194-e102f184157e" data-name="path10106-2-3" class="uuid-35a379ca-3bc5-4d0f-ae36-a0d0ad2e300c" d="m19.23,78.54s-2.49-3.58-5.85-7.79c-2.25-2.82-4.05-5.87-4.21-8.49-.19-3,1.62-6.01,4.91-6.16,3.28-.15,4.62,2.31,5.16,4.34.54-2.03,1.88-4.49,5.16-4.34,3.28.15,5.1,3.16,4.91,6.16-.17,2.63-1.96,5.68-4.21,8.49-3.36,4.21-5.85,7.79-5.85,7.79Z"/>
    <path id="uuid-543e73e4-f321-4f12-9844-c6f42eeef24c" data-name="path10108-3-1" class="uuid-35a379ca-3bc5-4d0f-ae36-a0d0ad2e300c" d="m230.66,271.45s-2.49,3.58-5.85,7.79c-2.25,2.82-4.05,5.87-4.21,8.49-.19,3,1.62,6.01,4.91,6.16,3.28.15,4.62-2.31,5.16-4.34.54,2.03,1.88,4.49,5.16,4.34,3.28-.15,5.1-3.16,4.91-6.16-.17-2.63-1.96-5.68-4.21-8.49-3.36-4.21-5.85-7.79-5.85-7.79Z"/>
    <path id="uuid-cbb1fed6-06ac-4e31-9065-81c7fc5793a5" data-name="path10110-3-5" class="uuid-35a379ca-3bc5-4d0f-ae36-a0d0ad2e300c" d="m124.94,146.25s-5.23-8.59-12.27-18.7c-4.72-6.76-8.49-14.08-8.84-20.39-.4-7.2,3.4-14.43,10.29-14.78,6.89-.35,9.68,5.55,10.82,10.42,1.14-4.87,3.93-10.77,10.82-10.42,6.89.35,10.7,7.58,10.29,14.78-.35,6.31-4.12,13.63-8.84,20.39-7.05,10.1-12.28,18.7-12.28,18.7Z"/>
    <path id="uuid-20b15ed8-5078-4e22-9575-d450d4fed067" data-name="path10114-8-3" class="uuid-35a379ca-3bc5-4d0f-ae36-a0d0ad2e300c" d="m66.97,90.57s-5.23-8.59-12.27-18.7c-4.72-6.76-8.49-14.08-8.84-20.39-.4-7.2,3.4-14.43,10.29-14.78,6.89-.35,9.68,5.55,10.82,10.42,1.14-4.87,3.93-10.77,10.82-10.42,6.89.35,10.7,7.58,10.29,14.78-.35,6.31-4.12,13.63-8.84,20.39-7.05,10.1-12.28,18.7-12.28,18.7Z"/>
    <path id="uuid-0c033ca6-ff23-4584-a1e9-9fc3967fb8ad" data-name="path10116-2-5" class="uuid-35a379ca-3bc5-4d0f-ae36-a0d0ad2e300c" d="m182.92,201.93s-5.23-8.59-12.27-18.7c-4.72-6.76-8.49-14.08-8.84-20.39-.4-7.2,3.4-14.43,10.29-14.78,6.89-.35,9.68,5.55,10.82,10.42,1.14-4.87,3.93-10.77,10.82-10.42,6.89.35,10.7,7.58,10.29,14.78-.35,6.31-4.12,13.63-8.84,20.39-7.05,10.1-12.28,18.7-12.28,18.7Z"/>
    <path id="uuid-654d91c0-265a-43a8-8428-30c8015fd58d" data-name="path10120-6-5" class="uuid-35a379ca-3bc5-4d0f-ae36-a0d0ad2e300c" d="m182.92,90.57s-5.23-8.59-12.27-18.7c-4.72-6.76-8.49-14.08-8.84-20.39-.4-7.2,3.4-14.43,10.29-14.78,6.89-.35,9.68,5.55,10.82,10.42,1.14-4.87,3.93-10.77,10.82-10.42,6.89.35,10.7,7.58,10.29,14.78-.35,6.31-4.12,13.63-8.84,20.39-7.05,10.1-12.28,18.7-12.28,18.7Z"/>
    <path id="uuid-bbcf6b7a-55ad-4a58-bf05-5fa07ed2f775" data-name="path10124-1-1" class="uuid-35a379ca-3bc5-4d0f-ae36-a0d0ad2e300c" d="m66.97,201.93s-5.23-8.59-12.27-18.7c-4.72-6.76-8.49-14.08-8.84-20.39-.4-7.2,3.4-14.43,10.29-14.78,6.89-.35,9.68,5.55,10.82,10.42,1.14-4.87,3.93-10.77,10.82-10.42,6.89.35,10.7,7.58,10.29,14.78-.35,6.31-4.12,13.63-8.84,20.39-7.05,10.1-12.28,18.7-12.28,18.7Z"/>
    <path id="uuid-e01b69cb-a15b-4911-8fd0-37bca636955b" data-name="path10134-7-3" class="uuid-35a379ca-3bc5-4d0f-ae36-a0d0ad2e300c" d="m182.92,259.41s-5.23,8.59-12.27,18.7c-4.72,6.76-8.49,14.08-8.84,20.39-.4,7.2,3.4,14.43,10.29,14.78,6.89.35,9.68-5.55,10.82-10.42,1.14,4.87,3.93,10.77,10.82,10.42,6.89-.35,10.7-7.58,10.29-14.78-.35-6.31-4.12-13.63-8.84-20.39-7.05-10.1-12.28-18.7-12.28-18.7Z"/>
    <path id="uuid-e321eac3-2f34-472e-bc2c-8d210cbc0c3c" data-name="path10136-5-7" class="uuid-35a379ca-3bc5-4d0f-ae36-a0d0ad2e300c" d="m66.97,259.41s-5.23,8.59-12.27,18.7c-4.72,6.76-8.49,14.08-8.84,20.39-.4,7.2,3.4,14.43,10.29,14.78,6.89.35,9.68-5.55,10.82-10.42,1.14,4.87,3.93,10.77,10.82,10.42,6.89-.35,10.7-7.58,10.29-14.78-.35-6.31-4.12-13.63-8.84-20.39-7.05-10.1-12.28-18.7-12.28-18.7Z"/>
    <path id="uuid-b0ba9679-16c1-41c2-8428-de72e9ffab19" data-name="path25-43-2-3-9" class="uuid-35a379ca-3bc5-4d0f-ae36-a0d0ad2e300c" d="m13.55,52.57c2.43-12.88,5.02-22.55,11.81-33.04h-13.81v4.52h-3.67v-8.51h20.2l2.49,4c-7.22,7.89-13.82,33.41-12.65,33.04h-4.38Z"/>
    <path id="uuid-3bcc3841-0180-4dc5-a1eb-4804a9be3882" data-name="path25-7-0-2-8-2" class="uuid-35a379ca-3bc5-4d0f-ae36-a0d0ad2e300c" d="m236.34,297.42c-2.43,12.88-5.02,22.55-11.81,33.04h13.81v-4.52h3.67v8.51h-20.2l-2.49-4c7.22-7.89,13.82-33.41,12.65-33.04h4.38Z"/>
  </g>
</svg>