<?xml version="1.0" encoding="UTF-8"?>
<svg id="uuid-2cc2e13f-94ba-4864-b6f9-0dc6bad507b7" data-name="Cards" xmlns="http://www.w3.org/2000/svg" viewBox="0 0 250 350">
  <defs>
    <style>
      .uuid-57508591-69a1-44f1-993c-7566231a390c {
        fill: #c8102e;
      }

      .uuid-57508591-69a1-44f1-993c-7566231a390c, .uuid-64ef45ac-b79d-4790-b5e8-7a1af8ced7dc {
        stroke-width: 0px;
      }

      .uuid-64ef45ac-b79d-4790-b5e8-7a1af8ced7dc {
        fill: #fff;
      }
    </style>
  </defs>
  <g id="uuid-7659dd39-a5ce-4b51-a473-7f9502fd861b" data-name="HEART-10">
    <g id="uuid-24af3fd0-1b8d-4e18-8ac9-3cf55846c285" data-name="g10276-9-9">
      <path id="uuid-c1860cf3-0f58-4ff2-b3d5-be93ebe4efac" data-name="rect10278-0-6" class="uuid-64ef45ac-b79d-4790-b5e8-7a1af8ced7dc" d="m11.87,0h226.08c6.6,0,11.96,5.36,11.96,11.97v326.05c0,6.61-5.35,11.97-11.96,11.97H11.87c-6.6,0-11.96-5.36-11.96-11.97V11.97C-.08,5.36,5.27,0,11.87,0Z"/>
    </g>
    <path id="uuid-0a7d51e1-7a8b-461f-8ed9-92a9ee2747cd" data-name="path10308-5-1" class="uuid-57508591-69a1-44f1-993c-7566231a390c" d="m66.94,164.82s-5.23-8.59-12.27-18.7c-4.72-6.76-8.49-14.08-8.84-20.39-.4-7.2,3.4-14.43,10.29-14.78,6.89-.35,9.68,5.55,10.82,10.42,1.14-4.87,3.93-10.77,10.82-10.42,6.89.35,10.7,7.58,10.29,14.78-.35,6.31-4.12,13.63-8.84,20.39-7.05,10.1-12.28,18.7-12.28,18.7Z"/>
    <path id="uuid-f9bde49e-4275-4c4d-92a4-7d81a7896c9d" data-name="path10310-7-8" class="uuid-57508591-69a1-44f1-993c-7566231a390c" d="m19.2,78.54s-2.49-3.58-5.85-7.79c-2.25-2.82-4.05-5.87-4.21-8.49-.19-3,1.62-6.01,4.91-6.16,3.28-.15,4.62,2.31,5.16,4.34.54-2.03,1.88-4.49,5.16-4.34,3.28.15,5.1,3.16,4.91,6.16-.17,2.63-1.96,5.68-4.21,8.49-3.36,4.21-5.85,7.79-5.85,7.79Z"/>
    <path id="uuid-0a0fe4d8-082a-4b7e-a296-22fbc1064678" data-name="path10312-3-5" class="uuid-57508591-69a1-44f1-993c-7566231a390c" d="m230.63,271.45s-2.49,3.58-5.85,7.79c-2.25,2.82-4.05,5.87-4.21,8.49-.19,3,1.62,6.01,4.91,6.16,3.28.15,4.62-2.31,5.16-4.34.54,2.03,1.88,4.49,5.16,4.34,3.28-.15,5.1-3.16,4.91-6.16-.17-2.63-1.96-5.68-4.21-8.49-3.36-4.21-5.85-7.79-5.85-7.79Z"/>
    <path id="uuid-7d338ad6-d2f7-485d-9d8b-ec5d3e65dd85" data-name="path10314-8-8" class="uuid-57508591-69a1-44f1-993c-7566231a390c" d="m124.91,138.44s-5.23-8.59-12.27-18.7c-4.72-6.76-8.49-14.08-8.84-20.39-.4-7.2,3.4-14.43,10.29-14.78,6.89-.35,9.68,5.55,10.82,10.42,1.14-4.87,3.93-10.77,10.82-10.42,6.89.35,10.7,7.58,10.29,14.78-.35,6.31-4.12,13.63-8.84,20.39-7.05,10.1-12.28,18.7-12.28,18.7Z"/>
    <path id="uuid-e973a4bd-b59e-4f38-8332-e8a1dbfed941" data-name="path10318-3-7" class="uuid-57508591-69a1-44f1-993c-7566231a390c" d="m66.94,90.58s-5.23-8.59-12.27-18.7c-4.72-6.76-8.49-14.08-8.84-20.39-.4-7.2,3.4-14.43,10.29-14.78,6.89-.35,9.68,5.55,10.82,10.42,1.14-4.87,3.93-10.77,10.82-10.42,6.89.35,10.7,7.58,10.29,14.78-.35,6.31-4.12,13.63-8.84,20.39-7.05,10.1-12.28,18.7-12.28,18.7Z"/>
    <path id="uuid-fe6d419b-d067-4201-a0b5-4a13fd334040" data-name="path10322-4-6" class="uuid-57508591-69a1-44f1-993c-7566231a390c" d="m182.89,164.82s-5.23-8.59-12.27-18.7c-4.72-6.76-8.49-14.08-8.84-20.39-.4-7.2,3.4-14.43,10.29-14.78,6.89-.35,9.68,5.55,10.82,10.42,1.14-4.87,3.93-10.77,10.82-10.42,6.89.35,10.7,7.58,10.29,14.78-.35,6.31-4.12,13.63-8.84,20.39-7.05,10.1-12.28,18.7-12.28,18.7Z"/>
    <path id="uuid-0834d1dd-38cc-4276-944d-78b730e443ec" data-name="path10324-9-8" class="uuid-57508591-69a1-44f1-993c-7566231a390c" d="m182.89,90.58s-5.23-8.59-12.27-18.7c-4.72-6.76-8.49-14.08-8.84-20.39-.4-7.2,3.4-14.43,10.29-14.78,6.89-.35,9.68,5.55,10.82,10.42,1.14-4.87,3.93-10.77,10.82-10.42,6.89.35,10.7,7.58,10.29,14.78-.35,6.31-4.12,13.63-8.84,20.39-7.05,10.1-12.28,18.7-12.28,18.7Z"/>
    <path id="uuid-f4d76d64-6d48-4883-aed9-61143e3cc7b4" data-name="path10332-8-6" class="uuid-57508591-69a1-44f1-993c-7566231a390c" d="m124.91,211.56s-5.23,8.59-12.27,18.7c-4.72,6.76-8.49,14.08-8.84,20.39-.4,7.2,3.4,14.43,10.29,14.78,6.89.35,9.68-5.55,10.82-10.42,1.14,4.87,3.93,10.77,10.82,10.42,6.89-.35,10.7-7.58,10.29-14.78-.35-6.31-4.12-13.63-8.84-20.39-7.05-10.1-12.28-18.7-12.28-18.7Z"/>
    <path id="uuid-6404b3ad-5d57-4b6c-8843-20ab39da84f4" data-name="path10334-5-0" class="uuid-57508591-69a1-44f1-993c-7566231a390c" d="m182.89,185.18s-5.23,8.59-12.27,18.7c-4.72,6.76-8.49,14.08-8.84,20.39-.4,7.2,3.4,14.43,10.29,14.78,6.89.35,9.68-5.55,10.82-10.42,1.14,4.87,3.93,10.77,10.82,10.42,6.89-.35,10.7-7.58,10.29-14.78-.35-6.31-4.12-13.63-8.84-20.39-7.05-10.1-12.28-18.7-12.28-18.7Z"/>
    <path id="uuid-da416d46-f8d0-41d0-a807-9131d138995d" data-name="path10336-3-5" class="uuid-57508591-69a1-44f1-993c-7566231a390c" d="m66.94,185.18s-5.23,8.59-12.27,18.7c-4.72,6.76-8.49,14.08-8.84,20.39-.4,7.2,3.4,14.43,10.29,14.78,6.89.35,9.68-5.55,10.82-10.42,1.14,4.87,3.93,10.77,10.82,10.42,6.89-.35,10.7-7.58,10.29-14.78-.35-6.31-4.12-13.63-8.84-20.39-7.05-10.1-12.28-18.7-12.28-18.7Z"/>
    <path id="uuid-4ec0c3db-8342-4ec6-aaa2-b5f3e2b01960" data-name="path10338-2-9" class="uuid-57508591-69a1-44f1-993c-7566231a390c" d="m182.89,259.42s-5.23,8.59-12.27,18.7c-4.72,6.76-8.49,14.08-8.84,20.39-.4,7.2,3.4,14.43,10.29,14.78,6.89.35,9.68-5.55,10.82-10.42,1.14,4.87,3.93,10.77,10.82,10.42,6.89-.35,10.7-7.58,10.29-14.78-.35-6.31-4.12-13.63-8.84-20.39-7.05-10.1-12.28-18.7-12.28-18.7Z"/>
    <path id="uuid-b8755558-087a-4ebe-bac1-6a095e68d491" data-name="path10340-9-7" class="uuid-57508591-69a1-44f1-993c-7566231a390c" d="m66.94,259.42s-5.23,8.59-12.27,18.7c-4.72,6.76-8.49,14.08-8.84,20.39-.4,7.2,3.4,14.43,10.29,14.78,6.89.35,9.68-5.55,10.82-10.42,1.14,4.87,3.93,10.77,10.82,10.42,6.89-.35,10.7-7.58,10.29-14.78-.35-6.31-4.12-13.63-8.84-20.39-7.05-10.1-12.28-18.7-12.28-18.7Z"/>
    <g id="uuid-8f3afd87-5ad1-4701-b077-fbd3ba357219" data-name="g7724-24-8-9-7">
      <g id="uuid-3866b727-126e-4a36-a931-86729e541500" data-name="g8345-9-7-5-1">
        <path id="uuid-aea6b84c-c8d3-408f-952d-20e45d5694a6" data-name="path31-8-2-9-8" class="uuid-57508591-69a1-44f1-993c-7566231a390c" d="m7.98,52.58V15.54h3.58v37.04h-3.58Z"/>
        <path id="uuid-547eea27-2b43-43d8-84f5-6234d0c9f9ee" data-name="path33-2-3-1-6" class="uuid-57508591-69a1-44f1-993c-7566231a390c" d="m22.18,15.53c-3.45,0-6.22,3.16-6.22,7.08v22.89c0,3.92,2.77,7.08,6.22,7.08h2.01c3.45,0,6.23-3.16,6.23-7.08v-22.89c0-3.92-2.78-7.08-6.23-7.08h-2.01Zm1.04,3.5c2.04,0,3.67,1.57,3.67,3.52v23.19c0,1.96-1.64,3.54-3.67,3.54s-3.68-1.58-3.68-3.54v-23.19c0-1.96,1.64-3.52,3.68-3.52Z"/>
      </g>
    </g>
    <g id="uuid-fe977977-80f1-49df-82f4-307a81e83c04" data-name="g7724-2-5-0-2-7">
      <g id="uuid-fb267ef8-8a2f-4261-90de-0eae314154c7" data-name="g8345-5-0-9-6-9">
        <g id="uuid-d2624fc7-1c5e-4473-a1be-44e39cb1a0c6" data-name="g10963-5-1">
          <path id="uuid-7ad1bbed-19db-4520-bad8-3ca3f216cbd9" data-name="path31-1-3-2-1-5" class="uuid-57508591-69a1-44f1-993c-7566231a390c" d="m241.85,297.42v37.04h-3.58v-37.04h3.58Z"/>
          <path id="uuid-77fd5872-3906-4b28-972a-f8586d7c9a0e" data-name="path33-5-5-3-3-1" class="uuid-57508591-69a1-44f1-993c-7566231a390c" d="m227.65,334.46c3.45,0,6.22-3.16,6.22-7.08v-22.89c0-3.92-2.77-7.08-6.22-7.08h-2.01c-3.45,0-6.23,3.16-6.23,7.08v22.89c0,3.92,2.78,7.08,6.23,7.08h2.01Zm-1.04-3.5c-2.04,0-3.67-1.57-3.67-3.52v-23.19c0-1.96,1.64-3.54,3.67-3.54s3.68,1.58,3.68,3.54v23.19c0,1.96-1.64,3.52-3.68,3.52Z"/>
        </g>
      </g>
    </g>
  </g>
</svg>