<?xml version="1.0" encoding="UTF-8"?>
<svg id="uuid-69072976-7a43-4872-9655-59b51284fb7c" data-name="Cards" xmlns="http://www.w3.org/2000/svg" viewBox="0 0 250 350">
  <defs>
    <style>
      .uuid-7bab36ce-b1f8-41ee-9af5-c513e5733f60, .uuid-90d8bf86-a770-4c61-818b-a3731e948562, .uuid-7545c47d-6e06-4874-807a-cf1708d17fb0, .uuid-15dbf75f-706a-41be-a836-6ef363e63377, .uuid-2819845b-b5e4-4bc0-a88b-10ac1d0836cc {
        stroke-width: 0px;
      }

      .uuid-90d8bf86-a770-4c61-818b-a3731e948562 {
        fill: #c8102e;
      }

      .uuid-7545c47d-6e06-4874-807a-cf1708d17fb0 {
        fill: #fff;
      }

      .uuid-15dbf75f-706a-41be-a836-6ef363e63377 {
        fill: #ffcd00;
      }

      .uuid-2819845b-b5e4-4bc0-a88b-10ac1d0836cc {
        fill: #004c97;
      }
    </style>
  </defs>
  <g id="uuid-f1911473-ca98-4288-9705-4e5593a7e483" data-name="HEART-13-KING">
    <path id="uuid-b79eee82-c629-4975-9ed1-1f659061df0a" data-name="rect6355-6-85-90-3-5" class="uuid-7545c47d-6e06-4874-807a-cf1708d17fb0" d="m11.85.02h226.06c6.6,0,11.96,5.36,11.96,11.97v326.03c0,6.61-5.35,11.97-11.96,11.97H11.85c-6.6,0-11.96-5.36-11.96-11.97V11.99C-.11,5.38,5.25.02,11.85.02Z"/>
    <path id="uuid-a3f3c479-7126-4cfc-a9f8-e28bf1ef90c1" data-name="path163-0-2-7-7-1-8-7-00-1-2" class="uuid-90d8bf86-a770-4c61-818b-a3731e948562" d="m19.17,78.55s-2.49-3.58-5.85-7.79c-2.25-2.82-4.05-5.87-4.21-8.49-.19-3,1.62-6.01,4.91-6.16,3.28-.15,4.62,2.31,5.16,4.34.54-2.03,1.87-4.49,5.16-4.34,3.28.15,5.1,3.16,4.91,6.16-.17,2.63-1.96,5.68-4.21,8.49-3.36,4.21-5.85,7.79-5.85,7.79h0Z"/>
    <path id="uuid-023563cd-7467-4bf5-9dec-4c2b4183b8e1" data-name="path163-0-2-7-7-1-8-1-9-4-6-8" class="uuid-90d8bf86-a770-4c61-818b-a3731e948562" d="m230.59,271.45s-2.49,3.58-5.85,7.79c-2.25,2.82-4.05,5.87-4.21,8.49-.19,3,1.62,6.01,4.91,6.16,3.28.15,4.62-2.31,5.16-4.34.54,2.03,1.87,4.49,5.16,4.34,3.28-.15,5.1-3.16,4.91-6.16-.17-2.63-1.96-5.68-4.21-8.49-3.36-4.21-5.85-7.79-5.85-7.79h0Z"/>
    <path id="uuid-d20234b2-4f00-472c-89d3-df501877b970" data-name="path39-51-8-0-0" class="uuid-90d8bf86-a770-4c61-818b-a3731e948562" d="m20.08,48.51h3.72l-5.46-13.68-4.17,5.78.03,7.9h2.93v4.07H6.8v-4.07h3.4v-29.41h-3.4s0-3.55,0-3.55h10.48v3.68h-2.89l-.06,14.33,9.15-14.46h-3.23v-3.56h11.15v3.56h-2.94l-7.53,11.81,7.37,17.59h3.27l.02,4.07h-11.46l-.03-4.08h0Z"/>
    <path id="uuid-6da35847-e2ac-47e4-9a11-014ca8640ee3" data-name="path39-3-9-6-0-8" class="uuid-90d8bf86-a770-4c61-818b-a3731e948562" d="m229.7,301.5h-3.72l5.46,13.68,4.17-5.78-.03-7.9h-2.93v-4.07h10.33v4.07h-3.4v29.41h3.4s0,3.55,0,3.55h-10.48v-3.68h2.89l.06-14.33-9.15,14.46h3.23v3.56h-11.15v-3.56h2.94l7.53-11.81-7.37-17.59h-3.27l-.02-4.07h11.46l.03,4.08h0Z"/>
    <path id="uuid-6996ac1e-7701-41cd-a041-9413b19d4506" data-name="path3876-2-1-7" class="uuid-15dbf75f-706a-41be-a836-6ef363e63377" d="m90.64,296.91c19.62,2.28,39.74,2.82,60.42,1.31,5.35,7.47,16.1,22.69,16.1,22.69l-97.37.8,20.85-24.79Zm-25.29,5.2c2.61-5.32,3.12-10.44,2.62-17.83-.39-5.67,3.12-10.08,6.74-8.39,2.8,1.31,1.51,6.67-1.39,5.54-1.11-.43-2.08-.04-1.93,2.51.26,6.28,1.91,13.35.49,19.37-.99,5.85-8.95,3.15-6.53-1.19Zm-24.46-8.2c-3.08-4.66,2.44-9.03,5.89-6.88,1.64.77,1.41,2.46-.66,1.56-2.88-1.25-5.98,3.18-3.47,4.96,1.15.82,1.59.71.72-.32-2.33-2.74,3.64-3.95,3.46-2.15-.41,2.2-.46,3.13-.66,3.56-1.22,1.92-3.55.94-5.28-.73h0Zm8.58-19.6c-3.32-4.19.49-7.48.44-7.36.99-1.08-7.92-17.84-6.79-17.95,11.24-1.21,22.61-.3,33.87.06,0,0-6.01,10.91-8.4,16.31-.96,2.18,1.29,4.74.36,6.35-2.9,3.2-1.1,6.75-2.91,6.91-4.64-.88-9.57-1.39-15.56-.07-.46-.04-.38-2.83-1.01-4.25h0Zm48.67-116.45c5.68,29.23-2.7,60.21-21.91,80.65-2.71-2.63-4.79-7.63-7.5-10.89-7.51-2.28-12.91.4-18.18,3.03-4.68-2.72-9.95-4.33-15.08-4.26l-.17-4.52c5.2-.11,10.69.37,15.31,3.26l7.24-2.97-22.58-23.66.31-4.04,27.4,27.92,3.53.13c-7.75-20.82-.97-53.89,31.63-64.66Zm38.2,36.66l3.96,19.09s-22.21,22.24-33.89,33.6l-9.76-.9c4.87-7.32,7.65-14.73,10.88-22.11l28.8-29.68Zm78.73,26.18c-9.3,10.52-20.41,17.21-32.75,24.58-4.93-5.57-10.92-11.69-14.38-17.18,10.77-5.81,21.03-10.31,31.57-20.49-.58.66-13.45,5.07-13.41,4.56-.46,2.17-.19,3.51-2.28,4.08-2.48-3.5-4.88-6.34-8.79-7.9-1.64.15-3.82-.94-3.82-.94,1.1-.23.61-13.65,0-13.8,1.2-.39,2.41-1.33,4.07.52.76.52,8.18-7.03,10.71-9.61,9.92-.82,18.7.16,28.47-.1-.08,11.95.61,24.33.6,36.28h0Zm-62.97-30.26c-.25-.51-2.75-20.3-.37-32.72,6.53-20.89,4.86-26.71,21.73-47.26,1.11-1.1,4.99,2.44,7.89,8.56,8.42,5.36,19.22-1.56,19.22-1.56,0,0,4.19,3.46,13.67,5.34l-.16,3.72c-.05,1.08-10.66-1.15-12.94-3.31,0,0-7.95,2.68-7.95,3.17,0,2.08,21.17,21.85,21.17,21.85l-.12,4.64c.14.01-29.02-30.56-29.4-27.36,8.25,35.9-5.79,54.08-32.73,64.94h0Zm-35.06-6.31l-.47-18.99,17.86.21.73,19.18-18.12-.41Zm-81.72-20.52c.48-.67-.7-35.39-.62-35.39,11.37-11.43,22.48-17.82,33.63-24.77,5.04,5.05,9.32,9.3,13.04,15.42l-15.38,9.58c.58,2.33-.93,3.17,8.98,12.26.17-.62,3.43-2.47,4,.3-1.34,5.84.6,10.8.85,13.94-1.35,1.84-4.38-.14-4.38-.14-1.96-2.06-9.63,8.12-11.82,9.26-9.56-.36-28.83.3-28.3-.46h0Zm107.43-61.72c.07.12,9.83.02,9.74.24-1.78,4.4-5.82,13.16-9.88,22.86-3.39,5.64-27.64,29.14-27.64,29.14-1.15-6.82-2.88-13.47-4.68-20.1l32.46-32.15Zm42.14-32.73c3.51,1.52,13.39.72,14.96.04,2.01,1.38.75,3.22.5,4.24,2.06,2.64,3.19,3.58.85,7.83-.53,0,7.2,17.61,7.4,17.62,0,0-8.17-3.92-11.05-6.57l-5.64,7.58-6.55-8.56c-.02.77-12.62,9.22-12.77,8.82-.4-.4,11.5-13.36,9.14-20.96-.57-1.83.73-3.7,1.62-5.31.61-1.11-.21-3.25,1.53-4.72h0Zm-6.54-1.58c.53-.62-3.05-16.54.83-22.97,1.65-2.34,4.63-2.46,5.87-.54.95,2.66-1.88,6.36-2.45,8.17-1.84,5.04.89,11.69-.44,16.45-4,10.4-11.09-1.02-3.81-1.11h0Zm26.64-7.07c-2.11.09-.64-6.28-.29-8.11-.01-.36,3.86-1.28,5.26,1.23,2.25,3.75-.46,8.48-4.97,6.88Zm-25.16-32.15l-19.87,24.45c-20.09-2.34-40.26-3.83-60.81-.65l-16.52-23.32,97.2-.48Z"/>
    <path id="uuid-319a11d0-869e-45b1-9caa-fc7ecc5618fb" data-name="path3874-3-1-4" class="uuid-2819845b-b5e4-4bc0-a88b-10ac1d0836cc" d="m33.06,26.85v296.31h183.65V26.85H33.06Zm146.59,1.54h0c-7.82,9.14-14.68,19.68-22.55,27.58,1.47,4.35,3.56,9.77,5.56,13.88,3.18,6.65,11.19,18.88,6.2,28.66-.49.84-.94,1.25-1.56,1.24-.85,0-.83-.51-.33-1.49,1.11-2.16,1.87-7.28,1.42-9.99-.28-1.73-1.23-4.4-3.04-8.43-8.36-15.63-10.98-23.96-10.5-23.96-.47-.23-.88-.33-1.42-.52,2.9,9.88,7.61,18.19,11.34,25.88,3.06,7.15,3.39,9.92,1.79,15.12-.62,2.01-1.74,3.3-2.84,3.3-.82,0-.78-.17-.21-1.19,2.93-5.32,2.25-11.13-1.39-17.89-5.29-11.16-8.46-18.22-10.35-25.38-.05,0-.96-.31-1.3-.39,1.57,7.45,5.95,16.05,10.03,24.85,3.37,6.77,4.35,11.71,3.13,15.61-.4,1.69-1.67,4.21-3.28,4.28-.63,0-.73-.33-.13-1.2,2.5-4.34,2.94-8.34-1.53-17.45-4.11-8.37-8.24-17.75-9.65-25.93,0-.45-1.38-.27-1.49-.35,2.21,9.67,6.61,19.57,11.28,29.23,2.63,5.99,2.9,9.83.93,13.18-1.1,1.87-1.38,2.3-2.21,2.32-.98.02-.96.06-.42-1.08,2.39-5.04,1.99-9.48-1.19-16.76-4.37-9.99-8.06-18.26-9.63-27.05-.28-.08-1.76-.66-1.55-.22,2.19,8.37,4.99,16.15,8.59,24.01,1.26,2.73,3.29,8.03,3.95,10.69,1.25,5.06-1.56,12.01-5.24,12.36-1.37.13-1.2-.56.33-2,2.63-2.48,3.14-6.43,2.25-11.02-.67-3.53-1.83-7.32-3.41-11.17-3.21-7.79-6.7-15.94-7.81-23.13.21-.06-1.27-.11-1.02.03.79,5.06,2.69,10.81,4.77,16.16,2.27,5.85,5.65,12.41,6.76,19.59.91,5.87-2.71,11.42-7.11,11.75-5.29.4-6.33-4.9-5.06-7.39,2.08-3.71,8.11-1.59,6.31,2.2-1.03,2.18-4.18,1.61-4.05-.79-.04-.22.3-.88.24-.91-.11-.06-.57.36-.72.63-1.07,1.94,2.15,4.54,4.38,2.98,7.49-4.11,2.43-16.64-.83-24.3-3.16-7.13-5.48-13.58-6.48-20.18-.27-.19-1.51-.51-1.34-.28.91,3.52,1.32,6.5,2.23,9.46,1.41,4.64,3.95,9.84,6.02,15.05,1.88,5.12,3.77,9.48,2.91,14.82-.08.49-.28,1.09-.61,1.45-.34.36-.62.3-.71-1.06-.03-.19-.27-.43-.3-.67.18-2.01.05-4-.46-5.88-.44-1.58-1.27-3.19-3.03-6.27-.69-1.14-2.51-4.64-1.87-2.22.37,1.37,1.61,4.4,2.91,6.6.81,1.37,1.65,5.09,1.4,5.81-.26.7-.88.74-1.16.5-.26-.22-.26-1.22-.32-1.83-.27-2.53-2.83-6.95-4.61-8.69-1.27-1.44,3,6.13,3.32,8.15.13.85.4,1.55.11,1.97-.19.28-.58.28-.95.18-.36-.09-.35-.35-.73-1.65-.66-2.22-1.47-3.34-3.15-5.35-.58-.69-.96.17-.04,1.29,1.27,2.03,2.23,3.33,2.55,5.95-.82,1.19-1.23.95-2.95-2.05-1.14-1.98-1.82-2.49-2.12-2.48-.76.04-.04.98,2.08,4.37,1.1,1.81,1.12,2.93-.12,2.92-.42,0-2.79-2.65-3.39-3.79-.49-.95-1.1-1.68-1.11-.52,0,.46,1.47,2.89,2.48,4.07,1.59,1.86,2.04,2.24,2.24,3.06.1.39.29,1.08.42,1.53.41,1.34.2,1.72-.62,1.01-.37-.99-.68-1.1-1.7-1.86-.86-.64-2.06-2.31-2.84-3.49-.3-.44-.55-1.01-.85-1.46-.77-1.46-1.79-1.58-1.05-.11.35.68.92,1.8,1.51,2.63,1,1.44.79,2.19-.39,2.18-.51,0-1.92-1.88-2.81-3.35-.58-.96-1.48-1.64-1.37-.69.03.24.72,1.92,1.77,3.24,1.14,1.43,1.28,2.19.18,2.19-.75,0-1.4-.73-2.36-2.21-.91-1.41-1.48-1.9-1.74-1.74-.33.2,1.31,3,2.65,4.52,1.27,1.44.34,2.26-1.12.98-.79-.7-2.38-2.77-2.82-3.76-.8-1.76-1.31-1.28-.8.12.57,1.54,1.45,3.22,2.52,4.32.56.57,1.71,1.02,2.28,1.52,1.59,1.4,2.6,2.69,2.47,2.92-4.55.26-8.28-4.66-9.3-7.63-.73-1.96-1.55-2.25-.77.52,2.22,6.86,9.13,10.43,13.91,7.35,2.88-1.86.34-6.69-2.02-5.13-.64.42-.67,1.62.14.98,1.53-1.21,3.07,1.77,1.4,2.65-2.35,1.24-4.96-1.19-3.36-4.12,1.58-3.02,7.92-1.29,6.68,3.58-.75,2.19-4.04,4.92-6.86,4.97-5.24.1-8.86-3.97-10.87-7.98-.26-.52-.72-1.53-1.11-2.36-.33-.72-.59-1.25-.62-1.24.58,4.88,5.18,10.91,9.3,11.9,6.85,1.63,8.72-2.5,13.2-6.77,0,0,3.27.43,3.39.36.3-.19,6.37-.46,6.55-.29-24.51,45-22.64,98.42-1.57,138.97,1.39,2.97,1.64,2.4-.67,1.8-2.38-.63-4.55.34-6.49-.12-4.01-.83-4.86,1.94-7.94,3.42-3.84,1.47-2.97,4.17-3.89,6.79-.29.4-.5.74-.34.68.25-.09,1.07-.85,1.13-1.53.16-1.73.77-3.1,1.46-3.79.66-.66,1.12-.99,1.28-.71.12.22.03,1-.3,1.62-.93,1.78.3,7.74.38,3.5.06-3.37,2.08-7.12,4.9-8.66,2.26-1.12,2.96-1,1.12.72-2.09,2.25-3.51,4.88-3.59,8.15-.03,1.36.5,2.49.69,1.27-.08-6.22,6.06-13.15,12.64-9.71.33.24.61.69.51.94-6.38-1.08-11.92,2.44-11.11,10.8,0,0,.57-1.64.89-3.27,1-5.11,6.72-7.35,10.72-5.95.75.32,1.35,1.4,1.24,1.54-4.9-1.56-10.28,3.13-10.59,8.21-.1,1.65-.06,3.07.77.09,3.16-11.29,12.93-6.17,11.73-5.25-7.56-.91-10.29,4.24-10.11,10.19.11.54.38.72.61,1.23,1.01,2.24,1.46,4.17,1.54,8.24-.08,1.05.78,7.72-.08,7.44-2.74-1.03-4.83-2.24-9.59-.07-.43.02-.57-.22-.42-.59.2-.51.94-1.51,2.24-2.98,1.39-1.5,1.63-2.12,1.63-2.12,0,0-1.53.85-2.79,2-.52.47-.82.68-.95.56-.25-.22.22-1.72,1.19-4.94.59-1.96.22-2.19-2.33-3.5-1.6-.82-3.45-1.06-3.45-1.06,0,0,.37.37,1.24.92.87.54,1.8,1.11,2.79,1.51,1.16.64,1.03.91.17,3.73-1.66,5.47-2.24,7.47-2.16,11.16.21,8.96,8.64,8.07,13.44,6.05l.2,5.9,18.07,25.77-96.95.49c-.17.09,20.88-23.79,23.57-28.12.12.02-2.26-7.27-3.52-10.43-5.91-14.96-13.68-21.25-9.18-31.08.97-1.95,1.14-2.61,1.87-2.6,1,0,1.32.68.2,2.58-4.83,8.2,5.47,22.35,8.95,31.37.54,1.41,2.76,7.83,3.25,10.28l1.23.22c-1.28-4.58-2.87-9.54-3.61-11.34-2.75-6.66-5.64-11.21-8.33-17.72-1.5-4.11-2.3-8.87.03-13.13.85-1.55,1.09-2.42,1.65-2.5.48,0,.76.17.79.57.03.44-.23,1.15-.86,2.24-4.06,7,3.16,18.3,6.73,26.37,2.33,5.26,4.4,10.78,5.14,15.77,0,0,.01.02.01.03l1.28.23c-1.6-9.18-6.07-18.09-10-26.67-3.4-6.8-4.68-12.72-.13-18.32.4-.39,1.25-.32,1.31.25.03.39-.26,1.13-.97,2.62-4,8.48,2.19,15.37,5.1,23.45,2.75,6.55,5.3,12.09,6.42,18.98l1.39.25c-2.08-10.14-6.54-19.26-10.41-28.05-1.79-3.83-2.43-5.67-2.55-8.23-.17-3.53,1.59-7.99,3.16-9.17.41-.31.66-.36,1.03-.15.51.28.41.47-.6,2.4-1.93,3.69-2.09,7.84-.3,12.22,3.09,6.73,5.69,12.26,7.53,17.21,1.96,5.27,3.08,9.87,3.56,14.03l1.22.22c0-.06.01-.11-.01-.19-.86-5.94-2.79-12.1-4.89-17.32-1.97-4.92-4.45-9.66-6.45-14.54-2.43-5.85-.42-12.25,4.57-15.44l2.29.05c-.13-.06-5.23,1.99-5.5,9.37-.25,7.03,3.03,11.35,5.41,17.31,2.88,7.15,5.46,13.42,6.09,21.04l1.47.26c-.62-5.14-2.1-10.04-4.22-16.04-2.26-6.41-4.51-9.25-6.6-15.98-1.42-4.55-1.23-10.72,1.93-13.54,4.73-4.84,11.33-1.39,9.67,4.15-1.28,3.9-6.55,3.12-6.52-.53-.01-2.36,2.86-3,3.81-1.22.22.35.37,1.86.47,1.92.1.06.4-1.2.4-1.48.01-1.94-2.59-3.57-4.52-2.59-2.65,1.35-4.37,4.45-4.19,8.59.18,4.41.97,7.26,4.54,14.18,4.15,8.06,5.53,16.78,6.41,22.66.38-.16.84.05.99,0-.61-8.02-3.21-16.25-6.45-23.09-3.93-8.29-5.03-13.36-3.72-17.08.19-.55.37-.95.61-.99.44-.07.58.64.98,2.13.12.46-.03,1.17-.12,1.73-.34,3.4,2.01,10.47,4.2,13.62.64.9,1.46.87.75-.73-2.25-4.11-3.63-7.84-3.81-12.83-.05-1.47,1.63-.81,1.67-.07.12,2.39.36,5.2,1.49,7.2,2.28,3.96,3.56,4.13,1.22-.29-.52-1.03-2-5.36-1.41-6.85.33-.3.74-.36.94-.05.66,2.45,1.58,4.88,3.19,6.76.85.98.99.54.54-.69-.74-1.42-3.08-6.16-2-7.23.35-.29.14-.13,1.09,1.42,1.31,2.17,2.02,3.02,2.66,3.65.85.84,1.05.28.18-1.21-1.75-2.96-2.74-5.41-2.13-6.03.61-.61.75-.33,2.14,2.05.61,1.06,1.5,2.62,1.81,2.99.3.37.58.46.58.16-.32-2.87-2.76-6.15-3.74-6.72-.14-.27-.09-2.54-.09-2.54,3.66,1.91,3.81,4.06,6.24,7.38.25.25.6-.06.5-.51-.09-.62-1.52-3.38-2.42-4.59-.71-.95-.74-1.5-.14-1.77.97-.44,2.33,1.01,3.77,3.62.67,1.21,1.56,1.91,1.57,1.28,0-.35-1.24-3.47-2.1-4.37-1.43-1.5-.72-2.55.93-1.16.75.63,1.77,1.1,2.82,3.4.61,1.34,1.14,1.51,1.14.44,0-1.2-1.99-4.13-3.33-4.95-1.04-.63-1.63-1.33-1.34-1.8.91-1.35,4.59,2.1,5.85,5.31.37.95,1.02,1.43,1.18,1.01.28-.21-.46-2.53-1.23-3.6-1.26-2.45-4.25-4.82-6.02-4.53-.34.05-1.28-1.95-1.28-1.95,4.52-.74,8.9,4.73,9.68,6.78,1.48,3.88,2.23,3.43.94.02-2.53-6.66-10.39-10.39-14.76-7.17-2.48,1.83-1,6.22,1.56,5.48,1.02-.39,2-1.43.21-1.09-1.99.2-2.62-2.86-.6-3.47,3.26-.99,4.01,4.27,1.38,5.44-2.73,1.18-5.45-.58-5.2-3.62.48-5.73,7.45-7.39,14.33-2.75,1.93,1.3,4.31,5.56,5.13,8.25.27.89,1.18,1.2,1.29,1.09.26-.26-1.91-5-2.62-6.2-2.99-6.93-13.82-7.28-13.82-6.92,0,0-4.24,2.7-8.01,7.15l-9.68-.9c24.93-39.83,26.86-98.7,1.3-140.58.32.21,4.86,1.4,6.42.15,1.15-.56,1.49-.75,2.76-.29,1.43.52,2.95.06,4.51-1.39,1.18-1.09,1.2-1.43,1.96-1.33,2.24.29,3.74-1.03,4.2-4.31.18-1.29.31-2.62.12-2.43-.11.11-.37,1.23-.53,1.93-.45,1.92-.87,2.63-1.61,3.26-1.22,1.03-1.93.46-1.42-1.11.48-1.01.88-3.62.22-4.8-.12-.21-.14.59-.31,1.24-1.33,5.13-2.73,7.74-5.14,8.34-1.13.28-1.66.11-1.29-.55,4.26-4.59,3.98-9.68,3.65-9.24-.91,2.94-2.59,7.33-5.35,9.14-2.39,1.56-5.88,1.71-7.82.4-1.1-.74.56-.96,3.06-1,4.21-.06,8.14-5.74,7.49-10.53-.15-.89-.39.07-.74,1.52-1.55,5.19-4.22,8.83-10.3,7.75-.48-.09-.79-.4-1.05-.58-.99-.69-.62-1.17,1.34-.91,4.4.58,8.23-3.59,8.21-8.63-.01-2.42-.35-2.39-.74-.59-.54,2.54-2.49,10.33-9.61,7.79-1.28-.7-1.98-1.6-1.53-1.73,4.15.85,7.95-.08,9.43-5.59.64-2.38.49-4.71-.16-6.65-.21-1.32-.65-2.33-.8-3.68-.4-3.6-.96-7.58-.79-11.52.34-.34.4-.27,1.59.53,2.35,1.58,4.12,1.21,6.5.28,3.07-1.12,2.79-.92-.42,2.75-.74.76-1.3,1.57-1.64,2.54,0,0,1.22-.64,2.08-1.74,1.59-2.03,1.93-2.49,2.24-2.49.11,2.19-.67,4.85-1.08,6.65-.53,1.99-.52,2.45.73,2.96.54.22,1.59.66,2.17.94,1.05.51,2.21.52,2.21.52,0,0-.67-.77-1.92-1.48-2.83-1.61-2.85-1.53-2.04-4.22.95-3.15,1.41-5.87,1.93-8.98,1.27-7.7-4.47-11.93-12.1-9.24-.44.22-.94-4.05-.87-5.18-6.36-6.57-13.57-16.9-18.78-25.35,33.48.08,66.46-.61,96.75-.53h0Zm1.34.69h33.23v70.79l-3.29.07c-3.65-6.41-6.74-12.46-8.64-18.56-.03-.27.07-.5.4-.87,1.46-1.66,1.17-5.02-.25-6.64-.44-.53-.67-.35-.64-1.63.02-1.1.12-1.8-.17-2.37-.48-.95-.8-1.01-.12-2.06.72-1.09,1.67-2.86,2.08-4.26.65-2.25.19-2.67,1.64-2.14,3.64,1.17,6.69-1.45,6.59-5.17-.08-3.13-2.97-5.91-6.33-5.06-.77.2-.93.13-2.12-.63-.34-.22-.86-.68-1.3-.85-.55-.21-1.01-.19-1.24-.59-.45-.79-1.86-2.03-3.57-1.95-1.05.05-2.4-.33-2.76-.52-.6-.32-2.27-.06-4.4-.38-.95-.14-1.71.23-2.17.23-1.31.02-.78-.15-1.03-1.15-1.64-5.26-6.44-4.63-8.64-.68-.81,1.55-1.39,3.66-1.7,6.03h-12.93l17.35-21.64Zm-100.03.15c4.83,6.21,9.45,13.18,14.31,19.53,5.99,7.68,6.19,8.57,4.58,16.3-.9,4.37-1.29,5.38-3.11,5.05-1.71-.31-3.16,1.05-3.39,2.78-.44,3.24,2.65,5.23,5.74,3.61,1.63-.85,1.69-.95,1.14,1.88-.78,4.04-2.34,7.53-3.35,7.41-2.6-5.58-8.92-1.61-6.82,4.19-.66,1.01.21,2.3.54,3.36,0,0,.01.13-3.6,1.33-17.72,5.31-39.35,19.17-51.34,32.17V29.49l45.28-.27Zm101.97,13.32c2.73-.14,3.27,4.42.81,7.78-2.24,5.15-1.63,9.21-1.12,14.61-.01,3.14-1.06,6.12-2.73,7.41-2.71,2.09-6.04-.71-4.64-3.54.72-1.41,2.25-.59,2.6-1.92.59-7.76-2.31-14.75.9-21.66,1.69-1.85,3.1-2.62,4.17-2.68Zm7.49,5.01h0c.12.02.23.05.34.1,1.52.73,2.34,4.83.91,7.33-.3.06-2.52.05-2.53.09-.04-.5.11-1.49.27-2.43.14-.81.23-1.43-.01-2.3-.58-2.09-.96-2.55.63-2.78.14-.02.27-.02.39,0h0Zm3.46.02c.24,0,.45.08.68.19,1.49.67,2.22,3.97,1.7,7.46-.08.57-.13,1.17-.34,1.3-.78-.21-2.93.57-2.97.56-.2-.21-.12-1.34.15-2.36.51-1.89.56-3.11.05-5.09-.42-1.63-.44-1.95.46-2.03.09-.02.18-.03.26-.03h0Zm-7.45.08c1.75-.08,1.09,2.72.49,3.25-.61.52-1.64.53-1.75-.12,0-.68.53-2.84.89-3.07.14-.03.26-.05.38-.05h0Zm11.5.94c.15,0,.29.02.42.05,2.04.35,2.18,6.08,1.34,7.94-.2.27-.97.21-1.25.31-1.74.5-1.35.77-1.15-2.03.14-1.92.17-3.41-.11-5-.14-.7-.19-1.18.3-1.23.14-.03.3-.04.44-.04h0Zm-9.77,2.29c.81,1.13.16,3.74-.46,4.72-.71,1.07-.99,1.16-.61,1.63.16.2.51,1.21.3,1.63-.39.79.61.93,1.52,1.41,1.47.78,2.19,2.22,3.29,4.84.38.91,1.17.63.79-.36-.33-.84-.45-2.08-.68-2.91-.24-.85.02-1.27.99-1.02,1.45.37,1.25.03,1.78-.17,1.17-.65,1.95.27,1.25.78-.4.29-1.27.47-2.22.74-.81.23-.62,1.02.19,1.01.75,0,2.91-.62,4.32-1.05,4.04-1.24,4.17-1.9,3.8.43-.5,3.08-2.16,5.39-4.9,6.17-2.38.68-7.89.55-10.34-.25-2.33-1.07-2.48-1.82-3.19-3.9-.96-2.85-1.53-7.67-.42-10.47.98-2.37.88-2.12,1.81-2,.83.29,1.95-.03,2.2-.55.13-.25.44-.7.58-.69h0Zm14.15.23c.63.03,1.26.71,1.36,1.74.09,1.03.13,2.36-.23,3.28-.25.46-1.96.44-2.51.44.06.14.62-2.35.35-4.76.27-.51.65-.73,1.03-.71Zm4.46.74c2.43.15,4.52,2.63,4.17,4.98-.25,4.95-8,4.53-7.11,1.25.8-1.75.24-3.92.47-5.51.81-.56,1.66-.77,2.47-.73Zm-44.12.03h4.15v.95h-4.87l.72-.95Zm13.89.12v1.28h-5.92v8.06h6.6l.17,1.67-9.02-.03.03-10.97c2.56,0,5.96-.01,8.13,0h0Zm-15.83,2.23h6.09v1.33h-6.94s.85-1.33.85-1.33Zm13.39,1.02l2.06,2.06-2.06,2.06-2.06-2.06,2.06-2.06Zm16.57.83c1.11.12,1.2,1.84.75,2.34-.58.58-1.66.34-1.99-.56-.3-.81.37-1.82,1.24-1.79Zm-31.62.77h7.75v1.14h-7.82l-.2-.69.28-.45Zm42.78.44c1.05-.03,1.7.87,1.04,1.64-.99,1.12-3.02-.59-1.04-1.64Zm-73.89.14c-2.61,0-5.14.66-7.1,2.2-1.7,1.46-.34,2.89,1.92,1.51,4.86-2.97,12.03-.62,16.7,1.86.92.48,1.04-.63.14-1.4-2.7-2.41-7.3-4.18-11.66-4.17Zm66.55.17c1.19.01,1.17,1.51.41,2.05-.76.34-.89.24-1.4.04-.69-.27-.18-2.08.99-2.09h0Zm4.2.02c1.41.07,1.25,2.94-.87,1.91-.77-.84-.27-1.91.87-1.91Zm-39.28,1.55h7.38v1.15h-6.91l-.48-1.15Zm-52.23,1.59c1.77.02,3.55.49,4.5,1.22,2.02,1.63,1.39,1.73-1.95.53-2.19-.5-4.36-.18-5.73.37-1.62.65-1.99.46-1.29-.64.94-1.07,2.71-1.5,4.48-1.48h0Zm21.86.52c-2.78-.1-5.41.88-7.65,3.39-.2.51-.89-.41-1.83-.23-1.34.25-.95.32.46,1.95,1.41,1.63,1.87,2.02,1.79,2.65-.13.92.13,1.43,1.04,1.33.44-.05.95.46,1.62,1.08,2.31,2.13,3.48,3.19,4.23,3.52,1.18.52,1.92.45,1.92.45,0,0-1-1.15-2.2-1.99-2.24-1.57-3.47-2.78-3.28-3.12.09-.16.48-.13,1.2.13,2.46.87,6.38.37,8.3-.81.95-.58,1.55-1.47,2.89-1.04,1.88.61,2.6-.52,2.08-1.15-.85-.56-2.8-1.22-4.65-2.48-3.96-2.04-8.11-1.98-10.89-.34-1.63.97-2.2.29-.6-.67,6.11-3.34,11.02-.5,15,2,.58.36.98.63,1.64.84,0,0-1.75-2.02-2.49-2.48-2.86-1.77-5.8-2.94-8.58-3.03h0Zm31.34.29h6.42v1.26h-5.95l-.47-1.26Zm-52.23,1.63c1.78-.01,5.65,1.61,5.58,2.96-.07.51-1.04.05-1.88-.47-1.63-1.01-4.12-1.28-6.47-.83-1.8.34-2.38.64-2.64.42-.62-1.42,3.76-2.07,5.41-2.08h0Zm53.27.96h16.14c.16,1.73.04,1.7.01,2.31-3.48.26-4.2,4.19-1.97,6.38,1.83,1.8,4.86,1.09,6.38-1.46.83-1.3,1.2-2.95,1.58-4.24l.57.97c-1.42,1.79-1.63,2.9-1.42,3.76.24,1.21-.1,1.52-.89,2.56-1.28,1.68-1.45,3.79-.65,5.36.22.43.68,1.05.6,1.34.45-.01-3.96,12.51-10.39,18.82-1.08.73-1.86-.13-1.3-1.3,5.24-12.17-4.78-23.61-8.67-34.48h0Zm-30.44,2.11c.3,0,.61.05.92.07-.74,5.6-6.09,4.7-6.3.14l.77-.03c.95,3.75,4.29,3.11,4.61-.18h0Zm-30.24.11s.39.62.39.98c0,1.3-.02,3.19-.05,3.76-.31,5.39-7.05,6.39-6.53,1.78.4-1.96,2.84-2.18,3.44-.4.87,2.23,1.03-.54,1.04-1.4.71-1.36,1.24-3.01,1.72-4.71h0Zm32.45.38c.28.01.77.25,1.16.68.44.48.28.73-.76,1.27-1.12.59-1.63.53-1.23-.65.25-.74.47-1.3.82-1.29h0Zm-8.62.46c.65-.04.68,1.4.58,1.72-.13.4-.36.22-.95-.28-.65-.56-.62-.92.05-1.32.12-.07.23-.11.32-.12h0Zm-19.81.26c1.12,3.61,3.41,3.15,4.44.18l.98-.02c-.22,4.65-6.01,4.57-6.06.07l.63-.23Zm-1.98.42c.22.03.1.51.13.6-.02.29-.08.58-.08.58,0,0-.93-.48-.39-1.02.16-.12.27-.16.35-.15h0Zm8.45.33c.12-.01.34.08.58.25.56.38.47.6-.18,1.15-.99.84-1.43.37-.9-.75.2-.42.35-.63.5-.64Zm88.31,1.05c1.11-.04,1.88,1.99,1.25,3.48-.29.71-.24.79.65,1.74,1.27,1.34,1.48,3.51.51,5.48-.7,1.44-.66,1.31.18,3.76,1.79,5.33,4.42,10.29,7.19,15.15l-3.69-1.4s-16.66,14.55-28.41,15.11l4.26,6.74c6.7,2.72,13.1,2.04,19.22-1.88-.15.56,7.45,4.34,13.69,4.75l.04,4.54c-4.63-.53-9.33-.64-13.63-3.39,0,0-3.96,1.68-7.92,2.94l22.19,23.32v3.9s-9.46-8.98-19.21-19.11l.21,49.8,19.2.18s-.36,21.4-.23,36.24c-9.07,9.46-21.56,18.92-33.09,24.6-5.44-5.33-9.94-11.11-13.88-17.29.56-.6.22-.61-.61-.96-2.4-3.63-7.97-13.69-7.09-13.93,1.71.12,9.61-.87,11.19-5.69-.2-3.63,1.13-7.87-.06-11.26-1.7-4.54,3.41-3.09,3.59-2.78v-17.15c-6.65,5.42-13.36,10.75-22.25,12.98-5.61-28.33,2.97-63.73,28.24-87.62h-1.37c-25.69,27.01-32.43,56.76-28.04,88.04,0,0,.16.98.19,1.31.06.78-.12,1.08-.81,1.64-.65.43-1.24.9-1.18,1.43.02.18.14.86.14.86l-.47.22c-.99-.11-1.32-.06-1.91.16l.3-.79-1.95.95-1.19-1.34-1.13,1.68-2.38-.22s2.17,2.99,2.82,4.35c-.05.14-.4.78-.43.92-.25,1.12.07,2.2,1.63,2.84-.1.01-1.06,3.84,1.66,3.73.86.01,3.05.46,3.05.46.14.73-.09,1.15-.43,1.47l-1.89-.96-.49,2.29-2.52-.18,6.13,7.69.71-6,7.16.92c1.15,3.03,8.38,19.83,22.21,32.38-.15.41-9.51,4.33-9.51,4.33l-1.48-4.67-1.19,1.73-2.12-.55-.25,1.96-1.88.62,3.4,2.24-8.61,2.5c-24.12-39.53-34.98-94.05-4.94-152.11l7.59.1-1.48,2.58,2.16-.35.61,1.87,1.58-.76,1.59,2.03,1.81-5.36s5.05.09,5.72.02c.53-.06,11.69-9.32,11.46-9.68-.17-.25-11.8,8.39-12.2,8.06,0,0-1.17.28-.26-.82,1.63-1.99,2.79-3.5,4.44-6.35,1.9-3.72,6.06-11.12,4.5-12.63-1.59-4.29,1.37-5.06,1.78-7.22-.42-1.21-.22-2.6.64-3.41,4.15.13,9.94,1.34,15.04-.2.08-.02.15-.03.23-.04h0Zm-77.66,7.44c-.6-.07-1.23.47-.68.7h0c4.76,2,.94,6.4-2.6,2.56-1.85-2.01-3.32-1.89-4.33-.42-.45.66.21,1.83.8,1.46.55-.34,1.1-.75,1.9-.01,6.02,5.64,10.35-2.25,5.16-4.22-.08-.04-.17-.06-.25-.07h0Zm-20.3.51s.1.02.17.07c.23.14.24,2.13.01,2.97-.75,4.24-3.73,14.1-9.84,9.28-2.43-1.92-.22-6.73,2.68-5.09,2.27,1.28.74,4.32-1.72,2.58-1.19-.85-.82.9.19,1.4,1.71.91,4.79-.65,6.24-3.41.58-1.1,1.12-3.05,1.73-5.86.31-1.41.33-1.91.53-1.92h0Zm.51,7.35c.5,3.07-1.8,8.44-5.07,9.23-2.5.61-5.6-1.05-5.38-2.59.06-.45.24.14,2.51.52,3.17.53,5.19-1.21,7.01-5.21.58-1.26.82-1.94.92-1.96h0Zm21.87.75c-.19.05-.41.25-.65.51-.42.46-1.27.56-2.21.04-1.13-.61-2.69-.32-3.22.12-.53.44-1.29.5-2.32-.21-.68-.47-1.07-.23-1.91.16-1.38.63-1.91.29-2.66-.3-.68-.51-1-.35-1.01.4,0,.35-.16,1.26-.3,1.87-.34,1.44-.55,1.98,1,1.27,1.02-.48,2.52-.95,4.07-.08,1.71.96,3.34.78,5.35-.08,1.75-.59,2.6-.6,3.58-.03,1.78,1.04,1.17.38.94-2.25-.1-1.15-.33-1.49-.65-1.41h0Zm-20.84,2.92c.18,0,.2.71.08,2.13-.58,5.26-4.63,8.19-9.4,5.64-2.09-1.21-1.81-2.07.25-1.31,3.28,1.21,6.6-.48,8.22-4.81.42-1.11.7-1.66.86-1.66h0Zm10.66,2.45c-.9-.08-.62.59.64,1.14,1.54.57,4.38.98,6.1-.19.51-.81-.54-.66-1.11-.52-2.06.51-3.47.28-4.32-.06-.57-.22-1.01-.34-1.31-.36h0Zm-23.63,4.25c3.06,3.81,3.46,4.55,6.1,8.87,19.27,33.23,25.44,75.23,12.77,113.35-3.48,10.52-8.38,21.24-13.87,29.86l-6.6.07,2.26-2.62-3.07.23-.19-1.74-2.33.76-1.12-2.62-2.11,5.99-12.23.03c28.64-28.28,34.28-62.55,28.94-90.06,0,0,2.39-1.52,2.73-2.41.08-.22.26-1.13.42-1.27.66-.44,1.18-.87,1.6-1.1.26-.14.69-.16.69-.16,0,0,1.14.89,1.75,1.49l.91-2.39,2.99.64s-1.15-1.4-1.66-2.13c-.89-1.28-1.53-2.17-1.53-2.17.52-1.31-.31-2.44-1.22-3.34.16-3.11-1.45-3.54-4.78-4.24.48-.42.64-.79.75-1.32l1.95,1.58.71-2.93,2.65.15-7.69-7.56c.04,2.13.14,4.29-.05,6.34-3.6-.2-7.16-1.38-7.21-1.15-5.29-12.66-13.35-23.36-21.86-31.72l8.5-4.15,2.41,4.67.59-2.65,2.11.38.35-1.7,2.33-.33-2.57-2.48,6.55-2.18Zm50.63,5.46c.32.42.59.44,1.02.82l-.87.63c.04-.59-.01-.9-.15-1.45Zm-56.57,1.56c-.72,0-1.31.6-1.31,1.33s.59,1.33,1.31,1.33,1.3-.59,1.3-1.33-.58-1.33-1.3-1.33Zm7.09.21c-.72,0-1.31.59-1.31,1.33s.59,1.33,1.31,1.33,1.31-.6,1.31-1.33-.59-1.33-1.31-1.33Zm-22.85.97c4.21,3.56,8.08,8.19,12.78,15.44l-.1.98,1.43.54s7.81,10.44,7.4,15.09c-2.68.57-5.13-.17-9.93,4.39-2.26-1.24-3.6-.84-5.95-.15,0,0,.04,1.03.85,1.38,1.56-1.86,3.26-1,4.18-.53-.33.14-1.18,10.52.47,12.73,1.24,3.52-2.01,2.85-4.27,1.99l.65,16.48c7.43-8.61,23.11-14.35,22-13.73,7.87,42.26-10.85,70.45-30.44,91.12l10.27.06s-8.85,14.43-9.51,18.42c.5,1.33,1.89,4.07-.46,6-.8.89-.88,4.91-.88,4.91-5.4.19-10.08-1.72-16.31.5-.64.22-.78-3.44-.82-4.11-3.48-3.13-.29-8.52.18-8.12-2.81-8.38-8.45-18.39-8.45-18.39,0,0-3.4-.19-5.47-.31-.43-.37-.71-10.14-.27-10.37,15.39,1.24,39.47-.18,39.47-.18l-6.46-9.17c-7.96-3.15-18.9,2.23-18.37,2.52.03.03-8.74-4.86-14.83-4.16l.2-4.79c5.4-.02,10.39,1,14.74,3.61l7.39-2.8-22.66-24.16.26-3.98c7.39,6.94,19.5,20.38,19.5,20.38l.02-50.71-19.48-.05c-.24-12.68-1.01-23.55-.85-35.67,9.42-9.36,33.72-25.12,33.72-25.12h0Zm16.65,1.42l2.27,10.11,1.52-1.92,2.34.75.16-2.33,2.13-.75-8.43-5.86Zm77.43,1.68c-.72,0-1.31.59-1.31,1.33s.59,1.33,1.31,1.33,1.31-.59,1.31-1.33-.59-1.33-1.31-1.33Zm-6.13.83c-.72,0-1.31.6-1.31,1.33s.59,1.33,1.31,1.33,1.31-.59,1.31-1.33-.58-1.33-1.31-1.33Zm-75.08,1.18c-.72,0-1.31.59-1.31,1.33s.59,1.33,1.31,1.33,1.31-.6,1.31-1.33-.59-1.33-1.31-1.33Zm79.78.8l-9.11,8.71,2.55-.11.46,2.54,2.29-1.06,1.85,1.74,1.96-11.81Zm3.88,2.93c-.72,0-1.31.6-1.31,1.33s.59,1.33,1.31,1.33,1.31-.59,1.31-1.33-.59-1.33-1.31-1.33Zm-72.48,1.72c-.72,0-1.31.59-1.31,1.33s.59,1.33,1.31,1.33,1.31-.6,1.31-1.33-.59-1.33-1.31-1.33Zm5.67,1.11c-.72,0-1.31.59-1.31,1.33s.59,1.33,1.31,1.33,1.31-.6,1.31-1.33-.59-1.33-1.31-1.33Zm-5.14,1.98c.25,3.56.66,7.78.75,11.34l1.73-1.73,2,.82.71-2.19,2.17-.11-7.36-8.14Zm56.12,2.97c-.72,0-1.31.59-1.31,1.33s.59,1.33,1.31,1.33,1.31-.6,1.31-1.33-.59-1.33-1.31-1.33Zm-59.87.23c-.72,0-1.31.59-1.31,1.33s.59,1.33,1.31,1.33,1.31-.6,1.31-1.33-.59-1.33-1.31-1.33Zm65.07.32c-.72,0-1.31.6-1.31,1.33s.69,1.33,1.31,1.33,1.31-.59,1.31-1.33-.59-1.33-1.31-1.33Zm-.78,2.88l-7.55,7.89,2.47.24.78,2.24,1.58-1.36,1.92,1.43.8-10.44Zm4.15,1.69c-.72,0-1.31.59-1.31,1.33s.59,1.33,1.31,1.33,1.31-.6,1.31-1.33-.59-1.33-1.31-1.33Zm-59.57,2.46c-.72,0-1.31.59-1.31,1.33s.59,1.33,1.31,1.33,1.31-.7,1.31-1.33-.59-1.33-1.31-1.33Zm-32.28,1.08l-1.91,1.48c1.57.62,2.46,1.96,2.46,1.96,0,0-.21-.79-.55-3.45Zm38.47.89c-.72,0-1.31.6-1.31,1.33s.59,1.33,1.31,1.33,1.31-.59,1.31-1.33-.58-1.33-1.31-1.33Zm-9.38,1.9c-.72,0-1.31.59-1.31,1.33s.59,1.33,1.31,1.33,1.31-.6,1.31-1.33-.59-1.33-1.31-1.33Zm54.1,2.68c-.72,0-1.31.6-1.31,1.33s.59,1.33,1.31,1.33,1.31-.59,1.31-1.33-.59-1.33-1.31-1.33Zm-5.17,1.95c-.72,0-1.31.59-1.31,1.33s.59,1.33,1.31,1.33,1.31-.59,1.31-1.33-.59-1.33-1.31-1.33Zm52.76.33l2.72,3.01v43.97l-2.66.05-.06-47.03Zm-105.94.31h0c2.22,0,4.69.33,5.48,1.7,1.22,1.54-1.38.94-3.57,1.28-2.02.25-.85.67,2.01.84,3.94.24,5.49.34,6.07,1.26.33.86.09,1.44.16,2.36l-4.47-.21c-2.32,0-3.68-.04-4.37.14-.55.14-.39.59-.2.78.1.1,1.88.12,3.95.18,5.6.15,6.83.34,7.23,2.17.3,1.68-1.05,1.42-6.8.79-2.56-.21-3.93.4-4.3.58-.63.31,1.83.62,2.63.49.5-.08,4.19.33,5.55.58,1.14.18.14.14-.44.85-.38.59-.26,1.26-.86,1.59-.73.39-2.19.39-4.79.39-2.98,0-4.37.74-.28.92,2.64.12,2.79.07,3.02.85.6,1.91-.67,2.25-3.37,2.68-1.29.22-3.2.1-4.64-.01-5.7-.41-7.68-1.79-8.45-4.35-2.88-9.53.67-15.34,8.98-15.81.46-.03.96-.04,1.47-.04h0Zm57.63.43l-6.44,9.52,2.48-.98,1.18,2.58,1.99-1.44,1.99,1.24-1.19-10.92Zm-49.88.3c.65.07,1.32.4,1.71.86.33.41.19.73-.36,1.03-.47.26-1.26.07-1.79-.16-.69-.3-.76-1.56-.19-1.7.2-.04.42-.05.64-.03h0Zm-44.93.37l-2.96,3.27s2.72-.99,4.18-1.57l-1.22-1.7Zm98.83,1.46c-.72,0-1.31.59-1.31,1.33s.59,1.33,1.31,1.33,1.31-.6,1.31-1.33-.59-1.33-1.31-1.33Zm47.94,1.15s3.28,3.29,4.63,4.67h-1.22s.03,2.59.03,2.59l3.88.04,2.13,2.12-5.93-.03v2.65h7.34s-.04-1.12-.04-1.12l2.9,2.67.34,29.48h-3.21s0-.4,0-.4l-7.38-.02c.02,1,0,.39,0,.39h-3.39c-.04-14.36-.02-28.7-.09-43.04Zm-96.77,1.58c.22.02.43.08.65.21.43.24.43.81.19,1.41-.2.64-.65.64-1.42.32-1.13-.47-.97-1.74-.11-1.88.25-.06.47-.08.68-.06h0Zm5.25,2.18c-.72,0-1.31.59-1.31,1.33s.59,1.33,1.31,1.33,1.31-.6,1.31-1.33-.59-1.33-1.31-1.33Zm-4.61,1.02c.51.03,1.02.3,1.31.59.72.73.46,1.42-.34,1.84-.9.47-1.53-.17-1.79-1.25-.18-.73.24-1.15.82-1.18Zm41.11,3.49c-.73,0-1.31.6-1.31,1.34s.59,1.34,1.31,1.34,1.32-.6,1.32-1.34-.59-1.34-1.32-1.34Zm-43.28,1.62c1.13.04,1.47,1.21.88,1.84-.85.85-2.16.49-2.35-.33-.06-.92.68-1.51,1.47-1.51Zm38.59.54c-.72,0-1.31.6-1.31,1.33s.59,1.33,1.31,1.33,1.31-.59,1.31-1.33-.58-1.33-1.31-1.33Zm4.65.88l-5.86,9.99,2.37-.95,1.44,1.93,1.48-1.32,2.24,1.11-1.67-10.76Zm-45.99,1.67c1.05,0,1.34.84.58,1.61-.52.52-1.1.54-1.7.05-.91-.73-.21-1.67,1.12-1.66Zm50.1.12c-.72,0-1.31.59-1.31,1.33s.59,1.33,1.31,1.33,1.31-.6,1.31-1.33-.59-1.33-1.31-1.33Zm-42.67,1.05c-.72,0-1.26.59-1.26,1.33s.59,1.33,1.31,1.33c.72,0,1.31-.6,1.31-1.33s-.64-1.33-1.36-1.33Zm97.1.29v2.82h7.39s0-2.81,0-2.81h-7.39Zm-97.01,2.51l-2.83,10.5,2.37-1.37,1.48,1.53,1.37-1.72,2.47.66-4.86-9.6Zm5.03,1.14c-.72,0-1.31.59-1.31,1.33s.59,1.33,1.31,1.33,1.31-.59,1.31-1.33-.58-1.33-1.31-1.33Zm-9.22.53c-.72,0-1.31.59-1.31,1.33s.59,1.33,1.31,1.33,1.31-.6,1.31-1.33-.59-1.33-1.31-1.33Zm101.19.83v2.54h7.39v-2.52l-7.39-.02Zm-60.78,3.32c-.72,0-1.31.6-1.31,1.33s.59,1.33,1.31,1.33,1.31-.59,1.31-1.33-.59-1.33-1.31-1.33Zm60.78,1.42v2.73h7.39v-2.73h-7.39Zm-152.29.33l2.6.05.04,47.63-2.53-2.72-.11-44.96Zm-1.08.09l-.13,43.53-4.92-5.26,1.31-.02v-2.97l-4.26-.03-1.82-1.8h6.08s0-2.9,0-2.9l-7.21-.03v1.76l-3.54-3.84.06-28.42,3.5.05v.31l7.24.03v-.41h3.7Zm92.78,1.33l-3.94,10.36,2.48-1.43,1.28,1.28,1.33-1.22,2.25,1.12-3.4-10.11Zm-103.72.5v2.79h7.24v-2.79h-7.24Zm108.19.56c-.72,0-1.31.6-1.31,1.33s.59,1.33,1.31,1.33,1.31-.59,1.31-1.33-.59-1.33-1.31-1.33Zm-8.91.15c-.72,0-1.31.6-1.31,1.33s.59,1.33,1.31,1.33,1.31-.59,1.31-1.33-.59-1.33-1.31-1.33Zm-30.82.49c-.72,0-1.31.6-1.31,1.33s.59,1.33,1.31,1.33,1.31-.59,1.31-1.33-.59-1.33-1.31-1.33Zm95.86,1.08v2.93h7.39v-2.93h-7.39Zm-96.02,1.65l-1.09,1.72-2.51-.87,3.42,10.51,4.29-10.96-2.46,1.43-1.64-1.83Zm-68.29.76v2.78h7.24v-2.78h-7.24Zm164.31,2.49v2.9h7.38v-2.9h-7.38Zm-164.31,2.43v2.79h7.24v-2.78h-7.24Zm103.63.52c-.73,0-1.32.6-1.32,1.34s.59,1.34,1.32,1.34,1.31-.6,1.31-1.34-.59-1.34-1.31-1.34Zm-39.43,1.39c-.73,0-1.32.6-1.32,1.34s.59,1.34,1.32,1.34,1.31-.6,1.31-1.34-.59-1.34-1.31-1.34Zm8.41.25c-.73,0-1.32.6-1.32,1.34s.59,1.34,1.32,1.34,1.31-.6,1.31-1.34-.59-1.34-1.31-1.34Zm91.71.19v2.62h7.38v-2.62h-7.38Zm-60.7,1.22l-1.57,1.67-2.25-.65,5.1,9.66,2.58-10.4-2.25,1.46-1.61-1.75Zm-103.62.98v3.16h7.24v-3.16h-7.24Zm68.34,1.43c-.73,0-1.32.6-1.32,1.34s.59,1.34,1.32,1.34,1.31-.6,1.31-1.34-.59-1.34-1.31-1.34Zm-.09,2.75c-.56.4-.81,1.11-1.39,1.48l-2.39-1.04,1.44,13.16,6.65-12.44-3.04.52-1.26-1.69Zm-68.25.43v3.29h7.24v-3.29h-7.24Zm108.75,1.53c-.73,0-1.32.6-1.32,1.34s.59,1.34,1.32,1.34,1.31-.6,1.31-1.34-.59-1.34-1.31-1.34Zm-8.5.15c-.73,0-1.32.6-1.32,1.34s.59,1.34,1.32,1.34,1.31-.6,1.31-1.34-.59-1.34-1.31-1.34Zm-100.25,3.09v3.29h7.24v-3.29h-7.24Zm104.99.73c-.73,0-1.32.6-1.32,1.34s.59,1.34,1.32,1.34,1.31-.6,1.31-1.34-.59-1.34-1.31-1.34Zm17.53.2c1.6-.01,3.24.12,4.92.41,3.65.63,4.18,3.81,4.22,9.97.03,6.34-1.83,8.82-6.37,10.04-1.66.45-7.85.03-9.6-.54-.03-.54-.9-1.8-1.1-2.77.45-.13,1.86.07,4.54.33,2.17.21,2.73-.15,2.04-.58-4.09-.98-6.87-.71-10.79-1.48-.05-1.19-1.01-2.58-1.01-2.58.21-.09,6.05.55,9.13.45,1.36-.06.54-.7-.01-.82-3.59-.52-5.92-.44-9.72-.93.1-.99-.39-1.89-1.01-2.64,0,0,1.92-.02,5.88.04,2.09.03,3.9.12,4.81.09,1.53,0,1.39-.73.07-.83-1.62-.18-7.99-.22-7.99-.22.47-.22,1.09-3.12.85-3.15,0,0,1.65.03,2.7-.01,5.1-.19,5.98-.11,6.08-.31.67-.62-1.14-.87-3.03-.86-.81,0-2,.18-1.99-.27.01-.41-.01-1.26-.43-2.14,2.56-.78,5.13-1.2,7.8-1.22h0Zm-59.69,1.53c-.73,0-1.31.6-1.31,1.34s.59,1.34,1.31,1.34,1.32-.6,1.32-1.34-.59-1.34-1.32-1.34Zm50.23.28c.87,0,1.14,1.59.33,1.84-1.25.38-1.93.08-1.89-.67.03-.43,1-1.17,1.56-1.17Zm-41.65,1.38c-.73,0-1.32.6-1.32,1.34s.59,1.34,1.32,1.34,1.31-.6,1.31-1.34-.59-1.34-1.31-1.34Zm37.45,1.5c2.98-.03,1.44,4.09-.85,2.6-1.13-.74-.34-2.59.85-2.6Zm-47.06,3.29c-.06-.01-.09.06-.09.21l.69,12.5,7.16-11.68-2.84,1.07-1.22-1.89-1.54,1.23c-.63.51-1.83-1.41-2.16-1.45h0Zm44.3,1.28c1.34.19,2.23,1.55,1.3,2.2-2.09.93-3.2-2.11-1.3-2.2Zm-3.21,2.74c-.73,0-1.31.6-1.31,1.34s.59,1.34,1.31,1.34,1.32-.6,1.32-1.34-.59-1.34-1.32-1.34Zm5.06,1.13c1.14-.02,1.67,1.66.55,2.19-.24.11-.95.19-1.27-.04-1.33-1-.64-2.04.72-2.14h0Zm-49.24,2.06c-.73,0-1.32.6-1.32,1.34s.59,1.34,1.32,1.34,1.31-.6,1.31-1.34-.59-1.34-1.31-1.34Zm100.45,1.67l-4.87,1.66v2.34c2.13-.69,3.34-2.44,4.88-4.01h0Zm-46.58,1c.33-.01.65.03.91.13.85.36,1.08,1.52.35,1.92-.57.31-2.13.26-2.5-.25-.74-1.2.27-1.76,1.25-1.8Zm-45.04.59c-.73,0-1.32.6-1.32,1.34s.59,1.34,1.32,1.34,1.31-.6,1.31-1.34-.59-1.34-1.31-1.34Zm-5.39,2.31c-.64,0-1.16.53-1.16,1.18s.52,1.18,1.16,1.18,1.16-.53,1.16-1.18-.52-1.18-1.16-1.18Zm54.67,1.99c-.73,0-1.32.6-1.32,1.34s.59,1.34,1.32,1.34,1.31-.6,1.31-1.34-.59-1.34-1.31-1.34Zm-58.9.07l-.06,11.81,7.75-9.67-2.69.59-1.15-2.39-1.66,1.1-2.19-1.44Zm49.2,2.72c-.73,0-1.31.6-1.31,1.34s.59,1.34,1.31,1.34,1.32-.6,1.32-1.34-.59-1.34-1.32-1.34Zm38.79.05c-.13.9-.72,1.54-1.27,2.2l3.61-2.05-2.34-.16Zm-33.54,1.57c-.73,0-1.32.6-1.32,1.34s.59,1.34,1.32,1.34,1.31-.6,1.31-1.34-.59-1.34-1.31-1.34Zm4.43,1.44l-1.57,2.28-2.07-.68-.61,2.17-2.49-.09,8.08,7.15-1.34-10.83Zm-62.96.91c-.73,0-1.32.6-1.32,1.34s.59,1.34,1.32,1.34,1.31-.6,1.31-1.34-.59-1.34-1.31-1.34Zm120.9,3.21v97.09h-45.04l-18.91-26.61c-.39-4.27-.16-8.66,1.61-14.4,1.85,1.3,5.9.59,5.76-4.45-.09-3.3-5.1-4.99-7.6-2.51.13-3.19,1.4-7.99,3.24-9.41,1.26,1.16,1.54,2.89,4.4,2.41,2.03-.34,3.63-2.64,2.75-5.33-.23-.68-.35-1.51-.34-2.06,0-.55.05-1.54-.05-2.09-.14-.73-.19-1.52-.19-1.52,21.05-4.87,39.41-17.82,54.38-31.13h0Zm-111.69.39c-.73,0-1.31.6-1.31,1.34s.59,1.34,1.31,1.34,1.31-.6,1.31-1.34-.59-1.34-1.31-1.34Zm-6.2,1.31c-.73,0-1.31.6-1.31,1.34s.59,1.34,1.31,1.34,1.32-.6,1.32-1.34-.59-1.34-1.32-1.34Zm65.07.64c-.73,0-1.31.6-1.31,1.34s.59,1.34,1.31,1.34,1.32-.6,1.32-1.34-.59-1.34-1.32-1.34Zm-69.79,1.42l-2.05,12.44,8.95-9.3-2.43-.05-.48-2.12-2.28.75-1.71-1.72Zm60.87,2.65c-.73,0-1.32.6-1.32,1.34s.59,1.34,1.32,1.34,1.31-.6,1.31-1.34-.59-1.34-1.31-1.34Zm5.8,1.45c-.73,0-1.32.6-1.32,1.34s.59,1.34,1.32,1.34,1.31-.6,1.31-1.34-.59-1.34-1.31-1.34Zm-72.25,1.62c-.73,0-1.32.6-1.32,1.34s.59,1.34,1.32,1.34,1.31-.6,1.31-1.34-.59-1.34-1.31-1.34Zm77.49,1.01l-2.14,1.65-1.97-1.22-.46,2.64-1.68.89,7.05,5.02-.79-8.98Zm5.21,3.56c-.73,0-1.31.6-1.31,1.34s.59,1.34,1.31,1.34,1.32-.6,1.32-1.34-.59-1.34-1.32-1.34Zm-74.36.45c-.73,0-1.31.6-1.31,1.34s.59,1.34,1.31,1.34,1.32-.6,1.32-1.34-.59-1.34-1.32-1.34Zm-5.84,1.74c-.73,0-1.31.6-1.31,1.34s.59,1.34,1.31,1.34,1.31-.6,1.31-1.34-.59-1.34-1.31-1.34Zm76.84,3.53c-.73,0-1.32.6-1.32,1.34s.59,1.34,1.32,1.34,1.31-.6,1.31-1.34-.59-1.34-1.31-1.34Zm-5.51,1.2c-.73,0-1.31.6-1.31,1.34s.59,1.34,1.31,1.34,1.32-.6,1.32-1.34-.59-1.34-1.32-1.34Zm-50.91,1.9s.01.01.02.01c.15.16.6,1.38.2,2-.21-.1-1.15-1-.91-1.3.11-.14.57-.71.69-.71h0Zm-29.84,2.1s1.27.07,1.55.19c0,.33-.31,1.05-.65,1.86-1.72,4.04-2.21,9.06-.12,13.27,2.92,5.89,10.42,20.74,9.71,20.94h-16.92l-.02-2.64c4.8-.19,5.55-3.17,4.35-5.63-.83-1.71-3.15-2.68-5.28-1.79-3.07,1.29-3.26,2.83-4.35,5.22l-.49-.63c.92-1.24,1.23-2.44,1.15-3.8-.07-1.34-.11-.97.35-1.7,2.67-2.92.92-6.71.92-6.71-.32-2.33,7.99-17.21,9.78-18.57h0Zm-42.34.32h0c1.1,0,2.26.06,3.31.06,4.85,3.93,9.06,17.15,8.8,17.35-.23-.19-3.91,4.25.06,8.38,0,0-.24,2.48.52,3.76-1.75,3.7-2.06,3.98-2.21,7.01-.03-.01-.3-.04-1.93-.04-8.04-.04-8.42,10.35-.38,10.92,1.1.08,1.48-.17,2.14.49.67.85,1.28,1.7,2.43,1.26.27,0,.71.26,1.17.7.77,1.06,1.89,1.82,3.5,1.53.57.06,1.15.22,1.76.45.7.56,1.93.99,2.88.57.28-.13.83-.17,1.28.04,1.16.54,2.35.2,2.78-.14,1.08-.57,1.32.34,1.27,1.18-.55,1.92.66,3.73,2.49,4.43,3.86,1.21,5.81-1.2,6.64-5.99.21-1.05.39-1.95.39-1.95h12.93l-18.57,21.78h-32.32v-71.76c.35-.02.71-.03,1.08-.03h0Zm116.38,3.4c1.08,0,2.25.23,3.19.56,2.36.92,2.55,2.62.2,1.88-3.81-1.19-7.92,1.17-8.78,4.56-.16.62-.33,1.1-.42,1.22-.53.66-.51.06-.35-1.82.31-3.65,2.85-6.29,6.16-6.4Zm1.36,3.19c1.12-.08,2.3.19,3.47.93.88.99.62,1.64-.06,1.61-3.2-1.36-7.26.29-8.85,4.39-.98,2.52-1.15,1.17-.72-.78.03-2.62,2.8-5.91,6.15-6.14h0Zm-21.56.92c-1.39.01-2.72.29-3.39.93-1.28,1.23-.21,1.25,2.1.43,1.13-.4,3.3-.22,4.69.27,1.16.41,1.57.58,1.51.21-.06-1.11-2.58-1.86-4.91-1.85Zm22.67,2.43c1.44-.02,2.93.65,3.38,1.68.59,1.37.21,3.78-1.85,4.02-2.42.29-3.67-3.84.75-3.12-.57-1.65-2.56-1.19-3.53-.78-2,.89-3.36,2.88-4.58,6.54-.36,1.09-.63,1.65-.77,1.54-.23-.18-.34-1.87.19-3.9.96-3.66,3.31-5.88,5.79-5.95.2-.03.41-.05.61-.05h0Zm-31.27.09c-.21.05.16.82.75,2.01.33.66.55,1.52.55,1.69,0,.65.49.81,1.21.39.83-.48.96-.84,2.14-.31,1.11.59,2.2.97,3.22.37.55-.33.91-.31,1.98-.03,1.27.34,1.44.39,2.38-.01,1.21-.51,2.65-.16,2.95.18.29.33.12-.13.78-1.68.3-.72.74-1.59.62-1.83-.16-.33-1.26.03-2.46.35-.65.17-1.27.12-2.51-.24-2.62-.75-4.28-.53-5.92.26-.92.44-3.22-.17-5.54-1.13-.06-.02-.1-.03-.13-.03h0Zm5.16,7.14c-1.18-.02-2.26.74-2.75,1.78-.57,1.44.4,4.05,1.88,4.27,1.31.2,1.27-.62.6-.84-1-.33-2.18-1.79-1.42-3.06.52-.87,2.11-.87,3.21.21,2.22,2.16,4.76,2.31,5.25.43.15-.75-.42-1.75-1.29-1.48-.67.21-2.22.27-3.52-.62-.67-.46-1.34-.68-1.96-.69h0Zm23.44,6.87c5.67-.35,3.23,7.52-.04,5.5-1.17-.72-.65-3.37,2.46-3.32-3.05-2.41-5.12.53-4.38,3.82-.68,1.07-.87,3.12-1.32,4.28-.69,1.32-1.23-2.14-.54-5.49.67-3.24,1.81-4.67,3.82-4.79Zm-33.18.18s1.16,1.4,1.34,1.54c3.53,2.82,5.25,4.55,2.41,3.63-4.61-1.12-5.8.21-9.31,1.78-.65.31-.83.12-1.6-.12-3.09-.93-2.86,1.04.36,2.81,4.87,2.68,8.89,3.28,12.67,1.28.98-.52,1.72-.86,1.72-.86,0,0-.07.99-1.42,1.84-3.64,2.16-7.47,1.98-13.12-1.35-.95-.62-1.87-1.1-2.96-1.52.77,1.16,1.4,1.63,2.51,2.29,4.62,2.67,10.53,4.76,15.41.73,1.02-.92,1.23-1.4,2.01-1,2.08,1.05,1.4-.78-.02-2.51-.5-.61-.87-1.1-.84-1.52.12-1.5-.7-1.49-1.44-1.46-.89.04-.79-.26-1.88-1.48-.88-.98-1.54-1.62-2.33-2.32-.94-1.02-2.16-1.36-3.52-1.78h0Zm-45.97,2.23c3.35.36,4.29,5.52-.06,5.84-1.96.16-2.41.25-1.93,4.33.09.77.43,3.07.52,3.93,1.16,10.69.22,15.42-2.71,16.73-1.05.47-2.09.3-2.87-.01-1.86-.75-2.62-3.04-1.27-5.77.36-.73.8-1.87.98-2.53.18-.66.57-2.09.88-3.2.74-2.68,1.14-6.76.7-10.66-.3-2.65-.23-2.87.42-4.65,1.42-2.64,2.35-3.99,5.34-4.02h0Zm69.09,2.48c1.64-.14,3.39,1.15,2.95,3.13h0s-.92.05-.92.05c-1.11-3.74-3.41-2.53-3.8.09h-.78c.06-2.19,1.27-3.16,2.54-3.27h0Zm-85.11.25c.62,0,1.25.04,1.87.09h0c6.26.63,7.41,2.21,7.9,9.89.05,3.72-.2,5.97-.76,6.81-.94.46-1.84-.4-3.17.46-.73.46-.59.51-.91.01-.3-.47.05-2.43.53-4,.46-1.49-.33-2.36-2.4-4.28-.56-.52-1.05-1.24-1.56-2.27-1.08-2.94-1.63-1.65-.73.89.44,1.09.55,1.63-.8,1.16-.79-.28-1.49.05-2.1.38-1.72.44-3.2-.51-1.71-1.08.91-.35,2.53-.86,3.04-.85.37,0,.54-.08.54-.26,0-.74-3.31-.66-5.84.23-3.11,1.45-3.28,1.19-3-1.07.64-5.01,4.73-6.18,9.09-6.13h0Zm63.13.59c1.6-.07,3.07,1.79,2.78,3.38l-.76-.05c-.36-2.98-3.13-3.11-3.87.23l-1.1.03c.7-2.58,1.86-3.53,2.95-3.58h0Zm18.62.06c.63.38.19,1.41-.48,1.62-.25.06-1.06-.51-.87-.85.36-.42.91-.64,1.35-.77Zm7.18.51c.44,0,1.01.23,1.09.83.02.88-.63.7-.85.62-.44-.41-.6-1.42-.23-1.45Zm-21.96.71c1.17.14,1.6,1.64.27,1.73-.59.12-.62-1.37-.27-1.73Zm-7.14.16c.14,0-.08,1.23-.37,1.41-.58.36-1.32-.03-1.29-.4.07-.89,1.12-1.02,1.66-1.01h0Zm20.49,2.99c2.24.86,5.14,1.7,7.88.73,1-.38,1.8-.84,1.79-.41,0,.45-.79,1.13-2.22,1.54-2.95.84-5.08.51-7.1-1.03-.57-.44-.77-.84-.35-.83Zm-.92,1.28c3.63,2.15,6.9,2.37,9.85.8,1.19-.42,1.23-.04,1.23.74-5.31,4.74-11.95-.18-11.08-1.54Zm-92.56,1.6c1.1,0,2.3.49,3.51,1.67-.9,1.84-1.38,6.39-2.85,7.73-8.14-.48-5.41-9.43-.66-9.4Zm66.21.05c-.28,0-.52.05-.67.17-.45.37.07,1.71.91,2.08,7.67,3.35,11.6,3.75,15.96,2.21,1.81-.64,2.79-2.14,2.88-2.87.11-.87-1.06-.95-3.1-.03-6.22,2.48-10.12.55-15.14-1.37-.26-.12-.57-.19-.84-.19h0Zm-38.07.25h8.13l-.03,11.2h-7.16l-.05-1.52h5.38v-8.11h-6.22l-.05-1.57Zm9.85,0h7.68l.45,1.17h-8.14v-1.17Zm-29.82,1.55c1.23.01,1.34,1.22.42,2.06-.48.44-1.31.53-1.66.18-.77-.79.01-2.24,1.24-2.23Zm3.78.21c1.1.01,1.46,1.05.63,1.89-.57.52-.86.56-1.37.18-.64-.57-.31-2.03.74-2.07Zm-7.19.28c.29-.01.54.02.73.31.67,1.39-1.53,2.36-1.99,1.32-.34-.84.52-1.6,1.26-1.63Zm41.64.15l.6,1.46-9,.04v-1.46l8.41-.04Zm-30.5.42c1.25.15,1.06,1.43.48,2-1,.94-1.97.63-1.71-.63.16-.79.66-1.36,1.23-1.38h0Zm15.32.98l2.06,2.06-2.06,2.06-2.05-2.06,2.05-2.06Zm-21.89.85c.23.09-.01.88-.18,2.37-.44,1.6.5,4.83.22,5.17-.61.74-1.6.36-2.03.11-1.52-.99-1.61-6.79-.15-7.14.94.48,1.58-.38,2.01-.5.05-.02.1-.02.13,0h0Zm28.67.18h9.27l.47,1.06-.35.66h-9.39s0-1.72,0-1.72Zm-25.24.2c.39,0,.59.85.33,1.82-.47,1.76-.45,4.15-.12,5.19.22.72.43,1.21.3,1.41-.44.71-1.8.23-2.38-.72-1.41-2.66-1.18-7.61.5-7.23.63.32.99-.18,1.37-.48h0Zm-7.96.14c.36.01.65.14.39.53-.41.68-.12,4.45-.16,4.76-.05.39-1.12.19-1.71-.08-1.46-.69-1.06-2.46-.78-3.88.32-1.12,1.02-1.2,1.88-1.31.12-.01.25-.02.37-.02h0Zm12.07.73c.46-.02.53.33.42,1.73-.08,1.09-.12,2.03.05,3.06.37,2.19.42,2.79-.12,3.22-.64.51-1.51.36-2.19-.25-1.38-1.11-1.47-6.55-.39-7.02,1.01.25,1.64-.55,2.22-.74h0Zm29.94,1.64h.01s-1.52,1.57-1.52,1.57h-7.3v-1.55h8.81Zm-26.39,2.31c1.14.01.95,2.07.34,3.35-.52.78-.9.86-1.68.13-.89-.83.17-3.49,1.34-3.48h0Zm23.97.36l-1.03,1.17h-5.37s0-1.16,0-1.16h6.4Z"/>
    <path id="uuid-b741a639-2fbc-486b-b9a2-70fe430dfaff" data-name="path3872-3-7-5" class="uuid-90d8bf86-a770-4c61-818b-a3731e948562" d="m53.05,255.84l-9.18-7.09c10.59-.24,21.45.01,32.03.2l-10.57,7.65c-1.48-2.6-5.47-7.77-6.51-7.47-.76-.15-4.32,4.45-5.77,6.71Zm77.63-2.58c-.24-.15-.4-.5-.58-1.64-2.64-12.52-15.63-11.63-15.54-11.26-.1-.49,16.14-15.39,25.68-27.08,2.88,8.93,11.63,29.34,11.26,29.26,0,0-2.53.02-9.09-.14-5.97,2.74-10.12,5.41-9.93,9.27-.03,1.36-.36,1.93-.8,1.81-.36-.04-.68-.14-1.01-.21h0Zm29.59-40.18c8.45-.13,10.04-4.33,11-4.83,5.55-.93,8.98,2.74,11.41,6.67,3.1,1.9,2.72.15,3.36-2.81l7.73-2.3v2.5c-2.4,1.31-5.94,4.65-5.94,4.65l-2.35-.14-1.35,1.83c-5.37,2.95-10.64,6.47-16.3,8.75,0,0-6.78-8.91-7.56-14.31h0Zm-105.24.79l-.09-49.49c3.49-.25,9.93-.22,9.93-.22,2.69-4.82,6.36-7.09,10.14-9.89.53,6.1.73,11.93.61,18.03-10.01,12.41-15.57,27.69-9.4,50.53l-3.7-.42-7.49-8.54Zm55.31,2.77c2.85-10.32,5.06-20.8,5.98-31.61l19.06-.29.38,6.63-25.42,25.27Zm64.89-22.54l-.35-18.52c13.91-16.88,14.73-31.61,9.57-50.22,4.59,1.07,6.96,4.71,11.34,9.73v48.29c-3.04.46-10.58.91-10.58.91-.23,2.26-6.6,7.67-9.97,9.81h0Zm-58.89-29.19l-.85-8.16,24.76-24.03c-2.04,10.41-4.52,21.11-5.24,32.19h-18.68Zm-41.08-25.5c-1.77,1.18-8.28-5.7-9.35-10.33,1.63-2.24,15.97-9.38,15.97-9.38,0,0,8.38,10.93,8.04,15.48-3.72,1.01-6.95,1.29-9.77,4.37-1.62.15-2.18-1.7-4.88-.15h0Zm-11.31-9.24c1.99.33.72,3.06.41,5.06l-10.54,3.17c3.62-3.14,6.19-5.81,10.13-8.24h0Zm34.31-24.16c2.17-.07,4.42.84,6.09.16.62-.25,1.87-.63,3.24-.37,3.15.99,4.25-2.54,6.26-2.55,2.6.01,4.04-1.84,4.06-5.54.01-1.6.14-1.78.44-1.94.89-.48,1.83.19,1.95,1.07,1.86,6.81,6.57,12.94,13.99,12.45-5.91,6.12-23.88,24.93-23.88,24.93-3.24-10.02-7.54-19.35-12.15-28.21h0Zm76.46-5.87l10.82-7.98,6.48,8.01,5.6-7.63c3.29,2.4,10.78,7.74,10.78,7.74,0,0-22.45.34-33.69-.14h0Z"/>
    <path id="uuid-7c20c269-4146-4da7-b932-63f15fe01207" data-name="path3870-4-7-1" class="uuid-7bab36ce-b1f8-41ee-9af5-c513e5733f60" d="m180.86,27.77l-99.51.65,19.34,26.25c20.55-4.25,38.43-1.49,56.99,1.8l23.18-28.7Zm-2.54,1.33l-6.62,8.36c-1.83-1.68-5.92-1.08-5.34,2.61-5.08-2.68-6.15,4.68-1.84,4.38-.54,1.45-4.89,1.83-6.12-.8-4.47,2.54-5.83.08-7.02-1.53,5.68,3.92,8.44-4.13,2.19-4.59,2.46-5.05-6.3-7.34-5.79-.77-5.78-1.33-4.45,6.93-.21,5.24-2.76,4.21-7.28,1.38-8.19.56-2.32,1.77-6.72,1.83-7.95-1,6.43,1.31,5.72-7.29.02-5.31,3.04-6.61-7.08-5.72-4.62-.31-5.76-.22-4.48,6.99.57,5.77-4.49,4.3-7.86.29-8.57.21-2.66,2.98-7.33,1.35-7.98-.41,4.58,1.84,6.09-5.99.31-5.52,1.48-5.04-6.84-5.65-5,.07-4.58-1.05-4.83,6.4.3,5.24.32,2.04-3.72,4-6.21,2.02-1.82,1.01-3.82,2.59-6.19.26,3.61-.59,4.21-6.79-1.63-5.45.28-3.81-1.87-4.02-4.53-3.05l-4.26-5.86,94.67-.12Zm-70.23,7.05c1.11-.04,2.28.74,1.58,2.31-.32.71-.85,1.19-.72,1.73.1.44.55,1.06,1.18,1.89,4.98,6.59,15.07,6.37,18.11-.42.62-1.26.49-1.55-.25-2.62-.9-1.3.12-2.68,1.22-2.56,1.65.17,1.93,1.63,1.14,2.67-1.72,2.2,3,7.17,7.71,7.95,6.04,1,11.77-3.31,10.97-7.18-.05-.22-.16-.43-.2-.66-.64-3.24,4.41-1.69,2.59.38-.68.75-1.05.97-.96,1.79,1.47,6.85,9.67,7.57,13.58,5.46-5.04,8.35-13.02,1.92-14.43-3.92-7.08,10.38-15.58,8.22-20.32-.9.56.57-9.33,16.35-20.56.17-4.75,13.03-13.42,4.22-12.83,3.69,3.98,2.25,11.21,1.44,11.91-5.53.1-.86-.55-.91-.92-1.59-.94-1.72.11-2.59,1.22-2.63h0Zm-17.13,3.16c.9.09,1.05.47.9,1.4l-.9-1.4Zm77.22,2.45l-1.3,1.66c-.31-.81-.32-1.56,1.3-1.66Zm14.08.54c-4.36.14-5.27,8.2-5.23,10.29.05,2.81.56,9.86.75,10.91.26,1.47-.02,3.46-.53,3.67-2.7.63-3.06,4.06-1.11,5.48,1.53,1.06,4.04.52,5.14-1.54,1.52-2.92,1.93-5.59,1.36-8.99-.71-4.09-.18-9.2,1.2-11.59,2.48-4.3,2.44-7.11-.13-8-.53-.17-1.02-.24-1.47-.23Zm-.06.67c3.6.01,3.51,3.67,1.51,4.79-.77.35-1.72.43-2.67-.2-1.06-.62-.92.09.18.9,1.29.95,1.84.9,1.15,3.13-.65,2.08-.99,6.58-.63,9.14.97,7,.15,10.49-2.75,11.7-1.43.6-2.97-.25-3.37-1.41-.62-1.82.49-3.39,3.21-2.95,0,0,.19-.58-.52-6.65-.99-8.45-.6-14.34.93-16.41.82-1.1,1.87-2.05,2.95-2.04Zm24.44,8.71c-.84.01-1.75.24-2.67.77.17,2.59-.27,5.13-.36,7.7,4.41,2.69,8.07-.76,7.64-4.26-.26-2.11-2.08-4.23-4.61-4.21Zm.16.7c2.1.13,3.98,2.01,3.86,4.26-.1,2.62-2.57,4.05-4.78,3.59-.65-.1-1.54-.72-1.54-.72l.15-1.22s.86.28,1.61.29c4.52.12,3.16-5.53.42-4.87-.6.15-.68.42.02.62,2.14.98,1.34,2.35.6,2.9-.88.66-2.34-.24-2.59-.79l.15-3.55c.68-.4,1.41-.54,2.1-.5h0Zm-21.72,16.23s-.82.39-1.21.76c-.86.81-1.05,2.04-.62,3.25.19.53.16.62-.5,1.49-1.87,2.48-2.11,3.72-1.16,5.95.44,1.01.44,1.01.03,2.36-1.76,5.75-5.25,12.28-8.96,16.79-.57.7-.81,1.41-.81,1.41,0,0,.87-.04,1.35-.29,3.84-1.94,7.9-5.7,11.67-8.17-5.96,4.92-12.32,9.45-12.32,9.45h8.12c-1.57,2.36-37.42,33.18-28.18,88.03,11.11-2.81,16.28-7.46,22.2-12.85.05,4.43.15,16.35.19,16.35.11-.2-5.14-2.01-3.89,2.38.74,2.41,1.12,8.51-.2,11.96-.06.15.56.38.5.51-.07.16-.84.16-.84.16-2.77,4.48-6.96,4.32-10.67,4.45,1.71,5.96,4.94,10.84,7.33,14.75l1.1.15-.63.59c.49.91,1.81,2.62,1.81,2.62l.06.58s2.29,3.24,3.51,4.75c.08.1.28-.14.36-.04.68.83,1.5,1.76,2.19,2.59.05.06-.11.3-.05.36,1.3,1.44,3.87,4.36,3.87,4.36l.51-.13,2.02,2.31c16.72-7.73,34.19-24.81,34.01-24.78l.14-36.78-19.8-.06-.08-48.72,19.77,19.86-.13-5.7c-4.49-4.33-22.51-22.81-22.51-22.81,2.62-.37,5.17-1.24,7.63-2.6,4.3,2.4,8.88,3.85,14.14,3.14v-5.41c-5.98-.01-9.69-2.02-12.37-4.46l-3.69-.13c-6.82,5.27-11.65,2.83-16.83,1.79l-3.58-5.44h36.47v-12.61h-5.58l-3.62-2.72,4.2,1.81s-.07-.7-.91-2.03c-2.26-3.76-5.14-9.29-6.86-14.11-.83-2.45-.83-2.35-.13-3.79.97-1.97.76-4.36-.51-5.7-.9-.95-.87-1.15-.57-1.86,1.19-2.79-1.68-3.82-1.7-3.64-6.15,2.41-14.41-.07-14.26-.15h0Zm14.31,1.01c1.23-.01,1.36.54,1.36,1.47-.1,1.7-2.29,2.32-3.27,2.56-4.72,1.1-12.95.45-13.48-1.79-.39-1.64.62-2.56,3.97-1.74,5.39,1.18,8.72-.09,11.43-.5Zm-15.23,4.75c.49,0,1.08.5,1.24,1.33.14.71-.58,2.79-1.19,3.27-1.5,1.19-2.85-.66-1.85-2.67.58-1.16,1.16-1.93,1.79-1.93Zm16.1.23c.22.01.63.05.89.24,1.19.85,1.3,3.81.19,4.24-1.13.44-2.18-.76-2.17-2.65,0-1.15.43-1.85,1.1-1.83h0Zm-3.77.61c.24-.01.5.04.76.16.99.46,1.47,3.56.49,4.55-.76.77-2.4.72-2.88-.87-.57-1.9.32-3.78,1.63-3.85Zm-8.37.09c1.45.01,1.78,3.29.36,4.64-1.19,1.13-3,.02-2.43-2.22.28-1.12.94-2.34,2.07-2.42Zm4.12.52c2.12.37,1.94,5.65-.84,5.12-1.58-1.12-1.54-5.04.84-5.12Zm-9.28,5.66l3,.28c-.08-.05-4.77,10.09-8.97,12.77,2.31-3.9,4.33-8.56,5.97-13.05Zm17.99.06c1.75,4.75,3.55,9.57,5.94,14.42-3.63-3.56-6.85-9.03-9.82-14.17l3.88-.25Zm-14.1.46l1.99.02c.66,3.07,1.81,5.03,3.15,6.72,1.16-2,1.9-4.19,2.61-6.53l1.58-.02c.6.37-1.86,9.63-4.27,10.76-2.55-2.11-4.7-7.8-5.06-10.95Zm-.84,2.19c-.17.22,3.09,8.16,5.83,10.7,2.59-2.56,4.25-5.92,5.36-9.94l8.53,12.16-8.31-5.78c-1.66,2.8-3.42,5.48-5.54,7.7-2.28-2.51-4.26-5.48-6.33-8.31-3.21,2.42-5.46,5-9.62,7.25.02.09,8.16-8.92,10.09-13.79h0Zm-.8,8.64l5.8,7.2-15.45-.22,9.65-6.98Zm12.57.11l9.75,6.82-14.52.15,4.78-6.97Zm-77.66,3.35s.08.43.18.69c1.73,7.17,6.5,13.13,13.68,12.42l-23.6,23.97s-3.9-13.44-11.79-27.21c0,0,1.44.3,2.57.52,1.59.25,3.23-.27,4.25-.71.85-.36,2.05.16,2.66.35,1.62.31,2.73-.61,4.76-2.43.54-.48.75-.37,1.43-.36,2.54.01,4.17-2.21,3.88-5.65l-.13-1.53-.32,1.72c-.61,3.24-1.03,4.63-4.19,4.77-.76.03-1.05.56-2.26,1.61-1.69,1.48-2.89,1.6-4.08,1.02-1.22-.59-1.34-.24-2.49.32-1.32.64-3.25.56-4.98.06-2.42-.7-2.13-.47-2.13-.47,14.02,25.36,18.95,49.69,18.64,71.3-.44,30.79-11.04,55.64-20.34,70.62,0,0,1.59-.16,3.02-.38.69-.19,1.21,0,1.89.24.63.23,1.11.21,1.73.14.48-.06,1.67.01,2.43.12,1.73.25,1.84.02,3.72-1.83,5.33-5.26,4.99-5.07,8.85-4.94,5.8.19,10.43,4.08,12.37,10.38.24.8.56,1.92.61,1.92l-.38-1.67c-1.7-8.45-8.81-11.54-14.74-11.43l25.06-25.52c-.13.02,5.81,19.42,10.98,28.07.01.06-1.57-.69-4.45-.31-1.57.21-3.32,0-4.3-.17-1.27-.03-2.04.35-3.62,1.67-.66.57-1.25,1.19-2.53,1.74-3.05,1.31-4.26,2.66-4.28,6.06-.04.64-.13,1.42-.07,1.94.37-.22.75-1.75.88-2.48.42-2.54.95-3.43,3.31-4.55.71-.34,2.21-1.26,2.87-1.8,2.18-1.77,2.91-2.17,4.68-1.75,1.01.24,1.86.36,3.22.2,1.61-.2,1.7-.28,3.42.17,1.17.31,2.61.6,2.61.6-24.28-49.55-23.48-95.49.49-142.09,0,0-7.09.09-7.4.27-.11.07-.98-.01-1.92-.18-1.93-.35-1.51-.12-6.06,4.54-5.63,5.75-14.65,1.16-17.36-8.49-.14-.5-.26-.81-.48-1.17-.07-.11-.25-.31-.25-.31h0Zm22.96,5.67c1.04.11,2.35.03,2.22,1.02l-33.97,33.64-.52-2.14,32.27-32.52Zm7.05.2c-.41.83-1.53,1.86-2.02,2.64l1.82,2.3-1.01,1.86-2.8-2.39-5.32,5.34,4.44,5.06-4.2,4.31-1.4-1.61,2.22-2.36-3.45-3.28-6.08,6.01,4.95,5.12-3.63,3.54-1.45-1.4,1.91-2.14-3.23-3.39-5.66,5.87,4.48,5.07-3.46,3.49-1.53-1.58,1.66-1.76-3.2-3.41-5.77,5.78,4.68,5.16-3.44,3.13-1.21-1.3,1.66-1.82-3.15-3.42-3.58,3.3-.6-2.26,35.42-35.75,2.96-.09Zm2.04.53l-1.49,3.04-1.15-1.29,1.5-1.57,1.14-.19Zm-83.53.2c-.92.23-22,12.16-34.01,25.26l-.04,4.88-.44.58.21,7.55.3.4.1,3.08-.48.81v8.46l.64.11.1,10.35,19.72.05-.02,49.46s-11.58-12.93-19.92-20.57l.03,5.78,22.06,23.16c-1.52.22-3.49.59-6.47,2.26-7.16-4.54-15.43-3.15-15.43-3.15l.03,5.89c5.26-.52,10.01.21,15.54,4,4.55-3.14,10.04-5.04,18.22-2.55,1.8,2.9,3.6,6.18,5.4,8.12h-39.01v12.42c1.73.04,6.07,0,6.07,0,2.2,4.37,6.52,9.85,8.31,17.36-2.46,3-2.26,5.42.13,8.45-.02,1.36-.43,2.87,1.08,4.39,4.97-2.47,10.58-1.37,14.76-.11,1.41.43,1.95-1.21,1.9-3.27-.13-1.18-.12-1.68.77-2.47,2.13-1.87.81-5.72.47-5.8-.12-3.37,10.51-20.26,10.52-19.95l-2.12.78-9.09.04c23.92-23.43,33.91-50.16,31.82-80.34-.47-7.6-1.63-11.09-1.63-11.09-8.42,3.8-15.35,6.57-22.07,13.89l-.45-15.73c.37.74,2.87,1.43,3.99.48.76-.51.84-1.05.13-2.96-1.03-2.77-1.27-8.71-.5-10.73.09-.24.17-.86.23-1.48.09-.83-.09-.88-.17-.86.2-.05,1.02.12,1.12.03,2.87-2.57,5.96-4.17,9.74-4.34l.1-1.88c-2.8-7.2-5.18-10.02-7.72-14.04,0,0-.72-.24-1.18-.15l.59-.63c-3.56-5.74-8.64-10.97-13.3-15.94.01-.02,0-.02-.03-.02h-.01Zm-.16.98l2.53,2.37c-12.06,5.89-23.97,14.53-35.69,26.24l.16-4.3c13.25-12.66,23.24-18.74,33-24.3Zm77.48,4.3l1.52,1.54-2.1,2.48,1.37,1.42-.76,1.89-3.5-3.69,3.48-3.64Zm-75.33.19s.14-.03.32.01c.75.16-.16.29.36.87.51.57.74-.32.82.45.08.77-.33-.06-.71.61-.38.67.53.61-.17.92s-.05-.33-.8-.49c-.75-.16-.41.7-.93.12-.51-.57.3-.15.22-.91-.08-.77-.79-.18-.41-.85.38-.67.23.24.94-.07.53-.23.22-.57.36-.66h0Zm103.25,2.03c24.59,27.81,11.97,68.23-20.86,77.94l-.37-2.28c33.12-11.34,40.76-49.43,19.26-73.27l1.96-2.39Zm-98.98.19l1.57,1.84c-14.02,6.8-27.7,17-40.92,31.71l-.13-3.72c12.42-13.26,25.69-22.85,39.48-29.83Zm-9.06.54s.14-.03.33.01c.75.16-.16.3.36.87.51.57.75-.32.83.45.08.77-.33-.06-.71.61-.38.67.53.61-.17.92s-.05-.33-.8-.49c-.75-.16-.41.7-.93.12-.51-.57.3-.15.22-.91-.08-.77-.79-.18-.4-.85.38-.67.23.24.94-.07.53-.23.22-.57.35-.66h0Zm-4.37,2.77s.14-.03.33.01c.75.16-.16.3.36.87.52.57.74-.32.82.45.08.77-.33-.06-.71.61-.38.67.53.61-.17.92-.7.31-.05-.33-.8-.49-.75-.16-.41.7-.93.12-.51-.57.3-.15.22-.91-.08-.77-.79-.18-.41-.85s.23.24.94-.07c.53-.23.22-.57.35-.66h0Zm14.59.96c.79,0,1.44.65,1.44,1.46s-.64,1.46-1.44,1.46-1.44-.65-1.44-1.46.65-1.46,1.44-1.46Zm62.47,1.01l1.44,1.54-2.28,2.32,3.25,3.45,3.12-3.06-1.57,4.55-27.54,27.97-.57-2.93,2.17-2.21-3.32-3.37-.58-2.25,3.27-3.11,1.37,1.43-1.91,2.24,3.08,3.08,5.59-5.23-4.61-5.14,3.81-3.74,1.32,1.3-1.82,1.91,3.2,3.53,5.73-5.58-4.71-5.06,3.78-3.79,1.43,1.39-1.91,2.32,3.26,3.2,5.61-5.63-4.62-4.93,4.02-4.2Zm-81.35.96s.14-.03.33.01c.75.16-.16.3.36.87.51.57.74-.32.82.45.08.77-.33-.06-.71.61-.38.67.53.61-.17.92-.7.31-.05-.33-.8-.49-.75-.16-.41.7-.93.12s.3-.15.22-.91c-.08-.77-.79-.18-.41-.85.38-.67.23.24.94-.07.53-.23.22-.57.35-.66h0Zm22.68.3l1.1,1.85c-16.69,8.57-28.24,17.15-45.32,36.87v-2.48c13.19-16.45,26.9-27.06,44.22-36.24Zm-8.38.22c.79,0,1.44.65,1.44,1.46s-.64,1.46-1.44,1.46-1.44-.65-1.44-1.46.65-1.46,1.44-1.46Zm129.15.56c2.94,2.66,9.13,5.32,13.11,5.03l.11,3.2c-6.95.67-13.02-3.85-13.02-3.85-5.35,3.32-10.8,3.74-16.48,2.3l-2.19-4.76c8.42,3.97,16.33.18,18.47-1.93h0Zm-33.34.78l1.35,1.34c6.48-1.72,8.58,5.07,5.56,8.95l.87,2.85c5.77,1.13,7.36,7.12,2.07,10.34l-.04,3.13c.91.77,2,1.51,2.69,2.6,1.55,2.64.94,5.31-1.45,6.98-1.42.98-2.97,1.11-3.03,1l-1.5,3.56c1.32.76,1.69,2.04,1.89,2.96.45,1.99-.93,4.59-2.66,5.55-2.18,1.21-5.16.14-5.15.14l-2.13,2.16c.55,1.87.7,2.99.41,4.09-.72,2.72-3.52,3.78-5.77,3.58-1.77-.16-3.1-1.47-3.1-1.47l-2.36.92c.07,0,.04,3.03-1.15,3.96-.37.39-1.7,1.26-1.7,1.26l-.18-2.09c.93-.68,1.38-2.34,1.19-3.55l5.09-2.53c0,.19,1.39,1.56,2.35,1.75,1.95.4,3.99-1.14,4-2.97,0-1.06-.6-1.79-.77-2.65l4.32-4.54c1.79.62,3.04.73,3.84.26,1.51-.89,1.92-2.71,1.63-3.81-.34-1.3-1.48-2.14-1.56-2.26l2.41-6.19c1.12-.01,1.82-.18,2.69-.76,1.79-1.19,1.56-3.51.8-4.61-.93-1.34-2.27-1.58-2.38-1.55l.18-6.43c0,.05,2.46-1.19,2.7-2.62.58-3.58-1.68-4.2-4.38-4.11l-2.02-5.82c3.2-1.98,2.19-5.13.56-6.19-1.71-1.12-4.12-.08-4.12-.08,0,0-1.1-1.11-1.93-2l.8-1.13Zm-85.51,1.27c2.1,2.87,5.66,8.62,7.65,13.77.09.22.04,1.36.04,1.36-5.67.5-7.62,2.76-9.64,4.35-1.56-.82-2.22-1.77-5.05.03-.01.08-7.21-4.43-8.59-10.55,5.15-3.22,10.05-6.29,15.59-8.96h0Zm-28.81.02s.14-.03.33.01c.75.16-.16.29.36.87.51.57.75-.32.83.45.08.77-.33-.06-.71.61-.38.67.53.61-.17.92-.7.31-.05-.33-.8-.49-.75-.16-.41.7-.93.12s.3-.15.22-.91c-.08-.77-.79-.18-.4-.85.38-.67.23.24.94-.07.53-.23.22-.57.35-.66h0Zm13.65.31c.79,0,1.44.65,1.44,1.46s-.64,1.46-1.44,1.46-1.44-.65-1.44-1.46.65-1.46,1.44-1.46Zm98.44,1.79c6.16,8.65,8.64,18.21,6.96,28.05-2.2,12.85-10.75,19.93-20.45,24.1l-.07-2.51c9.05-3.31,16.03-10.25,18.38-22.26,1.69-8.62-.36-17.39-6.04-25.25l1.22-2.13Zm-116.57,1.19s.14-.03.33.01c.75.16-.16.29.36.87.51.57.74-.32.82.45.08.77-.33-.06-.71.61-.38.67.53.61-.17.92s-.05-.33-.8-.49c-.75-.16-.41.7-.93.12-.51-.57.3-.15.22-.91-.08-.77-.79-.18-.41-.85.38-.67.23.24.94-.07.53-.23.22-.57.35-.66h0Zm13.62.02c.79,0,1.44.65,1.44,1.46s-.65,1.46-1.44,1.46-1.44-.65-1.44-1.46.64-1.46,1.44-1.46Zm122.82,2.47c3.19.36,7.09,6.23,10.64,9.59l.04,47.94-10.61.22c-1.38,3.37-4.59,6.71-9.69,10v-17.96c17.41-18.96,12.68-39.7,9.62-49.78h0Zm-140.33.56s.14-.03.33.01c.75.16-.16.3.36.87.51.57.74-.32.82.45.08.77-.33-.06-.71.61-.38.67.53.61-.17.92-.7.31-.05-.33-.8-.49-.75-.16-.41.7-.93.12s.3-.15.22-.91c-.08-.77-.79-.18-.41-.85.38-.67.23.24.94-.07.53-.23.22-.57.35-.66h0Zm144.61.24l3.2.12,21.7,22.23-.08,3.26-24.82-25.61Zm-131.52.01c.79,0,1.44.65,1.44,1.46s-.65,1.46-1.44,1.46-1.44-.65-1.44-1.46.64-1.46,1.44-1.46Zm7.95,2.2l.57,2.79c-.7-1.12-.73-1.53-1.94-1.73l1.37-1.06Zm-11.74.81c.79,0,1.44.65,1.44,1.46s-.65,1.46-1.44,1.46-1.44-.65-1.44-1.46.64-1.46,1.44-1.46Zm109.07.41l4.28,3.08-1.4,5.56-4.38-4,1.5-4.63Zm-122.07,0s.14-.03.33.01c.75.16-.16.3.36.87.51.57.75-.32.83.45.08.77-.33-.06-.71.61-.38.67.53.61-.17.92s-.05-.33-.8-.49c-.75-.16-.41.7-.93.12-.51-.57.3-.15.22-.91-.08-.77-.79-.18-.4-.85s.23.24.94-.07c.53-.23.22-.57.35-.66h0Zm23.09.45l.76.46-.89,3.8-9.86,3.61c3.17-2.75,6.43-5.75,9.98-7.88h0Zm1.61,1.77h0c.7,2.82,2.22,6.98,4.08,10.51-1.27.66-5.81,3.28-5.8,4.5.64,2.2,5.45,4.23,5.45,4.23-1.82,3-3.55,6.54-4.97,10.61-.82-1.42-.92-7.02.85-9.35-1.75-.7-4.13-2.3-5.95-3.95,1.17-4.21,6.16-6.72,6.38-6.75-.09.21-1.47-8.79-.04-9.79h0Zm-16,.71c.79,0,1.44.65,1.44,1.46s-.65,1.46-1.44,1.46-1.44-.65-1.44-1.46.64-1.46,1.44-1.46Zm109.82.12c6.4,12.12,2.59,22.64-7.62,30.18l.36-2.86c7.04-5.19,11.49-15.42,6.34-25.17l.92-2.16Zm-122,.34s.14-.03.32.01c.75.16-.16.3.36.87s.74-.32.82.45c.08.77-.33-.06-.71.61-.38.67.53.61-.17.92-.7.31-.05-.33-.8-.49-.75-.16-.41.7-.93.12s.3-.15.22-.91c-.08-.77-.79-.18-.41-.85.38-.67.23.24.94-.07.53-.23.22-.57.36-.66h0Zm102.41.09c-4.7,17.79-4.58,26.1-5.13,30.92h-18.23l-.71-6.41,24.07-24.51Zm-72.84.49s3.95,3.73,7.5,6.99l-.42.85-3.45.47c-2.64-5.28-3.63-8.31-3.63-8.31Zm-3.27,1.95h.03s.22,2.66.22,2.66c-1.18-.05-14.01,5.4-23.86,14.09,1.47-2.63,3.94-5.15,6.34-7.3,5.09-5.08,17.27-9.45,17.27-9.45h0Zm-18.23.61c.79,0,1.44.65,1.44,1.46s-.65,1.46-1.44,1.46-1.44-.65-1.44-1.46.64-1.46,1.44-1.46Zm8.07,1.66l.73.76-3.4,1.79,2.67-2.55Zm23.72.78s.1,0,.15.01c.53.07.74.32,1.05.58-.67-.14-1.32-.22-1.94-.19.16-.19.42-.39.75-.4h0Zm-13.02.55l.31,1.98c-7.38,4.26-16.15,8.29-28.93,20.56v-4.08c8.02-7.54,17.36-13.87,28.61-18.46Zm9.93.19c.46.11.87.12,1.29.02,0,0-.27.54-.58.55-.34.01-.7-.57-.7-.57h0Zm3.13.11c.93-.06,1.56.81,1.37,1.92-.71,3.76-.68,7.57.08,10.24.6,2.08.75,2.81.25,3.15-4.35,3.05-6.73-10.69-3.1-14.59.49-.47.97-.69,1.39-.72h0Zm-35.52.48c.79,0,1.44.65,1.44,1.46s-.64,1.46-1.44,1.46-1.44-.65-1.44-1.46.65-1.46,1.44-1.46Zm124.99.34l2.7,4.61-3.77,4.29-2.29-4.98,3.36-3.92Zm-93.1,2.5h0s-.14,1.59-.14,1.59c-1.94.6-3.63,1.45-5.09,2.71-.28.25,4.5,2.44,5,1.93v1.7c-.08.56-7.92-1.97-8.45-3.86.89-1.26,5.85-4.18,8.68-4.06h0Zm-35.68.85c.79,0,1.44.65,1.44,1.46s-.64,1.46-1.44,1.46-1.44-.65-1.44-1.46.65-1.46,1.44-1.46Zm21.38,1.68h0c-.56,1.08-1.38,2.5-1.54,4.06-5.38,3.31-10.9,6.41-17.61,14.02l-3.62-.02-.08-.96c7.34-7.11,15.28-13.24,22.85-17.09h0Zm13.86.46h0l.04,2c-1.25.02-1.93-.4-2.87-.88.79-.5,1.39-1,2.83-1.12h0Zm40.48.21l1.01,1.07-.63.6-.38-1.67Zm-54.5,4.16l1.99,1.26c-5.13,2.72-10.53,6.74-15.2,11.98h-3.94c4.98-5.49,10.35-10.41,17.15-13.24Zm106.23,1.45l.4,5.44-5,2.79.1-5.74,4.51-2.49Zm-95.13.02l3.44.38.35,1.48c-2.89,1.87-5.4,4.05-7.8,6.33.92-2.92,2.36-5.82,4.01-8.19h0Zm-8.25.58l1.48.69-.58,2.56c-4.21,1.9-7.57,4.47-11.17,7.94h-4.05c3.54-3.86,9.44-8.72,14.32-11.19h0Zm12.8,2.41s.02,0,.02.01l.54,16.78c-14.86,17.68-14.05,34.77-9.72,50.28l-2.83-.13c-3.29-4.16-7.67-8.4-7.67-8.4v-48.8s10.23.04,10.23.04c2.42-5.68,9.06-9.72,9.44-9.77h0Zm-12.1,2.35l.12,2.24c-2.12,1.28-3.92,2.68-5.46,4.19h-3.85c2.66-2.52,5.3-5.05,9.19-6.43h0Zm34.94,1.1l.56,2.64c-34.49,12.68-40.73,49.54-20.37,74.84l-1.38,1.57c-23.38-25.51-13.12-67.17,21.19-79.05Zm-34.66,2.64s.19,2.02.25,2.69h-3.86c.87-1.04,1.64-2.11,3.62-2.69Zm97.07.85l-2.22,5.26-5.93.09,2.69-5.26,5.46-.09Zm-37.55,3.6h5.4v5.25h-5.4v-5.25Zm-23.39.52l.09,2.31c-2.4,1.24-1.8,3.22-2.4,3.19-1.48.38-5.37,2.48-5.37,2.48-1.38-1.27-3.24-.95-4.11-.33-1.2.8-1.46,2.65-1.12,4.23l-4.13,4.9c-1.99-.87-3.94-.81-4.91.54-1.09,1.52-.68,3.42,1.13,5.54l-2.25,5.86c-.26-.35-4.02.77-4.07,3.04-.05,2.4,3.11,3.97,3.11,4.16l-.15,6.47c-.14-.31-3.23.97-2.81,4.07.39,2.85,4.21,2.51,4.29,2.74l2.08,6.19c-.14-.19-2.82,2.47-1.18,4.99,1.37,2.1,5.34.74,5.3.6l1.1,1.58-1.22,1.34s-.53-.64-.82-.58c-2.31.45-4.89-.09-6.13-1.96-1.69-2.64.19-6.78.79-6.74l-1.43-3.57c-2.6-.05-4.8-2.41-4.92-4.39-.25-4.14,3.1-5.87,3.11-5.85l.1-3.86c-.2.23-3.31-2-3.23-4.57.05-1.88,1.61-4.08,3.52-4.97.55-.26,1.42-.68,1.42-.68l1.29-3.16s-1.83-2.69-1.36-5.4c.88-4.1,6.15-3.82,6.98-3.42l2.44-3.11c-1.2-2.84.87-6.13,3.59-6.67,1.21-.2,4.59.62,4.59.62l3.13-1.64c-.05-1.74,1.81-2.87,3.54-3.93Zm17.79,5.74h4.63v5.25h-4.63v-5.25Zm12.34,0h5.22v5.25h-5.22v-5.25Zm-29.76,1.32l-.06,2.01c-29.9,14.73-17.67,45.24-13.41,48.79l-.96,2.15c-5.25-3.24-18.78-38.44,14.43-52.95h0Zm23.02,5.31h5.62l.05,5.39h-5.62l-.05-5.39Zm-24.32,2.62l-1.78,4.91-5.49.47,2.03-4.9,5.24-.48Zm112.2,3.59l3.76.02c-7.02,8.35-14.61,14.04-22.09,17.15.15-1.06.29-1.85.09-2.97,8.32-4.16,14.03-9,18.24-14.2h0Zm-12.64,0c.38.97-9.86,6.59-9.9,6.11l.03-1.87,5.53-4.17,4.34-.08Zm2.21,0h.02l2.88.02c-2.6,4.17-16.37,11.75-15.8,10.68l.56-3.05c4.44-1.98,8.47-4.68,12.34-7.65h0Zm4.86,0l3.79.02c-5.71,7.36-11.5,10.05-17.05,13.22-.33-.05-.18-.18-1.22-.15l-1.9-1.51c.36.33,12.76-7.06,16.38-11.58h0Zm-17.66.02c1.15-.01,3.98.05,3.98.05-.97,1.18-2.07,2.22-3.44,2.99l-.54-3.04Zm-88.46.25l-.13,2.23c-7.98,6.98-11.18,15.89-7.03,26.23l-.99,2.21c-4.47-11.04-3.15-21.77,8.15-30.67h0Zm17.82.38h18.53l.42,5.97-24.78,24.51c3.77-13.69,4.82-21.96,5.83-30.48Zm97.89,1.38v3.33c-9.77,10.94-19.61,15.84-28.12,17.82l-.19-1.28,3.94-2.47c12.69-5.62,18.26-11.28,24.37-17.4Zm-29.65.09c.17,2.41-1.94,6.96-4.35,9.52h-4.13s-.46-1.83-.46-1.83c3.43-1.88,6.6-4.42,8.94-7.69h0Zm1.25.72c1.52,2.48-.76,8.9-.85,8.65-.18.44,12.98,3.27-.54,9.89.29,1.94,1.56,6.1.58,8.66-.31-.98-2.66-7.64-4.48-9.35,4.22-1.22,7.26-3.85,6.93-4.71-.69-1.23-2.58-2.74-5.76-3.85,2.71-3.82,3.51-6.69,4.11-9.29h0Zm-96.7,1.22l.42,5.06-4.81,2.94-.37-5.56,4.76-2.44Zm83.67,4.7h0c.38,0,.73.1.9.29,2.38.98,2.55,12.75.39,13.95-1.57,1-2.67-.61-2.62-.89,1.04-5.42.39-8.77-.04-12.56.05-.55.74-.8,1.36-.8h0Zm41.44.17v4.19c-13.97,14.71-29.02,26.3-44.38,32.82l-1.4-2.42c18.66-8.77,34.26-21.27,45.78-34.59h0Zm-2.63.62c-6.44,9.01-14.27,14.91-24.97,17.59l-.2-2.6c12.38-2.86,23.72-13.35,25.18-15h0Zm-175.88,1.24c8.43,8.75,17.06,17.43,25.64,26.41l-3.41.18-22.33-23.54.1-3.05Zm100.3.44l.3,2.16-2.45,2.73,3.87,4.23.2,1-3.33,3.53-1.5-1.51,1.84-2.1-3.12-3.34-5.79,5.66,4.77,5.26-3.6,3.48-1.42-1.49,1.84-2.16-3.2-3.43-5.9,5.97,4.47,5.01-2.98,3.35-1.41-1.51,1.53-1.78-3.24-3.39-5.67,5.55,4.67,5.25-3.79,3.84-1.47-1.45,2.13-2.36-3.5-3.39-2.81,2.69s1.06-2.67,1.21-3.13c.23-.66,1.16-1.19,7.06-7.11,7.04-7.13,14.27-13.8,21.3-21.59h0Zm40.41,1.44c2.06.03,5.56.54,7.26,1.45,3.16,1.69,2.16,3.02.11,4.01-2.45,1.19-4.46,1.77-7.23,1.85l.08-1.38c1.61-.4,3.28-.79,4.7-1.59.98-.55,1.23-.99,1.23-.99,0,0-.95-.98-2.47-1.54-1.11-.41-2.7-.41-3.56-.55l-.12-1.26Zm-92.15,1.82l2.59,3.95-3.07,5.23-2.95-4.51,3.43-4.67Zm52.29.42c.09.74,1.02,3.64.53,3.08l-1.72-1.97,1.19-1.11Zm40.01.39c1.43.12,2.94.17,3.99.68-1.21.96-2.59,1.17-3.96,1.41l-.03-2.09Zm35.97,1.98c.87,0,1.57.71,1.57,1.59s-.7,1.59-1.57,1.59-1.57-.71-1.57-1.59c0-.88.7-1.59,1.57-1.59Zm-80.89,2.76l1.34,1.32-1.73,2.05,3.13,3.35,3.88-3.69.51,2.34-36.36,36.35-2.02-.15,2.31-2.78-2.63-2.73,1.21-1.96,2.97,2.8,5.68-5.53-4.61-4.93,3.94-4.11,1.49,1.3-2.26,2.49,3.29,3.41,5.95-5.95-4.65-5.14,3.72-3.6,1.36,1.31-1.73,1.86,3.39,3.59,5.01-5.3-4.56-5.1,4.05-4.01,1.25,1.27-1.87,2.12,3.41,3.58,5.47-5.71-4.5-4.96,3.55-3.5Zm77.25.95c.87,0,1.57.71,1.57,1.59s-.7,1.59-1.57,1.59-1.57-.71-1.57-1.59.7-1.59,1.57-1.59Zm-29.55.07c2.47,2.95,3.96,6.22,4.25,9.75-1.97-3.04-4.48-5.74-7.77-8.08l.56-1.48,2.96-.19Zm34.87.24v3.56c-11.01,12.68-24.39,22.24-38.12,28.89l-2.34-2.88c16.24-7.37,27.99-16.51,40.45-29.56Zm-16.21,2.49l-4.46,3.52v-1.53l4.46-1.99Zm-27,.21c2.02.78,2.44.87,3.99.04,3.8,1.89,6.99,5.07,8.89,9.8-5.19,3.31-10.89,5.99-16.32,8.66-2.61-4.27-5.23-8.26-7.29-13.75,8.37-.06,10.67-4.71,10.73-4.75h0Zm34.07.74c.78.02,1.56.62,1.59,1.53,0,.88-.7,1.59-1.57,1.59s-1.57-.71-1.57-1.59c.17-1.1.86-1.55,1.54-1.53Zm-11.59,1.05v1.54c-2.13,1.9-6.28,4.98-6.28,4.98l-1.72-.09.56-4.36c2.6-.53,5.12-1.3,7.44-2.07h0Zm-109.38.18l4.1,3.42-1.26,5.31-4.03-3.12,1.19-5.62Zm55.07,1l.38,1.54-33.69,33.84-1.92-.32,35.23-35.06Zm62.16,1.31c.87,0,1.57.71,1.57,1.59s-.7,1.59-1.57,1.59-1.57-.71-1.57-1.59.7-1.59,1.57-1.59Zm12.23.15c.15.06-.08.45.48.57.75.16.41-.7.93-.12s-.3.15-.22.91c.08.77.79.18.41.85-.38.67-.23-.24-.94.07-.7.31.07.81-.68.65-.75-.16.16-.3-.36-.87s-.74.32-.82-.45c-.08-.77.33.06.71-.61.38-.67-.53-.61.17-.92.18-.08.27-.1.32-.08h0Zm-16.76,3.4c.87,0,1.57.71,1.57,1.59s-.7,1.59-1.57,1.59-1.57-.71-1.57-1.59.7-1.59,1.57-1.59Zm12.85.13c.15.06-.08.45.48.57.75.16.42-.7.93-.12s-.3.15-.22.91c.08.77.79.18.4.85s-.23-.24-.94.07c-.7.31.07.81-.68.65-.75-.16.16-.3-.36-.87-.51-.57-.74.32-.82-.45-.08-.77.33.06.71-.61.38-.67-.53-.61.17-.92.18-.08.27-.1.32-.08h0Zm-24.18.29c.6.05,1.13.07,1.68.1l-3.07,1.84c.81-.78,1.34-1.81,1.39-1.94h0Zm28.73.82l.02,3.27c-7.71,7.83-17.44,15.95-32.32,23.77l-1.9-1.95c12.13-5.88,23.52-14.12,34.19-25.1h0Zm-21.88,1.79c.87,0,1.57.71,1.57,1.59s-.7,1.59-1.57,1.59-1.57-.71-1.57-1.59.7-1.59,1.57-1.59Zm13.64.28c.15.06-.08.45.48.57.75.16.42-.7.93-.12.51.57-.3.15-.22.91.08.77.79.18.4.85s-.23-.24-.94.07c-.7.31.07.81-.68.65-.75-.16.16-.3-.36-.87-.51-.57-.74.32-.82-.45-.08-.77.33.06.71-.61.38-.67-.53-.61.17-.92.18-.08.27-.1.32-.08Zm-168,2.51c5.03-.14,9.45,1.7,12.21,3.73,5.32-3.14,9.59-3.5,15.68-2.56l1.82,3.65c-5.93-1.07-12.18-.97-17.53,3.22-5.54-3.56-9.74-4.58-14.29-4l-.08-3.85c.74-.11,1.47-.17,2.19-.19h0Zm150.04.26c.87,0,1.57.71,1.57,1.59s-.7,1.59-1.57,1.59-1.57-.71-1.57-1.59.7-1.59,1.57-1.59Zm14.03.8c.15.06-.08.45.48.57.75.16.42-.7.93-.12s-.3.15-.22.91c.08.77.79.18.4.85-.38.67-.23-.24-.94.07-.7.31.07.81-.68.65-.75-.16.16-.3-.36-.87s-.74.32-.82-.45c-.08-.77.33.06.71-.61.38-.67-.53-.61.17-.92.18-.08.27-.1.32-.08h0Zm-18.74,2.23c.87,0,1.57.71,1.57,1.59s-.7,1.59-1.57,1.59-1.57-.71-1.57-1.59.7-1.59,1.57-1.59Zm14.33,1.09c.15.06-.08.45.48.57.75.16.41-.7.93-.12s-.3.15-.22.91c.08.77.79.18.41.85-.38.67-.23-.24-.94.07-.7.31.07.81-.68.65-.75-.16.16-.3-.36-.87s-.74.32-.82-.45c-.08-.77.33.06.71-.61.38-.67-.53-.61.17-.92.18-.08.27-.1.32-.08h0Zm-19.16,1.73c.88,0,1.59.72,1.59,1.61s-.71,1.61-1.59,1.61c-.88,0-1.59-.72-1.59-1.61s.71-1.61,1.59-1.61Zm14.95,1.52c.15.06-.08.45.48.57.75.16.41-.7.93-.12s-.3.15-.22.91c.08.77.79.18.41.85-.38.67-.23-.24-.94.07-.7.31.07.81-.68.65-.75-.16.16-.29-.36-.87-.51-.57-.74.32-.82-.45-.08-.77.33.06.71-.61.38-.67-.53-.61.17-.92.18-.08.27-.1.32-.08h0Zm-19.59.92c.87,0,1.57.71,1.57,1.59s-.7,1.59-1.57,1.59-1.57-.71-1.57-1.59.7-1.59,1.57-1.59Zm-69.29,1.44l3.9,3.63-4.03,4.11-1.48-1.44,2.25-2.38-1.52-2.08.89-1.84Zm84.6.52c.15.06-.08.45.48.57.75.16.41-.7.93-.12.51.57-.3.15-.22.91.08.77.79.18.41.85-.38.67-.23-.24-.94.07-.7.31.07.81-.68.65-.75-.16.16-.3-.36-.87-.51-.57-.74.32-.82-.45-.08-.77.33.06.71-.61.38-.67-.53-.61.17-.92.18-.08.27-.1.32-.08h0Zm-4.57,2.67c.15.06-.08.45.48.57.75.16.41-.7.93-.12.51.57-.3.15-.22.91.08.77.79.18.4.85s-.23-.24-.94.07c-.7.31.07.81-.68.65-.75-.16.16-.3-.36-.87-.51-.57-.75.32-.83-.45-.08-.77.33.06.71-.61.38-.67-.53-.61.17-.92.18-.08.27-.1.32-.08h0Zm-4.89,2.69c.15.06-.08.45.48.57.75.16.41-.7.93-.12s-.3.15-.22.91c.08.77.79.18.41.85-.38.67-.23-.24-.94.07-.7.31.07.81-.68.65-.75-.16.16-.3-.36-.87-.51-.57-.75.32-.83-.45-.08-.77.33.06.71-.61.38-.67-.53-.61.17-.92.18-.08.27-.1.32-.08h0Zm-80.49,4.21l1.46,1.22-2,2.44-1.52-.02,2.06-3.64Zm-24.43,6.75c-4.44,2.23-6.55,3.65-9.65,6.39l-4.44-6.17,14.09-.21Zm-30.23.21h11.83l-3.94,5.66c-2.59-2.78-5.22-4.5-7.89-5.66h0Zm14.09.45c1.28.41,4.64,5.27,6.22,7.93,3.36-2.72,6.66-5.76,10.25-7.39-4.27,4.58-8.02,9.33-10.69,13.91-.76-2.07-2.86-7.99-5.53-10.56-4.21,3.99-5.87,8.8-5.87,8.8-2.26-3.92-4.98-7.84-8.14-11.51-.52-.72,3.83,2.04,8.15,6.3,1.21-3.11,4.46-7.36,5.61-7.48h0Zm-14.21,3.05c2.03,1.64,7.56,8.84,8.19,13.17l-2.65.17c-1.41-4.45-3.77-8.89-5.54-13.34Zm29.42.74c-2,4.17-4.48,8.43-6.26,13.04l-2.61-.12c2.86-6.36,3.91-7.52,8.88-12.92Zm-14.99,1.85s.05,0,.06.02c2.48,3.45,3.66,6.79,4.4,10.87l-1.92-.07s-1.34-4.09-2.26-5.54c-.6-.88-1.07-.77-1.49-.04-.95,1.73-1.3,3.46-1.84,5.34l-2.21-.16c-.41-3.09,4.48-10.34,5.26-10.42h0Zm-.35,11.87c.9.01,1.84,1,1.83,2.74.07.81-.55,2.62-1.23,2.71-1.25.67-2.74-1.42-2.36-3.17.32-1.49.97-2.29,1.76-2.28Zm4.4.31c1.93.28,1.45,4.72.45,5.37-1.56.84-2.74-.56-2.21-2.65.42-1.68,1.05-2.68,1.77-2.72Zm-8.75.02c1.78.16,2.16,4.21,1.44,5.03-.83.83-3.01.24-3.22-1.2-.71-1.84.59-3.81,1.78-3.83Zm13.23.71c2.22.25.93,4.16-.03,4.96-1.41,1.11-2.76-.55-2.09-2.54.52-1.54,1.39-2.43,2.12-2.42h0Zm-17.88.12c1.61.26,2.55,3.97,1.59,5.02-.5.61-1.96-.28-2.62-1.29-.8-1.22-.05-3.73,1.04-3.73Zm9.2,5.72c3.36.07,7.61.51,7.95,2.35.19,1.95-1.25,1.94-5.41,1-2.1-.48-5.83-.18-7.73.18-3.2.59-3.66.36-3.65-.96.01-1.54,1.8-2.41,5.96-2.54.74-.02,1.76-.04,2.88-.02h0Zm14.42,1.21c-4.96.47-6.27,6.78-5.73,9.11.44,3.9.25,7.98-.49,10.66-.53,1.93-1,3.98-1.85,5.72-1.3,2.64-.97,4.59.97,5.64,1.59.86,3.54.57,4.77-.77,2.21-2.42,2.48-7.55,1.12-19.19-.48-4.11-.22-4.93,1.74-4.69,4.12-.03,3.95-6.48-.53-6.49h0Zm.08.78c4.31-.13,3.01,6.09-.68,4.53-1.11-.44-1.86.59-1.71,3.14.04,1.13.23,2.4.37,3.41,1.6,11.17,1,18.65-2.37,19.02-2.94.48-4.93-1.72-3.49-3.99.81-1.29,1.51-1.46,3.09-.79,2.17,1.37,1.63-.62-.33-2.09-1.25-.9-1.35-.9-.68-3.72.91-3.8,1.21-6.51.88-11.32-.47-3.4.65-7.91,4.91-8.18h0Zm-28.31,10.13c-2.04-.1-4.05.97-4.83,2.71-1.24,2.79-.08,5.35,2.05,6.39,1.4.69,2.77.57,4.1.01.52-2.37.55-4.35,2.13-7.58-.98-1-2.22-1.48-3.44-1.54h0Zm-.71.65h0c.63-.03,1.34.04,2.13.21,1.59.34,1.35,2.04-.15,1.49-3.56-1.7-6.47,3.42-3.59,5.35,1.47.83,2.11.36.66-.79-.6-.7-.45-.98-.08-1.68.75-1.41,3.46-1.18,3.27-.16-.62,3.25-1.03,4.19-1.99,4.2-5.01.26-6.34-8.35-.25-8.61h0Zm49.12,6.05s-16.48,18.93-24.42,28.63l99.49-.47-18.93-26.54c-16.24,3.81-35.32,2.71-56.14-1.62h0Zm-.49,6.05c2.48.03,5.31,1.86,7.75,7.97.13.06,10.94-16.68,20.3.65,1.53-3.89,10.34-14.04,20.53-1.01,3.62-8.71,11.97-5.77,12.75-2.73-.18-.65-7.95-2.53-11.32,3.25-.62,1.22-.65,2.38.06,3.07,1.68,1.62-.15,3.94-2.07,2.62-.75-.51-.84-1.6-.27-2.38,1.69-1.28-1.77-5.27-4.62-6.7-3.91-1.97-9.36-1.1-11.98,1.73-1.41,1.52-2.27,2.88-2.48,3.97-.11.51-.04.77.25,1.11,1.14,1.39.39,3.3-1.15,3.07-2.02-.3-1.75-2.22-.4-3.27.41-.21.26-.45.13-.81-3.68-10.53-17.4-8.52-18.88-1.23-.05.26-.17.54-.11.82.15.7.56,1.28.4,1.83-.63,2.24-3.39,1.6-3.51-.26-.06-.84.84-1.1,1.28-1.87.26-.48.38-1.07.13-1.61-3.72-7.91-10.1-6.26-13.26-4.47-.07.04,2.83-3.8,6.46-3.76h0Zm-4.12,4.59h0c1.36-.05,2.6.63,3.75,1.99,3.9-2.09,6.66,1.53,6.2,1.88-5.52-3.64-7.31,4.84-1.87,4.52-2.39,5.02,6.14,7.17,5.18.75,5.26,1.87,6.13-5.48.8-5.37,1.72-3.03,6.2-2.2,8.09-.3,2.22-2.76,7.69-.13,8.23,2.23-6.13-3.19-6.74,6.56-.81,4.48-1.76,6.2,7.68,5.32,5.07-.03,5.87,1.96,5.07-6.96-.7-5.15-.35-.46,4.56-5.62,8.14-.77.48-.85,6.06-3.65,9.11.74-6.61-2.27-5.36,6.77-.62,4.97-1.27,5.99,7.28,5.02,5.1-.09,6.63,1.7,3.69-8.56-.96-4.77.76-4.12,6.33-2.41,6.27-1.78,0,0,2.96-3.25,6.27-.87-5.17.44-3.41,7.53,1.47,5.51-.05,2.41,1.92,4,4.58,3.19l4.18,5.94-95.37.61,7.62-9.23c2.55,2.14,5.19,1.13,5.52-2.23,5.55,3.46,6.99-4.75,1.78-5.11,1.06-.73,2.04-1.11,2.97-1.14h0Zm-5.33,2.67c.33.24-.12,1.38-.85,1.05l.85-1.05Zm74.36,2.38c.28.41.49.68.77,1.09.14.37-1.49-.2-.77-1.09Z"/>
    <path id="uuid-5e65c44e-0198-47be-96af-0e2c269dd1dd" data-name="path163-0-2-5-8-7-5-6-5-5" class="uuid-90d8bf86-a770-4c61-818b-a3731e948562" d="m66.91,90.59s-5.23-8.59-12.27-18.69c-4.72-6.76-8.49-14.08-8.84-20.39-.4-7.2,3.4-14.43,10.29-14.78,6.89-.35,9.68,5.55,10.82,10.42,1.14-4.87,3.93-10.77,10.82-10.42,6.89.35,10.69,7.58,10.29,14.78-.35,6.31-4.12,13.63-8.84,20.39-7.05,10.1-12.27,18.69-12.27,18.69h0Z"/>
    <path id="uuid-589bbb0e-2ddf-4bb3-b0f7-40ac310a1399" data-name="path163-0-2-5-8-7-7-8-9-1-8" class="uuid-90d8bf86-a770-4c61-818b-a3731e948562" d="m182.85,259.42s-5.23,8.59-12.27,18.69c-4.72,6.76-8.49,14.08-8.84,20.39-.4,7.2,3.4,14.43,10.29,14.78,6.89.35,9.68-5.55,10.82-10.42,1.14,4.87,3.93,10.77,10.82,10.42,6.89-.35,10.69-7.58,10.29-14.78-.35-6.31-4.12-13.63-8.84-20.39-7.05-10.1-12.27-18.69-12.27-18.69Z"/>
  </g>
</svg>