<?xml version="1.0" encoding="UTF-8"?>
<svg id="uuid-aac0c478-56ac-4af3-86e5-bf93c3979153" data-name="Cards" xmlns="http://www.w3.org/2000/svg" viewBox="0 0 250 350">
  <defs>
    <style>
      .uuid-e6fbea49-8fa5-486b-96f5-49fa9fde6365 {
        fill: #c8102e;
      }

      .uuid-e6fbea49-8fa5-486b-96f5-49fa9fde6365, .uuid-bf77acc0-6780-4237-aa19-afe2ff9bbf0c {
        stroke-width: 0px;
      }

      .uuid-bf77acc0-6780-4237-aa19-afe2ff9bbf0c {
        fill: #fff;
      }
    </style>
  </defs>
  <g id="uuid-6d7d85ce-c4ff-4ad7-a53c-c9b7331658e9" data-name="DIAMOND-2">
    <path id="uuid-161caa77-4097-42f0-bc5a-b6379e2fc3a3" data-name="rect6486-8" class="uuid-bf77acc0-6780-4237-aa19-afe2ff9bbf0c" d="m11.95-.01h226.08c6.6,0,11.96,5.36,11.96,11.97v326.06c0,6.61-5.35,11.97-11.96,11.97H11.95C5.35,349.98,0,344.62,0,338.01V11.96C0,5.34,5.35-.01,11.95-.01Z"/>
    <path id="uuid-715ae4d5-a60c-4c87-8b96-ec53f2a9d8b8" data-name="path6516-8" class="uuid-e6fbea49-8fa5-486b-96f5-49fa9fde6365" d="m124.99,90.56c-5.81-9.61-11.92-18.96-19.55-26.94,7.64-7.98,13.75-17.33,19.55-26.94,5.81,9.61,11.92,18.96,19.55,26.94-7.64,7.98-13.75,17.33-19.55,26.94Z"/>
    <path id="uuid-bdae9fbd-557c-4b67-81aa-a2bafee6ccf7" data-name="path6518-2" class="uuid-e6fbea49-8fa5-486b-96f5-49fa9fde6365" d="m19.28,78.53c-2.42-4.01-4.97-7.9-8.15-11.22,3.18-3.33,5.73-7.22,8.15-11.22,2.42,4.01,4.97,7.9,8.15,11.22-3.18,3.33-5.73,7.22-8.15,11.22Z"/>
    <path id="uuid-56b56daa-3e83-4680-906f-5adf1d9cd91f" data-name="path6522-0" class="uuid-e6fbea49-8fa5-486b-96f5-49fa9fde6365" d="m230.71,293.89c-2.42-4.01-4.97-7.9-8.15-11.22,3.18-3.33,5.73-7.22,8.15-11.22,2.42,4.01,4.97,7.9,8.15,11.22-3.18,3.33-5.73,7.22-8.15,11.22Z"/>
    <path id="uuid-6e9958d0-c4ef-473f-a4f3-2f6f18df0b66" data-name="path6538-6" class="uuid-e6fbea49-8fa5-486b-96f5-49fa9fde6365" d="m124.99,313.28c-5.81-9.61-11.92-18.96-19.55-26.94,7.64-7.98,13.75-17.33,19.55-26.94,5.81,9.61,11.92,18.96,19.55,26.94-7.64,7.98-13.75,17.33-19.55,26.94Z"/>
    <path id="uuid-2d1fb6df-3704-4ffc-bea6-f969602d7399" data-name="path15-34-1-4-2" class="uuid-e6fbea49-8fa5-486b-96f5-49fa9fde6365" d="m8.76,52.48l.18-2.28c.57-7.06,2.08-9.44,10.66-16.81,4.17-3.57,5.53-5.33,5.72-7.38.55-4.82-3.71-6.33-6.49-6.35-3.59-.03-7.66,2.16-5.72,7.25l-4.03,1.21c-.81-4.75.02-9.21,3.8-11.19,5.04-2.58,11.5-1.57,14.76,2.5,2.19,2.73,2.69,6.5,1.52,9.45-3.44,7.54-15.1,10.86-16.06,19.59h12.89v-4.86h3.8v8.95l-21.04-.08h0Z"/>
    <path id="uuid-29ca9db7-f926-4649-b9d4-e5e03a6e8961" data-name="path15-5-4-6-4" class="uuid-e6fbea49-8fa5-486b-96f5-49fa9fde6365" d="m241.23,297.49l-.18,2.28c-.57,7.06-2.08,9.44-10.66,16.81-4.17,3.57-5.53,5.33-5.72,7.38-.55,4.82,3.71,6.33,6.49,6.35,3.59.03,7.66-2.16,5.72-7.25l4.03-1.21c.81,4.75-.02,9.21-3.8,11.19-5.04,2.58-11.5,1.57-14.76-2.5-2.19-2.73-2.69-6.5-1.52-9.45,3.44-7.54,15.1-10.86,16.06-19.59h-12.89v4.86h-3.8v-8.95l21.04.08h0Z"/>
  </g>
</svg>