<?xml version="1.0" encoding="UTF-8"?>
<svg id="uuid-20ab1982-17fd-43de-9ca5-33dc7545349c" data-name="Cards" xmlns="http://www.w3.org/2000/svg" viewBox="0 0 250 350">
  <defs>
    <style>
      .uuid-3dba2959-add2-4c6d-9f3f-cca4e2f44233 {
        fill: #c8102e;
      }

      .uuid-3dba2959-add2-4c6d-9f3f-cca4e2f44233, .uuid-407a986b-96aa-4e70-96db-7ffbbe8eb934 {
        stroke-width: 0px;
      }

      .uuid-407a986b-96aa-4e70-96db-7ffbbe8eb934 {
        fill: #fff;
      }
    </style>
  </defs>
  <g id="uuid-cf8eb6e8-c9ce-44a1-b7a3-a101b6f53521" data-name="DIAMOND-3">
    <path id="uuid-e46604aa-0f2e-48cc-9d52-593ef10982fb" data-name="rect6554-0" class="uuid-407a986b-96aa-4e70-96db-7ffbbe8eb934" d="m11.94-.01h226.08c6.6,0,11.96,5.36,11.96,11.97v326.05c0,6.61-5.35,11.97-11.96,11.97H11.94c-6.6,0-11.96-5.36-11.96-11.97V11.96C-.01,5.35,5.34-.01,11.94-.01Z"/>
    <path id="uuid-a52a448f-c991-458d-8c3b-fe02e498a576" data-name="path6584-3" class="uuid-3dba2959-add2-4c6d-9f3f-cca4e2f44233" d="m124.98,90.56c-5.81-9.61-11.92-18.96-19.55-26.94,7.64-7.98,13.75-17.33,19.55-26.94,5.81,9.61,11.92,18.96,19.55,26.94-7.64,7.98-13.75,17.33-19.55,26.94Z"/>
    <path id="uuid-92c05972-b864-4772-a1a4-9a18441b845f" data-name="path6586-2" class="uuid-3dba2959-add2-4c6d-9f3f-cca4e2f44233" d="m19.27,78.53c-2.42-4.01-4.97-7.9-8.15-11.22,3.18-3.33,5.73-7.22,8.15-11.22,2.42,4.01,4.97,7.9,8.15,11.22-3.18,3.33-5.73,7.22-8.15,11.22Z"/>
    <path id="uuid-e0c38222-9aa3-47d3-9443-dc7d4592e9ec" data-name="path6590-7" class="uuid-3dba2959-add2-4c6d-9f3f-cca4e2f44233" d="m230.7,293.89c-2.42-4.01-4.97-7.9-8.15-11.22,3.18-3.33,5.73-7.22,8.15-11.22,2.42,4.01,4.97,7.9,8.15,11.22-3.18,3.33-5.73,7.22-8.15,11.22Z"/>
    <path id="uuid-14c28226-a75a-43af-b346-03fff82e2fc7" data-name="path6600-5" class="uuid-3dba2959-add2-4c6d-9f3f-cca4e2f44233" d="m124.98,201.92c-5.81-9.61-11.92-18.96-19.55-26.94,7.64-7.98,13.75-17.33,19.55-26.94,5.81,9.61,11.92,18.96,19.55,26.94-7.64,7.98-13.75,17.33-19.55,26.94Z"/>
    <path id="uuid-1431c7b1-33e3-4e0c-b8f1-22a09141fad0" data-name="path6606-3" class="uuid-3dba2959-add2-4c6d-9f3f-cca4e2f44233" d="m124.98,313.28c-5.81-9.61-11.92-18.96-19.55-26.94,7.64-7.98,13.75-17.33,19.55-26.94,5.81,9.61,11.92,18.96,19.55,26.94-7.64,7.98-13.75,17.33-19.55,26.94Z"/>
    <path id="uuid-5e525c46-8dfd-4dda-b50a-2b3bfe539646" data-name="path17-2-9-4-8" class="uuid-3dba2959-add2-4c6d-9f3f-cca4e2f44233" d="m7.27,44.44l2.85-2.1c2.47,4.03,5.23,6.68,9.46,6.23,6.34-.44,8.96-7.1,7.64-12.11-1.28-4.5-6.53-6.69-10.7-4.29-.98.57-1.94,1.03-2.12,1.03-.44,0-1.43-1.98-1.29-2.58,2.8-4.1,9.6-11.28,9.6-11.28h-10.62v4.81h-4.08v-8.63h20.77v2.93s-5.56,5.78-7.4,8.95c4.53.17,8.18,3.04,9.49,7.59.76,2.39.42,7.87-.58,10.23-1.67,3.93-6.24,7.13-10.41,7.31-7.01.47-10.73-4.45-12.58-8.09h0Z"/>
    <path id="uuid-5dead6d1-b785-42fb-9a89-4b63d010ce94" data-name="path17-5-3-3-8" class="uuid-3dba2959-add2-4c6d-9f3f-cca4e2f44233" d="m242.69,305.53l-2.85,2.1c-2.47-4.03-5.23-6.68-9.46-6.23-6.34.44-8.96,7.1-7.64,12.11,1.28,4.5,6.53,6.69,10.7,4.29.98-.57,1.94-1.03,2.12-1.03.44,0,1.43,1.98,1.29,2.58-2.8,4.1-9.6,11.28-9.6,11.28h10.62v-4.81h4.08v8.63h-20.77v-2.93s5.56-5.78,7.4-8.95c-4.53-.17-8.18-3.04-9.49-7.59-.76-2.39-.42-7.87.58-10.23,1.67-3.93,6.24-7.13,10.41-7.31,7.01-.47,10.73,4.45,12.58,8.09h0Z"/>
  </g>
</svg>