<?xml version="1.0" encoding="UTF-8"?>
<svg id="uuid-2a7020e6-2912-4fdc-81b4-86c9d44f046e" data-name="Cards" xmlns="http://www.w3.org/2000/svg" viewBox="0 0 250 350">
  <defs>
    <style>
      .uuid-92e9b2df-3342-43e3-be47-0718bf9c3589 {
        fill: #c8102e;
      }

      .uuid-92e9b2df-3342-43e3-be47-0718bf9c3589, .uuid-653a7f4a-356b-438b-b7a6-7137a31b5ed9 {
        stroke-width: 0px;
      }

      .uuid-653a7f4a-356b-438b-b7a6-7137a31b5ed9 {
        fill: #fff;
      }
    </style>
  </defs>
  <g id="uuid-3167d5da-b3e1-4e35-aeed-8901fe8debfb" data-name="DIAMOND-7">
    <path id="uuid-730b168f-0602-46da-b318-a811dbf915ac" data-name="rect6826-9" class="uuid-653a7f4a-356b-438b-b7a6-7137a31b5ed9" d="m11.9-.01h226.08c6.6,0,11.96,5.36,11.96,11.97v326.05c0,6.61-5.35,11.97-11.96,11.97H11.9c-6.6,0-11.96-5.36-11.96-11.97V11.96C-.05,5.35,5.3-.01,11.9-.01Z"/>
    <path id="uuid-8ab93f31-be09-4aef-b20a-ca3066c155bd" data-name="path6858-4" class="uuid-92e9b2df-3342-43e3-be47-0718bf9c3589" d="m19.23,78.53c-2.42-4.01-4.97-7.9-8.15-11.22,3.18-3.33,5.73-7.22,8.15-11.22,2.42,4.01,4.97,7.9,8.15,11.22-3.18,3.33-5.73,7.22-8.15,11.22Z"/>
    <path id="uuid-44d371c0-b03b-4269-8773-360077a01d85" data-name="path6860-1" class="uuid-92e9b2df-3342-43e3-be47-0718bf9c3589" d="m182.91,90.56c-5.81-9.61-11.92-18.96-19.55-26.94,7.64-7.98,13.75-17.33,19.55-26.94,5.81,9.61,11.92,18.96,19.55,26.94-7.64,7.98-13.75,17.33-19.55,26.94Z"/>
    <path id="uuid-4f8eca39-423e-43d2-908d-fd715556f71a" data-name="path6862-0" class="uuid-92e9b2df-3342-43e3-be47-0718bf9c3589" d="m230.66,293.89c-2.42-4.01-4.97-7.9-8.15-11.22,3.18-3.33,5.73-7.22,8.15-11.22,2.42,4.01,4.97,7.9,8.15,11.22-3.18,3.33-5.73,7.22-8.15,11.22Z"/>
    <path id="uuid-105ec9a6-b644-4dd7-ac68-77c9b5f50d8c" data-name="path6864-5" class="uuid-92e9b2df-3342-43e3-be47-0718bf9c3589" d="m66.97,90.56c-5.81-9.61-11.92-18.96-19.55-26.94,7.64-7.98,13.75-17.33,19.55-26.94,5.81,9.61,11.92,18.96,19.55,26.94-7.64,7.98-13.75,17.33-19.55,26.94Z"/>
    <path id="uuid-da2580b7-6392-48ef-a235-4216703ead5e" data-name="path6870-5" class="uuid-92e9b2df-3342-43e3-be47-0718bf9c3589" d="m124.94,146.23c-5.81-9.61-11.92-18.96-19.55-26.94,7.64-7.98,13.75-17.33,19.55-26.94,5.81,9.61,11.92,18.96,19.55,26.94-7.64,7.98-13.75,17.33-19.55,26.94Z"/>
    <path id="uuid-516ce9df-aa70-45da-affe-445dc6c99014" data-name="path6874-1" class="uuid-92e9b2df-3342-43e3-be47-0718bf9c3589" d="m66.97,201.89c-5.81-9.61-11.92-18.96-19.55-26.94,7.64-7.98,13.75-17.33,19.55-26.94,5.81,9.61,11.92,18.96,19.55,26.94-7.64,7.98-13.75,17.33-19.55,26.94Z"/>
    <path id="uuid-64246c27-a27a-4a1e-8837-cabc35956978" data-name="path6876-6" class="uuid-92e9b2df-3342-43e3-be47-0718bf9c3589" d="m182.91,201.9c-5.81-9.61-11.92-18.96-19.55-26.94,7.64-7.98,13.75-17.33,19.55-26.94,5.81,9.61,11.92,18.96,19.55,26.94-7.64,7.98-13.75,17.33-19.55,26.94Z"/>
    <path id="uuid-a9fb734d-a23c-4c53-b432-0de50e3c41bd" data-name="path6880-5" class="uuid-92e9b2df-3342-43e3-be47-0718bf9c3589" d="m66.97,313.29c-5.81-9.61-11.92-18.96-19.55-26.94,7.64-7.98,13.75-17.33,19.55-26.94,5.81,9.61,11.92,18.96,19.55,26.94-7.64,7.98-13.75,17.33-19.55,26.94Z"/>
    <path id="uuid-1d38b2ef-7dc3-429f-b5c7-3a5ebd78c695" data-name="path6882-9" class="uuid-92e9b2df-3342-43e3-be47-0718bf9c3589" d="m182.91,313.3c-5.81-9.61-11.92-18.96-19.55-26.94,7.64-7.98,13.75-17.33,19.55-26.94,5.81,9.61,11.92,18.96,19.55,26.94-7.64,7.98-13.75,17.33-19.55,26.94Z"/>
    <path id="uuid-24cc835c-4a10-4b39-8485-1d8682463402" data-name="path25-43-4-8-8" class="uuid-92e9b2df-3342-43e3-be47-0718bf9c3589" d="m13.55,52.56c2.43-12.88,5.02-22.55,11.81-33.04h-13.81v4.52h-3.67v-8.51h20.2l2.49,4c-7.22,7.89-13.82,33.41-12.65,33.04h-4.38Z"/>
    <path id="uuid-af39148d-a2a2-4b92-9cb2-29a028189157" data-name="path25-7-0-7-6" class="uuid-92e9b2df-3342-43e3-be47-0718bf9c3589" d="m236.34,297.41c-2.43,12.88-5.02,22.55-11.81,33.04h13.81v-4.52h3.67v8.51h-20.2l-2.49-4c7.22-7.89,13.82-33.41,12.65-33.04h4.38Z"/>
  </g>
</svg>