<?xml version="1.0" encoding="UTF-8"?>
<svg id="uuid-49aa028e-720c-4d02-804c-0ec5b9567b0a" data-name="Cards" xmlns="http://www.w3.org/2000/svg" viewBox="0 0 250 350">
  <defs>
    <style>
      .uuid-996ab3e2-1ae1-4b00-9b45-d236f220b04e {
        fill: #c8102e;
      }

      .uuid-996ab3e2-1ae1-4b00-9b45-d236f220b04e, .uuid-3cf6ec7d-8f64-4b60-bc1f-1ab928d42b75 {
        stroke-width: 0px;
      }

      .uuid-3cf6ec7d-8f64-4b60-bc1f-1ab928d42b75 {
        fill: #fff;
      }
    </style>
  </defs>
  <g id="uuid-497ba458-d21d-43cb-a3a7-0bcc917c86da" data-name="DIAMOND-4">
    <path id="uuid-b0169d14-9dd5-48de-9117-a46ddd3fbf43" data-name="rect6622-5" class="uuid-3cf6ec7d-8f64-4b60-bc1f-1ab928d42b75" d="m11.93-.01h226.08c6.6,0,11.96,5.36,11.96,11.97v326.06c0,6.61-5.35,11.97-11.96,11.97H11.93c-6.6,0-11.96-5.36-11.96-11.97V11.96C-.03,5.34,5.33-.01,11.93-.01Z"/>
    <path id="uuid-c2258ac0-8ba7-4177-a24e-563f4443ecf8" data-name="path6654-0" class="uuid-996ab3e2-1ae1-4b00-9b45-d236f220b04e" d="m19.26,78.53c-2.42-4.01-4.97-7.9-8.15-11.22,3.18-3.33,5.73-7.22,8.15-11.22,2.42,4.01,4.97,7.9,8.15,11.22-3.18,3.33-5.73,7.22-8.15,11.22Z"/>
    <path id="uuid-44a614c4-96e3-467e-92ae-48d006740026" data-name="path6656-6" class="uuid-996ab3e2-1ae1-4b00-9b45-d236f220b04e" d="m182.95,90.56c-5.81-9.61-11.92-18.96-19.55-26.94,7.64-7.98,13.75-17.33,19.55-26.94,5.81,9.61,11.92,18.96,19.55,26.94-7.64,7.98-13.75,17.33-19.55,26.94Z"/>
    <path id="uuid-f32c7fab-dc14-4136-8259-7dea52da83fc" data-name="path6658-8" class="uuid-996ab3e2-1ae1-4b00-9b45-d236f220b04e" d="m230.69,293.89c-2.42-4.01-4.97-7.9-8.15-11.22,3.18-3.33,5.73-7.22,8.15-11.22,2.42,4.01,4.97,7.9,8.15,11.22-3.18,3.33-5.73,7.22-8.15,11.22Z"/>
    <path id="uuid-b25a1785-3531-4f69-ad35-99438fa4c7cd" data-name="path6660-7" class="uuid-996ab3e2-1ae1-4b00-9b45-d236f220b04e" d="m67,90.56c-5.81-9.61-11.92-18.96-19.55-26.94,7.64-7.98,13.75-17.33,19.55-26.94,5.81,9.61,11.92,18.96,19.55,26.94-7.64,7.98-13.75,17.33-19.55,26.94Z"/>
    <path id="uuid-60f5b1a3-be3b-4bf6-aecd-bfb14c17ebe1" data-name="path6676-4" class="uuid-996ab3e2-1ae1-4b00-9b45-d236f220b04e" d="m67,313.29c-5.81-9.61-11.92-18.96-19.55-26.94,7.64-7.98,13.75-17.33,19.55-26.94,5.81,9.61,11.92,18.96,19.55,26.94-7.64,7.98-13.75,17.33-19.55,26.94Z"/>
    <path id="uuid-2fa03a7c-9d79-45fc-9b92-612511180d12" data-name="path6678-8" class="uuid-996ab3e2-1ae1-4b00-9b45-d236f220b04e" d="m182.95,313.3c-5.81-9.61-11.92-18.96-19.55-26.94,7.64-7.98,13.75-17.33,19.55-26.94,5.81,9.61,11.92,18.96,19.55,26.94-7.64,7.98-13.75,17.33-19.55,26.94Z"/>
    <path id="uuid-38a3fce2-00ed-4c13-936e-b5c54efbe21a" data-name="path19-3-1-9-0" class="uuid-996ab3e2-1ae1-4b00-9b45-d236f220b04e" d="m19.51,52.55v-3.27h2.95v-5.4H7.72v-3.81l15.94-24.56h2.6v24.56h4.51v3.81h-4.51l-.09,5.4h2.47v3.28h-9.14,0Zm2.95-28.05l-10.12,15.57h10.12v-15.57Z"/>
    <path id="uuid-e2fe3299-1c0b-4c47-9ac1-f47626b747b9" data-name="path19-4-46-7-7" class="uuid-996ab3e2-1ae1-4b00-9b45-d236f220b04e" d="m230.43,297.41v3.27h-2.95v5.4h14.74v3.81l-15.94,24.56h-2.6v-24.56h-4.51v-3.81h4.51l.09-5.4h-2.47v-3.28h9.14,0Zm-2.95,28.05l10.12-15.57h-10.12v15.57Z"/>
  </g>
</svg>