<?xml version="1.0" encoding="UTF-8"?>
<svg id="uuid-510b5581-367f-4c30-b94c-e479acd46dee" data-name="Cards" xmlns="http://www.w3.org/2000/svg" viewBox="0 0 250 350">
  <defs>
    <style>
      .uuid-995fcb86-447d-40c8-a5ab-7ce22b94cc8e {
        fill: #c8102e;
      }

      .uuid-995fcb86-447d-40c8-a5ab-7ce22b94cc8e, .uuid-41488815-a881-4ebe-805f-b837ffec763d {
        stroke-width: 0px;
      }

      .uuid-41488815-a881-4ebe-805f-b837ffec763d {
        fill: #fff;
      }
    </style>
  </defs>
  <g id="uuid-1837c74b-68ec-4daa-8552-168238a658f9" data-name="DIAMOND-1">
    <path id="uuid-c551852b-7700-429c-a1c9-e6d923fe6b9d" data-name="rect6367-6" class="uuid-41488815-a881-4ebe-805f-b837ffec763d" d="m11.96-.01h226.08c6.6,0,11.96,5.36,11.96,11.97v326.06c0,6.61-5.35,11.97-11.96,11.97H11.96C5.36,349.98,0,344.62,0,338.01V11.96C0,5.35,5.36-.01,11.96-.01Z"/>
    <path id="uuid-95d0aadd-c9d5-4fdc-93a8-82e5d6918182" data-name="path6399-9" class="uuid-995fcb86-447d-40c8-a5ab-7ce22b94cc8e" d="m19.29,78.53c-2.42-4.01-4.97-7.9-8.15-11.22,3.18-3.33,5.73-7.22,8.15-11.22,2.42,4.01,4.97,7.9,8.15,11.22-3.18,3.33-5.73,7.22-8.15,11.22Z"/>
    <path id="uuid-9a769197-d921-4e1d-821d-599bda12ac13" data-name="path6403-1" class="uuid-995fcb86-447d-40c8-a5ab-7ce22b94cc8e" d="m230.72,293.89c-2.42-4.01-4.97-7.9-8.15-11.22,3.18-3.33,5.73-7.22,8.15-11.22,2.42,4.01,4.97,7.9,8.15,11.22-3.18,3.33-5.73,7.22-8.15,11.22Z"/>
    <path id="uuid-41c3d02b-f33a-4874-aa8c-29d5c37ee572" data-name="path6413-1" class="uuid-995fcb86-447d-40c8-a5ab-7ce22b94cc8e" d="m125,201.92c-5.81-9.61-11.92-18.96-19.55-26.94,7.64-7.98,13.75-17.33,19.55-26.94,5.81,9.61,11.92,18.96,19.55,26.94-7.64,7.98-13.75,17.33-19.55,26.94Z"/>
    <path id="uuid-93e89820-255e-49af-91d8-0c1aa755c32d" data-name="path41-87-9-4-8" class="uuid-995fcb86-447d-40c8-a5ab-7ce22b94cc8e" d="m7.98,52.56v-3.17h3.02l6.42-33.87h3.66l7.08,33.87h2.43v3.17h-8.3v-3.17h2.24l-.89-5.19h-8.37l-.65,5.19h2.24v3.17H7.98Zm14.94-12.06l-3.64-18.13-3.41,18.13h7.05Z"/>
    <path id="uuid-6a8ddb86-352c-4a0d-8d76-493ec5926249" data-name="path41-8-5-6-1" class="uuid-995fcb86-447d-40c8-a5ab-7ce22b94cc8e" d="m219.41,297.41v3.17h3.02l6.42,33.87h3.66l7.08-33.87h2.43v-3.17h-8.3v3.17h2.24l-.89,5.19h-8.37l-.65-5.19h2.24v-3.17h-8.88Zm14.94,12.06l-3.64,18.13-3.41-18.13h7.05Z"/>
  </g>
</svg>