<?xml version="1.0" encoding="UTF-8"?>
<svg id="uuid-3e302050-2241-40d2-a6bf-be67d0b64e52" data-name="Cards" xmlns="http://www.w3.org/2000/svg" viewBox="0 0 250 350">
  <defs>
    <style>
      .uuid-2e0a40e7-61c6-4068-b879-e16902615c64 {
        fill: #100f08;
      }

      .uuid-2e0a40e7-61c6-4068-b879-e16902615c64, .uuid-7fd1d725-4aaf-43ea-b90c-b614d0962852, .uuid-1281cd3c-e67a-4766-bae5-63778fddac97, .uuid-23106996-13d7-473b-bf8e-554d3480b121, .uuid-ba816220-64d0-4800-a89a-9189b6f888f4 {
        stroke-width: 0px;
      }

      .uuid-7fd1d725-4aaf-43ea-b90c-b614d0962852 {
        fill: #c8102e;
      }

      .uuid-1281cd3c-e67a-4766-bae5-63778fddac97 {
        fill: #fff;
      }

      .uuid-23106996-13d7-473b-bf8e-554d3480b121 {
        fill: #ffcd00;
      }

      .uuid-ba816220-64d0-4800-a89a-9189b6f888f4 {
        fill: #004c97;
      }
    </style>
  </defs>
  <g id="uuid-c22c9949-abc0-4997-8baa-099fb7aa914f" data-name="DIAMOND-13-KING">
    <path id="uuid-435ce2de-774d-41bf-a2aa-b6f915a2a257" data-name="rect7234-2" class="uuid-1281cd3c-e67a-4766-bae5-63778fddac97" d="m237.89,349.97H11.83c-6.6,0-11.96-5.36-11.96-11.97V11.97C-.13,5.36,5.22,0,11.83,0h226.06c6.6,0,11.96,5.36,11.96,11.97v326.03c0,6.61-5.35,11.97-11.96,11.97Z"/>
    <path id="uuid-5916c153-e0c1-4e21-8e2d-9d364a880098" data-name="path6351-0" class="uuid-ba816220-64d0-4800-a89a-9189b6f888f4" d="m33.44,27.3v295.36h182.81c-.1-89.09.06-198.33,0-295.36H33.44Zm51.58,2.47c32.25.02,62.78.04,96.02.2-2.97,7.09-11.06,19.88-16.13,30.15,1.23,3.16-.29,3.7.35,4.45,1.03,1.76.28,4.22-1.89,4.77-9.4,1.01-19.43-1.59-27.72-4.77-12.67-4.87-23.36-6.19-36.2-5.05,0,0-1.06-.12-1.53-2.61-4.23-13.06-8.87-18.53-12.9-27.12Zm-49.24.36h47.66s2.25,4,6.95,13.2c1.99,3.9,3.67,5.55,3.84,8.63-.18,1.81.65,3.87,2.13,4.7.49.28,1.32-.06,1.05.72-.3.85.63,2.17.88,2.45.29.49.11.61.14,2.45.03,1.78.12,2.52.5,3.86.95,3.39,1.17,5.08.62,6.84-1.42,4.46-2.9,7.87-4.81,12.03-1.11,2.43-.94,3.38,2.47,5.15,2.55,1.32,2.89,1.31,2.57,3.24-.15.9-.29,1.48-.1,1.91.11.27.54.64.79.85.33.29.23.88-.11,1.32-.33.43-.34,1.05,0,2.08,1.08,2.65-1.93,6.36-5.32,7.68-.98-3.5-5.93-4.72-8.81-2.47-2.51,1.97-2.92,4.26-2.25,7.31-6.11,3.71-12.78,8.07-19.35,11.37-.8-1.63-1.06-3.03-1.56-4.79-.43-1.51-.38-1.62-.22-4.56.15-2.65.23-3.27-.39-3.44-3.52-.39-4.33.87-5,3.16-.29,1.01-.85.81-1.2.38-1.34-2.46-3.04-5.02-4.15-6.76-1.39-2.23-3.74-3.34-4.97-2.29-.26.87-.47.89-2.03.54-1.89-.43-2.96.63-3.14,2.03-.07.56.33.53-.68,1.09-2.51,1.87-1.55,4.42-1.18,5.96-.03-.08-1.07.64-1.09,2.08-.12,7.47,6.31,18.24,6.16,17.96l-9.39,5.67V30.13Zm147.19,0h30.52v5.55l-15.01,15.44v11.36c-8.05-2.03-11.37-11.12-12.03-17.42-14.91,13.72-14.54,34.36-.45,47.32,1.62-6.55,7.98-16.32,12.48-16.26v40.87l-8.95-9.04-18.24.14c3.11-3.58,1.44-11.71-.25-16.12-3.19-8.29-7.75-21.86-7.4-22.06,0,0,2.63-.68,2.86-2.36.35-2.49-.72-2.3.82-4.55.35-.51.12-1.46-.25-2.22-.25-.56-.48-1.39-.02-2.04l15.93-28.6Zm31.54,6.11l-.03,94.26c-1.11,7.65-.62,15.48-.69,23.2l-7.51,3.99-28.14-37.18s1.13-1.68,1.65-1.98c-.6-1.35-2.59,2.02-2.76,2.56,10.21,12.75,29.19,37.71,29.19,37.71l7.9-4.16c.03,7.66-.17,15.43-.23,23.02-13.81,7.99-22.04,20.92-27.95,34.16-5.48,1.8-11.22,4.35-16.72,6.64l7.92,11.98-3.14,1.71c-35.23-53.71-20.12-91.49,8.01-122.94l5.18-.09,12.08,11.31-.22-68.72c5.03-5.28,10.61-10.05,15.47-15.49h0Zm-28.98,11.48c.23.8.71,2.77.76,2.72-8.28,8.68-12.18,22.92-.19,37.52-.06-.06-.27,1.05-.6,2.3-12.89-12.69-10.98-32.58.03-42.53h0Zm1.25,3.63c2.15,6.4,7.42,10.39,7.42,10.39-1.99,4.44-3.17,9.08.55,14.95-3.46,3.15-6.32,6.61-7.92,10.74-11.62-13.59-7.89-27.77-.05-36.07h0Zm-77.63,8.35c5.49.03,11.79.65,15.94,2.26,1.7,12.84,10.69,31.89,9.54,36.81-2.3-3.5-11.95-2.57-9.05,7.21,0,0-.79,1.19-2.36,2.8-4.05,4.14-5.05,4.83-3.13,1.18,1.48-2.8,3.36-6.47,3.41-7.17.03-.57-.4-.69-.74-.24-.25.33-.55,1.15-.82,1.77-2.41,5.7-6.54,10.83-9.39,12.07-.73.32-.7-.02-.19-.65,3.35-4.2,5.9-8.08,7.72-13.15.08-.52-.65-.74-.89-.25-3.14,6.63-4.08,8.14-7.94,12.81-1.52,1.84-2.93,2.76-4.06,2.66-.97-.09-.69-.25.22-1.22.69-.74,1.71-1.77,3.35-3.86,2.9-3.68,5.82-9.68,4.75-9.36-.19-.5-1.1,1.09-1.88,2.61-2.12,3.59-4.38,8.34-9.42,11.46-1.05.44-2.2.69-3.22.7-1.39,0-.58-.41,2.45-2.53,2.96-2.07,7.84-8.61,8.41-11.04.26-1.1-.44-1.19-1.22.33-3.59,6.96-10.39,13.33-16.62,13.04-3.05-.14-4.7-.97-2.17-1.33,6.92-.86,12.09-4.83,16.62-12.76,0-.18-.41-.17-.88.14-4.14,5.11-9.21,12.07-17.41,11.52-5.91-.36-7.11-7.99-2.16-10.33,4.3-2.03,8.16,3.5,4.55,6.34-.68.59-1.79.25-1.79.25,0,0,.39.04,1.1-.54,2.63-2.13-.36-6.31-3.5-4.73-1.76.74-2.47,3.28-.92,5.2,3.45,4.27,10.89,1.02,16.07-5.87.54-.73,1.01-2.3.55-2.13-.8.33-1.29.97-1.76,1.68-1.85,2.58-3.27,3.88-5.77,5.27-.92.51-1.94.72-1.94.72.6-.44.81-1.46.93-2.43,0,0,.51-.52.97-.81,3.21-2.09,5.11-5.08,5.19-6.93.06-1.35-.93-3.12.14-3.48,1.81-.86,6.74-.16,8.07,1.55.96,1.23,1.33.52.61-1.48-.47-1.32-.45-2.07-1.17-1.93-.91.48-1.53.37-3.28-.6-.85-.47-2.35-.9-3.26-1.11-1.67-.39-2.02-.23-1.98-.95.01-.22-.06-.85-.01-1.24.27-2.19-1.55-2.94-4.02-4.37-1.45-.84-.87-1.71.8-5.88.87-1.89,1.61-4.42,2.68-6.34,1-2.15,1.09-4.51.44-7.19-1.2-4.98-2.06-7.51.08-7.96,2.06-.31,5.06-.51,8.35-.49h0Zm85.35,2.4c1.97,1.07,2.85,1.17,3.98,1.57v11.2c-1.52.27-2.74.9-3.58,1.23h0c-3.83-4.75-2.29-11.69-.4-14h0Zm-67.98.13l1.93.58c1.94,12.4,7.78,23.94,9.67,35.34,1.98,8.71-8.3,13.57-11.75,6.05-.91-1.99.14-4.52,2.46-5.7,3.76-1.92,7.81,3.19,4.84,6-2.25,2.13-5.58.55-4.85-2.18.47-1.78,3.14-1.89,3.58-.1.12.6.42,1.19.63.86,1.38-3.27-3.27-4.81-5.2-1.76-1.14,2.44,1.03,5.59,4.24,4.99,4.4-.82,4.81-7.18,3.03-13.76-3.06-11.34-7.98-21.5-8.59-30.33h0Zm3.34,1.08l2.01.73c2.18,9.87,5.83,20.06,8.22,28.75,1.61,5.9,3.41,12.67-2.95,15.54l-1.83-.04s.55-.3,1.85-1.7c7.21-6.64-4.49-25.39-7.19-42.46-.03-.18-.11-.83-.11-.83h0Zm-21.16.61c-3.23-.08-6.35.91-6.1,2.32.17.98.89,1.22,3.4.9,5.53-1.08,10.85,1.2,14.89,3.73,1.09.69,1.65,1.12,1.88,1.14.18,0,.28-.24.05-.52-3.08-3.89-8.92-7.41-14.11-7.56h0Zm24.8.52l2.06.84c1.87,10.4,6.49,21.18,8.71,30.53,1.31,5.49.94,8.96-2.09,11.95-.76.59-.95.65-.95.65h-1.82c4.61-3.91,3.58-9.69,1.88-15.57-3.15-10.84-8.32-28.35-7.79-28.4Zm3.57,1.42l1.85.8c1.91,8.98,2.38,9.18,6.99,23.56,1.39,4.32,2.66,8.13,2.41,11.73-.06,2.05-1.84,6.12-3.71,6.44h-1.14c4.4-5.02,2.45-11.91.53-17.65-3.49-10.68-5.18-16.32-6.93-24.88Zm3.33,1.21l2.27.82c2.28,9.16,5.14,18.07,7.56,25.38.97,2.95,1.84,6.03,1.75,8.62-.46,3.45-1.05,4.39-3.09,6.43l-1.77.03s2.2-3.85,2.4-6c.39-4.2-.94-7.68-2.44-12.43-3.67-11.6-5.54-15.32-6.69-22.85h0Zm3.67,1.29l1.93.58c2.54,8.04,4.82,16.26,7.33,23.21,1.32,3.77,1.95,6.7,1.86,9.2-.28,3.45-1.26,4.88-2.75,6.8l-1.7.02c1.35-1.82,2.24-4.56,2.28-6.52.04-2.87-.86-5.66-1.73-8.64-2.81-9.66-5.66-16.07-7.22-24.65Zm-37.41.94c-.48.1-.86.37-.77.86.06.31.59.58,1.16.42,5.25-1.59,9.81,1.95,13.91,4.04.2.16.45.23.62.22.21-.01.3-.16.03-.44-5.25-3.05-8.7-6.36-14.94-5.12Zm40.8-.03l2.05.41c2.55,7.86,5.15,16.24,7.8,23.47,1.61,4.4,2.25,11.92-1.37,15.18l-1.95-.06c1.41-1.78,2.23-4.55,2.31-7.01.07-2.91-.61-5.78-1.65-8.74-3.05-8.67-5.35-16.13-7.2-23.25h0Zm3.66.67l1.93.26c1.46,8.22,5.26,15.97,7.46,22.91,1.13,3.25,1.92,7.24,1.51,10.29-.29,2.15-2.43,4.98-2.82,5.02-.01,0-.02,0-.03,0h-1.3s1.94-4.13,2.08-6.61c.15-2.81-.52-5.87-1.45-8.9-2.79-8.3-5.61-15.75-7.37-22.97h0Zm-47.46.16c-.33.12-.13.99.46,2.2.5,1.01.93,1.25.69,2.02-.56,1.75.24,2.1,1.28.55.78-1.22.87-1.19,1.61.38.98,1.95.52,2.85-.97,1.58-1.12-.96-1.41-.25-1.85.52-.58,1-.49,1.91.54,1.83.59-.04,1.14.23,1.61.74.91,1,2.65,2.25,4.32,2.55.55.01.37-.52-.92-1.42-3.06-2.1-3.32-2.48-.35-2.43.75.04,1.93-.49,2.6-.72,3.87-1.3,4.06-1.2,5.92-.76.62.15,1.25.41,1.52.16.42-.38.89-.64.36-1.21-.38-.42-1.1-.74-1.97-1.24-4.5-2.6-4.91-3.22-10.2-3.36-.61-.02-.92.3-1.27.31-.86.01-1.32-.2-2.19-1.01-.6-.55-.99-.74-1.18-.67Zm58.83.09c2.04,7.22,4.77,14.51,7.12,21.15,1.78,5.48,4.51,13.61-.53,17.11h0l-1.35-.03c2.46-3.31,2.79-6.17,1.92-10.3-2.89-12.51-8.38-19.71-8.99-27.79l1.84-.13Zm-8.5.09l2.26.12c1.53,8.5,5.95,14.67,8.4,25.04,1.23,4.51,2.03,9.72-2.28,12.89h-1.3s2.03-3.59,2.16-5.69c.23-3.78-1.22-7.87-2.55-12.31-2.04-6.84-5.49-13.4-6.69-20.05Zm3.26.12l2.02.03c2.23,10.03,6.87,17.2,9.3,28.25.86,4.6.12,7.45-2.73,9.65l-1.4-.04s.21-.38.74-1.3c2.55-4.65,1.15-8.94-.13-13.76-2.39-9.01-6.76-16.15-7.8-22.82Zm-45.23,4.23c-.34.89-.63,2.13-1.82,2.53-.24.08-.41-.1-.38-.18-.01-.64.43-1.96.79-2.65.11-.31.31-.35.59-.4.86-.07,1.03-.04.82.69Zm1.93.02c.6.28,1.13,1.12.75,1.4-.52.29-1.42.66-2.27.67-.38.03-.39-.13-.24-.47.25-.55.72-1.05,1.03-1.51.21-.32.64-.13.73-.09Zm-8.28,9.17c-.48.04-.49.47.54,1.11,1.41.87.72,3.16-1,3.13-.75-.01-1.26-.34-3.17-1.76-1.57-1.17-3.04-1.26-3.38.32-.2.94.11,1.36,1.11,1.11.44-.11.7.15,1.3.57,1.29.75,2.55,1.86,3.96,1.54,3.34-.93,4.03-4.24,1.87-5.61-.5-.31-.95-.44-1.24-.42Zm7.89,4.86c-.2.28.02.7.75.8,2.1.69,2.85,3.18.95,4.23-1.03.55-2.69.19-4.68-1.29-3.56-2.66-7.92-2.82-7.35-.14.14.65.42.74,3.02,1.1,2.12.29,3.07.97,4,1.47,1.45.79,2.74,1.12,3.82,1.09,4.99-.29,4.51-6.42,1.42-7.46-.7-.26-1.33-.03-1.93.2Zm-64.62,17.67c1.06-.03,1.54.82,2.06,1.54,1.93,2.7,3.31,5.37,5.28,8.43l-.26,2.86s-.52-.11-.8.03c-.57.27-.9,1.17-1.22,2.36-.52,1.03-3.57,3.39-4.74,4.65-.22.14-.4.38-.4.52.01.46,1.32.15,2.19-.85,1.27-1.14,1.82-.75,1.78.71.13,1.8,1.21.9,1.27-.86.14-1.39.62-2.23,1.58-3.01,1.82-1.46,1.51-1.09,1.43-3.13-.15-3.54,1.21-6.46,2.1-4.53.32.69.68,1.46,1.48,1.5.56.02.84.58,1.15,1.95.46,2.22,1.1,3.65,1.69,5.69l-16.86,9.62c-2.94-3.43-5.06-9.16-6.16-12.88-.54-1.86-.61-3.98-.12-4.27.48-.29.7.02.61,1.13-.07.92-.1,1.64.29,1.63,1.14-.3,1.18,1.44,1.07,1.85-.08.27-.22.47-.28.61-.28.67.45.58,1.21.59.67-.02.85.39.81,1.04.02.71.96.57,1.49.03.49-.49.38-1.08-.28-1.48-.95-.58-1.84-2.02-4.05-6.98-1.28-2.88-.9-4.92.63-4.9,1.06.03,2.29,2.96,3.29,5.11.26.56-.39,1.18-.62,1.48-.59.77-.5,1.02.37,1.03.81.01,1.16-.06,1.65.95.18.38.32.96.25,1.33-.42,1.12.44,1.39,1.28.96,1.05-.44,1.04-1.39-.56-2.94-1.03-1.71-.76-1.59.22-2.74.2-.41.08-.66-.35-.66-1.24.38-2.6-1.87-2.23-2.65.38-.33,1.42-1.53.41-1.3-2.05.56-3.29-2.46-2.09-3.48,1.8-.91,2.22-.63,4.99,4.95.86,1.73,1.9,3.59,2.02,3.78.13.19.18.7.18,1.11-.12,1.01.31,1.24,1.18.84.65-.16,1.24-.7.42-1.21-.97-1.68-1.31-1.95-.78-2.37,1.21-.97.68-.93-.67-1.2-.66-.2-1-.54-1.18-.96-.7-1.58-1.94-3.81-2.06-4.27-.41-1.16.33-1.68,1.34-1.63h0Zm77.33.77c2.17.92,4.1,1.8,5.83,2.63-5.37,10.63-11.67,14.46-22.75,19.17l1.03,4.75c11.8-4.43,19.31-9.74,25.23-20.04,7.19.1,36.29.31,36.32.22-11.87,13.61-21.23,34.13-22.26,50.14-.25,3.12.18,1.62-1.19,2.55l-2.15,2.58-1.69-2.54s-1.22-1.57-1.99-.26c-2.17,22.32.13,47.77,10.79,65.5-1.89.13-3.78.18-5.59-.9-4.17-9.52-6.63-21.29-7.7-30.11-1.35-11.16-1.16-23.76.21-34.45l-.71-.1c-2.08,13.9-1.38,28.68.53,41.6.98,6.74,4.13,17.28,6.3,22.15.6,1.34,1.06,1.69.5,1.89-13,1.1-18.98,5.47-23.65,12.45-1.92-1.23-4.28-2.74-7-3.49,5.85-10.62,15.26-16.31,23.14-18.54-.27-1.36-.46-2.71-1.76-3.55.05.21.62,2.62.49,3.12-10.85,2.79-20.4,13.5-22.84,19.03l-47.67.52c35.34-34.17,36.75-82.26,7.92-122.57l3.32-1.95c22.22,33.55,21.99,65.87,15.33,87.51-4.73,15.35-13.2,27.07-19.65,33.77,0,0,25.85.36,38.71-.12,1.87-2.88,3.61-5.24,6.12-7.96,0,0-6.54,6.36-6.37,7.47-11.92.01-24.22.7-36.12-.14,13.93-16.81,20.8-34.16,21.99-50.48.04-2.12.17-.93.87-1.72l2.2-3.44,1.76,3.58c1.2.39,3.56-.24,4.56.13,4.9-22.04-.05-48.65-6.5-66.01,3.51-1.12,7.38-.07,11.63-2.23.27-.31.75-.74,1.3-1.04,5.29-1.94,11.51-9.21,11.51-9.1h0Zm-36.61.23c1.04,0,1.88.85,1.88,1.89s-.84,1.89-1.88,1.89-1.88-.85-1.88-1.89.84-1.89,1.88-1.89Zm43.83,2.15h47.04c-18.07,19.6-26.35,36.15-27.65,58.55-1.24,21.33,4.14,40.81,20.49,64.25l-3.38,2.25c-27.93-42.58-26.68-87.8,4.49-122.08l-39.44.06c-5.02,9.98-13.38,16.07-24.08,19.82l-.93-3.14c12.3-3.98,18.52-10.58,23.47-19.72h0Zm-71.81,2.63c.54.24.23,3.12-.5,3.12-.8,0-1.85-2.44-1.22-2.92.56-.44,1.16-.44,1.72-.2h0Zm22.8,1.28c.48.87,1.13,1.34,1.73,1.94-.97-.07-2.1-.56-2.99-1.04.6-.36.86-.46,1.26-.9h0Zm2.6,4.26l5.82,2.25-1.05,6.31-5.88-2.36,1.1-6.2Zm14.27,2.4c7.84,20.31,9.55,45.33,6.49,65l-2.04-.08c3.35-33.32-3.23-50.18-9.06-64.84,0,0,.01-.59.21-.76,1.57-.58,3.2-.54,4.41.68Zm-26.52-.79c38.73,54.42,14.04,100.96-8.53,122.72l-4.62.25c3.81-3.47,6.86-7.07,10.08-10.91-9.51-13.18-20.07-27.46-28.96-38.88,0,0-3.08,1.84-3.06,2.06.01.12.25.73.3.59.13-.32,2.49-1.65,2.49-1.65l28.12,37.19s-1.52,1.84-2,2.42c-2.18.72-8.26,8.31-8.56,8.16-4.76-3.68-19.13-19.27-24.66-24.05l-.07-43.27c.57-1.73,15.89-8.4,26.7-33.3,5.44-3.07,11.47-4.72,17.07-7.4,0,0-1.43-2.26-2.12-2.88.86,1.86,1.01,2.22-.93,3.01l-40.48,16.63.08-3.36c4.06-3.16,30.9-22.73,39.15-27.36h0Zm-23.23,1.24c-1.39.93-4.41,4.15-4.56,4.43-.35.69.01.83.15.67,1.66-1.26,3.18-2.68,4.99-3.76.68-.4,1.47-1.44,1.47-1.72-.27-.37-1.43-.03-2.04.38h0Zm40.78,7l5.24,2.38-1.34,6.25-5.1-2.48,1.2-6.14Zm4.08,9.86l4.6,3.28-2.17,5.05-4.36-2.98,1.93-5.35Zm-13.47,3.14c-4.75,11.9-8.64,19.87-17.91,32.54,5.7,7.53,22.05,29.24,22.64,29.01h.01c7.05-22.1,4.93-43.19-4.74-61.55h0Zm-22.02.97c.05.01-3.54,7.77-9.69,15.67-5.48,7.03-15.12,14.96-15.14,14.9l-.25-4.06.99,1.48,1.82-1.41-1.27-1.7-1.59,1.25-.1-1.63c10.1-7.36,14.46-15.81,18.56-22.15l1.82-.78,2.07.66,1.02-1.81,1.76-.42Zm-5.6,2.54l-.88,1.78,2.05,1.06,1.07-1.86-2.23-.97Zm-2.41.2c-4.69,8.06-10.23,15.54-17.99,21.47l-.09-14.43,18.08-7.04Zm1.07,2.44l-1.07,1.89,2.02,1.14,1.07-1.86-2.02-1.16Zm44.99.64l4.26,3.27-2.08,4.63-4.26-2.79,2.08-5.11Zm62.04.36c-7.32,22.1-4.6,42.82,4,61.98,5.1-10.91,10.13-22.17,18.26-30.67l-22.25-31.31Zm-108.58,1.68l-1.15,1.87,1.94,1.2,1.16-1.81-1.95-1.26Zm31.07,1.09c4.46,14.09,6.47,27.94,2.23,42.98l-16.01-20.83c5.36-6.43,9.81-14,13.79-22.16Zm-32.88,1.67l-1.27,1.81,1.94,1.27,1.25-1.75-1.92-1.33Zm-1.86,2.59l-1.33,1.69,1.81,1.4,1.33-1.68-1.81-1.41Zm52.65,1.8l3.55,3.43-2.64,4.55-3.41-3.66,2.5-4.32Zm-54.84.9l-1.44,1.6,1.74,1.52,1.44-1.6-1.74-1.52Zm116.44.66l15.87,20.21c-5.82,7.28-9.68,14.17-13.46,20.87-6.36-15.31-5.8-29.12-2.42-41.08Zm-118.63,1.76l-1.49,1.54,1.63,1.58,1.49-1.54-1.63-1.58Zm-2.32,2.43l-1.59,1.44,1.48,1.58,1.59-1.43-1.48-1.59Zm40.19.79l-7.37,10.06,8.36,10.34c.52,0,.97-13.71-.99-20.4Zm-42.61,1.4l-1.65,1.36,1.42,1.65,1.65-1.36-1.42-1.65Zm62.46.97l3.13,3.69-2.73,3.69-2.87-3.52,2.47-3.86Zm63.33,2.33c-.9,5.85-1.11,12.64,1.07,21.49l7.33-10.68-8.4-10.81Zm-19.25,2.2l2.58,4.11-2.87,3.72-2.72-3.93,3.01-3.91Zm-43.74,4.32l2.68,3.4-2.83,3.53-2.46-3.34,2.61-3.59Zm43.64,4.25l2.86,3.24-2.9,3.95-3.01-3.54,3.05-3.65Zm67.44.05c.03,1.08.03,1.28.03,1.79l-.77.55.76,1.29c-.01.66-.02,1.16-.02,2.74-5.93,4.78-12.01,9.02-18.96,22.56l-2.11,1.03.13-.38-1.94-.93-.99,1.93.68.26c-1.07.61-1.08.49-3.16,1.52,0,0,1.57-3.67,2.71-5.82,5.48-9.59,12.57-19.14,23.65-26.55h0Zm-1.73,3.07l-1.73,1.26,1.25,1.74,1.73-1.26-1.25-1.74Zm-2.86,2.14l-1.66,1.36,1.34,1.67,1.66-1.36-1.35-1.67Zm-2.5,2.07l-1.58,1.46,1.45,1.59,1.57-1.46-1.44-1.59Zm7.61.13l.31,13.33-18.33,7.77c4.03-9.08,10.08-16.07,18.02-21.1h0Zm-68.08.87l3.65,3.36-2.32,4.54-3.6-3.44,2.27-4.46Zm57.88,1.43l-1.48,1.55,1.54,1.49,1.48-1.55-1.54-1.49Zm-2.43,2.61l-1.38,1.64,1.62,1.39,1.38-1.63-1.62-1.39Zm-2.2,2.65l-1.32,1.7,1.68,1.33,1.32-1.7-1.68-1.33Zm-51.73,2.37l4.11,3.43-2.48,4.64-4.01-3.84,2.38-4.23Zm49.76.21l-1.2,1.78,1.76,1.21,1.2-1.78-1.76-1.22Zm-1.77,2.66l-1.12,1.83,1.82,1.13,1.12-1.83-1.82-1.13Zm18.27,1.8v3.22s-30.27,11.31-41.16,17.56c0,0-.26-.39-1.66-2.53,14.4-5.75,29.47-13.34,42.82-18.25h0Zm-19.93.85l-1.07,1.86,1.85,1.08,1.07-1.86-1.85-1.08Zm-1.6,2.91l-1.07,1.86,1.85,1.08,1.07-1.86-1.85-1.08Zm-42.7.71l4.46,3.09-2.06,5.35-4.43-3.25,2.02-5.2Zm63.92,5.12v109.8h-48.64l-11.19-20.45c.33-1.59-.16-2.72-.71-3.71-.3-.49-.52-1.15-.58-1.77q-.11-1.01-1.58-2.35c-.31-.28-.37-.45-.25-.74.49-1.24.2-3.77-.76-6.79-1.21-3.82-1.53-3.77.73-8.87.47-1.07,1.04-2.49,1.66-3.8,2.79-5.78,3.22-7.35-1.57-10.43-1.35-.87-1.75-1.62-1.41-3.35.27-1.36.32-2.23-.33-2.99-.42-.5-.8-.58-.7-.96.07-.26.38-1.39.28-2.34-.28-2.56,2.67-6.31,5.33-7.66.19-.1.59-.22.59-.22,0,0,.2.48.41.84,2.78,4.9,9.68,2.91,10.14-2.93.12-1.54-.09-2.15-.09-2.15,8.42-5.06,13.68-8.51,19.68-11.98,2.62,4.59,1.69,8.66,1.15,12.63.05.69.64.81,1.52.82,1.49.02,3.65-1.51,4.11-2.93.4-1.21.65-1.99,1.01-1.99.36.01.54.49,1.44,2.24,1.87,3.63,2.16,4.09,3.92,6.2,1.4,1.68,2.59,1.9,3.96.65.95-.87.92-.11,1.73.33,1.4.96,3.5.1,3.55-1.25.04-1.13.05-1.98,1.19-2.06,1.27-.08,1.82-1.73,1.46-4.09-.19-1.24-.23-1.44.15-1.89,1.23-1.48,1.39-2.5.71-4.57-1.92-5.89-4.71-9.86-7.33-15.22,0,0,6.46-3.8,10.41-6.02h0Zm-60.94,4.59l5.44,3.07-1.57,5.86-5.39-2.8,1.52-6.13Zm56.84,16.68c1.16,2.54.03,4.21-1.47,2.17-.58-.79-.28-1.3,0-2.84.05-.28-.2-.17-.69-.25-.76.08-1.12-.6-1.09-1.76.48-1.66-.18-.76-.5-.68-.6-.01-.73-.37-1.07-1.06-.21-.97-.63-.69-1.25-.05-.51.53-.51.52.52,1.76,1.78,1.94,4.24,6.33,4.88,9,.18.74.11,1.32-.02,1.72-.8,1.82-1.92,1.83-3.14-.72-.21-.43-.62-1.13-.91-1.55-.47-.68-.76-1.27-.74-2.36.36-.91.42-.93.11-1.06-.77-.31-2.15-1.72-2.21-2.98-.06-1.28-.28-1.96-1.28-1.2-1.14.87-.65,1.22.47,2.33,1.18,1.41,1.25,2.64.55,3.66-.11.34-.07.44.37.4,1.37-.13,2.7,1.61,1.75,2.94-.44.78-.39.98.23,1,.32.01.85-.05,1.12.1.4.76,1.25,1.83,1.24,2.71-.4,1.23-1.01,1.72-1.67,1.72h-.01c-.74-.01-1.52-.67-2.08-1.62-1.3-2.21-2.88-5.93-3.89-7.98-.25-.52-.26-.98-.25-1.22-.08-1.2-.48-1.65-1.19-1.11-.7.53-1.66,1.42-.53,1.56,1.14.86,1.77,2.13,1.07,2.91-.52.57-.32.94.1.96,1.6.02,3.97,4.81,2.85,5.84-1.51,1.39-3.19-.33-6.75-7.45-1.57-3.14-1.64-6.58-.3-4.88.46.43.36.21.9-1.15.4-1.02.73-1.5,2.27-2.99,1.87-1.81,3-3.25,3.05-3.56.08-.6-1.01-.04-1.81,1.01-1.78,1.75-1.84,2.22-1.83-.1.01-2.1.12-2.48-.25-2.47-.58.02-.9,1.68-1.17,3.68-.33,1.8-1.26,2.71-2.8,3.72-.42.28-.43.47-.35,1.26.29,2.55-1.15,7.3-1.81,6.12-.09-.26-.38-.88-.53-1.32-.12-.67-.54-1.43-1.18-1.48-.8-.6-.79-.92-1.07-3.12-.25-1.5-.86-2.88-1.17-4.37,0,0,10.53-6.6,16.03-9.76,3.1,4.55,5.48,10.06,7.49,14.52h0Zm-173.96-12.6l14.28,14.15s.28,18.25.27,25.71c-.01,7.46-.12,14.92-.09,16.31.03,1.39-.07,7.29-.12,13.35-.09,12.7,1.06,11.13-1.28,13.57l-12.89,12.15-.16-95.23Zm121.08,5.29l6.9,3.21-1.29,6.74-6.59-3.14.98-6.81Zm44.19,1.54c-1.7,2.26-4.03,3.23-5.46,5.28-.22.38.01.54.35.53.3,0,1.05-.34,2.08-1.28,1.89-1.73,4.37-4.56,4.38-5.1-.48-.27-1.03.13-1.35.56h0Zm-53,6.67c1.98.06,1.28.5-.52,1.67-3.86,2.5-9.27,9.68-10.15,12.22-.21.6.03.94.41.9,3.17-5.12,7.37-10.75,12.24-13.11,2.63-1.27,5.94-1.52,7.57-.72,1.19.59.89.79-1.22.93-5.1.51-11.07,5.33-14.03,10.43-1.73,2.83-.52,2.18,1.46-.55,3.38-4.65,10.08-9.11,14.23-8.76,4.2.25,6.62,3.53,6.08,6.35-.33,1.7-1.53,3.44-3.88,3.94-4.03.85-6.66-5.58-2.98-6.79.94-.31,2.01.09,2.01.09-3.87.81-2.02,5.07.06,5.16,1.43.06,3.13-.77,3.2-3.04-.04-1.69-1.42-3.34-4.19-3.38-3.28-.05-8.32,2.33-11.37,6.72-2.17,3.35-.17,2.22,1.44-.02,1.43-1.97,5.87-4.73,6.22-4.63-.11.67-.33,1.19-.16,2.27-.07-.39-6.93,4.45-6.52,8.06.26,2.62-.12,3.42-2.82,3.39-2.02-.02-4.59-.74-5.34-1.67-.77-.92-1.63-1.21-1.25.34.62,2.53-.12,2.95,1.33,2.47,1-.33,1.89.48,2.9,1.2,1.11.79,2.51,1.13,4.18,1.07,1.25-.05,1.81.03,1.61,1.22-.14.84-.3,1.6-.06,2.15.39.89,1.95,1.81,3.72,3.12,2.09,1.55,1.7,1.64-2.74,11.96-1.87,4.33-1.87,5.22-.76,8.42,1.77,5.06,2.05,7.08-1.27,7.79-1.88.22-3.81.32-5.77.32-5.88-.01-12.01-.98-17.63-2.68-3.55-18.07-9.77-30.22-9.75-37.29,2.56,2.29,6.56,2.97,9.26-.71,1.71-2.25-.01-5.38.86-6.69,1.66-2.45,5.92-6.97,6.63-6.82.52.11.43.34-1.39,3.16-1.9,2.94-3.36,5.61-2.73,6.26.27.28.41-.31,1.83-2.79,3.33-5.83,6.26-9.44,7.42-8.97.54.22.26.7-2.2,3.99-2.79,3.71-3.56,6.03-3.29,7.06.21.79.65-.49,1.8-2.77,1.23-2.41,3.46-5.1,5.26-7.68.57-.93,1.3-1.47,2.24-1.9.7-.3,1.8-.8,2.45-.72.33.04.1.24-.35.68-3.55,3.69-6.61,7.8-8.35,11.75-.27.52.11,1.25.55.71,2.66-4.72,6.36-10.6,10.38-13.2,1.17-.59,2.21-.92,3.33-.93h0Zm-97.02,2.09l8.7,8.44,18.64-.24c-3.07,5.03-3.14,9.02-1.15,13.73,3.35,7.7,8.52,25.26,8.13,25.2,0,0-.15.38-.57.47-1.54.35-2.53,1.85-2.09,3.66.08.58.08.44-.31,1.2-1.52,2.61.29,5.44.29,5.44l-16.34,27.64h-30.18v-4.71l14.89-15.18v-11.38c5.69,2.17,10.33,10.17,11.89,16.25,14.3-10.63,14.97-34.21-.64-46.19-.13,5.2-4.28,15.43-11.25,16.18v-40.53Zm111.92.86c1.2.19,4.41,1.12,2.91,1.84l-1.36.65c-.89-.68-1.22-1.59-1.55-2.49Zm26.34,1.78c.06.37.07.73.16.79.59.38-.39,1.48-1.3,1.46-1.02,0-.86-2.57-.33-3.31.82-1.15,1.36.39,1.48,1.05h0Zm-29.54,2.49c.99,0,1.8.81,1.8,1.82s-.81,1.81-1.8,1.81-1.8-.81-1.8-1.81.81-1.82,1.8-1.82Zm-36.8,6.33c1.04,2.45.24,5.39-2.56,6.4-4.85,1.74-8.4-4.49-3.65-6.41,2.46-.99,4.8.8,3.69,2.88-.78,1.46-2.96,1.3-3.48-.21-.42-1.61-1.12-.85-.82.24.9,3.46,5.32,2.65,5.67-.54,0-3.95-4.3-4.88-6.86-2.66-1.99,1.78-2.19,4.98-1.7,7.76.68,5.78,3.93,13.28,6.23,21.84,1.15,4.27,2.82,9.37,3.41,13.76l-1.72-.49s-5.37-18.48-8.44-27.51c-2.33-7.35-4.37-16.39,4.16-18.34,2.55-.58,5.3,1.5,6.06,3.28h0Zm-11.3-3.47v.05h2.36s.01.15-1.02.92c-5.71,4.31-2.3,13.8-.15,21.1,3.76,11.65,7.12,23.57,7.07,23.56l-2.37-.92c-1.3-7.57-7.41-22.05-9.56-32.85-.6-6.49-.7-8.4,3.67-11.86h0Zm-11.25.01l1.62.04c-6.18,11.64,3.19,23.69,6.88,41.53l-2.2-.68c-2.99-13.23-14.5-34.9-6.3-40.89Zm-2.58.04h.68c-2.85,4.34-2.32,9.82-.79,15.73,2.05,7.96,6.02,16.71,7.35,24.56-.68-.38-1.65-.56-2.38-.78-2.32-10-6.56-19.84-8.49-29.15-.65-5.1.46-8.92,3.64-10.37Zm5.86,0h1.86c-1.66,2.61-2.35,4.9-2.1,8.43.72,11.86,6.73,23.37,8.9,34.3l-2.05-.76c-2.36-13.05-14.06-32.56-6.61-41.97Zm4.02.03h2.03c-2.17,2.18-3.62,2.81-3.02,10.38.96,9.72,7.33,21.88,9.56,33.89l-2.22-.85s-.59-1.75-.8-2.75c-2.16-9.67-8.04-20.54-8.73-31.85-.16-3.71.48-7.16,3.17-8.83Zm-20.61.25h1.34c-2.73,3.28-2.6,7.75-1.43,12.56,1.93,7.94,6.6,17.52,7.77,25.48l-1.94-.18c-1.94-8.53-5.72-16.82-8.18-25.36-.46-1.93-.86-4.28-.7-6.01.34-3.63,1.83-6.49,3.14-6.49h0Zm4.81.03c-2.63,3.54-3,7.22-1.8,11.98,2.46,9.78,6.19,18.31,8.03,26.42l-1.88-.35c-2.2-7.87-5.95-17.62-8.2-25.74-1.39-5-.83-11.15,2.27-12.28l1.59-.03Zm-10.18.01c-1.88,1.77-2.52,4.74-2.22,7.83.84,8.72,6.97,20.82,9.19,30.11l-2.17.45c-1.9-8.16-6.46-20.6-8.1-24.9-2.18-4.39-1.53-10.89,1.75-13.46l1.55-.03Zm3.08.02c.23,0-2.2,3.78-1.99,7.02-.06,1.73.13,3.58.61,5.41,3.05,8.79,6.06,16.76,8.39,25.14l-1.96.09c-2.69-10.43-7.88-19.77-9.14-29.66-.29-2.83.18-5.59,2.52-7.98l1.58-.03Zm8.79.01h1.96c-2.15,2.21-3.12,5.67-2.4,9.76.73,4.17,2.87,10.8,4.64,16.63,2.06,6.76,3.71,12.47,3.53,12.52l-2.22-.34c-4.18-19.35-13.35-31.38-5.51-38.56h0Zm42.49,12.55c-1.86.05-3.67,1.05-4.11,2.54-.54,1.82-.1,5.15,3.52,5.15,1.24,0,2.02-.93.47-1.21-5.54-1-1.82-6.79,2.08-3.81,3.52,3.2,8.23,3.18,8.28.91.01-.57-.02-.59-.85-.75-1.96-.37-4.89-1.27-6.01-1.84-.66-.34-1.35-.65-1.54-.69-.59-.21-1.21-.31-1.84-.29h0Zm-72.89,5.24c14.08,12.88,11.48,31.34.65,42.06l-.79-2.3c5.98-3.46,13.3-22.71-.13-36.84l.27-2.91Zm81.9.84c-2.58.05-4.65,2.45-3.04,4.98.41.64,1.41,1.19,1.85,1.17.06,0,.12-.02.16-.04.14-.08-.18-.65-.64-1.29-2.14-2.91.82-3.78,2.92-2.22,1.99,1.56,5.07,1.41,4.63-.22-.16-.58,0-.86-1.12-.88-.99-.01-1.24-.07-2.14-.68-.85-.59-1.77-.83-2.62-.81Zm-82.49,3.06c10.6,10.8,8.24,26.45.23,35.44-2.05-4.27-4.39-8.05-7.58-10.37,1.72-4.13,2.45-8.68-.45-14.82,2.04-1.13,4.87-4.12,7.8-10.25h0Zm73.88,4.27c-1.18-.03-.68.74.69,1.27,1.34.52,3,1.95,3,2.35,0,.31-.43.12-2.84.79-1.05.29-2.52.94-3.14,1.23-1.03.48-1.07.47-2.68.42-2.73-.08-3.15.01-1.23,1.45,3.87,2.9,9.04,4.79,11.79,3.58.83-.36.81-.14,1.41.21.78.45,1.43.66,1.85.66.81,0,.82-.75-.47-1.89-.79-.7-.73-.46-.68-.91.19-1.89-.1-3.62-.87-1.67-.21.52-.51,1.11-.81,1.03-.57-.18-.28-1.23-.56-1.77-.46-.94.03-1.17,1.16-.88.81.21.86-.23,1.37-.8.88-.99.74-1.58-.62-1.27-.22.05-.41-.01-.59-.05-.42-.1-.81-.37-1.82-1.15-1.3-1-3.14-2.33-4.33-2.53-.24-.04-.44-.06-.61-.07h0Zm2.55,5.77c.2-.01.43,0,.5.09.25.37-.61,2.14-1.1,2.39-.27.14-.54-.08-.73-.2-.16-.1-.06-.35.06-.57.32-.57.87-1.66.87-1.66,0,0,.19-.04.39-.05h0Zm-1.34.22l-.81,1.51c-.17.32-.25.44-.38.44-.08,0-.18-.04-.34-.1-.7-.28-1.92-.85-1.4-1.3.86-.53,2.66-.71,2.93-.54h0Zm-83.64,1.01c3.81,6.66.67,13.29.42,12.97l-3.43-1.29v-10.73l3.01-.95Zm74.4.75c-.25.02-.38.19-.25.54.11.28,1.63,1.47,2.98,2.23,2.88,1.76,5.56,3.26,8.63,3.29,1.02.01,2.1-.15,3.23-.51,1.16-.44,1.02-1.37-.06-1.18-.37.06-1.01.18-1.44.26-2.65.46-5.9-.5-9.86-2.91-.95-.58-1.99-1.14-2.25-1.34-.36-.27-.74-.41-.99-.39h0Zm-2.15,3.39c-.63.07.15,1.24,2.02,2.39,4.87,2.97,9.8,5.17,14.63,4.96,3.57-.16,4.16-.42,4.17-1.21.02-1.47-.58-2.13-3.9-1.77-2.87.31-7.04-.14-9.9-1.38-3.27-1.42-4.05-1.75-5.23-2.36-.92-.48-1.51-.66-1.79-.63h0Zm4.64,11.9c6.06.99,13.28.96,19.58.6,1.19-.07,1.26,2.84,1.26,2.84.84,8.82,7.04,16.13,11.34,25.74-31.55-.86-63.3.07-95.08-.18,0,0,11.55-20.27,15.05-26.66.77-1.4.85-2.4.43-2.98-.64-.9-.59-2.42.13-3.3.78-.36.47-1,.13-1.73-.57-1.94.89-3.29,2.42-3.91,15.78-2.69,30.11,6.89,44.75,9.58h0Z"/>
    <path id="uuid-06e86954-ec8f-4ccc-8b23-7d3e0b10e378" data-name="path6353-8" class="uuid-23106996-13d7-473b-bf8e-554d3480b121" d="m180.66,29.75s-12.55,24.57-17,31.02c-23.74,2.57-18.71-9.58-67.78-9.47l-10.67-21.24,95.45-.32Zm21.95,24.47l.34,67.96-3.2-3-.76-67.34,14.3-13.8.08,4.04-10.76,12.14Zm-8.66,7.65c-3.41,6.91.4,15.35.4,15.35-1.98-.49-7.48,10.04-7.97,9.74-8.43-10.42-9.89-25.94.41-35.56,2.6,6.69,7.13,10.47,7.17,10.47h0Zm-6.29,47.42c-6.4,6.6-11.48,11.73-16.56,19.11-.42.6,27.01,35.72,26.59,36.33-4.23,4.71-9.9,8.18-14.32,13.87,0,0-22.5-29.68-23.01-29.42-2.28,9.29-3.95,17.7-3.51,27.41,1.39,24.84,11.92,40.05,12,39.75,8.95-35.76,47.08-58.84,45.45-54.93l.04,15.95c-.42-.8-18.03,10.22-27.91,33.81-.57,1.36-17.29,6.86-17.18,7.07.71,1.85,8.1,12.38,8.1,12.38,0,0-2.98,1.4-3.31,1.4-9.57-12-16.8-27.8-19.26-42.85-2.98-16.21-4.91-46.69,27.34-79.97l5.53.1Zm-96.68,41.94c5.05,15.79,4.91,32.13,2.59,43.55-3.54,20.68-16.51,35.49-26.91,46.78l-4.57-.15c7.77-6.92,12.73-13.62,15.66-19.54l-26.91-35.46-15.34,3.34s.46-15.86-.01-15.86c11.92-9.95,20.49-18.95,26.64-33.44,3.77-1.41,16.27-6.84,16.27-6.84,3.72,4.98-17.25,40.96-13.19,39.42,1.85,1.54,22.34,29.4,22.74,29.34,9.44-29.15.23-59.75-16.39-81.13,1.89-1.23,3.59-2.19,3.44-1.9,7.12,9.95,13.35,21.84,15.98,31.9h0Zm49.17,14.61c-1.06-1.66-5.85,35.57,6.73,65.37-1.2.91-11.58,2.92-11.58,2.92l-2.79-8.92,7.08-3.02-1.31-4.18c-5.5,2.69-17.4,6.66-24.73,18.92,0,0-35.59.31-36.35.24-.74-.06,7.26-7.79,14.84-23.42,3.46-7.14,6.22-16.38,6.79-27.23.11-2.14,8.14,10.07,8.14,10.07-2,10.32-7.35,20.48-12.69,30.64,0,0,8.18.47,13.9.3,8.89-9.79,14.47-14.95,27.87-19.63-3.07-15.5,5.61-17.02-28.14-21.93,3.83-19.98,2.13-43.92-6.02-66.69,7.81-.6,8.15-1.02,12.21-2.13l2.82,8.3-7.62,3.54,1.23,4.69s16.82-5.12,25.05-19.89l36.78-.04c-14.18,15.51-19.97,30.86-23.05,51.14-3.01-.54-9.17.95-9.17.95h0Zm-90.46,133.94c-4.62,3.9-13.91,14.06-13.91,14.06l-.12-5.2,10.53-11.04-.11-68.17,3.56,3.44.04,66.92Zm4.87-24.95c1.9-.91,5.68-5.39,7.48-10.43,12.2,10.99,7.18,31.19.5,35.39-1.94-4.41-7.55-10.26-7.42-10.13,1.29-4.62,2.28-9.3-.56-14.83Zm108.05,45.77l-94.12-.17c5.37-10.66,10.29-19.27,16-29.76,2.97-3.61,67.25,11.66,67.55,10.14l10.57,19.79Z"/>
    <path id="uuid-d97ab6bc-e080-4f50-9947-2849c9751792" data-name="path6355-9" class="uuid-7fd1d725-4aaf-43ea-b90c-b614d0962852" d="m213.49,43.32l.63,89.52-10.7-10.48-.64-68.74,10.71-10.3Zm-49.09,17.35c2.21,1.08.08,3.88,1.38,6.15-1.41,4.56-13.09,2.37-20.25.78-17.83-4.65-21.86-10.68-46.44-8.44-.2-.34-2.71-6.85-2.54-7.53,21.16-4.2,48.16,11.45,67.85,9.05Zm-38.13,46.35c2.23,1.63,4.32,1.93,6.39,2.28-3.63,6.43-8.02,12.3-15.36,15.96l-3.42-8.52c4.32-2.24,8.55-4.9,12.39-9.73h0Zm44.57,22.12s3.17-5.22,6.16-7.76c8.89,12.01,28.75,37.58,28.75,37.58l8.43-4.3s.03,4.95-.16,5.3c-22.77,11.83-38.4,34.18-45.28,55.11,0,0-3.67-3.77-3.18-5.37,6.16-16.51,16.69-33.07,32.17-45.49l-26.89-35.07Zm-28.4,24.36l-28.75-.04-1.27-10.07c11.01-3.72,20.09-11.31,28.59-20.1l13.64.24c-4.47,9.87-10.68,19.89-12.2,29.97h0Zm-106.44,42.44c-.93-2.84.01-5.9-.35-5.77,34.44-17.17,44.28-54.84,44.28-54.84,0,0,3.27,5.22,3.12,6.02-17.82,39.93-29.75,41.12-32.04,45.45l27.11,35.36-6.13,8.41-29.08-38.14c-2.89,1.34-4.54,2.47-6.91,3.51Zm16.98-51.66c-5.84,10.58-11.86,16.74-17.86,20.97l.29-13.97,17.57-7Zm160.99,41.54l-.15,13.55-17.74,7.69c4.9-10.78,11.56-16.55,17.89-21.25Zm-79.02,12.18l1.05,9.53c-10.77,4.73-20.28,11.07-27.96,19.73-8.25.4-13.89-.16-13.84-.05-.01.02,7.39-11.08,12.59-29.38l28.16.17Zm-89.21,100.13l-9.8,9.98-.31-89.25,9.84,9.62.27,69.66Zm86.14-72.53l3.11,8.83c-4.89,1.85-8.59,5.87-12.04,9.86-2.53-2.89-6.75-3.46-6.7-3.26,6.1-9.63,11.26-12.82,15.64-15.43Zm18.37,66.89s1.22.71,1.09,1.72c-.4,1.3,1.31,4.25,1.31,4.25-20.87,6.38-51.27-11.58-69.3-7.8.15-1.27-.06-2.78.45-3.98-.57-2.54-.97-2.63,1.5-4.18,12.67-3.61,26.03,4.09,38.41,7.78,10.1,3.21,18.3,2.39,26.55,2.21h0Z"/>
    <path id="uuid-00651bf2-9981-4ac1-ba84-ba3680c20a7e" data-name="path6357-5" class="uuid-2e0a40e7-61c6-4068-b879-e16902615c64" d="m182.14,29.16l-98.09.18,11.79,22.26s-.94,3.67.94,4.11c.61.14.95.71,1.08,1.25-.15,1.55.54,2.21,1.13,3.01,9.32-1.33,17.42-.67,24.11.85,15.03,4.52,27.04,11.29,40.47,8.6,2.17-.55,3.08-2.51,2.36-4.26-.33-.8-.82-.8-.24-1.29.65-.76,1-2.51.28-3.15-.85-.49-1.06.35-.17-1.29l16.34-30.26Zm-1.99,1.05l-8.03,14.94c-4.75-.25-4.58,4.36-4.37,4.47-3.16-2.27-6.55,3.38-1.93,5-3.77,3.98-9.37.3-9.04.02,5.38,1.03,5.68-5.03,2.17-6.02,4.83-6.69-7.81-9.28-5.5-1.03-6.41-1.16-5.25,6.18-.48,6.12-1.11,2.74-9.91.66-9.53-1.37,5.94-.64,3.57-6.09,1-6.1,6.22-5.93-6.22-11.4-5.89-2.46-4.99-1.06-5.58,5.62-.78,6.06-1.76,2.49-8.03.92-9.77-1.93,4.95-.66,4.64-5.05.77-5.76,4.91-6.3-7.18-8.63-5.92-1.31-4.33-1.5-6.71,4.32-1.1,5.99-5.75,3.45-11.99-1.69-11.32-1.8,6.56.39,5.25-6.24.51-5.88,3.02-6.88-8.95-7.26-5.91-.13-5.38-.1-4.91,6.19.25,6.61-3.25,2.39-6.91,2.6-9.27.36,4.91-1.3,2.87-7.05-2.07-5.46-.46-4.81-4.34-3.79-4.42-3.65l-3.47-6.53,94.12-.15Zm34.74,5.38l-16.06,16.14.21,66.98c-3.41-3.23-6.33-6.68-10.23-9.85l-6.68.05c-17.44,17.88-26.99,33.18-29.09,60.58-1.4,18.33,4.64,41.38,20.66,63.72l3.91-2.4-7.73-11.74,16.38-7.32c6.52-13.86,14.25-26.65,28.4-33.98l.08-17.94.25-.37-.19-5.63-7.01,3.77c-2.09-3.09-8.81-12.04-15.38-20.71-6.96-9.18-13.53-17.76-13.53-17.76l-.46.35.92-1.12,29.11,38.41s4.6-2.27,5.95-3.03l-.18-19.49.79.04-.12-98.71Zm-1.83,2.73l.1,3.59-10.85,11.42c-.01,22.56.06,45.13.13,67.69l-2.67-2.66-.36-66.71,13.65-13.33Zm-104.61.96c.93.11,1.63,1.18.97,2.27-1.47,2.43-.36,4.46,3.2,6.34,5.02,2.65,13.23-.32,11.54-4.22-1.08-1.25-.08-2.12,1.35-2.08,1.62.05,2.16,1.14,1.13,2.3-1.29,1.49-.95,2.99.55,4.71,4.51,6.48,13.64,3.91,12.43-1.77-.53-1.41.98-1.98,2.54-1.35,1,.4.85,1.95-.24,2.5-1.25.13-1.43,1.96-1.28,3.14.22,1.71,2.72,3.4,5.2,4.29,1.79.65,3.46.79,4.77.67,2.77-.26,4.32-2.15,3.87-5-.27-1.68.2-3.42,2.15-2.5,1.07.51.8,1.73-.29,2.85-3.84,3.78,3.89,8.38,8.56,5.21.79-.66,1.37-.77,1.37-.77-2.93,7.35-12.1.47-12.01.16-9.66,5.43-13.74-2.07-15.14-3.28-8.45,1.88-10.1.96-14.82-4.17-8.46,4.17-12.56.62-16.09-1.62-4.14,3.9-9.4,4.01-12.13,2.05-.51-.86-1.22-1.96-1.28-2.28-.05-.25.34.04,1.29.73,4.97,3.58,13.21-.88,11.01-5.6-.59-1.27-.5-1.82.39-2.33.31-.21.65-.29.96-.25h0Zm-15.81,2.53c1.47.04,1.82,2.34,1.05,2.87-.3-.62-1.47-2.78-1.36-2.84.11-.02.21-.03.31-.02h0Zm120.4,2.44l.59,87.92-9.8-9.79-.54-68.28,9.74-9.85Zm-104.68,3.75c.67.72,1.94,1.43,3.07,2.15l-5.32-.34c.7-.48,1.39-.93,2.25-1.81Zm15.79,1.62c.86.94,1.69,1.75,2.57,2.51l-4.89-1.19,2.32-1.32Zm44.7.75c.23-.06.16.34-.3,1.32-.22.48-.43.87-.6.86-.41-.34-.13-1.28.21-1.6.32-.34.56-.55.69-.59Zm18.05.68c-13.29,13.58-6.96,29.49-.21,37.19,1.49-5.39,8.55-11,8.46-11.14-3.04-4.78-2.78-11.72-.29-15.33-.01.08-5.45-4.47-6.22-6.84-.54-1.52-.65-2.55-1.75-3.88Zm-.3.76l.86,1.43c-9.59,11.23-5.52,25.02.06,31.55l-1.03,2.03c-12.9-16.13-4.4-30.9.11-35.02h0Zm-85.08.28c10.39-.12,22,.67,30.75,4.14,9.81,2.93,18.84,8.61,32.34,4.81.39,0,.59.58.57,1.12-.02.52-.21.94-.65,1.27-17.63,4.48-27.07-5.12-41.15-7.79-6.96-1.21-16.1-1.94-22.08-1.47-3.42.35-4.15.24-4.13-1.2.01-.9-.08-.88,4.34-.88Zm37.42,1.68l2.59,3.25-5.83-2.21c1.35-.27,2.29-.65,3.25-1.03Zm48.71,1.07c.08-.02.17.03.33.18.82.95-1.41,1.02-.57.02.1-.1.16-.18.24-.2h0Zm-83.32,1.3c13.85-.18,25.56,2.71,34.23,6.67,8.65,3.27,16.6,4.37,22.88,3.4,3.45-.53,3.96-.61,3.94.32-.67,2.91-4.39,2.64-7.11,2.65-7.6.05-16.14-2.22-22.06-4.9-11.89-5.37-23.53-6.9-35.45-5.4-.57.09-1.16,0-1.59-.45-1.08-1.21-.35-1.97,2.36-2.22.94-.04,1.88-.06,2.8-.08h0Zm83.91.58c.55.03,1.21.28,1.47.63.67.89-.19,3.36-1.08,3.34-.69-.01-1.67-3.15-1.17-3.74.15-.18.44-.24.78-.22Zm-34.02.51c1.03.9,2.21,1.77,3.59,2.61-2.73.03-5.46-.27-7.96-.7,1.44-.54,2.88-1.03,4.38-1.91Zm31.79.42c.24,0,.44.41.67,1.22.49,1.73.45,1.92-.53,2.18-.58.14-1.07.44-1.63.52-.59,0-.4-.88.56-2.74.41-.79.69-1.18.93-1.18Zm4.95,1.86l2.68,2.31c-1.8,4.3-2.69,8.89.34,14.73l-2.8,2.63c-3.88-7.87-3.64-14.02-.22-19.67Zm-3.57,2.31c.51,0,.87.17.96.65-.21,1.27-.84,3.45-1.54,3.3-1.07-.24-2.88-3.12-1.3-3.58.7-.2,1.37-.37,1.88-.37Zm9.05.81l-1.82,6.5,2,6.69,1.01-.3-1.91-6.4,1.74-6.21-1.02-.28Zm-13.06,1.13c.68-.02,2.48,1.99,2.46,2.61-.05.31-1.96,1.57-2.72,2.08-.37.28-.34.14-.35-.2-.01-.95.06-3.41.4-4.35.04-.1.12-.14.21-.14Zm3.65,3.67c.37.04.33.57.31,2.17-.02,1.21.05,1.99-.26,2.02-.25.02-.96-.44-1.67-.98-1.78-1.36-1.38-2.3.64-2.96.35-.11.61-.2.8-.24.07-.01.13-.02.19-.01h0Zm-3.81,2.88c.24.06.58.3,1.04.72,1.35,1.21,1.58,1.49.35,2.48-.36.29-.85.68-1.07.68-.5,0-.73-.95-.79-2.6-.04-.98.08-1.39.48-1.29Zm3.97,2.54c.56-.03.85.59,1.3,2.55.29,1.3.48,1.82.13,1.81-.69.01-1.35-.16-1.89-.33-2.61-.8-2.7-2.55-.19-3.81.26-.13.47-.21.66-.22Zm-2.64,4.4c.41,0,2.19.46,2.71,1.07-.07.61-.64,2.15-1.13,2.56-.65-.05-1.58-2.12-1.67-3.6,0-.02.03-.03.08-.03h0Zm4.36.94c.11-.02.23.02.33.13.25.49.54.91.77,1.42.27.61.09.9-.52,1.5-.84.78-1.52.84-2.14.36-.23-.39.76-3.27,1.57-3.41Zm-1.24,4.52l.65.13-.43.84c-.09-.26-.59-1.02-.21-.97Zm-61.32,23.71c-4.71,6.02-12.44,9.96-12.49,9.87l-.26.73s-1.42.48-2.66.72c-.4.08-1.22.23-1.76.42-.84.3-1.26.61-2.56.5-2.7-.26-5.41.53-5.36.54,8.04,22.36,9.94,42.54,6.8,65.98-2.96-.02-9.46-.14-9.46-.14-.65,6.59-1.48,13.18-3.49,19.4-2.58,7.98-5.69,15.41-10.69,22.19-2.83,4.26-5.29,7.3-8.21,11.29l37.09-.09c4.91-8.31,14.36-15.26,21.96-18.15,2.59-.98,2.95-.83,3.38.39.77,2.19.73,2.1-1.3,2.68-9.93,3.53-16.07,9.82-21.19,17.83-.54.84-.66,1.2-.42,1.34,3.32-.53,5.38,1.63,7.39,3.22,2.12-3.06,5.67-7.11,8.44-8.3.76-.03,1.94-.73,2.46-1.4.65-.85,1.22-.74,1.95-.67.86.01,2.17-.18,3.95-.99,1.01-.46,1.47-.57,2.94-.64,1.31.04,2.57-.47,3.68-.84,1.29-.38.83-.75.09-2.42-3.76-9.71-6.45-21.03-7.43-30.25-1.1-10.57-.77-23.4.7-33.19,3.6-.02,5.86.16,9.65.1,2.58-21.18,9.6-37.99,23.61-53.12l-37.89-.1c-4.34,11.67-24.15,20.57-24.8,19.91l-1.04-4.26s14.25-2.05,23.85-20.28c-.98.6-4.55.18-6.91-2.29h0Zm.09.85c2.5,1.85,3.97,2.05,5.51,2.46-4.25,7.99-9.28,12.18-14.56,15.1l-3.13-8.24c4.32-1.77,8.8-5.54,12.17-9.32h0Zm60.67,2.02c-20.61,19.92-29.73,36.97-30.45,59.46-.83,25.87,7.01,43.07,20.21,61.4l-2.83,1.62c-12.66-16.93-21.71-39.91-20.2-62.57,1.45-26.36,11.36-41.55,28.78-59.8l4.49-.11Zm-25.02,4.61h9.3s-6.79,8.85-6.79,8.85l-8.22-.25,5.72-8.6Zm-26.48.07l25,.02-5.58,8.73-14.8.07c-7.15,8.75-15.98,15.73-27.61,19.73,0,0-1.44-8.18-1.76-8.77,13.29-5.06,21.06-12.51,24.75-19.78Zm17.58.26l-3.4,3.91,2.64,3.41,3.72-3.43-2.96-3.89Zm-7.95.34l-3.05,3.99,3.24,3.16,3.13-3.33-3.32-3.82Zm-8.97.21l-.67,5.17,4.54,2.48.53-5.03-4.4-2.62Zm26.47.53l-3.24,5.02,3.94.17,3.77-5.18h-4.47Zm-49.46,2.24l2.91,7.99c-.8.47-1.63.82-2.5,1.01l-2.43-8.42,2.03-.58Zm-2.96.98l2.4,8.34c-.98.51-1.96.76-2.94,1.08l-2.66-8.86,3.2-.56Zm-35.51.31l-3.49,2.07-.53-.36-36.21,21-.02,6.38,42.04-17.78c.83.89,1.32,1.89,2.03,2.99l-16.84,7.22c-5.06,14.01-16.48,25.61-27.12,33.75.05,13.9.12,43.02.12,43.02l25.33,25.42c3.25-2.99,6.13-6.07,9.01-9.41l-29.08-38.58,2.58-1.69,28.77,38.38c-.24.29-.49.57-.74.85-.51-.65-6.35-8.19-13.07-16.96-7.01-9.14-14.43-18.92-15.96-21.26l-.62.4c1.61,2.47,8.98,12.17,15.99,21.31,6.77,8.83,12.74,16.52,13.17,17.08-3.06,3.54-6.31,6.74-9.56,9.93l5.78-.08c4.06-4.18,33.48-31.49,28.52-72.74-2.12-17.64-7.01-32.91-20.08-50.94h0Zm30.99.13c5.41,15.54,9.71,37.67,5.34,66.14,0,0-1.57.03-2.27.01,4.5-22.47.37-46.33-6.57-65.77l3.5-.39Zm-31.06.46c25.8,34.84,30.46,86.39-8.95,121.96l-3.38-.15c2.89-2.7,5.53-5.45,7.98-8.24l.22.28.58-.46s-.3-.39-.3-.4c30.2-34.95,26.27-76.76.97-111.24l2.88-1.74Zm103.57.17s6.56,8.56,13.5,17.72c6.53,8.62,13.25,17.58,15.32,20.61l-1,.54-28.79-37.68.97-1.19Zm-1.45,2.11l28.29,36.88-7.14,5.2-26.58-35.18,5.43-6.9Zm-46.27.01l-.17,4.98,4.49.7-.06-5.32-4.27-.36Zm25.05,1.98l2.68.12-3.53,2.43,2.27,2.92,3.63-2.39-2.02-2.95,5.3.11-3.65,5.69c.03-.05-7.81-.23-7.81-.23l3.14-5.72Zm-1.52.16c-.3-.04-10.99,20.29-12.22,29.11l-27.89.14-1.09-9.49c9.22-3.38,19.16-9.11,27.86-19.65,1.49.1,13.34-.1,13.34-.1h0Zm-28.7,3.03l-.89,4.65,4.01.87.79-4.63-3.92-.89Zm45.25,2.84l26.22,34.93-2.73,1.92-25.49-33.97,2-2.87Zm-18.83.82l7.88.22-3.37,6.65-7.75-.1,3.24-6.76Zm-32.85.41l-.57,4.77,4.13,1.14.62-5.02-4.17-.89Zm35.37.03l-3.68,2.49,2.37,3.33,3.83-2.49-2.51-3.33Zm-41.06,2.85l-1.41,4.27,3.91,2.11,1.24-3.97-3.74-2.4Zm-36.85.83c1.16,1.44-.69,7.99-2.87,3.81-.47-.85-1.1-2.08-1.1-2.08l1.12-.42c.9,3.11,1.73,1.95,1.83-.79.75-.34.84-.39,1.03-.52h0Zm3.8,1.91l2.34,4.38c-14.76,36.65-34.65,47.46-46.68,54.8l-.04-5.14c32.16-16.08,44.21-54.04,44.38-54.04Zm-9.06.31c.61,1.26,1.64,2.56,1.89,3.92.1.59-.2.81-.85,1.18-1.77.87-3.74,1.42-5.16.66-.42-.7,1.31-4.64,1.31-4.64l2.82-1.13Zm95.7.85c1.1.07,2.61.72,3.89,1.76,2.39,1.95,3.42,4.55,3.7,9.67.18,3.29.42,3.96,1.37,2.6,1.71-3.03,5.8-1.55,6.31,1.65.29,1.69-1.19,2.92-1.67,1.38-1.27-3.19-4.37-2.42-3.87.74.33,2.09,2.41,3.24,6.51,4.41,4.93,1.4,6.39,3.1,7.35,7.17.43,1.8.36,2.75-.59,3.69-.47.47-1.06.94-1.06.94,0,0-.66-2.74-.93-4.01-.49-2.33-3.74-2.2-3.38.23.21,1.42.26,1.39-.44,1.36-3.36-.17-2.78-5.51,1.1-5.09.81-.1.91-.43.23-.72-.68-.28-3.28-.96-3.68-.96-4.21.01-10.29-6.51-10.14-12.31.1-3.79-1.18-6.52-2.48-6.82-1.04-.25-2.54.7-2.41,1.86.18,1.6-1.11,1.1-1.85-.05-1.13-1.59.33-3.88,3.03-3.7,1.15-.23-.85-.96-2.32-1.39-1.34-.08-.21-1.74.04-2.04.19-.22.49-.35.86-.38.14-.01.29-.01.44,0h0Zm-18.81.61l7.9.02-2.53,6.69-7.99-.08,2.62-6.63Zm-81.17.36c-6.1,16.94-19.16,31.45-31.1,38.87l-.05-3.77c2.52-1.86,18.53-13.55,26.81-33.23l4.34-1.86Zm83.81.11l-3.67,2.55,2.82,2.8,3.83-2.44-2.98-2.91Zm-74.56,2.19c.45,0,.81.37.81.82s-.36.81-.81.81-.81-.36-.81-.81.36-.82.81-.82Zm6.93.71c7.88,18.57,10.76,36.64,4.61,59.97l-22.12-28.94c6.6-8.46,13.18-18.18,17.51-31.03h0Zm-9.67,1.1c.42.06.46.54.34,1.68-.3,2.76-2.13,5.79-3.25,5.89-.37.03-.87-.7-1.02-1.33-.18-.77-1.5-2.7-2.33-3.63-1.05-1.17-.99-1.33.51-1.45,1.78-.14,3.53-.5,4.53-.86.58-.21.98-.33,1.23-.29Zm-19.65.74l-19.43,7.55.05,15.34c13.25-9.65,18.34-21.37,19.37-22.9h0Zm17.6.98c-.77.08-2.15.75-2.25,1.23.02.29.97,1.95,1.54,2.03.97-.15,1.37-2.36,1.2-3.12-.05-.13-.24-.17-.49-.14Zm-19.15.26c-5.56,9.47-11.01,15.33-16.42,19.66l-.2-12.68,16.62-6.98Zm110.32,0l22.98,30.48-2.15,2.16-22.32-28.87,1.48-3.76Zm-97.01.92c1.37-.02,3.67,5.2,2.97,6.14-.35.52-3.08.29-4.53.08-1.43-.28-1.64-.31-1.16-1.49.64-1.58,2.09-4.42,2.46-4.65.08-.05.17-.07.26-.08h0Zm79.45.23l8.23.16-1.99,7.2-8.45-.05,2.21-7.31Zm3.34.34l-4.01,2.74,3.17,3.2,3.88-2.68-3.03-3.26Zm12.19,3.58l22.2,29.11c-8.52,9.66-14.24,20.73-17.74,30.31-8.22-18.08-10.18-38.76-4.46-59.42Zm-89.59,1.83c.45,0,.81.36.81.81s-.36.82-.81.82-.81-.37-.81-.82c0-.45.36-.81.81-.81Zm-8.99,1.05c.23-.03.58.04.98.21,1.75.75,5.81-.05,5.92.34.61.87-.3,3.24-2.01,4.88-.84.8-1.6,1.32-2.04,1.33-.44,0-.52-.61-.85-1.67-.53-1.75-1.53-3.38-2.24-4.79-.09-.17.03-.28.26-.31Zm-1.25,1.72c.69-.18,1.48,1.3,2.16,3.51.63,2.03.31,2.54-.88,2.56-.61.07-1.03.06-1.56.06-3.04-.02-4.06-.21-3.18-1.72,1.18-1.47,1.88-2.87,3.17-4.23.09-.1.19-.15.29-.18h0Zm5.39.1c-.5,0-1.09.25-1.35.6-.28.55-.16,1.59.64,2.02.47.25,1.77-1.7,1.41-2.29-.14-.23-.41-.32-.71-.33h0Zm76.71.08l8.13.19-1.48,8.55-6.65-8.73Zm70.72.75l.05,4.22c-25.91,14.86-36.53,32.42-45.42,54.69l-2.47-4.26c8.99-23.07,22.98-40.21,41.93-51.42.01.01.03.05.04.06l.62-.4s-.02-.02-.02-.03c1.72-1,3.47-1.95,5.27-2.86h0Zm-148.21,5.64c.45,0,.81.36.81.81,0,.45-.36.81-.81.81s-.81-.36-.81-.81.36-.81.81-.81Zm-9,.02c.33-.05,1.1.29,2.23.41,1.53.17,3.96-.09,4.56.34.26.34.02,1.25-.47,2.27-.69,1.44-1.95,2.66-2.88,3.22-2.37,1.1-1.82-.3-2.2-1.72-.22-.83-.56-1.88-.82-2.63-.63-1.41-.75-1.84-.42-1.89Zm-1.55,1.47c.61-.06,1.05.79,1.46,2.36.8,2.62.98,3.63-1.02,3.4-.56,0-1.34-.03-2.27-.22-2.34-.49-2.61-.7-1.21-2.35.52-.61,1.3-1.54,1.72-2.06.52-.73.95-1.09,1.32-1.13Zm158.83.16l-.02,2.28c-1.91.67-3.13,2.28.08,2.79l.05,1.8c-1.47-.54-2.73-1.33-4.24-1.85-.98-.34-.71-1.13.3-2.25,1.13-1.35,2.25-2.01,3.82-2.76h0Zm-153.36.32c-.36-.02-.76.02-1.02.11-.79.29-.25,2.22.53,2.22.73-.2,1.77-1.56,1.32-2.09-.13-.14-.47-.22-.83-.24Zm146.15,2.7c.45,0,.81.37.81.82s-.36.81-.81.81-.81-.36-.81-.81.36-.82.81-.82Zm-68.31.61c.63.04,1.33.2,1.33.2-.28-.09-1.24,12.32-1.17,20.12.15,14.85,2.64,29.54,8.43,44.25-1.1.68-3.82,1.03-3.82,1.03-3.65-11.16-6.88-23.16-7.28-34.55-.36-12.4-.53-19.88,1.52-30.78.03-.14.19-.22.41-.25.17-.02.37-.03.58-.01Zm-18,.26h8.89v5.91h6.35l-.51,6.74h-5.83v5.91h-8.89v-5.91h-6.95l.54-6.74h6.41v-5.91Zm-70.16,1.69c.21-.04.55.06,1,.3.88.48,3.2.84,4.46.74,1.43-.11,1.39.27.97,1.48-.74,2.15-3.61,4.45-4.97,4.46-.45,0-.74-.24-.73-.8.01-.72-.51-3.85-.79-4.72-.31-.92-.29-1.39.07-1.46h0Zm158.29.21c.78-.03,2.1.51,3.86,1.52,1.54.88,1.82,1.41,1.06,1.95-1.3.8-5.11,3.87-5.81,3.68-.93-.8-.74-5.84.29-6.93.14-.14.34-.22.6-.23Zm-149.17.22c.45,0,.81.36.81.81s-.36.82-.81.82-.81-.37-.81-.82c0-.45.36-.81.81-.81Zm146.56.08c.5.01.7.28.57.81-.57,2.22-.05,5.73-.18,6.53-2.14-.72-3.66-1.7-5.77-1.95-.63-.09-.8-.21-.5-.77.96-1.84,2.76-3.76,4.66-4.39.51-.17.92-.25,1.22-.24Zm-157.38.72c.7.02,1.18,1.17,1.37,3.14.2,2-.1,3.15-1.69,2.89-.48.01-1.08-.07-1.8-.24-2.78-.63-3.4-1.27-1.03-3.17.88-.7,1.81-1.57,2.08-1.91.4-.49.76-.72,1.08-.71h0Zm4.71,1.06c-.44-.02-.86.05-.98.16-.38.35-.2,1.99.11,2.19.81.28,2.44-1.45,1.96-2.05-.19-.19-.65-.28-1.09-.3Zm151.08.84c-.24.02-.57.18-1.01.49-1.03.73-.98,1.18.17,1.88.58.5,1.25.56,1.41.27.18-.31.13-1.03-.14-2.26-.06-.27-.2-.4-.44-.38Zm-6.08.99c.45,0,.81.36.81.81s-.36.82-.81.82-.81-.37-.81-.82.36-.81.81-.81Zm-76.91.58v5.89h7.07v-5.89h-7.07Zm92.56.01l.07,4.05c-19.46,11.82-27.87,33.96-27.86,33.96l-4.54,1.73c6.34-15.23,15.01-28.52,32.33-39.74h0Zm-148.15.88l21.87,28.73-1.37,3.63-22.75-30.07,2.26-2.29Zm-22.52,1.24c.18,0,.46.14.89.38.72.41,2.19,1.09,3.79,1.23,1.3.11,1.4.66.99,1.52-1.15,1.92-3.33,2.83-5.07,3.43-.95.33-.45-2.57-.83-5.28-.08-.9-.07-1.28.23-1.28Zm157.96.24c1.86.15,4.38,1.21,4.36,2.13,0,.4-4.19,3.97-4.65,3.96-1.03-.01-2.17-5.43-1.25-5.91.36-.19.91-.24,1.53-.19Zm-3.78.39c.54-.03.74.36.69,1.31-.01,1.03.43,2.81,1.01,4.09.45.99.96,1.65.47,1.67-.29,0-1.2-.38-2-.61-1.21-.34-2.16-.48-3.26-.51-2.21-.04-2.5-.02-1.55-1.85.68-1.32,2.23-3.06,3.31-3.59.57-.31,1.01-.48,1.33-.51Zm-156.02.08c.63-.08.85.61.9,2.34.09,2.6-.19,4-1.56,4.03-.63.01-1.7-.37-2.68-.85-2.6-1.27-2.53-1.57.99-4.08,1.12-.86,1.86-1.38,2.35-1.44Zm9.95.91c.45,0,.81.36.81.81,0,.45-.36.82-.81.82s-.81-.37-.81-.82.36-.81.81-.81Zm-6.46.71c-.27.03-.39.23-.35.7.18,1.7.11,1.88,1.62.94.85-.53,1.19-.92-.04-1.34-.55-.19-.97-.33-1.24-.29h0Zm151.53.81c-.31-.04-.65.14-1,.55-.99,1.15-.78,1.67.64,1.97.59.13,1.07.09,1.46,0,.65-.14,0-.99-.32-1.74-.2-.48-.47-.74-.78-.78h0Zm-137.12,2.17c.4.04.51.77.56,1.61.24,4.48,6.49,5.17,4.3,1.2-.72-1.28-.27-1.78,1.02-1.13,2.03,1.03,2.71,3.47.74,4.6-2.34.94-1.55,1.15,1.44,2.17,6.38,2.2,9.11,6.22,9.45,13.9-.12,3.5.35,4.74,1.98,5.22,1.49.44,3.19-1.48,2.11-2.48-.58-.55-1.06-1.04-.75-1.35.99-.97,3.47.6,3.45,2.29-.02,1.1-.43,1.33-2.07,2.63-.45.36-.07,1.04.6,1.05,2.51-.81,2.33,2.53.98,2.64-4.61-.13-9.46-5.2-8.97-9.37.35-2.94-.21-5.13-1.01-3.92-1.76,2.66-6.93.89-6.89-2.31.02-1.7,1.15-1.98,1.8-.45.96,2.27,3.64,2.33,4.04-.05.37-2.23-1.5-3.87-6.52-5.7-5.88-1.39-9.64-6.86-7.32-9.75.48-.6.82-.82,1.06-.8h0Zm130.94.04c.45,0,.81.37.81.82s-.36.81-.81.81-.82-.36-.82-.81.37-.82.82-.82Zm-153.94,1.36c1.25.38,2.03.91,3.46,1.39.88.3,1.39.51.62,1.44-1.21,1.46-2.51,2.37-3.99,3.27v-1.87c2.35-1.05,2.12-2.03-.06-2.56l-.03-1.66Zm158.81.79c1.68.07,2.98.61,3.57,1.22.17-.13-3.88,4.75-4.63,5.22-1.68-1.46-1.91-4.09-1.85-6.09.76-.21,1.48-.32,2.16-.35.25-.01.5-.01.74,0h0Zm-4.4.45c.38-.02.43.38.54,1.47.18,2.12,1.24,4.18,1.71,5.8-1.51-.12-3.24-.62-4.85-.61h0c-1.91.04-2.47.17-2.46-.54-.02-1.92,1.76-4.65,3.94-5.68.55-.26.9-.42,1.13-.44h0Zm-147.43.01c.45,0,.81.37.81.82,0,.45-.36.81-.81.81s-.81-.36-.81-.81.36-.82.81-.82Zm172.02,1.55c-8.99,6.04-16.07,14.74-19.92,23.36l19.81-8.39.11-14.97Zm-160.97.12l25.85,33.79-1.88,2.76-26.45-34.56,2.48-1.98Zm134.85,1.08c-.2.02-.42.15-.64.39-.8.86-.91,1.55-.41,1.92.75.3,1.3.34,2.13.35.76-.05.36-.51-.2-1.84-.24-.58-.54-.85-.88-.82Zm24.82.61l-.05,12.71-16.94,7.19c3.4-7.42,9.69-14.79,16.99-19.9Zm-114.52.55l7.08,10.07-8.37-.05,1.29-10.02Zm-48.56.49l26.65,34.72-5.61,7.41-27.96-36.95,6.92-5.18Zm132.9,1.07c.45,0,.81.36.81.81s-.36.81-.81.81-.81-.36-.81-.81.36-.81.81-.81Zm3.41,2.02c1.71.02,4.33.41,4.71.8.52.45-1.16,2.4-2.1,3.77-.49.57-1.02,2.13-1.76,1.44-1.32-1.24-2.98-5.59-2.13-5.9.25-.09.72-.13,1.29-.12h0Zm-3.26.76c.64.07,1,.85,1.24,2.3.14.84,1.02,2.28,1.79,3.41.86,1.26.51,1.46-1.68.96-1.53-.3-3.42.07-4.83.14-1.38-.1-.08-4.53,2-6.15.61-.48,1.1-.69,1.48-.65Zm-.71,2.55c-.21.03-.46.19-.77.47-1.18,1.03-.68,2.15.93,2.09,1.27-.04,1.36-.22.75-1.6-.31-.71-.56-1.01-.91-.96Zm-5.32,3.72c.45,0,.81.37.81.82s-.36.82-.81.82-.82-.37-.82-.82.37-.82.82-.82Zm-42.85.6c.05,3.03.44,6.07.89,9.1-11.87,4.38-21.06,10.92-27.83,19.57l-12.75.07c3.85-7.21,9.16-15.44,12.14-28.73l27.55-.02Zm-37.1.06l8.36.13-2.21,6.56-7.98-.09,1.83-6.6Zm86.16.41c1.25-.01,2.82.3,2.64.87-.42,1.11-3.17,5.69-3.43,5.69-.73-.01-2.4-2.57-2.86-4.41-.35-1.36.02-1.65,2.59-2.04.27-.07.65-.11,1.06-.11Zm-82.76.36l-3.94,2.45,3.16,3.06,3.72-2.59-2.94-2.92Zm77.42,1.58c.44-.02.75.35.95,1.25.16.75.94,2.32,1.92,3.6,1.14,1.48,1.13,1.51-.54,1.62-1.84-.03-3.35.86-4.79,1.04-1.95.06-.99-5.25,1.55-7.06.35-.27.65-.43.92-.44h0Zm36.07,1.72l-43.14,18.65,6.22,9.24,36.96-21.72-.04-6.17Zm-36.34,1.46c-.39-.04-.72.29-1.03,1-.3.69-.03,1.06.77,1.07,1.44.02,1.87-.66,1.01-1.59-.27-.29-.52-.45-.75-.48Zm-83.03,2.55l8.28.06-2.57,6.09-7.79-.14,2.08-6.01Zm3.92.44l-4.31,2.04,2.45,3.07,3.89-2.26-2.03-2.86Zm81.93,1.26c.83.05.95.57.35,1.89-1.19,2.58-1.67,3.97-2.46,3.98-.62,0-1.36-.77-2.21-2.26-1.22-2.16-1.18-2.3.82-2.92,1.35-.36,2.39-.62,3.09-.67.15-.01.28-.01.4-.01h0Zm-8.02,0c.45,0,.81.37.81.82s-.36.81-.81.81-.82-.36-.82-.81.37-.82.82-.82Zm-37.22.48l.71,3.54-4.36-1.19-.92,4.34,4.35,1.35.94-4.48,1.13,5.6s-14.94,3.63-24.62,19.17l-24.33-.12,5.35-8.5,14.42-.19c8.63-10.73,17.9-15.96,27.34-19.53Zm38.85,1.88c.24.05.48.23.77.55.4.44,2.22,3.43,2.22,3.43l-1.55.79c-1.89-3.04-1.88-1.57-2.6,1.02l-1.81.83c-.22.05.73-5.36,2.14-6.34.34-.23.59-.32.83-.28h0Zm-82.21,3.15l7.95.12-3.31,6.73-8.03-.05,3.38-6.8Zm2.5.1l-3.34,2.68c-.07.06,2.44,3.52,2.44,3.52l3.62-3.04-2.72-3.17Zm30.68.13l-.83,4.91,4.36.91,1.11-4.57-4.64-1.25Zm-6.13,3.7l-.83,5.59,4.1.85,1.19-4.7-4.46-1.73Zm-84.71.06s.14,66.24.33,98.22l15.09-15.61-.06-67.14-15.36-15.48Zm1.28,1.82l9.01,9.08v69.89l-9.01,9.1v-88.07Zm52.33,2.18l8.09.07-2.96,5.48-8.37-.13,3.24-5.41Zm2.98.4l-3.96,1.53,2.56,3.1,3.59-2.09-2.2-2.54Zm47.49.85l2.92,9.28-2.41.52-3.18-8.92,2.66-.89Zm-20.85.89l-4.9.12.36,4.9,4.7-.24-.16-4.78Zm17.34.36l2.75,9-2.37.93-3.09-8.62,2.71-1.32Zm-3.62,1.84l2.97,8.42c-7.28,3.42-9.23,6.84-11.81,9.63-1.67-1.8-3.64-2.85-6.25-3.19,4.16-6.58,9.24-11.73,15.08-14.85h0Zm-47.63,2.38l8.78.03-5.71,8.5-9.62.02,6.55-8.55Zm24.58.18l-.64,4.77,4.42,2.25.58-5.58-4.36-1.44Zm-5.48.29l-3.17,3.61,3.3,3.67,3.34-3.73-3.47-3.56Zm-6.7.26l-3.51,3.47,2.77,3.65,3.39-3.55-2.64-3.57Zm-49.78,1.13l2.62,2.72v66.41l-13.29,14.07v-3.86l10.67-11.09v-68.24Zm37.63.08l-3.33,4.96,4.93.1,3.16-4.98-4.76-.08Zm-22.34,33.62c-1.82,4.12-4.26,9.38-8.21,11.05,2.94,5.88,2.56,11.77.47,14.99,2.98,2.8,6.04,6.15,7.94,10.96,9.42-8.38,10.93-25.6-.2-37h0Zm.23.78c7.43,7.89,10.68,24.58.05,34.61l-.65-1.61c8.39-10.35,5.8-23.93-.28-31.18l.87-1.82Zm-1.91,4.72c.09-.01.18-.01.27.01.55.12.79.9.25,1.92-.34.97-1.12,1.78-1.77,1.7-.8-.1-.66-1.94.31-3.02.34-.38.67-.57.95-.61h0Zm2.22,1.09c.35-.03.74.54,1.39,1.9.7,1.46.98,2.39.49,2.42-1.16-.26-2.24-.68-3.05-1.63-.47-.56.15-1.65.83-2.47.11-.14.22-.21.34-.22h0Zm-5.12,2.48c1.57.66,5.04,13.65.32,18.92l-2.48-2.1c1.37-3.6,2.27-8.16-.48-14.72.31-.02,2.09-1.8,2.65-2.1Zm3.28,1.37c.96.01,2.51.62,2.95,1.3.47.75-.9,2.99-1.88,3.58-.35.27-.65.16-.75.06-.57-.42-1.35-4.34-1.01-4.75.12-.14.37-.2.69-.2h0Zm-8.53,1.18l-1.01.3,1.91,6.4-1.74,6.21,1.02.28,1.82-6.5-2-6.69Zm12.86,1.45c.45-.06.71.62.82,2.2.06.93.13,1.65-.15,1.69-.22.03-.89-.42-1.53-.8-1.11-.66-1.14-.96-.18-2.2.42-.55.76-.85,1.04-.89h0Zm-3.57,3.02c.86.06,2.63.61,2.93,1.72.5.95-1.5,2.45-2.67,2.43-.22,0-.41-.06-.54-.17l-.18-3.88c0-.09.18-.12.47-.1h0Zm30.6,1.54c-6.62-.04-10.14,1.7-8.88,4.83.81.82.26,1.12-.09,1.61-1.4,1.44-.62,2.49.23,4.09,0,0-10.98,19.76-16.46,29.61l96.83.25-3.81-7.24.66-.45c-1.04-1.74-1.92-3.7-2.98-5.43l-.76.09c-1.25-2.42-1.76-3.31-3.4-6.18h.74c-.38-1.27-1.36-2.12-1.38-3.03-.01-1.14.28-2.29-.41-3.06-.82-.91-.92-1.16-.75-1.7.45-1.42-.83-2.99-2.12-2.85-9.12,1.23-18.4.11-27.72-2.65-9.37-2.77-17.54-7.04-26.67-7.78-1.07-.08-2.08-.12-3.02-.13h0Zm-1.22.47c12.18-.28,20.54,4.96,30.83,8.02,9.82,2.92,16.97,3.83,27.97,2.69,1.36.11,1.34.92,1.35,1.71-11.79,1.59-22.64.4-34.63-4.16-11.6-4.39-24.38-8.77-32.76-4.84,0,0-.05-1.67.91-2.15,0,0,.88-.72,3.84-1.13.85-.07,1.68-.11,2.49-.13h0Zm-25.3.88c.45,0,.49.86.27,2.59-.17,1.37-.42,2.27-.79,2.27-.33,0-.84-.8-1.47-1.84-.49-.81-.39-1.12.7-2.1.6-.61,1.02-.92,1.29-.92Zm-4.3,2.24c.34-.02,2.69,1.98,2.46,3.02-.48,1.31-2.12,1.03-3.13.99l.63-3.98s.02-.03.04-.03h0Zm29.62.86c.4-.01.8-.01,1.21,0,7.18.18,15.98,3.26,22.6,5.72,15.47,5.76,27.51,5.42,36.12,4.76.76.15,1.36,2.14.15,2.15-16.09.18-13.49,2.2-38.49-5.19-9.72-2.87-17.5-7.35-28.74-3.36l-.05-2.2c1.96-1.27,4.44-1.82,7.22-1.88h0Zm-26.42,3.57c.42.04.34.45-.01,1.44-.38,1.07-.73,1.6-1.1,1.61-.29.01-.59-.3-.95-.91-.68-1.18-.59-1.4.73-1.83.65-.21,1.08-.33,1.33-.3h0Zm-4.41,1.09s1.24,1.15,1.87,2.28c.42,1.1-.85,1.4-2.09,1.5l-1.19-1.53,1.41-2.26Zm32.87.51c2.18-.03,4.51.14,6.82,1.07l-5.27,1.8-3.67-2.8c.69-.03,1.4-.07,2.13-.08h0Zm-5.52,1.12c4.13-.18,7.03,2.99,6.91,3.14,5.84-3.39,11.01-2.68,15.39,3.02,1.14-.64,9.28-2.13,15.16,4.37,5.93-3,11.44-1.74,16.34,1.61,3.62-3.44,7.44-3.99,11.4-2.33l1.17,2.38c-.3.11-1.58-2.39-7.78-1.22-2.08.39-5.67,3.92-3.66,5.64.92,1.31.95,1.9.13,2.7-.8.78-2.16.38-2.62-.41-.32-.57-.18-1.35.33-1.99,2.18-2.73-4.67-7.46-9.6-6.64-3.75.63-6.95,2.9-5.57,4.62,1.12,1.41.39,2.83-.96,2.82-1.39-.01-2.5-1.12-1.3-2.65,2.68-3.39-1.4-7.37-7.65-7.45-4.41-.06-5.88,1.04-5.64,4.21.11,1.48-.18,1.89-1.2,2.12-1.64.36-2.46-1.53-1.11-2.97,2.93-3.11-.4-7.69-5.94-7.99-2.03-.11-2.43,0-4.69,1.29-1.77,1.01-2.39,2.53-1.53,3.71,1.12,1.52-.39,3.34-2.12,2.59-1.24-.53-1.85-1.49-.48-3.12,1.8-2.14.9-3.77-2.52-5.09-2.17-.83-3.68-.76-4.94-.22-.79.34-1.48.86-2.16,1.47.85-1.48,1.61-2.86,1.61-2.86,1.06-.48,2.08-.7,3.03-.74h0Zm19.67,1.65c2.4.76,4.73,1.6,6.9,2.65l-3.7.77-3.19-3.41Zm-20.16,1.3c.24-.01.48-.01.73.01,1.19.08,2.45.47,3.39,1.4-3.85-.52-5.21,4.61-.51,5.75-6.2,4.64,5.43,11.6,5.57,1.99,5.47.97,4.76-6.31,1.29-6.88,1.77-1.97,6.99-2.03,9.72,2.13-4.64-2.43-7.15,3.84-2.33,5.59-5.95,5.25,5.7,10.1,5.43,1.61,4.39,2.62,7.41-4.06,1.55-5.09.33-1.2,8.01-1.21,9.95,1.9-5.44-1.25-5.69,5.42-.89,5.97-4.82,6.16,7.41,9.28,5.36.87,4.73,1.88,6.51-4.05,1.91-5.96-.26-.94,7.45-1.75,10.15,1.66-5.92.9-3.85,6.68-.01,6.22,0,0-.05.16-.27.73-1.81,5.81,7.93,6.3,6.58.14-.22-.57-.45-1.32-.45-1.32,2.69.55,4.33-.55,4.13-3.09-.67-3.37-2.44-3.12-4.7-2.45-.95-1,5.45-4.34,9.47-1.36-4.92,1.43-2.43,7.24,1.69,6.46.17,1.86,2.17,4.46,4.78,3.19l2.76,5.47h-93.52s8.01-13.95,8.01-13.95c4.28.78,5.29-2.85,5.35-3.36,5.56,1.44,4.71-5.83,1.92-6.32-.1-.58,1.28-1.23,2.96-1.3h0Zm-25.26.03c.43-.04.86.02.69.24l-.8,1-.62-.87c-.14-.19.3-.33.74-.37Zm19.59,3.04c.62.7.8,2.18-1.07,2.22l1.07-2.22Zm41.5,1.09l5.05,1.07-2.65,1.28-2.4-2.35Zm15.61,2.05l5.12.03-2.26,1.78-2.86-1.81Zm16.46,5.29s.11.03.21.2c.2.36,1.25,1.95,1.2,2-.49.04-.97-.47-1.19-.87h0c-.26-.51-.35-1.26-.22-1.33h0Z"/>
    <path id="uuid-0a44d784-85e1-498b-95b7-b88e30e60120" data-name="path12536" class="uuid-7fd1d725-4aaf-43ea-b90c-b614d0962852" d="m182.57,259.4c5.81,9.61,11.92,18.96,19.55,26.94-7.64,7.98-13.75,17.32-19.55,26.94-5.81-9.61-11.92-18.96-19.55-26.94,7.64-7.98,13.75-17.32,19.55-26.94Z"/>
    <path id="uuid-2188df51-5bde-4861-ae9a-31f0ab730399" data-name="path12538" class="uuid-7fd1d725-4aaf-43ea-b90c-b614d0962852" d="m230.09,271.43c2.42,4.01,4.97,7.9,8.15,11.22-3.18,3.33-5.73,7.22-8.15,11.22-2.42-4.01-4.97-7.9-8.15-11.22,3.18-3.33,5.73-7.22,8.15-11.22Z"/>
    <path id="uuid-797cb129-097e-41af-8d4e-a22b3f43e5cd" data-name="path12540" class="uuid-7fd1d725-4aaf-43ea-b90c-b614d0962852" d="m67.15,90.56c5.81-9.61,11.92-18.96,19.55-26.94-7.64-7.98-13.75-17.32-19.55-26.94-5.81,9.61-11.92,18.96-19.55,26.94,7.64,7.98,13.75,17.32,19.55,26.94Z"/>
    <path id="uuid-df50b7e1-45a7-45fa-bfd3-1ac327815564" data-name="path12542" class="uuid-7fd1d725-4aaf-43ea-b90c-b614d0962852" d="m19.62,78.54c2.42-4.01,4.97-7.9,8.15-11.22-3.18-3.33-5.73-7.22-8.15-11.22-2.42,4.01-4.97,7.9-8.15,11.22,3.18,3.33,5.73,7.22,8.15,11.22Z"/>
    <path id="uuid-3dc0c14d-4ac9-4d9b-99ec-57f6e8317f42" data-name="path12544" class="uuid-7fd1d725-4aaf-43ea-b90c-b614d0962852" d="m229.2,301.48h-3.72l5.46,13.68,4.17-5.78-.03-7.9h-2.93v-4.07h10.33v4.07h-3.4v29.41h3.4s0,3.55,0,3.55h-10.48v-3.68h2.89l.06-14.33-9.15,14.46h3.23v3.56h-11.15v-3.56h2.94l7.53-11.81-7.37-17.59h-3.27l-.02-4.07h11.46l.03,4.08h0Z"/>
    <path id="uuid-2be01e8f-03f1-410d-afa8-8c34d01c088a" data-name="path12546" class="uuid-7fd1d725-4aaf-43ea-b90c-b614d0962852" d="m20.51,48.49h3.72l-5.46-13.68-4.17,5.78.03,7.9h2.93v4.07H7.23v-4.07h3.4v-29.41h-3.4s0-3.55,0-3.55h10.48v3.68h-2.89l-.06,14.33,9.15-14.46h-3.23v-3.56h11.15v3.56h-2.94l-7.53,11.81,7.37,17.59h3.27l.02,4.07h-11.46l-.03-4.08h0Z"/>
  </g>
</svg>