<?xml version="1.0" encoding="UTF-8"?>
<svg id="uuid-8ce70a31-8907-416a-9afb-1199e4aa70c7" data-name="Cards" xmlns="http://www.w3.org/2000/svg" viewBox="0 0 250 350">
  <defs>
    <style>
      .uuid-6e29c7cd-8be0-4caa-9f94-657dd0a600a4 {
        fill: #c8102e;
      }

      .uuid-6e29c7cd-8be0-4caa-9f94-657dd0a600a4, .uuid-5658d0cc-36fe-4b3e-abc9-b942e7151b09 {
        stroke-width: 0px;
      }

      .uuid-5658d0cc-36fe-4b3e-abc9-b942e7151b09 {
        fill: #fff;
      }
    </style>
  </defs>
  <g id="uuid-8d19a6d1-b6bb-4879-9400-50f01bd655b8" data-name="DIAMOND-10">
    <g id="uuid-c5c09c5b-8a56-4911-8bd0-506d4f1fe175" data-name="g7028-7">
      <path id="uuid-3e4b539c-31d5-42a3-84d3-4d32b98290cc" data-name="rect7030-4" class="uuid-5658d0cc-36fe-4b3e-abc9-b942e7151b09" d="m11.88-.01h226.08c6.6,0,11.96,5.36,11.96,11.97v326.05c0,6.61-5.35,11.97-11.96,11.97H11.88c-6.6,0-11.96-5.36-11.96-11.97V11.96C-.08,5.35,5.27-.01,11.88-.01Z"/>
    </g>
    <path id="uuid-40b13e77-158c-48ae-bc3a-644c4d007f90" data-name="path7062-5" class="uuid-6e29c7cd-8be0-4caa-9f94-657dd0a600a4" d="m19.2,78.53c-2.42-4.01-4.97-7.9-8.15-11.22,3.18-3.33,5.73-7.22,8.15-11.22,2.42,4.01,4.97,7.9,8.15,11.22-3.18,3.33-5.73,7.22-8.15,11.22Z"/>
    <path id="uuid-09a6850a-3d86-4efe-9410-331eaaedb0a4" data-name="path7064-0" class="uuid-6e29c7cd-8be0-4caa-9f94-657dd0a600a4" d="m182.89,90.57c-5.81-9.61-11.92-18.96-19.55-26.94,7.64-7.98,13.75-17.33,19.55-26.94,5.81,9.61,11.92,18.96,19.55,26.94-7.64,7.98-13.75,17.33-19.55,26.94Z"/>
    <path id="uuid-d1d12dea-3460-4363-8bfc-4e89102e939a" data-name="path7066-9" class="uuid-6e29c7cd-8be0-4caa-9f94-657dd0a600a4" d="m230.63,293.89c-2.42-4.01-4.97-7.9-8.15-11.22,3.18-3.33,5.73-7.22,8.15-11.22,2.42,4.01,4.97,7.9,8.15,11.22-3.18,3.33-5.73,7.22-8.15,11.22Z"/>
    <path id="uuid-9bc38712-9d2b-401f-96bc-ff60d2a4bab8" data-name="path7068-2" class="uuid-6e29c7cd-8be0-4caa-9f94-657dd0a600a4" d="m66.94,90.57c-5.81-9.61-11.92-18.96-19.55-26.94,7.64-7.98,13.75-17.33,19.55-26.94,5.81,9.61,11.92,18.96,19.55,26.94-7.64,7.98-13.75,17.33-19.55,26.94Z"/>
    <path id="uuid-b79b822a-8175-40c0-89e8-3294b8562546" data-name="path7070-0" class="uuid-6e29c7cd-8be0-4caa-9f94-657dd0a600a4" d="m182.89,164.81c-5.81-9.61-11.92-18.96-19.55-26.94,7.64-7.98,13.75-17.33,19.55-26.94,5.81,9.61,11.92,18.96,19.55,26.94-7.64,7.98-13.75,17.33-19.55,26.94Z"/>
    <path id="uuid-08ae53b7-4649-4279-a33f-0aa586cd6879" data-name="path7072-0" class="uuid-6e29c7cd-8be0-4caa-9f94-657dd0a600a4" d="m66.94,164.81c-5.81-9.61-11.92-18.96-19.55-26.94,7.64-7.98,13.75-17.33,19.55-26.94,5.81,9.61,11.92,18.96,19.55,26.94-7.64,7.98-13.75,17.33-19.55,26.94Z"/>
    <path id="uuid-22b01e86-d865-491d-99e9-8c83808e5cc2" data-name="path7074-4" class="uuid-6e29c7cd-8be0-4caa-9f94-657dd0a600a4" d="m124.91,127.68c-5.81-9.61-11.92-18.96-19.55-26.94,7.64-7.98,13.75-17.33,19.55-26.94,5.81,9.61,11.92,18.96,19.55,26.94-7.64,7.98-13.75,17.33-19.55,26.94Z"/>
    <path id="uuid-9c754362-36a1-4714-8b81-43f91731d1de" data-name="path7084-9" class="uuid-6e29c7cd-8be0-4caa-9f94-657dd0a600a4" d="m66.94,313.29c-5.81-9.61-11.92-18.96-19.55-26.94,7.64-7.98,13.75-17.33,19.55-26.94,5.81,9.61,11.92,18.96,19.55,26.94-7.64,7.98-13.75,17.33-19.55,26.94Z"/>
    <path id="uuid-bc55b1cd-8fd4-4eaf-bcdc-4a9b4c9a8845" data-name="path7086-7" class="uuid-6e29c7cd-8be0-4caa-9f94-657dd0a600a4" d="m182.89,313.3c-5.81-9.61-11.92-18.96-19.55-26.94,7.64-7.98,13.75-17.33,19.55-26.94,5.81,9.61,11.92,18.96,19.55,26.94-7.64,7.98-13.75,17.33-19.55,26.94Z"/>
    <path id="uuid-b8b2c1f4-7537-4ffa-a954-9876601f6ff5" data-name="path7088-6" class="uuid-6e29c7cd-8be0-4caa-9f94-657dd0a600a4" d="m182.89,239.04c-5.81-9.61-11.92-18.96-19.55-26.94,7.64-7.98,13.75-17.33,19.55-26.94,5.81,9.61,11.92,18.96,19.55,26.94-7.64,7.98-13.75,17.33-19.55,26.94Z"/>
    <path id="uuid-c2b0326c-cad9-4b70-855d-0189b724c7fe" data-name="path7090-8" class="uuid-6e29c7cd-8be0-4caa-9f94-657dd0a600a4" d="m66.94,239.01c-5.81-9.61-11.92-18.96-19.55-26.94,7.64-7.98,13.75-17.33,19.55-26.94,5.81,9.61,11.92,18.96,19.55,26.94-7.64,7.98-13.75,17.33-19.55,26.94Z"/>
    <path id="uuid-1f2eed68-9481-4cc7-aa06-dc5da77a1c50" data-name="path7092-79" class="uuid-6e29c7cd-8be0-4caa-9f94-657dd0a600a4" d="m124.91,276.16c-5.81-9.61-11.92-18.96-19.55-26.94,7.64-7.98,13.75-17.33,19.55-26.94,5.81,9.61,11.92,18.96,19.55,26.94-7.64,7.98-13.75,17.33-19.55,26.94Z"/>
    <g id="uuid-e95ffd43-7ee4-4ec6-a829-663e9cb9be93" data-name="g8345-9-6-9-5">
      <path id="uuid-e0de94cd-de13-4969-9a70-8b023722a5f6" data-name="path31-8-2-5-6" class="uuid-6e29c7cd-8be0-4caa-9f94-657dd0a600a4" d="m7.98,52.56V15.52h3.58v37.04h-3.58Z"/>
      <path id="uuid-2d88aa93-1c9e-4536-9ca3-a1e2482669da" data-name="path33-2-0-3-1" class="uuid-6e29c7cd-8be0-4caa-9f94-657dd0a600a4" d="m22.18,15.52c-3.45,0-6.22,3.16-6.22,7.08v22.89c0,3.92,2.77,7.08,6.22,7.08h2.01c3.45,0,6.23-3.16,6.23-7.08v-22.89c0-3.92-2.78-7.08-6.23-7.08h-2.01Zm1.04,3.5c2.04,0,3.67,1.57,3.67,3.52v23.19c0,1.96-1.64,3.54-3.67,3.54s-3.68-1.58-3.68-3.54v-23.19c0-1.96,1.64-3.52,3.68-3.52Z"/>
    </g>
    <g id="uuid-5db33d1c-f9ef-421c-822b-eeebdfd57110" data-name="g8345-5-0-8-9">
      <path id="uuid-c0d82cb9-f8f2-426c-a1c6-3a117247f2d4" data-name="path31-1-3-1-4" class="uuid-6e29c7cd-8be0-4caa-9f94-657dd0a600a4" d="m241.84,297.41v37.04h-3.58v-37.04h3.58Z"/>
      <path id="uuid-772fdcb1-a951-4a0e-89c1-534ecb044b19" data-name="path33-5-5-1-9" class="uuid-6e29c7cd-8be0-4caa-9f94-657dd0a600a4" d="m227.64,334.45c3.45,0,6.22-3.16,6.22-7.08v-22.89c0-3.92-2.77-7.08-6.22-7.08h-2.01c-3.45,0-6.23,3.16-6.23,7.08v22.89c0,3.92,2.78,7.08,6.23,7.08h2.01Zm-1.04-3.5c-2.04,0-3.67-1.57-3.67-3.52v-23.19c0-1.96,1.64-3.54,3.67-3.54s3.68,1.58,3.68,3.54v23.19c0,1.96-1.64,3.52-3.68,3.52Z"/>
    </g>
  </g>
</svg>