<?xml version="1.0" encoding="UTF-8"?>
<svg id="uuid-76e64347-8831-4e64-9d62-91799e58eee2" data-name="Cards" xmlns="http://www.w3.org/2000/svg" viewBox="0 0 250 350">
  <defs>
    <style>
      .uuid-b16bc13c-69ff-4b15-a179-fbe09494c444, .uuid-566487ad-b23c-4ea4-b9eb-f34e562c366d, .uuid-e4cbac30-f21c-41ab-a21c-a114e4291c27, .uuid-931e4f22-4996-4fca-b4a0-5ec1101e8c7f, .uuid-fab5d1d0-4b53-4476-b0d9-a7ff915a5d07 {
        stroke-width: 0px;
      }

      .uuid-566487ad-b23c-4ea4-b9eb-f34e562c366d {
        fill: #c8102e;
      }

      .uuid-e4cbac30-f21c-41ab-a21c-a114e4291c27 {
        fill: #fff;
      }

      .uuid-931e4f22-4996-4fca-b4a0-5ec1101e8c7f {
        fill: #ffcd00;
      }

      .uuid-fab5d1d0-4b53-4476-b0d9-a7ff915a5d07 {
        fill: #004c97;
      }
    </style>
  </defs>
  <g id="uuid-bbe6f60f-226c-4305-b358-584008c6a9f7" data-name="DIAMOND-11-JACK">
    <path id="uuid-95365288-f560-4093-808c-a1cb1bca974a" data-name="rect7098-3" class="uuid-e4cbac30-f21c-41ab-a21c-a114e4291c27" d="m11.86-.01h226.08c6.6,0,11.96,5.36,11.96,11.97v326.06c0,6.61-5.35,11.97-11.96,11.97H11.86c-6.6,0-11.96-5.36-11.96-11.97V11.96C-.09,5.35,5.26-.01,11.86-.01Z"/>
    <path id="uuid-03bd1ad3-ab44-41f0-bfec-e232a0187dce" data-name="path7130-4" class="uuid-566487ad-b23c-4ea4-b9eb-f34e562c366d" d="m19.66,78.53c-2.42-4.01-4.97-7.9-8.15-11.22,3.18-3.33,5.73-7.22,8.15-11.22,2.42,4.01,4.97,7.9,8.15,11.22-3.18,3.33-5.73,7.22-8.15,11.22Z"/>
    <path id="uuid-856e41cd-01bc-4f0b-9fdf-0eb7d70e7e05" data-name="path7134-0" class="uuid-566487ad-b23c-4ea4-b9eb-f34e562c366d" d="m230.15,293.89c-2.42-4.01-4.97-7.9-8.15-11.22,3.18-3.33,5.73-7.22,8.15-11.22,2.42,4.01,4.97,7.9,8.15,11.22-3.18,3.33-5.73,7.22-8.15,11.22Z"/>
    <path id="uuid-ef7ee47b-687e-4f82-b0d7-c0dc64e400ad" data-name="path7136-1" class="uuid-566487ad-b23c-4ea4-b9eb-f34e562c366d" d="m67.19,90.56c-5.81-9.61-11.92-18.96-19.55-26.94,7.64-7.98,13.75-17.33,19.55-26.94,5.81,9.61,11.92,18.96,19.55,26.94-7.64,7.98-13.75,17.33-19.55,26.94Z"/>
    <path id="uuid-b158a680-b1d5-4436-b566-15595cd1434a" data-name="path7154-5" class="uuid-566487ad-b23c-4ea4-b9eb-f34e562c366d" d="m182.62,313.3c-5.81-9.61-11.92-18.96-19.55-26.94,7.64-7.98,13.75-17.33,19.55-26.94,5.81,9.61,11.92,18.96,19.55,26.94-7.64,7.98-13.75,17.33-19.55,26.94Z"/>
    <path id="uuid-04c609ef-e312-4b8f-bb26-313f8a8f432b" data-name="path6263-5" class="uuid-fab5d1d0-4b53-4476-b0d9-a7ff915a5d07" d="m33.48,322.68V27.29h182.84v295.38H33.48ZM99.3,76.41c-6.54-1.79-6.38,4.73-1.59,4.97,5.36.46,7.66-8.71,5.1-12.32,0,0-2.23,6.91-3.51,7.35Zm-42.43,36.82l-7.85,3.51-.03,5.88c3.27-2.61,5.83-5.8,7.88-9.39h0Zm53.59,176.64c-1.55-.78-3.41-2.46-3.12-2.76.14-.15.98.12,1.74.46,6.14,2.59,10.9,2.43,18.22-.24.55-.2,1.38.86,1.07,1.44-3.24,4.81-13.73,3.1-17.91,1.1h0Zm-2.15-7.13c4.54,4.23,10.69,5.67,15.97,1.68.25-.27.28-.53.21-.72-.15-.39-.15.03-2.41.81-5.07,1.9-9.34.34-13.5-2.86-1.72-1.33-2.51-1.98-2.51-2.33,0-.32.32-.52.9-.42.36.06,1.36.27,2.09.33,1.27.1,1.17.05,2.47-.55,2.78-1.29,5.34-1.76,8.24-1.23.67.12,1.52.34,1.63.31.65-.22-.31-1.08-2.77-3.03-.48-.39-1.09-.71-1.29-1.05-.31-.52.03-.66.38-.65,1.01.01,5.56,3.82,7.11,6.08.47.69.8.76.8,1.48-.09.74-.21,1.45.59,2.49.57.75,1.13,1.95,1.14,2,.01.07-.11.44-.64.09-.24-.04-.36-.3-.8-.24-.38.06-1,.36-1.69.68-5.93,3.9-10.8,2.23-15.55-1.41-4.78-3.67-.88-1.95-.36-1.47h0Zm12.86-.38c.13.01-.44-2.35-1.08-3.04-1.26-1.37-3.19-1.62-4.36-.22-.66.79-1.38,2.99-1.38,2.99,0,0,1.02.3,1.31.3.04-.49.04-1.87,1.06-2.68.5-.39,1.57-.38,1.99-.05.83.41,1.18,2.06,1.19,2.71.45.14,1.5.01,1.27,0h0Zm-7.7-3.4c-.9.4-2.06.67-2.33,1.27-.35.8.9,1.01,1.54,1.3.91.41.92.27,1.21-.42.18-.43.42-1,.65-1.52.67-1.3,0-1.12-1.07-.64h0Zm9.87,2.09c.38-.42.41-.76,0-1.28-.21-.27-.8-.54-1.45-.76-.83-.28-1.19-.62-.67.51l.75,1.61c.34.69.6.55,1.07.23.15-.1.2-.19.31-.31h0Zm-85.1-54.97c.32,0,3.45-1.03,4.56-1.53,1.11-.42,1.24-.41.8-1.03-.34-.94-.22-1.6-.14-2.58-1.93-.39-4.67.58-5.5,2.03-.63,1.1-.86,2.74.28,3.1Zm-.23,4.99c.47.43.76.39,2.35-.2.62-.41,1.91-.93,2.81-.99,2.12-.57,2.12-.34,1.52-1.7-.28-.63-.37-1.15-.28-1.73.1-.69.18-.78-.2-.9-1.01-.32-5.81,1.41-6.58,2.83-.54.99-.44,1.87.38,2.69Zm109.63,46.52c.09,1.09.11,2.78.12,3.68-.04,1.77.66,2.18,1.42,1.21.74-2.31,1.04-5.96,2.82-7.81,1.32-.38,2.93.29,3.87-.62,2.16-2.1.47-4.48-1.51-4.65-4.05-.08-7,4.87-6.71,8.18Zm9.89-5.67c.14,2.24-2.09,3.77-4.35,3.25-.92-.23-1.19-.02-1.81,1.29-1.34,3.61-1.86,7.22-2.22,9.59-.15,2.13-.93,7.67-.37,9.44,6.46,8.01,13.26,16.34,20.7,24.58h44.41v-52.3l-12.73-12.2.02-19.34c-13.77,6.51-27.49,13.1-41.23,19.66,2.99,9.63-7.16,11.65-9.38,5.2-1.93,1.77-3.51,11.33-2.8,11.81,0,0,.26.35.68-.42.7-1.25,1.62-2.17,2.6-2.78,2.86-1.78,6.27-.9,6.46,2.21Zm-35.24-.98c-2.17-1.73-1.01-4.37.8-5.17.96-.42,2.49-.36,4.18.24,1.48.68,2.37.59,3.89.4,1.01-.11.82,2.01-.23,2.55-.74.39-2.45.2-4.52-.98-3.58-2.04-5.15.6-2.93,2.99,1.23,1.32-.87.26-1.19-.04h0Zm-73.6-31.67c1.91-1.23,1.12-3.41-.66-3.77-2.4.05-3.01,2.81-1.29,3.76,0,.34-.85.06-1.31-.28-.71-.54-.06-2.64-.73-2.72-.51,0-5.46,1.77-5.99,2.12-2.22,1.27-.14,4.12,1.15,3.8,2.68-.68,6.33-1.28,8.83-2.9h0Zm-11.07-4.08c.05,1.27.4,1.84,1.23,1.85,1.74-.3,3.36-1.14,4.99-1.66,1.27-.42,1.79-.89.82-1.68-.29-.34-.55-.82-.41-1.74.33-1.05.08-1.1-.37-1.15-.44-.05-1.45.37-4.05,1.37-1.36.53-1.63.75-1.98,1.51-.16.58-.26.93-.24,1.51h0Zm14.44,16.43c.3-.35.97-2.57.97-3.12-.14-.91-.81-1.12-1.41-.53-.73.65-.53,1.64-.97,2.4-.15.26-.31.63-.27.78.23.8,1.21.94,1.68.47h0Zm17.57-113.81c-1.51-1.43-3.72,3.36-3.79,3.43l-3.07,2.68c16.28,28.15,13.45,60.54-6.45,83.56l.02,1.46c.05,3.22.97,3.08,2.32,1.57,1.43-1.51.47-.28-.11.34-.5.53-1.3,1.6-1.52,1.88.24,1.78,1.29,4.96.86,6.46,34-33,27.73-73.6,11.74-101.39h0Zm-13.36,94.61c-.23-.64-.47-2.1-.6-3.23-.08-.73-.11-1.43-.15-2.14-.24-1.42-.82-4.69-1.29-5.41-.51-.78-1.75-1.34-3.13-1.43-1.18-.08-1.28-.05-1.53.33-.43.66-.14,4.01.3,5.24.5,1.44.2,2.22-.2,3.65-.14.52-.19.55.06.59,1.11-.08,1.48-1.44,1.91-1.03.15.15-.24,1.27-.75,2.4-.55,1.19-.71,2.83-.06,4.85.36,1.13.21,1.49-.01,2.17-.15.46-.4,1.85-.41,3.24.52,1.74.26,2.52-.05,3.1-.66,1.48-1.17,3.48-.82,4.61.16.49.56.07.86-.77.47-1.67,1.01-2.04,2.38-2.04,1,0,1.09.35,1.42-.1.75-1.01,2.57-4.61,2.61-5.61.85-3.51.42-6.18-.56-8.4h0Zm10.61,16.78c.6-.23,1.53-1.51,1.53-1.95,0-.49-3.72-4.11-5.27-5.12-.7-.45-1.04-.13-2.28,1.54-1.1,1.49-1.25,1.5-1.04,1.79.25.34,4.04,2.82,5.3,3.52.44.24,1.17.44,1.76.22h0Zm6.97-6.46c-.56-.43-5.01-5.38-6.33-5.62-.5-.09-2.11,1.75-2.11,2.16,2.01,2.05,3.85,4.11,6.13,5.75.63-.32,2.23-1.62,2.31-2.29Zm4.73-4.67c0-.29-.49-.9-1.69-2.08-3.05-3.01-4.75-4.38-5.29-4.38-.58.19-1.64,1.98-1.71,2.6.2.37,5.31,5.02,5.97,5.47.82.79,2.6-1.05,2.72-1.61h0Zm4.79-4.8c.13-.44-.12-.82-.77-1.44-2.43-2.15-4.12-4.54-6.72-6.19-1.08.35-1.59,1.32-1.79,2.29-.13.63.78,1.37,2.71,3.26,3.34,3.27,4.12,3.93,4.64,3.93.79-.37,1.65-.98,1.93-1.84h0Zm-35.8-2.87c-.56-.17-1.07-.07-1.51.28-2.37,2.02.99,4.62,2.37,3,.92-.91.88-2.86-.86-3.28h0Zm40.72-2.11c0-.34-.69-1.1-3.08-3.38-5.91-5.65-5.64-5.44-6.3-5.09-.41.22-1.2,1.74-1.2,2.3,3.15,3.12,4.59,5.4,8.71,8.12.7-.35,1.83-1.1,1.86-1.95h0Zm-40.57.21c1.16-.51,1.38-1.77.72-2.76-1.26-1.12-3.02-.19-3.04,1.24.22,1.35,1.36,1.92,2.33,1.52h0Zm45.42-4.96c0-.68-10.11-10.16-10.83-10.16-.49,0-.84.4-1.3,1.47-.4.93-.36,1.48.14,1.97.73.71,2.68,2.51,4.53,4.19,1.1,1,2.36,2.18,2.8,2.64,1.04,1.07,2.18,1.9,2.62,1.9.63-.37,1.5-.86,2.03-2.01h0Zm-45.95-1.22c.01-.38-.09-.77-.36-1.06-.69-.74-1.99-.35-2.31.63-.3,2.31,2.57,2.41,2.67.43Zm7.49-73.82l1.98-6.07,6.04-.16.85-6.03,6.22-.9.1-6.23,5.95-.81-.37-6.67,5.52-1.31-.27-6.18,5.01-1.54-.2-5.38.86-.68-2.17-2.21-1.87.61-.03,5.53-5.01,1.62.53,6.11-5.06,1.16-.06,6.65-5.81.65-.42,5.87-5.67,1.12-.85,5.74-5.5.38-1.68,5.05-3.64.04v3.38l5.56.26Zm65.75,108.52c-.19-.46.31-.39,1.17.16.9.57,2.22,1.05,3.16,1.05.39,0,1.78-.25,3.1-.55,1.57-.58,2.96-.61,4.59-.26,1.21.16,2.43.3,2.71.29.81.11,2.18-.89,2.55-1.52,1-1.71.76,1.4.76,1.75.02,1.59.22,3.42-.92,2.57-.67-.35-1.85-.66-2.78-.03-.94.63-1.72.77-2.83.1-.91-.36-1.39-.43-2.07.2-.76.71-2.59.45-3.58.13-1.69-.28-2.64-.53-3.77.37-.6.35-.76.09-1.21-1.25-.45-1.34-.81-2.84-.88-3.01h0Zm4.3-1.12c-.11-.17.8-1.06,1.41-1.38,1.8-.93,5.37-.89,7.93.06,1.33.49,1.54,1.34.24,1.16-2.7-.57-6.08-1.03-8.68.21-.2.11-.85.04-.9-.04h0Zm2.28-4.22c-1.84-.69-2.75-1.42-2.75-1.65,0-.25.4-.2,1.84.19,1.97.73,4.31,1.12,6.26.44,1.4-.52,2.1-.85,2.1-.54,0,.33-.58,1.19-1.54,1.69-1.92.78-4.44.41-5.91-.13h0Zm40.02-5.14l1.37-.19-.48-5.73,5.04-1.5-.35-5.69,5.37-1.85-.32-6.41,5.58-1.1.73-5.61,5.27-.38,1.09-6.1,5.66-.2,1.17-5.07,3.77-.02-.02-2.85-5.87.02-1.24,5.49-5.54.16-1.17,6.03-5.81-.04-.74,6.5-5.46.9v7l-5.27,1.37.41,5.99-5.26,1.93.59,5.71,1.48,1.66Zm34.38-131.89c.5,2.04,3.35,1.35,3.66-.08.15-.62-.26-1.55-.97-1.76-.12-.04-.57,0-.8-.23-.17-.17.87-.71,1.48-.5.76.25,1.39,1.27,1.39,2.14,0,.34.07.84.19,1.01,1.26-.03,2.54-.73,3.9-1.1,2.29-.64,3.11-1.95,2.61-3.49-.42-1.28-1.73-1.79-3.45-1.14-2.25.85-4.88,1.27-6.91,2.5-1.03.59-1.31,1.81-1.1,2.66h0Zm-96.84,138.11c7.74-5.46,12.31-8.58,22.25-9.11-3.55-1.46-4.13-3.38-5.12-5.22-12.31,1.17-18.85,5.11-24.7,8.79,2.42,1.14,4.94,2.47,7.58,5.55h0Zm43.17-7.57c-3.76-2.66-8.23-4.27-12.86-5.51l-3.55,3.69c-.21-.13,10.29.11,16.41,1.82h0Zm36.06-35.03c-24.22-37.33-7.95-70.18,8.89-91.11.54-.69.67-.72.55-1.27-.16-.72-.36-4.35-.24-6.44-31.13,30.95-31.93,71.26-12.4,103.26,1.4-1.25,4.21-2.92,3.2-4.43h0Zm3.63-3.19c-3.98-6.64-25.15-42.6,7.19-82.72,0,0-.11-2.05-.35-2.81-.43-1.38-1.11-1.93-1.11-1.93-13.59,20.45-33.33,46.05-8.67,90.5l2.94-3.03Zm-18.52-67.68c.48-.4,1.19-1.83,1.19-2.43,0-.53-.38-.97-4.03-4.69-4.86-4.95-5.7-5.71-6.33-5.71-.59,0-2.12,1.46-2.12,2.02,0,.27,1.43,1.81,4.81,5.2,6.27,6.28,5.97,6.02,6.48,5.6h0Zm4.48-9.12c0-.3-.45-.89-1.52-1.99-2.81-2.9-6.82-6.58-7.17-6.58-.45,0-1.68,1-2,1.62-.23.44-.22.54.04.96.5.78,6.77,6.75,8.55,8.25,1.07.99,2.04-1.51,2.09-2.26h0Zm2.42-3.7c.5-.27,1.44-2.03,1.33-2.49-.05-.21-1.64-1.93-3.54-3.82-3.74-3.74-3.96-3.87-4.89-3.03-.84.76-1.37,1.52-1.27,1.82.13.37,5.73,6.09,6.88,7.01.91.73,1.01.77,1.5.51Zm28.56-.28c1.76-1.69-.23-3.55-1.68-2.69-.62.38-.98,1.22-.79,1.77.31.92,1.56,1.42,2.48.93Zm3.48-.43c2.98-.78,4.4-1.31,5.03-2.24.43-.64.48-1.04,0-2.09-.45-.97-.97-1.27-2.84-.24-1.28.7-4.13,1.04-5.13,1.63-.4.34-.2.34.12.55.72.46,1.07.77.99,1.37-.17,1.32-.03,1.52,1.84,1.02h0Zm-3.15-4.68c1.45-.74,1.15-2.53-.46-3.24-2.13-.56-3.5,2.01-1.76,3.26.47.33,1.65.27,2.22-.02Zm4.8-.73c2.09-.72,2.89-1.28,3.5-2.44.48-.92.27-1.33.21-2.22-.1-1.35-.77-1.19-2.72-.49-.95.37-5.5,1.65-5.57,2.12,2.2,1.26,1.64,1.92,1.65,3.53.11.37,1.15.1,2.92-.51h0Zm-28.5-2.14c0-.61-5.84-6.35-6.46-6.35-.96,0-2.35,1.5-2.14,2.33.09.37,5.57,5.9,6.25,6.31.96.56,2.28-1.38,2.35-2.3Zm4.35-4.72c.63-.92.58-1.43-.17-1.91-.28-.18-1.5-1.29-2.72-2.47-1.22-1.18-2.38-2.21-2.57-2.28-1.01-.13-2.83,1.48-2.64,2.31.11.43,4.59,4.86,5.58,5.52,1.24.61,1.89-.27,2.51-1.17Zm6.92-7.41c-2.5-1.31-7.44-4.05-7.44-4.05-1.24.38-2.04,1.01-2.79,1.98,1.86,2.2,4.13,4.29,6.4,5.93.82-.61,3.7-3.12,3.82-3.87Zm6.96-2.55c.61-.74,1.3-3.29.98-3.81-.3-.3-1.08-.26-1.45.08-.38.35-1.33,3.56-1.18,3.94.15.39,1.12.21,1.66-.21h0Zm-54.34,108.8c.47-.06,1.39-.64,2.73-1.8,1.43-1.23,5.97-3.98,6.46-5.09.22-.63.06-1.53-.41-1.6-.36-.05-.44.22-3.45,2.41-2.04,1.47-5.61,4.1-6.15,4.66-.23.6.29,1.35.82,1.41Zm-.42,17.58c3.11-2.16,5.62-4.4,9.67-6.91.31-.41.36-1.03.17-1.53-.24-.62-.56-.38-1.79.48-2.99,2.02-6.06,4.39-8.63,6.16-.82.56-1.52.87-1.35,1.19.23.42,1.51.54,1.92.62Zm3.02,1.33c2.04-1.68,4.49-3.28,6.67-4.9.31-.31.38-1.34.07-1.76-.25-.33-.04-.27-.65.07-.88.5-6.17,4.12-7.15,4.93-.57.48-1.05.71-.91.88.66.43,1.36.69,1.97.77h0Zm2.57,1.3c.42-.28,4.05-2.61,4.35-2.92.33-.35.24-1.94-.09-2.06-.92.73-5.76,3.69-5.77,4.17.49.44,1.14.85,1.51.82h0Zm3.88.32c.56-.51.67-.6.68-1.17.02-1.04-.24-1-1.71.06-1.03.67-1.66,1.14-1.48,1.54.73,1.15,1.78.24,2.51-.43h0Zm.4,2.13c.29-.11.29-.26.25-.62-.05-.4-.11-.39-.54-.39-1.18.04-.12,1.11.29,1.01Zm-14.14-5.82c.53-1.77,1.28-3.17,2.5-4.49,4.89-4.34,3.39-9.69.31-14.04,3.99-5.61,7.98-11.54,11.41-16.99v-8.85s.45.05.45.05c-.16,19.3.72,50.96.72,50.96l3.97,3.04-.53.27c.65-.1-11.56-7.77-18.82-9.95h0Zm3.59-2.2c3.38-2.56,6.67-4.57,10.02-7.29.36-.29.57-.31.58-.98.02-1.27-.23-1.29-1.49-.39-.56.4-2.59,1.82-4.52,3.13-2.01,1.36-3.88,2.57-4.25,3.01-1.89,2.19-2.58,3.23-2.39,3.54.2.33.58-.03,2.05-1.02h0Zm3.69-6.2c1.74-1.15,5.89-4.04,6.27-4.4.66-.62.77-1.61.18-1.72-.29-.06-3.51,2.1-6.22,4.16-1.32,1.01-1.62,1.24-1.62,2.19,0,.57.35.46,1.39-.23Zm1.73-4.5c5.32-3.8,5.19-3.48,5.07-4.89-.04-.48-.14-.69-.36-.73-.17-.03-1.11.65-2.17,1.39s-2.32,1.75-2.96,2.19c-1.85,1.29-2.46,1.63-2.46,2.37s.2,1.19.52,1.19c.12,0,1.18-.68,2.35-1.52Zm-.76-2.94c2.45-1.74,5.15-3.7,5.52-4.16.45-.57.37-1.8-.2-1.8-2.46,1.65-5.42,3.82-7.51,5.53-.27.24-.61.47-.72.78-.02.4.48.93.68.95.41,0,1.03-.45,2.22-1.3h0Zm-1.6-5.88c1.87-1.27,3.58-2.78,5.44-4.07,1.4-.96,1.79-1.26,1.71-2.46-.05-.7-.66-.3-3.02,1.29-1.73,1.16-2.53,1.62-3.15,2.41-.43,1-1.85,1.94-1.93,3.08,0,.42.28.22.96-.25h0Zm5.75-7.65c1.44-.96,1.57-.98,1.42-2.25-.2-1.59-.36-1.49-1.73.61-.9,1.38-1.21,1.79-1.08,2.04.23.44.49.19,1.39-.41h0Zm-5.24-11.69c-.15-.71-.37-.55-1.09.08-1.33,1.17-1.54,2.02-.71,2.47.44.24.78.21,1.04-.37.56-1.25.72-1.69.76-2.18Zm-7.46,11.11c-.17-.65-.96-1.52-1.56-1.84-.59-.31-.95-.25-1.52.47-.52.67-.28,1.06.51,2.06.58.73.81.96,1.26.96.55-.22,1.43-.96,1.31-1.66h0Zm-28.88,27.85c-.38-.74-1.19-1.51-1.56-1.38-.39.14-.77.7-.78,1.06.16.72.77,1.21,1.24,1.23.88-.13,1.42-.28,1.1-.9Zm3.52-1.12c-.76-.8-2.26-2.58-2.51-2.58-.38,0-1.3.97-1.3,1.36,0,.47,1.37,2.39,1.82,2.55,1.15-.11,3.27.02,1.99-1.33Zm4.35.23c-.08-.39-4.36-4.95-4.68-4.95-.41,0-1.21.9-1.21,1.31,0,.33,1.38,2.14,2.66,3.48.64.67.69.76,1.47.64.85-.13,1.96.05,1.76-.48h0Zm7.57-1.02c0-.92-.48-1.43-2.41-3.52-.7-.76-1.89-2.08-2.63-2.94-1.44-1.65-2.06-2.16-2.64-2.16-.45,0-1.15.74-1.15,1.21,0,.3,3.56,4.39,6.78,7.87.72.77,1.04,1,1.72.63.39-.27.34-.73.34-1.08h0Zm-5.57-10.96c-.72.6-.99.84-1,1.24,0,.61,6.14,7.37,6.68,7.37.32,0,.27-.04.46-.77.38-2.21-.22-2.86-1.81-4.31-1.07-.98-3.22-4.34-4.34-3.53h0Zm10.83-4.53c-1.71-2.06-2.66-3-3.01-3-.24,0-.59.23-.98.66-.64.61-.58.59-.17,1.31.21.38.8,1.12,1.31,1.64.94.98,1.43,1.29,1.88.82.4-.42,1.4-.91.97-1.43h0Zm-.89-5.13c-.42,0-1.12.75-1.12,1.16,0,.35,1.39,2.1,2.36,2.97.78.71,1.22.96,1.7.43.48-.54.32-1.14.06-1.59-.69-.79-2.21-2.93-3-2.97h0Zm4.82.5c-.01-.6-1.76-2.89-2.32-3.12-.46,0-1.44,1.08-1.44,1.58,0,.27.38.86,1.01,1.6,1.25,1.46,1.57,1.78,1.85,1.55.45-.37.91-1.03.9-1.61Zm1.98-2.58c.12-.5-.19-1.02-.9-1.9-.88-1.1-1.31-1.18-2.13-.32-.3.32-.45.59-.45.74,0,.42,1.84,2.76,2.18,2.76.79-.1,1.03-.67,1.29-1.28h0Zm-3.23,5.8c-.16.76-.48,1.25-1.21,1.6-5.61,4.05-5.43,10.66-6.63,16.76-9.09-.09-23.45,3.65-23.36,3.84l48.28-48.85s.6.15.23.58c-3.91,2.82-3.66,8.29-6.23,11.04-4.29,5.2-8.28,9.72-11.08,15.03h0Zm-26.21,19.95c.08-.55-.43-.7-.87-.26-.43.44-.26.78.36.7.33-.04.48-.17.52-.45h0Zm14.88-2.05c.18-.46-.25-.9-2.83-3.78-2.62-2.92-3.21-3.6-3.67-3.6-.38,0-1.32.95-1.32,1.35,0,.18.41.77.92,1.31.5.54,1.46,1.61,2.12,2.37,1.14,1.31,1.69,1.94,2.12,2.25.43.3.75.28,1.44.28.94,0,1.14.03,1.23-.18Zm4.48-9.17c.18-.57.43-1.08.43-1.3,0-.4-3.3-3.78-3.86-4.14-.67-.43-1.93.98-1.61,1.81.09.23,1.07,1.39,2.19,2.58,1.42,1.51,2.13,2.23,2.36,2.19.24-.04.27-.39.5-1.14h0Zm1.38-3.55c.24-.36.44-.83.44-1.05,0-.25-.55-.92-1.35-1.81-1.47-1.66-1.85-1.86-2.66-1.08-.8.77-.53,1.13.88,2.74,1.77,2.01,1.97,2.26,2.68,1.2h0Zm12.64-15.88c.55-.66.56-.98.06-1.58-.21-.25-.53-.63-.69-.83-.45-.55-1.05-.46-1.67.25-.3.34-.49.68-.49.8,0,.12.32.58.71,1.04.87,1.02,1.41,1.13,2.09.32h0Zm1.94-2.51c.37-.57.21-1.2-.49-1.84-.66-.61-.99-.63-1.46-.11-.62.69-.52.93.15,1.67.76.84,1.36.97,1.81.29h0Zm1.55-2.08c.52-.52.51-.96.04-1.55-.43-.55-.88-.7-1.34-.46-.8.43-.71,1.16.07,1.99.48.5.7.56,1.23.03h0Zm-36.94,104.2c9.89,1.11,20.51,1.89,39.24-1.03l.09-6.37c-5.84,4.57-13.51,1.44-13.95-3.82-.05-4.69,1.2-10.09,2.25-13.95.78-2.87,1.01-3.97.27-4.53-1.62-.91-4.48-1.03-5.22-2.93-.35-1-.38-2.08.13-1.31.24.35,2.1,1.22,3.56,1.55,2.54.57,2.94.76,3.23,1.8.18.66-.24,2.94-.9,4.99-.48,1.47-1.04,3.83-1.04,4.29,0,.5.39.58.82.44.19-.06,1.08-.95,1.64-1.46,2.44-2.18,3.14-2.12,1.06.02-.83.85-1.97,2.02-1.97,2.11,0,.45.42.4,1.36.06,1.44-.52,4.82-.46,6.32.3,1.87.94,1.95.9,1.9-1.95-.34-5.33-1.2-11.64-2.93-16.57-2.64-7.51-8.13-14.48-16.24-14.16-9.88.52-15.84,4.46-22.57,9.19,4.06,9.03-1.81,15.95-3.93,16.87-.21.09,2.66,9.18,3.89,13.8,1.11,4.2,2.98,12.67,2.98,12.67h0Zm42.07-217.91c-.23-.59-5.73-18.56-7.26-26.07-14.86-.87-25.85-2.1-38.94,1.62,0,0-.28,5.06-.15,5.31.13.63.58.61.95.41,6.04-3.33,12.59-1.83,13.05,6.38.17,3.14-.88,5.35-1.07,8.32-.17,2.6-2.21,6.06-.97,8.04.16.24,1.03.72,2.22,1.23,2.22.95,3.09,1.83,3.25,3.28.24,1-.37,1.68-.56.65-.12-.65-.23-1.23-2.97-2.17-2.67-.92-3.39-1.98-3.66-2.54-.37-.77-.3-1.32.05-2.55.73-2.62,1.45-5.29,1.39-6.55-.02-.45-.52-.23-1.17.31-.81.69-4.3,2.99-4.39,2.9-.05-.05.57-.97,1.55-1.91,1.18-1.13,2.65-2.51,2.65-2.76,0-.45-.17-.14-1.32.21-2,.55-4.3.47-5.85-.21-1.31-.58-2.23-.92-2.43-.6-.49,8,.7,16.25,4.05,22.68,3,5.85,9.23,13.17,18.6,11.52,9.68-1.7,19.1-9.51,18.76-9.52-3.61-8.21.5-14.32,4.21-17.98h0Zm-76.76,218.44c-7.04-6.06-17.76-10.23-23.83-11.62l.02,15.29-13.37,12.76v5.95h28.5l18.71-27.51s.9-.16,1-.33c-3.43-14.61-8.61-26.28-11.89-32.12.05.07-4.72,3.87-8.93-.85-2.36-2.65-.91-7.31,1.33-9.01-1.89-1.39-5.8-3.92-8.36-4.65-.53-.13-1.33.95-1.59,1.93-.47,1.59-1.25,3.01-1.77,4.62-.57,1.34-1.13,1.54-1.99,1.17-1.34-.4-1.69-.54-1.69-.54l.04,17.39c10.25,3.57,20.81,12.71,23.81,27.53h0Zm42.62-185.81l3.04-3.31c-4.81-.59-9.85-1.45-15.74-3.31,4.09,3.05,8.38,4.94,12.7,6.62Zm-16.7-9.31s12.14,5.97,20.6,4.4c-7.72-3.07-13.57-10.24-16.07-24.85-.55,2.83-1.67,8.73-3.45,9.37-2.5-9.69-12.54-4.06-8.51,3.85-10.17,7.01-22.41,10.97-33.5,16.37,0,0-1.67,5.14-9.98,12.18-.86-8.14.3-20.51-.67-28.8l-13.03-12.34c.2,2.35.11,3.81,0,6.56.36.48.85.73,1.35,1.03.84,47.56-.28,137.78-.28,137.78.13,26.7.6,53.13.16,79.56l-.44,6.37,13.3-12.71s-.62-9.02.08-15.9c8.4,1.7,16.23,5.65,23.25,9.99.88.25-4.31-17.31-23.19-25.11,0,0-.03-5.48-.03-17.4s-.18-12.72-.43-12.9c-.76.83-10.43,4.1-10.92,3.55.26.09-2.73-20.35-.15-23.46l9.24.2c2.64,2.14,1.58-.47,3.12-.9.92-.25,5.2,1.42,5.2,1.42,17.62-20.86,15.86-55.16,3.21-74.46-3.24,2.64-6.68,6.21-9.93,7.75-.04-.11-.06-10.64-.06-10.64,16.83-10.84,35.14-42.23,33.98-42.33,0,0,5.21,5.09,7.24,7.97l-16.62,24.14c3.81,7.69,7.66,14.66,10.15,21.42.34.91,1.38.89,1.64,1.85.22.82-.78,1.96-.64,2.87,3.51,13.45,4.3,27.72.84,40.65-.73,2.91.61,5.27,2.39,7.46.15.19-1.66-1.57-1.83-1.67-.62-.37-1.66.94-1.88,2.6.14,1.02.69,1.19,1.42,2.02,1.28,1.07,6.38,6.1,8.62,8.4,1.99,2.04,2.51,2.13,3.85.69.38-.35.77-.84,1.14-1.14.07.11.57-.41.73-.57l30.01-29.38c3.49-3.41-29.96,30.82-29.96,30.82,0,0-16.22,15.97-20.2,19.91-4.11,4.07-4.66,4.96-4.83,5.26-.29.54,1.33.52,2.06.41.06,0-.62.16-1.3.15-4.22-.57-5.66,3.74-8.33,4.68-7.05,5.02-2.31,13.08,4.42,10.42l1.64-.79c4.08,7.6,9.96,21.44,12.73,33.48l-1.11.52-17.75,26.71h100.66c-7.23-7.22-13.38-16.08-19.64-22.72-10.04,3.01-40.39,2.4-39.91,1.09,0,0-4.6-18.66-7.2-27.83,8.25-7.09,7.41-18.27-4.57-23.29,8.72-6.91,17.5-9.25,26.06-9.81,2.78,7.08,9.31,7.53,12.39,1.04.02-.07,11.57,3.56,15.83,7.5-6.32-.66-12.55-1.92-18.87-2.22,5.56,2.2,11.23,7.96,13.04,14.54.89,2.35,2.25,10.11,2.61,10.14,0,0,2.11-8.96,3.74-8.47,4.17,8.73,11.36,2.16,8.33-4.79,10.62-5.08,22.56-10.76,32.33-15.47,2.85-4.31,9.79-12.17,10.25-12.21l.36,27.76,12.8,11.8s.39-119.8.39-137.74c-.43-29.77-.07-63.9-1.36-91.75v-7.93h-27.16l-19.44,28.61s-.15.45-.14.65c2.65,11.57,6.06,21.41,11.4,32.1,7.37-5.58,13.58,3.61,8.05,8.95-.51.49-1.15,1.21-1.15,1.21,3.6,1.74,6.57,3.69,9.78,4.96,1.27-1.88,1.63-4.67,2.48-6.8.21-.81.82-.91,2.04-.77,1.57.18,1.56.84,1.51-9.16l-.04-8.59c-9.45-4.37-21.96-15.46-22.55-27.01,5.46,3.99,19.01,10.78,22.37,11.3,1.47.41.25-3.16.3-4.19.4.27.54,4.24.54,4.24-5.55-1.68-8.45-1.34-22.3-9.38,2.38,11.35,13.71,20.31,21.93,24.39,0,0,.34,5.39.33,11.43-.05,18.42.12,19.31.12,19.31,2.65-.25,3.33-2.15,11.94-3.26.73,6.95.54,15.33.11,21.97-6.93,1.53-10.23,3.04-11.75-1.44-.36.21-.52,1.88-.65,3.63-.17.88-4.75-.65-5.21-.92-19.78,22.84-18.09,49.13-4.66,73.48,2.22-1.5,6.04-4.37,9.86-6.25.09,3.1.14,9.47.14,9.47-15.48,11.39-34.03,41.58-33.4,41.67l-6.29-7.53s3.96-6.31,5.36-7.98c.16-.19.27-2.15.27-2.15l9.61-13.94c-4.1-9.3-9.73-16.45-11.17-25.54-6.41-29.06.54-43.52.02-44.62,0,0-.09-.58-.22-.69-.21-.17.05-.34.29-.76.46-.8,1.19-2.46.94-2.95-.18-.36-5.39-5.58-9.84-9.87-2.35-2.26-2.25-2.52-3.46-1.28-.45.46-1.55,1.76-1.55,1.76-16.11,14.95-28.9,28.56-45.07,44.48l-.78-.71c23.52-23.45,47.26-46.66,70.55-70.33l-4.1.07c.12-.3.29-.58.52-.66,2.2,0,4.46-.67,6.09-1.6,3.32-2.48,8.09-5.79,8.46-9.05-.24-6.28-5.52-7.19-9.34-4.12-5.3-9.55-9.5-21.05-11.75-31.78-.11-.53-.85-1.45-.97-2.06,1.14-3.56,19.15-28.18,19.15-28.18h-101.16l19.25,22.99c0-.92,27.44-4.17,40-.33l7.65,27.26c-6.95,6.74-9.01,17.83,3.78,23.6.25.54-1.21,1.43-1.21,1.43.2-.33.56-.68.41-.98-3.45-1.51-7.14-5.34-7.14-5.34-7.69,6.03-14.88,9.38-21.92,9.68,0,0,3.72,2.53,4.44,5.31-4.51-6.97-8.79-5.28-13.08-1.21-5.44-2.59-8.83-1.9-16.73-9.6h0Zm-1.03,66.73l2.8-2.78c.32-2.06.88-4.68,3.25-7.53,2.63-3.16,5.54-6.14,7.67-8.96,2.57-3.38,3.97-6.45,3.29-7.87,3.83-.69,7.35-4.08,7.46-10.24.04-3.23,1.6-7.95,1.72-7.88,0,0,26.74-.91,45.13-18.5,0,0,1.29.28.99.51-6.97,7-14.38,12.16-23.14,15.45l-48.32,48.4-.85-.62Zm5.35-5.55c.72-.72.89-.96.48-1.3-.62-.52-1.82.55-1.82,1.63,0,.68.54.48,1.35-.32h0Zm2.5-2.47c.57-.55.55-.95.08-1.43-.65-.65-1.6-.25-1.92.8-.32,1.06.94,1.49,1.84.63h0Zm2.2-2.23c.3-.34.54-.68.54-.77,0-.37-.92-1.22-1.33-1.22-.52,0-1.44.87-1.44,1.36,0,.41.93,1.25,1.38,1.25.17,0,.56-.28.85-.61Zm2.08-4.16c-.66-.55-1.09-.56-1.63-.02-.63.63-.56,1.33.19,1.99.57.6.82.54,1.59.06.65-.66.77-1.28-.14-2.04Zm2.44-.37c.71-.6.61-1.09-.17-1.87-.82-.82-1.45-.82-2.03.04-.22.32-.26.65-.26.74,0,.32,1.35,1.52,1.7,1.52.19,0,.46-.19.75-.43h0Zm2.34-2.32c.6-.63.53-1.08-.34-1.98-.73-.75-1.24-.81-1.88-.21-.66.62-.53,1.27.22,2.02.76.76,1.32.88,1.99.17Zm2.65-2.69c.44-.47.32-.43.01-.94-.49-.79-1.9-2.1-2.31-2.1-.51,0-.95.81-.95,1.62,0,.8.39,1.12,1.4,1.92.67.53.46.58.98.27.29-.17.68-.51.86-.77h0Zm2.11-1.93c.95-1.09.77-1.29-1.52-3.72-.78-.82-.94-.92-1.5-.87-.53.04-.56.17-.84.73-.5,1.03-.13,1.55,1.31,3.09,1.49,1.58,1.7,1.72,2.54.76Zm2.35-2.53c.37-.32.61-.7.61-.94,0-.42-1.86-2.49-2.52-2.87-.47-.27-.96-.12-1.57.41-.37.32-.36.39-.27.74.14.57,2.53,3.09,2.93,3.09.16,0,.49-.13.82-.43Zm2.33-2.27c.39-.4.71-.89.71-1.11,0-.46-2-2.78-2.62-3.11-.53-.28-.83-.16-1.35.57-.6.84-.37,1.23.82,2.6,1.13,1.3,1.49,1.7,1.7,1.7.07,0,.36-.26.75-.66Zm2.2-2.38c.51-.31,1.17-.96.9-1.49-.28-.54-3.79-4.27-4.17-4.47-.74-.4-.72.17-.72,2.02v.96l1.61,1.58c2.35,2.31,1.83,1.75,2.37,1.4h0Zm2.85-2.62c.28-.28.54-.75.54-.93-1.46-1.78-5.69-7.4-6.45-7.19-.08.02-.11.03-.17.19-.19.56-.27,1.73-.14,2.67,1.34,1.29,4.49,5.48,5.2,5.74.43.16.61-.08,1.02-.48h0Zm2.27-2.39c.27-.26.49-.6.49-.77s-.47-.76-.97-1.35c-.5-.59-1.48-1.79-2.18-2.66-3.99-4.99-4.28-5.36-4.89-4.85-.4.33-.5,1.51-.3,1.95.35.76,4.7,6.03,6.1,7.38.89.86,1.07.95,1.74.31Zm2.29-2.2c.34-.32.62-.75.62-.95s-.64-1.01-1.32-1.8c-.67-.79-1.79-2.15-2.49-3.01-1.79-2.21-1.8-2.29-3.14-2.42-2.02-.21-1.75.24.54,2.92.55.65,1.6,1.93,2.33,2.85,1.7,2.15,2.45,2.94,2.79,2.94.15,0,.33-.2.68-.52h0Zm2.34-2.3c1.04-.88.83-1.16-2.54-4.66-1.11-1.15-1.18-1.33-2.04-1.33s-1.14.18-1.14.6c0,.26,4.39,5.49,4.71,5.62.43.17.48.21,1.01-.24h0Zm2.46-2.52c.28-.3.5-.68.5-.85,0-.38-.95-1.59-1.85-2.38-.42-.37-.95-.75-1.28-.75-.57,0-1.56.33-1.73.6-.11.18,1.2,1.79,2.48,3.15.85.9,1.18.98,1.88.23h0Zm2.16-2.15c.54-.54.54-1.04-.02-1.77-.4-.53-.52-.58-1.35-.58-1.57,0-1.61.4-.4,1.7.9.97,1.15,1.27,1.77.65Zm2.31-2.28c.61-.78.09-1.21-.91-.75-.24.11-.36.39-.41.52-.31.81.74.97,1.33.23Zm-38.57,6.58c-2.23,1.41-5.98,4.09-8.53,5.88-.07.38-.12,1.36,0,2.12,1.44-.99,6.09-3.96,8.2-5.64.11-.63.26-1.74.33-2.37h0Zm4.09-6.49c-.07-.38-.32-.14-.98.42-.86.73-8.2,6.18-10.15,7.55-.74.52-1.44.96-1.52,1.14-.07.17-.15,1.65.13,2.03,1.59-1.22,9.13-6.29,9.24-6.46.78-1.25,2.52-3.42,3.27-4.68h0Zm-.84,16.43s-9,10.85-11.89,16.25c0,0-.02,6.18-.1,9.74l-.49.14s-.04-9.54-.16-19.89c-.3-25.87-.56-32.15-.56-32.15l-2.92-2.15-.12-1.02s12.96,9.1,19.29,10.55c-4.62,7.26-8.89,10.07-3.04,18.53h0Zm-10.68,12.97c.18-.44.06-.41-.31-.4-.27.01-.43.26-.44.54-.01.32.01.39.26.34.18-.03.41-.28.49-.49Zm2.16-3.21c1.29-1.6,2.36-2.64,2.56-3.81-.83.14-5.6,3.49-5.68,3.85.05,1.78-.36,1.99,1.1,1.21.64-.35,1.16-.78,2.02-1.24h0Zm.41-3.96c1.39-1.16,6.46-3.9,7.05-5.24.23-.62-.5-1.2-.61-1.14.09.08-7.26,4.5-9.95,6.82-.24.3-.18.81-.02,1.23.29.78.88.15,3.53-1.66h0Zm-1.69-2.13c1.51-1.01,5.09-3.49,5.98-4.11,1.51-1.05,1.81-1.41,1.27-2.19-.22-.31-.51-.5-1.01-.28-4.38,3.06-4.76,3.58-8.08,5.72-.22.6-.17,1.5.18,1.82.25.01.68-.3,1.67-.96h0Zm-.02-3.3c3.99-2.89,6.14-4.36,6.29-4.68.16-.35.2-1.73-.06-1.88-1.48,1.13-5.45,3.57-8.17,5.78-.07.45-.15,1.47.07,1.69.55.23.71-.07,1.88-.91h0Zm-.48-10.45c2.9-2.16,5.59-4.04,8.61-6.07,2.56-1.71,2.99-2.09,2.01-2.6-.34-.18-1.02-.45-1.46-.31-3.41,2.76-7.19,5.4-10.8,8.07-.09.4,0,1.19-.02,1.54-.03.55.68.08,1.66-.64h0Zm-.4-3.08c.24-.21,1.76-1.22,3.38-2.4,4.35-3.15,4.86-3.46,4.86-3.8,0-.92-1.25-1.11-2.4-.18-2.1,1.71-7.1,4.83-7.11,5.27-.02.65-.13,1.29.06,1.58.24.36.59.06,1.2-.48h0Zm1.25-4.27c4.42-3.09,4.25-2.95,4.25-3.5,0-.48-.43-.27-1.11-.32-.64-.05-.65.13-1.86,1.05-2.58,1.96-3.52,2.49-3.8,3.07-.09.18-.14.9.01,1.06.31.31.67-.07,2.51-1.36Zm.29-3.08c.87-.72,1.56-1.25,1.62-1.4.13-.33-.53-.92-1.02-.92-.53,0-.95.28-2.27,1.42-1.17,1.01-1.4.8-1.31,1.36.05.33.06,1.06.17,1.19.28.34.89-.04,2.82-1.65Zm-1.34-3.63c-.62-.62-1.34-.77-1.72-.39-.21.28,0,1.91-.03,2.24-.04.52.66.33,1.44-.33.79-.66.98-.83.3-1.51Zm19.58-15.39c0-.34,1.63-1.53,2.85-1.8,1.56-.35,3.51-.17,4.88.52,1.18.59,2.46,2.01.56,1.14-1.74-.78-5.46-.78-6.81-.16-1,.51-1.47.64-1.47.3h0Zm-1.21-5.98c.13-.13,1.75.29,2.65.53,2.4.63,4.37.26,6.89-.47.59-.17.88.24.52.54-1.28.89-2.94,1.41-4.37,1.54-3.15.29-6.53-1.32-5.69-2.14h0Zm-15.56-4.54c1.34-.66,3.12-10.01,2.59-11.6-1.64,2.52-3.49,3.65-6.11,3.21-4.3-.71-4.46-6.02-1.14-6.55,1.33-.21,2.95.66,3.22.46,1.42-.67,2.52-5.43,2.87-6.98.25-1.51.63-5.71.68-7.04.12-2.84.01-7.02.01-7.02l-20.91-25.19h-45.52s-.11,35.05,0,53.03l12.65,12.48.16,20.18c14.49-6.34,28.52-13,42.25-20.21-1.59-1.91-1.58-6.77,1.36-8.54,3.36-2.02,7.37-.13,7.89,3.77h0Zm11.62,4.16c.1-1.14.94-2.07,1-3.23,0-.26.21-.56.89-.19.89.47,1.16.14,2.17-.32,1.78-.82,2.29-.8,3.67-.25.89.48,1.16.47,1.99.04,1.14-.76,2.35-1,3.35-.65,1.5.52,2.02.81,2.87.4.43-.21.97-.99,1.06-.93.61.91.49,2.35.88,3.16.69,1.37.42,2.36-.39,1.68-1.72-1.42-3.06-1.46-5.53-.84-1.44.36-2.17.64-3.77.45-4.96-.59-5.29-.44-6.3.23-.98.66-1.73.72-1.89.46h0Zm13.3-9.01c-1.43-.36-3.07-1.66-4.25-1.31-1.46.1-2.29-1.63-1.54-2.57,1.28-1.25,3.27.01,4.05.6,1.68,1.28,1.92,1.39,2.6,1.38,2.79-.04,2.25-2.67.91-3.62-.8-.84-.88-1.38-.71-1.59.28-.33,1.07-.05,1.94.87,1.67,1.57,1.71,4.7-.34,5.65-1.02.57-1.69.84-2.65.6Zm5.82-9.05c-1.3-.94-3.61-3.06-4.21-3.81-1.02-1.27-1.43-2.09-1.3-3.11.1-.8.22-1.27-.29-1.53-.54-.28-1.06-1.48-.96-2.11.03-.17.64-.07,1.01.39.47.08.37-.2.88-.54,5.3-3.57,9.55-2.88,14.58-.43,1.46.7,5.27,3.6,3.23,2.66-.12-.06-1.46-.64-2.81-1.32-4.36-2.09-9.22-3.36-13.17-.67-.68.48-1.09.85-.56.85,2.22-.43,4.42-1.36,6.71-1.22,3.41.04,5.46,1.73,8.02,2.89,2.77,1.24,3.31,1.67,2.3,2.69-.29.32-.51.31-1.85.2-1.44-.11-1.56-.07-2.37.45-2.12,1.36-4.88,2.11-7.33,1.9-2.89-.24-3.19-.47-3.25-.06-.04.27.58.73,1.44,1.51.65.6,1.52,1.47,1.6,1.61.24.43-.86.22-1.65-.36Zm-1.83-6.85c-.36-.37-.65-.23-1.43.32-.58.41-.64.74-.11,1.21,1.14,1.02,2.57,1.18,2.55.71-.01-.47-.64-1.87-1.02-2.25Zm5.37,2.42c1.16-.57,2.35-2.57,1.81-3.22-.32-.39-.6-.02-1.21,1.07-.29.52-.8,1.18-1.01,1.33-.95.67-2.21.04-2.74-1.43-.32-.89-.65-1.46-1.03-1.12-.67.61.09,2.81,1.42,3.38.79.34,1.93.39,2.75-.01Zm3.62-.33c1.18-.37,1.74-.9,1.65-1.42-.08-.43-.93-.93-1.51-.93-.26,0-.77-.01-.95.23-.4.54-1.04,2.16-1.07,2.34.14.36.54.19,1.88-.22h0Zm4.08-8.83c-5.89-2.26-10.54-3.17-16.14-.77-1.79.78-2.82.86-2.91.23-.08-.54,1.22-2.13,2.61-2.86,3.91-1.79,8.6-1.96,12.54-.07,1.47.72,5.6,3.66,5.6,3.93,0,.29-.37.07-1.7-.45Zm68.93,66.19c1.4-.74,2.05-2.2,1.19-3.06-.25-.25-.6-.25-.9-.25-.49,0-4.18.99-4.89,1.37-.47.25-.3.69.15,1.09.21.19.36.59.39,1.02.04.56-.07,1.07.3.98.75-.17,1.94-.34,3.76-1.16h0Zm-5.24,1.35c.4-.73.23-1.73-.82-2.34-.55-.28-.98-.13-1.42.5-1.04,1.91,1.55,2.73,2.24,1.85Zm-5.26.9c.23-2.44.12-9.64.12-9.64,0,0-1.31,1.11-2.13,1.15.3-1.05.63-1.44,1.1-2.47.27-1.09.42-3.03.34-4.13-.08-1.21-.93-1.24-.06-3.42.45-1.11.53-2.28-.05-3.66-.25-.68-.33-1.07.32-1.93.61-.8.37-1.2.36-2.87-.02-2.31,0-2.69-.7-.82-1.04,1.55-1.52,1.25-3.11,1.06-1.54,3.46-3.34,7.08-3.41,10.06-.04,1.87-.07,2.16,1.09,6.08.43,1.46.58,1.95.61,3.72.02,1.69.15,2.28.41,3.21.45,1.66,2.31,4.4,5.12,3.67h0Zm-53.47,155.4v-3.47s-5.53,1.71-8.34.66c-2.9-.79-2.89-.93-2.83-.61.1.56,2.25,1.7,4.24,2.17,1.4.33,4.2,0,5.58-.41.78-.23.86-.01.55.23-3.4,2.66-7.71,1.44-10.41-.77-1.45-1.42-2.42-1.43-1.63.48,3.72,7.56,12.95,3.1,12.86,1.74h0Zm-3.74-5.16l1.26.02s-.39-2.2-1.04-2.84c-1.34-1.31-3.22-1.11-4.42.18-.55.59-.97,2.68-.97,2.68l1.01.02c.38-.98,1.97-5.55,4.16-.06h0Zm-5.04-3.33c-.72-.2-2.29.52-3.05,1.02-.28.31-.29.36.05.8.73.97,1.86,1.43,1.94,1.07.33-.51,1.14-2.7,1.06-2.89h0Zm8.33,2.45c.17-.68-.47-1.84-1.46-2.24-.43-.11-.85-.19-.73.28.14.53.44,1.4.71,1.98.2.44.33.66.75.49.33-.11.61-.22.72-.51h0Zm54.07-46.05v-5.88c-2.95,3.01-6.82,8.07-8,9.96l8-4.07ZM110.64,72.49c1.25-.54,2.18-2.18,1.86-3.02-.2-.52-.72-.1-1.25.66-.85,1.23-1.06,1.36-1.81,1.36-.79,0-1.11-.2-1.65-1.27-.37-1.01-.64-1.17-.99-.73-.16.2-.15.48.06,1.22.56,1.93,2,2.54,3.78,1.77Zm3.42-.61c1.39-.48,1.68-.63,1.61-1.1-.07-.49-1.18-1.14-1.8-1.02-.45.27-1.63,2.14-1.56,2.48.16.26.63.03,1.76-.36Zm-8.03-.81c-.05-.43-.11-.85-.23-1-.45-.54-1.39-.16-1.39.53,0,.52.74,1.11,1.34,1.11.42,0,.36.1.28-.64Zm7.87-3.52c1.98.75,2.98.83,1.91-.18-1.48-1.65-8.27-3.53-11.91-.84-.26.37-.21,1.79.08,1.71,2.96-2,6.76-1.9,9.93-.69h0Zm-6.78-5.68c-1.66.56-3.23,1.43-3.43,2.24-.32,1.31.26,1.32,2.44.64,2.8-.92,5.94-.5,8.33.88,1.81,1.32,2.35.89,2.04-.23-1.01-3.68-6.68-4.34-9.38-3.53h0Z"/>
    <path id="uuid-fbbe24bf-193d-4ddb-9c50-a06a1e7143a8" data-name="path6265-7" class="uuid-931e4f22-4996-4fca-b4a0-5ec1101e8c7f" d="m213.93,38.24l-12.24,12.16.17,14.39c1.23,2.26-18.89-6.45-22.07-9.09.37,9.62,13.45,20.57,21.96,24.58l.23,30.78c3.51-1.79,7.86-2.88,10.95-3.18,1.67-20.93,3.1-48.16.99-69.65Zm-68.07,15.06c-1.19.02-1.91.34-1.89,1.11-.36-.06,4.52,17.97,6.74,25.5-9.68,9.38-5.29,19.66,3.93,23.26,1.07,1.04-13.13,10.23-25.78,10.23-4.05-8.91-9.71-3.98-12.84-.87-2.44-.21-11.54-5.65-16.2-8.77-.07-.05-.03-1.34-.02-1.58.32,2.12,18.25,6.71,19.06,4.58-.52,0-8.04-5.1-10.2-10.14-2.76-5.68-4.97-13.48-4.97-13.48-1,2.88-.66,6.88-3.42,8.31-.83-9.39-14.19-4.6-7.54,4.58-3.74,1.1-6.93,3.04-10.56,4.66,7.59,10.36,18.04,17.25,29.08,21.31-1.46,3.11-10.05,10.11-2.99,18.36.32.25-6.75,7.98-10.22,14.03-2.62,4.55-1.83,8.04-1.53,8.15,9.57-11,14.95-20.31,14.95-20.31-.08,1.28,11.36.59,11.17-9.75.25-2.79.76-5.81,1.83-8.4,17.46.82,32.47-5.41,45.16-18.51,4.63,2.33,9.9.42,13.34-3.46,1.9-1.54,3.79-3.03,4.47-4.62,2.5-10.75-8.47-6.55-8.99-5.98-6.27-8.54-11.57-32.82-12.42-33.01-3.5-.71-15.47-5.3-20.15-5.22h0Zm-43.01,16.49c-.47.03-2.15,7.55-3.63,7.49-6.3-4.07-6.44,4.35-1.02,3.97,4.58-.32,7.14-7.73,4.67-11.45-.01,0-.01,0-.02,0h0Zm-67.15,14.29c.21,45.68.82,91.35,1.89,137.02,4.12-1.02,7.11-1.8,11.15-.03.38-12.98-.76-45.75-.49-77.47,15.39-12,26.19-25.24,33.78-42.54l-23.49,11.03s-7.68,11.04-10.13,11.75c-.35-1.57-.74-20.25-.42-28.27l-12.29-11.5Zm51.99,28.26l-4.61,6.7s.11,23.01.37,34.09c.19,2.21,2.19,4.23.59,6.21.98,0,5.24,29.85,1.19,41.95-.73,2.17-.05,3.7,1.09,4.19,5.79,6.43,8.97,12.6,16.6,8.95,8.33-7.64,20.16-21.02,20.16-21.02l-31.27-29.65c-2.68-7.19-4.11-51.42-4.11-51.42h0Zm113.96,95.94c-13.54,11.4-27.18,25.78-32.49,41.66,7.59-3.06,14.82-6.8,22.2-10.24,3.58-4.31,6.33-8.47,10.43-12.58,0,0,.44,18.72.08,28.11,3.7,2.76,12.47,11.37,12.47,11.37,0,0,2.42-132.99-2.81-136.37-5.08.99-7.63,2.85-9.52-3.06-1.34,27.08-.36,81.12-.36,81.12h0Zm-49.17-74.85c-5.46,4.48-24.24,22.95-24.2,23.14,4.98,8.37,24.64,25.15,34.07,34.53l1.37,47.78c1.39-1.87,2.4-3.63,3.9-5.5,0,0-.25-24.19-.83-35.54-.17-3.35-.94-6-.7-6.3-2.65-13.77-3.75-28.97,0-43.73-8.9-7.69-11.73-12.81-13.61-14.37h0Zm1.46,54.57s-.03.02-.04.03c-4.61,6.58-13.42,20.88-14.06,20.85-.19-.43-9.11-.03-10.8,5.6-1.42,4.19-1.52,8.05-2.56,12.37-17.9-.59-31.01,5.09-44.81,17.85-6.76-.04-11.79,1.52-14.13,4.38-3.5,2.55-4.45,4.72-4.28,7.38.31,4.82,8.8,5.5,9.24,2.11,7.71,12.82,11.84,30.3,13.16,35.41,3.17.2,22.31,4.7,22.31,4.7-2.21-11.08-4.93-18.83-7.46-27.85,13.75-11.57-1.41-23.94-4.97-23.49,7.83-5.59,16.82-9.36,26.73-9.85,1.53,5.52,8.65,8.36,12.23,1.02,0,0,15.4,5.53,15.34,7.36-6.34-.96-11.56-1.46-17.91-2.07,12.17,6.62,12.54,15.35,15.03,24.05.34-1.54,3.55-8.26,3.55-8.26,4.13,9.18,11.98,2.81,8.74-4.6l9.77-4.54c1.13-.57-14.6-18.31-28.9-20.82.72-1.32,1.01-2.56,1.75-3.64,3.59-3.53,6.36-8.69.88-14.87,3.62-5.07,12.01-17.31,11.48-17.53,0,0,.16-5.72-.27-5.57h0Zm-117.58,56.42s-.39,42.45-.09,63.52c-.35.87-.58,5.54-.58,5.54l13.02-12.27.39-15.86c3.4-.82,24.59,9.97,22.9,9.91,1.62-.68-9.78-22.28-23.08-24.67-.25-12.23-.37-26.08-.72-29.8-4.62.88-11.83,3.63-11.83,3.63Zm115.61,25.54c-3.65,1.09-5.17,8.78-3.99,12.51.22.69.08.84.66.16,1.42-2.09.97-6.26,3.48-8.46,6.63,2.01,5.97-6.64-.16-4.21Z"/>
    <path id="uuid-a7fff48a-257e-49ad-ad55-66e421aee00e" data-name="path6267-4" class="uuid-566487ad-b23c-4ea4-b9eb-f34e562c366d" d="m67.62,320.04l17.24-26.12c20.58,6.9,41.59,7.02,62.82,3.62l18.98,22.5h-7.76l-11.94-17.11c-4.33,1-8.83,1.44-13.31,2.06l5.59,15.05h-6.08l-4.39-14.89c-10.3.4-17.32-.52-24.47-1.36l-2.58,16.24h-6.19l4.18-16.77c-4.87-.91-9.78-1.7-13.85-3.01l-12.65,19.78h-5.57Zm19.74-15.37l7.16,1.94-3.49,13.43h-13.09s9.43-15.37,9.43-15.37Zm18.48,15.37l2.02-11.86c4.81.95,11.08,1.14,17.69,1.07l3.11,10.79h-22.82Zm33.87-11l5.65-1.5,8.46,12.5h-10.29l-3.82-11Zm-82.36-75.48c27.54-32.12,23.87-65.84,8.66-93.04l3.23-3.34c17.59,28.99,21.33,70.21-11.08,102.16-.34-1.93-.81-5.79-.81-5.79Zm109.81-36.02c3.96,6.75,6.37,13.59,10.55,20.38l-9.92,13.44-.64-33.82Zm-118.47,21.27c-.26-21.19.06-64.14.06-64.14l9.29-7.13c11.12,13.53,17.18,49.21-2.78,72.95-1.45-1.06-5.4-.62-6.57-1.68h0Zm131.91-4.28c-25.48-43.11-12.4-74.59,12.16-102.51.07,2.15.11,4.35.3,6.49-21.08,24.21-29.52,60.02-8.84,92.42l-3.62,3.6Zm-46.01-6.33c2.9-4.15,15.66-20.6,13.84-22.15l3.81-3.7c.71.69,2.17,2.13,2.17,2.13-2.3,9.34-9.32,16.91-14.73,24.73l-5.09-1.01Zm61.59-76.91c.37-.42,4.97,1.51,4.97,1.51l.29,65.17-9.22,5.94c-2.68,1.36-23.58-41.41,3.95-72.63h0Zm-97.15,27.45c4.2-5.74,8.62-10.7,12.69-15.97,1.05.36,3.82.42,3.82.42.29.16-.93,4.37-3.94,7.28-8.26,9.91-10.14,11.75-10.44,15.84-.1,1.31-3.01,2.83-3.01,2.83l-2.1-2.22c.64-3.25,1.65-5.74,2.98-8.18h0Zm-26.19-25l9.49-12.44.68,32.37-10.16-19.92Zm30.25-81.04l-18.3-22.94h8.86l10.9,16.23,13.05-1.49-4.59-14.74h5.41l3.82,14.5c8,.19,15.83.81,23.42,1.58l3.9-16.08h5.51l-5,16.82,14.74,3.88,13.13-20.7h6.52l-18.61,26.73c-24.33-7.33-43.87-6.49-62.76-3.8h0Zm52.75-9.6l4.17-13.35h12.47s-9.54,15.26-9.54,15.26l-7.09-1.91Zm-30.18-3.25l-2.63-10.09h21.98l-2.84,11.28c-5.81-.98-11.11-1.17-16.51-1.19h0Zm-26.35-10.09h8.77l3.42,10.44-5.06.57-7.13-11.01Z"/>
    <path id="uuid-b60a0b56-7d45-40c2-bab6-69ca2d9086f5" data-name="path6269-8" class="uuid-b16bc13c-69ff-4b15-a179-fbe09494c444" d="m81.93,28.3l21.19,25.42c4.41-1.58,26.66-4.13,40.01-1.08,2.33,9.14,4.79,18.37,7.39,26.69,0,0-.83.98-1.44,1.6-8.52,9.85-2.49,19.37,5.31,22.47-1.41,2.93-16.35,10.22-25.46,9.36.02-.09-2.8-6.69-8.49-4.46-1.95.76-2.75,2.23-4.26,3.67-5.44-1.64-12.62-5.23-16.35-9.17,6.98,3.49,13.86,5.36,20.77,4.44-11.52-4.94-14.72-16.59-16.82-26.01-.73,2.2-1.05,8.02-2.97,9.23-.5.33-.59.23-.96-1.01-2.72-7.13-12.48-1.43-8.22,5.76l-3.25,1.81v.54l-2,.96-.42-.28c-9.29,4.5-18.4,9.19-27.88,13.5,0,0-5.03,8.38-9.64,11.71l-.18-28.45-13.64-12.36-.07,6.77s.65.69.98,1.03c.19,47.63.03,94.48.06,137.72l.06,39.8-.83.05-.04,4.64.94.21-.13,6.56-.49.03-.07,4.15.74.12v23.43s-.75.95-.75.95l.02,6.69,14.25-13.58v-15.44c11.24,2.13,23.3,10.23,23.3,10.23-1.98-12.93-15.65-23.59-23.5-25.72l.02-30.64s-5.84,2.44-8.72,2.82c-1.43.2-1.98-.01-2.66-1.05-.5-.75-.51-1.44-.06-3,.21-.73.2-.92-.06-1.65-.37-1.03-.37-1.49-.01-3.31.38-1.07.21-1.64-.18-2.62-.42-1.06-.46-1.25-.28-1.86.48-1.6.51-1.86.25-2.58-.49-1.4-.51-2.41-.05-3.32,2.1-3.54,6.81-2.66,9.37-2.54,1.29,1.45,2.07,2.25,2.19.16.91-2.5,4.42.06,6.07,1.12,13.98-18.79,20.87-44.22,3.34-76.06l-9.76,7.83.02-9.8c12.94-8.34,27.49-27.29,33.79-42.24,2.1,2.46,4.5,4.88,6.77,7.37l-1.48,2.49-.44-.25c-4.01,7.68-14.91,22.2-15.09,22.06,4.03,7.5,7.63,15.07,10.68,22.73l.8-.36.72,2.31-1.41.42c4.77,15.7,4.93,30.24,1.34,43.65l.84,3.56s5.05,4.91,6.41,6.35c3.56,3.45,7.52,7.31,7.52,7.31l4.61-4.53-.27-.38,40.41-40.24,2.52,2.42c-24.75,25-67.73,68.15-67.73,68.15l-1.49.22c-.85.13-2.1.18-2.9.12-1.31-.09-1.48-.06-2.53.44-1.19.57-2.17,1.41-3.48,2.98-.6.72-1.01,1.03-1.68,1.27-8.42,5.04-.81,15.18,6.36,9.84,5.25,10.06,9.7,21.78,12.15,33.38,0,.08-.94.41-.94.41l-18.88,28.08h7.26l.76-1.29h-5.44l17.37-25.16c22.1,6.04,42.38,6.9,62.97,3.3l17.92,21.86h-7.11l1.01,1.29,9.2.15-21.06-24.93c-7.54,2.02-27.43,3.65-39.91,1.53-1.91-9.3-5.06-19.4-7.38-27.44,11.91-9.35,2.97-21.69-4.38-23.41-.36-.68,14.9-9.98,25.77-9.33,3.11,7.5,9.93,6.39,12.38.81,4.51,1.66,10.36,3.32,15,7.02-6.19-1.36-13.37-2.1-19.28-2.2,11.23,4.37,14.39,13.57,15.77,22.26.24,1.44,1.01,3.3,1.01,3.3.96-3.14,1.74-6.37,3.62-9.06.85,3.07,3.69,5.98,7.27,3.63,3.2-2.1,2.23-5.11,1.68-8.28l2.5-1.35.33.28s2.74-1.17,4.09-1.83c.21-.1-.25-.53-.25-.53l25.24-11.94c-.1-.05,6.36-8.9,10.07-12.31.11,10.6.09,14.95.08,27.53,5.18,4.54,10,9.89,14.03,12.85l-.19-185.31h-.21v-3.56l.29-.02v-9.27l-.26-.15v-2.92l.35-.25.02-25.03-.4-.07-.02-6-13.96,14.92v14.07c-4.6-.88-13.29-4.87-19.39-8.09-1.73-1.06-2.69-1.34-2.64-.73.75,8.38,12.84,21.19,22.14,24.54l.02,31.52s2.19-1.1,3.53-1.67l.2.56,3-1.24.24-.65,2.6-.33c.03.53.12.46.12.46,2.31.65,3.34,2.23,2.41,4.01-.33.6-.39,1.44-.12,1.66,1,1.59,1.27,2.99.05,4.49-.47.77-.46,1.2.02,2.02,1.25,2.53.54,2.37-.4,3.87-.21,1.14,1.03,1.88.62,2.96-.19.71-.94,1.54-1.44,1.91-.59.43-1.08-.37-1.08-.37,0,0-1.88.81-3.22,1.06-1.33.43-3.61,1.2-4.4-.59-.45-1.03-.09-1.96-.12-3.11l-1.94-.21-.07,5.2c-1.11.59-5.54-1.67-5.54-1.67-18.98,24.67-18.45,52.04-4.37,74.96.14.37,9.92-6.71,9.92-6.71,0,0-.02,5.8.07,8.95-12.43,10.31-24.44,24.19-33.03,41.3l-5.32-6.32c.92-.81.95-2.1.93-3.07l3.86-5.77.03-1.5,10.04-14.07c.16.84-10.36-18.89-11.76-25.31l.7-.19c-4.72-17.91-3.75-30.46-.34-45.07l-.97-.94-13.25-13.27c-1.08,1-2.15,2-3.22,3-.16.15-.97.06-1.14.22-6.97,6.56-13.68,13.14-20.31,19.98-.17.18.12.91-.05,1.08-6.65,6.86-13.54,13.38-20.26,20.23l-2.46-2.35c23.81-23.88,68.68-68.23,68.68-68.23,0,0,.19-.35.5-.36,1.25-.05,2.36-.33,3.6-.69,1.48-.34,1.72-.45,2.34-1.1.38-.39,1.01-.95,1.39-1.23.65-.48,2.14-1.73,4.46-3.76,5.4-5.48.9-12.85-7.59-8.73-4.86-9.89-9.59-22.32-11.6-32.58-.11-.65-.05-.84.48-1.65.33-.51,1.04-1.62,1.59-2.48,6.06-9.47,12.27-17.41,17.57-26.12h-7.49l-.92,1.48h6.17l-18.35,26.49c-33.81-11.09-61.52-4.06-62.19-3.91l-18.28-22.58h8.36l-1.01-1.48h-10.72Zm16.46,0l.93,1.48h8.77l-.5-1.48h-9.2Zm14.62,1.48h5.41l-.31-1.48h-5.55l.45,1.48Zm9.68-1.48l.34,1.48h21.98l.39-1.48h-22.72Zm26.88,1.48h5.51l.41-1.48h-5.54l-.38,1.48Zm10.9-1.48l-.47,1.48h12.49l.94-1.48h-12.95Zm53.4,10.22v4.11l-8.8,9.52v13.29l-2.72-.61v-13.73l11.52-12.57Zm-2.52,8.75c.08,4.07-.58,7.97.49,12.12.53,2.04,1.6,4.44,1.73,6.85l-2.97-.07c-.38-1.22-.52-2.56-.97-4.06-1.1-3.7-1.99-7.6-1.18-11.52l2.89-3.32Zm-64.81,6.64c.11.2.46,1.92.79,3.52,1.56,8.75,3.65,15.25,5.78,21.86,2.71,8.33,6.72,18.82,10.62,23.68.52.61.77,1.3.59,1.6-.31.51-1.91-.2-2.97-1.33-.44-.46-1.28-1.76-1.9-2.92-1.36-2.56-3.19-6.28-3.37-6.87-.07-.24-.79-2.08-1.6-4.09-1.41-3.51-2.25-5.92-3.42-9.82-.93-3.1-1.8-6.34-2.84-9.61-1.71-5.34-2.69-9.59-3.64-14.49-.14-.72-.38-1.56-.29-1.73.54-.39,2-.23,2.26.21Zm.95.33c-.17-.14,1.55-.17,2.1.29.16.16.45,1.19.7,2.51,1.55,8.05,3.89,16.38,6.6,24.26,2.17,6.3,4.54,12.37,7.49,17.28.93,1.64,2.18,3.39,3.78,5.28.89,1.06.97,1.21.73,1.5-.3.36-.81.31-1.81-.16-1.92-1.23-2.72-2.56-3.98-4.35-4.35-7.55-7-14.72-9.39-22.01-2.46-7.47-4.66-15.02-6.16-23.73-.02-.29-.04-.58-.05-.87h0Zm5.47,1.13c.38.39.6,1.13.93,2.69,1.81,7.47,3.3,14.14,5.44,20.27,1.15,3.3,2.15,6.59,3.39,9.7,1.97,4.96,4.39,9.48,7.36,13.24.98,1.24,2.76,2.77,4.25,3.66,1.03.62,1.19.77,1.12,1.13-.09.32-1.1.45-1.43.43-1.63-.28-4.05-1.55-4.73-2.49-4.99-5.41-8.56-14.26-11.16-21.53-4.47-12.51-8.07-28.13-7.39-27.64-.05-.36,1.79.05,2.23.54h0Zm2.69.54c.93.26,1.05.39,1.28,1.42,1.6,7.14,3.29,13.44,5.17,19.43,1.92,6.1,3.89,11.84,6.97,17.87,2.26,4.4,5.11,7.44,8.18,8.98.88.44,1.67.87,1.75.95.17.85-.56.84-1.15.86-1.39.05-2.37-.46-3.87-1.47-3.92-2.71-7.35-8.86-8.87-12.34-1.85-4.25-3.54-8.67-5.08-13.49-2.75-8.65-4.46-14.37-5.71-21.66-.05-.83.37-.65,1.32-.55Zm58.25,14.11c-9.88.66-20.03-3.53-28.18-7.3,6.13,8.16,12.68,15.4,28.15,16.89v2.61c-20.15-.29-34.31-20.75-33.56-25.85,8.29,5.37,23.19,11.58,33.52,11.11.03.84.01,1.69.07,2.53h0Zm-54.21-12.77c1.65,6.16,2.85,13.01,5.57,19.88,3.34,8.44,5.2,15.89,11.4,22.84,1.93,1.99,5.71,1.93,5.71,1.93,0,0-.48,1.08-1.12,1.25-1.33.2-2.29.26-3.26-.05-3.59-1.52-6.34-5.37-7.76-7.98-1.33-1.95-4.57-10.01-7.24-18.22-2.91-8.94-5.31-18.23-5.03-20.1.86-.18,1.45.19,1.73.44Zm2.86.83c.92.62.68,2.08,1.05,3.59,1.55,6.4,3.43,11.66,5.35,16.75,1.82,4.84,3.78,9.59,6.19,13.88,1.22,2.16,2.42,4.19,3.18,4.95,3.67,3.92,7.81.71,6.7-2.72-.5-1.56-3.52-1.81-3.68-.62,3.05-.99,4.06,3.04,1.27,4-3.28.75-5.55-3.69-2.66-6.42,4.91-3.34,8.65,1.22,7.49,5.61-1.12,2.59-3,3.91-5.48,4-3.2.1-4.52-.89-7.81-5.67-3.76-6.05-5.39-11.96-8.04-18.59-2.51-6.26-4.18-12.94-4.96-18.77.26-.56.87-.18,1.4,0h0Zm2.18.76c.65.04,1.07.16,1.56.65,4.41,16.14,8.09,25.81,11.83,32.64,0,0-.06,1.26-.31,1.61-.45.64-.66.48-1.25-.53-2.36-4.57-4.6-9.62-6.69-14.83-2.46-6.13-4.64-12.47-5.57-18.5-.14-.87-.29-1.08.42-1.04h0Zm29.76,9.23c.62,0,1.13.5,1.13,1.13s-.51,1.14-1.13,1.14-1.13-.51-1.13-1.14.51-1.13,1.13-1.13Zm-91.66-.21c-1.31,1.79-2.38,8.19-3.74,8.26-1.5-.02-3.32-.88-4.49.47-1.43,1.65-.55,3.47,1.21,4.48.81.4,2.53.5,3.58.2,4.28-1.44,5.91-8.41,3.45-13.41h0Zm95.94,1.68c.9,0,1.63.74,1.63,1.64s-.73,1.64-1.63,1.64-1.63-.73-1.63-1.64.73-1.64,1.63-1.64Zm-95.86.78c2.41,4.86-2.94,13.76-7.63,9.8-1.23-1.15-.68-3.93,1.6-3.72.77.02,1.68.73,2.2,1.47,1.49.15,3.2-7.41,3.82-7.55h0Zm101.55.9c1.02,0,1.84.83,1.84,1.85s-.82,1.85-1.84,1.85-1.84-.83-1.84-1.85.82-1.85,1.84-1.85Zm6.52,1.3c1.04,0,1.88.84,1.88,1.89s-.84,1.89-1.88,1.89-1.88-.84-1.88-1.89.84-1.89,1.88-1.89Zm-60.69,8.57c.28,0,.48.27.66.81.38,1.12.37,1.26-.22,2.01-5.78,8.29-.51,16.58,7.87,17.12.71.05,1.06.85,1.44,1.78-.05.44-.05.44-1.96.47-12.37-1-15.63-14.67-8.95-21.37.53-.55.89-.82,1.17-.82Zm54.9.89v27.54l-2.92,1.07v-29.29l2.92.68Zm5.44,1.06c3.64,9.07,3.8,17.39.51,24.96l-3.32.48c4.56-10.66,2.62-18.29.04-25.66l2.76.22Zm-174.76,1.51l11.83,11.2.41,124.74-1.88-.67-.75-122.69-9.6-9.01v-3.56Zm116.46,1.56c.31.89.31.92-.04,1.8-1.62,3.99-.3,7.79,3.71,8.99.95.3,1.11.46,1.67,1.64.36.77.53,1.05.38,1.22-2.85.39-6.73-2.21-7.82-4.83-1.46-3.46-1.41-7.06,1.18-10.06.36,0,.65.48.92,1.24Zm-47.3,3.72c-.32,1.93-3.06,5.03-5.45,6.16-2.22.85-5.58.42-6.99-1.06-5.11-5.99,4.42-12.01,6.81-5.77,1.44,4.09-4.41,5.06-4.67,1.92,0-.81.26-1.06,1.01-1.59.67-.47.59-.89.02-.89-2.21.81-2.26,2.85-1.27,4.14,1.99,2.09,4.46.87,6.15-.66,2.29-2.06,2.69-5.18,3.21-7.81.42,1.69.91,3.66,1.17,5.57h0Zm48.27-.86c.11,0,2.45,5.61,2.76,6.41-.08.56-.69.52-1.73-.21-1.06-.74-1.38-1.27-1.83-2.99-.13-.61-.36-2.84.79-3.21Zm-47.49,2.37c.51,0,1.05,1.9.81,2.87-.42,1.68-4.82,4.53-7.9,5.11-.62.12-1.28.24-1.47.28-.64.11-1.38-.24-2.16-1.04-.55-.56-.81-1.12-.68-1.25.11-.11,1.52.14,2.72.12,3.36.04,5.96-2.38,7.96-5.27.3-.45.63-.83.73-.83h0Zm-66.87,1.4s2.28,2.07,3.48,3.25c-.13,5.5-2.15,11.46-2.15,16.38.05,4.28,2.81,7.84,3.09,11.56.17,2.41-.54,5.98-1.72,8.69-1.1,2.52-1.68,5.21-1.68,7.82.14,6.08,4.49,12.72,2.96,18.73-1.44,5.65-3.07,8.91-2.64,11.91.84,5.79,3.9,10.91,3.09,15.73-.76,4.48-2.78,8.96-2.56,13,.25,4.67,1.99,8.57,2.48,12.83.32,2.77-.46,7.09-.46,7.09l-3.19.26c1.76-6.56-.86-12.48-1.86-18.79-.85-5.37,1.54-9.64,2.26-14.21.44-2.84-.06-5.55-1.46-9.17-2.78-6.69-1.78-11.04.22-16.86,2.47-6.2-.93-11.11-1.78-17.05-.44-5.12-.1-8.74,1.82-13.29,1.43-4.38,1.83-6.92-.3-11.13-1.35-2.66-1.7-4.23-1.7-7.73.7-6.94,2.56-10.83,2.11-19.03h0Zm68.39,2.77c.5,0,.74.35.74,1.06,0,1.3-1.93,2.94-5.33,4.54-1.77.83-2.79.96-3.82.47-.96-.46-.92-.86.14-1.17,2.66-.78,4.55-1.84,6.7-3.78.68-.62,1.39-1.12,1.57-1.12h0Zm-15.41.89c8.78,9.43,17.4,14.28,23.98,16.55l-1.04,2.46c-8.65-3.36-17.48-8.04-24.95-18.09l2.01-.93Zm16.92,1.54c.24,0,1.13,1.14,1.13,1.44,0,.18-.33.75-.73,1.26-.58.75-1.09,1.13-2.55,1.93-1.97,1.08-3.16,1.34-4.01.89-.85-.45-.56-.83,1.55-2.08,1.09-.64,2.55-1.68,3.24-2.31.69-.62,1.29-1.14,1.35-1.14Zm-23.26,1.39c7.2,9.87,16.46,16.43,27.35,19.94l-1.71,2.32c-9.95-3.44-19.68-9.66-28.57-20.61l2.93-1.64Zm25.13,1.22c.36,0,1.18.92,1.18,1.33,0,.2-.16.56-.35.8-.38.49-2.39,2.01-3.25,2.45-.67.35-1.17.34-1.9-.02-.87-.43-.72-.79.69-1.71.69-.45,1.74-1.27,2.32-1.84.59-.56,1.18-1.02,1.31-1.02h0Zm-28.95.72c-.2.26-10.59,24.12-32.6,41.05l-.1-3.96c12.19-9.7,21.06-22.97,27.74-34.57l4.97-2.51Zm31.04,1.71c.33,0,.57.22.8.66.28.53-.03,1.01-1.26,1.94-.77.58-1.05.7-1.69.68-1.64-.03-1.6-.43.2-2.04.93-.84,1.52-1.24,1.94-1.25h0Zm42.5,1.18l4.59.35c1.24.86-17.93,13.44-31.22,12.32l.35-3.02c11.67.33,26.6-9.11,26.28-9.65Zm-39.36,1.18c1.05.59,2.37,1.29,2.04,1.52-.49.31-3.6.11-4.32-.28-.54-.29-.51-.44.23-1.27.91-1.02,1.06-.52,2.04.03Zm-40.9-.75c-7.27,12.86-15.93,24.61-25.95,32.26l-.13-6.8c9.54-7.37,16.76-20.82,16.78-20.87l9.31-4.59Zm91.06.82l2.22,1.3c-13.86,12.87-28.84,18.42-43.23,17.03l1.16-2.61c23.35,1.85,38.85-15.47,39.85-15.72h0Zm3.37.46s.75-.09.67.06c-4.6,4.52-10.92,9.35-15.06,12.05-19.6,20.19-36.38,36.12-53.46,54.11l-2.73-2.86,2.47-2.62c-.01-5.34,6.65-11.18,10.09-15.56,2.11-2.69,5.25-7.18,4.04-8.74,5.93-1.19,7.35-6.01,7.48-10.28.28-2.85.66-5.44,1.61-7.78,26.85,2.16,44.15-17.67,44.89-18.36Zm-46.79,2.98c3.05-.01,5.35,2.41,5.34,5.83-.02,1.43-.53,2.52-2.47,6.31-1.88,3.24-2.12,5.21-2.86,8.96l-1.91-1.72-3.47,3.14.05-4.57s1.2-1.53,3.13-3.71c2.45-2.73,4.68-6.25,4.57-8.23-.07-1.98-2.15-3.59-4.28-2.29-1.85,1.3-2.7,3.64-3.79,10.66-.19,1.24-.37,2.71-.47,3.03-.27.86-2.95,3.4-2.95,3.4-.23,0-1.28-5.15-1.28-5.15l-2.7.45c3.13-3.41,5.56-7.52,7.14-11.83,1.45-2.66,3.3-4.25,5.95-4.28h0Zm-58.83,1.09s-5.38,11.22-14.83,18.51l-.06-4.39c5.49-4.27,9.68-11.63,9.67-11.62l5.23-2.5Zm129.57.28c-18.69,19.41-43.08,55.14-12.81,105.34l4-4.63c-24.37-45.4-7.1-68.94,8.94-92.55l-.13-8.17Zm-101.05,1.6c5.47,3.9,11.18,7.78,18.57,10.24-.39,1.32-10.55,9.89-3.26,17.81.3.41-.47,1.42-1.66,2.85-3.48,4.77-6.96,8.17-9.86,13.54l-.12,10.09-2.91-2.58-.76-51.95Zm100.33.93l.12,5.75c-27.77,33.84-24.64,64.32-8.94,92.39l-3.01,3.06c-25.72-44.41-9.68-77.88,11.83-101.2h0Zm-68.5,3.4c-1.22,3.24-6.58,8.8-6.58,8.8,0,0,.71-5.41,1.16-7.12.34-1.3,1.11-3.06,1.87-3.91,2.16-2.38,4.32.32,3.55,2.22Zm-36.84-3.04l.52,45.34-3.9-3.95-.57-34.67,3.96-6.72Zm-5.27,8.87l.78,30.79c-3.9-9.22-9.37-19.32-9.48-19.22,0,0,4.48-5.96,8.7-11.56Zm30.82,9.63c1.22-1.2,2.13-2.19,3.51-3.53.13,1.81-.02,3.18.03,5.09,1.18-.69,4.54-3.8,4.54-3.8,0,0,1.33,2.17,1.35,4.03-.07,3.65-2.13,6.99-5.38,8.08-9,2.79-15.03-7.61-8.78-14.21.62-.66,3.37-1.7,3.37-1.7,0,0,.88,4.13,1.37,6.03h0Zm92.21.23c-.28,44.09,0,122.14,0,122.14l8.78,8.32v3.63l-11.72-10.76s-.63-92.02-.01-126.81c.92,2.86,1.64,3.15,2.94,3.47h0Zm5.83-1.46c.31,4.26-.41,8.76.32,13.14,2.54,6.53,2.66,12.67.64,16.83-1.83,5.29-1.07,10.39.59,15.73,2.23,7.79-2.1,13.61-1.8,20.08,2.51,10.01,3.09,18.24,1.08,23.38-1.47,3.75-1.65,8.04-.25,11.91,2.42,6.01,2.97,10.92.7,16.62-1.43,3.42-.49,6.93,0,10.77l-3.52-3.02c-1.04-3.29-.67-6.37.29-8.82,2.69-5.46,1.25-9.21-.7-14.86-1.23-3.66-1.6-7.38-.01-11.12,2.64-6.23,1.6-13.41.3-18.18-.71-2.85-.86-3.95-.91-6.78-.05-2.62.33-5.35,1.18-8.52,1.21-5.03,1.2-8.05-.38-12.71-1.61-5.19-2-10.12.18-14.66,1.51-3.78,1.74-7.4.62-11.01-1.93-7.39-1.9-11.14-1.71-17.81l3.37-.98Zm-9.9,2.42c-.31,30.21,0,64.8,0,64.8,0,0-8.92,6.27-8.89,5.94-11.5-19.02-15.88-47.03,4.2-72.3,0,0,3.23,1.38,4.68,1.55h0Zm-135.73,7.2c16.27,30.48,18.39,61.27-8.52,92.85.87,2.79.72,5.39.29,7.94,5.25-4.1,47.32-46.24,11.89-104.92l-3.66,4.13Zm82.93-2.48l7.99.47.54,6.9-2.58,2.57c-.04-1.9-.06-3.82-.49-5.57-.41,2.42-.41,4.24-.51,6.81-.56.68-1.28,1.42-1.94,1.84-.42-.72-.31-4.1-.79-5.39-.4,2.28-.19,4.27-.5,6.72-.2.52-1.72,1.89-2.11,1.89-.5-1.06,0-2.21-.86-5.07-.54,2.22-.34,4.34-.45,6.76-.33.62-1.9,1.95-2.18,1.85-.75-1.79-.38-3.49-.69-5.17-.66,2.23-.33,3.75-.35,6.54-.64.86-1.65,1.9-2.38,2.36-.46-1.79-.24-4.66-.67-5.88-.58,2.32-.11,4.4-.36,6.98-.73.95-2.38,2.51-2.38,2.51l-.33-7.5-8.34-.37s1.71-2.03,2.43-2.42c2.34-.42,4.07.11,6.79-.31-1.91-.66-4.1-.56-5.65-.78.69-.73,1.41-1.45,2.12-2.16,2.06-.05,4.72.41,6.44-.24-1.58-.65-5.23-.79-5.23-.79l2.31-2.34s4.64.03,7.07-.49c-1.83-.31-5.84-.85-5.84-.85,0,0,1.4-1.51,2.41-2.4,2.11.13,5.06.24,6.21-.26-1.81-.58-3.47-.5-5.36-.47.71-.93,1.62-1.69,2.46-2.52,2.02-.05,4.04-.03,6.06-.13-1.5-.65-4.97-.86-4.97-.86.96-1,2.12-2.2,2.12-2.2h0Zm-79.14.09c22.36,36.63,14.29,76.22-10.64,100.86l-.73-4.81c23.54-28.71,27.65-58.35,8.61-93.23l2.77-2.83Zm41.58,4.92c-4.01,6.05-10.15,12.03-12.47,16.97-.47.56-.63,1.81-1.37,2.06-.37,0-.49-.7-.4-2.31.07-1.22.18-1.63.77-2.81,3.17-5.8,6.84-9.97,10.89-15.48l2.57,1.58Zm.94.59l3.71.24c-1.38,4.96-6.06,9.59-9.32,13.31-3.42,3.9-5.13,7.88-4.97,9.63-.86.9-1.45,1.53-2.53,2.45l-2.16-2c1.6-8.26,9.38-15.84,15.28-23.63Zm45.4,3.35c2.65.24,5.21.41,8.03.74.09.11.44,1.61.44,1.61l-1.56,6.98c-.79-.79-1.1-3.24-1.25-4.47-.45,1.99-.22,5.55-.22,5.55,0,0-1.06,1.73-2.06,2.44-.24.18-.55-3.18-.8-5.12-1.09,1.85-.46,3.86-.44,6.49-.64.79-1.88,1.83-2.23,1.99-.07-1.77-.27-4.67-.9-5.15-.13,2.23-.07,4.13-.13,6.42-.06.37-1.79,2.12-2.1,2.12-.76-1.54-.51-3.22-.86-4.69-.63,1.71-.36,4.35-.36,5.94-.65.76-1.46,1.48-2.22,2.02-.49-1.13-.02-2.86-.77-4.08-.42,1.89-.25,3.27-.49,5.45-.51.92-2,2.14-2,2.14-.24.12-.65-4.71-.52-6.8-2.89-.27-5.31-.27-8.4-.48.77-1,1.57-1.73,2.52-2.62,0,0,5.72.5,6.31-.26-1.68-.21-5.19-.8-5.19-.8.54-.77,1-1.21,1.69-1.9,2.31.01,4.73.05,6.96-.23-.83-.71-5.33-.98-5.33-.98.42-.84,1.25-1.46,1.93-2.09,2.29.09,5.14.17,6.54-.52-1.54-.64-3.4-.35-5.16-.84.47-.91,1.11-1.42,1.87-2.17,2.16.14,5.21.25,6.72-.41-1.78-.6-3.62-.21-5.16-.91.5-.89,1.12-1.4,1.87-2.14,2.07.08,4.42.43,6.36-.02-1.21-.94-3.52-.57-4.91-1.16.45-.9,1.04-1.31,1.81-2.05h0Zm-98.78,1.52c14.68,26.36,12.48,51.19-3.15,72.33-1.79-1.05-3.71-1.62-5.75-1.84l-.4-63.64,9.3-6.85Zm105.23,10.2c.02,1.32-.14,2.42-.37,3.9-1.14-.06-1.67-.12-3.01-.48.9-1.53,1.76-2.33,3.37-3.42h0Zm-79.06,1.28s1.93-.01,2.9.02c0,0,.15,4.93.55,7.78l6.29.3-2.44,2.55-4.77-.15c-.84-3.54-1.47-7.08-2.52-10.5h0Zm74.96,2.98c.89-.02,3.48.66,3.48.66-.01,3.46-.48,7.28-.08,12.54-.14.18-.85.85-.81.9-.21-1.75-.39-3.88-.74-5.32-.28,2.26-.15,3.71-.15,6.28-.5.42-.96.97-1.54,1.26-.64-1.05-.34-3.17-1.26-4.37-.05,1.97.11,3.6.25,5.61-.75.83-1.43,1.58-2.47,2.25.07-3.08-.46-5.26-.94-7.18,0,0-1.52-.12-3.09-.19-2.66-.11-4.53-.48-4.53-.48l2.1-2.18s5.57.89,6.23-.02c-1.73-.3-3.85-.52-5.15-1.16.47-.84,1.06-1.34,1.76-2.06,1.88.59,6.15.64,5.79.2-1.49-.46-3.26-.62-4.39-1.39.43-.84.97-1.24,1.67-1.94,2.08.07,5.15.86,5.99.12-1.4-.58-3.55-.75-4.68-1.25.56-.78,2.58-2.27,2.58-2.27h0Zm-64.38,5.93c0-.37.37,1.37.41,3.78.05,2.98.17,3.92.17,3.92,2.57.34,4.28.11,7.15.81-.89.92-1.61,1.41-2.17,1.94-1.99-.1-3.74-.18-5.79-.09,1.15.89,3.43.6,5.01,1.26-.45.85-1.12,1.27-1.84,1.94-2.06-.13-4.79-.2-6.42.11,1.96.62,3.23.58,5.12.86.08.26-1.57,2.02-2.31,2.57-2.08.38-4.46-.19-5.35.4,1.35.16,2.93.39,3.97.97,0,.39-1.47,1.92-2.16,2.24-1.42.32-2.11.37-3.4-.37.34-4.34.34-8.56.34-13.46l.86-.61s.25,3.96.99,5.6c.27-2.13-.03-6.31-.03-6.31.57-.34,1.29-1.14,1.94-2.05,0,0,.17,3.96.75,5.37.59-1.93.54-4.76.52-6.59.79-.84,1.36-1.56,2.24-2.29h0Zm-7.87,2.48c.48-.08,3.15-.03,3.54.05-.67,1.07-2.11,2.46-3.09,3.07-.25.01-.5-2.59-.45-3.12Zm75.82,5.91l.57,4.01-4.37-.3,3.8-3.72Zm-58.92.52c.73,3.05.47,4.49.91,8.02,1.46.34,5.22-.33,7.05.73,0,0-1.05,1.36-1.86,2.16-2.04-.15-4.96-.23-6.44.22,1.44.89,3.54.16,5.22.77-.66.93-1.27,1.54-2.08,2.46-2.13-.29-4.75-.32-6.8-.05,1.01,1.07,3.82.64,5.4,1.18-.45.83-1.02,1.3-1.71,1.99-2.22-.11-4.69-.34-6.78-.02,1.69.83,5.26,1.16,5.26,1.16,0,0-1.36,1.88-2.25,2.34-2.01.05-4.31-.13-6.39.06.77,1,3.78.71,5.28,1.26-.48,1.08-1.17,1.65-2.05,2.33-1.88-.39-5.44-.39-6.29-.09,1.67.36,3.93.46,5.22,1.17-.65.99-1.37,1.6-2.38,2.3l-7.89-.71s-.4-1.41.39-5.25c.71-3.46,1.27-4.32,1.35-3.59.05,1.36.43,2.74.95,3.85.31-1.84-.32-5.44-.32-5.44.52-.77,1.15-1.64,2.14-2.58,0,0,.82,4.29,1.14,4.99.34-2.27.11-3.23-.11-5.96l1.15-1.18c1.05-1.08,1.29-1.04,1.29-1.04,0,0,.68,4.29,1.04,5.15.11-2.34.03-4.24-.09-6.25,0,0,1.58-1.99,2.65-2.77.88,1.62.46,3.19.84,5.04.69-1.81.3-4.04.23-6.32.76-.77,1.52-1.54,2.34-2.26,0,0,.89,6.75,1.09,4.66.07-1.35-.13-2.75-.16-4.03,0-1.33.07-1.68.39-2.21.82-.99,2.26-2.11,2.26-2.11h0Zm45.58,2.6s1.76,1.51,1.76,1.94c-2.77,3.64-3.6,3.94-3.75,5.8-.61,2.32-1.45,3.74-2.73,5.91-2.78,3.33-5.4,6.38-10.27,13.41-.28,1.24-.36,2.05-1.5,2.64-.32.13-.96.53-1.43.89-1.82,1.39-2.99,3.23-3.52,5.51-.29,1.23-.46,2.34-.95,6.14-.2,1.56-.89,4.29-.89,4.29-10.47-.15-20.26,1.67-29,6.61l52.29-53.15Zm13.99,1.61l2.33,10.61-2.4-.05-.24-7.7-7.49-.72,2.77-2.48,5.03.34Zm-11.36.97c.64.66,1.44,1.37,2.02,2.09-2,6.71-8.34,15.42-14.64,24.06l-4.61-.51c-.08-.19,6.39-9.24,9.49-12.67,2.43-3.07,3.72-6.22,4.59-9.71,1.09-1.32,3.15-3.23,3.15-3.25h0Zm2.49,2.35l3.49,3.55.85,50.23c-5.38-4.24-11.72-7.37-18.48-9.76l1.18-2.7,1.3-1.4c4.6-4.99,3.57-10.36.08-14.16,4.26-6.23,8.12-10.88,11.37-16.96.04-2.93-.26-5.89.22-8.8h0Zm-41.07,9.76s.61.12,3.51.21c3.06.09,3.69.18,3.69.51-.52.76-1.06,1.24-1.74,1.92-1.98-.07-3.97-.02-5.94.02.72.79,4.94,1.04,4.94,1.04-.98,1-1.49,1.47-2.63,2.58-2.18-.12-4.27-.05-6.09.25,1.42.5,5.27.76,5.27.76,0,0-1.5,1.51-2.24,2.31-2.35-.22-4.59-.33-6.56.06,1.75.32,4.99,1.03,4.99,1.03l-2.2,2.36c-1.79-.33-3.68-.21-5.58.03,1.27.49,4.7,1.01,4.7,1.01,0,0-1.07,1.32-1.82,1.97-2.39.2-3.94-.19-6.1.41,1.36.59,3.19.2,4.74.81.23.24-2.03,2.4-2.03,2.4l-7.57-.11-.7-8.04c.63-.64,1.57-1.3,1.95-1.92.95,1.6.97,4.31,1.44,5.31.12-2.25-.1-3.91-.23-6.31,0-.42,1.72-2.23,2.06-2.17.67,1.38.21,2.82,1.25,4.69.24-2.2,0-3.49-.18-5.98.54-.81,1.45-1.69,2.1-2.12.56,2.61.26,4.69,1.22,5.45.18-2.45.03-4.15-.06-6.82.61-.69,1.34-1.38,2.05-1.91.82,1.55.39,3.83,1.33,5.09.11-2.2-.12-3.89-.3-6.27.74-.83,1.64-1.83,2.51-2.43.75,1.85.31,4.11,1.15,5.4.19-2.21-.07-4.49.19-6.48.65-1.13,2.24-2.74,2.24-2.74.3.25.99,4.76.65,7.65h0Zm40.19-6.23l.03,4.91c-1.96,4.21-6.5,10.39-11.1,17.02l-2.4-1.3c5.75-7.56,10.56-14.61,13.46-20.62h0Zm-64.4,1.86s-1.2,1.63-2.29,2.33c-.16-.94.21-2.66.21-2.66l2.08.32Zm73.68,3.23l3.39,3.35.85,35.98-3.57,5.84-.67-45.16Zm4.25,4.74c3.06,7.21,6.23,13.98,9.75,19.46l-9.06,12.84-.68-32.3Zm-22.01,17.83c.91,3.86-1.07,8.02-4.32,9.3-1.13.41-1.8.44-1.8.44-.4-2.33-.22-4.57-.75-6.93-1.12,1.45-3.69,3.86-3.69,3.86,0,0-.02-3.36.03-4.93l-4.82,5s-.39-.54-.86-1.79c-1.51-4.06.49-8.24,3.55-10.25,4.73-3.19,11.79.41,12.65,5.31h0Zm55.67-2.52c-7.56,5.88-18.34,18.26-27.58,34.4l-4.07,1.72c6.42-14.53,18.68-29.96,31.56-40.56.02,1.48.06,2.96.09,4.44h0Zm-.01,1.39l.08,6.55c-6.67,6.43-12.46,13.07-17.51,21.62-2.94,1.42-8.4,4.11-8.4,4.11-.68-.17,14.86-24.43,25.82-32.29h0Zm-67.19,5.38c.33,1.66-.23,4.01-1.04,5.25-2.44,2.89-6.32,6.83-6.85,10.49-.27,1.95,1.25,3.78,2.75,3.6,4.64-.58,5.14-8.86,5.53-12.94.16-1.01.24-1.86.41-2.18.98-1.25,2.03-2.47,3.35-3.46l.57,6.33,2.62-.88c-7.38,10.06-5.26,10.69-9.15,14.81-3.62,3.83-10.63-.53-8.84-6.35,1.56-3.92,3.97-7.85,4.63-12.04.18-1.25.28-2.11.28-2.11l1.68,3.51c1.34-1.32,2.59-2.87,4.07-4.02h0Zm67.46,2.4l-.02,4.52c-3.44,3.88-6.41,6.87-9.92,12.24l-5.58,2.55c3.64-6.96,9.62-13.48,15.52-19.31h0Zm-68.2,3.98s.37,2.11-.45,5.94c-.39,1.82-2.13,7.11-4.88,5.87-2.34-2.07.51-5.91,1.95-7.73,1.11-1.3,2.31-2.71,3.38-4.07h0Zm-7.35.54l-1.52,3.27c-13.68.05-26.96,4.96-38.78,14.97l-2.99-.98c12.52-11.88,28.05-17.66,43.29-17.25Zm14.38,2.51c15.41,5.18,22.53,12.73,28.36,20.65l-2.44,1.25c-6.11-7.93-13.65-15.18-27.69-19.38l1.77-2.52Zm-17.66,4.88l-.66,2.8c-8.63.26-17.74,3.33-26.6,9.5l-3.2-.51c8.92-7.02,19.11-11.03,30.45-11.79Zm39.44,18.9l-2.74,1.3c-8.17-10.63-15.55-13.65-23.95-16.36l.9-2.36c11.28,3,19.55,8.74,25.78,17.42h0Zm-113.9-12.53v28.36l-2.01-.39v-27.43l2.01-.54Zm-4.56,1.54c-3.75,14.11-.84,17.76.51,25.99l-3.11-.5c-3.03-8.34-3.34-15.93-.78-24.78l3.38-.71Zm94.46,2.17c.23.22-.19.92-.77,1.26-.56.33-.44.28-1.33-.04-.87-.32-1.98-1.14-1.98-1.46.64.01,3.53-.02,4.08.24h0Zm2.65.2c.51.06,2,.03,2.09.5.03.28-.55.73-1.74,1.55-1.81,1.24-2.43,1.49-2.96.9-.5-.56-.36-1.14.49-1.92.83-.76,1.31-1.02,2.12-1.02h0Zm-61.91.31c1.04,0,2.9,1.29,4.02,2.78,1.14,1.78,2.44,3.62,3.5,5.42,2.4,4.1,4.25,8.27,5.8,12.53,4.06,10.13,6.44,19.96,8.42,29.72-.04.82-.75.81-1.33.61-.3-.1-.61-.3-.67-.46-.84-2.39-1.13-4.84-1.77-7.24-1.6-6-2.18-9.44-5.27-17.91-1.6-4.39-3.92-10.51-6.46-15.21-1.62-3.01-3.5-5.8-5.94-8.26-.64-.64-1.45-1.23-1.45-1.36,0-.42.41-.65,1.14-.65h0Zm65.86.33c.96.24,3.29.51,2.41,1.28-3.27,1.26-4.32,2.62-6.06,4.01-.26,0-1.29-1.28-1.29-1.6,1.4-1.73,3.17-2.47,4.95-3.7Zm-57.81,2.85c4.2,6.2,7.79,15.04,10.75,23.7,3.18,9.32,5.2,18.29,6.08,24.65-.07.2-.47.27-.92.27-.86,0-.98-.21-1.2-.89-2.19-10.52-5.13-21.38-8.69-30.6-1.91-4.91-4.08-9.85-7.13-14.8-2.08-3.06-3.26-4.66-3.17-4.9,1.34-.89,3.54,1.34,4.27,2.58h0Zm-12.72-2.65c1.84,0,4.89,2.19,6.96,5,4.39,6.03,6.9,13.08,9.51,19.92,2.99,7.84,5.15,16.55,6.44,23.4.22.98.58,1.41-.35,1.72-.68-.19-1.02-.29-1.24-.52-3.46-13.61-7.35-28.43-13.53-39.27-6.61-10.61-8.53-7.66-9.6-9.53.08-.42.82-.72,1.81-.72h0Zm15.91,2.59c5.68,9.92,8.19,16,9.91,21.99,2.62,9.08,5.72,16.32,7.08,26.92,0,0-1.49.03-2.09-.22-.25-.25-.51-1.31-.67-2.17-1.36-7.48-3.59-16.34-5.95-23.31-2.54-7.77-5.57-15.15-10.05-22.29-1.17-1.92-1.4-2.68-.68-2.71,1.28.09,1.85,1.08,2.43,1.79h0Zm59.19-1.06c.8-.06,1.52.29,1.88.85.24.37-.4.58-1.86.92-2.62.91-4.42,2.38-6.44,4-.36,0-1.21-.94-1.21-1.33,1.19-1.82,4.97-4.32,7.62-4.44h0Zm-78.29.24c4.81.15,8.57,5.75,10.55,9.53.77,1.48,1.77,3.09,2.52,4.78,3.9,8.75,7.22,19.73,8.83,26.75.78,3.37,1.68,5.85,1.36,6.51-.4.25-1.23.06-1.62-.27-.25-.21-.38-.98-.82-2.39-1.12-3.61-2.98-13.94-7.82-24.8-.11-.24-2.45-7.11-6.5-13.63-1.65-2.65-4.31-4.32-6.74-4.86-1.22-.2-1.59-.05-1.51-.72.05-.42.18-.54.83-.74.29-.09.6-.14.92-.15h0Zm30.06,22.39c-.33,0-.62-.63-.84-1.66-.11-.51-.26-.87.69-1.47,5.97-6.36.84-15.71-6.66-16.52-.7-.11-1.59-.11-1.85-.21-.38-.22-1.08-1.57-1.38-2.11,10.36-2.52,21.36,12.36,10.04,21.97h0Zm51.63-20.79c.62.16,1.96,1.41,1.79,1.68-.2.33-1.36.34-3.04.64-3.56.63-5.09,2.96-6.75,4.69-.37.11-.7-.14-1.02-.71-.24-.41-.44-.91-.44-1.11,1.85-2.71,6.81-5.44,9.46-5.19h0Zm-84.13.8c3.03,0,6.06,1.47,7.76,3.87,6.22,9.34,13.21,30.09,14.87,40.33-.17.33-1.85-.17-1.85-.17.25-.12-7.34-28.19-14.66-38.4-1.64-3.08-4.94-3.99-7.02-2.99-2.16,1.17-2.43,3.96-.79,5.2,1.36.95,3.51.8,4.3-.68.27-.52.19-1.17.01-1.34-.17-.16-.47-.11-.54.06.11,1.81-2.2,1.93-3.2,1.22-1.61-1.21-.54-5.02,3.85-3.49,1.69.89,2.26,2.58,1.46,4.37-.82,1.83-2.09,2.67-4.06,2.66-2.38-.04-5.09-1.72-5.11-4.74.01-2.25,1.05-4.12,3-5.38.72-.46,1-.54,1.98-.54h0Zm25.66,1.4c7.35.34,10.73,9.02,6.86,14.26-.99,1.25-1.61,1.02-2.03-.59-.21-.66-.44-.76.16-1.28,3.44-3.31.62-9.74-5.06-10,0,0-1.06-1.55-1.16-2.37.38-.14.89-.02,1.24-.02h0Zm61.31.6c.56.14,1.74,1.27,1.74,1.67,0,.47-.23.38-1.54.16-3.09-.55-6.19,1.24-8.78,5.16-1.25,2.35-1.41,2.13-2.07.1-.34-1.04-.34-1.02.97-2.93,2.45-3.16,6.08-4.6,9.67-4.16h0Zm2.88,3.98c2.59,2.36,1.38,7.55-2.12,8.09-3.08.36-5.82-2.99-3.88-5.26,3.43-3.49,5.95,2.22,2.96,2.72-.17.06-.3.19-.3.29,2.26.75,2.75-2.32,1.88-3.61-.72-1.07-2.14-1.67-3.4-1.19-2.07.74-4.19,3.56-5.39,7.12-.34,1-.54,1.94-.68,2.16-.3.45-.27.44-.55.27-.24-.15-.68-2.33-.68-3.16,0-.63.54-2.29,1.26-3.72,2.25-4.19,7.3-6.99,10.91-3.7h0Zm-63.05-1.05c3.01.18,5.39,4.46,4.08,7.44-.41.55-.99.92-1.26.58-.86-2.2-1.62-4.02-2.62-6.3-.48-1.03-.82-1.73-.21-1.72h0Zm-20.46,2.48c3.43,6.09,6.3,13.08,8.68,19.9,1.85,5.31,3.37,10.53,4.25,15.14.08.47.2.71,0,.91-.34.34-1.97-.5-1.97-.5-3.47-13.4-6.54-23.28-12.39-33.3-.09-.79.14-1.79.62-2.35.19-.21.45-.22.83.21h0Zm-38.47,11.51c16.22,1.09,28.75,7.95,35.45,26.05-2.38-1.35-14.63-10.64-35.45-11.87v-2.51c14.93-.12,29.63,7.67,29.32,7.56-5.55-11.48-19.45-16.14-29.32-16.44v-2.79Zm111.05,6.59c.21,2.71.28,5.79.51,8.09.28.34.84.39,1.09.09.98-2.75,1.27-6.12,2.89-8.6.36-.46.87-.32,2.34-.15,3.31.29,4.02-4.19,1.61-5.38-3.83-1.89-7.47,3.2-8.44,5.95Zm4.96-1.85c-2.36,1.95-2.43,4.76-3.15,7.34-.38,1.74-.93,2.66-1.14.03-.36-3.96.33-10.35,5.57-11.32,2.69-.5,3.52,2.26,2.74,3.54-.6.98-2.43,1.49-4.02.41h0Zm-111.73,1.17c1.17,0,2.11.95,2.11,2.12s-.95,2.12-2.11,2.12-2.11-.95-2.11-2.12.95-2.12,2.11-2.12Zm6.73,1.45c1.04,0,1.89.84,1.89,1.89s-.85,1.9-1.89,1.9-1.88-.85-1.88-1.9.84-1.89,1.88-1.89Zm6.14,2.08c.85,0,1.53.69,1.53,1.54s-.68,1.54-1.53,1.54-1.54-.69-1.54-1.54.69-1.54,1.54-1.54Zm4.36,2.77c.66,0,1.19.54,1.19,1.2s-.53,1.19-1.19,1.19-1.19-.53-1.19-1.19.54-1.2,1.19-1.2Zm-15.26,3.8c-.45,2.3-.1,4.66.43,6.29,1.2,3.51.66,9.72.66,9.72l-3.52,3.61c.25-3.29.64-6.75.46-9.52-.13-1.84-.95-3.55-1.17-5.4-.2-1.71.1-5.12.1-5.12l3.04.43Zm5.53,1.06v14.97l-11.77,11.71v-3.09l10.06-10.22v-13.88l1.71.5Zm29.9,34.15l-.79,1.29h13.6l.29-1.29h-13.09Zm17.6,0l-.32,1.29h6.29l.21-1.29s-3.31,0-6.18,0Zm10.31,0l-.2,1.29h23.37l-.35-1.29h-22.82Zm27.31,0l.37,1.29h6.22l-.51-1.29h-6.08Zm10.41,0l.45,1.29h10.7l-.89-1.29h-10.26Z"/>
    <path id="uuid-aedcc50c-8701-4be9-a31d-0bf6eebe7e1d" data-name="path35-67-2-1-9" class="uuid-566487ad-b23c-4ea4-b9eb-f34e562c366d" d="m19.54,15.52v3.88h3.76s.09,3.74.12,11.67c.03,7.7.19,11.52-.3,13.71-1.32,5.05-8.62,5.08-10.07,1.45-.84-2.11-.62-3.76-.66-5.88h-4.04s.02,1.07.03,2.38c.02,5.68,1.9,8.4,6.29,9.47,4.52,1.22,9.8-.64,11.68-4.51,1.12-2.2.99-2.36,1.02-15.69.02-8.89.15-12.59.15-12.59h3.46v-3.88h-11.43Z"/>
    <path id="uuid-9748ef89-a514-4bb3-972b-e1dfd1c8eeb4" data-name="path35-6-7-1-4" class="uuid-566487ad-b23c-4ea4-b9eb-f34e562c366d" d="m230.27,334.45v-3.88h-3.76s-.09-3.74-.12-11.67c-.03-7.7-.19-11.52.3-13.71,1.32-5.05,8.62-5.08,10.07-1.45.84,2.11.62,3.76.66,5.88h4.04s-.02-1.07-.03-2.38c-.02-5.68-1.9-8.4-6.29-9.47-4.52-1.22-9.8.64-11.68,4.51-1.12,2.2-.99,2.36-1.02,15.69-.02,8.89-.15,12.59-.15,12.59h-3.46v3.88h11.43Z"/>
    <path id="uuid-29138500-3bcb-4821-a112-cadcaf65af68" data-name="path1549" class="uuid-b16bc13c-69ff-4b15-a179-fbe09494c444" d="m81.93,28.3l21.19,25.42c4.41-1.58,26.66-4.13,40.01-1.08,2.33,9.14,4.79,18.37,7.39,26.69,0,0-.83.98-1.44,1.6-8.52,9.85-2.49,19.37,5.31,22.47-1.41,2.93-16.35,10.22-25.46,9.36.02-.09-2.8-6.69-8.49-4.46-1.95.76-2.75,2.23-4.26,3.67-5.44-1.64-12.62-5.23-16.35-9.17,6.98,3.49,13.86,5.36,20.77,4.44-11.52-4.94-14.72-16.59-16.82-26.01-.73,2.2-1.05,8.02-2.97,9.23-.5.33-.59.23-.96-1.01-2.72-7.13-12.48-1.43-8.22,5.76l-3.25,1.81v.54l-2,.96-.42-.28c-9.29,4.5-18.4,9.19-27.88,13.5,0,0-5.03,8.38-9.64,11.71l-.18-28.45-13.64-12.36-.07,6.77s.65.69.98,1.03c.19,47.63.03,94.48.06,137.72l.06,39.8-.83.05-.04,4.64.94.21-.13,6.56-.49.03-.07,4.15.74.12v23.43s-.75.95-.75.95l.02,6.69,14.25-13.58v-15.44c11.24,2.13,23.3,10.23,23.3,10.23-1.98-12.93-15.65-23.59-23.5-25.72l.02-30.64s-5.84,2.44-8.72,2.82c-1.43.2-1.98-.01-2.66-1.05-.5-.75-.51-1.44-.06-3,.21-.73.2-.92-.06-1.65-.37-1.03-.37-1.49-.01-3.31.38-1.07.21-1.64-.18-2.62-.42-1.06-.46-1.25-.28-1.86.48-1.6.51-1.86.25-2.58-.49-1.4-.51-2.41-.05-3.32,2.1-3.54,6.81-2.66,9.37-2.54,1.29,1.45,2.07,2.25,2.19.16.91-2.5,4.42.06,6.07,1.12,13.98-18.79,20.87-44.22,3.34-76.06l-9.76,7.83.02-9.8c12.94-8.34,27.49-27.29,33.79-42.24,2.1,2.46,4.5,4.88,6.77,7.37l-1.48,2.49-.44-.25c-4.01,7.68-14.91,22.2-15.09,22.06,4.03,7.5,7.63,15.07,10.68,22.73l.8-.36.72,2.31-1.41.42c4.77,15.7,4.93,30.24,1.34,43.65l.84,3.56s5.05,4.91,6.41,6.35c3.56,3.45,7.52,7.31,7.52,7.31l4.61-4.53-.27-.38,40.41-40.24,2.52,2.42c-24.75,25-67.73,68.15-67.73,68.15l-1.49.22c-.85.13-2.1.18-2.9.12-1.31-.09-1.48-.06-2.53.44-1.19.57-2.17,1.41-3.48,2.98-.6.72-1.01,1.03-1.68,1.27-8.42,5.04-.81,15.18,6.36,9.84,5.25,10.06,9.7,21.78,12.15,33.38,0,.08-.94.41-.94.41l-18.88,28.08h7.26l.76-1.29h-5.44l17.37-25.16c22.1,6.04,42.38,6.9,62.97,3.3l17.92,21.86h-7.11l1.01,1.29,9.2.15-21.06-24.93c-7.54,2.02-27.43,3.65-39.91,1.53-1.91-9.3-5.06-19.4-7.38-27.44,11.91-9.35,2.97-21.69-4.38-23.41-.36-.68,14.9-9.98,25.77-9.33,3.11,7.5,9.93,6.39,12.38.81,4.51,1.66,10.36,3.32,15,7.02-6.19-1.36-13.37-2.1-19.28-2.2,11.23,4.37,14.39,13.57,15.77,22.26.24,1.44,1.01,3.3,1.01,3.3.96-3.14,1.74-6.37,3.62-9.06.85,3.07,3.69,5.98,7.27,3.63,3.2-2.1,2.23-5.11,1.68-8.28l2.5-1.35.33.28s2.74-1.17,4.09-1.83c.21-.1-.25-.53-.25-.53l25.24-11.94c-.1-.05,6.36-8.9,10.07-12.31.11,10.6.09,14.95.08,27.53,5.18,4.54,10,9.89,14.03,12.85l-.19-185.31h-.21v-3.56l.29-.02v-9.27l-.26-.15v-2.92l.35-.25.02-25.03-.4-.07-.02-6-13.96,14.92v14.07c-4.6-.88-13.29-4.87-19.39-8.09-1.73-1.06-2.69-1.34-2.64-.73.75,8.38,12.84,21.19,22.14,24.54l.02,31.52s2.19-1.1,3.53-1.67l.2.56,3-1.24.24-.65,2.6-.33c.03.53.12.46.12.46,2.31.65,3.34,2.23,2.41,4.01-.33.6-.39,1.44-.12,1.66,1,1.59,1.27,2.99.05,4.49-.47.77-.46,1.2.02,2.02,1.25,2.53.54,2.37-.4,3.87-.21,1.14,1.03,1.88.62,2.96-.19.71-.94,1.54-1.44,1.91-.59.43-1.08-.37-1.08-.37,0,0-1.88.81-3.22,1.06-1.33.43-3.61,1.2-4.4-.59-.45-1.03-.09-1.96-.12-3.11l-1.94-.21-.07,5.2c-1.11.59-5.54-1.67-5.54-1.67-18.98,24.67-18.45,52.04-4.37,74.96.14.37,9.92-6.71,9.92-6.71,0,0-.02,5.8.07,8.95-12.43,10.31-24.44,24.19-33.03,41.3l-5.32-6.32c.92-.81.95-2.1.93-3.07l3.86-5.77.03-1.5,10.04-14.07c.16.84-10.36-18.89-11.76-25.31l.7-.19c-4.72-17.91-3.75-30.46-.34-45.07l-.97-.94-13.25-13.27c-1.08,1-2.15,2-3.22,3-.16.15-.97.06-1.14.22-6.97,6.56-13.68,13.14-20.31,19.98-.17.18.12.91-.05,1.08-6.65,6.86-13.54,13.38-20.26,20.23l-2.46-2.35c23.81-23.88,68.68-68.23,68.68-68.23,0,0,.19-.35.5-.36,1.25-.05,2.36-.33,3.6-.69,1.48-.34,1.72-.45,2.34-1.1.38-.39,1.01-.95,1.39-1.23.65-.48,2.14-1.73,4.46-3.76,5.4-5.48.9-12.85-7.59-8.73-4.86-9.89-9.59-22.32-11.6-32.58-.11-.65-.05-.84.48-1.65.33-.51,1.04-1.62,1.59-2.48,6.06-9.47,12.27-17.41,17.57-26.12h-7.49l-.92,1.48h6.17l-18.35,26.49c-33.81-11.09-61.52-4.06-62.19-3.91l-18.28-22.58h8.36l-1.01-1.48h-10.72Zm16.46,0l.93,1.48h8.77l-.5-1.48h-9.2Zm14.62,1.48h5.41l-.31-1.48h-5.55l.45,1.48Zm9.68-1.48l.34,1.48h21.98l.39-1.48h-22.72Zm26.88,1.48h5.51l.41-1.48h-5.54l-.38,1.48Zm10.9-1.48l-.47,1.48h12.49l.94-1.48h-12.95Zm53.4,10.22v4.11l-8.8,9.52v13.29l-2.72-.61v-13.73l11.52-12.57Zm-2.52,8.75c.08,4.07-.58,7.97.49,12.12.53,2.04,1.6,4.44,1.73,6.85l-2.97-.07c-.38-1.22-.52-2.56-.97-4.06-1.1-3.7-1.99-7.6-1.18-11.52l2.89-3.32Zm-64.81,6.64c.11.2.46,1.92.79,3.52,1.56,8.75,3.65,15.25,5.78,21.86,2.71,8.33,6.72,18.82,10.62,23.68.52.61.77,1.3.59,1.6-.31.51-1.91-.2-2.97-1.33-.44-.46-1.28-1.76-1.9-2.92-1.36-2.56-3.19-6.28-3.37-6.87-.07-.24-.79-2.08-1.6-4.09-1.41-3.51-2.25-5.92-3.42-9.82-.93-3.1-1.8-6.34-2.84-9.61-1.71-5.34-2.69-9.59-3.64-14.49-.14-.72-.38-1.56-.29-1.73.54-.39,2-.23,2.26.21Zm.95.33c-.17-.14,1.55-.17,2.1.29.16.16.45,1.19.7,2.51,1.55,8.05,3.89,16.38,6.6,24.26,2.17,6.3,4.54,12.37,7.49,17.28.93,1.64,2.18,3.39,3.78,5.28.89,1.06.97,1.21.73,1.5-.3.36-.81.31-1.81-.16-1.92-1.23-2.72-2.56-3.98-4.35-4.35-7.55-7-14.72-9.39-22.01-2.46-7.47-4.66-15.02-6.16-23.73-.02-.29-.04-.58-.05-.87h0Zm5.47,1.13c.38.39.6,1.13.93,2.69,1.81,7.47,3.3,14.14,5.44,20.27,1.15,3.3,2.15,6.59,3.39,9.7,1.97,4.96,4.39,9.48,7.36,13.24.98,1.24,2.76,2.77,4.25,3.66,1.03.62,1.19.77,1.12,1.13-.09.32-1.1.45-1.43.43-1.63-.28-4.05-1.55-4.73-2.49-4.99-5.41-8.56-14.26-11.16-21.53-4.47-12.51-8.07-28.13-7.39-27.64-.05-.36,1.79.05,2.23.54h0Zm2.69.54c.93.26,1.05.39,1.28,1.42,1.6,7.14,3.29,13.44,5.17,19.43,1.92,6.1,3.89,11.84,6.97,17.87,2.26,4.4,5.11,7.44,8.18,8.98.88.44,1.67.87,1.75.95.17.85-.56.84-1.15.86-1.39.05-2.37-.46-3.87-1.47-3.92-2.71-7.35-8.86-8.87-12.34-1.85-4.25-3.54-8.67-5.08-13.49-2.75-8.65-4.46-14.37-5.71-21.66-.05-.83.37-.65,1.32-.55Zm58.25,14.11c-9.88.66-20.03-3.53-28.18-7.3,6.13,8.16,12.68,15.4,28.15,16.89v2.61c-20.15-.29-34.31-20.75-33.56-25.85,8.29,5.37,23.19,11.58,33.52,11.11.03.84.01,1.69.07,2.53h0Zm-54.21-12.77c1.65,6.16,2.85,13.01,5.57,19.88,3.34,8.44,5.2,15.89,11.4,22.84,1.93,1.99,5.71,1.93,5.71,1.93,0,0-.48,1.08-1.12,1.25-1.33.2-2.29.26-3.26-.05-3.59-1.52-6.34-5.37-7.76-7.98-1.33-1.95-4.57-10.01-7.24-18.22-2.91-8.94-5.31-18.23-5.03-20.1.86-.18,1.45.19,1.73.44Zm2.86.83c.92.62.68,2.08,1.05,3.59,1.55,6.4,3.43,11.66,5.35,16.75,1.82,4.84,3.78,9.59,6.19,13.88,1.22,2.16,2.42,4.19,3.18,4.95,3.67,3.92,7.81.71,6.7-2.72-.5-1.56-3.52-1.81-3.68-.62,3.05-.99,4.06,3.04,1.27,4-3.28.75-5.55-3.69-2.66-6.42,4.91-3.34,8.65,1.22,7.49,5.61-1.12,2.59-3,3.91-5.48,4-3.2.1-4.52-.89-7.81-5.67-3.76-6.05-5.39-11.96-8.04-18.59-2.51-6.26-4.18-12.94-4.96-18.77.26-.56.87-.18,1.4,0h0Zm2.18.76c.65.04,1.07.16,1.56.65,4.41,16.14,8.09,25.81,11.83,32.64,0,0-.06,1.26-.31,1.61-.45.64-.66.48-1.25-.53-2.36-4.57-4.6-9.62-6.69-14.83-2.46-6.13-4.64-12.47-5.57-18.5-.14-.87-.29-1.08.42-1.04h0Zm29.76,9.23c.62,0,1.13.5,1.13,1.13s-.51,1.14-1.13,1.14-1.13-.51-1.13-1.14.51-1.13,1.13-1.13Zm-91.66-.21c-1.31,1.79-2.38,8.19-3.74,8.26-1.5-.02-3.32-.88-4.49.47-1.43,1.65-.55,3.47,1.21,4.48.81.4,2.53.5,3.58.2,4.28-1.44,5.91-8.41,3.45-13.41h0Zm95.94,1.68c.9,0,1.63.74,1.63,1.64s-.73,1.64-1.63,1.64-1.63-.73-1.63-1.64.73-1.64,1.63-1.64Zm-95.86.78c2.41,4.86-2.94,13.76-7.63,9.8-1.23-1.15-.68-3.93,1.6-3.72.77.02,1.68.73,2.2,1.47,1.49.15,3.2-7.41,3.82-7.55h0Zm101.55.9c1.02,0,1.84.83,1.84,1.85s-.82,1.85-1.84,1.85-1.84-.83-1.84-1.85.82-1.85,1.84-1.85Zm6.52,1.3c1.04,0,1.88.84,1.88,1.89s-.84,1.89-1.88,1.89-1.88-.84-1.88-1.89.84-1.89,1.88-1.89Zm-60.69,8.57c.28,0,.48.27.66.81.38,1.12.37,1.26-.22,2.01-5.78,8.29-.51,16.58,7.87,17.12.71.05,1.06.85,1.44,1.78-.05.44-.05.44-1.96.47-12.37-1-15.63-14.67-8.95-21.37.53-.55.89-.82,1.17-.82Zm54.9.89v27.54l-2.92,1.07v-29.29l2.92.68Zm5.44,1.06c3.64,9.07,3.8,17.39.51,24.96l-3.32.48c4.56-10.66,2.62-18.29.04-25.66l2.76.22Zm-174.76,1.51l11.83,11.2.41,124.74-1.88-.67-.75-122.69-9.6-9.01v-3.56Zm116.46,1.56c.31.89.31.92-.04,1.8-1.62,3.99-.3,7.79,3.71,8.99.95.3,1.11.46,1.67,1.64.36.77.53,1.05.38,1.22-2.85.39-6.73-2.21-7.82-4.83-1.46-3.46-1.41-7.06,1.18-10.06.36,0,.65.48.92,1.24Zm-47.3,3.72c-.32,1.93-3.06,5.03-5.45,6.16-2.22.85-5.58.42-6.99-1.06-5.11-5.99,4.42-12.01,6.81-5.77,1.44,4.09-4.41,5.06-4.67,1.92,0-.81.26-1.06,1.01-1.59.67-.47.59-.89.02-.89-2.21.81-2.26,2.85-1.27,4.14,1.99,2.09,4.46.87,6.15-.66,2.29-2.06,2.69-5.18,3.21-7.81.42,1.69.91,3.66,1.17,5.57h0Zm48.27-.86c.11,0,2.45,5.61,2.76,6.41-.08.56-.69.52-1.73-.21-1.06-.74-1.38-1.27-1.83-2.99-.13-.61-.36-2.84.79-3.21Zm-47.49,2.37c.51,0,1.05,1.9.81,2.87-.42,1.68-4.82,4.53-7.9,5.11-.62.12-1.28.24-1.47.28-.64.11-1.38-.24-2.16-1.04-.55-.56-.81-1.12-.68-1.25.11-.11,1.52.14,2.72.12,3.36.04,5.96-2.38,7.96-5.27.3-.45.63-.83.73-.83h0Zm-66.87,1.4s2.28,2.07,3.48,3.25c-.13,5.5-2.15,11.46-2.15,16.38.05,4.28,2.81,7.84,3.09,11.56.17,2.41-.54,5.98-1.72,8.69-1.1,2.52-1.68,5.21-1.68,7.82.14,6.08,4.49,12.72,2.96,18.73-1.44,5.65-3.07,8.91-2.64,11.91.84,5.79,3.9,10.91,3.09,15.73-.76,4.48-2.78,8.96-2.56,13,.25,4.67,1.99,8.57,2.48,12.83.32,2.77-.46,7.09-.46,7.09l-3.19.26c1.76-6.56-.86-12.48-1.86-18.79-.85-5.37,1.54-9.64,2.26-14.21.44-2.84-.06-5.55-1.46-9.17-2.78-6.69-1.78-11.04.22-16.86,2.47-6.2-.93-11.11-1.78-17.05-.44-5.12-.1-8.74,1.82-13.29,1.43-4.38,1.83-6.92-.3-11.13-1.35-2.66-1.7-4.23-1.7-7.73.7-6.94,2.56-10.83,2.11-19.03h0Zm68.39,2.77c.5,0,.74.35.74,1.06,0,1.3-1.93,2.94-5.33,4.54-1.77.83-2.79.96-3.82.47-.96-.46-.92-.86.14-1.17,2.66-.78,4.55-1.84,6.7-3.78.68-.62,1.39-1.12,1.57-1.12h0Zm-15.41.89c8.78,9.43,17.4,14.28,23.98,16.55l-1.04,2.46c-8.65-3.36-17.48-8.04-24.95-18.09l2.01-.93Zm16.92,1.54c.24,0,1.13,1.14,1.13,1.44,0,.18-.33.75-.73,1.26-.58.75-1.09,1.13-2.55,1.93-1.97,1.08-3.16,1.34-4.01.89-.85-.45-.56-.83,1.55-2.08,1.09-.64,2.55-1.68,3.24-2.31.69-.62,1.29-1.14,1.35-1.14Zm-23.26,1.39c7.2,9.87,16.46,16.43,27.35,19.94l-1.71,2.32c-9.95-3.44-19.68-9.66-28.57-20.61l2.93-1.64Zm25.13,1.22c.36,0,1.18.92,1.18,1.33,0,.2-.16.56-.35.8-.38.49-2.39,2.01-3.25,2.45-.67.35-1.17.34-1.9-.02-.87-.43-.72-.79.69-1.71.69-.45,1.74-1.27,2.32-1.84.59-.56,1.18-1.02,1.31-1.02h0Zm-28.95.72c-.2.26-10.59,24.12-32.6,41.05l-.1-3.96c12.19-9.7,21.06-22.97,27.74-34.57l4.97-2.51Zm31.04,1.71c.33,0,.57.22.8.66.28.53-.03,1.01-1.26,1.94-.77.58-1.05.7-1.69.68-1.64-.03-1.6-.43.2-2.04.93-.84,1.52-1.24,1.94-1.25h0Zm42.5,1.18l4.59.35c1.24.86-17.93,13.44-31.22,12.32l.35-3.02c11.67.33,26.6-9.11,26.28-9.65Zm-39.36,1.18c1.05.59,2.37,1.29,2.04,1.52-.49.31-3.6.11-4.32-.28-.54-.29-.51-.44.23-1.27.91-1.02,1.06-.52,2.04.03Zm-40.9-.75c-7.27,12.86-15.93,24.61-25.95,32.26l-.13-6.8c9.54-7.37,16.76-20.82,16.78-20.87l9.31-4.59Zm91.06.82l2.22,1.3c-13.86,12.87-28.84,18.42-43.23,17.03l1.16-2.61c23.35,1.85,38.85-15.47,39.85-15.72h0Zm3.37.46s.75-.09.67.06c-4.6,4.52-10.92,9.35-15.06,12.05-19.6,20.19-36.38,36.12-53.46,54.11l-2.73-2.86,2.47-2.62c-.01-5.34,6.65-11.18,10.09-15.56,2.11-2.69,5.25-7.18,4.04-8.74,5.93-1.19,7.35-6.01,7.48-10.28.28-2.85.66-5.44,1.61-7.78,26.85,2.16,44.15-17.67,44.89-18.36Zm-46.79,2.98c3.05-.01,5.35,2.41,5.34,5.83-.02,1.43-.53,2.52-2.47,6.31-1.88,3.24-2.12,5.21-2.86,8.96l-1.91-1.72-3.47,3.14.05-4.57s1.2-1.53,3.13-3.71c2.45-2.73,4.68-6.25,4.57-8.23-.07-1.98-2.15-3.59-4.28-2.29-1.85,1.3-2.7,3.64-3.79,10.66-.19,1.24-.37,2.71-.47,3.03-.27.86-2.95,3.4-2.95,3.4-.23,0-1.28-5.15-1.28-5.15l-2.7.45c3.13-3.41,5.56-7.52,7.14-11.83,1.45-2.66,3.3-4.25,5.95-4.28h0Zm-58.83,1.09s-5.38,11.22-14.83,18.51l-.06-4.39c5.49-4.27,9.68-11.63,9.67-11.62l5.23-2.5Zm129.57.28c-18.69,19.41-43.08,55.14-12.81,105.34l4-4.63c-24.37-45.4-7.1-68.94,8.94-92.55l-.13-8.17Zm-101.05,1.6c5.47,3.9,11.18,7.78,18.57,10.24-.39,1.32-10.55,9.89-3.26,17.81.3.41-.47,1.42-1.66,2.85-3.48,4.77-6.96,8.17-9.86,13.54l-.12,10.09-2.91-2.58-.76-51.95Zm100.33.93l.12,5.75c-27.77,33.84-24.64,64.32-8.94,92.39l-3.01,3.06c-25.72-44.41-9.68-77.88,11.83-101.2h0Zm-68.5,3.4c-1.22,3.24-6.58,8.8-6.58,8.8,0,0,.71-5.41,1.16-7.12.34-1.3,1.11-3.06,1.87-3.91,2.16-2.38,4.32.32,3.55,2.22Zm-36.84-3.04l.52,45.34-3.9-3.95-.57-34.67,3.96-6.72Zm-5.27,8.87l.78,30.79c-3.9-9.22-9.37-19.32-9.48-19.22,0,0,4.48-5.96,8.7-11.56Zm30.82,9.63c1.22-1.2,2.13-2.19,3.51-3.53.13,1.81-.02,3.18.03,5.09,1.18-.69,4.54-3.8,4.54-3.8,0,0,1.33,2.17,1.35,4.03-.07,3.65-2.13,6.99-5.38,8.08-9,2.79-15.03-7.61-8.78-14.21.62-.66,3.37-1.7,3.37-1.7,0,0,.88,4.13,1.37,6.03h0Zm92.21.23c-.28,44.09,0,122.14,0,122.14l8.78,8.32v3.63l-11.72-10.76s-.63-92.02-.01-126.81c.92,2.86,1.64,3.15,2.94,3.47h0Zm5.83-1.46c.31,4.26-.41,8.76.32,13.14,2.54,6.53,2.66,12.67.64,16.83-1.83,5.29-1.07,10.39.59,15.73,2.23,7.79-2.1,13.61-1.8,20.08,2.51,10.01,3.09,18.24,1.08,23.38-1.47,3.75-1.65,8.04-.25,11.91,2.42,6.01,2.97,10.92.7,16.62-1.43,3.42-.49,6.93,0,10.77l-3.52-3.02c-1.04-3.29-.67-6.37.29-8.82,2.69-5.46,1.25-9.21-.7-14.86-1.23-3.66-1.6-7.38-.01-11.12,2.64-6.23,1.6-13.41.3-18.18-.71-2.85-.86-3.95-.91-6.78-.05-2.62.33-5.35,1.18-8.52,1.21-5.03,1.2-8.05-.38-12.71-1.61-5.19-2-10.12.18-14.66,1.51-3.78,1.74-7.4.62-11.01-1.93-7.39-1.9-11.14-1.71-17.81l3.37-.98Zm-9.9,2.42c-.31,30.21,0,64.8,0,64.8,0,0-8.92,6.27-8.89,5.94-11.5-19.02-15.88-47.03,4.2-72.3,0,0,3.23,1.38,4.68,1.55h0Zm-135.73,7.2c16.27,30.48,18.39,61.27-8.52,92.85.87,2.79.72,5.39.29,7.94,5.25-4.1,47.32-46.24,11.89-104.92l-3.66,4.13Zm82.93-2.48l7.99.47.54,6.9-2.58,2.57c-.04-1.9-.06-3.82-.49-5.57-.41,2.42-.41,4.24-.51,6.81-.56.68-1.28,1.42-1.94,1.84-.42-.72-.31-4.1-.79-5.39-.4,2.28-.19,4.27-.5,6.72-.2.52-1.72,1.89-2.11,1.89-.5-1.06,0-2.21-.86-5.07-.54,2.22-.34,4.34-.45,6.76-.33.62-1.9,1.95-2.18,1.85-.75-1.79-.38-3.49-.69-5.17-.66,2.23-.33,3.75-.35,6.54-.64.86-1.65,1.9-2.38,2.36-.46-1.79-.24-4.66-.67-5.88-.58,2.32-.11,4.4-.36,6.98-.73.95-2.38,2.51-2.38,2.51l-.33-7.5-8.34-.37s1.71-2.03,2.43-2.42c2.34-.42,4.07.11,6.79-.31-1.91-.66-4.1-.56-5.65-.78.69-.73,1.41-1.45,2.12-2.16,2.06-.05,4.72.41,6.44-.24-1.58-.65-5.23-.79-5.23-.79l2.31-2.34s4.64.03,7.07-.49c-1.83-.31-5.84-.85-5.84-.85,0,0,1.4-1.51,2.41-2.4,2.11.13,5.06.24,6.21-.26-1.81-.58-3.47-.5-5.36-.47.71-.93,1.62-1.69,2.46-2.52,2.02-.05,4.04-.03,6.06-.13-1.5-.65-4.97-.86-4.97-.86.96-1,2.12-2.2,2.12-2.2h0Zm-79.14.09c22.36,36.63,14.29,76.22-10.64,100.86l-.73-4.81c23.54-28.71,27.65-58.35,8.61-93.23l2.77-2.83Zm41.58,4.92c-4.01,6.05-10.15,12.03-12.47,16.97-.47.56-.63,1.81-1.37,2.06-.37,0-.49-.7-.4-2.31.07-1.22.18-1.63.77-2.81,3.17-5.8,6.84-9.97,10.89-15.48l2.57,1.58Zm.94.59l3.71.24c-1.38,4.96-6.06,9.59-9.32,13.31-3.42,3.9-5.13,7.88-4.97,9.63-.86.9-1.45,1.53-2.53,2.45l-2.16-2c1.6-8.26,9.38-15.84,15.28-23.63Zm45.4,3.35c2.65.24,5.21.41,8.03.74.09.11.44,1.61.44,1.61l-1.56,6.98c-.79-.79-1.1-3.24-1.25-4.47-.45,1.99-.22,5.55-.22,5.55,0,0-1.06,1.73-2.06,2.44-.24.18-.55-3.18-.8-5.12-1.09,1.85-.46,3.86-.44,6.49-.64.79-1.88,1.83-2.23,1.99-.07-1.77-.27-4.67-.9-5.15-.13,2.23-.07,4.13-.13,6.42-.06.37-1.79,2.12-2.1,2.12-.76-1.54-.51-3.22-.86-4.69-.63,1.71-.36,4.35-.36,5.94-.65.76-1.46,1.48-2.22,2.02-.49-1.13-.02-2.86-.77-4.08-.42,1.89-.25,3.27-.49,5.45-.51.92-2,2.14-2,2.14-.24.12-.65-4.71-.52-6.8-2.89-.27-5.31-.27-8.4-.48.77-1,1.57-1.73,2.52-2.62,0,0,5.72.5,6.31-.26-1.68-.21-5.19-.8-5.19-.8.54-.77,1-1.21,1.69-1.9,2.31.01,4.73.05,6.96-.23-.83-.71-5.33-.98-5.33-.98.42-.84,1.25-1.46,1.93-2.09,2.29.09,5.14.17,6.54-.52-1.54-.64-3.4-.35-5.16-.84.47-.91,1.11-1.42,1.87-2.17,2.16.14,5.21.25,6.72-.41-1.78-.6-3.62-.21-5.16-.91.5-.89,1.12-1.4,1.87-2.14,2.07.08,4.42.43,6.36-.02-1.21-.94-3.52-.57-4.91-1.16.45-.9,1.04-1.31,1.81-2.05h0Zm-98.78,1.52c14.68,26.36,12.48,51.19-3.15,72.33-1.79-1.05-3.71-1.62-5.75-1.84l-.4-63.64,9.3-6.85Zm105.23,10.2c.02,1.32-.14,2.42-.37,3.9-1.14-.06-1.67-.12-3.01-.48.9-1.53,1.76-2.33,3.37-3.42h0Zm-79.06,1.28s1.93-.01,2.9.02c0,0,.15,4.93.55,7.78l6.29.3-2.44,2.55-4.77-.15c-.84-3.54-1.47-7.08-2.52-10.5h0Zm74.96,2.98c.89-.02,3.48.66,3.48.66-.01,3.46-.48,7.28-.08,12.54-.14.18-.85.85-.81.9-.21-1.75-.39-3.88-.74-5.32-.28,2.26-.15,3.71-.15,6.28-.5.42-.96.97-1.54,1.26-.64-1.05-.34-3.17-1.26-4.37-.05,1.97.11,3.6.25,5.61-.75.83-1.43,1.58-2.47,2.25.07-3.08-.46-5.26-.94-7.18,0,0-1.52-.12-3.09-.19-2.66-.11-4.53-.48-4.53-.48l2.1-2.18s5.57.89,6.23-.02c-1.73-.3-3.85-.52-5.15-1.16.47-.84,1.06-1.34,1.76-2.06,1.88.59,6.15.64,5.79.2-1.49-.46-3.26-.62-4.39-1.39.43-.84.97-1.24,1.67-1.94,2.08.07,5.15.86,5.99.12-1.4-.58-3.55-.75-4.68-1.25.56-.78,2.58-2.27,2.58-2.27h0Zm-64.38,5.93c0-.37.37,1.37.41,3.78.05,2.98.17,3.92.17,3.92,2.57.34,4.28.11,7.15.81-.89.92-1.61,1.41-2.17,1.94-1.99-.1-3.74-.18-5.79-.09,1.15.89,3.43.6,5.01,1.26-.45.85-1.12,1.27-1.84,1.94-2.06-.13-4.79-.2-6.42.11,1.96.62,3.23.58,5.12.86.08.26-1.57,2.02-2.31,2.57-2.08.38-4.46-.19-5.35.4,1.35.16,2.93.39,3.97.97,0,.39-1.47,1.92-2.16,2.24-1.42.32-2.11.37-3.4-.37.34-4.34.34-8.56.34-13.46l.86-.61s.25,3.96.99,5.6c.27-2.13-.03-6.31-.03-6.31.57-.34,1.29-1.14,1.94-2.05,0,0,.17,3.96.75,5.37.59-1.93.54-4.76.52-6.59.79-.84,1.36-1.56,2.24-2.29h0Zm-7.87,2.48c.48-.08,3.15-.03,3.54.05-.67,1.07-2.11,2.46-3.09,3.07-.25.01-.5-2.59-.45-3.12Zm75.82,5.91l.57,4.01-4.37-.3,3.8-3.72Zm-58.92.52c.73,3.05.47,4.49.91,8.02,1.46.34,5.22-.33,7.05.73,0,0-1.05,1.36-1.86,2.16-2.04-.15-4.96-.23-6.44.22,1.44.89,3.54.16,5.22.77-.66.93-1.27,1.54-2.08,2.46-2.13-.29-4.75-.32-6.8-.05,1.01,1.07,3.82.64,5.4,1.18-.45.83-1.02,1.3-1.71,1.99-2.22-.11-4.69-.34-6.78-.02,1.69.83,5.26,1.16,5.26,1.16,0,0-1.36,1.88-2.25,2.34-2.01.05-4.31-.13-6.39.06.77,1,3.78.71,5.28,1.26-.48,1.08-1.17,1.65-2.05,2.33-1.88-.39-5.44-.39-6.29-.09,1.67.36,3.93.46,5.22,1.17-.65.99-1.37,1.6-2.38,2.3l-7.89-.71s-.4-1.41.39-5.25c.71-3.46,1.27-4.32,1.35-3.59.05,1.36.43,2.74.95,3.85.31-1.84-.32-5.44-.32-5.44.52-.77,1.15-1.64,2.14-2.58,0,0,.82,4.29,1.14,4.99.34-2.27.11-3.23-.11-5.96.75-.82,1.52-1.64,2.42-2.26,0,0,.7,4.34,1.06,5.19.11-2.34.03-4.24-.09-6.25,0,0,1.58-1.99,2.65-2.77.88,1.62.46,3.19.84,5.04.69-1.81.3-4.04.23-6.32.76-.77,1.52-1.54,2.34-2.26,0,0,.89,6.75,1.09,4.66.07-1.35-.13-2.75-.16-4.03,0-1.33.07-1.68.39-2.21.82-.99,2.26-2.11,2.26-2.11h0Zm45.58,2.6s1.76,1.51,1.76,1.94c-2.77,3.64-3.6,3.94-3.75,5.8-.61,2.32-1.45,3.74-2.73,5.91-2.78,3.33-5.4,6.38-10.27,13.41-.28,1.24-.36,2.05-1.5,2.64-.32.13-.96.53-1.43.89-1.82,1.39-2.99,3.23-3.52,5.51-.29,1.23-.46,2.34-.95,6.14-.2,1.56-.89,4.29-.89,4.29-10.47-.15-20.26,1.67-29,6.61l52.29-53.15Zm13.99,1.61l2.33,10.61-2.4-.05-.24-7.7-7.49-.72,2.77-2.48,5.03.34Zm-11.36.97c.64.66,1.44,1.37,2.02,2.09-2,6.71-8.34,15.42-14.64,24.06l-4.61-.51c-.08-.19,6.39-9.24,9.49-12.67,2.43-3.07,3.72-6.22,4.59-9.71,1.09-1.32,3.15-3.23,3.15-3.25h0Zm2.49,2.35l3.49,3.55.85,50.23c-5.38-4.24-11.72-7.37-18.48-9.76l1.18-2.7,1.3-1.4c4.6-4.99,3.57-10.36.08-14.16,4.26-6.23,8.12-10.88,11.37-16.96.04-2.93-.26-5.89.22-8.8h0Zm-41.07,9.76s.61.12,3.51.21c3.06.09,3.69.18,3.69.51-.52.76-1.06,1.24-1.74,1.92-1.98-.07-3.97-.02-5.94.02.72.79,4.94,1.04,4.94,1.04-.98,1-1.49,1.47-2.63,2.58-2.18-.12-4.27-.05-6.09.25,1.42.5,5.27.76,5.27.76,0,0-1.5,1.51-2.24,2.31-2.35-.22-4.59-.33-6.56.06,1.75.32,4.99,1.03,4.99,1.03l-2.2,2.36c-1.79-.33-3.68-.21-5.58.03,1.27.49,4.7,1.01,4.7,1.01,0,0-1.07,1.32-1.82,1.97-2.39.2-3.94-.19-6.1.41,1.36.59,3.19.2,4.74.81.23.24-2.03,2.4-2.03,2.4l-7.57-.11-.7-8.04c.63-.64,1.57-1.3,1.95-1.92.95,1.6.97,4.31,1.44,5.31.12-2.25-.1-3.91-.23-6.31,0-.42,1.72-2.23,2.06-2.17.67,1.38.21,2.82,1.25,4.69.24-2.2,0-3.49-.18-5.98.54-.81,1.45-1.69,2.1-2.12.56,2.61.26,4.69,1.22,5.45.18-2.45.03-4.15-.06-6.82.61-.69,1.34-1.38,2.05-1.91.82,1.55.39,3.83,1.33,5.09.11-2.2-.12-3.89-.3-6.27.74-.83,1.64-1.83,2.51-2.43.75,1.85.31,4.11,1.15,5.4.19-2.21-.07-4.49.19-6.48.65-1.13,2.24-2.74,2.24-2.74.3.25.99,4.76.65,7.65h0Zm40.19-6.23l.03,4.91c-1.96,4.21-6.5,10.39-11.1,17.02l-2.4-1.3c5.75-7.56,10.56-14.61,13.46-20.62h0Zm-64.4,1.86s-1.2,1.63-2.29,2.33c.03-.99.24-2.66.21-2.66l2.08.32Zm73.68,3.23l3.39,3.35.85,35.98-3.57,5.84-.67-45.16Zm4.25,4.74c3.06,7.21,6.23,13.98,9.75,19.46l-9.06,12.84-.68-32.3Zm-22.01,17.83c.91,3.86-1.07,8.02-4.32,9.3-1.13.41-1.8.44-1.8.44-.4-2.33-.22-4.57-.75-6.93-1.12,1.45-3.69,3.86-3.69,3.86,0,0-.02-3.36.03-4.93l-4.82,5s-.39-.54-.86-1.79c-1.51-4.06.49-8.24,3.55-10.25,4.73-3.19,11.79.41,12.65,5.31h0Zm55.67-2.52c-7.56,5.88-18.34,18.26-27.58,34.4l-4.07,1.72c6.42-14.53,18.68-29.96,31.56-40.56.02,1.48.06,2.96.09,4.44h0Zm-.01,1.39l.08,6.55c-6.67,6.43-12.46,13.07-17.51,21.62-2.94,1.42-8.4,4.11-8.4,4.11-.68-.17,14.86-24.43,25.82-32.29h0Zm-67.19,5.38c.33,1.66-.23,4.01-1.04,5.25-2.44,2.89-6.32,6.83-6.85,10.49-.27,1.95,1.25,3.78,2.75,3.6,4.64-.58,5.14-8.86,5.53-12.94.16-1.01.24-1.86.41-2.18.98-1.25,2.03-2.47,3.35-3.46l.57,6.33,2.62-.88c-7.38,10.06-5.26,10.69-9.15,14.81-3.62,3.83-10.63-.53-8.84-6.35,1.56-3.92,3.97-7.85,4.63-12.04.18-1.25.28-2.11.28-2.11l1.68,3.51c1.34-1.32,2.59-2.87,4.07-4.02h0Zm67.46,2.4l-.02,4.52c-3.44,3.88-6.41,6.87-9.92,12.24l-5.58,2.55c3.64-6.96,9.62-13.48,15.52-19.31h0Zm-68.2,3.98s.37,2.11-.45,5.94c-.39,1.82-2.13,7.11-4.88,5.87-2.34-2.07.51-5.91,1.95-7.73,1.11-1.3,2.31-2.71,3.38-4.07h0Zm-7.35.54l-1.52,3.27c-13.68.05-26.96,4.96-38.78,14.97l-2.99-.98c12.52-11.88,28.05-17.66,43.29-17.25Zm14.38,2.51c15.41,5.18,22.53,12.73,28.36,20.65l-2.44,1.25c-6.11-7.93-13.65-15.18-27.69-19.38l1.77-2.52Zm-17.66,4.88l-.66,2.8c-8.63.26-17.74,3.33-26.6,9.5l-3.2-.51c8.92-7.02,19.11-11.03,30.45-11.79Zm39.44,18.9l-2.74,1.3c-8.17-10.63-15.55-13.65-23.95-16.36l.9-2.36c11.28,3,19.55,8.74,25.78,17.42h0Zm-113.9-12.53v28.36l-2.01-.39v-27.43l2.01-.54Zm-4.56,1.54c-3.75,14.11-.84,17.76.51,25.99l-3.11-.5c-3.03-8.34-3.34-15.93-.78-24.78l3.38-.71Zm94.46,2.17c.23.22-.19.92-.77,1.26-.56.33-.44.28-1.33-.04-.87-.32-1.98-1.14-1.98-1.46.64.01,3.53-.02,4.08.24h0Zm2.65.2c.51.06,2,.03,2.09.5.03.28-.55.73-1.74,1.55-1.81,1.24-2.43,1.49-2.96.9-.5-.56-.36-1.14.49-1.92.83-.76,1.31-1.02,2.12-1.02h0Zm-61.91.31c1.04,0,2.9,1.29,4.02,2.78,1.14,1.78,2.44,3.62,3.5,5.42,2.4,4.1,4.25,8.27,5.8,12.53,4.06,10.13,6.44,19.96,8.42,29.72-.04.82-.75.81-1.33.61-.3-.1-.61-.3-.67-.46-.84-2.39-1.13-4.84-1.77-7.24-1.6-6-2.18-9.44-5.27-17.91-1.6-4.39-3.92-10.51-6.46-15.21-1.62-3.01-3.5-5.8-5.94-8.26-.64-.64-1.45-1.23-1.45-1.36,0-.42.41-.65,1.14-.65h0Zm65.86.33c.96.24,3.29.51,2.41,1.28-3.27,1.26-4.32,2.62-6.06,4.01-.26,0-1.29-1.28-1.29-1.6,1.4-1.73,3.17-2.47,4.95-3.7Zm-57.81,2.85c4.2,6.2,7.79,15.04,10.75,23.7,3.18,9.32,5.2,18.29,6.08,24.65-.07.2-.47.27-.92.27-.86,0-.98-.21-1.2-.89-2.19-10.52-5.13-21.38-8.69-30.6-1.91-4.91-4.08-9.85-7.13-14.8-2.08-3.06-3.26-4.66-3.17-4.9,1.34-.89,3.54,1.34,4.27,2.58h0Zm-12.72-2.65c1.84,0,4.89,2.19,6.96,5,4.39,6.03,6.9,13.08,9.51,19.92,2.99,7.84,5.15,16.55,6.44,23.4.22.98.58,1.41-.35,1.72-.68-.19-1.02-.29-1.24-.52-3.46-13.61-7.35-28.43-13.53-39.27-6.61-10.61-8.53-7.66-9.6-9.53.08-.42.82-.72,1.81-.72h0Zm15.91,2.59c5.68,9.92,8.19,16,9.91,21.99,2.62,9.08,5.72,16.32,7.08,26.92,0,0-1.49.03-2.09-.22-.25-.25-.51-1.31-.67-2.17-1.36-7.48-3.59-16.34-5.95-23.31-2.54-7.77-5.57-15.15-10.05-22.29-1.17-1.92-1.4-2.68-.68-2.71,1.28.09,1.85,1.08,2.43,1.79h0Zm59.19-1.06c.8-.06,1.52.29,1.88.85.24.37-.4.58-1.86.92-2.62.91-4.42,2.38-6.44,4-.36,0-1.21-.94-1.21-1.33,1.19-1.82,4.97-4.32,7.62-4.44h0Zm-78.29.24c4.81.15,8.57,5.75,10.55,9.53.77,1.48,1.77,3.09,2.52,4.78,3.9,8.75,7.22,19.73,8.83,26.75.78,3.37,1.68,5.85,1.36,6.51-.4.25-1.23.06-1.62-.27-.25-.21-.38-.98-.82-2.39-1.12-3.61-2.98-13.94-7.82-24.8-.11-.24-2.45-7.11-6.5-13.63-1.65-2.65-4.31-4.32-6.74-4.86-1.22-.2-1.59-.05-1.51-.72.05-.42.18-.54.83-.74.29-.09.6-.14.92-.15h0Zm30.06,22.39c-.33,0-.62-.63-.84-1.66-.11-.51-.26-.87.69-1.47,5.97-6.36.84-15.71-6.66-16.52-.7-.11-1.59-.11-1.85-.21-.38-.22-1.08-1.57-1.38-2.11,10.36-2.52,21.36,12.36,10.04,21.97h0Zm51.63-20.79c.62.16,1.96,1.41,1.79,1.68-.2.33-1.36.34-3.04.64-3.56.63-5.09,2.96-6.75,4.69-.37.11-.7-.14-1.02-.71-.24-.41-.44-.91-.44-1.11,1.85-2.71,6.81-5.44,9.46-5.19h0Zm-84.13.8c3.03,0,6.06,1.47,7.76,3.87,6.22,9.34,13.21,30.09,14.87,40.33-.17.33-1.85-.17-1.85-.17.25-.12-7.34-28.19-14.66-38.4-1.64-3.08-4.94-3.99-7.02-2.99-2.16,1.17-2.43,3.96-.79,5.2,1.36.95,3.51.8,4.3-.68.27-.52.19-1.17.01-1.34-.17-.16-.47-.11-.54.06.11,1.81-2.2,1.93-3.2,1.22-1.61-1.21-.54-5.02,3.85-3.49,1.69.89,2.26,2.58,1.46,4.37-.82,1.83-2.09,2.67-4.06,2.66-2.38-.04-5.09-1.72-5.11-4.74.01-2.25,1.05-4.12,3-5.38.72-.46,1-.54,1.98-.54h0Zm25.66,1.4c7.35.34,10.73,9.02,6.86,14.26-.99,1.25-1.61,1.02-2.03-.59-.21-.66-.44-.76.16-1.28,3.44-3.31.62-9.74-5.06-10,0,0-1.06-1.55-1.16-2.37.38-.14.89-.02,1.24-.02h0Zm61.31.6c.56.14,1.74,1.27,1.74,1.67,0,.47-.23.38-1.54.16-3.09-.55-6.19,1.24-8.78,5.16-1.25,2.35-1.41,2.13-2.07.1-.34-1.04-.34-1.02.97-2.93,2.45-3.16,6.08-4.6,9.67-4.16h0Zm2.88,3.98c2.59,2.36,1.38,7.55-2.12,8.09-3.08.36-5.82-2.99-3.88-5.26,3.43-3.49,5.95,2.22,2.96,2.72-.17.06-.3.19-.3.29,2.26.75,2.75-2.32,1.88-3.61-.72-1.07-2.14-1.67-3.4-1.19-2.07.74-4.19,3.56-5.39,7.12-.34,1-.54,1.94-.68,2.16-.3.45-.27.44-.55.27-.24-.15-.68-2.33-.68-3.16,0-.63.54-2.29,1.26-3.72,2.25-4.19,7.3-6.99,10.91-3.7h0Zm-63.05-1.05c3.01.18,5.39,4.46,4.08,7.44-.41.55-.99.92-1.26.58-.86-2.2-1.62-4.02-2.62-6.3-.48-1.03-.82-1.73-.21-1.72h0Zm-20.46,2.48c3.43,6.09,6.3,13.08,8.68,19.9,1.85,5.31,3.37,10.53,4.25,15.14.08.47.2.71,0,.91-.34.34-1.97-.5-1.97-.5-3.47-13.4-6.54-23.28-12.39-33.3-.09-.79.14-1.79.62-2.35.19-.21.45-.22.83.21h0Zm-38.47,11.51c16.22,1.09,28.75,7.95,35.45,26.05-2.38-1.35-14.63-10.64-35.45-11.87v-2.51c14.93-.12,29.63,7.67,29.32,7.56-5.55-11.48-19.45-16.14-29.32-16.44v-2.79Zm111.05,6.59c.21,2.71.28,5.79.51,8.09.28.34.84.39,1.09.09.98-2.75,1.27-6.12,2.89-8.6.36-.46.87-.32,2.34-.15,3.31.29,4.02-4.19,1.61-5.38-3.83-1.89-7.47,3.2-8.44,5.95Zm4.96-1.85c-2.36,1.95-2.43,4.76-3.15,7.34-.38,1.74-.93,2.66-1.14.03-.36-3.96.33-10.35,5.57-11.32,2.69-.5,3.52,2.26,2.74,3.54-.6.98-2.43,1.49-4.02.41h0Zm-111.73,1.17c1.17,0,2.11.95,2.11,2.12s-.95,2.12-2.11,2.12-2.11-.95-2.11-2.12.95-2.12,2.11-2.12Zm6.73,1.45c1.04,0,1.89.84,1.89,1.89s-.85,1.9-1.89,1.9-1.88-.85-1.88-1.9.84-1.89,1.88-1.89Zm6.14,2.08c.85,0,1.53.69,1.53,1.54s-.68,1.54-1.53,1.54-1.54-.69-1.54-1.54.69-1.54,1.54-1.54Zm4.36,2.77c.66,0,1.19.54,1.19,1.2s-.53,1.19-1.19,1.19-1.19-.53-1.19-1.19.54-1.2,1.19-1.2Zm-15.26,3.8c-.45,2.3-.1,4.66.43,6.29,1.2,3.51.66,9.72.66,9.72l-3.52,3.61c.25-3.29.64-6.75.46-9.52-.13-1.84-.95-3.55-1.17-5.4-.2-1.71.1-5.12.1-5.12l3.04.43Zm5.53,1.06v14.97l-11.77,11.71v-3.09l10.06-10.22v-13.88l1.71.5Zm29.9,34.15l-.79,1.29h13.6l.29-1.29h-13.09Zm17.6,0l-.32,1.29h6.29l.21-1.29s-3.31,0-6.18,0Zm10.31,0l-.2,1.29h23.37l-.35-1.29h-22.82Zm27.31,0l.37,1.29h6.22l-.51-1.29h-6.08Zm10.41,0l.45,1.29h10.7l-.89-1.29h-10.26Z"/>
  </g>
</svg>