<?xml version="1.0" encoding="UTF-8"?>
<svg id="uuid-e6962b7a-641d-49f3-8f93-37f5f1a61ab4" data-name="Cards" xmlns="http://www.w3.org/2000/svg" viewBox="0 0 250 350">
  <defs>
    <style>
      .uuid-5f6da676-d962-4578-9392-c02b593dab28, .uuid-be63da3e-0034-421e-89a4-aa11bb189aa3 {
        stroke-width: 0px;
      }

      .uuid-be63da3e-0034-421e-89a4-aa11bb189aa3 {
        fill: #fff;
      }
    </style>
  </defs>
  <g id="uuid-2a2816b1-2455-43a4-aec2-50feae1f90e1" data-name="CLUB-4">
    <path id="uuid-cd842a77-8920-4f4e-8f09-76c9b5df8dc0" data-name="rect6355-6-85-3-72-9" class="uuid-be63da3e-0034-421e-89a4-aa11bb189aa3" d="m11.93,0h226.08c6.6,0,11.96,5.36,11.96,11.97v326.06c0,6.61-5.35,11.97-11.96,11.97H11.93c-6.6,0-11.96-5.36-11.96-11.97V11.97C-.03,5.36,5.32,0,11.93,0Z"/>
    <path id="uuid-c8df4a3c-966b-4684-98c8-094b9d7e5ac2" data-name="path147-0-8-1-6-13-2-06-7" class="uuid-5f6da676-d962-4578-9392-c02b593dab28" d="m182.94,37.17c-11,.24-15.93,12.63-7.78,22.25,1.18,1.4,1.3,2.21-.86.86-5.48-3.67-16-1.26-16.53,9.96-.67,13.82,18.63,17.81,22.26,3.11.19-1.55,1.45-1.52,1.15.69-.33,5.98-2.19,11.56-4.76,17.01h13.07c-2.56-5.45-4.43-11.03-4.76-17.01-.3-2.2.96-2.24,1.15-.69,3.62,14.7,22.92,10.72,22.26-3.11-.54-11.22-11.05-13.63-16.53-9.96-2.16,1.35-2.04.54-.86-.86,8.14-9.62,3.21-22.02-7.78-22.25,0,0,0,0-.01,0h0Z"/>
    <path id="uuid-99afa375-8681-42cf-88e5-9cd572b5650a" data-name="path147-0-8-1-6-75-2-83-35-3" class="uuid-5f6da676-d962-4578-9392-c02b593dab28" d="m66.99,37.17c-11,.24-15.93,12.63-7.78,22.25,1.18,1.4,1.3,2.21-.86.86-5.48-3.67-16-1.26-16.53,9.96-.66,13.82,18.63,17.81,22.26,3.11.19-1.55,1.45-1.52,1.15.69-.33,5.98-2.19,11.56-4.76,17.01h13.07c-2.56-5.45-4.43-11.03-4.76-17.01-.3-2.2.96-2.24,1.15-.69,3.62,14.7,22.92,10.72,22.26-3.11-.54-11.22-11.05-13.63-16.53-9.96-2.16,1.35-2.04.54-.86-.86,8.14-9.62,3.21-22.02-7.78-22.25,0,0,0,0-.01,0h0Z"/>
    <path id="uuid-c902a90f-b0a9-4e65-9ecd-a727c416daea" data-name="path147-0-8-1-6-7-5-5-7-77-6" class="uuid-5f6da676-d962-4578-9392-c02b593dab28" d="m182.94,313.77c-11-.24-15.93-12.63-7.78-22.25,1.18-1.4,1.3-2.21-.86-.86-5.48,3.67-16,1.26-16.53-9.96-.67-13.82,18.63-17.81,22.26-3.11.19,1.55,1.45,1.52,1.15-.69-.33-5.98-2.19-11.56-4.76-17.01h13.07c-2.56,5.45-4.43,11.03-4.76,17.01-.3,2.2.96,2.24,1.15.69,3.62-14.7,22.92-10.72,22.26,3.11-.54,11.22-11.05,13.63-16.53,9.96-2.16-1.35-2.04-.54-.86.86,8.14,9.62,3.21,22.02-7.78,22.25,0,0,0,0-.01,0h0Z"/>
    <path id="uuid-d6c0224d-6a2c-41e4-8e11-930246fd3e35" data-name="path147-0-8-1-6-75-6-1-2-08-0" class="uuid-5f6da676-d962-4578-9392-c02b593dab28" d="m66.99,313.77c-11-.24-15.93-12.63-7.78-22.25,1.18-1.4,1.3-2.21-.86-.86-5.48,3.67-16,1.26-16.53-9.96-.66-13.82,18.63-17.81,22.26-3.11.19,1.55,1.45,1.52,1.15-.69-.33-5.98-2.19-11.56-4.76-17.01h13.07c-2.56,5.45-4.43,11.03-4.76,17.01-.3,2.2.96,2.24,1.15.69,3.62-14.7,22.92-10.72,22.26,3.11-.54,11.22-11.05,13.63-16.53,9.96-2.16-1.35-2.04-.54-.86.86,8.14,9.62,3.21,22.02-7.78,22.25,0,0,0,0-.01,0h0Z"/>
    <path id="uuid-ce334fcd-4629-4edb-a300-cb4550461778" data-name="path147-6-9-8-7-0-5-6-17-9" class="uuid-5f6da676-d962-4578-9392-c02b593dab28" d="m230.69,293.91c4.4-.1,6.37-5.26,3.11-9.27-.47-.58-.52-.92.34-.36,2.19,1.53,6.4.52,6.61-4.15.27-5.76-7.45-7.42-8.9-1.29-.08.65-.58.63-.46-.29.13-2.49.88-4.82,1.9-7.09h-5.23c1.02,2.27,1.77,4.6,1.9,7.09.12.92-.38.93-.46.29-1.45-6.13-9.17-4.47-8.9,1.29.22,4.67,4.42,5.68,6.61,4.15.87-.56.82-.23.34.36-3.26,4.01-1.29,9.17,3.11,9.27,0,0,0,0,0,0h0Z"/>
    <path id="uuid-fddccff5-52b5-4571-a802-1b8afa33fdaa" data-name="path147-6-9-8-7-4-5-62-79-3" class="uuid-5f6da676-d962-4578-9392-c02b593dab28" d="m19.25,56.1c-4.4.1-6.37,5.26-3.11,9.27.47.58.52.92-.34.36-2.19-1.53-6.4-.52-6.61,4.15-.27,5.76,7.45,7.42,8.9,1.29.08-.65.58-.63.46.29-.13,2.49-.88,4.82-1.9,7.09h5.23c-1.02-2.27-1.77-4.6-1.9-7.09-.12-.92.38-.93.46-.29,1.45,6.13,9.17,4.47,8.9-1.29-.22-4.67-4.42-5.68-6.61-4.15-.87.56-.82.23-.34-.36,3.26-4.01,1.29-9.17-3.11-9.27,0,0,0,0,0,0h0Z"/>
    <path id="uuid-946d6971-e9bb-4313-b972-7f856581d2ae" data-name="path19-0-7-3" class="uuid-5f6da676-d962-4578-9392-c02b593dab28" d="m19.51,52.57v-3.27h2.95v-5.4H7.72v-3.81l15.94-24.56h2.6v24.56h4.51v3.81h-4.51l-.09,5.4h2.47v3.28h-9.14,0Zm2.95-28.05l-10.12,15.57h10.12v-15.57Z"/>
    <path id="uuid-5dfe1276-d79b-4bc7-a94a-1a6b04b7bbe8" data-name="path19-4-4-9-1" class="uuid-5f6da676-d962-4578-9392-c02b593dab28" d="m230.42,297.43v3.27h-2.95v5.4h14.74v3.81l-15.94,24.56h-2.6v-24.56h-4.51v-3.81h4.51l.09-5.4h-2.47v-3.28h9.14,0Zm-2.95,28.05l10.12-15.57h-10.12v15.57Z"/>
  </g>
</svg>