<?xml version="1.0" encoding="UTF-8"?>
<svg id="uuid-92bea80a-de3a-4326-a6e4-60182271d777" data-name="Cards" xmlns="http://www.w3.org/2000/svg" viewBox="0 0 250 350">
  <defs>
    <style>
      .uuid-c2a1c203-4208-446d-8f7d-f271574fd11e, .uuid-63232faa-bf3e-48e2-b4d7-d3a82b9f6f4c {
        stroke-width: 0px;
      }

      .uuid-63232faa-bf3e-48e2-b4d7-d3a82b9f6f4c {
        fill: #fff;
      }
    </style>
  </defs>
  <g id="uuid-7a627a28-f2d9-49d3-8983-fd4c3fa6705f" data-name="CLUB-9">
    <path id="uuid-eb229384-92d5-43fa-8655-4fca5311fb42" data-name="rect6355-6-85-3-78-4-6" class="uuid-63232faa-bf3e-48e2-b4d7-d3a82b9f6f4c" d="m11.88,0h226.08c6.6,0,11.96,5.36,11.96,11.97v326.06c0,6.61-5.35,11.97-11.96,11.97H11.88c-6.6,0-11.96-5.36-11.96-11.97V11.97C-.07,5.36,5.28,0,11.88,0Z"/>
    <path id="uuid-606b77ca-a661-4aaa-b425-693b82391122" data-name="path147-0-8-1-6-13-2-9-8-8" class="uuid-c2a1c203-4208-446d-8f7d-f271574fd11e" d="m182.89,37.16c-11,.24-15.93,12.63-7.78,22.25,1.18,1.4,1.3,2.21-.86.86-5.48-3.67-16-1.26-16.53,9.96-.66,13.82,18.63,17.81,22.26,3.11.19-1.55,1.45-1.52,1.15.69-.33,5.98-2.19,11.56-4.76,17.01h13.07c-2.56-5.45-4.43-11.03-4.76-17.01-.3-2.2.96-2.24,1.15-.69,3.62,14.7,22.92,10.72,22.26-3.11-.54-11.22-11.05-13.63-16.53-9.96-2.16,1.35-2.04.54-.86-.86,8.14-9.62,3.21-22.02-7.78-22.25,0,0,0,0-.01,0h0Z"/>
    <path id="uuid-79358b3e-ee0d-4a57-8afa-da9f0b9f92e5" data-name="path147-0-8-1-6-75-2-83-3-5-0" class="uuid-c2a1c203-4208-446d-8f7d-f271574fd11e" d="m66.95,37.16c-11,.24-15.93,12.63-7.78,22.25,1.18,1.4,1.3,2.21-.86.86-5.48-3.67-16-1.26-16.53,9.96-.66,13.82,18.63,17.81,22.26,3.11.19-1.55,1.45-1.52,1.15.69-.33,5.98-2.19,11.56-4.76,17.01h13.07c-2.56-5.45-4.43-11.03-4.76-17.01-.3-2.2.96-2.24,1.15-.69,3.62,14.7,22.92,10.72,22.26-3.11-.54-11.22-11.05-13.63-16.53-9.96-2.16,1.35-2.04.54-.86-.86,8.14-9.62,3.21-22.02-7.78-22.25,0,0,0,0-.01,0h0Z"/>
    <path id="uuid-b1dd253c-e4db-4539-8707-46bc0cc22519" data-name="path147-0-8-1-6-7-5-5-7-63-0-4" class="uuid-c2a1c203-4208-446d-8f7d-f271574fd11e" d="m182.89,313.76c-11-.24-15.93-12.63-7.78-22.25,1.18-1.4,1.3-2.21-.86-.86-5.48,3.67-16,1.26-16.53-9.96-.66-13.82,18.63-17.81,22.26-3.11.19,1.55,1.45,1.52,1.15-.69-.33-5.98-2.19-11.56-4.76-17.01h13.07c-2.56,5.45-4.43,11.03-4.76,17.01-.3,2.2.96,2.24,1.15.69,3.62-14.7,22.92-10.72,22.26,3.11-.54,11.22-11.05,13.63-16.53,9.96-2.16-1.35-2.04-.54-.86.86,8.14,9.62,3.21,22.02-7.78,22.25,0,0,0,0-.01,0h0Z"/>
    <path id="uuid-b641b610-ae0a-4071-849c-df1a87204982" data-name="path147-0-8-1-6-75-6-1-2-46-5-0" class="uuid-c2a1c203-4208-446d-8f7d-f271574fd11e" d="m66.95,313.76c-11-.24-15.93-12.63-7.78-22.25,1.18-1.4,1.3-2.21-.86-.86-5.48,3.67-16,1.26-16.53-9.96-.66-13.82,18.63-17.81,22.26-3.11.19,1.55,1.45,1.52,1.15-.69-.33-5.98-2.19-11.56-4.76-17.01h13.07c-2.56,5.45-4.43,11.03-4.76,17.01-.3,2.2.96,2.24,1.15.69,3.62-14.7,22.92-10.72,22.26,3.11-.54,11.22-11.05,13.63-16.53,9.96-2.16-1.35-2.04-.54-.86.86,8.14,9.62,3.21,22.02-7.78,22.25,0,0,0,0-.01,0h0Z"/>
    <path id="uuid-066d0292-05fa-4625-bcc9-9e6f19e24f89" data-name="path147-0-8-1-6-1-1-0-5-61-2-0" class="uuid-c2a1c203-4208-446d-8f7d-f271574fd11e" d="m124.92,148.52c-11,.24-15.93,12.63-7.78,22.25,1.18,1.4,1.3,2.21-.86.86-5.48-3.67-16-1.26-16.53,9.96-.66,13.82,18.63,17.81,22.26,3.11.19-1.55,1.45-1.52,1.15.69-.33,5.98-2.19,11.56-4.76,17.01h13.07c-2.56-5.45-4.43-11.03-4.76-17.01-.3-2.2.96-2.24,1.15-.69,3.62,14.7,22.92,10.72,22.26-3.11-.54-11.22-11.05-13.63-16.53-9.96-2.16,1.35-2.04.54-.86-.86,8.14-9.62,3.21-22.02-7.78-22.25,0,0,0,0-.01,0h0Z"/>
    <path id="uuid-73b5bddd-dc3c-4c67-8d98-2071220e53e5" data-name="path147-6-9-8-7-0-5-6-5-2-8" class="uuid-c2a1c203-4208-446d-8f7d-f271574fd11e" d="m230.64,293.9c4.4-.1,6.37-5.26,3.11-9.27-.47-.58-.52-.92.34-.36,2.19,1.53,6.4.52,6.61-4.15.27-5.76-7.45-7.42-8.9-1.29-.08.65-.58.63-.46-.29.13-2.49.88-4.82,1.9-7.09h-5.23c1.02,2.27,1.77,4.6,1.9,7.09.12.92-.38.93-.46.29-1.45-6.13-9.17-4.47-8.9,1.29.22,4.68,4.42,5.68,6.61,4.15.87-.56.82-.23.34.36-3.26,4.01-1.29,9.17,3.11,9.27h0Z"/>
    <path id="uuid-9dec7eab-d159-43f5-bd6b-926120c8dfee" data-name="path147-0-8-1-6-75-2-9-77-4-4-2" class="uuid-c2a1c203-4208-446d-8f7d-f271574fd11e" d="m66.95,111.4c-11,.24-15.93,12.63-7.78,22.25,1.18,1.4,1.3,2.21-.86.86-5.48-3.67-16-1.26-16.53,9.96-.67,13.82,18.63,17.81,22.26,3.11.19-1.55,1.45-1.52,1.15.69-.33,5.98-2.19,11.56-4.76,17.01h13.07c-2.56-5.45-4.43-11.03-4.76-17.01-.3-2.2.96-2.24,1.15-.69,3.62,14.7,22.92,10.72,22.26-3.11-.54-11.22-11.05-13.63-16.53-9.96-2.16,1.35-2.04.54-.86-.86,8.14-9.62,3.21-22.02-7.78-22.25,0,0,0,0-.01,0h0Z"/>
    <path id="uuid-e0e44107-e16a-4f1a-9941-0892ae5ffba6" data-name="path147-0-8-1-6-75-2-8-0-6-4-4" class="uuid-c2a1c203-4208-446d-8f7d-f271574fd11e" d="m66.95,239.52c-11-.24-15.93-12.63-7.78-22.25,1.18-1.4,1.3-2.21-.86-.86-5.48,3.67-16,1.26-16.53-9.96-.66-13.82,18.63-17.81,22.26-3.11.19,1.55,1.45,1.52,1.15-.69-.33-5.98-2.19-11.56-4.76-17.01h13.07c-2.56,5.45-4.43,11.03-4.76,17.01-.3,2.2.96,2.24,1.15.69,3.62-14.7,22.92-10.72,22.26,3.11-.54,11.22-11.05,13.63-16.53,9.96-2.16-1.35-2.04-.54-.86.86,8.14,9.62,3.21,22.02-7.78,22.25,0,0,0,0-.01,0h0Z"/>
    <path id="uuid-af3e35ba-7cd7-411c-889d-d1fbaa1792cf" data-name="path147-0-8-1-6-75-2-9-7-1-36-2-4" class="uuid-c2a1c203-4208-446d-8f7d-f271574fd11e" d="m182.89,111.4c-11,.24-15.93,12.63-7.78,22.25,1.18,1.4,1.3,2.21-.86.86-5.48-3.67-16-1.26-16.53,9.96-.66,13.82,18.63,17.81,22.26,3.11.19-1.55,1.45-1.52,1.15.69-.33,5.98-2.19,11.56-4.76,17.01h13.07c-2.56-5.45-4.43-11.03-4.76-17.01-.3-2.2.96-2.24,1.15-.69,3.62,14.7,22.92,10.72,22.26-3.11-.54-11.22-11.05-13.63-16.53-9.96-2.16,1.35-2.04.54-.86-.86,8.14-9.62,3.21-22.02-7.78-22.25,0,0,0,0-.01,0h0Z"/>
    <path id="uuid-e97cb209-76f2-4c7b-9305-f56111e40902" data-name="path147-0-8-1-6-75-2-8-5-1-55-5-4" class="uuid-c2a1c203-4208-446d-8f7d-f271574fd11e" d="m182.89,239.52c-11-.24-15.93-12.63-7.78-22.25,1.18-1.4,1.3-2.21-.86-.86-5.48,3.67-16,1.26-16.53-9.96-.66-13.82,18.63-17.81,22.26-3.11.19,1.55,1.45,1.52,1.15-.69-.33-5.98-2.19-11.56-4.76-17.01h13.07c-2.56,5.45-4.43,11.03-4.76,17.01-.3,2.2.96,2.24,1.15.69,3.62-14.7,22.92-10.72,22.26,3.11-.54,11.22-11.05,13.63-16.53,9.96-2.16-1.35-2.04-.54-.86.86,8.14,9.62,3.21,22.02-7.78,22.25,0,0,0,0-.01,0h0Z"/>
    <path id="uuid-4026c762-e983-4d5a-9b25-18537344809a" data-name="path147-6-9-8-7-4-5-62-7-8-4" class="uuid-c2a1c203-4208-446d-8f7d-f271574fd11e" d="m19.21,56.09c-4.4.1-6.37,5.26-3.11,9.27.47.58.52.92-.34.36-2.19-1.53-6.4-.52-6.61,4.15-.27,5.76,7.45,7.42,8.9,1.29.08-.65.58-.63.46.29-.13,2.49-.88,4.82-1.9,7.09h5.23c-1.02-2.27-1.77-4.6-1.9-7.09-.12-.92.38-.93.46-.29,1.45,6.13,9.17,4.47,8.9-1.29-.22-4.68-4.42-5.68-6.61-4.15-.87.56-.82.23-.34-.36,3.26-4.01,1.29-9.17-3.11-9.27h0Z"/>
    <path id="uuid-7d8e1b78-228a-441d-8571-dba257c11152" data-name="path29-2-3-4" class="uuid-c2a1c203-4208-446d-8f7d-f271574fd11e" d="m8.88,45.43l3.38-1.07c1.28,3.42,3.85,4.43,6.58,4.21,4.89-.39,6.52-5.87,6.88-10.72-1.91,2.03-4.77,3.06-7.21,2.95-7.8-.42-9.8-6.68-9.87-13.23-.21-5.52,2.06-9.52,5.97-11.36,2.07-.93,6.81-.93,8.89.17,4.78,2.53,6.55,6.89,6.23,17.32,0,8.58-1.82,18.57-10.99,18.79-5.3.73-9.32-3.4-9.87-7.05h0Zm13.28-9.4c1.59-1.01,2.49-1.96,3.2-3.38.58-1.17.79-1.77.62-4.18-.43-6.22-3.68-9.75-8.4-9.05-2.63.4-4.07,1.87-4.9,4.62-1.52,5.08.41,11.01,4.03,12.38,1.63.62,4.15.44,5.45-.39Z"/>
    <path id="uuid-28dbd033-0782-45bd-9085-ebc80ad66d20" data-name="path29-6-1-3-7" class="uuid-c2a1c203-4208-446d-8f7d-f271574fd11e" d="m240.96,304.56l-3.38,1.07c-1.28-3.42-3.85-4.43-6.58-4.21-4.89.39-6.52,5.87-6.88,10.72,1.91-2.03,4.77-3.06,7.21-2.95,7.8.42,9.8,6.68,9.87,13.23.21,5.52-2.06,9.52-5.97,11.36-2.07.93-6.81.93-8.89-.17-4.78-2.53-6.55-6.89-6.23-17.32,0-8.58,1.82-18.57,10.99-18.79,5.3-.73,9.32,3.4,9.87,7.05h0Zm-13.28,9.4c-1.59,1.01-2.49,1.96-3.2,3.38-.58,1.17-.79,1.77-.62,4.18.43,6.22,3.68,9.75,8.4,9.05,2.63-.4,4.07-1.87,4.9-4.62,1.53-5.08-.41-11.01-4.03-12.38-1.63-.62-4.15-.44-5.45.39Z"/>
  </g>
</svg>