<?xml version="1.0" encoding="UTF-8"?>
<svg id="uuid-012eaa13-6bd8-46ab-adf8-41dd8e63f52c" data-name="Cards" xmlns="http://www.w3.org/2000/svg" viewBox="0 0 250 350">
  <defs>
    <style>
      .uuid-338b31bb-fe02-4428-98eb-15c3ac6273db, .uuid-3fbe46b2-dedd-487b-8380-af6f5965edc4 {
        stroke-width: 0px;
      }

      .uuid-3fbe46b2-dedd-487b-8380-af6f5965edc4 {
        fill: #fff;
      }
    </style>
  </defs>
  <g id="uuid-d3b4b4b5-04c4-4317-9218-3f6d6dbac7d1" data-name="CLUB-3">
    <g id="uuid-2ea5b7f5-3d06-4c56-833e-73a9bea155e0" data-name="layer1-33-1-4-5-7">
      <path id="uuid-af43b02e-64ae-4ac5-b4b9-2d1366dda1aa" data-name="rect6355-6-85-2-7-5" class="uuid-3fbe46b2-dedd-487b-8380-af6f5965edc4" d="m11.94.01h226.08c6.6,0,11.96,5.36,11.96,11.97v326.05c0,6.61-5.35,11.97-11.96,11.97H11.94c-6.6,0-11.96-5.36-11.96-11.97V11.98C-.02,5.37,5.33.01,11.94.01Z"/>
    </g>
    <path id="uuid-a157f546-90e5-4691-9baf-bdf666d2feda" data-name="path147-0-8-1-6-7-2-5-9-2" class="uuid-338b31bb-fe02-4428-98eb-15c3ac6273db" d="m124.97,37.18c-11,.24-15.93,12.63-7.78,22.25,1.18,1.4,1.3,2.21-.86.86-5.48-3.67-16-1.26-16.53,9.96-.66,13.82,18.63,17.81,22.26,3.11.19-1.55,1.45-1.52,1.15.69-.33,5.98-2.19,11.56-4.76,17.01h13.07c-2.56-5.45-4.43-11.03-4.76-17.01-.3-2.2.96-2.24,1.15-.69,3.62,14.7,22.92,10.72,22.26-3.11-.54-11.22-11.05-13.63-16.53-9.96-2.16,1.35-2.04.54-.86-.86,8.14-9.62,3.21-22.02-7.78-22.25,0,0,0,0-.01,0h0Z"/>
    <path id="uuid-7b501ed4-86f0-4fda-9684-243f50c736d6" data-name="path147-0-8-1-6-1-4-3-4-3" class="uuid-338b31bb-fe02-4428-98eb-15c3ac6273db" d="m124.97,313.77c-11-.24-15.93-12.63-7.78-22.25,1.18-1.4,1.3-2.21-.86-.86-5.48,3.67-16,1.26-16.53-9.96-.66-13.82,18.63-17.81,22.26-3.11.19,1.55,1.45,1.52,1.15-.69-.33-5.98-2.19-11.56-4.76-17.01h13.07c-2.56,5.45-4.43,11.03-4.76,17.01-.3,2.2.96,2.24,1.15.69,3.62-14.7,22.92-10.72,22.26,3.11-.54,11.22-11.05,13.63-16.53,9.96-2.16-1.35-2.04-.54-.86.86,8.14,9.62,3.21,22.02-7.78,22.25,0,0,0,0-.01,0h0Z"/>
    <path id="uuid-b7bb4718-7dea-476f-b622-f99535adc9d3" data-name="path147-0-8-1-6-1-1-0-4-8-8" class="uuid-338b31bb-fe02-4428-98eb-15c3ac6273db" d="m124.97,148.53c-11,.24-15.93,12.63-7.78,22.25,1.18,1.4,1.3,2.21-.86.86-5.48-3.67-16-1.26-16.53,9.96-.66,13.82,18.63,17.81,22.26,3.11.19-1.55,1.45-1.52,1.15.69-.33,5.98-2.19,11.56-4.76,17.01h13.07c-2.56-5.45-4.43-11.03-4.76-17.01-.3-2.2.96-2.24,1.15-.69,3.62,14.7,22.92,10.72,22.26-3.11-.54-11.22-11.05-13.63-16.53-9.96-2.16,1.35-2.04.54-.86-.86,8.14-9.62,3.21-22.02-7.78-22.25,0,0,0,0-.01,0h0Z"/>
    <path id="uuid-74b6d159-aad1-4bc3-99b4-6f2c445680fd" data-name="path147-6-9-8-7-0-5-5-1-4" class="uuid-338b31bb-fe02-4428-98eb-15c3ac6273db" d="m230.69,293.91c4.4-.1,6.37-5.26,3.11-9.27-.47-.58-.52-.92.34-.36,2.19,1.53,6.4.52,6.61-4.15.27-5.76-7.45-7.42-8.9-1.29-.08.65-.58.63-.46-.29.13-2.49.88-4.82,1.9-7.09h-5.23c1.02,2.27,1.77,4.6,1.9,7.09.12.92-.38.93-.46.29-1.45-6.13-9.17-4.47-8.9,1.29.22,4.67,4.42,5.68,6.61,4.15.87-.56.82-.23.34.36-3.26,4.01-1.29,9.17,3.11,9.27,0,0,0,0,0,0h0Z"/>
    <path id="uuid-ec3f0306-c09a-4e83-aafc-4b8461cc9b95" data-name="path147-6-9-8-7-4-5-8-2-3" class="uuid-338b31bb-fe02-4428-98eb-15c3ac6273db" d="m19.26,56.1c-4.4.1-6.37,5.26-3.11,9.27.47.58.52.92-.34.36-2.19-1.53-6.4-.52-6.61,4.15-.27,5.76,7.45,7.42,8.9,1.29.08-.65.58-.63.46.29-.13,2.49-.88,4.82-1.9,7.09h5.23c-1.02-2.27-1.77-4.6-1.9-7.09-.12-.92.38-.93.46-.29,1.45,6.13,9.17,4.47,8.9-1.29-.22-4.67-4.42-5.68-6.61-4.15-.87.56-.82.23-.34-.36,3.26-4.01,1.29-9.17-3.11-9.27,0,0,0,0,0,0h0Z"/>
    <path id="uuid-557157d2-f02c-4b4e-b503-2b43da288a39" data-name="path17-9-7-6-4" class="uuid-338b31bb-fe02-4428-98eb-15c3ac6273db" d="m7.26,44.46l2.85-2.1c2.47,4.03,5.23,6.68,9.46,6.23,6.34-.44,8.96-7.1,7.64-12.11-1.28-4.5-6.53-6.69-10.7-4.29-.98.57-1.94,1.03-2.12,1.03-.44,0-1.43-1.98-1.29-2.58,2.8-4.1,9.6-11.28,9.6-11.28h-10.62v4.81h-4.08v-8.63h20.77v2.93s-5.56,5.78-7.4,8.95c4.53.17,8.18,3.04,9.49,7.59.76,2.39.42,7.87-.58,10.23-1.67,3.93-6.24,7.13-10.41,7.31-7.01.47-10.73-4.45-12.58-8.09h0Z"/>
    <path id="uuid-5bba7a7b-1362-49fe-9aad-a82743083b4a" data-name="path17-5-0-1-5-7" class="uuid-338b31bb-fe02-4428-98eb-15c3ac6273db" d="m242.68,305.55l-2.85,2.1c-2.47-4.03-5.23-6.68-9.46-6.23-6.34.44-8.96,7.1-7.64,12.11,1.28,4.5,6.53,6.69,10.7,4.29.98-.57,1.94-1.03,2.12-1.03.44,0,1.43,1.98,1.29,2.58-2.8,4.1-9.6,11.28-9.6,11.28h10.62v-4.81h4.08v8.63h-20.77v-2.93s5.56-5.78,7.4-8.95c-4.53-.17-8.18-3.04-9.49-7.59-.76-2.39-.42-7.87.58-10.23,1.67-3.93,6.24-7.13,10.41-7.31,7.01-.47,10.73,4.45,12.58,8.09h0Z"/>
  </g>
</svg>