<?xml version="1.0" encoding="UTF-8"?>
<svg id="uuid-7b98bc84-ca45-4d13-a8ad-7e7222be7e66" data-name="Cards" xmlns="http://www.w3.org/2000/svg" viewBox="0 0 250 350">
  <defs>
    <style>
      .uuid-46d916f0-3426-4d53-8f6b-b8af8fecf82d, .uuid-1891bba4-edee-4f36-b116-de46c3dd2ce7, .uuid-5bfc8f98-1d00-4cce-ab37-88e582445078, .uuid-6ea123ea-84d3-4069-abbf-f8d3678dd0e8, .uuid-807ee504-2d9f-4c0c-aae6-e95384bf9cbf {
        stroke-width: 0px;
      }

      .uuid-1891bba4-edee-4f36-b116-de46c3dd2ce7 {
        fill: #c8102e;
      }

      .uuid-5bfc8f98-1d00-4cce-ab37-88e582445078 {
        fill: #fff;
      }

      .uuid-6ea123ea-84d3-4069-abbf-f8d3678dd0e8 {
        fill: #ffcd00;
      }

      .uuid-807ee504-2d9f-4c0c-aae6-e95384bf9cbf {
        fill: #004c97;
      }
    </style>
  </defs>
  <g id="uuid-0913abdb-faab-452c-a29a-6de00a07f47d" data-name="CLUB-12-QUEEN">
    <path id="uuid-1498688a-4d37-41c5-888a-cdfb54e51868" data-name="rect6355-6-85-3-5-0-1" class="uuid-5bfc8f98-1d00-4cce-ab37-88e582445078" d="m11.85-.01h226.08c6.6,0,11.96,5.36,11.96,11.97v326.06c0,6.61-5.35,11.97-11.96,11.97H11.85c-6.6,0-11.96-5.36-11.96-11.97V11.96C-.11,5.35,5.25-.01,11.85-.01Z"/>
    <path id="uuid-598f1ee2-fe65-4161-81b9-0d1c9da4e757" data-name="path147-6-9-8-7-0-5-6-46-4-5" class="uuid-46d916f0-3426-4d53-8f6b-b8af8fecf82d" d="m230.61,293.9c4.4-.1,6.37-5.26,3.11-9.27-.47-.58-.52-.92.34-.36,2.19,1.53,6.4.52,6.61-4.15.27-5.76-7.45-7.42-8.9-1.29-.08.65-.58.63-.46-.29.13-2.49.88-4.82,1.9-7.09h-5.23c1.02,2.27,1.77,4.6,1.9,7.09.12.92-.38.93-.46.29-1.45-6.13-9.17-4.47-8.9,1.29.22,4.68,4.42,5.68,6.61,4.15.87-.56.82-.23.34.36-3.26,4.01-1.29,9.17,3.11,9.27h0Z"/>
    <path id="uuid-a159bff5-3488-49cb-b791-0f9d6d951ed7" data-name="path147-6-9-8-7-4-5-62-9-4-5" class="uuid-46d916f0-3426-4d53-8f6b-b8af8fecf82d" d="m19.17,56.08c-4.4.1-6.37,5.26-3.11,9.27.47.58.52.92-.34.36-2.19-1.53-6.4-.52-6.61,4.15-.27,5.76,7.45,7.42,8.9,1.29.08-.65.58-.63.46.29-.13,2.49-.88,4.82-1.9,7.09h5.23c-1.02-2.27-1.77-4.6-1.9-7.09-.12-.92.38-.93.46-.29,1.45,6.13,9.17,4.47,8.9-1.29-.22-4.68-4.42-5.68-6.61-4.15-.87.56-.82.23-.34-.36,3.26-4.01,1.29-9.17-3.11-9.27,0,0,0,0,0,0h0Z"/>
    <path id="uuid-285a8b5f-2c16-4e98-a54a-226c4d944647" data-name="path37-5-2-4" class="uuid-46d916f0-3426-4d53-8f6b-b8af8fecf82d" d="m11.03,40.31h-3.09v-4.22h3.09s.02-2.27.11-6.29c.19-8.55.4-9.88,2.87-12.23,4.88-4.65,13.04-.86,12.95,6.13-.14,9.87-.04,19.28-.33,20.61-.51,2.35-.56,2.48-.35,2.91.43.86,4.12,1.23,4.12.99v4.16c-2.82.22-3.99-.05-6.24-1.66-1.41,1.36-5.69,2.73-9.1,1.12-2.59-1.22-4.56-4.38-4.03-11.53h0Zm10.44,7.37c-1.53-2.22-4.11-5.24-6.53-6.32-.15,2.55.07,4.69.96,5.84,1.42,1.83,3.72,2.25,5.57.48h0Zm1.27-24.38c-1.14-3.22-4.05-4.32-6.19-2.3-1.33,1.26-1.55,2.58-1.58,9.75-.02,4.43-.02,6.29-.02,6.29,4.15,1.35,8.03,6.2,8,6.14l.1-13.39c.08-2.17-.03-4.35-.32-6.49h0Z"/>
    <path id="uuid-a1ce5e9a-8db2-479e-879b-40fc232a71a9" data-name="path37-3-2-7-4" class="uuid-46d916f0-3426-4d53-8f6b-b8af8fecf82d" d="m238.75,309.67h3.09v4.22h-3.09s-.02,2.27-.11,6.29c-.19,8.55-.4,9.88-2.87,12.23-4.88,4.65-13.04.86-12.95-6.13.14-9.87.04-19.28.33-20.61.51-2.35.56-2.48.35-2.91-.43-.86-4.12-1.23-4.12-.99v-4.16c2.82-.22,3.99.05,6.24,1.66,1.41-1.36,5.69-2.73,9.1-1.12,2.59,1.22,4.56,4.38,4.03,11.53h0Zm-10.44-7.37c1.53,2.22,4.11,5.24,6.53,6.32.15-2.55-.07-4.69-.96-5.84-1.42-1.83-3.72-2.25-5.57-.48h0Zm-1.27,24.38c1.14,3.22,4.05,4.32,6.19,2.3,1.33-1.26,1.55-2.58,1.58-9.75.02-4.43.02-6.29.02-6.29-4.15-1.35-8.03-6.2-8-6.14l-.1,13.39c-.08,2.17.03,4.35.32,6.49h0Z"/>
    <g id="uuid-c1ff020b-8dda-44f0-93de-6928b56c1063" data-name="g5457-6-3-6">
      <g id="uuid-c72c988d-c55a-46c0-b3d3-41b6c022099d" data-name="g3405-1-0-4">
        <path id="uuid-faae905b-4588-4014-99a9-a45659ca7fc4" data-name="path3391-4-8-9-0" class="uuid-1891bba4-edee-4f36-b116-de46c3dd2ce7" d="m133.7,320.96c.62-9.16.09-19,.5-26.46-.28-.53.73-1.97.79-1.97-.6-1.11-.81-3.95-.04-6.46,5.97-22.85,16.77-40.63,27.9-57.21,9.05,27.4-19.37,46.63-25.35,70.58-1.99,8.29-1.69,14.08-2.46,21.57l-1.34-.04Zm-47.25.35l-33.81-52.49,7.34-3.59,34.75,55.9-8.28.18Zm43.73-97.24c.3,1.51,1.48,2.32,2.73,1.63,1.23-.68,1.37-.72.6.47-1.69,2.62,1.73,5.16,3.92,2.91.78-.8.91-2.1.2-2.76-.8-.75-.97-1.13.21-.56,2.96,1.2,4.59-3.1,1.72-4.54-.74-.37-2.18-.04-2.72.53-.65.69-.75.44-.57-.09.1-.31.18-.83.42-1.43.19-.48.33-1.13.33-1.13l-3.02.03s.24.7.49,1.28c.23.55.32.96.43,1.19.41.83-.08.52-.9-.09-1.15-.86-2.6-.62-3.42.51-.3.67-.56,1.36-.43,2.06Zm4.37-42.71l6.5-.19c1.87,6.92,4.04,13.65,7.15,19.82-5.72,9.54-7.26,20.31-.61,31.22l-20.61.03c5.57-16.58,7.36-34.22,7.57-50.88Zm6.8,25.79c.87-.78.98-2.21.19-3.15-1-1.19-.77-1.25.57-.47,1.93,1.12,3.79-1.31,2.64-3.45-.73-1.36-3.07-1.67-3.97-.45-.75,1.01-.66.09-.09-1.26.21-.49.51-1.42.51-1.42l-3.15.07s.41.9.62,1.47c.57,1.53.6,2.01-.29,1.03-1.92-1.62-4.18-.45-4.2,1.88.02,1.79,1.64,2.94,3.05,2.11.86-.51,1.25-.63.28.54-.67,1.11-.43,2.53.45,3.2,1.21.73,2.5.69,3.37-.08Zm-43.54,6.18c.25-.19.35-.06.19.19-.13.22-.47.52-.76.85-1.47,1.64.43,3.73,2.8,3.41,1.61-.22,2.56-2.77,1.37-3.78-.39-.26-.69-.31-.98-.66-.02-.14.04-.24.19-.18.21.09.64.44.86.5,1.5.41,2.63-.21,3.01-1.28.24-1.23,0-2.55-.99-3.24-.93-.63-2.3-.45-3.11.62-.82,1.09-.93.05-.26-1.46.25-.57.42-1.37.42-1.37l-2.9.15s.15.63.41,1.35c.64,1.64,1.1,2.12.28,1.27-3.54-2.09-4.71.75-4.77,1.89-.11,2.13,2.98,3.34,4.24,1.75h0Zm14.16-32.15l5.23.02c-3.94,21.05-12.01,38.69-25.6,50.82l-25.56-.08-12.32-8.66,4.76-6.21c32.45,3.36,46.27-12.81,53.5-35.9Zm-23.52,48.8c1.53-.68,2.17-2.42,1.15-3.59-.91-1.06-1.01-1.39.4-.56,1.88,1.1,3.7-1.1,2.78-3.25-.57-1.34-2.38-1.75-3.68-.84-1.14.86-1.12.47-.52-.88.3-.67.52-1.74.52-1.74l-3.2.05s.23.76.46,1.29c.53,1.2.73,1.76.48,1.76-.12,0-.52-.37-.75-.58-.64-.59-2.38-.7-3.03-.08-1.92,1.84-.84,5.05,1.6,4.46,1.57-.38,1.94-.98.63.5-1.61,1.83.88,4.47,3.16,3.46Zm-20.2-.64c1.32-.63,1.77-2.16,1.03-3.15-.75-1-1.12-1.64.21-.74,1.76.89,3.31-.29,3.28-2.31s-2.38-3.1-4.12-1.83c-.29.21-.65.41-.72.41-.21,0,.17-1.14.6-1.89.18-.32.51-.99.51-.99l-3.2-.12s.18.88.43,1.55c.51,1.37.64,1.83-.26,1.05-2.41-2.26-4.98.62-3.96,3.11.54,1.4,2.18,1.4,3.15.7.88-.69.43.22-.17.95-1.65,1.97.77,4.42,3.23,3.26Zm146.27-52.78l.17,3.89-41.39,34.67-1.74-2.67,42.96-35.89Zm-153.95,7.29c5.96-4.26,12.59-11.91,19.13-15.9,4.78,11.04-6.43,21.86-19.13,15.9Zm108.81-2.03c-4.21-23.34,20.74-18.48,19.42-16.39l-19.42,16.39Zm-133.99-14.28l40.97-33.57,1.86,2.82-43.23,35.59.39-4.84Zm112.24-33.86c.12.35,1.35,1.69,1.36,1.81-.35-.27-2.46-1.45-3.49-.3-.36.42-.82,1.43-.77,2.47.43,1.87,2.55,2.53,4.05,1.25.43-.37.81-.82.89-.66.08.14-.16.78-.35,1.29-.22.52-1.05,1.62-.45,1.62h2.91s-.11-.69-.46-1.45c-.65-1.42-.62-2.19.16-1.16,1.53,1.99,4.49.33,4.18-2.05-.22-1.72-1.96-2.7-3.23-1.88-.14.09-.55.5-.61.5-.16,0,.27-.65.55-1.19.94-1.81-.46-3.48-2.61-3.3-.69.06-1.45.5-1.45.56-.81.65-.94,1.78-.7,2.5Zm35.38-16.84c4.1,3.79,8.2,6.57,12.3,8.99l-3.87,6.14c-26.22-2.44-45.28,7.98-53.24,36.22l-4.06-.09c1.63-17.62,7.24-34.16,24.6-51.24l24.26-.03Zm-25.13,4.22c0,.84,1.53,1.83,1.19,2.06-.16.08-1.06-.71-1.48-.76-3.03-.32-3.65,4.41-.65,4.94.59.1,1.81-.26,2.17-.56.48-.4.81-.72.91-.69.18.07-.23.91-.56,1.54-.31.58-.73,1.79-.73,1.79l3.44.02s-.31-1.06-.62-1.81c-.4-.96-.48-1.57-.21-1.51.11.03.24.33.49.54,1.49,1.29,3.68.74,4.25-1.27.54-1.89-1.71-3.83-3.28-2.78-.55.37-.55.09,0-.74.5-.76.38-1.9-.08-2.58-1.64-1.75-4.91-.5-4.83,1.82Zm24.71,5.6c-.08-.42.02-.3.46.16,1.38,1.44,3.76,1.22,4.36-.69.6-1.91-1.24-4.09-2.85-3.34-.84.39-.85.25-.37-.37,1.23-1.61-.13-3.74-2.24-3.71-1.93.02-3.07,1.89-2.13,3.5.39.66.26.8-.42.47-1.98-.96-3.82,2.18-2.37,4.05.85,1.1,2.82,1.21,3.95.12.6-.58.59-.3.16.9-.38,1.04-.8,1.89-.8,1.89l3.42.03s-.91-1.74-1.17-2.99Zm-73.25,42.25c1-.26-3.51-14.61-6.82-21.01,3.66-8.53,8.52-15.75.26-30.88l21.04-.06c-6.17,17.16-8.16,51.9-8.17,51.89l-6.31.06Zm1.85-16.62s-1.04-1.44-1.1-2.6c-.13-.75.07-.79.45-.03,1.87,2.08,4.41.07,4.42-1.77.22-1.69-1.75-3.13-3.01-2.29-.88.59-1.12.42-.34-.68,1.11-1.55-.1-3.56-2.08-3.54-2.58.03-3.57,2.45-1.72,4.18,1.37,1.28.09.52-.99.07-2.11-.89-3.5,1.27-2.55,3.46.65,1.51,2.58,1.9,3.7.68.62-.67,1.19-1.06.85-.05-.18.82-1.12,2.55-1.12,2.55l3.48.02Zm3.26-22.77s-1.25-1.57-1.46-2.75c-.07-.43.23-.32.94.29,2.26,1.95,5.37-1.55,3.26-3.69-.73-.74-1.46-.95-2.31-.5-1.06.55-.97.29-.44-.29.77-.84.72-2.38-.12-3.12-2.3-2.06-5.94,1.01-3.81,3.21.93.96.49.83-.54.22-1.94-1.17-4.08,2.03-2.63,3.9,1.73,1.47,3.02.74,4.21-.18.26-.14.48-.2.48-.09,0,.21-1.19,3.04-1.19,3.04l3.59-.04Zm-27.69-8.66c-6.1-19.83,9.71-39.04,19.37-53.84,10.2-14.69,8.93-39.09,9.36-38.11l1.45.17s-1.12,14.3-.49,20.76c.66,5.68.51,6.04.11,6.6-.11.53.05,2.08-.06,2.61-2.82,12.31-13.52,42.04-29.74,61.81Zm104.93-36.94l-34.43-54.93,8.27-.39c3.07,4.89,32.98,51.51,32.98,51.51l-6.82,3.8Z"/>
        <path id="uuid-e7c4fdd5-3839-45f5-ae4b-fffe2526ffe4" data-name="path3395-8-0-1-6" class="uuid-6ea123ea-84d3-4069-abbf-f8d3678dd0e8" d="m49.89,322.28c3.92-14.43-6.69-47.98-13.32-52.36,7.77-.33,17.13-.48,16.83-.92,0,0,33.06,52.26,32.79,52.54-.25.26-36.3.74-36.3.74h0Zm134-81.85c-8.01-1.14-4.85-7.83.3-8.52-.67.11.55-3.32,4.71-4.71.94-1.72,1.68-4.66,2.55-6.02-2.49.81-5.52,2.93-16.83,1.26.99-5.39,11.81-6.31,15.71-5.47,2.25.53,4.48,3.9,5.16,3.97,6.95-1.16,15.79,5.15,13.11,11.56-.41.91-1.47-1.09-3.81-1.94-7.56-2.75-8.09-6.87-9.83-8.71-.63-.12-3.97,6.53-3.97,6.53l1.04,4.52c1.81-.17,9.87,4.84-.16,8.23-2.77,9.61-8,2.83-7.98-.69h0Zm18.99-42.9c-.43-.44.34-3.43,1.35-5.15.55-.93,1.82-1.55,2.56-1.42,1.33.23,1.12,2.17-.64,7.85-.07.82-1.87.9-3.28-1.28Zm-159.56-39.73c-2.2,0-.23-6.02,1.13-7.92.44-.59,2.2.67,2.29,1.54.16,1.56-2.22,7-3.41,6.38Zm-1.56-40.86c2.68.65,6.92,3.37,8.94,4.86,2.52,1.89,1.83,5.59,3.84,5.92,1.36-.68,3.85-6.75,3.85-6.75,0,0,.63-3.12-1.15-4.08-4.41-2.39-4.34-4.97-4.05-5.2,1.31-3.41,3.91-2.8,5.32-2.99.03-1.87-.03-5.81,3.81-5.4,3.36.32,3.69,5.15,2.28,5.19-.03-.08,6.36-.92,6.3,3.31-.03,2.3-3.82,5.23-5,4.17,0,0,.63,4.58-5.09,6.14-1.34,1.37-2.43,7.18-2.43,6.67,3.45-3.13,8.85-3.86,17.38-2.74-5.28,9.84-19.89,5.24-21.03,3.33-7.35-2.23-14.24-5.13-12.99-12.43Zm62.91-23.59l23.23-.29c-.09.79,7.31,4.16,13.7.5,1.23-.71,25.97-.31,25.97-.31,5.61,8.33,15.81,23.48,15.81,23.48l-23.36.55c-19.82,16.15-22.34,34.23-27.13,52.06l8.63.09c13.88-40,48.12-39.84,69.67-22.76l-22.16,18.13c-17.17-8.71-24.53,16.95-19.32,17.02l44.63-36.67s.76,2.99.69,3.09c-3.18,4.19-56.39,47.6-56.39,47.6l-2.34-2.59-3.03,2.58s1.21,2.23,2.29,3.34c-10.54,8.5-10.89,24.1-3.12,32.61l-3.81.31c-1.41,1.8-11.07-18.19-.23-31.05-4.38-8.63-7.08-20.37-7.63-20.92.12,1.38-6.91.92-6.91.92-.54,17.54-2.36,34.74-6.55,51.31l32.29.7-13.75,23.98s-15.43-.39-22.07-.85c-6.94-4.06-10.94-.97-17.45.53-9.27.27-22.91-.16-22.91-.03-4.63-9.23-9.6-16.03-16.36-23.94-.86-1.44,27.43-.55,27.43-.55,0,0,14.14-21.5,16.72-27.57,2.01-4.74,6.52-21.99,6.52-21.99.21.9-2.57-4.49-9.03-4.36-5.35,35.73-47.59,47.76-73.01,24.77l-.24-4.15,56.01-45.66,2.49,2.89c-.54-.43-34.39,27.88-33.82,27.7,10.03,5.28,21.64,1.01,20.29-16.32,7.95-5.78,14.99-12.5,21.91-19.37.15-.27,7.72,17.08,7.54,20.41,4.36-1.47,6.94,1.61,6.85,1.09-1.57-10.03,7.17-48.06,7.34-52.43-4.85-.39-11.29-.21-21.39-.62,8.11,15.77,5.29,26.46-6.04,36.18l-2.37-2.99c.96.54,16.56-13.02,4-33.28-.57.05-6.62-.55-6.62-.55l13.01-22.55Zm60.18-65.19s35.35-.85,35.36.19c-1.13,19.09,3.3,36.5,13.98,52.6,0,0-15.66-.56-15.37-.36l-33.97-52.43Z"/>
        <path id="uuid-81877cc3-0a43-46b8-b013-fcfb22e93a65" data-name="path3393-8-5-4-3" class="uuid-807ee504-2d9f-4c0c-aae6-e95384bf9cbf" d="m33.07,26.82v296.34h183.67V26.82H33.07Zm166.4,1.29s-2.37,31.36,13.92,51.91c-9.95-1.52-15.65.02-21.44,4.13l.79.82c7.98-4.93,14.75-3.63,21.68-2.86v40.37c-.05,1.96-8.3,1.09-13.38-2.76-3.38-2.24-5.76-5.02-7.92-8.21-.47-.54-3.37-5.97-8.7-16.26-2.71-5.23-6.29-12.37-9.2-17.9-1.88-3.58-5.38-10.34-5.63-10.88-.51-1.12-4.33-8.6-5.81-11.32-3.92-7.18-10.24-19.71-12.5-24.2-.5-1.17-1.26-1.82.1-1.78.3,0,.6-.04.78,0,.24.12.53-.23.53-.23l46.78-.83Zm-84.11.7l1.66.19c-.07,3.35-.57,5.84-.7,10.3-.2,4.77-.12,8.4.38,13.06.25,2.29.4,3.77.01,4.07-.18.15-.35.94-.18,1.23-.03.64-.11,1.91-.11,1.91-2.56,12.62-16.32,44.97-29,60.75-.21.08-.45.16-.71.24-1.37-6.15-.59-14.36,1.03-20.53,2.36-8.57,6.76-15.45,11.65-22.36,11.2-15.78,16.15-27.67,15.95-48.86h0Zm-79.75.27h78.64c.44,10.85-.87,20.09-4.75,29.75-4.59,10.41-11.72,18.15-17.17,27.73-6.59,11.57-8.69,23.57-6.45,35.63-6.73,8.85-12.4,13.1-17.78,17.21,0,0-4.03-4.26-6.27-6.65,0,0,.95-.08,2.05-.12,5.11-.58,10.64-1.31,12.78-6.65.3-.59.18-.86-.19-.94-4,.56-7.48,0-9.75.15-5.55.39-7.9,2.33-7.9,2.33.85-1.82,1.71-3.85,2.27-5.5,2.52.03,3.76-.92,4.66-2.07,1.28-.04,2.26-.03,4-.08-.06-1.73.02-4.18.02-4.18,1.77-1.83,2.96-3.94.23-7.17,0,0-.11-1.5-.15-4.07-1.26-.2-4.09-.07-4.09-.07-2.29-3.23-6.34-2.42-7.57,0,0,0-1.82.1-3.07.11-.03.68-.24,3.71-.24,3.71,0,0-5.33,3.65.2,7.96l-.07,3.62c1.03.08,1.78.01,3.13.27,0,0-2.12,4.94-3.51,7.28-.48.13-.36-.15-.94-1.79-.69-1.93-2.26-4.04-3.58-5.08-1.8-1.39-4.26-1.83-5.98-3.04-1.66-1.17-2.82-2.68-3.35-2.4-.17.59-.36,3.96.26,6.12.88,3.56,5.98,5.83,10.24,7.54.33.21.62.54.62.65.01.59-.56.41-1.96.27-2.11-.21-2.99.37-3.73,2.18-.22.45-.75,1.22-1.17,1.73-.43.51-.87,1.01-.94,1.22-.06.22-.5,1.32-.94,2.24-.27.57-.71,1.16-.75,2-.1,2.55-.14,5.98.25,8.14.28,1.59,2.28,2.5,2.96,2.63,1.06.2,1.25,1.27,1.08,2.15-.81,4.34-3.3,7-4.09,5.57-.21-.37-.43-2.15-.49-2.13-.04.01-.42,1.51-.27,2.12.16.65.99,1.13,1.81.84,1.22-.44,2.17-1.65,2.93-4.41.31-1.13.6-1.75,1.12-1.84.96.07,2.46,2.05,2.46,2.05-4.99,4.18-14.56,11.76-14.56,11.76V29.07Zm165.67,0h13.15v49.94c-9.68-13.67-14.68-29.37-13.15-49.94Zm-61.94.03c.32,0,.63.03.91.05,2.06,3.9,7.1,7.67,7.08,7.65,0,0,.13,1.7-.06,2-.11.52-8-6.04-8.88-9.65.31-.05.63-.05.94-.05h0Zm-21.07,0c.52,0,1.45-.01,1.7,0,.34.54-1.02,3.99-1.85,4.55-.79.53-.85-.09-.28-3.14.09-.48.14-1.23.43-1.41h0Zm3.67,0c.69.03.8-.01,1.49,0,.33.84-1.56,4.84-3.91,7.86-1.22,1.57-1.83,2.02-2.21,1.65-.32-.71-.31-1.54.81-2.84.93-1.07,2.5-3.58,3.15-4.99.17-.51.35-1.42.68-1.67Zm3.23,0c.62.01.96-.01,1.33,0,.53,2.15-4.35,10.98-7.91,13.35-1.27.84-1.35.62-1.25-.79.07-.95.16-.87,1.46-2.12,1.85-1.78,3.88-4.53,4.99-6.96,1.14-2.5,1.17-3.29,1.37-3.47h0Zm16.65,0c.77,0,1.25,0,1.8,0,.97.99,2.56,2.42,2.91,3.55.21.7.37,1.49.22,1.87-.85.53-5.09-4.84-4.93-5.42Zm6.85,0c.12,0,.23,0,.33,0,1.75,2.07,2.9,5.53,4.4,8.11.19.33,1.56,2.48.44,1.67-.46-.38-1.29-1.33-2.62-2.84-3.13-3.58-3.23-3.36-3.17-4.25.03-.94-.51-2.4.22-2.67.14-.02.28-.02.4-.02h0Zm-20.8.04c.63-.02,1.2,0,1.83,0,.16.28-.05,1.24-.21,1.81-1.61,4.57-5.61,11.16-10.3,14.9-1.83,1.41-2.14,1.41-2.27-.06-.08-.85.31-1.1,1.17-1.69,3.98-2.78,7.56-7.59,9.08-12.51.29-.96.18-2.15.7-2.44h0Zm4.24,0c.36-.01,1.06.02,1.4,0,1.85,3.42,5.68,11.48,14.67,14.61.65.14,1.34,1.99.84,2.5-4.93-1.44-13.87-6.62-16.91-17.11h0Zm3.19,0h1.61c2.26,4.63,6.52,9.17,10.87,11.41.64.36.34,1.27.55,1.91-4.89-.73-11.31-8.23-13.03-13.32Zm-4.21.72c-.29.05,4.27,13.45,17.21,17.38,1.12.35,1.78.84,1.71,1.51-.09.84-.06.95-1.31.32-3.54-1.86-8.58-2.73-12.79-.58-.66.34-1.32,1.25-.8,1.83.3.29,1.05.08,1.99-.29,4.9-1.92,12.41-.79,13.73,2.22.94,2.14,1.1,3.72.59,3.98-.39.2-1.06-.52-2.23-1.55-3.73-3.29-8.19-4.2-11.74-1.04-.77.68-1.53.56-1.79.85-.26.27.05.89.27,1.49.23.63.24.8.01,1.33-.31.73-.32,1.65-.29,2.34.08,1.68,1.19,3.14,4.38,5.36,1.77,1.23,3.04,1.55,3.04,1.55,0,0-.77-.6-1.64-1.31-5.22-4.25-6.17-5.98-2.78-4.51,3.38,1.37,8.07,0,11.38-2.55,1.13-.02,1.8-.22,2.4.22,2.47,5.84,4.5,13.61,7.79,21.14-3.93,4.46-17.61,15.39-27.36,15-8.42-.34-11.39-14.19-13.26-21.85-.63-3.24-1.34-6.54-1.26-11.11,0,0,.15-.12.37-.08,1.41.27,3.84.45,5.08.16,2.24-.53,2.69-.93,2.82-.6.15.39-.78,1.27-2.41,2.39-.71.49-2.81,1.73-2.81,1.73,2.02-.69,3.58-1.27,5.19-2.42,0,0-.74,3.33-.87,3.67-1.33,3.32-1.2,3.62,1.39,5.67.9.71,1.73,1.42,1.93,1.73.21.5.51.93.78,1.39,0,0-.13-1-.34-2.22-.3-1.12-1.39-2.23-2.17-2.77-1.42-.99-1.2-1.96-.02-5.34,3.46-9.95,2.58-14.38-1.23-16.54-1.72-.97-6.53-.71-8.05.56-.75.63-.64-.6-.53-.69,9.14-6.31,11.28-12.57,13.62-18.38h0Zm17.64,5.1c2.59,2.59,5.82,6.1,7.77,8.6,1.07,1.33,1.63,2.7,2.48,4.1.16.25.32.54.21.66-.04.05-.41-.17-.62-.32-1.9-1.44-9.75-10.43-9.75-10.43-.36-1.48-.62-1.98-.08-2.62h0Zm.99,5.78c.16-.03.43.21.56.32,0,0,6.8,7.46,10.7,11.13.77,1.62,2.24,3.95,2.2,4.34-.02.17-.83-.46-.83-.46-4.31-3.99-8.28-8.47-12.42-12.71.04.02-.33-1.76-.33-2.48.02-.09.07-.13.12-.14h0Zm1.35,5.6c.75.29,1.25,1.12,1.74,1.64,2.4,2.59,6.98,7.03,12.24,12.2.92,1.5,1.58,2.84,2.02,3.72.73,1.39.48,1.43-.16.92-4.87-4-8.94-8.88-13.53-13.34-.6-.62-1.78-1.98-1.78-1.98.04.05-1.49-3.22-.53-3.15h0Zm-28.48,3.18c2.01-.06,3.98.46,4.98,1.7.91,1.13,1.28,2.91.77,3.42-.31.32-1.43-.59-1.43-.59-4.73-2.67-6.35-1.38-8.92-.6-.37.11-.75-.88-.29-1.86.94-1.63,3.33-2.03,4.88-2.07Zm29.74,2.52c5.06,5.09,10.19,10.75,15.67,15.14.77.66,1.29,1.08,1.64,1.43.72,1.44,2.39,4.86,2.39,4.86-5.86-4.12-19.07-18.32-18.93-18.23.13.07-1.11-2.6-.77-3.2h0Zm-9.9.85c.92,0,1.94.28,2.73.6,2.55,1.02,4.15,2.1,1.51,1.74-3.67-.5-4.93-.53-6.27-.31-2.5.4-2.69.68-2.91.28-.57-1.05,2.17-2.28,4.94-2.31Zm-20.84.3c.92,0,1.92.2,2.9.63,3.11,1.37,3.66,2.26,1.01,1.83-1.38-.22-3.9-.2-5.71.27-.57.15-1.21.48-1.35.53-.64.21-.82-.28-.54-1.08.47-1.39,1.94-2.16,3.69-2.18Zm22.55,3.99l.64.05c-.8,4.57-5.35,4.13-6.57.2h.64c2.39,3.74,4.18,1.53,5.28-.25h0Zm2.53.24c2.1-.02,1.96,1.24-.22,2.09-1.68.65-1.86.53-1.25-.73.59-1.21.53-1.36,1.47-1.37h0Zm-22.24.16h.61c.2,4.12-5.51,4.87-5.86.38l.54-.02c1.87,3.53,4.03,1.4,4.71-.36h0Zm2.76.4c.13.02.26.07.39.16.65.44.24,1.05-1.16,1.91-1.27.79-1.59-.17-.55-1.49.49-.41.93-.64,1.32-.58h0Zm10.29.15c.25-.08.84,1.03.34,1.3-.3.16-.75-.3-.8-.63-.04-.27.13-.56.46-.67Zm17.1.26c3.81,4.22,7.65,8.46,18.87,17.64,0,0,1.59,2.83,1.93,3.94-.27.34-.42.3-1.2-.09-7.32-5.68-14.12-12.58-19.45-19-.25-.91-.82-1.78-.15-2.49Zm-36.28.4c.09.01.15.08.17.08.4.2.76.99.48,1.47-.28.22-.71-.12-.9-.39-.19-.27-.19-.76-.06-.97.11-.18.22-.22.31-.2h0Zm-.95.69c1.7,14.05,4.17,34.9,16.13,35.72,3.92.27,8.46-2.43,9.2-1.98l24.85-.2c5.1,10.38,10.57,17.07,17.06,24.18,9,5.43,21.75,8.95,29.48,6.84-4.92,3.9-10.59,2.79-16.84,1.12-.35-.09-.72-.2-1.08-.33l-4.71,7.13c-10.5-2.5-44.2-.73-53.09,36.1,0,0,.91.47.7.21,7.06-31.97,36.86-38.34,51.07-35.15l-1.22,1.87c-23.58-2.9-42.78,11.92-47.35,32.94l.45.41c8.85-31.78,46.04-43.53,69.1-21.51l4.23-3.01-.14,4.07-56.69,47.74-2.27-2.36c-.96.73-1.85,1.52-2.76,2.44,0,0,2.28,2.67,2.35,2.84-9.4,7.7-12.41,22.57-3.45,32.95.97,1.12.81,1.4.63.16-8.02-8.77-7-24.27,3-31.62l2.01,2.65c-4.32,9.71-6.59,24.85,4.82,26.16,4.15,11.16-.62,24.39-5.95,33.26-5.64,10.21-12.48,18.7-16.75,29.83-2.07,4.64-5.37,18.41-5.2,28.93h-1.24s.55-27.18.55-27.18c0,0,.73-1.08.76-1.19-.76-1.41-.73-2.75-.23-4.2-2.49-8.76-2.69-24.49-10.73-31.72-3.94-3.4-9.17-3.54-15.95-.75-14.95.03-12.74.8-24.81.11-5-9.19-11.06-18.15-17.61-24.79-3.06-3.43-7.34-5.29-11.35-7.78,1.61-3.06,3.44-5.32,5.44-6.78.41-.59.7-1.23,1.23-1.73,40.72,3.93,49.55-35.7,47.69-34.69l-.36.31c-11.13,40.84-50.93,39.27-70.85,21.61-2.25,2.26-2.84-.26-2.92-2.38l57.06-46.74,2.58,2.59,2.5-2.31-2.05-3.68c14.95-15.56,8.21-22.51,3.41-33.17.13-.56-6.38-.34-6.38-.34,4.04-6.06,7.49-12.29,10.87-18.54,5.24-9.46,12.51-26.03,14.79-38.04h0Zm38.82,5.17c-.03-.15,17.72,17.94,20,17.59,1.06.63,3.7,5.77,3.7,5.77.08.16.06.46-.36.25-3-1.49-15.55-11.96-21.96-19.74-.47-1.13-1.04-2.58-1.37-3.86Zm-20.68,1.66c-1.3.12-.97.74-.42,1,3.1,1.5,1.76,4.59-1.5,2.62-2.57-1.57-4.61-1.71-4.6-.35.01.58.71,1.31,1.39,1.31,1.27.08,2.43.55,3.68.82,1.95.42,3.41-.1,3.9-1.29.83-2.02-1.14-4.22-2.44-4.11Zm23.7,5.81c.13,0,.27.07.39.13-.22-.19,8.83,9.77,21.16,17.99.48.56,1.67,3.43,1.86,3.81-.05.27-.32,0-.32,0-6.23-3.62-14.45-10.79-22.23-18.93,0,0-.75-1.81-.98-2.98.04-.02.08-.03.13-.03h0Zm-20.15,3.71c-.28.04-.66.46-1.12.72-.95.52-1.25.66-3.58-.04-1.26-.38-1.47-.35-2.22.21-.66.49-1.02.57-1.76.24-1.32-.6-1.94-.16-3.17.27-1.17.42-1.57-.09-2.62-.33-.14,0-.2,4.26-.06,4.4.05.05,1.09-.64,1.68-.95,1.02-.52.87-.44,2.36-.38,2.2.38,4.37.25,5.84-.33,1.83-.52,3.26-.42,4.53.62.77.63,1.79.53,1.19-.64-.21-.4-.67-1.88-.61-2.43.08-.82-.1-1.35-.4-1.37-.02,0-.03,0-.05,0h0Zm22.83,3.05c.19-.05.49.2.62.27,4.16,4.01,9.3,10.13,21.37,17.23.63,1.11,1.48,2.58,2.02,3.73.05.32-.03.6-.34.49-7.46-4.75-11.61-7.06-21.95-17.31-.64-1.04-1.33-2.81-1.86-4.25.03-.1.08-.15.14-.17Zm-1.14,1.8l4.62,8.71-15.55-.03c3.95-2.37,7.72-5.52,10.93-8.68h0Zm-25.45.1c-.09.01-.2.04-.33.09-2.55,1.02-2.94,1.23-5.47.61-1.48-.36-1.07.5-.32.86,1.91.9,4.68.26,5.7-.45.59-.38,1.02-1.2.41-1.12h0Zm-2.95,2.79c-2.67.04-5.2.97-5.38,2.07-.04.21.18.45.6.2,1.81-1.1,6.31-1.45,9.71-.22.55.2.65-.14.08-.62-1.27-1.06-3.17-1.45-5-1.43h0Zm33.56,3.48c.13.03.29.18.37.24,5.03,4.67,9.89,8.96,20.72,15.21.78,1.71,1.91,3.76,2.11,3.93-10.15-4.95-21.22-14.73-21.22-14.73,0,0-1.74-3.12-2.14-4.45-.01-.11.01-.17.05-.2.03-.02.07-.02.11-.01h0Zm3.84,7.52s9.27,7.88,19.83,13.23c.43.41,1.49,2.95,1.84,3.22.35.27-.42.27-1.18-.12-5.53-2.56-17.39-10.75-17.39-10.75-1.14-1.87-2.77-3.82-3.1-5.57h0Zm4.72,8.14c1.62,1.26,15.38,9.9,17.92,10.1,0,0,1.21,1.37,2.22,2.62.93,1.16,1.28,1.34,1.39,1.58.11.23-.35.22-.43.21-6.19-2.7-12.48-5.55-17.83-10.04-.72-.62-.88-.9-1.24-1.37-.47-.63-1.87-2.87-2.02-3.1h0Zm-112.42.24c1.92.19,3.87,2.17,3.86,5.11,8.62.73,4.55,8.74-.46,7.52,1.99,4.55-3.98,6.26-4.82,5.49-.34,1.47-2.61,6.21-3.09,7.62,6.39-4.55,16.66-2.53,18.15-2.82-3.71,7.8-15.84,5.9-16.25,5.58,0,0-6.42-3.07-6.9-3.15-8.31-2.67-10.77-4.24-11.33-12.05.04-.29.15-.28.43-.07.72.5,3.52,2.33,4.55,2.84,4.73,2.24,6.09,4.67,7.52,8.47.34.37.62.34,1.05.01,1.83-2.38,2.68-4.36,3.53-6.91.11-.28.35-.58.21-.99-.33-1.13-1.15-2.58-.32-3.69-2.67.12-5.23-1.84-4.9-3.81.71-3.64,2.25-2.99,5.13-3.52-.17-4.21,1.71-5.81,3.63-5.62h0Zm116.98,6.73c6.29,3.55,11.64,7,17.37,8.85.82.31,1.24.33,1.64.62.41.29,2.15,1.37,2.57,1.62,2.62,1.54,2.88,1.47,2.23,1.73-.72.29-5.31-1.06-9.19-2.5-6.88-2.56-9.32-4.01-11.81-6.26-.56-.58-3.18-3.73-2.82-4.05Zm-86.03,7.31l4.3.07c6.71,8.21,8.54,22.71-3.18,31.91-1.6-1.86-3.06-3.81-4.49-5.8,9.47-7.93,6.59-15.85-.24-23.78l3.61-2.4Zm-39.39,12.5c.53-.01,1.38.32,2.26,1,.95.73,3.27,2.25,4.22,2.67.49.21.64.27.64.27l6.19,7.06-15.93,13.01s-1.29-1.33-1.7-1.77c-.39-.42-.28-.77.21-1.25.39-.38.42-1.21.35-1.62-.1-.6-.08-1.28.68-1.85.61-.45.71-1.25.68-1.47-.02-.18.33-.76.87-1.15,1.12-.82,1.46-1.82,1.08-2.99-.16-.49-.24-.62.4-1.05,1.45-.92,1.6-1.77,1.45-3.1-.22-1.18.82-.88,1.67.6.47.81.6,2.14.83,3.65.27,1.78.46,2.27.56,2.02.55-1.44-.1-6.84-1.74-7.58-2.39-1.07-4.39-3.26-3.79-4.12.21-.3.24-.2,1.7.48.85.4,1.64.72,1.76.72,1.69.05.66-.67.11-.75-.66-.09-2.63-1.3-2.87-1.72-.38-.7-.17-1.06.36-1.07h0Zm-4.07.93c1.56-.02,1.86.4,1.87,1.75.01.79.3,1.41,1.54,2.99.51.65.84,1.14.81,1.39-.05.42-.2-.02-1.92-.22-.61-.07-.92-.08-1.13.24-.59.88-1.84-.04-2.61-1.33-1.83-3.09-1.19-4.79,1.44-4.81Zm29.66,1.86l16.93,20.83-1.91,1.49-17-20.54,1.98-1.77Zm-2.83,1.28l1.81,3.08s-5.25,4.51-6.63,5.78c-11.15,9.07-36.31,29.67-36.31,29.67l-.34-4.14,41.47-34.38Zm-30.57.56c.33,0,.71.43,1.24,1.25.46.71,1.46,2.14,2.53,3.13,2.06,1.91,2.26,1.74.59,1.92-.67.07-.88,0-1.29,1.01-1.23,1.54-4.86-3.98-4.01-6.09.33-.82.61-1.23.94-1.22h0Zm6.04,2.99c.38.03.74.25,1.05.37.9.37.96.59.81,1.45-.14.83-.77,1.04-2-.05-.82-.78-.8-1.54-.25-1.74.13-.04.26-.04.39-.03h0Zm26.9.49l1.99,2.58-45.1,36.7v-4.22c1.1.14,30.01-25.15,43.11-35.06Zm-35.02.42c.12-.03.31.39.81,1.15,1.02,1.54,1.96,2.56,3.02,3.37,1.01.76,1.12,1.19.43,1.2-.3,0-.7.31-.91.68-.43.74-.46.56-1.12.18-.94-.56-1.95-1.38-2.27-2.49-.41-1.42-.46-3,.04-4.08Zm7.13,2.93c1.15-.04,1.98,1.31,1.22,2.39-.42.41-.81.61-1.65.11-1.11-.66-1.31-1.67-.4-2.24.28-.18.57-.26.83-.27h0Zm-7.41,2.91c.24-.01.68.34,1.41,1.09.56.58,1.54,1.07,1.93,1.29.87.49.92.66.44,1.05-.2.17-.87.18-1.05.71-.52,1.52-2.71-.25-2.92-2.42-.11-1.1-.12-1.71.2-1.73h0Zm5.52.18c1.44.06,2.12,1.75.97,2.58-.63.45-2.2-.35-2.36-1.18-.1-.53.84-1.43,1.39-1.4Zm33.68,1.26c.84,0,1.51.68,1.51,1.52s-.68,1.52-1.51,1.52-1.51-.68-1.51-1.52.68-1.52,1.51-1.52Zm-4.52.63c.84,0,1.51.68,1.51,1.52s-.68,1.52-1.51,1.52-1.51-.68-1.51-1.52.68-1.52,1.51-1.52Zm-30,2.03c1.39.01,1.46,1.4.64,2.11-.49.43-.94.56-1.58.05-.87-.7-.83-1.55-.15-1.94.39-.26.7-.22,1.09-.22h0Zm30.54,2.13l-2.43,6.15-6.55.89,2.43-6.15,6.55-.89Zm2.83.09c.84,0,1.51.68,1.51,1.52,0,.84-.68,1.52-1.51,1.52s-1.52-.68-1.52-1.52.68-1.52,1.52-1.52Zm132.78.09v3.84l-53.36,44.64-1.81-2.37,55.17-46.11Zm-125.12.11l1.7,2.2-55.22,45.24v-3.17l53.51-44.27Zm93.86,3.66c-13.41-.11-27.53,10.36-20.57,33.62l7.03-5.66c-3.02-15.34,9.05-21.44,20.52-16.99l7.14-6.11c-3.72-3.15-8.86-4.81-14.11-4.86h0Zm-115.63,3.64c.84,0,1.51.68,1.51,1.52s-.68,1.52-1.51,1.52-1.51-.68-1.51-1.52.68-1.52,1.51-1.52Zm-4.59.37c.84,0,1.46.63,1.46,1.47s-.63,1.57-1.46,1.57-1.51-.68-1.51-1.52.68-1.52,1.51-1.52h0Zm24.43,3.08l-6.97,5.6c1.8,14.69-5.31,22.17-20.59,17.13l-7.39,5.89c19.97,13.8,46.1-3.99,34.95-28.63Zm-21.44,1.33c.84,0,1.51.68,1.51,1.52,0,.84-.68,1.52-1.51,1.52s-1.51-.68-1.51-1.52.68-1.52,1.51-1.52Zm-2.6.36l-2.43,6.15-6.55.89,2.43-6.15,6.55-.89Zm149.14.02c.84,0,1.52.68,1.52,1.52,0,.84-.68,1.52-1.52,1.52s-1.51-.68-1.51-1.52c0-.84.68-1.52,1.51-1.52Zm-1.17,3.32l-2.43,6.15-6.55.89,2.43-6.15,6.55-.89Zm-159.13,4.4c.84,0,1.52.68,1.52,1.52,0,.84-.68,1.52-1.52,1.52s-1.51-.68-1.51-1.52.68-1.52,1.51-1.52Zm-4.35.17c.84,0,1.52.68,1.52,1.52,0,.84-.68,1.52-1.52,1.52s-1.51-.68-1.51-1.52.68-1.52,1.51-1.52Zm151.31.9c.84,0,1.51.68,1.51,1.52s-.68,1.52-1.51,1.52-1.51-.68-1.51-1.52.68-1.52,1.51-1.52Zm15.47.24v3.38l-43.34,36.21-1.82-2.35,45.16-37.23Zm-163.74,3.29c.84,0,1.51.68,1.51,1.52,0,.84-.68,1.53-1.51,1.53s-1.51-.69-1.51-1.53c0-.84.68-1.52,1.51-1.52Zm151.37.36c.84,0,1.51.68,1.51,1.52s-.68,1.53-1.51,1.53-1.51-.69-1.51-1.53c0-.84.68-1.52,1.51-1.52Zm-154.02.16l-2.43,6.15-6.55.89,2.43-6.15,6.55-.89Zm149.74.11c.84,0,1.51.68,1.51,1.52s-.68,1.53-1.51,1.53-1.52-.69-1.52-1.53c0-.84.68-1.52,1.52-1.52Zm16.9.54l-.13,4.29c-13.5,11.57-41.12,34.55-41.02,34.56l-2.09-2.89s30.27-26.21,43.23-35.96Zm-18.54,2.77l-2.43,6.15-6.55.89,2.43-6.15,6.55-.89Zm18.29,2.71v139.03l-78.28.04c-.98-8.61,1.6-20.01,5.86-31.42,2.64-7.05,6.43-12.29,10.7-18.6,8.19-12.04,14.38-24.26,11.99-39.76-.31-2.3-.63-3.4-.52-4.02,1-1.88,4.94-7.57,7.83-9.94,4.24-3.48,10.13-8.67,10.6-8.36,1.41,2.73,3.07,4.93,5.28,6.6.39.42.4.79-.5.98-5.85-.05-11.87,1.24-13.82,6.44-.26.98-.27.97.91.85.6-.06,3-.06,4.68.01,3.08.24,7.94.26,10.37-1.6.47-.45.73-.42.82-.18.21,1.2-2.15,5.17-2.15,5.17l-3.9,2.17s-1.6.07-3.58.03l-.03,3.53c-1.55.92-4.21,4.87.06,7.9l-.14,3.84,3.77.07c2.5,2.41,4.54,2.39,6.83.13h4.35s-.02-4.14-.02-4.14c2.14-1.73,2.45-4.67.26-7.01l-.05-4.21-3.34.02s-.69-.54-.71-.97c0-.28,2.44-5.01,2.91-5.68.61-.88.44-.38,1.42,1.65,1.39,2.9,2.77,4.09,6.29,5.8,3.15,1.53,4.27,2.24,5.18,3.12.73.7,1.16.48,1.44-.56.61-2.31.42-4.63-.85-6.75-2.68-4.47-7.34-4.68-8.08-5.71-.1-.25.85-.53,1.87-.99,1.77-1.08,4.35-4.34,4.68-5.65-.06-.63.35-2.62.66-3.06.35-.78.39-1.15.37-3.24-.32-1.2-.03-2.75.12-3.29.16-1.09-.41-2.37-1.23-3.94-.31-1.46-.23-1.08.71-4.37.15-.53,1.21-5.12-.14-5.43.77,3.57-.22,6.5-1.57,8.52-.91-.28-1.69-1-2.46-1.59,0,0-.02-1.72.34-3.44-.21.58-.36,2.08-1.03,2.43-.36.08-.86-.24-1.79-1.05-.36-.31-1.12-.85-1.12-.85,0,0,10.9-9.39,15.02-12.5h0Zm-177.06,1.49c.84,0,1.51.68,1.51,1.52s-.68,1.52-1.51,1.52c-.84,0-1.51-.68-1.51-1.52s.68-1.52,1.51-1.52Zm146.64.34c.84,0,1.51.68,1.51,1.52s-.68,1.52-1.51,1.52-1.51-.68-1.51-1.52c0-.84.68-1.52,1.51-1.52Zm3.3,4.17c.84,0,1.51.68,1.51,1.52,0,.84-.68,1.52-1.51,1.52s-1.51-.68-1.51-1.52c0-.84.68-1.52,1.51-1.52Zm-4.89.65c.84,0,1.51.68,1.51,1.52s-.68,1.52-1.51,1.52c-.84,0-1.51-.68-1.51-1.52s.68-1.52,1.51-1.52Zm-1.87,3.4l-2.43,6.15-6.55.89,2.43-6.15,6.55-.89Zm-24.37,2.44l16.36,20.82-2.09,1.82-16.22-21.05,1.96-1.59Zm42.18,1.08s2.35,1.22,2.8,1.77c.16.61-.27.8-.89,1.36-.29.37-.47.73-.48,1.53-.02.86.27,1.25-.08,1.63-.58-.03-1.04.73-1.02,1.34.02.47-.59.99-.95,1.34-.63.63-.82.76-1.23,2.88-.04.21-.03.76-.33,1.05-.89.08-1.53,2.27-1.94,2.4-.65-.04-1.68-.84-1.93-2.01-.16-.76-.12-2.25.06-3.2.21-1.14.31-2.17.24-2.44-.17-.63-.58-.24-.58.65,0,.36-.13,1.44-.36,2.46-.23,1.02-.85,2.38-.57,3.19.42,1.2,1.95,1.71,2.64,2.35,1.82,1.67,2.21,2.49,2.42,2.86,1.45,2.67,1.46,3.12,1.09,5.13-.21,1.16-1.33.96-2.01.49,0,0-4.32-3.16-6.2-4.73-2.85-2.38-4.84-4.8-6.05-7.51l15.35-12.57Zm-29.89,1.11c.84,0,1.51.68,1.51,1.52s-.68,1.52-1.51,1.52-1.51-.68-1.51-1.52c0-.84.68-1.52,1.51-1.52Zm33.43,2.08c.23.03.44.14.64.27,1.39.92,0,2.47-1.26,1.9-1.09-.46-1.01-1.58-.15-2.02.28-.15.53-.19.76-.15h0Zm2.39,1.26c1.35.02,2.84,3.24,2.57,4.18-.4,1.1-.77,1.14-2.67-.48-1.88-1.6-1.91-1.66-1.15-2.53.42-.49.62-1.14,1.25-1.17Zm-32.09.59c.84,0,1.51.68,1.51,1.52,0,.84-.68,1.53-1.51,1.53-.84,0-1.51-.69-1.51-1.53s.68-1.52,1.51-1.52Zm-4.69.59c.84,0,1.51.68,1.51,1.52s-.68,1.52-1.51,1.52-1.51-.68-1.51-1.52c0-.84.68-1.52,1.51-1.52Zm33.21,1.08c1.49.22,1.88,1.36,1.2,2.2-.93,1.14-3.03.1-2.53-1.25.23-.62.77-.94,1.33-.95h0Zm2.68,1.71c.58-.05,1.47.76,2.43,2.11,1.08,1.51,1.17,2,.86,2.93-.45,1.35-.73,1.59-1.7.28-.37-.49-1.22-1.65-1.82-2.29-1.3-1.36-1.5-1.02-.73-2.06.36-.48.61-.93.96-.96h0Zm-4.78,1.24c.11-.01.22,0,.33,0,.3.03.63.14.94.35,1.34.7,1.47,1.6.68,2.24-.93.51-2.58-.1-2.9-1.02-.31-.89.21-1.49.95-1.57h0Zm3.54,2.35c.76-.05,1.38.74,2.31,2.24,1.58,2.56,1.67,3.42.32,5.11-.97,1.22-1.07,1.28-2.01-.66-.77-1.58-2.25-3.44-3.61-4.55-.57-.46-.77-1.11-.36-1.16.12-.01.62-.04,1.12-.05.73-.03.99-.13,1.39-.52.26-.26.55-.4.84-.42h0Zm-5.44,2c.71-.03,1.62.35,2.29,1.14.77.81.68,1.56-.83,1.71-.68.27-2.53-.95-2.54-1.77-.01-.69.45-1.05,1.08-1.08Zm3.67,2.97c.63-.03.96.65,1.67,2.08,1.09,2.21.78,3.41-1.11,4.38-1.28.66-2.26.86-2.43.1-.09-1.53-.52-3.18-1.21-4.25-1.16-1.75-1.36-2.37-.09-1.86.67.27,1.4.24,2.17-.16.31-.21.67-.28.99-.3Zm-6.52,3.55c-.44,0-.72.26-.6.98.4.2,1.03.01,1.51.19.64.23,1.04,1.28,1.72,1.11.07-.88-1.66-2.26-2.63-2.28Zm-5.04.68c1.65.67,5.93,3.8,5.93,3.8l-3.91,8.17c.71,1.28,1,4.46,1,4.46,4.94-.38,7.61,7.99-.08,7.21.88,5.17-7.41,9.23-7.18-.04-8.64.67-5.74-9.16-.42-7.31-.16-4.17,2.6-4.7,4.55-5.73,1.6-1.82,2.58-5.93,2.58-5.93l-.39-1.26c-1.64,2.88-8.61,3.7-16.27,2.18,2.07-4.94,8.37-4.8,14.18-5.54h0Zm8.94,4.25c.19-.01.39,0,.6.01,2.82.26,7.59,3.03,8.62,4.58,1.99,2.99,1.86,6.25,1.03,6.75-.88-.5-1.64-1.36-2.54-1.75-4.56-1.98-8.21-3.6-8.86-6.51-.82-2.16-.16-3.01,1.16-3.08Zm-154.91,1.75c7.43-.07,15.16,2.93,20.67,8.15,1.66,1.66.76,1.19-.57.55-3.53-1.69-12.29-5.61-16.51-5.67-7.82-2.21-8.08-1.2-10.83-1.91,2.32-.74,4.76-1.1,7.23-1.13h0Zm-5.77,2.36c7.28-.15,13.68,3.61,16.69,8.02,7.19,9.53,12.07,21.64,18.43,32.72,8.31,14.48,16.05,30.82,29.04,55.01l-1.25.39-49.54.09c2.37-25.78-10.92-50.38-12.73-51.19,11.11.16,18.49-1.71,21.82-4.93l-1.07-1.65c-6.53,5.66-16.32,5.92-22.85,4.17.15-13.92-.43-28.63,0-42.55.49-.05.98-.07,1.47-.08h0Zm12.39,2.16c1.99-.15,12.83,4.33,17.68,7.68,1.35,1.4,3.32,3.83,3.32,4.07.01.65-.95-.15-5.63-2.84-3.55-2-7.23-3.6-10.81-5.14-.16-.07-.49-.21-.49-.21,0,0-.27-.31-.72-.66-1.28-.99-3.75-2.75-3.35-2.9Zm5.27,5.08c-.11-.02,10.75,3.93,19.4,10.85,1.15.92,2.56,4.35,2.56,4.35-.77-1.46-14.42-9.67-19.21-11.55-.01,0-2.74-3.66-2.74-3.66Zm3.83,5.25c.59-.36,16.48,9.07,18.8,11.5,1.06.81,3.53,4.75,3.54,5.54.01.71-.77.1-2.19-1.22-7.32-6.87-17.88-12.04-17.97-11.93l-2.18-3.89Zm2.95,5.48c7.46,3.17,16.83,10.8,21.56,15.34,1.18,1.18,2.03,2.88,2.19,3.67.1.49-.15.46-.25.72-6.13-7.07-19.6-15.14-21.38-15.77.01.45-1.48-2.74-2.12-3.96Zm2.87,5.55c4.39,1.44,16.96,11.52,21.89,16.48.86.88,2.22,3.96,1.92,4.34-.15.19-.13.09-.49-.16-1.96-1.96-12.03-10.94-20.44-15.98-.79-.4-3.44-4.59-2.88-4.67Zm3.72,6.45c.15.01.41.2.86.45,7.73,4.28,18.93,15.07,21.06,17.67.48.8,1.24,2.26,1.19,3.16-.1.71-.38.1-3.5-2.99-5.02-4.94-10.8-9.72-16.92-13.74-1.18-.81-.95-.92-1.81-2.41-.86-1.5-1.2-2.17-.88-2.14h0Zm47.86.1c.57-.02,1.1,0,1.58.06,5.52.16,7.68,4.36,11.08,12.1,2.78,7.63,3.94,14.61,4.06,20.18.01.37-.67.05-.97-.03-1.48-.4-3.32-.77-5.45-.23-.99.25-2.47.29-2.47.29,1.11-1.57,2.37-2.12,3.7-3.11.51-.32,1.05-.72,1.05-.72-1.77.2-3.05,1.11-4.66,2.13,0,0,.22-1.1.5-1.79,1.61-3.97,2.09-6.32-.3-7.05-1.53-.43-2.17-1.32-2.64-2.86-.72,1.57.39,3.14,1.61,3.99,1.66,1.2,1.99,1.53,1.09,4.37-1.27,3.98-1.54,4.95-1.77,5.87-.13.53-.39,1.43-.52,2.02-.5,2.25-.44,4.22-.35,6.1.55,4.18,5.03,6.25,11.06,3.92.57-.22.81-.02.81-.02-4.8,4.9-10.18,8.04-13.32,17.95-4.04-8.18-9.75-14.58-19.26-17.15l-.14-1.71c3.31,1.6,9.74,3.77,13.82,1.33,2.18-1.5,1.52-2.46-1.13-1.43-3.16,1.23-8.86,1.09-11.7-.53-.58-.33-1.17-.04-1.34.01-.15-.96-1.52-4.58-1.32-5.94-.12-.19.87-.2,1.06.05.79,1.06,4.79,4.2,8.94,3.96,2.07-.12,3.76-.75,5.56-2.65.15-.13.88-.23.98-.34.16-.18.04-.45.04-.55-.04-.14-.31-.54-.49-.99-.23-.39-.28-.8-.24-1.11,0-.26.18-.4.31-.58.16-.35.11-.8.03-1.03-.37-.25-.32-.72-.13-.94.46-.53-3.14-4-5.01-5.19-.39-.25-1.48-.42-1.48-.42,0,0,.43.74,1.21,1.26,2.74,1.83,4.75,4.23,4.29,4.54-.35.24-1.58-.29-2.83-.58-2.51-.59-5.53-.97-8.8,1.4-1.22,1.01-4.46,1.16-4.46,1.16-.04-1.72-7.03-20.33-7.48-20.71,2.73-3.19,11.22-10.67,19.73-13.91,1.97-.65,4.04-1.06,5.76-1.12h0Zm-30.76,4.49l15.48.24c-3.89,1.97-10.96,9.03-10.96,9.03-2.02-4.09-2.64-6.13-4.52-9.27Zm-13.38,2.05c1.15,0,13.44,10.07,15.19,12.45.21.29,1.46,1.61,2.77,2.93,3.18,3.2,4.49,5.05,4.5,6.37.01.62-.56.22-1.41-.72-6.36-7.11-10.51-10.97-18.37-16.41-.89-.48-3.67-4.19-2.73-4.6.01,0,.03-.01.05-.01Zm42.03,1.85c-.35-.01-.29.32-.1.63,1.95,1.73,7.1,1.66,8.87.26,1.61-1.27-.5-.6-1.16-.32-1.54.66-3.19.59-5.33.02-1.25-.33-1.94-.57-2.28-.59h0Zm4.75,2.82c-1.8.02-3.68.56-3.26,1.22.15.24.65.7,1.82.05,1.7-.84,5.19.26,5.29.29.36.09-1.16-1.01-1.67-1.23-.56-.25-1.36-.35-2.18-.34Zm-43.38,1.88c6.6,4.06,14.65,12.19,19.48,17.99.8,1,1.38,2.23,1.39,2.95.01,1.04-.21.46-4.6-4-3.44-3.54-8.63-8.35-12.07-10.94-2.06-1.51-2.43-1.71-3.4-3.5-.91-1.68-1.24-2.52-.8-2.49Zm50.37.15s-.06,0-.1.02c-1.04.53-1.89,1.08-2.88,1.07-1.82-.03-3.42-1.13-6.25.11-1.24.59-2.89.47-4.49-.09-1.45-.5-1.11-.07-.56,1.52.25.72.41,1.75.41,1.9,0,.35,0,.38,1.03-.2.89-.5,1.08-.67,2.98-.23,1.94.45,1.97.28,2.88-.19.79-.42.96-.66,1.5-.45,1.06.43,2.26.61,3.62-.11,1.04-.55,1.38-.18,1.87.06.66.33.91.12.65-.54-.1-.26-.29-1.38-.3-1.74-.01-.59-.14-1.13-.36-1.16Zm-89.99,2.59c16.46,20.61,13.83,50.32,13.28,50.08l-13.28.06v-50.13Zm43.11,4.17c6.57,4.63,14.4,12.71,18.73,18.29.74.96.14,1.27.51,2.43.14.43-.59-.21-2.68-2.46-2.6-2.81-6.88-7.03-9.7-9.48-3.09-2.69-3.98-3.36-4.63-4.27-.52-.76-2.63-4.41-2.23-4.51h0Zm37,1.89c-.07,0-.14,0-.21,0-2.34.11-3.53,2.75-1.52,4.61.75.7,2.23.79,2.23.79,0,0-.66-.52-.93-.72-1.67-1.29-1.5-3.3.4-3.32.66,0,.7.23,2.22,1.33,1.79,1.29,3.91,1.29,3.88,0-.02-.96-.37-1.93-1.98-1.78-.42.04-.98.09-1.47-.04-.47-.12-.87-.41-1.06-.49-.56-.25-1.09-.36-1.58-.37h0Zm-32.73,6.07c5.03,3.39,11.94,11.07,15.48,15.59.81,1.06.86,2.23.54,2.86-.08.12-.7-.26-.7-.26-4.09-4.83-8.72-9.23-13.27-13.69,0,0-2.7-4.37-2.05-4.5Zm45.39,4.88c.96.04,2.11.69,3.37,2.46l-1.09.54c-1.65-2.48-3.15-2.51-4.41.38l-.81-.2c-.4-.38.82-3.26,2.94-3.18Zm3.13.35c.45.02,1.25.26,1.43.73.21.43-.03.91-.65.89-.09,0-.7-.75-.99-1.2-.22-.28-.13-.43.21-.42Zm-22.12.19c1.5.07,2.99.93,3.64,2.84l-1.22.06c-2.32-3.06-4.05-1.01-5.09.27l-1.3-.18c.12-1.89,2.04-3.09,3.96-2.99h0Zm15.48.23c.18,0,.36.04.53.1-.48.73-.56,1.34-.67,2-.47.2-1.15.61-1.65.08-.93-.85.5-2.21,1.78-2.19Zm-19.11.32c.57,0,.4-.04.15.29-.25.33-.66.91-.85,1.43-.08.36-.12.52-.45.53-.64.02-1.78-.21-1.77-.2-.5-.47,1.44-1.99,2.92-2.04h0Zm7.47.45c.38-.05.29.5.17.72-.24.29-.34.38-.47.02-.07-.17-.17-.31-.25-.41-.19-.24-.17-.26.07-.3.11-.02.35-.03.49-.03h0Zm-25.88,1.92c4.74,4.03,8.3,8.6,12.09,12.81.75.94,1.11,1.84.96,2.45-.18.76-1.73-1.06-1.73-1.06.04.02-9.24-9.94-9.24-9.94,0,0-2.36-4.25-2.07-4.27Zm45.76.52c1.42-.04.47,2.38-1.5,2.96-2.18,1.11-4.67.84-7.21-.61-1.45-.83-1.89-1.7-.63-1.35,4.76,1.32,5.91,1.07,8.78-.79.17-.15.35-.18.56-.2Zm-31.61.87c.33.01.98.16,2.03.44,4.55,1.39,5.93,1.34,8.55.13,1.67-.77,2.36-.66,1.65.5-1.31,2.13-5.96,2.36-9.44,1.18-.92-.31-1.73-.87-2.62-1.53-.48-.5-.59-.72-.17-.71h0Zm21,1.41c.27-.02.78.3,1.4.65,3.82,2.17,6.63,1.78,8.98.32.43-.39.66-.2.71.18.2,1.32.26,2.28-.34,2.91-.35.37-.95.54-1.84.84-3.69,1.25-8.19.36-9.05-2.43-.28-1.43-.46-2.43.14-2.47h0Zm-30.28,5.97s.03,0,.04,0c.27.04.88.58,1.86,1.69,5.08,5.79,7.89,9.12,7.37,10.79-.05,0-.08.36-.29.18-2.79-2.42-5.07-5.07-6.77-7.84-1.86-3.04-2.63-4.77-2.21-4.81h0Zm40.91,2.21c.77.32.02,1.9.03,1.86-4.29,3.29-9.48,11.13-9.95,14.99-.09.74.06,1.56-.22,1.82-.27,0-.73,0-1.35,0-.4-.07-.5-.27-.46-.73.37-4.13,2.7-11.08,11.95-17.95h0Zm-31.7.07c.3,0,.77.15,1.43.43,3.85,1.66,5.28,2.26,7.77,4.3,4.64,3.8,9.82,13.03,8.31,13.87-.4,0-.85-.01-1.04,0-.57-1.04-.98-2.41-1.5-3.39-3.11-5.74-7.16-9.7-12.86-12.49-2.11-1.03-2.32-.92-2.48-1.78-.12-.65-.01-.94.38-.95h0Zm31.67,3.32c.39-.03.48.67.35,2.1-.05.59-.1.87-.3,1.19-2.43,2.49-5.87,7.28-7.02,12.01-.57-.05-1.64.07-1.63,0-.33-.18-.36-1.16-.26-1.56.9-3.64,3.26-8.1,6.89-12.01,1.02-1.1,1.64-1.68,1.98-1.71h0Zm-30.87.11c4.92,2.05,11.36,6.74,14.26,15.21-.64-.04-1.56.05-1.8,0-.49-.19-.74-1.11-1.66-2.84-2.39-4.52-5.84-7.79-9.57-9.52-.69-.32-1.07-.53-1.29-.78-.25-.52-.57-1.97.06-2.08h0Zm1.1,4.04c.63.12,2.38,1.26,3.85,2.34,2.59,1.91,6.64,7.97,5.82,8.81-.87-.02-.82,0-1.68,0-2.77-4.96-6.43-7.45-7.89-8.83-.44-.75-1.48-2.51-.1-2.32h0Zm-5.76.87c.12-.03.61.45,1.49,1.38,2.6,2.74,4.25,5.78,3.87,7.32-.32,1.3-.7.59-3.68-5.12-1.25-2.4-1.85-3.53-1.68-3.58Zm35.57.08c.06,1.58-.07,1.97-.23,2.8-.11.57-.49.83-.84,1.28-1.43,1.99-2.37,4.11-2.9,6.11h-1.75c.21-2.59,2.58-6.84,5.73-10.19Zm-29.46,2.91c.79.1,6.9,6.54,6,7.28-1.07-.03-.56.01-1.84,0-.74-1.67-4.1-5.19-4.1-5.19l-.15-2.03c0-.05.03-.07.08-.06Zm29.08,2.28s.03,0,.04,0c.31.06.21,4.65-.05,5.01-.49.05-1.43-.04-1.93,0-.31-.17-.46-.74-.35-1.08.29-.84,1.79-3.83,2.29-3.93h0Zm-28.3,2.08c.63,0,2.33,2.49,2.17,2.93-.72,0-1.97-.03-2.06,0-.16-.12-.41-2.51-.22-2.89.03-.02.07-.03.11-.03Z"/>
        <path id="uuid-63ea1d47-df44-421f-b0fc-4d27da56fbca" data-name="path3389-2-3-5-0" class="uuid-46d916f0-3426-4d53-8f6b-b8af8fecf82d" d="m155.93,27.35l.87,1.15-5.09.03c.83.71,19.67,38.81,43.77,82.84,3.99,7.73,11.59,10.51,20.43,10.85l-23.4-37.87c2.49-1.36,7.44-5.02,10.43-4.34.19.92,1.07.56,1.09-.26l1.08.02.38.6h4.55l.37-.54,3.92.57c-10.47-12.98-16-32.97-14.2-52.49l-34.74.08-.46-.61h-9Zm-40.89,1.19c.42,8.06-.64,17.99-3.26,25.39-3.95,12.82-13.72,23.37-19.51,33.98-6.22,11.59-7.68,21.67-5.93,32.7l1.14.1c13.25-18.17,23.52-39.88,29.26-61.22.13-.46-.09-1.29.02-1.76-.25-.56-.03-1.18.12-1.34.33-.35.21-1.74-.04-4.03-.63-6.8-.5-12.14.06-18.31.44-4.73.41-5.48.41-5.48l-2.27-.03Zm84.43.55c-1.13,12.79,1.42,30.36,7.4,40.74,0,0-.19.7-.32.89-.57.86-.85.12-1.2-.58-1.27-2.36-3.68-2.73-4.73-1.42-2.33,3.19.19,4.44,2.15,6.24-8-.49-10.67-9.34-8.82-13.72-.04.84.4,2.1.99,2.99,2.25,3.43,5.53.53,4.59-2.18-.39-1.12-1.82-2.99-1.82-2.99,0,0,1.95-.29,2.75-.77.74-.46,1.21-1.29,1.02-2.41-.15-.9-.19-1.3-.68-2.11-.59-.74-1.65-1.25-2.49-1.2-1.65.11-1.85,1.25-2.93,2.04-.27-2.06-1.58-3.62-3.72-3.24-1.63.3-2.8,2.04-1.8,4.22.5,1.11,1.21,1.45,1.92,2.41-11.5-1.29-10.24-15.01-8.97-14.77,0,0,.35-.07.24.46-.65,3.36,3.5,5.36,5.31,2.92,1.16-1.98-1.33-5.1-1.33-5.1,0,0,1.66-.36,2.41-.79,3-1.74-.2-6.74-2.99-5.51-.98.45-1.23,1.36-2.19,1.85-.64-.72-.68-1.5-1.83-2.14-3.15-1.76-5.13,2.41-3.38,4.25.72.74,1.98,1.42,1.73,1.51-9.78-1.24-9.68-11.63-9.46-11.56l28.13-.03Zm-41.25.03h6.75l32.79,51.24-5.98,2.95-33.55-54.19Zm8.12,0h3.73c.57,11.45,10.17,12.99,11.65,12.82-2.45,7.74,1.61,16.24,11.37,17.45-2.24,7.18,1.73,16.64,9.54,16.38l.83.53c-.5,1.03-.61,3.16-.58,3.19-1.74.13-2.68.38-3.81.61-10.1-15.3-32.73-50.98-32.73-50.98Zm-50.89.06h1.35c-.4,6.1-1.26,14.15-.7,20.1.66,5.68.69,6.49.28,7.05-.56.63-.26.92-.15,1.43.15.93.16.94.03,1.48-1.18,4.77-2.7,9.71-4.62,14.71-6.29,17.43-16.55,36.44-24.6,46.41-.01-.04-.37.03-.37,0-2.2-13.91,2.51-25.5,4.96-30.26,4.98-9.65,12.8-17.88,17.45-27.99,3.95-8.6,6.87-18.94,6.38-32.92h0Zm68.74,9.95c.85,0,1.53.69,1.53,1.55s-.68,1.55-1.53,1.55-1.54-.69-1.54-1.55c0-.85.69-1.55,1.54-1.55Zm10.87,17.09c.86,0,1.56.7,1.56,1.56,0,.86-.7,1.56-1.56,1.56-.86,0-1.56-.7-1.56-1.56,0-.86.7-1.56,1.56-1.56Zm-78.12,3.05h0c.56,2.23-10.41,35.75-25.99,57.07l6.81.14.21.75c9.53,14.14,3.57,26.66-4.13,32.47l2.66,3.57-2.4,1.95-2.4-2.87c-19.51,14.71-57.57,47.26-57.57,47.26l.21,5.22,2.97-2.35c19.31,18.78,60.25,17.76,70.99-21.02l2.88.07c-6.49,28.42-32.92,39.54-52.87,34.83l-4.67,6.75,1.25.67c-.23-.36-.44-.48-.1-.81l3.97-5.13c29.84,3.84,47.86-13.13,53.7-36.12l3.81.06c-3.27,19.31-12.27,36.32-25.12,49.63-9.27-.04-25.57-.25-25.57-.25,5.94,5.78,17.27,23.42,17.72,25.21,0,0,11.66.37,24.17.07,4.58-2.07,10.72-2.91,13.59-1.46,5.03,2.55,9.77,12.01,11.9,27.19.55,3.91,1.04,5.57,1.19,6.36.03.14.37.25.42.22.19-.1-.31.69-.33,1.28-.02.59,0,1.47.28,1.78.35.39.31.65.26.81-.03.11-.71.74-.71.74-.1,8.84-.05,16.87-.53,27.75h1.73c-.01-17.49,5.24-33.69,13.34-44.84,4.92-7.32,10.13-15.2,13.01-22.71,3.24-8.45,3.69-17.33,1.95-24.83l-1.18.07c-7.12-4.91-10.03-15.38-1.25-22.86l-3.1-4.06c-8.76,6.81-10.77,19.37-1.7,29.76h-3.55c-8.86-11.12-6.9-23.88,3.34-32.98l-2.29-2.92,2.49-2.2,2.25,2.47,57.14-47.98-.04-5.25-4.38,3.57c-25.63-23.81-63.64-7.1-69.21,21.58l-3.48.04c7.3-30.87,34.22-39.59,53.69-35.49l4.8-7.31c-3.53-1-6.98-3.36-10.24-6.14-1.37-1.17-2.24-1.89-3.23-3.07-9.22-9.79-15.48-23.39-15.78-23.42l-25.07-.06c-3.68,1.83-9.98,3.91-13.43,1.1-7.42-6.02-9.91-18.18-10.93-26-.31-2.43-.57-6.67-.8-8.07-.14-.26-.42-.27-.66-.23h0Zm88.9,13.52c.84,0,1.52.69,1.52,1.53s-.68,1.53-1.52,1.53-1.52-.68-1.52-1.53.68-1.53,1.52-1.53Zm3.26,1.8c1.24,1.61,2.33,3.27,2.95,5.02-.58-.02-1.12.16-1.76-.34-.15-1.77-.87-2.83-1.79-4.01l.6-.67Zm-4.59,2.26c.51.25.91,2.17.55,2.5-.61.13-1.03.09-1.23-.13-.31-.51.27-2.28.68-2.38Zm-99.72,16.72l23.28.03c4.05,3.12,8.01,2.71,13.76.21h25.88l1.46,2.67h-65.64c.37-.99,1.26-2.9,1.26-2.9h0Zm-1.92,4.17h66.99l1.69,2.74h-70.34l1.66-2.74Zm6.47,3.98h7.52l-2.78,4.75h-7.76l3.02-4.75Zm16.69,0h7.17l-3.19,4.75h-7.11l3.13-4.75Zm23.2,0l-3.02,4.75h-7.29l3.13-4.7,7.18-.05Zm9,0h7.18l-2.69,4.75h-7.44l2.94-4.75Zm-96.51.74c-4.66-.05-3.79,6.16-3.36,5.96-2.92-.67-5.09.72-5.45,3.23-.29,1.99,1.65,4.82,5.03,4.42-.45.52.01,3.53.46,3.8,0,0,.06.43-1.73,4.17-2.12,4.44-2.55,4.65-3.51,1.73-1.03-3.14-2.63-4.72-6.78-6.75-1.11-.54-2.67-1.48-3.48-2.09-1.86-1.4-1.88-1.38-1.79,1.47.11,3.7,1.23,5.33,5.17,7.52,1.93,1.07,5.61,2.58,6.28,2.58.47,0,2.2.77,4.75,2.14.5.27,2.21,1.21,4.4,1.43,2.32.16,7.56-.39,10.6-2.15,1.7-.99,2.36-1.87,3.62-4.4,0,0-4.3.22-6.27-.29-4.08-.24-6.11,0-9.21,1.61-2.59,1.35-2.74,1.59-1.65-.64.49-1.03.95-2.23,1.37-3.43.45-1.19.57-1.29,1.7-1.41,2.48-.25,3.9-1.69,4.13-4.19.06-.67-.04-1.38-.04-1.38,1.69.25,5.15-.59,5.04-4.11-.1-3.16-2.34-3.89-5.11-4.11.36-1.62-.82-5.06-4.18-5.1h0Zm.06.98c4.08.03,3.99,3.79,2.21,5.93l-2.17-1.8-1.75,1.62c-1.91-1.22-1.9-5.78,1.71-5.76Zm111.68.05l2.01,2.98h-4.14l2.14-2.98Zm-76.2,4.28h7.69l-3.08,4.36h-7.27s1.63-2.78,2.67-4.36h0Zm24.23,0l-2.9,4.53h-6.72l2.69-4.43,6.93-.09Zm9,0h6.94l-2.75,4.83h-6.86l2.67-4.83Zm16.34,0h7.03l-2.86,4.83h-6.93l2.76-4.83Zm15.93,0h7.24l-2.99,4.83h-6.98l2.73-4.83Zm-95.25.87c1.75.07,3.42,1.52,3.13,3.44-.61,4.06-4.51,3.84-5.62,1.86l1.59-1.82-1.95-1.92c.71-1.14,1.79-1.6,2.84-1.55Zm-5.63.03l3.45,3.5-3.37,3.39-3.47-3.33,3.38-3.55Zm-5.06.28c.78.05,1.58.44,2.22,1.19l-1.87,2.11,2.05,1.98c-1.32,1.84-6.39,1.7-5.38-2.74.4-1.76,1.67-2.62,2.97-2.54Zm120.6.67l2.14,2.95-4.01.03,1.87-2.98Zm-115.44.76l-1.63,1.64,1.63,1.64,1.63-1.64-1.63-1.64Zm32.08,2.86l85.94.28,2.3,2.82c-30.01.52-59.39-.48-90.04-.51l1.8-2.6Zm-30.21,1.84c3.41,2.1.89,6.52-2.77,5.77-2.72-1.2-3.28-4.04-.83-5.69l1.92,1.59,1.68-1.67Zm29.47,1.69h-2.34s-2.28,2.7-2.28,2.7c8.63,9.14,8.32,17.07.27,23.99l3.24,3.64c9.02-7.76,11.03-19.95,1.12-30.32h0Zm8.87.35c4.84,7.6,9.03,22-5.39,35.18l-1.74-2.12c12.56-12.33,9.61-22.69,3.98-32.97l3.15-.09Zm1.34.19l19.51.08c-4.18,16-7.11,25.42-7.55,50.45l-5.64.03c.61-.58-2.92-15.12-7.04-20.16,8.65-14.75,3.99-23.08.72-30.41h0Zm-61.38.02c.34,0,.98.53,2.38,1.25,4.17,2.14,7.48,4.16,8.28,7.17.57,1.63.21,1.66-1.43.13-1.22-1.14-2.52-2.13-5.77-4.36-1.14-.79-1.51-.66-.84.3.48.69,1.51,1.48,3.59,2.75,1.51.93,3.6,2.78,3.43,3.06-.15.25-.41.23-1.14-.09-.34-.15-1.42-.6-2.41-1-4.25-1.73-6.06-3.86-6.32-7.4-.09-1.23-.17-1.8.22-1.8Zm89.06.08s.59.78.66,1.1c.16.7-.52,1.35-2.68,2.31-.74.33-1.36.51-1.34.95.1,1.02,2.04,2.58,1.8,3.97-.45,1.06-3.15,2.11-3.82,3.36,0,.86,1.76,2.18,1.51,3.36-.14.35-.7.71-1.54,1.44-1.71,1.49-1.82,1.72-1.19,2.89,1.46,2.7,1.51,2.5-.48,4.42-2.01,1.93-1.97,1.91-1.01,3.59,1.03,1.81.99,1.73-.4,2.89-1.36,1.14-1.31,1.37-.58,2.78.71,1.37.87,1.39-.32,2.44-1.39,1.24-1.65,1.36-.67,2.92,1.01,1.61,1.08,1.54-.06,2.85-1.08,1.24-1.21,1.3-.62,2.15.74,1.06.88,1.35.11,2.52-.83,1.26-.83,1.17-.07,2.35.64.99.53,2.09.53,2.09h-2.41s-.02-1.41-.3-1.92c-.68-1.24-.67-1.63.15-2.73.83-1.13.7-1.23-.08-2.36-.79-1.15-.68-1.13.35-2.44.94-1.2.99-1.76.45-2.44-1.26-1.62-1.26-2.3.01-3.37.97-.82,1.06-1.18.22-2.58-.82-1.37-.92-1.5.58-2.86,1.54-1.39,1.52-1.36.49-2.94-1-1.53-.95-1.64.66-3.13,1.62-1.51,1.64-1.52.58-3.43-1-1.79-1-1.76.94-3.5,1.94-1.62,2.59-1.83.66-4.15-1.08-1.85-.31-2.03,1.46-2.95,3.1-1.9,1.69-1.78.39-4.61-1.09-1.89-.47-1.91,1.43-2.85.47-.2.99-.44,1.53-.74,1.27-.71.58-1.36.58-1.36h2.47Zm4.05.04l9.32.12c-10.8,13.86-16,31.59-17.86,50.28l-3.52-.06c-.22-14.6,4.35-32.85,12.06-50.35h0Zm10.65.09h0l4.59.08s.86,1.04,1.25,1.41c1.98,2.26,2.15,1.81-2.21,4.29-2.76,1.56-3.98,2.29-4.14,2.94-.12.66,1.2,1.97,1.36,2.85,0,.1-3.75,2.62-4.43,2.98-.95.46-.99.86-.06,2.5,1.08,1.89.99,1.82-1.34,3.45-2.27,1.59-2.72,1.44-1.75,3.02,1.35,2.2.71,2.7-2.45,4.42-.8.43-.82.87-.26,2.37.78,2.09.98,1.88-.66,3.01-1.93,1.34-2.27,1.37-1.84,2.19,1.24,2.38,1.74,2.96.08,3.73-1.27.59-1.29.93-.59,2.5.7,1.58.89,1.52-.36,2.41-1.16.82-1.84.64-.71,1.99.89,1.07.81,1.91.09,2.56-.63.27-.92,1.46-.73,1.49l-1.61.04c-1.26-1.71.23-2.68.45-2.85.2-.39-.05-.67-.55-1.6-.7-1.27-.68-1.43.33-2.17,1.02-.75,1.05-.56.37-2.22-.79-1.93-.75-2.15.49-3.05,1.22-.88,1.24-1.08.41-2.77q-.88-1.79,1.3-3.24c1.53-1.02,1.55-.96.74-2.85-.56-1.31-.16-1.76,1.91-3.19,1.19-.82,1.28-.98.72-1.95-1.54-2.68-1.52-2.76,1.13-4.49,2.17-1.41,2.15-1.54,1.32-3.42-.91-2.04-.99-1.88,1.99-3.68,2.45-1.48,2.59-1.39,1.58-3.17-1.26-2.21-1.17-1.85,3.73-4.67,1.77-1.22,3.36-.8,1.6-2.87-.77-.99-1.72-2.07-1.72-2.07h0Zm14.89.15l22.3.08c5.33,4.51,9.28,7.09,12.09,8.11,0,0-3.76,6.27-4.05,6.04-21.61-4.18-47.32,8.48-53.13,35.79l-3.4.02c1.26-10.71,4.06-19.66,9.23-29,5.13-9.06,9.85-14.36,16.97-21.04h0Zm-101.54,3.49c.34-.01.6.41.59,1.19-.06,1.1-.58,2.18-1.07,3.27-1.04,2.22-2.07,3.86-2.62,3.87-1.28.01-1.25-.27.46-3.62.87-1.54,1.79-4.57,2.64-4.71Zm9.13,4.72c2.24.04,4.57.25,6.64.31.02,4.7-14.65,7.07-15.41,4.7,2.56-2.01,10.12-1.12,11.72-2.92-1.93-.11-4.55.21-6.34.24-2.24.04-5.85,1-5.88,1.4-.23-1.24,3.84-3.56,7.07-3.71.72-.03,1.46-.04,2.21-.02h0Zm7.9,7.49s-28.61,23.79-42.75,35.31l.09,5.13,45.26-37.24-2.6-3.2Zm-.09,1.18l1.83,2.23-42.49,34.79-.15-3.65,40.81-33.38Zm106.1,1.45c9.02.04,18.74,3.26,28.2,10.76l-1.53,1.64c-41.5-31.03-79.71,16.09-58.64,49.79-.19.43-1.66,1.51-1.66,1.51-17.98-29.96,4.15-63.82,33.63-63.7h0Zm5.36,3.96c2.36.02,6.69,1.64,8.52,3.86,2.13,2.58,1.51,3.73-1.2,1.29-2.91-2.13-5.32-2.62-1.27-.11.89.55,1.7,1.63,1.74,1.75.15.43-.6-.02-3.99-1.26-2.01-.74-4.57-2.74-5.23-4.09-.5-1.02.2-1.45,1.43-1.44h0Zm-8.73.07c.73-.01,1.39.05,1.85.19,2.97.86,3.9,1.31,5.01,2.17.76.59.51,1.02-.36.64-1.02-.44-4.26-1.41-4.84-1.35-.84.09,0,.64,1.21.95,2.68.67,4.02,1.37,2.1,1.4-1,.15-5.37.16-6.56.02-1.99-.24-4.97-2.06-4.28-2.71.74-.7,3.67-1.28,5.87-1.3h0Zm-8.51,2.8c3.52.04,5.42,1.36,1.58,1.63-6.61,1.05-7.88,2.5-.55.78,1.71-.4,1.67.22.49.8-.96.47-2.17.7-3.17,1.19-1.81.76-5.95.92-7.57.31-2.38-.91,5.1-4.75,9.22-4.7h0Zm28.32.6c1.78.05,5.57,2.64,7.26,5.07,1.1,1.59.55,2.73-1.11,1.45-.33-.25-2.73-2.3-2.86-2.35-.22-.08,1.99,2.03,2.31,2.62.28.5.92,1.66-.28,1.68-1.86-.23-6.25-5.15-6.27-7.58-.01-.65.36-.92.95-.9h0Zm-22.06,1.38c.74-.02.36.37-1.04,1.37-2.54,1.8-1.22,1.44,1.75-.1.9-.47,1.99-.83,2.37-.9.38-.07.84-.17,1.01-.23.8-.25.18.74-1.12,1.79-2.73,2.2-5.81,3.93-7.94,4.46-2.71.67-3.29.76-2.28-.94,1.59-2.7,3.91-4.87,6.13-5.29.5-.1.87-.14,1.12-.15h0Zm9.13.04c1.13-.02,2.53.21,4.73.69,1.55.48,1.14.59-.71.79-3.49.38-2.03.79,1.36.73,4.62-.03-2.32,1.68-4.57,2.02-1.76.08-2.27.02-6.1-.71-1.46-.27-.58-1.35,2.18-2.68,1.13-.54,1.99-.82,3.12-.85h0Zm28.58.63l.13,3-55.99,47.05-1.9-2.12,57.77-47.93Zm-19.05,2.58c2.23-.03,5.46,1.53,5.11,2.47-.13.35-.38.33-2.08-.12-1.12-.3-3.12-.61-2.86-.36.09.09,1.66.69,2.25.83,1.97.48,4.33,1.6,3.81,1.93-.91.56-1.75.12-2.83.01-2.71-.38-7.16-1.75-7.89-2.44-.83-.78,2.08-2.28,4.48-2.31h0Zm-26.12.18c.4.02.55.4.17.91-.58.77-.85,1.42-1.38,2.37-1.87,2.91-3.05,4.06-4.85,5.18-1.8,1.13-2.06.93-1.9-1.41.2-2.43,1.94-4.99,4.39-6.19,1.13-.16,1.78-.46.59.97-2.1,2.53-.66,2.27,1.3-.6.62-.91,1.28-1.25,1.68-1.23h0Zm-7.28.34h0c1.21-.01,1.62.43.06,1.16-1.48.7-4.43,2.77-4.5,3-.12.39.98-.22,2.81-1.22,2.45-1.34,2.66-1.31,1.48.22-1.34,1.74-4.56,3.91-7.09,4.72-3.54.97-3.45.29-1.47-2.35,1.88-2.87,3.49-4.23,5.9-5.02,1.06-.34,2.08-.51,2.81-.51h0Zm-59.98.44c12.83,22.24,5.71,44.84-9.18,56.36-15.56,12.05-39.78,11.33-54.06-3.13l1.98-1.88s22.52,23.07,50.9,2.6c14.4-10.39,20.35-34.92,8.47-52.03l1.89-1.92Zm-57.48.05s-.07.01-.1.02c-.43.28-2.06,5.09-2.39,7.08-.1.58.04,1.15.52,1.62.33.33.88.12,1.04.05,1.09-.49,1.68-1.25,2.63-3.65.64-1.31.72-2.88.6-3.43-.05-.22-.4-.74-.84-1.03-.49-.33-1.17-.67-1.47-.67h0Zm.25,1c.51,0,1.53.84,1.65,1.43.01,1.04-.58,2.78-1.03,2.52-.74-.93-1.59-.34-1.73-.68-.1-1.03.56-2.37,1.01-3.26.03-.01.06-.01.1-.01h0Zm138.58.82h0c5.71,0,11.38,1.69,15.54,5.39l-2.22,2.05c-9.77-7-21.15-4.95-27.89-.23-6.67,4.67-12.58,15.02-6.79,29.59l-2.09,1.9c-6.48-11.72-3-27.21,8.47-34.54,4.05-2.58,9.23-4.06,14.43-4.16.18,0,.37-.01.55-.01h0Zm-84.37,1.72c.17,0,.44.57.41,1.27-.03.84-.39,1.93-.95,2.17-.64.26-1.04-1.65-1.04-1.65.39-.62.92-1.26,1.58-1.79h0Zm102.15.66c.23-.01.46,0,.65.02.64.08.64.65.04,1.2-.65.59-.98.62-1.64.15-.58-.43-.61-.74-.11-1.1.26-.17.66-.25,1.05-.27h0Zm-109.58.13l1.89,2.34-6.56,5.3-.78.06-50.21,41.79v-3.71s55.66-45.78,55.66-45.78Zm90.91,1.19c5.19-.16,10.3,1.32,14,4.47l-6.84,5.67c-13.67-7.14-24.63,5.58-20.76,17.13l-5.91,5.16c-7.6-20.97,6.24-32.03,19.51-32.43Zm-21.81.01h.06s.09.04.14.09c.24.24-.24,4.1-.59,4.82-.13.26-.23.6-.23.75,0,.32-1.26,2.97-2.25,4.72-.37.66-.77,1.53-.88,1.93-.79,3.83-2.5-2.33-1.9-5.9.28-1.68,2.66-5.15,3.35-4.89.35.13.33.4-.29,1.74-1.71,3.75-2.14,5.68-.34,2.06,2.08-4.18,2.62-5.25,2.94-5.31h0Zm-116.17.08c.25.01.46.16.57.45.08.25.16.78.02,1.04-.35.79-1.08,1.32-1.81,1.27-.32-.02-.68-.31-.72-.66-.04-.32.04-.86.43-1.26.52-.54,1.09-.87,1.51-.84h0Zm52.06.24c.81.04,1.66,2.23,1.12,3.23-.44.82-.53.67-1.31-.92-.41-.83-.72-1.73-.72-1.73l.66-.52c.05-.03.11-.05.17-.06.03,0,.05-.01.07,0h0Zm-1.37.92s.85,1.55,1.06,2.79c.13.75.11.61-.72.3-.65-.41-.79-.65-1.2-1.15-.27-.47-.53-.82-.53-.82l1.39-1.12Zm5.12.33c.43-.01.89.42,1.32,1.49,1.59,4.02,1.44,8.53-.34,10.65-.3.35-.37.37-.72.15-.29-.18-.32-2.09-.04-2.63.09-.17.35-1.32.37-1.97.05-1.54-.38-1.74-.58-.31-.23,1.65-.49,2.81-.94,1.81-.23-.5-.34-1.01-.51-1.55-.89-3.47.15-7.61,1.44-7.65h0Zm-6.92,1.03s1.53,1.98,2.16,2.69c.22.38.21.48-.14.62-.61.23-2.63-1.12-3.43-1.54-.43-.35-.24-.61-.24-.61.55-.42,1.11-.83,1.66-1.16h0Zm60.32.07h0c.82-.01.81.28-.06,1.54-4.86,7.03-3.88,5.99-.79,2.14,1.72-2.14,2.02-2.34,2.21-1.86.14.36-1.91,4.52-2.96,6.03-.55.78-2.41,2.08-3.36,2.57-2.31,1.18-2.06.7-1.2-2.21,1.09-4.53,3.83-8.17,6.16-8.19h0Zm-63.18,2.43c13.34,33.33-23.18,47.96-39.66,32.55l1.92-1.54c22.92,15.62,45.54-9.41,35.19-28.99,0,0,.94-.78,2.55-2.02h0Zm3.09.81c2.2.23,5.44,4.26,5.6,6.51.35,1.6-.1,1.87-.88.75-1.32-2.44-1.16-.89-.04,1.53.59,1.23.73,2.69.11,2.77-.84-.17-2.67-3.1-3.23-4.31-1.33-2.65-1.43-2.2-2.16-6.12-.14-.73.05-1.13.59-1.14h0Zm-6.64,1.09c10.16,19.58-11.69,43.1-33.92,27.9l6.66-5.31c11.6,5.59,24.54-1.34,20.84-17.42l6.42-5.17Zm95.37,2.25c2.1-.06,4.17.39,5.98,1.4l-18.33,15.35c-2.95-9.94,4.86-16.55,12.35-16.75Zm-28.07,1.37h0c.6-.13,1.11,3.73,1.22,9.13.11,5.29.24,5.81-1.39,3.87-.69-.79-1.53-1.55-1.9-2.26-1.09-2.06-.74-4.23-.44-7.25.28-2.82,1.28-2.38,1.12.57-.11,1.9-.08,4.26.21,4.26.11,0,.14-.18.07-.44-.14-.54.51-6.66.77-7.39.12-.31.23-.47.34-.49h0Zm-50.5,2.33c1.32.52,1.7,4.96.27,9.25-.62,1.84-1.56,3.05-2.97,3.79-1.01.53-1.24.36-.79-.56.84-1.51,1.28-3.07,1.62-5.02.14-1.9-.86-.37-.78.44-.78,3.54-1.81,4.08-1.67.34.1-2.75.46-3.93,1.74-5.82.65-.95,1.34-2.25,2.58-2.43h0Zm45.97.45c.54,0,.68.74.19,2.17-.34.99-1.49,4.2-1.35,4.19.08-.01,1.32-2.9,1.57-3.37.41-.77.57-.92.93-.89.35,1.43-.01,3.21-.18,4.68-.75,3.85-3.36,7.82-4.36,6.64-1.63-1.93-.87-9.73,1.29-12.11.81-.89,1.49-1.33,1.91-1.33h0Zm-69.8.59c1.97,13.62-9.21,19.43-18.87,15.32.2-.05,18.87-15.32,18.87-15.32Zm45.7.25l1.95,2.57,3.57.19-1.83,2.71,1.82,3.47-3.98.08-2.29,2.65-1.99-2.39-3.48-.19,2.03-3.25-1.64-3.11,3.76-.18,2.09-2.53Zm-29.94,1.17c.45.02,2.65,2.92,2.87,4,.66,2.6.42,7.52-.51,7.35-1.01-3.54-.62-5.37-.98-4.97-.63.65.39,6.08.06,7.42-.16.34-.7-.07-1.31-.95-1.62-2.34-1.4-11.49-.16-12.84.01-.01.02-.01.04-.01h0Zm119.15,5.52l-44.03,36.66,2.54,3.28,41.57-34.49-.08-5.45Zm-63.6.63c.19-.04.63.27,1.46,1.18,1.44,1.96,2.97,4.64,3.52,6.71.21.8.55,1.87.76,2.37.31.75.33.96.15,1.18-.76.94-3.95-1.43-4.98-3.71-1.45-3.2-1.48-6.08-.03-3.27.53,1.02,1.18,2.51,1.17,1.92,0-.17-.64-2.31-1.13-3.27-.3-.6-1.41-3-.92-3.1h0Zm63.13.89l.09,3.04-41.01,34.47-1.61-1.97s38.63-32.29,42.53-35.54h0Zm-64.03,1.88c.19.02.29.3.23.91-.19,2-.68,6.37-.58,6.75.06.23.65-2.89.78-3.44.7-2.89,1.77,4.02,1.13,7.12-.1.49-.31,1.27-.41,1.75-.11.48-.45,1.31-.59,1.52-1.16,1.84-3.89-5.47-3.43-9.2.29-2.32,2.18-5.49,2.87-5.42Zm-47.44,1.6c.54-.03.64.5.55,1.61-.31,3.81-2.83,7.82-5.6,8.88-2.75,1.06-3.01.85-1.38-1.13,1.24-1.5,1.99-3.07,1.78-3.28-.12-.11-.39.52-1.39,1.81-1.26,1.62-1.46.25-.32-2.13.99-2.06,1.91-3.13,3.76-4.39,1.31-.89,2.12-1.35,2.6-1.37h0Zm24.94,1.16c-.55,16.42-4.63,34.26-12.49,49.77l-7.35.02c9-13.32,14.74-29.81,16.34-49.71l3.5-.07Zm3.23.02s1.1,1.15,1.55,1.92c.49.85.63,1.6-.27,2.24-1.04.89-1.48.56.22,2.75.9,1.16.6,1.35-.51,2.32-1.15,1.01-1.21,1.06-.15,2.42,1.14,1.46,1.35,1.68-.14,2.8-1.34,1.01-1.36,1.25-.31,2.9.96,1.52,1.26,1.5-.59,3.07-1.58,1.34-1.62.97-.09,3.44.56.91.52.97-.5,1.88-2.52,2.24-2.4,2.1-2.04,2.69,2.77,3.98,1.52,3.87-1.19,5.77-.55.47-.41,1,.82,2.99,1.04,1.69.89,2.06-1.54,3.74-2.53,1.75-2.62,1.99-1.35,3.77,1.25,1.76,1.28,1.64-.75,3.45-.91.82-1.66,1.58-1.66,1.58h-4.49s.95-.87,1.59-1.35c3.68-2.74,3.67-2.45,2.12-4.43-1.38-1.75-1.24-1.87.15-2.87,1-.72,2.35-1.46,3.37-2.2.55-.39.14-.72-.77-2.44-1.02-1.94-1.07-1.71.82-3.28,2.08-1.72,2.11-1.65.98-3.83-1.13-2.18-1.14-1.99.28-3.16,2.12-1.74,2.22-1.64,1.1-3.66-.89-1.61-.9-1.56.6-3.07,1.51-1.52,1.32-1.42.43-2.81-.91-1.41-.86-1.6.34-2.68,1.29-1.16,1.11-1.09.03-2.56-1.06-1.46-1.04-1.35.25-2.48.68-.59,1.35-1.2,1.32-1.48-.1-.72-.78-1.74-1.44-2.72-.25-.37.25-.49,1.05-1.33.82-.85.78-.64.16-1.77-.33-.61-.97-1.65-.97-1.65h1.57Zm-12.03.04h0l1.28.03s.22.29.52.6c.82.84.86,1.34.03,1.79-.79.43-.49,1.04.17,2.02.7,1.04.7.92-.31,1.93-1.04.85-1.58,1.09-.43,2.69.65.74.57,1.51-.44,2.18-.78.51-2.07.94-.71,2.89.66,1.39.72,1.3-.67,2.29-1.84,1.31-2.19,1.09-1.34,3,.94,2.13,1.03,2.16-.9,3.59-2.24,1.66-2.32,1.8-1.39,3.78.94,2.01.97,1.5-1.41,3.35-1.74,1.36-2.14,1.44-1.62,2.57.97,2.11,1.38,2.68-1.44,4.13-3.25,1.67-3.42,1.8-1.86,4.29,1.27,2.03.99,1.74-1.11,2.95-3.03,1.75-4.37,2.52-4.47,3.06-.06.62,2.36,2.45,2.36,2.45l-4.23.12s-1.78-1.45-2.47-2.13c-1.91-1.87-1.93-1.26,4.43-4.36,3.51-1.71,3.22-1.32,2.64-2.32-1.69-2.95-1.75-3.26,1.43-4.86,2.76-1.4,2.29-1.5,1.61-3.61-.58-1.84-.49-1.67.96-2.75,3.52-2.62,3.42-2.35,2.87-3.64-.54-1.26-.95-1.85-.55-2.48,1.27-1.83,3.96-2.21,2.86-4.39-.51-1.4-.7-1.72.85-2.93,1.4-1.17,1.41-1.03.51-2.58-1.09-1.42-.93-1.65.66-2.77,1.14-1.05,1.12-1.02.48-2.04-.88-1.41-.84-1.45.42-2.56,1.02-.9,1.2-.95.55-1.95-.87-1.32-.72-1.61.42-2.26.7-.4.7-.56.64-1.23-.01-.13-.38-.87-.38-.87h0Zm15.88.08l5.89.02c1.88,10.98,5.17,15.48,7.07,18.96-7.45,12.02-5.75,22-1.21,30.83l-18.66-.07c4.78-16.44,7.25-32.99,6.91-49.73h0Zm-40.43.04c.22-.02.37.34.74.96,1.18,2.02.35,4.89-1.38,7.89-1.29,2.25-1.53.53-.94-2.71.37-2.04-.65,1.02-1.14,3.48-.26,1.34-.9,2.41-1.59,2.35-.65-.11-.45-1.98-.43-2.39.15-2.95,1.24-5.04,3.37-7.97.8-1.11,1.13-1.6,1.38-1.62h0Zm60.13,5.77c.28-.01.67.1,1.15.38.38.22,1.05.63,1.52.89,1.63.9,1.77,1.18.99,2.09-.96,1.12-1.58.7-3.24-1.18-1.12-1.26-1.14-2.15-.42-2.18Zm-.54,2.47c.26.01.81.29,1.34.9,1.08,1.24.95,2.28-.24,1.99-.49-.71-.74-1.8-1.2-2.61-.11-.18-.05-.28.11-.28Zm52.61.16c-1.04,0-2.79,1.39-3.12,2.79-1.01,4.29-1.01,4.11-.11,4.73.27.18.47.32.6.4.53.42,1.26,1.07,1.36.94.87,0,2.18-5.5,2.14-6.63.05-1.2.1-1.34-.2-1.89-.13-.25-.37-.35-.66-.35h0Zm-53.41.09c.07-.01.16.02.26.11.68.68.96,1.91,1.31,2.78,0,.19-.08.5-.17.69-.59,1.14-1.51.03-1.6-1.93-.05-1.1,0-1.61.21-1.65Zm53.25.85h.13c.7.03.59.76-.38,1.81-.51.56-1.57.82-1.92.47-.51-.5.54-1.87,1.68-2.2.19-.05.35-.08.48-.09h0Zm-118.31.6h.11c.37.02.67.19.91.47.47.58.27,1.48.05,2.22-.55,1.96-4.21,5.76-5.53,5.78-.78-.14,2.49-4.31,2.59-5.01-.24-.24-2.27,2.11-3.22,3.74-.43.74-.92,1.65-1.18,1.81-.68.08-1.47.51-1.47.05.11-2.09,4.18-6.63,5.56-7.89.85-.8,1.58-1.16,2.18-1.18h0Zm9.79.2c3.14-.03-3.04,6.87-7.04,7.86-1.25.31-3.54.39-3.71.13-.16-.26.02-.47.53-.61.82-.22,4.91-2.83,4.91-3.14,0-.39-1.69.25-3.13,1.19-.93.61-1.37.48-.87-.25,2.35-3.39,5.49-5.15,9.3-5.19h0Zm54.32.01c.18.01.36.37.47,1.16.57,1.48.6,1.88.06,2.32-.92.74-1.15.54-1.13-1.18.01-1.41.31-2.33.61-2.31h0Zm-103.37,1.96s1.14.43.67.98c-.33.38-1.74.06-1.74-.05l1.07-.92Zm157.65.04c.37-.02.38.32.18,1.2-.1.46-.55,2.88-1.35,3.55-.1.06-1.26-.63-1.57-.95-.14-.15-.6-.49-.66-.71-.2-.73.01-1.68.57-2.15.22-.19.65-.29.88-.29.18,0,.72-.18,1.2-.39.33-.15.58-.23.75-.25Zm-157.24,1.67c.75-.01,1.68.08,2.46.34,2.31.68,6.56,2.59,7.21,3.21.95.91-1.53,1.89-4.51,1.92-1.58.02-1.88-.31-4.07-1.63-.28-.19-1.56-1.03-1.19-1.33.41-.42,1.63.12,3.15.9.5.25,1.7.18,1.7-.04,0-.26-3.04-1.4-5.32-2.13-1.5-.48-1.46-.96-.54-1.16.26-.04.65-.07,1.1-.07h0Zm-2.99,1.04s.63.56,1.45,1.18c.89.67,1.92,1.49,2.63,2.59,1.04,1.27,2.67,4.43,2.49,5-.42,1.31-4.79-.99-8.37-4.59-1.16-1.17-1.84-2.04-1.84-2.04l1.36-1.24s1.2,1.01,2.59,2.24c2.6,2.3,2.58,1.51-.03-.91-.74-.69-1.42-1.3-1.42-1.3.03-.44.45-.83,1.15-.92h0Zm106.86.11s1.4,1.46,1.92,2.13c-8.51,8.36-11.76,20.05-3.55,32.49l-3.94-.02c-7.39-14.61-3.88-25.6,5.57-34.6Zm-71.99.34c.53-.02.05.6-.89,2.21-1.75,3-2.1,3.76-4.95,4.5-.73.19-1.78.04-2.21.09-1.22.15-.68,0,1.2-1.22,2.6-1.69.39-.82-2.01.42-1.39.72-2.85.68-2.98.31-.07-.21.56-.75.97-1.12,3.66-3.29,4.78-3.15,8.19-4.34,1.49-.52,2.32-.84,2.68-.86Zm-15.3,2.99h0c1.33.01,2.56.15,3.66.39.73.17,1.91.31.91,1.22-1.13,1.07-4.19,2.53-6.45,2.63-.32.01-4.98-.32-3.98-1.32.2-.11.83-.08,1.38-.19,2.58-.49,1.88-.91-1.29-.74-3.98.21-4.16-.2-1.15-1.03,2.2-.61,4.37-.92,6.35-.96.19,0,.38-.01.57-.01h0Zm21.26.32c1.77-.02,3.15.3,3.15.98.01,1.1-3.34,3.51-5.54,3.99-.52.11-1.25.27-1.64.36-.77.17-5.02.03-5.43-.13-1.99-.73-.61-1.01,3.04-1.44,1.59-.19,2.35-.6,2.34-.91,0-.15-1.17-.19-2.91.03-1.95.25-1.56-.33.86-1.59,1.6-.83,4.12-1.28,6.13-1.3h0Zm-32.77,1.52c.25.01.84.21,1.84.63,2.12.62,5.03,1.32,7.03,3.51,1.61,1.57,2,2.07,1.66,2.62-.41.67-5.41.16-7.51-.74-1.39-.6-3.04-1.88-3.8-2.98-1.83-2.68-1.06-3.39,1.27-1.52,2.81,2.26,3.22,2.49,3.72,2.39.2-.04-.29-.51-1.23-1.21-2.36-1.76-3.52-2.71-2.97-2.7Zm17.29,2.88c2.35,0,2.86.18,5.14,1.23,2.86,1.01,2.16,1.91-2.9,3.18-2.54.6-5.09.18-6.95-.97-4.08-2.53-3.81-3.03.75-1.9,1.5.37,2.99.44,3.08.16.07-.22-1.74-.68-3.21-1.17-1.59-.53-.22-.49,2.96-.52.42,0,.79-.01,1.13-.01h0Zm117.53,10.91s-.52.25-.75.38c-.18.1-1.59.28-3.14.39-5.2.3-9.22,1.56-11.59,6.07,2.09-.14,13.89,2,17.16-2.27.69-.89-1.76,6.75-3.02,7.09-3.11-.38-4.42,4.53-4.11,4.32-3.14,1.22-5.57,1.94-4.77,5.6.35,1.6,1.96,3.49,5.37,3.01-.93,6.35,6.8,7.99,7.65.34,0,0,1.51-.29,2.09-.36,3.52-.84,4.38-6.01-.79-7.65-1.43-.43-1.52-.7-1.52-.7.27-1.17.2-2.39-.64-3.75,1.14-2.73,3.98-8,3.98-8l-5.92-4.47Zm-.43,1.4c.5,0,.86.04.98.18.71.95-3,2.54-6.94,2.88-.89.08-2.83.26-2.88.34-.43.75,7.63.2,10.14-1.21.86-.48.94-.06.56.69-2.91,3.77-9.95,2.84-15.45,2.18-.31-.32-.05-.71,1.19-1.71,2.26-1.84,3.89-2.46,7.46-2.83.75-.02,3.45-.51,4.95-.52h0Zm3.98,2.96c.81-.06,1.4.53,1.36,1.12-.51,1.62-3.16,6.57-3.16,6.57-.33.33-1.48.56-1.4-.69.01-1.34,2.52-6.88,3.19-6.99h0Zm4.88.18c-.87.06-1.83.62-1.85,1.31.78,5.67,5.06,7.02,9.17,8.81,1.08.5,2,1.38,3.09,1.96,2.03-2.78-.26-8.19-3.84-9.95-2.66-1.25-5.08-2.24-6.57-2.13Zm.35.97c4.39-.15,9.99,3.48,10.37,7.96.03.14.21,2.89-.41,2.79-.94-.27-1.45-1.23-2.97-1.86-3.15-1.5-7.4-2.84-8.36-6.92-.16-1.15.22-1.26,1.18-.34,2.15,1.72,4.27,2.31,6.4,3.97.59.46,2.71,1.64,1.26.17-.98-1-3.87-2.73-5.4-3.47-2.13-1.03-3.29-2.28-2.07-2.29h0Zm-161.15,5.6c-.67,0-1.36.02-2.07.07l24.3,38.17c-5.98,3.17-8.93,4.56-18.86,3.78l.04.5-4.22-.25c7.29,11.43,16.28,26.35,13.73,52.36l29.77-.03c.57.81.68.6,1.39-.04l13.37-.07.36.44,6.22-.04s-28.46-53.53-42.76-80.11c-5.51-10-11.22-14.78-21.28-14.77h0Zm151.13,1.33c1.6-.04,3.18,1.06,3.19,3.2.01,1.12-.93,2.67-.93,2.67l-2.17-2.08-2.07,2.08c-1.02-.85-1.62-2.46-1.29-3.38.64-1.57,2.03-2.47,3.27-2.5h0Zm-25.13.76c2.06,8.05,4.27,19.16-13.55,44.82-10.55,15.18-14,29.5-14.42,46.98h-1.06c.5-9.58.57-26.97.57-26.97l.99-.89s-.45-.74-.65-1.61c-.34-1.46-.05-.98.82-4.9,3.64-18.97,27.31-57.42,27.31-57.42h0Zm-95.21,3.69l90.37.42-1.2,2.38-87.45-.63-1.72-2.17Zm120.46.69l3.36,3.28-3.28,3.7-3.45-3.63,3.38-3.36Zm-5.69.1c.98-.02,2.03.38,2.93,1.29l-1.83,1.96,1.59,1.68c-1.63,3.45-5.98.76-5.84-1.82.11-1.89,1.52-3.08,3.15-3.11h0Zm10.96.31c1.65-.02,2.91,1.57,3.08,3.11.26,2.38-3.43,5.07-5.31,1.76l1.46-1.86-1.65-1.82c.84-.84,1.67-1.18,2.42-1.19Zm-5.26,1.38l-1.63,1.64,1.63,1.64,1.63-1.64-1.63-1.64Zm-104,1.21l7.4.07-2.75,5.18-7.51-.03,2.85-5.21Zm16.49.04h6.8l-2.87,5.25h-6.88l2.95-5.25Zm16.06,0h7.21l-2.93,5.25h-7.41l3.12-5.25Zm16.14,0h7.38l-2.69,5.25h-7.66l2.96-5.25Zm16.44,0h7.11l-2.88,5.25h-7.32l3.09-5.25Zm-78.56.02h4.78l-1.95,3.46-2.83-3.46Zm115.46,3.2l2.05,1.89,1.69-1.77c2.74,2.21.84,5.83-2.01,5.9-1.96.04-4.81-3.29-1.73-6.01Zm-96.82,2.91h6.95l-2.62,4.72h-6.81l2.47-4.72Zm15.45.04h7.63l-2.69,4.72h-7.25l2.32-4.72Zm16.33,0h7.59l-2.47,4.72h-7.66l2.55-4.72Zm16.27,0h7.53l-2.34,4.72h-7.96l2.77-4.72Zm-62.08.18h4.8l-2.05,3.78-2.75-3.78Zm3.62,5.48l70.44.63-1.2,2.29h-67.45s-1.79-2.92-1.79-2.92Zm2.47,4.11l66.01.16-1.52,3.18-22.8-.1c-4.45-3.34-9.54-1.8-15.34.1,0,0-17.46.18-24.32,0l-2.02-3.34Zm-21.95,13.46l34.81,55.22-7.7-.09-33.06-51.95,5.94-3.19Zm-6.98,3.6l32.87,51.61c-1.51-.03-2.91.06-4.42.04.61-9.64-7.11-14.16-11.64-14.39,2.72-11.27-5.46-16.02-10.91-16.91,2.21-14.65-9.86-16.73-10.03-16.58.06-1.2-.17-2.07-.33-3.07,1.45-.06,2.92-.2,4.46-.69h0Zm-5.32.82c-.07.31.62,3.23-.68,2.69l-.09-2.69h.77Zm-8.45.02l1.53.06c.47,1.94,1.46,2.33,2.81,3.63,0,0-1.72.3-2.12.02-.72-.5-2.21-3.71-2.21-3.71Zm6.67,3.34c.83,0,1.51.68,1.51,1.52s-.67,1.51-1.51,1.51-1.51-.68-1.51-1.51.67-1.52,1.51-1.52Zm2.99,1.17c4.32-.28,10.59,4.37,8.94,13.1-.29-.61-.63-1.95-1.33-2.9-2.98-4.04-6.49,1.5-4.13,3.75,1.16,1.11,1.7,1.54,1.58,1.65-2.66-.51-4.68,1.86-3.57,4.49,1.85,3.41,4.42,1.6,5.9-.42,0,0,.92,3.05,1.83,3.44,1.39.59,3.31-.16,3.97-1.85.97-2.52-1.4-3.16-1.92-4.56,5,.16,11.37,7.51,8.47,13.88.38-1.45-1.17-4.7-4.18-3.87-1.5.53-2.03,2.73-.82,5,.39.72.6,1,.6,1,0,0-1.3.17-1.64.38-3.91,2.42,1.13,9.01,4.04,4.89.3-.49.78-1.05.78-1.05.48.92.63,2.21,1.5,2.65,3.6,1.82,5.2-2.02,3.69-3.91-.85-1.06-1.81-2.29-1.81-2.29-.15-.68,10.79,2.2,9.46,12.9l-29-.04c2.69-16.43-3.82-35.22-7.14-40.95l1.44-1.91c.36.71.96,2.5,2.02,2.84,3.36,1.09,4.39-1.28,3.94-3.71-.24-1.29-2.04-2.33-2.62-2.52h0Zm7.68,15.46c.79,0,1.43.65,1.43,1.44s-.64,1.44-1.43,1.44-1.44-.64-1.44-1.44c0-.79.64-1.44,1.44-1.44Zm10.88,17.12c.8,0,1.45.65,1.45,1.45s-.65,1.45-1.45,1.45-1.45-.65-1.45-1.45.65-1.45,1.45-1.45Z"/>
      </g>
    </g>
    <path id="uuid-b160c48e-92e9-40b9-9462-a8fb9ed03599" data-name="path147-0-8-1-3-6-7-5-8" class="uuid-46d916f0-3426-4d53-8f6b-b8af8fecf82d" d="m182.87,313.29c11-.24,15.93-12.63,7.78-22.26-1.18-1.4-1.3-2.21.86-.86,5.48,3.67,16,1.26,16.53-9.96.67-13.82-18.63-17.81-22.26-3.11-.19,1.55-1.45,1.52-1.15-.69.33-5.98,2.19-11.56,4.76-17.01h-13.07c2.56,5.45,4.43,11.03,4.76,17.01.3,2.2-.96,2.24-1.15.69-3.62-14.7-22.92-10.72-22.26,3.11.54,11.22,11.05,13.63,16.53,9.96,2.16-1.35,2.04-.54.86.86-8.14,9.62-3.21,22.02,7.78,22.26,0,0,0,0,.01,0h0Z"/>
    <path id="uuid-6c092790-56aa-4b6c-8090-d1b401625aa1" data-name="path147-0-8-1-0-3-83-6-6-4" class="uuid-46d916f0-3426-4d53-8f6b-b8af8fecf82d" d="m66.92,36.69c11,.24,15.93,12.63,7.78,22.26-1.18,1.4-1.3,2.21.86.86,5.48-3.67,16-1.26,16.53,9.96.67,13.82-18.63,17.81-22.26,3.11-.19-1.55-1.45-1.52-1.15.69.33,5.98,2.19,11.56,4.76,17.01h-13.07c2.56-5.45,4.43-11.03,4.76-17.01.3-2.2-.96-2.24-1.15-.69-3.62,14.7-22.92,10.72-22.26-3.11.54-11.22,11.05-13.63,16.53-9.96,2.16,1.35,2.04.54.86-.86-8.14-9.62-3.21-22.02,7.78-22.26,0,0,0,0,.01,0h0Z"/>
  </g>
</svg>