<?xml version="1.0" encoding="UTF-8"?>
<svg id="uuid-2312ea76-db02-4a9d-881c-4280cc1b67e7" data-name="Cards" xmlns="http://www.w3.org/2000/svg" viewBox="0 0 250 350">
  <defs>
    <style>
      .uuid-987204d8-552b-4149-a1a1-58b46e796020, .uuid-18110a65-36d3-4324-bd6f-ea7b918241b6, .uuid-45051e4f-59ef-4333-8829-3c13cf036559, .uuid-af8f73b2-6e1d-4552-b6a4-7bbc9eed5a7a, .uuid-240e7b64-8759-437e-be14-76789819b3e4 {
        stroke-width: 0px;
      }

      .uuid-18110a65-36d3-4324-bd6f-ea7b918241b6 {
        fill: #c8102e;
      }

      .uuid-45051e4f-59ef-4333-8829-3c13cf036559 {
        fill: #fff;
      }

      .uuid-af8f73b2-6e1d-4552-b6a4-7bbc9eed5a7a {
        fill: #ffcd00;
      }

      .uuid-240e7b64-8759-437e-be14-76789819b3e4 {
        fill: #004c97;
      }
    </style>
  </defs>
  <g id="uuid-26a16a37-6010-47ed-a838-ca88f35e5bfa" data-name="CLUB-11-JACK">
    <g id="uuid-ededbbf5-6e9f-4058-ab0b-6bd243dbd21e" data-name="g11322-4-2">
      <path id="uuid-63f5ac6b-b880-4a6d-9be0-bf251fbad4f1" data-name="rect6355-6-85-3-39-1-8" class="uuid-45051e4f-59ef-4333-8829-3c13cf036559" d="m11.86,0h226.08c6.6,0,11.96,5.36,11.96,11.97v326.05c0,6.61-5.35,11.97-11.96,11.97H11.86c-6.6,0-11.96-5.36-11.96-11.97V11.98C-.1,5.37,5.25,0,11.86,0Z"/>
      <path id="uuid-3f676b24-68a5-4fb2-9fab-fb261ef703b9" data-name="path147-6-9-8-7-0-5-6-79-2-4" class="uuid-987204d8-552b-4149-a1a1-58b46e796020" d="m230.61,293.91c4.4-.1,6.37-5.26,3.11-9.27-.47-.58-.52-.92.34-.36,2.19,1.53,6.4.52,6.61-4.15.27-5.76-7.45-7.42-8.9-1.29-.08.65-.58.63-.46-.29.13-2.49.88-4.82,1.9-7.09h-5.23c1.03,2.27,1.77,4.6,1.9,7.09.12.92-.38.93-.46.29-1.45-6.13-9.17-4.47-8.9,1.29.22,4.67,4.42,5.68,6.61,4.15.87-.56.82-.23.34.36-3.26,4.01-1.29,9.17,3.11,9.27h0Z"/>
      <path id="uuid-3df7b99d-21ba-4b5a-8967-02bedd31bb50" data-name="path147-6-9-8-7-4-5-62-3-3-7" class="uuid-987204d8-552b-4149-a1a1-58b46e796020" d="m19.18,56.1c-4.4.1-6.37,5.26-3.11,9.27.47.58.52.92-.34.36-2.19-1.53-6.4-.52-6.61,4.15-.27,5.76,7.45,7.42,8.9,1.29.08-.65.58-.63.46.29-.13,2.49-.88,4.82-1.9,7.09h5.23c-1.03-2.27-1.77-4.6-1.9-7.09-.12-.92.38-.93.46-.29,1.45,6.13,9.17,4.47,8.9-1.29-.22-4.67-4.42-5.68-6.61-4.15-.87.56-.82.23-.34-.36,3.26-4.01,1.29-9.17-3.11-9.27,0,0,0,0,0,0h0Z"/>
      <path id="uuid-ae3d8d05-4751-4d9e-a0c3-484204ded3c7" data-name="path35-5-6-2" class="uuid-987204d8-552b-4149-a1a1-58b46e796020" d="m19.06,15.54v3.88h3.76s.09,3.74.12,11.67c.03,7.7.19,11.52-.3,13.71-1.32,5.05-8.62,5.08-10.07,1.45-.84-2.11-.62-3.76-.66-5.88h-4.04s.02,1.07.03,2.38c.02,5.68,1.9,8.4,6.29,9.47,4.52,1.22,9.8-.64,11.68-4.51,1.12-2.2.99-2.36,1.02-15.69.02-8.89.15-12.59.15-12.59h3.46v-3.88h-11.43Z"/>
      <path id="uuid-da2242ce-a97f-44c7-b106-f181e7423068" data-name="path35-6-4-1-2" class="uuid-987204d8-552b-4149-a1a1-58b46e796020" d="m230.73,334.47v-3.88h-3.76s-.09-3.74-.12-11.67c-.03-7.7-.19-11.52.3-13.71,1.32-5.05,8.62-5.08,10.07-1.45.84,2.11.62,3.76.66,5.88h4.04s-.02-1.07-.03-2.38c-.02-5.68-1.9-8.4-6.29-9.47-4.52-1.22-9.8.64-11.68,4.51-1.12,2.2-.99,2.36-1.02,15.69-.02,8.89-.15,12.59-.15,12.59h-3.46v3.88h11.43Z"/>
    </g>
    <g id="uuid-d48bc636-6d44-4007-9c25-a0a9e4b7c1c9" data-name="g4210">
      <g id="uuid-1c23ff2f-e5d4-4903-92b6-320c141df238" data-name="g4164">
        <g id="uuid-c07efda4-6979-4434-8b74-2284f8cd2407" data-name="g5275-8-4-5">
          <g id="uuid-7898ca93-5be8-43c9-8a2d-d716fdf93d33" data-name="layer1-1-8-4-5">
            <g id="uuid-54ea6017-7abd-4c01-ac7d-09fa14777ee8" data-name="g3799-8-1-3">
              <path id="uuid-032ef518-5b48-405c-b256-b14af2edb148" data-name="path3306-4-9-5" class="uuid-af8f73b2-6e1d-4552-b6a4-7bbc9eed5a7a" d="m180.87,33.61c.96-1.37,5.1,8.22,7.75,15.48,1.31,3.57,3.05,6.51,2.33,7.45-1.89,1.93-6.8.2-10.36-2.55-3.81-2.94-6.5-7.27-6.5-7.27l6.77-13.12Zm33.41,7.11l.15,5.64c-3.28,2.97-7.36,6.62-12.13,12.16l12.17-.02c.84,69.66.76,208.29.66,208.28,0,0-14.15-14.41-13.81-14.46.02,0-.4-83.91-.46-140.36-.11-.27,7.4-.28,7.88-3.97.32-2.44-7.88-2.1-8.01-2.27.02-25.37-.08-43.28-.08-43.28l-7.53-.25,21.14-21.46Zm-44.22,26.12c1.09,2.19,2.84,10.61,4.17,10.41,6.12-2.04,8.09,7.04,1.76,7.51-2.4.18-5.08-2.96-6.58-6.87-.72-2.05.02-11.86.65-11.04h0Zm-1.38,12.63c1.81,2.96,3.53,13.79,6.82,13.18,3-.69,4.92,1.96,4.63,4.27-1.54,6.51-12.54.32-15.43-1.17,1.43-3.27,3.45-11.41,3.98-16.28Zm23.22,30.53c-2.52,5.73-1.84,10.43.29,16.19-6.53,2.81-12.37,5.9-18.81,9.27-.2.65-1.23-22.03,1.21-32.6.73-1.57,3.38-.32,4.91.45,4.14,1.96,8.58,4.17,12.4,6.68Zm-115.96,103.65c1.33,10.66-1.62,34.8-1.62,34.8,0,0-15.77-8.78-16.87-9.46,2.98-5.55-1.09-18.46-.65-16.15,1.05-.74,18.79-10.26,19.14-9.19h0Zm6.51,44.25c-.28.68-1.42,8.67-1.77,8.7-1.15.1-2.83-7.82-5.76-10.43-5.53.64-6.18-3.13-5.1-4.95-.27-.8,1.79-2.54,3.7-2.37,4.77,1.87,11.2,3.53,8.92,9.05Zm63.46,13.63s-4.16,23.46-4.18,23.43c-10.27,1.49-20.18,3.2-29.34,2.16,1.81-24.39,4.65-45.48,12.46-49.14l-16.17-13.07s-17.96,11.25-16.93,11.08c.44-.12.79-9.57,1.06-24.85-.46-39.88-23.3-80.26-24.19-79.86-.48-.32,19.46-1.89,33.8,4.31l.64-52.81s-7.11-3.56-8.42-5.21c-2.62-9.19,4.45-11.54,8.69-9.24,1.98-6.98,5-24.25,5.11-24.24,9.58-1.59,19.48-2.83,29.27-2.26-1.64,8.12-2.68,14.31-3.21,22.47-1.24,12.18-3.72,23.72-10.1,26.47,1.14-.45,15.86,12.6,15.86,12.6l18.09-11.17c-5.82,38.01,4.13,74.92,21.28,104.78-8.65,1-18.44.53-33.71-4.06,0,0,.86,52.92.86,52.62,16.9,6.69,7.68,19.72-.88,15.99Zm-65.73,4.74c-.06.54-.31,6.51-.31,6.51-2.39-2.82-4.32-11.09-4.8-10.95,0,0-3.07.49-4.03-.54-3.12-3.34-.05-7.28,3.06-6.54,3.1.8,6.5,6.13,6.07,11.51h0Zm-31.77-179.41s.66,93.84.65,140.88c-11.82-.19-9.5,6.41.16,5.72l.03,43.37,6.4.22s-12.05,12.64-19.68,20.71l-.18-4.11,11.62-12.6-12.04.02-.04-208.09,13.08,13.88Zm20.1,217.97c-2.92.64-5.96-12.88-11.01-21.08,5.75-3.46,14.81,3.12,16.85,8.41-1.33,4.48-5.92,12.62-5.83,12.67Z"/>
              <path id="uuid-9850783a-0e4a-4ecd-9e70-9f9778f86749" data-name="path3304-4-6-6" class="uuid-240e7b64-8759-437e-be14-76789819b3e4" d="m33.06,26.84v296.33h183.66V26.84H33.06Zm60.44,1.15l88.42.07c-1.24,2.51-2.41,5.74-2.41,5.74,2.7,1.09,4.8,5.16,6.09,8.58,1.14,3.01,3.11,10.36,5.7,13.94-4.54,2.59-15.95-3.19-17.57-11.06l-3.83,6.54c-25.9-5.05-53.92-1.38-62.49-.19-4.21-8.08-10.2-15.29-13.92-23.62h0Zm111.94.94c3.27,0,6.27.02,8.48.05v10.44l-23.14,23.86,9.17.39-.32,41.13c-3.35.7-7.29,4.22-7.29,4.22l-15.55-8.35s4.03-1.7,3.92-4.41c-.16-3.03-1.97-5.51-5.55-4.58-.82.12-1.2-.22-1.99-2.08-1.52-3.56-3.02-7.48-2.43-7.36,1.91,1.53,1.62,1.62,3.87,2.63,4.19,1.16,6.74-2.76,5.41-5.93-1.23-2.93-3.28-3.1-5.34-2.8-.3-.07-.56-.4-.76-.79-.65-1.33-1.64-3.7-2.42-7.35-1.19-5.63-1.46-12.67-.59-14.44,1.2-2.45,2.87-5.76,2.87-5.76,3.24,6.22,10.31,11.67,18.25,9.74.27-.17.32-1.05-.04-1.56-2.93-4.68-3.42-8.71-5.28-13.44-1.95-4.95-3.42-7.2-5.71-9.03l2.49-4.55s12.14-.06,21.94-.05h0Zm-169.51.22h55.89l14.4,24.42c.28.48.7.31,1.02.78l-4.27,22.94c-6.72-3.11-12.37,4.94-8.7,11.47-20.71,7.61-44.55,26.64-44.55,26.64l-.16-18.88-13.62-14.2V29.14Zm178.72,11.39c-.83,23.27.34-2.75-.31,74.23l.45,146.82c.81,2.46,1.15,3.41.84,5.89l-14.35-15.25-.02-42.68s-13.57-20.18-16.7-29.5c-8.28-20.63-10.45-32.62-11.45-49.56l1.5-2.4-1.68-2.16v-5.77s2.22-2.29,2.22-2.29l-2.05-2.61.57-5.38,1.59-1.43c-1.42-1.58-.94-3.82-.69-5.39.41-1.23,1.07-1.06,2.05-.82,5.11,1.39,10.27,5.09,14.99,7.96-.21,2.8-3.65,9.19,1.15,16.24,1.77,1.34,6.92.85,7.37,1.05l-.04,21.7-3.62.21,2.72-3.08-3.7.28,2.51-2.62-3.85-.16,2.83-2.94-3.78.08,2.8-2.84-3.57-.1,2.36-2.6-3.93.3,2.87-3.11-4.21.08,3.19-2.9-4.2.03,1.26-1.44-1.12-.56c-1.14.53-7.94,4.14-7.94,4.14.06.59,5.76-1.54,6.01-1.44,1.72,7.62,9.12,24.46,14,29.38l.34-47.61c.75-.7,1.94-.35,2.7-.66,2.47.13,6.61-4.03,4.45-4.86-1.13-.25-7.39-1.33-7.4-1.64.33-13.56.48-27.67-.1-42.4-1.75-.26-7.47-.59-7.47-.59,0,0,20.97-22.03,21.38-21.58h0Zm-80.99,11.04h0c2.88,0,4.67.28,4.26,1.02-.11.38.68-.79.68-.79,0-.5,20.62.52,30.78,2.47.17,1.41-.19,2.06-.07,4.66-6.21-1.04-10.74,1-12.11,5.39-.83,2.38-.44,4.52.82,10.88,1.23,6.18,1.24,5.51,1.1,6.35-.17.98-1.22,2.07-2.73,3.31-.75.61-.92,1.89-.92,1.89,0,0,.5-.26.78-.63.67-.9,1.54-.8,2.54-1.32,2.33-1.23,2.26-2.41.88-7.49-.5-2.04-1.2-4.04-1.44-6.13,0,0,.8.63,1.75,1.29,1.49.93,2.69,1.95,4.41,2.23-1.67-1.78-3.37-2.53-4.68-4.36,3.25,1.13,6.98.67,8.92-.23,0,0-.4,2.56-.55,6.01-.39,8.72-2.44,18.01-8.2,23.38-8.25,7.69-21.81,2.47-29.33-4.65l-.81,1.24c5.05,4.27,13.8,9.59,22.33,8.55-3.56,2.99-11.43,7.95-11.43,7.95-5.39-3.94-9.37-7.86-15.29-12.12l-1.03.69,16.28,12.99,17.54-11.64s-.73,11.17-1,15.25l7.61-6.77-5.87-8.74,6.22-6.44s-1.05.15.1-1.84c3.48-9.45,3.98-18.58,4.86-28.23.58,3.6,1.25,5.5,2.58,8.77,1.22,3.15,1.69,3.13,3.07,2.67,7.44-.63,4.07,13.82-4.72,4.37-.39-.4-1.02-.89-1.05-.8-.18.58,2.33,8.19,3.31,9.94,1.03,1.85,1.04,2.12,2.57,1.96,2.86-.3,3.83.73,4.12,3.76-.38,5.73-6.54,3.31-10.48,1.55-.36-.28,1.85,2.02,2.64,2.83,1.07,1.1,1.25,1.81,1.25,1.81l-.23,3.04-6.04,5.55,4.96,7.38-.21,2.64-5.3,6.4,5.65,6.17.07,2.2-4.59,6.15,6.15,4.97.3,1.98s-3.95,7.36-3.85,7.62c.09.22,6.67,4.8,6.67,4.8l.66,3.1-2.86,7.85,6.84,3.93,1.25,3.55-1.92,7.28,7.09,3.3,2.02,4.1-1.32,7.65,7.95,2.37,2.11,3.36-.28,6.72,2.03.2v1.95l-2.28-.3-.34,9.28,2.62.23v1.74h-3.3l-1.35-1.38.63-10.43-10.17-1.71-.97-1.31,1.7-9.67-9.55-2.78-1.29-2.34,2.71-10.06-9.62-4.26-.63-1.87,4.08-8.93-8.84-4.32-.55-2.14,4.91-9.2-8.76-6.41.26,1.63,7.07,5.08-4.09,7.85c.04,3.31,2.82,10.87,3.96,14.4l-13.49,9.13c5.78,3.5,13.08,3.39,19.77,4.7,0,0,.29.94.8,1.78,1.95,3.14,3.7,7.14,5.87,11.27-1.6.76-4.01,1-4.01,1-4.76,14.4-.78,34.32-8.94,45.43,0,0-.17.07-.28.1-.76.26-1.3-1.01-1.3-1.88,0-.97.69-1.78,1.6-1.97v-1.01c-1.47.19-2.6,1.45-2.6,2.98,0,.91.4,1.72,1.04,2.28-.37.11-1.44.61-1.44.61l-2.5-2.75,5.51-5.47v-1.83c-2.34,2.45-7.04,7.3-7.04,7.3l3,3.18-1.49.7-2.43-2.69-5.46,5.65-1.4-.96c1.84-2.43,3.04-3.22,5.79-6.1-1.41-1.68-6.7-6.82-6.9-7.01v1.84s5.4,5.28,5.4,5.28l-5.49,5.43s-3.34-1.06-4.67-1.55c1.8,1.49,5.04,2.77,6.8,4.06,7.97,4.73.4,14.51-6.95,12.08-.21-.79-4.02,23.14-4.02,23.14,0,0-24.24,2.4-29.48,2.45.72-3.46,2.01-15.97,2.01-15.97,1.43-12.17,2.53-27.46,10.51-32.51,0,0-1.22-1.31-2.28-1.98-.03.02.94,1,.97,1.11,0,.35-.2.58-.44.76-1.69,1.38-3.75,4.24-3.68,4.31-6.58-5.75-16.89-10.71-23.1-8.65-2.45.52-3.54,2.89-4.84.96,4.39-27.12-1.75-56.28-8.9-77.02,2.25-.8,13.82-8.6,13.82-8.6-5.98-3.67-18.4-2.89-20.48-4.31-.82.46-1.37,1.34-1.37,2.34,0,1.48,1.18,2.67,2.65,2.67.28,0,.54-.04.79-.12.69,1.71,1.28,3.2,1.28,3.2l-7.79-3.41,2.54-8.58-.85-1.9-3.1,11.17,9.94,4.28.67,1.98-4.12,8.47,8.89,5.3.37,1.69-4.78,9.09,8.61,6.65-6.3,8.19,7.75,6.55-.09,1.09-6.42,7.44,6.64,6.87.19,2.78-7.23,6.47,6.25,9.13c-2.6,1.76-4.06,3.77-5.77,5.77l-1.52-.67,5.55-4.23-5.93-8.62-6.25,5.68,3.39,5.56-2.07-.94-1.89-2.98.31-3.05,6.18-5.66-5.31-7.74-.04-1.42s3.3-3.82,5.71-6.66l-6.73-7.47,5.5-7.07-6.92-5.93.2,1.78,5.11,4.34-3.92,4.78c-.28,2.88.34,7.83-1.12,10,2.36,2.33,1.13,7.94-.03,9.76,2.26,2.69.97,8.6-.47,8.85,1.72,2.17,1.04,6.58-.4,8.02-.46.25,6.15,2.65,10.33,5.53-3.47,6.5-2.66,12.62-3.76,14.83-1.5-4.36-3.43-9-5.09-12.35-.18-.35-.54-.27-1.09-.28-6.9-.62-6.24-6.34-1.07-7.81-5.15-2.54-11.85-8.01-15.69-9.46.76-1.58,1.19-4.3,1.31-6.7.38-3.57-1.33-9.04-1.33-9.04l2.19-1.36c.43-1.88,2.88-1.92,3.11-3.26-.52-5.76-11.7-27.83-14.06-30.33-.89,15.75.81,32.84-.04,48.56-10.54-.04-12.79,5.63-.06,6.53-.24,14.26-.01,42.91-.01,42.91l7.53.05s-18.6,19.49-20.35,21.14c-1.59-67.93-1.52-224.93-1.52-224.93l14.21,14.31.16,44.59c4.76,4.85,7.48,11.93,10.32,16.51l7.77,3.8-1.83,6.28.78,1.79,2.43-8.89-8.5-4.07-.9-1.84,1.43-8.38-8.05-2.78-1.39-1.93.5-8.18-1.69-.51v-1.62l1.68.14.6-9.19-2.28-.67v-3.16c1.74.98,3.06,1.97,4.36,3.56l-.8,10.2,10.2,2.06.76,1.08-1.87,10.2,10.71,3.3c-1.1-2.72-2.56-5.27-3.77-7.95,1.47-.43,3.01-.52,4.5-.85.4-13.78-.06-28.11.36-41.06,3.83-1.08,5.71-3.6,8.33-4.31.98,0,1.77.8,1.77,1.78,0,.89-.65,1.62-1.5,1.75v.9c1.34-.14,2.39-1.26,2.39-2.65,0-.94-.48-1.77-1.22-2.25l1.49-.54,2.6,2.96-5.25,5.07v1.53l6.6-6.64-2.92-3.39,1.74-.91,2.66,2.82s5.73-5.9,5.37-6.01c-5.01-6.42-.09-14.28,7.51-11.3,1.71-8.16,3.34-15.52,4.69-23.97-1.79-.22,16.66-2.74,25.3-2.74h0Zm14.06,6.34c-3.41-.06-7.75,1.67-10.44,3-2.47,1.11-2,1.77-.45,1.3,2.24-.6,4.62-1.2,6.8-1.62,2.33-.46,5.73-.04,7.5.84,1.31.65,1.77.27,1.19-.99-.83-1.81-2.55-2.49-4.6-2.53h0Zm17.35,2.72c1.52.05,3.03.68,4.16,2.19l-.06,1.39c-2.72-2.4-7.32-1.57-9.9-.19.74-1.91,3.27-3.47,5.8-3.4h0Zm-21.47,1.44c-2.29.02-4.48.43-6.16,2.14,3.3-1.35,8.13-1.48,11.64-.09.71.25,1.89,1.17,1.89,1.17l-.48.31s-1.02-.03-1.91-.35c-3.2-1.13-7.16-1.33-10.74.29-.92.41-1.67.95-2.6,1.26l.02,1.1c1.37.02,2.66.74,3.58,1.26,3.14,1.74,4.68,1.57,7.67,1.55.7,0,1.58-.23,1.58-.23,0,0-1.19.93-2.05,1.21-2.24.98-3.82,1.11-5.92,2.3,3.18-.26,7.77-1.53,10.45-3.48,1.84-1.44,2.34-1.8,1.56-2.37-.71-.53-1.26-.54-.28-1.55.35-.36.94-1.11.94-1.26-.01-.72-4.35-3.04-6.88-3.2-.77-.05-1.54-.09-2.31-.08h0Zm20.62,1.53c1.72-.07,3.32.42,4.79,2.11l-.08.79c-3.31-2.58-7.22-1.6-10.26-.55.83-1.09,2.56-1.85,3.79-2.12.6-.12,1.18-.21,1.75-.23h0Zm-22.4,2.99l.73.02c.67,3.61,3.43,2.79,4.05.22l.86.25c-.71,1.86-1.75,2.62-2.73,2.66-1.44.06-2.78-1.41-2.9-3.14h0Zm-.92.01c.18.99.97,2.46,1.22,2.69-.13-.03-1.59-.37-2.06-.58-1.86-.81-2.05-1.12-1.1-1.63.64-.34,1.26-.46,1.94-.49h0Zm21.55.64c.21.01.38.06.44.1.47,2.92,2.67,2.31,3.21.37.25-.02.57.02,1,.17-.78,1.55-1.88,2.31-2.89,2.31-1.14,0-2.16-.97-2.45-2.87.23-.08.49-.09.7-.08h0Zm-14.29.02s1.19.51,1.46.94c.19.42-.25.75-1.17,1.04-.42.13-1.65.16-1.65.16.71-.69.87-1.16,1.36-2.14Zm12.48.09h0c.1,0,.18,0,.26.02.32,1.79.81,2.04,1.24,2.73-1.32.1-3.48-.92-3.58-1.42v-.33c.24-.43,1.4-.97,2.08-1h0Zm7.16.81l.96.5-.13.73c-.76.35-1.56.59-2.41.68.51-.36,1.05-1.17,1.58-1.91h0Zm-17.23,9.45c-.62.04-1.62.74-2.31,1.68-2.72,3.71.27,7.45,4.04,5.31.85-.48,2.03-.63,2.89-1.2,1.82-1.26.11-2.31-1.15-2.05-.52.12-1.12.38-1.78.82-2.28,1.52-3.54,1.3-3.76-.54-.23-1.99,2.82-2.89,2.53-3.82-.1-.15-.26-.21-.47-.2Zm-4.34,10.69c-.31.09-.61,1.15-1.26,2.89-.45,1.11-.59,2.03-.14,2.03.15,0,.37-.11.66-.34.84-.56,2.15-1.31,5.32-.44,1.74.58,3.7.07,4.84-.25.89-.25,2.16-.5,3.18-.03.99.48,2.08,1.21,1.88.46-.05-.19-.11-1.29-.13-1.95-.03-1.54-.14-2.82-1.24-1.61-.48.52-1.05.53-2.14.1-.77-.31-1.31-.51-1.91-.12-.85.56-1.58.7-3.14.16-.74-.25-1.52-.28-2.46.31-1.56.97-2.55.03-3.15-.96-.12-.2-.22-.27-.32-.24h0Zm-48.18,2.04l-6.12,6.31,5.88,6.18v-1.48l-4.4-4.64,4.21-4.31c.61-.85,2.18-.66,2.68-.72-.34-1.05-1.28-.92-2.25-1.33Zm-.24,3.76c-1.35.12-2.42,1.25-2.42,2.65s1.07,2.53,2.42,2.65v-.9c-.86-.12-1.53-.85-1.53-1.75s.67-1.64,1.53-1.75v-.89Zm50.15.13c-.13,0-.21,0-.26.05-.42.36,1.06,1.78,2.47,2.05,1.08.2,2.48.04,2.48.21-.59.15-1.29.46-1.59.67-.07.44.26.9.64.96.41.07.74-.37,1.05-.49.26-.1.63-.04.92-.04.92,0,2.07.66,2.32.54.29-.14.34-.82.18-1.02-.56-.44-1.27-.62-1.98-.81,0,0,.83-.18,1.15-.26.47-.11.85-.14,1.14-.57.19-.27.2-.73-.12-.72-1.84.03-4.18.79-6.38.05-.94-.34-1.64-.58-2.02-.61h0Zm18.74,2.44l-6.05,5.21,5.17,7.59,6.6-5.34-4.25-6.56-1.48-.89Zm-76.15,1.23l-6.24,6.65,6.5,6.57,6.31-6.35-6.57-6.87Zm75.98,3.45c.92,0,1.66.75,1.66,1.68s-.74,1.67-1.66,1.67-1.66-.75-1.66-1.67.75-1.68,1.66-1.68Zm-75.84,1.69c.92,0,1.66.75,1.66,1.67s-.75,1.67-1.66,1.67-1.66-.75-1.66-1.67.74-1.67,1.66-1.67Zm68.08,1.16l4.57,6.73-5.53,4.77c.09-1.12.15-2.02.21-2.85,1.24-.37,2.15-1.53,2.15-2.89,0-1.21-.71-2.26-1.74-2.74.08-.86.19-1.82.34-3.02Zm-76.06,1.22v1.8l5.08,5.26-5.08,5.33.1,1.71,6.76-6.94-6.87-7.15Zm15.09.4l-6.3,6.69,6.3,6.58v-2.12l-4.32-4.57,4.32-4.46v-2.12Zm102.97.48h0c.96-.03,2.01.07,3.21.29-.55,2.18,1.75,3.35,2.08,2.87.04,0,.22-.39,0-.41-1.65-.2-1.52-2.18-1.32-2.19,1.82.06,3.01.03,3.19.84.11.5-.18,1.28-1.24,2.16-1.25,1.01-7,.98-7,.98-.02,0,.01,1.64-.56,2.59-.51.83-1.21,1.76-.73,2.14.83.39,1.39,1.32,1.51,2.4.22,2.26-.13,7.71-.05,7.77-.97.09-2.08.2-3.15.2-1.78,0-3.44-.31-4.12-1.5-2.73-3.68-1.94-11.23-.06-13.83,3.18-2.91,5.33-4.21,8.22-4.31h0Zm-27.92,1.04l-.12,1.53c-1.32.31-2.3,1.51-2.3,2.94,0,1.26.77,2.34,1.86,2.79l-.17,2.16-3.82-5.4,4.55-4.02Zm-14.53.98c.5.36.84.96.84,1.63,0,.77-.43,1.44-1.06,1.77.08-1.28.14-2.33.23-3.4h0Zm-60.52,1.5c-1.25.24-2.21,1.3-2.21,2.62s.96,2.41,2.21,2.62v-.91c-.76-.2-1.32-.88-1.32-1.71,0-.83.56-1.52,1.32-1.72v-.91Zm-15.03.1c-.04.35.01.65,0,.9.98,0,1.77.8,1.77,1.78s-.79,1.78-1.77,1.78c-.03.37.02.73,0,.89,1.47,0,2.66-1.19,2.66-2.67s-1.19-2.68-2.66-2.68h0Zm89.88.04l-.28,3.55c-.57-.35-.94-.98-.94-1.7,0-.83.5-1.55,1.22-1.85Zm-7.1,2.61l-6.55,6.56,6.33,7.02,5.79-6.29-5.58-7.29Zm-74.98.66l-6.25,6.71,6.38,6.57,6.47-6.48-6.61-6.8Zm74.72,4.5c.92,0,1.66.75,1.66,1.68s-.75,1.67-1.66,1.67-1.66-.75-1.66-1.67.74-1.68,1.66-1.68Zm-74.57.65c.92,0,1.66.75,1.66,1.67s-.74,1.67-1.66,1.67-1.66-.75-1.66-1.67.75-1.67,1.66-1.67Zm66.47,1.57l.02,1.67,5.59,5.89-5.23,6.14.12,1.8,6.7-8.04-7.19-7.47Zm-74.37.6c-.09.55-.09,1.1-.12,1.65l5.26,5.35-4.97,5.16-.19,2.01,6.89-7.01-6.87-7.17Zm14.97.87l-6.05,6.28,6.05,6.14v-1.9l-4.18-4.28,4.18-4.29v-1.96Zm74.07,1.78l.03,1.48c-1.07.46-1.81,1.53-1.81,2.77s.8,2.38,1.93,2.81l.03,1.52-4-4.24,3.82-4.35Zm-116.84.7l1.95,2.38c-.33.45-.53,1-.53,1.6,0,1.48,1.19,2.67,2.66,2.67.42,0,.81-.1,1.17-.27l2.37,2.89-8.12-1.54.5-7.72Zm27.68.75v.89c.96.02,1.74.8,1.74,1.78s-.78,1.76-1.74,1.78v.89c1.45-.02,2.63-1.2,2.63-2.67s-1.17-2.65-2.63-2.67Zm74.51.19v1.05c.77.28,1.32,1.02,1.32,1.89s-.56,1.6-1.32,1.88v1.05c1.33-.31,2.33-1.5,2.33-2.94s-1-2.63-2.33-2.94Zm-59.42.32c-1.18.27-2.06,1.33-2.06,2.6s.88,2.33,2.06,2.6v-.93c-.68-.25-1.17-.9-1.17-1.67s.49-1.42,1.17-1.67v-.93Zm74.13.66l.07,3.31c-.54-.36-.9-.97-.9-1.67s.33-1.27.83-1.64h0Zm-114.35,1.18l2.11,2.57c-.18.06-.37.09-.57.09-.98,0-1.77-.79-1.77-1.78,0-.32.09-.62.24-.88h0Zm108.23,1.75l-6.01,7.1,6.7,5.21,5.18-6.63-5.87-5.67Zm-75.08.12l-6.42,6.59,4.56,5.02-2.26-.21c-.95-1.09-2-2.83-3.75-3.75l.17,1.31c.09-.06,2.12,1.93,1.8,2.25l-1.79-.13c-.14.04-.07.66-.07.66,4.81.47,9.73,1.41,14.84,3.18l-.13-.92-.8-.35s.5-.61.92-1.08v-1.66l-2.13,2.43-1.03-.38,3.16-3.23v-1.22l-4.19,4.14-2.04-.57,5.57-5.52-6.42-6.54Zm74.97,4.56c.92,0,1.66.75,1.66,1.67s-.74,1.67-1.66,1.67-1.66-.75-1.66-1.67.74-1.67,1.66-1.67Zm-75.14.48c.92,0,1.66.75,1.66,1.67s-.75,1.67-1.66,1.67-1.66-.75-1.66-1.67.74-1.67,1.66-1.67Zm-37.51.32l-.67,8.34,8.31,2.79,1.38-9.2-9.02-1.94Zm-3.37.52l.64.14-.23,4.45-.4-.07v-4.52Zm107.91,1.55l.12,1.78,5.85,4.2-4.45,5.96.38,2.11,6.1-8.08-8-5.97Zm-92.35.83l1.88,3.14c-.51.49-.83,1.17-.83,1.94,0,1.48,1.18,2.67,2.65,2.67.3,0,.59-.05.85-.14l1.71,2.86-7.96-2.52,1.7-7.95Zm107.17.28l.18,1.31c-.77.55-1.28,1.45-1.28,2.47,0,1.31.83,2.41,1.98,2.83l.15,1.11-4.26-3.17,3.23-4.55Zm-115.03.45c.92,0,1.66.75,1.66,1.67s-.74,1.67-1.66,1.67-1.66-.75-1.66-1.67.74-1.67,1.66-1.67Zm115.37,2.08l.38,2.86c-1.1-.98-1.04-1.75-.38-2.86Zm-14.7.27l.13,1.02c.97.13,1.73.97,1.73,1.98,0,.84-.52,1.55-1.24,1.85l.13,1.03c1.22-.38,2.12-1.52,2.12-2.88,0-1.62-1.27-2.93-2.86-3Zm-90.46.85l1.72,2.88c-.12.03-.25.04-.37.04-.98,0-1.76-.8-1.76-1.78,0-.44.16-.84.42-1.15h0Zm99.21,2.2l-4.88,7.45,6.87,4.8,4.26-7.45-6.25-4.81Zm-113.38,2.41l5.54,2-.88,5.28-1.09-1.69c.34-.45.54-1,.54-1.61,0-1.48-1.2-2.68-2.66-2.68-.2,0-.39.02-.58.06l-.87-1.36Zm8.75,1.7l-1.69,8.77,8.22,3.74,2.31-9.26-8.84-3.24Zm105.35.25c.92,0,1.66.75,1.66,1.67s-.75,1.67-1.66,1.67-1.66-.75-1.66-1.67.74-1.67,1.66-1.67Zm-112.7.25s.03,0,.05,0c1.55.03,2.2,1.31,1.59,2.56l-1.64-2.56Zm145.32,1.84l-.02,1.95-2.32.41,2.34-2.36Zm-25.58,1.14l.36,1.7c-.78.55-1.29,1.45-1.29,2.47,0,1.48,1.05,2.7,2.44,2.96l.37,1.76-4.69-3.26s1.52-3.68,2.8-5.64Zm-108.83,1.06c.92,0,1.66.75,1.66,1.67s-.75,1.68-1.66,1.68-1.66-.75-1.66-1.68.74-1.67,1.66-1.67Zm134.45.88s-.01,1.36,0,1.96l-1.32-.38,1.32-1.57Zm-25.01.88l.68,3.19c-.7-.31-1.2-1.02-1.2-1.84,0-.52.2-1,.52-1.35Zm-14.44,2.24c-.11,0-.21.03-.31.04.12.42.22.67.31.97,1.1,0,2,.9,2,2.01,0,.82-.5,1.5-1.2,1.81l.23,1.01c1.15-.42,1.98-1.52,1.98-2.82,0-1.67-1.34-3.02-3-3.02h0Zm-84.51.4c.39.88.92,1.75,1.4,2.93-.14.04-.19.07-.34.07-.98,0-1.76-.79-1.76-1.77,0-.64.19-.91.7-1.22Zm93.24,1.76l-3.88,8.71,7.76,4.59,3.58-8.36-7.46-4.94Zm-106.69,3.23c-.33,0-.62.04-.88.1-.77,1.03.32,4.99,2.35,4.94.74-.48,1.18-1.41,1.18-2.36,0-1.48-1.19-2.68-2.66-2.67h0Zm7.2.59l-2.21,8.43,7.99,4.48,3.05-8.24-8.83-4.67Zm-7.2.31c.98.05,1.77.8,1.77,1.78,0,.56-.26,1.06-.66,1.39-1.53,1.15-1.75-3.32-1.5-3.08.11-.06.24-.09.39-.08h0Zm108.34,1.04c.92,0,1.66.75,1.66,1.68,0,.92-.74,1.67-1.66,1.67s-1.66-.75-1.66-1.67.74-1.68,1.66-1.68Zm7.04,2.81l.66,2.13c-.45.53-.73,1.21-.73,1.96,0,1.41.96,2.58,2.25,2.92l.58,1.87-5.04-2.96,2.27-5.92Zm-105.16.63c.92,0,1.66.75,1.66,1.67s-.74,1.67-1.66,1.67-1.66-.75-1.66-1.67.74-1.67,1.66-1.67Zm8.59,1.27l.97,3.25c-.7.48-1.17,1.29-1.17,2.21,0,1.47,1.17,2.66,2.62,2.67l.81,2.72-6.51-3.76,3.27-7.1Zm97.64,1.51l.73,2.33c-.51-.36-.85-.96-.85-1.64,0-.24.05-.47.12-.69Zm-14.7.74l6.63,3.5c-.93,2.51-1.72,4.25-3.08,6.74-.51-.92-.89-1.88-1.23-2.87.79-.54,1.32-1.45,1.32-2.49,0-1.6-1.25-2.92-2.82-3.01-.06,0-.34-.04-.34-.04l-.48-1.82Zm-98.14,1.16l.63,1.65,6.24,3.62-2.68,6.54.57,1.91,3.68-9.03-8.44-4.69Zm16.45.75l.91,3.04c-.83-.15-1.46-.87-1.46-1.75,0-.51.21-.97.55-1.29Zm82.62.98c1.05.05,1.7.91,1.7,1.98,0,.59-.26,1.12-.67,1.49l-1.04-3.47Zm8.69.81l-3.51,8.68,8.79,3.98,2.42-8.63-7.7-4.03Zm-105.64,1.48c-2.67.06-1.31,5.37,0,5.35,1.47,0,2.66-1.2,2.66-2.67s-1.19-2.73-2.66-2.68h0Zm0,.9c.98,0,1.77.8,1.77,1.78s-.79,1.78-1.77,1.78c-.77-.33-.98-3.46,0-3.56Zm7.72.84l-3.69,8.34,7.36,5.2,4.34-8.63-8.01-4.92Zm100.11,1.61c.92,0,1.66.75,1.66,1.67s-.74,1.67-1.66,1.67-1.66-.75-1.66-1.67.74-1.67,1.66-1.67Zm7.35,2.88l.6,1.26c-.29.47-.47,1.01-.47,1.6,0,1.56,1.17,2.84,2.67,3l.74,1.53-4.94-2.26,1.39-5.13Zm-105.21.6c.92,0,1.66.75,1.66,1.67s-.74,1.68-1.66,1.68-1.66-.75-1.66-1.68.75-1.67,1.66-1.67Zm7.98,1.78s.37,1.45.84,3.4c-.9.43-1.52,1.35-1.52,2.42,0,1.48,1.19,2.67,2.66,2.67.01,0,.02,0,.03,0,.25,1.17.47,2.3.63,3.25l-6.33-4.56,3.7-7.18Zm98.41.09l1.05,2.18c-.65-.33-1.11-1.01-1.09-1.79.01-.22.03-.23.04-.4Zm-14.93,1.19l7.79,3.43-2.22,7.8-1.78-3.13c.74-.55,1.21-1.43,1.21-2.42,0-1.67-1.34-3.02-3-3.02-.25,0-.48.04-.71.09l-1.29-2.76Zm-98.38,1.26l.53,1.82,5.47,4.04-3.18,5.87.34,2.18,4.5-8.53-7.65-5.38Zm15.96,1.77c.25,1.04.5,2.16.75,3.28-.9-.08-1.6-.84-1.6-1.77,0-.64.34-1.2.85-1.52Zm84.43.65c1.1,0,2,.9,2,2.01,0,.59-.25,1.11-.65,1.48l-1.62-3.47c.09-.01.18-.02.28-.02h0Zm8.64.09l-2.04,9.68,8.62,2.88,1.82-9.17-8.4-3.4Zm-107.61,2.08c-2.01.49-.93,5.13,0,5.35.7.16,1.37-.28,1.84-.75.5-.49.81-1.17.81-1.93,0-1.48-1.19-2.67-2.66-2.67Zm.35.89c.8.09,1.42.93,1.42,1.79,0,.98-.79,1.78-1.77,1.78-1.1-.34-.73-3.44,0-3.56.12-.02.24-.02.35,0h0Zm6.91,1.16l-4.24,7.29,6.8,5.25,4.93-6.66-7.49-5.88Zm-30.54,0l.91.68-.92,1.03v-1.71Zm133.75.83c.92,0,1.66.75,1.66,1.67s-.74,1.68-1.66,1.68-1.66-.75-1.66-1.68.74-1.67,1.66-1.67Zm7.47,1.6c.09.34.4.94.82,1.67-.24.43-.38.93-.38,1.46,0,1.67,1.34,3.01,2.99,3.01.08,0,.16,0,.24-.01.5.74.86,1.26.86,1.26l-5.58-1.64,1.05-5.75Zm-141.22.33l1.77.88-1.81,1.5.04-2.38Zm32.14,2.25c.92,0,1.67.75,1.67,1.67s-.75,1.67-1.67,1.67-1.66-.75-1.66-1.67.74-1.67,1.66-1.67Zm110.55.18c.48.78,1,1.58,1.49,2.31-.87-.21-1.52-1-1.52-1.95,0-.13.02-.25.04-.36h0Zm-142.73,1.02l2.48.41-2.1,2.68,3.71-.17-2.54,2.78,4.1.09-3.2,2.73,4.32.05-3.21,2.69,4.73-.22-3.38,2.93,4.67-.02-3.48,2.94,4.57.06-2.97,2.64,3.99.05-4.51,3.19c-1.93-.85-4.51-1.33-7.11-1.38l-.06-21.45Zm40.21,1.23l.3,2.41c-1.02.37-1.76,1.36-1.76,2.52,0,1.39,1.05,2.53,2.4,2.66l.35,2.82-5.84-4.79,4.54-5.62Zm88.46,1.07l7.44,2.2-1.45,7.7s-.87-1.41-1.87-2.97c.54-.54.87-1.29.87-2.12,0-1.67-1.34-3.02-3-3.02-.3,0-.6.04-.87.13-.39-.74-1.12-1.92-1.12-1.92h0Zm10.26,2.06l-1.08,8.78,9.09,1.7s.43-5.5.67-8.14l-8.68-2.34Zm-98.3.2l.42,3.33c-.8-.17-1.4-.88-1.4-1.74,0-.7.4-1.3.98-1.59Zm90.03.54c1.1,0,2,.9,2,2.01,0,.47-.16.9-.43,1.24-.66-1.05-1.35-2.19-1.94-3.22.12-.02.24-.03.37-.03h0Zm-29.14.21v.55l1.53.4-1.55,1.87v1.77s2.92-3.16,2.92-3.16l1.09.25-4.03,4.18v1.76s5.38-5.55,5.38-5.55l1.62.37-5.67,5.82,6.27,6.56,6.72-6.87-4.75-4.96,2.62.29,3.53,3.62v-1.42l-1.72-1.98,1.72.06v-.44h.05c-5.52-1.37-11.76-2.48-15.74-3.12h0Zm-75.82.34c-.49.2-.59,4.66.1,5.37,1.47,0,2.66-1.19,2.66-2.67s-1.2-2.68-2.66-2.68c-.04-.03-.07-.03-.1-.02h0Zm.04.92s.04-.01.06,0c.98,0,1.77.8,1.77,1.78s-.8,1.78-1.77,1.78c-.15-.75-.32-3.39-.06-3.56Zm116.8,1.64c.92,0,1.66.75,1.66,1.67s-.75,1.67-1.66,1.67-1.66-.75-1.66-1.67.74-1.67,1.66-1.67Zm-109.57.09l-4.77,5.95,6.02,6.69,5.48-6.63-6.73-6.01Zm117.1,1.33l.81,1.26v3.66l-1.02-.16.2-4.75Zm-40.78,2.35c.92,0,1.66.75,1.66,1.67s-.74,1.67-1.66,1.67-1.66-.75-1.66-1.67.74-1.67,1.66-1.67Zm-75.35.87c.92,0,1.66.75,1.66,1.67s-.75,1.67-1.66,1.67c-.92,0-1.66-.75-1.66-1.67s.74-1.67,1.66-1.67Zm83.25,1.19l-7.07,7.36,7.03,7.22v-1.76l-5.44-5.43,5.47-5.54v-1.85Zm-15.76.6v1.78s5.07,5.15,5.07,5.15l-5.17,5.32v1.6s6.6-6.88,6.6-6.88l-6.5-6.97Zm36.06,1.5l7.97,1.29-.45,8.27s-1.69-1.82-2.27-2.56c.45-.53.73-1.2.73-1.95,0-1.67-1.34-3.02-3-3.02-.48,0-.92.12-1.32.32-.31-.46-1.66-2.34-1.66-2.34Zm-95.73.01v2.94c-1.04.36-1.79,1.36-1.79,2.53s.75,2.16,1.8,2.52v2.75l-5.07-5.08,5.06-5.67Zm-14.2,1.56l4.01,4.45-3.78,4.47-.05-2.07c1.14-.3,1.99-1.34,1.99-2.58s-.91-2.37-2.12-2.62l-.04-1.64Zm89.61.69c-1.42.21-2.51,1.47-2.51,2.96s1.08,2.7,2.49,2.94v-1.02c-.86-.22-1.49-.99-1.49-1.92s.64-1.71,1.5-1.93v-1.03Zm-15.78.1v1.01c.89.2,1.56,1,1.56,1.96s-.69,1.78-1.6,1.96v1.01c1.46-.19,2.6-1.44,2.6-2.98s-1.12-2.76-2.56-2.97h0Zm39.08.67c1.1,0,2,.9,2,2.01,0,.42-.13.81-.35,1.13l-2.33-3.02c.21-.08.45-.13.69-.13h0Zm-98.71.9v3.1c-.53-.3-.9-.88-.9-1.55s.36-1.25.9-1.55h0Zm-14.14.21c.7.24,1.21.9,1.21,1.69s-.46,1.4-1.12,1.66l-.09-3.35Zm81.81,2.52l-6.32,6.72,5.98,6.09,6.34-6.57-5.99-6.23Zm-75.44.19l-5.43,6.65,5.35,7.23,6.61-6.63-6.53-7.24Zm-33.9.15s4.93.02,6.65,1.27c1.8,3.3,3.02,10.41.38,14.32-.92,1.17-2.27,1.73-3.83,2.97-1.2.96-2.85,1.42-4.29,1.42-1.44,0-2.67-.47-3.05-1.42-.3-.53-.45-.99-.88-1.19-.84-.39-1.98-.12-2.04.16-.1,0,1.34.14,1.58.36,1.12,1.02.93,1.66-.66,1.53-.51-.02-1.95-.04-1.98-.61-.32-1.95,2.26-3.38,5.56-3.12,2.35.39,2.36-.52,2.53-1.78.1-.41.46-1.09.76-1.62.83-1.5,1.11-1.29.53-1.87-.56-.74-1.29-1.65-1.28-2.52l.03-7.91Zm109.03,4.36c.92,0,1.66.75,1.66,1.67s-.74,1.67-1.66,1.67-1.66-.75-1.66-1.67.75-1.67,1.66-1.67Zm-74.69.91c.92,0,1.66.75,1.66,1.67s-.74,1.68-1.66,1.68-1.66-.75-1.66-1.68.74-1.67,1.66-1.67Zm82.71.93l-7,7.5,6.98,7.27v-1.74s-5.53-5.52-5.53-5.52l5.54-5.79v-1.71Zm33.74.16v2.49l-2.45-2.47,2.45-.02Zm-49.57.09l-.02,1.97,5.19,5.4-5.28,5.28-.02,1.82,6.84-7.07-6.72-7.4Zm-73.65,3.21l3.66,5.29-4.41,4.14.18-2.29c1.25-.21,2.21-1.31,2.21-2.63,0-1.17-.76-2.17-1.8-2.53l.16-1.99Zm14.29.54l-.29,3.16c-1.24.23-2.18,1.32-2.18,2.64,0,1.14.71,2.11,1.71,2.49l-.28,3.01-4.59-6.22,5.62-5.08Zm59.32.42v1.01c1.01.09,1.81.94,1.81,1.99s-.82,1.91-1.86,1.99v1.01c1.58-.07,2.86-1.38,2.86-3s-1.25-2.9-2.82-3h0Zm49.52.02v19.54l14.09,14.93v52.95h-55.38l-16.23-27.32c.98-7.16,3.5-21.01,3.5-21.01,1.49.36,6.52.84,9.23-3.08,1.3-1.87,1.99-4.42.24-8.44-.25-.48-.66-1.16-.66-1.16,0,0,.44-.12.75-.32,21.28-7.92,44.05-25.58,44.45-26.1h0Zm-33.67.09c-1.41.24-2.48,1.48-2.48,2.97s1.07,2.71,2.48,2.96v-1.04c-.84-.23-1.47-1-1.47-1.92s.63-1.7,1.48-1.93v-1.03Zm-89.7,1.85c.58.29.98.9.98,1.59,0,.8-.52,1.47-1.24,1.7l.26-3.29Zm14.15,1.73l-.3,3.24c-.54-.3-.9-.88-.9-1.55,0-.79.5-1.45,1.2-1.69Zm67.48.64l-6.3,6.55,6.18,6.38,6.4-6.52-6.28-6.41Zm-101.92,2.65l13.7,7.63.99.51s-.38.11-1.18.64c-1.55,1.02-2.14,3.54-1.44,5.43,1.15,3.09,3.53,2.53,5.51,2.54,1.65,1.28,3.05,5.56,4.21,8.41.53,1.24,1.05,2.19,1.18,2.91.12.66.12,1.25.12,1.25,0,0-.27-.08-.66-.88-2.18-4.63-7.28-6.87-9.99-2.49-1.37,2.68-.42,5.75,1.88,6.6.71.26,3.11-.02,3.11-.02.14-.08,1.74,2.27,4,10.02.93,3.2,1.17,10.14.29,11.13-1.5,1.83-1.88,4.4-3.15,6.25-.15.31-.46.86-.46.86-2.46-5.21-9.59-9.72-14.42-9.32-3.51.29-4.6,1.36-3.77,2.38,1.93,1.98,3.19,4.77,3.82,7.21,1.47,5.67,3.04,10.74,7,15.15l-2.27,4.48-29.24-.19v-10.86l22.53-24.11-8.69-.11.09-41.36c2.38-1,4.65-2.54,6.85-4.04h0Zm101.86,2.16c.92,0,1.66.75,1.66,1.67s-.74,1.67-1.66,1.67-1.66-.75-1.66-1.67.74-1.67,1.66-1.67Zm-75.91,2.19c.92,0,1.66.75,1.66,1.67,0,.92-.75,1.68-1.66,1.68s-1.66-.75-1.66-1.68.74-1.67,1.66-1.67Zm16.67.66c6.06-.13,12.54,3.32,19.45,8.7-4.58,12.77-5.08,26.28-5.25,26.78,0,0-2.45-.31-3.22-.74-1.71-.98-3.66-1.57-5.53-1.67-1.74-.09-2.02-.1-2.02-.1,2.33-1.57,5.06-1.8,7.07-2.75,0,0-.74-.37-2.03-.25-2.77.25-5.44,1.36-8.27,3.26-1.96,1.31-2.04,1.31-1.51,2.96.13.4.39.99-.54,1.34-.97.36-.83.76-.28,1.2.14.11.48.13.62.25.17.14-.01.76-.01.84,3.35,2.85,9.11,3.09,14.08.54.33-.17,1.18-.51,1.18-.51l-.12,1.23c-2.9,1.92-6.87,2.46-9.88,2.5-1.8.03-2.16-.2-4.88-1.04-1.12-.34-1.74-.43-1.84-.26-.23.39.17,1.55,1.03,2.17,2.9,2.09,7.13,1.93,12.9-.38.68-.27,2.55-1.24,2.55-1.24-.1,2-.51,4.04-.79,5.72-.28,1.7-.67,3.37-.67,3.37-.62.36-27.67-.98-31.36-3.27-.37-.35-.08-.82-.01-1.8.11-1.57.22-2.56.22-2.56,0,0,.9.44,1.42.67,2.72,1.2,6.58.15,8.9-2.39,2.93-3.2,3.02-6.49,1.19-12.99-2.09-7.31-2.04-8.28.47-9.77,1.73-1.18,2.7-3.88,2.47-3.99-1.02,1.12-2.07,1.79-3.07,2.4-2.91,2-3.82,3.03-2.48,6.72,1.32,3.65,2.38,7.22,1.83,7.44-.26.11-1.27-1.08-1.89-1.44-1.27-.73-4.46-2.05-4.46-2.05,0,0,.21.29,1.52,1.15,3.5,2.31,4.94,4.41,1.56,3.08-2.63-.92-4.86-.06-6.8.86,0,0-.12-1.57-.13-2.14-.06-3.04.33-5.91.59-8.55.64-6.58,1.75-12.12,4.62-15.69,4.2-5.22,8.66-7.5,13.37-7.6h0Zm51.4,3.35v1.01c.94.15,1.67.98,1.67,1.98s-.75,1.83-1.71,1.97v1.01c1.51-.14,2.71-1.41,2.71-2.98,0-1.55-1.17-2.82-2.67-2.99h0Zm-51.84,1.98c-.3-.03-.83.15-1.21.47-.89.76-3.3.56-4.66-.06-.6-.27-.66.86.05,1.11.69.24,1.71.54,1.71.54,0,0-1.1.39-2.3.78-.71.23-.75,1.43.06,1.15,1.82-.62,4.33-1.46,7.15-.62,2.22.68,1.69-1-.72-1.21-.77-.07-2.06-.22-2.06-.22,0,0,1.09-.49,1.8-1.15.55-.52.48-.76.18-.79h0Zm-1.85,5.15c-.92-.01-1.95.24-3.09.74-1.61.7-3.19.93-4.73-.38-.9-.76-.85-.18-.62,1.39.26,1.76.44,2.71.92,2.66.19-.02.43-.2.73-.55.32-.36.84-.27,2.14-.19,1.4.09,1.75.05,2.67-.29,1.05-.38,1.07-.38,1.8-.07,1.14.49,1.85.54,2.9.25,1.28-.37,2.09-.27,2.88.13.8.4,1.06.32,1.33-.42.12-.31.69-1.5.95-1.9.86-1.32.65-1.54-1.15-.98-1.23.38-3.5.62-5.19-.08-.48-.2-1-.3-1.55-.31Zm2.45,7.86c-1.89-.03-3.38,1.28-5.45,1.86-1.02.27-.78,1.6-.13,2.18.84.74,2.13.28,3.87-1.06,3.4-2.62,4.21,2.42,1.12,3.31-.48.14-.26,1.25.75.97,1.94-.55,2.85-2.24,2.72-4.12-.1-1.52-.88-2.77-2.04-3.03-.29-.07-.57-.1-.84-.1h0Zm-26.33,1.31c1.63-.1,3.36.94,4.72,3.18,1.73,2.85,2.2,4.57,2.26,6.38-.16,3.79.06,5.82-.19,9.63-2.4-3.72-2.83-9.19-5.38-12.15-4.73.89-6.96-3.59-2.99-6.57.51-.28,1.04-.44,1.58-.47Zm11.53,14.09c1.15-.11,2.3.91,2.87,2.77l-.83-.06c-.87-2.37-2.9-2.3-3.69-.25h-.74c.61-1.6,1.5-2.38,2.4-2.46h0Zm2.46.41s1.79.1,2.45.36c.45.17.84.43.9.73.06.3-.25.68-.73.82-.43.13-.89.19-1.32.31-.21-.79-.74-1.64-1.29-2.22Zm17.85.18c1.04.02,2.07.92,2.62,2.8l-1.05.08c-.76-2.59-2.46-2.96-3.48-.24l-.79-.13c.6-1.66,1.66-2.53,2.7-2.51Zm-22.5.07c-.36.37-.81,1.15-1.02,1.67l-.66-.18.07-1.01c.51-.31,1.19-.48,1.6-.48h0Zm19.36.14c.19,0,.39,0,.61.01-.17-.02-1.11,1.33-1.15,2.13,0,0-.85-.22-1.07-.47-.36-.45-.46-.82.02-1.12.57-.36,1.02-.51,1.59-.54h0Zm5.66.27c1.41.27,2.25.87,3.24,1.93l-1.88.33c-.57-.77-.69-1.45-1.36-2.25Zm5.81,2.75l-.14,1.29c-2.97,1.51-9.76,3.08-14.2.49-.37-.42-.14-1.01-.14-1.01,6.27,2.26,10.28,1.04,14.48-.78h0Zm-32.52.27c2.83,1.81,6.42,1.04,9.91.02-3.25,3.14-7.79,2.2-10.03,1.28l.12-1.29Zm9.53,1.79c-2.35,3.77-5.84,4.16-9.77,2.31l.06-1.66c3.3,1.79,6.93,1.11,9.71-.65h0Zm-30,8.17c.34-.01.68,0,1.02.01,5.89.36,11.61,5.44,13.63,11.1l4.3-7.43c19.24,2.58,35.8,3.79,63.02-.39l13.99,24.84-89.84.58c.94-1.84,1.88-3.33,2.59-5.47,0,0-5.05-5.29-6.9-12.25-1.03-3.88-2.51-7.52-5.11-10.1-.04-.09.09-.21.25-.32,1-.35,2.02-.54,3.04-.57Z"/>
              <path id="uuid-4183f95b-aa25-404f-9afc-2309a9627ce1" data-name="path3302-0-9-2" class="uuid-18110a65-36d3-4324-bd6f-ea7b918241b6" d="m94.25,28.72h87.58s-11.41,22.96-11.41,22.96c-21.29-3.24-42.28-2.84-63.02.46l-13.14-23.42h0Zm119.73,18.61l.18,11.01-11.34-.25,11.16-10.75Zm-95.75,74.01l-.12,33.41c-4.52-3.21-9.05-6.43-13.7-8.98l.18-34.57,13.65,10.14Zm38.18,7.31c.8,18.89,3.54,26.27,5.31,35.84l-16.24,10.57-.05-38.78,10.98-7.63Zm44.4,33.14l-.09,46.52c-14.93-21.61-24.36-43.56-26.96-73.2,4.06-1.65,8.02-3.47,12.18-4.94,4.25,11.68,9.33,22.14,14.87,31.61h0Zm-151.78-19.42c13.8,17.64,22.64,41.41,26.98,70.37l-12.63,6.17c-4.19-10.22-9.15-22.41-14.46-30.9l.11-45.65Zm54.52,31.47l-.05,38.9-10.78,7.05c-.67-13.68-2.83-26.45-5.32-35.93l16.15-10.02Zm28.38,20.49c3.99,3.02,8.14,5.8,12.75,7.91l-.67,34.51-12.17-9.43.1-32.99Zm-85.55,97.24s-7.59,7.76-10.41,10.28l-.06-10.54,10.47.26Zm95.59,5.02l14.15,24.31-88.73.75,12.29-25.15c23.5,4.32,42.71,3.04,62.28.08Z"/>
              <path id="uuid-1684e030-e49d-449f-aa48-5c0e99765eb0" data-name="path3300-3-9-0" class="uuid-987204d8-552b-4149-a1a1-58b46e796020" d="m92.65,27.9l14.48,25.44c19.26-4.28,42.26-3.53,63.02-.11,1.11-1.5,2.33-4.57,3.5-6.78,2.9,7.85,12.17,12.92,18.14,10.73,0,0,.06-.37-.94-2.14-2.91-5.09-3.58-10.5-6.16-15.96-1.28-2.99-4.17-5.3-4.81-5.47l3.21-5.71h-90.43Zm2.59,1.34h2.97l11.03,18.38,14.89-1.69-4.9-16.69h4.42l4.39,16.3c8.31-.34,16.24-.43,23.15.13l2.34-16.43h4.22l-2.67,16.4,13.97,1.8,7.58-18.2h4.36c-2.82,4.78-9.85,20.09-11.17,21.61-33.27-4.3-46.82-2.14-62.09-.09l-12.5-21.53Zm5.95,0h15.2l5.11,15.24-10.84,1.29-9.46-16.54Zm24.85,0h25.36l-2.09,14.13c-6.65-.4-13.16-.03-19.69.18l-3.57-14.31Zm34.78,0h13.47l-6.76,16.05c-3.84-.54-6.14-1.11-9.48-1.19l2.76-14.86Zm19.74,5.8s.57.05.96.45c1.68,1.76,3.3,5,4.76,9.54,1.07,3.34,2.35,6.87,3.76,9.8.76,1.55.69,1.63-1.54,1.66-4.78.07-8.76-2.22-12.3-7.07-1.13-1.55-1.56-2.24-1.56-2.89.12-.75,1.6-3.15,1.6-3.15,0,0,.86,2.38,1.06,3.54,1.28-4.76,1.8.76,2.29,2.21,1.57-4.6,2.41,1.72,2.33,3.43,2.13-2.95,2,1.9,3.04,2.8.03-2.56,1.52-.81,3.46-.26-1.01-1.43-2.98-2.39-.47-2.71-2.51-1.75-3.77-1.48-1.33-2.44-1.88-1.04-4.97-2.3-1.55-2.98-2.09-1.33-5.45-1.88-1.84-3.15-2.73-1.68-6.36-1.56-1.25-2.91-1.85-1.09-5.11-1.5-1.46-2.44-.56-.25-1.54-.92-1.54-.92l1.58-2.51Zm34.61,4.28l-23.24,23.65,8.75.26v42.73s.96.24,1.89.3c4.4.26,5.6.62,5.61,1.68.02,1.32-1.98,2.95-3.63,2.97-.37,0-1,.38-1,.38l.53,139.94,10.4,10.96-.04,3.48-12.81-13.65-.48-139.86-.49.23-.03,46.97c-6.57-9.88-10.25-19.68-13.9-29.47,0,0-1.29.45-1.34.47-.01.01.46.16.46.16,3.73,12.52,8.44,21.59,14.55,31.07l-.09,45.52c-15.65-22.26-23.22-42.27-26.37-71.12l7.92-3.98.77-1.04,5.98-3.01.57.96,3.63-2.53c-2.8-4.92-2.7-12-.41-15.74l-.98-.62c-.07-.27-3.76,7.66.37,15.73l-2.7,1.67c-3.9-8.11-2.09-16.85-.25-19.1-3.76-2.32-7.97-4.86-11.66-6.08-1.63-.67-2.66.12-2.66.13l-.79,4.53,1.26,1.73-1.46,1.19-.67,6.93,1.57,1.6-1.62,1.8-.22,6.61,1.77,1.38-1.37,2.29.09,5.85.41.28c3.41,41.91,23.8,66.67,26.99,72.28l.45.73c.22,14.22.15,28.5,0,42.96l15.01,16.07-.09-5.88-.74-.53v-26.78l.62-.04s.19-7.2.14-12.15l-.89-.02.06-18.4.76-.09-.04-11.92h-.83s-.19-12.5.11-18.58l.61-.04-.04-11.85-.69-.05-.05-16.95.86-.13-.23-11.19-.7-.04c-.25-6.91-.13-18.86-.13-18.86l.8-.04-.2-11.11-.58-.04.17-19.5.52-.06-.2-11.52-.56-.05.1-9.58.39-.07.1-3.58-.41-.95-.03-12.76.32-.14.08-6.41Zm-1.2,2.18l.06,4.06-13.65,13.49,13.76.21-.03,2.75-20.05-.2,19.91-20.31Zm-.12,6.18l.09,10.42-10.76-.17,10.67-10.25Zm-79.68,3.74c-9.38.01-18.81,1.08-26.11,2.71,0,0-3.52,16.83-4.78,23.98-1.19-.68-2.24-.98-3.31-.96-8.26.9-7.55,12.31-3.3,12.63.57,0,.82.09,1.19.48.52.54,1.15.91,1.48.86.45-.06.65.02.66.26,0,.2-.2.23-.93.16-.45-.04-1.39.67-1.39.67v51.35c-4.02-1.67-10.02-2.64-14.62-3.19l-.31-45.77s-6.76,3.56-9.21,4.99l-.09,40.97-4.79.53,7.56,15.47c1.06-.82,15.94.58,19.66,3.01l-13.58,8.53c1.38,4.23,2.63,8.28,3.79,12.57.04.13.29.12.32.25.28,1.05.48,1.52.74,2.57.05.2-.03.52.02.71,2.93,10.14,4.92,23.59,5.33,35.62-.04.11-.48.02-.48.02l.09,7.35.48-.32-.05,3.33-.49.49c-.01.64-.06,1.86-.06,1.86l.63.4-.33,5.58-.65.09-.35,8.82,17.2-11.2s11.22,8.09,16.13,12.28c-5.4,3.7-6.83,10.9-8.17,16.88-1.37,5.92-1.82,10.81-2.21,15.76-.43,5.46-1.46,12.66-2.18,16.1,5.84.24,19.25-.23,30.1-2.6.91-7.96,2.31-15.2,3.96-22.91,0,0,.18.65,2.87.61,7.87-.11,10.63-8.92,4.05-12.82-.62-.37-1.68-1.08-2.72-1.63-.3-.16-4.07-2.39-4.07-2.39l4.52,2.05.33-52.83s9.43,2.85,15.65,3.12l-.07,45.81,8.68-4.72.4-40.96,4.76-.31s-1.8-3.86-2.2-4.67c-.8-1.62-2.83-5.23-4.21-7.52-.49-.81-1.63-2.6-1.63-2.6-6.34-.17-12.82-1.13-18.72-3.76l13.64-8.93c-5.7-16.16-12.8-39.8-8.84-77.96l-.96.61-.26,4.11-16.98,11.76-20.95-16.98s1.52.04,1.86.06c5.34.19,9.1-5.31,10.39-9.9,2.27-8.09,2.57-10.09,3.62-22.93.41-5.08,1.41-9.97,2.43-14.81.54-2.43.46-2.67.46-2.67-1.33-.04-2.67-.06-4.01-.06h0Zm.76.4l2.05.05c-2.98,14.84-2.99,27.54-6.17,39.25-1.57,5.8-5.59,9.93-9.49,9.92-8.65-1.08-6.36-10.22-2.71-12.11,4.97-2.33,8.94,2.36,5.77,7.11-2.33,3.49-6.75,1.18-5.04-2.64.96-2.15,2.96-1.9,2.94.28-.71,2.07-.06,1.33.5.6,1.75-2.29-1.78-4.72-3.6-2.46-1.11,1.39-1.35,3.04-.97,4.35.65,2.25,3.23,3.56,6.15,1.48,3.49-4.21,5.35-9.66,6.38-15.75,2.19-12.97,2.3-26.61,4.19-30.07h0Zm-1.33.04c-.9.61-2.06,18.65-3.86,30.23-.14.94-2.13,10.17-3.24,9.61-.18-.18-1.22-2.69-1.35-3.2,2.16-3.13,2.77-8.26,3.1-12.14,1.22-11.02,2.49-24.32,3.04-24.44l2.31-.05Zm-3.48.15c-1.15,3.91-1.68,14.82-2.82,23.95-.66,4.63-1.39,10.99-3.08,11.92l-1.44-.93c1.55-4.66,2.13-10.16,2.76-15.48.77-6.44,1.45-13.06,2.38-19.38l2.2-.08Zm-3.31.18c-.5,3.64-1.45,11.74-2.27,19.19-.94,8.65-2.42,15.19-2.82,14.98l-1.85-1.08c.65-2.6,1.42-5.45,1.81-8.18.85-6.07,1.18-13.42,3.13-24.74l2-.17Zm-3.01.15c-1.06,4.93-2.27,16.5-3.23,24.66-.55,4.74-1.7,8.08-1.98,7.99,0,0-1.59-.9-1.79-1.01,1.2-4.78,1.78-9.22,2.37-13.55.8-5.84,1.39-11.53,2.49-17.95l2.13-.14Zm-3.16.24c-.64,4.49-1.53,11.6-2.45,17.88-1.05,7.12-2.03,13.18-2.36,13.22l-2.57-1.2c.32.06.92-1.73,1.52-4.52,1.81-8.49,3.6-25.23,3.89-25.22l1.99-.16Zm-3.35.45c.16-.24-1.84,16.17-3.49,24.45-.56,2.83-1.4,4.67-1.55,4.57l-1.96-1.18c.17.12.88-1.98,1.22-3.45,1.76-8.47,2.56-15.9,3.65-24.11l2.13-.28Zm-3.3.34c-.89,8.35-2.16,17.32-3.98,25.5-.25,1.1-.8,1.69-.82,1.72l-2.1-1.05c2.28-6.5,2.49-12.72,4.68-25.76l2.22-.4Zm-3.22.51c-1.24,6.9-1.88,14.89-3.56,21.18-.35,1.33-.55,2.83-1.02,3.99l-2.36-.95,4.94-23.85,1.99-.37Zm59.13,8.67s-1.17,11.51-1.52,16.1c-.67,7.04-1.63,11.59-4.33,17.17,2.25,1.31,4.67,2.34,7.1,3.28.96.37,1.98.38,2.94,1.01.66.45,1.41.64,2.18.62,2.28-.05,4.6-1.95,4.42-4.38-.22-2.95-1.95-4.26-4.81-3.97-1.53.16-1.49.18-2.52-1.67-.93-1.67-3.37-8.79-3.38-9.87,1.17,1.57,3.92,4.48,6.44,4.36,2.72-.2,5-2.79,2.95-6.46-1.09-1.8-3.03-2.15-5.01-1.56-2.95-4.63-3.51-9.26-4.45-14.64h0Zm33.64,1.1l-.12,41.73-2.37-.5v-41.22s2.49,0,2.49,0Zm5.53.39c.92,0,1.66.75,1.66,1.67s-.75,1.67-1.66,1.67-1.66-.75-1.66-1.67.74-1.67,1.66-1.67Zm-39.04,2.89c.28-.16,1.15,7.41,4.19,10.84,3.7-1.77,6.9,2.39,4.37,5.25-4.93,4.27-9.24-4.84-9.25-7.76-.03-3.27.68-8.33.68-8.33Zm41.11.96c.92,0,1.66.75,1.66,1.67s-.74,1.67-1.66,1.67c-.92,0-1.66-.75-1.66-1.67s.75-1.67,1.66-1.67Zm-4.32.1c.92,0,1.66.75,1.66,1.67s-.74,1.68-1.66,1.68-1.67-.75-1.67-1.68.75-1.67,1.67-1.67Zm2.17,3.92c.92,0,1.66.75,1.66,1.67s-.74,1.67-1.66,1.67-1.67-.75-1.67-1.67.75-1.67,1.67-1.67Zm5.06,1.85v3.99l-9.22,8.88v-4.33l9.22-8.54Zm-114.43,3.96c.25-.02.5-.02.76,0,.29.02.6.08.9.16-.2-.06-2.95,1.8-4.37,4.55-1.54,3.04-.15,6.03-.6,6.04-2.83-.85-2.18-6.39-1.03-7.97,1.14-1.56,2.61-2.65,4.34-2.78h0Zm3.69.96c.44,0,.76.15,1.13.5.46.45.89.6-.27,1.01-3.26.86-5.55,3.91-5,7.47.07.86.87,3.15-.56,2.07-3.17-2.16-1.48-8.89,2.93-10.55.8-.31,1.35-.48,1.78-.49Zm110.73.4v4.31l-9.22,8.86v-4.41l9.22-8.76Zm-108.07,1.32c.56-.05,1.05.03,1.47.21.94.41.62.47-1.16,1.4-2.82,1.49-4.49,4.58-4.07,7.99.16,1.28.67,1.62.31,1.62-.94-.01-1.67-.74-2-1.48-1.26-4.64.23-8.41,5.44-9.75Zm62.78.26c.19-.04.51.87,1,2.41,2.69,8.56,3.4,10.2,5.27,9.77,1.06-.24,2.17-.29,2.9.12,2.37,1.32,2.59,5.73-.87,6.57-2.73.6-4.49-1.85-5.47-3.45-1.71-2.8-3.38-6.83-3.52-9.37-.06-1.68.27-3.75.56-5.68.03-.24.08-.36.15-.38Zm-134.76,1.25v228.33s15.53-15.97,22.82-23.89l-7.62-.11v-43.24c-2.48-.34-6.62,0-8.25-1.67-1.01-1.51,2.9-4.47,5.11-3.85,1.47.4,3.14.08,3.14.08v-48.18c.07-.31,8.53,13.1,13.5,29.59-1.51,1.06-3.06,1.87-3.32,2.05,2,4.86,3.38,12.49.59,19.14l-1.93-1.15c1.55-4.28,1.94-10.08-.37-15.61l-.53.56c1.92,4.31,2.54,9.44.02,15.62,5.66,2.31,9.89,5.89,14.77,8.3.35.1.83.56.83.56-1.9,1.07-3.71,2.45-3.7,4.33.06,2.83,1.57,3.94,4.86,3.75.66-.04,1.17.02,1.17.02,2.05,4.27,3.87,8.66,5.55,13.06,1.17-5.6,1.98-11.16,4.31-15.9-.15-.13-2.77-1.36-4-1.87-4.78-1.98-6.96-3.2-6.22-3.5.51-.21.7-.57.83-1.59.24-1.89.15-3.99.15-3.99l-.8-1.73,1.24-1s.16-.77.28-2.32c.21-2.66.07-4.35.07-4.35l-1.19-1.54,1.21-1.52.28-6.97-1.64-1.25,1.53-1.52-.55-6.36s.2-.59.47-.88c-2.59-26.89-12.42-53.98-27.41-72.45v-44.17l-15.2-14.8Zm75.36.04c1.31-.07,1.47.61-.16,1.56-3.12,1.83-4.74,5.41-3.84,8.26.43,1.36.84,1.92.42,1.95-.79-.07-1.41-.77-1.79-1.37-1.97-2.84-.33-8.83,3.7-10.07.67-.21,1.24-.31,1.67-.33h0Zm2.94,1.26c.41.03.88.16,1.55.46.45.01-.2.44-1.05.93-3,1.74-4.99,4.85-4.47,7.77.32,1.81.87,2.81.48,2.82-.2,0-.66.07-1.09-.35-1.66-1.62-1.92-6.16-.33-8.4.75-1.05,3.06-2.97,3.75-3.16.4-.05.74-.1,1.15-.07h0Zm-76.4,1.02l12.4,12.93v139.7l-2.6.12V98.13l-9.8-10.44v-3.46Zm79.64.46c.73.04,1.16.47.95,1.01-2.74,1.15-5.33,4.11-5.06,8.16.1,1.42.58,2.19.3,2.24-.19.03-.85-.26-1.29-.79-2.56-3.11-.48-8.4,3.54-10.21.58-.31,1.12-.43,1.55-.4Zm3.24,1.67c.87.04,1.56.33,1.57.83.01.39-.08.49-.46.5-3.05-.02-6.28,4.24-5.39,8.77.11.68.32,1.59.08,1.62-.18.03-.47-.15-.86-.51-2.72-2.69-1.24-8.76,2.38-10.51.74-.52,1.8-.73,2.68-.69h0Zm48.64,2.92c.39.15.92,1.67,1.99,4.27.24.84,2.7,4.66,2.23,4.68-3.45-1.37-5.65-3.43-5.02-6.78.28-1.26.46-2.3.8-2.17h0Zm41.93,3.98c.92,0,1.66.75,1.66,1.67s-.75,1.67-1.66,1.67-1.66-.75-1.66-1.67.74-1.67,1.66-1.67Zm-43.88,1.01c.18.49.18.67.55,1.26l-.93-.45.38-.81Zm-58.62,1.64c2.25-.03,2.99.68,3.41,3.27.29,1.8.47,1.9,3.46,1.81,3.82-.11,4.12.12,4.53,3.48.35,2.88.84,3.17,4.12,2.55,2.39-.45,3.65.6,3.96,3.31.35,3.03.48,3.14,3.87,3.26,3.39.12,4.34.72,4.36,2.77.05,3.18.44,3.47,4.61,3.34,2.02-.06,4.1-.03,5.29.1,2.53.26,2.51.28,2.77-2.17.38-3.65.91-3.99,5.71-3.63,2,.15,2.15.06,2.28-1.48.17-1.92.88-3.1,1.42-2.38.28.38.29.41,0,3.22-.32,3.15-.35,3.17-4.43,2.86-2.76-.21-2.63-.31-2.92,2.21-.36,3.07-.3,3.78-3.92,3.81-3.42-.02-6.04-.21-9.57-.21-2.58.07-3.42-.81-3.46-3.61-.04-2.49-.03-2.48-3.27-2.62-3.9-.17-4.94-1.17-4.99-4.88-.02-1.45-1.18-2.01-3.45-1.69-3.58.51-4.28.02-4.7-3.33-.35-2.8-.16-2.65-3.44-2.63-3.53.02-4.32-.57-4.36-3.31-.02-1.59-.41-2.07-1.77-2.19-1.46-.13-2.09-.88-1.37-1.63.13-.14.81-.22,1.87-.24h0Zm-67.77.45c.16,0,.47,1.19.58,1.3.12.11,1.36.44,1.37.6.01.16-1.19.47-1.3.58-.11.12-.44,1.36-.6,1.37-.16,0-.47-1.19-.58-1.3-.12-.11-1.36-.44-1.37-.6-.01-.16,1.19-.47,1.3-.58.11-.12.44-1.36.6-1.37h0Zm172.29,1.25c.92,0,1.66.75,1.66,1.67s-.74,1.67-1.66,1.67-1.66-.75-1.66-1.67.74-1.67,1.66-1.67Zm-4.54.12c.92,0,1.66.75,1.66,1.67s-.74,1.68-1.66,1.68-1.67-.75-1.67-1.68.75-1.67,1.67-1.67Zm-169.79,2.18c.16,0,.47,1.19.58,1.3.12.11,1.36.44,1.37.6.01.16-1.19.47-1.3.58-.11.12-.44,1.36-.6,1.37-.16,0-.47-1.19-.58-1.3-.12-.11-1.36-.44-1.37-.6-.01-.16,1.19-.47,1.3-.58.11-.12.44-1.36.6-1.37Zm4.51,0c.16,0,.47,1.19.58,1.3.12.11,1.36.44,1.37.6.01.16-1.19.47-1.3.58-.11.12-.44,1.36-.6,1.37-.16,0-.47-1.19-.58-1.3-.12-.11-1.36-.44-1.37-.6-.01-.16,1.19-.47,1.3-.58.11-.12.44-1.36.6-1.37h0Zm63.23,1.2l36.15,27.96,15.35-10.91-.14,3.97-15.37,10.74-36.14-28.04.15-3.72Zm104.64.8c.92,0,1.66.75,1.66,1.67s-.74,1.67-1.66,1.67-1.66-.75-1.66-1.67.74-1.67,1.66-1.67Zm-33.09.31c1.65.33,3.33,1.44,4.85,2.21l3.13,6-3.6,3.12,3.66,4.27-3.83,4.57,3.84,2.72-4.19,6.49-4.74,2.2,5.24-7.88-4.13-2.78,3.91-5.29-4.07-4.92,4.09-3.53-4.15-7.16Zm-.92.26l3.44,6.72-4.07,3.6,4.17,5.12-3.94,5.35,4.09,2.89-5.71,8.35-.11-4.16,2.04-3.1-2.28-1.98h-.01v-4.91s2.36-2.59,2.36-2.59l-2.06-2.83.67-5.27,1.75-1.33-1.24-2.51.4-3.08.5-.28Zm-136.34,1.61c.16,0,.47,1.19.58,1.3.12.11,1.36.44,1.37.6.01.16-1.19.47-1.3.58-.11.12-.44,1.36-.6,1.37-.16,0-.47-1.19-.58-1.3-.12-.11-1.36-.44-1.37-.6-.01-.16,1.19-.47,1.3-.58.11-.12.44-1.36.6-1.37h0Zm175.23.68v3.64l-9.47,8.95v-3.84l9.47-8.75Zm-170.01,1.34v4.4l-8.18,7.8v-4.47l8.18-7.73Zm170.01,3.52v3.92l-9.47,8.98v-4.05l9.47-8.85Zm-170.01,2.12v3.56l-8.18,8.04v-3.69l8.18-7.91Zm60.7.23l12.86,9.65-.03,32.36c-4.08-2.8-8.03-5.66-12.72-8.22l-.12-33.79Zm13.92,10.55l2.55,2.01.07,32.96-2.36-2.12-.26-32.86Zm90.52.59c.92,0,1.66.75,1.66,1.67s-.74,1.68-1.66,1.68-1.66-.75-1.66-1.68.74-1.67,1.66-1.67Zm-169.67,1.85c.92,0,1.66.75,1.66,1.67s-.74,1.68-1.66,1.68-1.66-.75-1.66-1.68.74-1.67,1.66-1.67Zm82.74,1.41l6.73,6.97-6.78,6.84-.19-3.31,3.87-3.33-3.54-3.73-.1-3.44Zm88.92.81c.92,0,1.66.75,1.66,1.67s-.74,1.67-1.66,1.67-1.66-.75-1.66-1.67.75-1.67,1.66-1.67Zm-4.47.02c.92,0,1.66.75,1.66,1.67s-.74,1.67-1.66,1.67-1.66-.75-1.66-1.67.75-1.67,1.66-1.67Zm-80.25,1.66l3.94,2.9-.86.98s-2.59-2.87-3.46-3.8l.38-.07Zm-84.51.31c.92,0,1.66.75,1.66,1.67s-.74,1.67-1.66,1.67-1.66-.75-1.66-1.67.74-1.67,1.66-1.67Zm113.84.09c-.19-.1,1.26,22.71,5.16,34.87l-15.37,10.23v-37.79s10.21-7.31,10.21-7.31Zm-118.26.14c.92,0,1.66.75,1.66,1.67s-.74,1.67-1.66,1.67-1.66-.75-1.66-1.67.74-1.67,1.66-1.67Zm171.64,2.07c.92,0,1.66.75,1.66,1.68s-.74,1.67-1.66,1.67-1.66-.75-1.66-1.67.74-1.68,1.66-1.68Zm-78.01,1.02l6.29,4.92v3.39s-7.11-7.33-7.11-7.33l.82-.97Zm-91.65,1.01c.92,0,1.66.75,1.66,1.67s-.74,1.67-1.66,1.67-1.66-.75-1.66-1.67.74-1.67,1.66-1.67Zm90.16.56l7.16,7.57-7.29,7.47-7.16-7.47,7.29-7.58Zm54.03.8l-7.29,3.6c3.49,28.5,11.6,44.3,20.07,58.1l-.05-34.88c-4.97-8.56-10.08-17.19-12.73-26.82Zm30.35.13v3.61l-9.33,9.09v-3.89l9.33-8.8Zm-170.01,1.42v3.9l-8.18,8.18v-4.07l8.18-8.02Zm85.52.6l-4.66,4.54,4.62,4.74,4.65-4.63-4.61-4.66Zm8.81,1.29l1.89,1.32-.14,38.43-1.56.76-.19-40.51Zm-10.43,1.8h3.04v3.04h-3.04v-3.04Zm86.12.04v3.49l-9.33,9.15v-3.99l9.33-8.65Zm-137.85,1.03c15.96-.22,30.95,6.15,40.44,14.02,4.95,4.09,8.96,9.09,13.86,16.37,9.42,14.78,26,21.92,41.45,22.09l1.28,2-2.58-.09s-.26,1.86-.29,5.02c-.04,3.56-.02,4.18.26,4.29,1.87.22,7.51.1,7.35-.14l1.16,2.09c-18.41,1.91-36.54-4.54-48.01-14.9-8.92-7.77-15.77-19.56-23.3-26.15-3.04-2.65-10.49-6.8-14.5-8.07-4.57-1.45-8.12-2.04-12.7-2.12-3.62-.06-3.63-.08-3.63-.08l-1.53-2.74,2.53.04.17-9.67c-2.68-.13-5.31.02-7.9.34l-.94-1.76c2.31-.31,4.61-.48,6.89-.51h0Zm-32.16.35v3.96l-8.18,8.43v-4.14l8.18-8.24Zm93.35,1.06l.05,3.68-3.95,3.6,4.02,4.23-.08,2.85c-2.57-2.12-4.77-4.73-7.09-7.13l7.05-7.22Zm-55.49.63c-.72,0-1.2.11-1.23.4-.18,1.96-.3,6.57-.32,8.13-.06.53.06,1.02.58,1.08,3.27.39,6.92,1.26,8.66,1.32.64-.02.65-.7,1.14-2.93.11-.48.45-1.77.75-2.87.93-3.33,1.05-3.39-1.82-3.96-1.25-.19-5.6-1.18-7.76-1.18Zm40.41.07l6.38,6.53-6.39,6.24v-2.9s3.08-3.13,3.08-3.13l-3.08-3.37v-3.37Zm-73.37.01c14.8,21.2,23.46,45.97,26.03,69.46,0,0-7.82,3.48-11.68,5.74-4.14-9.74-2.62-11.05-14.35-30.8v-44.4Zm38.23,1.85l1.24,1.31,1.52.03-.56,2.07.98.94-1.43.71-.12,1.85-1.52-.92-1.36,1.34-.74-1.6-1.56.52v-1.92s-1.38-.88-1.38-.88l1.68-.78.15-2.33,1.7.53,1.4-.87Zm-14.27.13l1.4.69,1.54-.57-.23,1.91,1.19.95-1.2,1.11.06,1.4-1.42-.48-2.09-3.56.76-1.44Zm22.6.95c-.46.03-.59.36-.71.84-.09.34-.47,1.62-.9,3.02-1.5,4.9-1.95,4.67.28,5.41.77.26,3.18,1.07,4.7,1.78,1.51.7,2.19,1.32,2.67,1.31,1.07-.77,3.97-6.31,4.47-7.53,0-.29-1.4-1.19-3.15-2.01-1.49-.7-6.33-2.65-6.77-2.76-.24-.06-.44-.08-.59-.07h0Zm1.87,2.38l1.64.98,1.24-.54.9,1.7,1.94.08-1.06,1.84.99,1.46-1.4.09-1.09,1.98-1.42-1.19-1.19.72-.69-1.23-1.71-.24.77-1.88-1.01-1.45,1.67-.31.41-2Zm32.25,1.98l7.46,7.92-6.9,6.54-7.75-7.48,7.19-6.98Zm-20.6,1.84c-.24-.01-.42.11-.59.37-4.89,7.35-5.09,7.1-3.16,8.53,1.97,1.51,4.26,3.77,5.83,4.54.66.33.78.12,1.46-.47,1.59-1.37,4.99-5.33,4.99-5.98-.01-.65-4.71-4.74-7.54-6.56-.44-.28-.75-.43-.99-.44h0Zm100.34.36c.92,0,1.67.75,1.67,1.67s-.75,1.67-1.67,1.67-1.66-.75-1.66-1.67.74-1.67,1.66-1.67Zm-79.69.83l-4.22,4.08,4.48,4.76,4.33-4.11-4.59-4.73Zm-77.1.19v33.98c4.8,7.64,8.43,16.85,12.11,25.99l6.94-2.87c-2.66-24.22-9.76-42.38-19.05-57.1h0Zm-12.93.56c.92,0,1.66.75,1.66,1.68s-.74,1.67-1.66,1.67-1.66-.75-1.66-1.67.75-1.68,1.66-1.68Zm70.3.85l1.53,1.55,1.76-.15-.1,1.73,1.56.76-.99,1.14.62,1.56-1.86-.29-1.06,1.46-1.3-1.17-1.56.41-.35-1.55-1.5-.56.81-1.57-.11-1.98,1.51.28,1.05-1.63Zm18.35,1.22h3.04v3.04h-3.04v-3.04Zm78.46.68c.92,0,1.66.75,1.66,1.67s-.74,1.67-1.66,1.67-1.66-.75-1.66-1.67.74-1.67,1.66-1.67Zm4.87.02c.92,0,1.66.75,1.66,1.67s-.74,1.67-1.66,1.67-1.66-.75-1.66-1.67.74-1.67,1.66-1.67Zm-169.74,1.74c.92,0,1.66.75,1.66,1.68s-.74,1.67-1.66,1.67-1.66-.75-1.66-1.67.74-1.68,1.66-1.68Zm-4.58.07c.92,0,1.66.75,1.66,1.67s-.75,1.67-1.66,1.67-1.66-.75-1.66-1.67.74-1.67,1.66-1.67Zm100.28.68l-.05,2.98-3.79,3.63,3.68,3.78v2.21s-6.5-6.33-6.5-6.33l6.65-6.28Zm-41.53.51l2.7,1.41-15.16,9.7-.92-2.82,13.38-8.29Zm113.28,1.01c.92,0,1.66.75,1.66,1.67s-.74,1.67-1.66,1.67-1.66-.75-1.66-1.67.74-1.67,1.66-1.67Zm-84.65,0l4.7,4.74-.59.64-4.11-5.38Zm-4.91.43c-.05,0-.11,0-.16.01-.27.07-.58.35-1.09.86-1.09,1.24-5.08,4.65-4.96,5.56.22,1.04,1.59,2.23,4.99,6.86.45.58.72.85,1.02.86.24,0,.49-.15.87-.45.34-.27,1.17-.85,1.85-1.29,2.49-1.63,4.6-3.16,4.7-3.38.19-.47-2.31-3.75-5.78-7.68-.75-.85-1.07-1.32-1.44-1.35h0Zm-80.26,1.66c.92,0,1.66.75,1.66,1.68,0,.92-.74,1.67-1.66,1.67s-1.67-.75-1.67-1.67.75-1.68,1.67-1.68Zm174.54.35v3.9l-9.15,8.77v-3.86l9.15-8.81Zm-93.54,1.02l.93,1.79,1.95-.03-.27,1.72,1.36,1.15-1.49.88-.21,1.57-1.28-.11-1.33,1.46-1-1.88-1.51.26.2-1.73-1.28-1.01,1.26-1.76-.17-1.25,1.49.34,1.36-1.41Zm40.96,1.39l.66,1.83-20.71,13.46-1.65-1.25,21.7-14.05Zm-117.44.21v4.29l-8.18,7.72v-4.11l8.18-7.91Zm86.19.52l6.68,6.63-1.96,1.94-5.44-7.84.73-.73Zm-23.09.18l1.81,2.09-21.66,13.99-.83-2.53,20.68-13.54Zm106.91,1.86v4.31l-9.15,8.74v-4.18l9.15-8.88Zm-103.55.94l-.13,40.5-1.71-.82-.07-38.77,1.91-.91Zm.63,1.49l.91.8-.74.75-.17-1.55Zm-67.1.64v4.6l-8.18,8.12v-5.02l8.18-7.69Zm68.9.91l6.02,8.07-.26.22-7.1-6.86,1.34-1.44Zm15.64.05c-.59.07-1.53.7-3.63,2.22-4.07,2.94-4.05,2.5-.31,7.36,2.15,2.8,3.18,4.51,4.06,4.45.69-.05,1.39-.87,2.72-2.29,1.31-1.4,2.85-3.04,3.18-3.28,1.03-.73.98-.91-.81-2.94-.55-.62-1.58-1.87-2.29-2.8-.71-.93-1.85-2.08-2.08-2.32-.27-.29-.5-.45-.85-.4h0Zm-25.51,1.44l-.14,38.49-10.15,6.62c-1.17-13.29-1.98-22.49-5.39-35.02l15.68-10.09Zm34.25.82l.06,2.82-1.54-1.36,1.47-1.45Zm-26.14.21l6.92,6.95-7.03,6.95-.06-2.95,3.96-3.72-3.9-4.09.12-3.14Zm17.17.36l1.13,1.34,1.34-.16-.05,1.63,1.36.78-.96,1.06-.03,1.82-1.99.07-.96.91-1.01-1.39-1.7.11.25-1.64-.91-.67.88-1.24.07-1.57,1.41.34,1.15-1.4Zm36.65,1.48l.9,2.48-13.24,8.73-2.52-1.29,14.86-9.92Zm-45.07,4.9l2.44,3.19-2.68-2.9.24-.29Zm89.58.45c.92,0,1.66.75,1.66,1.67s-.75,1.67-1.66,1.67-1.66-.75-1.66-1.67.74-1.67,1.66-1.67Zm-72.26.18c-.61.05-1.32.95-3.38,3.02-2.15,2.16-3.47,2.77-2.63,3.91,2.03,1.76,3.7,3.04,5.91,4.72,1.46,1.09,2.21,1.61,2.71,1.61.44,0,.7-.42,1.09-1.21.16-.33,1.11-2.11,1.98-3.49,1.97-3.11,1.97-2.95.01-4.16-.83-.52-2.76-2.11-4.41-3.61-.57-.52-.91-.8-1.28-.77h0Zm-18.55.39l7.66,7.59-6.98,7.02-7.67-7.56,6.98-7.04Zm-79.07,1.46c.92,0,1.66.75,1.66,1.67s-.74,1.67-1.66,1.67-1.66-.75-1.66-1.67.74-1.67,1.66-1.67Zm97.93.48l1.02.98,1.98-.13.32,1.7.86.68-.67,1.13.49,1.5-1.7.12-1.03,1.17-1.26-.94-1.48.64-.11-1.75-1.35-.67.85-1.24-.51-1.64,1.46-.05,1.14-1.5Zm-19.11.96l-4.22,4.37,4.8,4.74,4.52-4.46-5.1-4.65Zm88.67.93c.92,0,1.66.75,1.66,1.67s-.74,1.67-1.66,1.67c-.92,0-1.66-.75-1.66-1.67s.74-1.67,1.66-1.67Zm4.78.05c.92,0,1.66.75,1.66,1.67s-.74,1.67-1.66,1.67-1.66-.75-1.66-1.67.74-1.67,1.66-1.67Zm-170.06,1.75c.92,0,1.66.75,1.66,1.67s-.74,1.67-1.66,1.67-1.66-.75-1.66-1.67.75-1.67,1.66-1.67Zm-4.46.17c.92,0,1.66.75,1.66,1.67s-.74,1.67-1.66,1.67-1.66-.75-1.66-1.67.75-1.67,1.66-1.67Zm79.83.04h3.04v3.04h-3.04v-3.04Zm29.54.94c-.49.06-.75.51-1.28,1.41-.47.8-1.35,2.76-1.96,3.78-1.54,2.54-1.58,2.42,1.25,3.79,1.66.81,2.67,1.14,6.17,2.56.97.4,1.59.67,2.06.66.88-.01,1-1.65,1.95-4.76,1.33-4.33,1.43-3.93-1.13-4.83-1.14-.4-3.31-1.14-4.46-1.68-1.4-.66-2.11-.99-2.59-.93Zm62.71,1.2c.92,0,1.66.75,1.66,1.67s-.74,1.67-1.66,1.67-1.66-.75-1.66-1.67.74-1.67,1.66-1.67Zm-81.39.14l2.35,2.16.14,32.95-2.44-1.89-.05-33.22Zm-1.08.12l.12,3.38c-1.32,1.18-2.89,2.53-4.05,3.86l4.03,4.14v2.59s-6.94-6.98-6.94-6.98l6.83-6.99Zm-15.96.04l7.67,7.17-7.74,7.68.23-3.55,4.09-4.07-4.35-4.25.1-2.97Zm36.75.71l1.41.99,1.49-.54.41,1.12,1.53.74-.55,1.23.76,1.66-1.75.13-.9,1.78-1.23-.77-1.38.58-.28-1.49-1.51-.59.43-1.47-.66-1.1,1.28-.25.93-2.03Zm-108.36.88c.92,0,1.66.75,1.66,1.67s-.74,1.67-1.66,1.67-1.66-.75-1.66-1.67.74-1.67,1.66-1.67Zm119.96,1.26c-1.13-.04-.9.54-1.33,1.79-.54,1.56-.84,2.95-1.52,5.18-.62,2.04-.34,2.11,3.66,2.86,2.76.52,5.63.91,6.82.91.39,0,.63-.03.68-.11.1-.17.04-1.7.38-7.22.12-2.02.26-2.03-1.42-2.24-1.42-.05-4.58-.87-6.69-1.12-.22-.03-.41-.05-.57-.05h0Zm54.48.21v3.98l-8.58,8.14v-3.98l8.58-8.15Zm-82.1.22c4.83,3.65,8.7,5.83,12.36,7.68l-.49,34.21-11.92-9.34.05-32.56Zm30.74,1.06l.96,1.23,1.4.05-.08,1.75.91.77-1.09.98.14,1.55-1.73-.29-1.09,1.27-.75-1.23-1.79-.3.31-1.26-.91-1.29,1.12-.85-.04-1.56,1.4.05,1.22-.88Zm-118.45.21v4.19l-8.18,8.33v-4.4l8.18-8.12Zm129.92,1.71l2.52,4.96-1.64-.67-1.25.84-.38-1.84-1.1-.73,1.12-.78.05-1.2.69-.59Zm-54.71,1.67l7.45,7.11-7.8,7.64-7.2-7.17,7.55-7.58Zm94.61,0v4.31l-8.58,8.08v-4.05l8.58-8.34Zm-169.82,2.2v3.79l-8.18,7.99v-3.81l8.18-7.98Zm74.83.69l-4.45,4.5,4.48,4.51,4.59-4.51-4.62-4.5Zm-1.45,2.98h3.04v3.04h-3.04v-3.04Zm9.58,2.53l.06,3.3-4.17,4.04,4.19,4.37-.3,2.28-7.27-6.84,7.49-7.15Zm-15.85.34l6.89,6.67-1.12,1.11-5.76-4.42v-3.35Zm98.29,4.28c.92,0,1.66.75,1.66,1.67s-.74,1.67-1.66,1.67-1.66-.75-1.66-1.67.74-1.67,1.66-1.67Zm-170.03,1.79c.92,0,1.66.75,1.66,1.67s-.74,1.67-1.66,1.67-1.66-.75-1.66-1.67.74-1.67,1.66-1.67Zm34.2,1.03l-5.71,7.55,4.73,3.27-4.48,4.86,4.02,5.31-4.16,3.27,4.5,7.44-.29.36-4.31-2.28-4.09-6.7,4.09-2.99-3.72-4.79,4.01-4.14-4.41-2.82,4.12-5.78,5.71-2.55Zm45.29.28l5.11,5.66-6.06-4.51.95-1.16Zm-43.83.18l.06,3.71-2.01,2.43,2.3,1.59v5.11s-2.33,2.48-2.33,2.48l2.14,2.18-.38,5.59-2.04,1.63,1.68,2.33-.61,3.37c-.13-.23-.54-.32-.73-.62-1.34-2.09-3.78-5.81-3.78-5.81l4.27-3.41-3.92-5.18,4.89-5-5-3.42s3.1-4.78,5.45-6.97h0Zm136.85,1.04c.92,0,1.66.75,1.66,1.67s-.74,1.67-1.66,1.67c-.92,0-1.66-.75-1.66-1.67s.74-1.67,1.66-1.67Zm-103.99.02c.55-.04,1.1.25,1.52.57,11.27,8.98,22.8,17.69,34.22,26.49l-.07,2.66-30.34-22.84s-2.8-2.12-3.6-2.64c-1.7-1.09-2.04-.65-3.74.52-3.83,2.29-13.11,8.65-13.11,8.65l.07-3.29s9.33-7.03,14.5-9.94c.18-.1.37-.15.55-.17Zm99.12.06c.92,0,1.66.75,1.66,1.67s-.74,1.67-1.66,1.67c-.92,0-1.66-.75-1.66-1.67s.74-1.67,1.66-1.67Zm-164.93,1.45c.92,0,1.66.75,1.66,1.67s-.74,1.67-1.66,1.67-1.66-.75-1.66-1.67.74-1.67,1.66-1.67Zm-4.73.2c.92,0,1.66.75,1.66,1.68s-.74,1.67-1.66,1.67-1.66-.75-1.66-1.67.74-1.68,1.66-1.68Zm172.11,2.37c.92,0,1.66.75,1.66,1.68s-.75,1.67-1.66,1.67-1.66-.75-1.66-1.67.74-1.68,1.66-1.68Zm4.78,3.56v4.55l-9.01,8.56v-4.83l9.01-8.27Zm-170.25,1.11v4.23l-8.18,8.02v-4.27l8.18-7.98Zm57.97.33c.98-.04,2.44.15,3.13.35.35.1,2.53.15,5.12.13,6.23-.07,6.29-.08,6.29,4.32,0,1.85.4,2.25,3.66,2.15,4.09-.12,3.88-.23,4.57,4.71.24,1.71.38,1.78,3.76,1.73,3.69-.05,4.53-.11,4.31,3.02-.2,2.84.49,3.59,3.57,2.87,3.28-.77,3.9.63,4.22,3.18.3,2.36.49,1.77,2.06,1.89,1.73.14,1.53,2.1-.31,2.28-.31.03-.6.07-.86.08-1.81.06-2.37-.8-2.68-3.57-.21-1.9-.62-2.08-3.59-1.58-3.14.53-4.19-.33-4.41-3.6-.18-2.59-.16-2.57-3.73-2.6-3.51-.02-3.89-.38-4.29-4.01-.3-2.69-.2-2.62-3.66-2.57-3.83.05-4.17-.23-4.43-3.64-.21-2.76-.39-2.94-2.81-2.74-2.37.2-6.74.22-7.56.04-2.04-.45-2.12-.36-2.56,2.4-.58,3.64-1.29,4.1-5.74,3.65-2.19-.22-2.44-.18-2.75,1.76-.41,2.58-.93,3.34-.93,1.1,0-5.65.39-5.91,4.13-4.91,2.81.75,2.86.18,3.15-2.55.26-2.4.66-3.39,1.54-3.77.17-.07.44-.12.77-.13h0Zm112.28,4.17v4.15l-9.01,8.52v-4.3l9.01-8.38Zm-106.02.51s13.81,10.76,20.48,15.96l-3.2.88-17.27-12.97-16.34,11.01.1-4.02,16.22-10.86Zm-64.23.48v3.57l-8.18,8.34v-4.05l8.18-7.85Zm165.72,10.54c.16,0,.47,1.19.58,1.3.12.11,1.36.44,1.37.6.01.16-1.19.47-1.3.58-.11.12-.44,1.36-.6,1.37-.16,0-.47-1.19-.58-1.3-.12-.11-1.36-.44-1.37-.6-.01-.16,1.19-.47,1.3-.58.11-.12.44-1.36.6-1.37Zm-164.31,2.21l2.68.09v41.91h-2.68v-42Zm-5.82.06c.92,0,1.66.75,1.66,1.67s-.74,1.67-1.66,1.67c-.92,0-1.66-.75-1.66-1.67s.74-1.67,1.66-1.67Zm168.09,1.28c.16,0,.47,1.19.58,1.3.12.11,1.36.44,1.37.6.01.16-1.19.47-1.3.58-.11.12-.44,1.36-.6,1.37-.16,0-.47-1.19-.58-1.3-.12-.11-1.36-.44-1.37-.6-.01-.16,1.19-.47,1.3-.58.11-.12.44-1.36.6-1.37h0Zm4.51,0c.16,0,.47,1.19.58,1.3.12.11,1.36.44,1.37.6.01.16-1.19.47-1.3.58-.11.12-.44,1.36-.6,1.37-.16,0-.47-1.19-.58-1.3-.12-.11-1.36-.44-1.37-.6-.01-.16,1.19-.47,1.3-.58.11-.12.44-1.36.6-1.37h0Zm-83.85,2.59c4.51-.07,7.67,5.71,4.43,10.11-2.93,3.97-7.51,3.92-8.9-.1-1.15-3.32,2.54-7.5,5.49-6.2,2.05.9,1.53,4.62-.78,5.49-.95.36-1.76-.86-1.29-1.95.37-.86.41-1.4-.09-1.03-2.08,1.48-.51,5,2.07,3.68,3.45-1.76,2.87-6.92-.61-7.14-4.39-.43-7.78,5.01-9.95,15.36-2.38,11.58-1.79,21.94-4.07,31.03l-2.02.04c.27-5.55,1.43-9.43,1.78-15.98.44-8.01,1.8-17.98,5.38-26.26,1.21-2.79,3.43-5.4,6.56-6.64.69-.27,1.36-.4,2-.41h0Zm-86.43.57c.92,0,1.66.75,1.66,1.67s-.74,1.68-1.66,1.68-1.66-.75-1.66-1.68.74-1.67,1.66-1.67Zm-4.68.1c.92,0,1.66.75,1.66,1.67s-.74,1.67-1.66,1.67-1.66-.75-1.66-1.67.74-1.67,1.66-1.67Zm35.82.93c1.86.04,3.63,1.76,5.3,5.14,2.62,5.33,3.34,9.28,2.07,11.41-.05.09-.12.13-.19.13-.4-.03-1.1-1.44-2.21-4.4-1.07-2.85-2.8-6.45-3.16-6.58-.11-.04-.6.13-1.08.38-3.64,1.92-6.2-3.53-2.61-5.56.64-.36,1.27-.53,1.89-.52h0Zm136.66.02c.16,0,.47,1.19.58,1.3.12.11,1.36.44,1.37.6.01.16-1.19.47-1.3.58-.11.12-.44,1.36-.6,1.37-.16,0-.47-1.19-.58-1.3-.12-.11-1.36-.44-1.37-.6-.01-.16,1.19-.47,1.3-.58.11-.12.44-1.36.6-1.37Zm-74.43,1.74c.43.09,1.25.96,1.83,2.1,1.29,2.55-1.09,7.48-4.34,8.99-.68.32-1.43.46-2.08.47-1.43.03-2.37-.56-1-1.28,4.35-2.31,6.18-5.64,5.35-9.73-.07-.32-.03-.49.09-.54.04-.02.1-.02.16,0h0Zm-56.32.9c.7.06,1.96.59,2.47,1.14,1.05,1.13,1.38,3.66.67,5.11-.21.42-.36.67-.52.65-.97-2.35-1.96-4.64-3.09-6.78.06-.1.23-.14.47-.12Zm-39.16.47c.92,0,1.66.75,1.66,1.67s-.74,1.67-1.66,1.67-1.66-.75-1.66-1.67.74-1.67,1.66-1.67Zm98.87.26c.32-.06.79.38,1.42,1.33,2.18,3.27-2.2,10.35-5.77,10.51-.44.02-.86-.07-1.26-.27-.94-.49-.8-.85.64-1.71,1.49-.88,2.08-1.43,2.93-2.74,1.34-2.03,1.56-2.82,1.56-5.44,0-1.07.16-1.63.47-1.69Zm2.99,1.92c.11-.04.28.05.51.24,3.19,2.45-.23,11-4.55,11.38-.12.01-.24.02-.34.02-1.62.04-1.84-.78-.4-1.8,2.76-1.94,4.6-5.36,4.56-8.47-.01-.9.03-1.31.21-1.37h0Zm2.68.8c.18.03.48.31.99.84,2.18,2.28.64,8.45-3.59,10.76-.58.3-1.13.43-1.58.43-.99-.01-1.43-.65-.28-1.38,2.81-1.78,4.5-5.17,4.33-8.71-.1-1.34-.17-1.99.13-1.94Zm2.89,1.42c.23.02.62.23,1.26.69,1.8,1.5,1.44,5.4-.47,8.08-1.18,1.65-3.61,3.12-5.07,3.14-.27,0-.51-.04-.7-.14-.77-.39-.48-.44.92-1.45,2.49-1.79,3.73-4.42,4.02-7.36.14-1.41-.64-3.03.04-2.97Zm-24.86.24s.03.01.04.06c.26,1.19,1.01,2.15,1.58,3.09-2.38,6.52-3.34,12.45-3.95,18.04-.71,6.53-.92,12.58-1.81,18.55l-2.31.07c.18-.86.22-1.78.37-2.83.91-6.07,1.45-14.94,2.38-21.89,1.23-9.19,3.38-15,3.7-15.1h0Zm-78.38.13v4.16l-8.18,8.2v-4.07l8.18-8.29Zm106.55,1.43c.08,0,.18.01.25.01.6.1.97.74,1.14,1.27,1.99,4-1.69,10.07-5.59,10.22-.4.02-.81-.04-1.2-.16-.98-.31-.62-.33,1.03-1.43,3.14-2.1,4.09-4.15,4.23-8.35.04-.63-.09-1.16-.04-1.42.02-.1.09-.13.18-.14h0Zm3.1,2.34c.14.01.4.24.87.67,3.2,4.51-1.41,9.99-5.12,9.96-1.66-.02-2.45-.52-1.36-.95,3.64-1.46,5.26-3.78,5.46-7.83.01-1.28-.09-1.87.15-1.85Zm-28.79.16l1.88,1.14c-3.11,10.28-3.94,23.51-5.29,34.45l-1.95.08c.08-1.97.85-11.04,1.78-18.99,1.04-8.96,3.18-16.69,3.59-16.69h0Zm-80.86,1.18v3.46l-8.18,8.59v-3.57l8.18-8.47Zm83.9.52l1.84.64c-1.23-.39-4.25,23.64-4.79,32.97l-2.2.22c.33-4.7,1.12-12.08,2-18.74,1.07-8.05,2.46-15.19,3.16-15.08h0Zm2.86,1.36c.33.01.88.49,2.01,1.12-1.97-.28-3.54,22.1-4.66,30.95l-2.03.1c.79-13,2.68-24.78,3.8-29.84.35-1.52.46-2.18.75-2.31.04-.02.08-.02.13-.02Zm-57.92.65c-2.38.15-4.72,2.51-3.59,5.6.72,1.98,2.55,2.27,4.87,1.88,0,0,1,.72,2.18,4.3,1.39,4.25,3.58,8.62,3.58,8.62.14-5.33,1.38-10.88-.94-15.23-1.72-3.17-3.04-4.33-4.55-4.93-.34-.14-.7-.21-1.06-.24-.16-.01-.32,0-.48,0Zm.36.43c3.44.21,6.76,6.34,6.38,12.89-.12,2.06-.46,3.68-.46,3.68-1.54-3.22-1.87-5.63-3.36-8.55-.65-1.27-1.24-2.36-1.24-2.36-4.88,2.31-6.76-3.51-2.8-5.37.49-.23.98-.32,1.47-.29h0Zm60.47.41l2.06.96c-.56-.19-2.03,5.98-2.53,12.95-.43,6.07-1.52,12.68-1.84,16.33l-2.25.27c1.44-9.84,1.57-21.34,4.55-30.52Zm3.06,1.52l2.1,1.07c-1.1-.33-3.03,20.01-4.2,27.24l-2.12.33c.82-3.47.82-8.6,1.43-12.87.76-5.29,1.57-16.03,2.79-15.78Zm3.17,1.47l2,1.07c-.78,3.25-2.76,14.32-3.86,25.25l-2.14.29c1.03-7.94,2.89-26.47,3.99-26.61h0Zm3.04,1.64l2.19,1s-1.52,7.47-2.24,12.71c-.71,5.18-.82,5.92-1.05,7.27-.5,2.98-.64,3.09-.64,3.09l-1.83.31c.88-8.73,1.71-17.58,3.56-24.37Zm-103.23,3.84c.92,0,1.66.75,1.66,1.68s-.74,1.67-1.66,1.67-1.66-.75-1.66-1.67.74-1.68,1.66-1.68Zm2.19,3.94c.92,0,1.67.75,1.67,1.68s-.75,1.67-1.67,1.67-1.66-.75-1.66-1.67.74-1.68,1.66-1.68Zm-4.55.07c.92,0,1.66.75,1.66,1.67s-.74,1.67-1.66,1.67-1.66-.75-1.66-1.67.75-1.67,1.66-1.67Zm2.46,3.89c.92,0,1.66.75,1.66,1.67s-.74,1.67-1.66,1.67-1.66-.75-1.66-1.67.74-1.67,1.66-1.67Zm-3.99,5.36h19l-19,20.14v-3.48l12.32-13.75h-12.32v-2.91Zm0,4.47h9.33l-9.33,9.76v-9.76Zm24.93.77c-1.14.03-2.24.26-3.27.75-.44.18-.78.41-.78.65,2.4,2.2,3.66,5.97,4.48,9.07,1.83,4.88,3.19,10.76,7.41,13.35l-2.91,5.83h91.52l-15.23-26.84c-17.35,3.39-41.8,5.15-62.72-.22,0,0-3.6,6.73-4.5,8.53,0,0-.53-1.65-1.09-2.8-2.45-4.65-7.96-8.44-12.89-8.31h0Zm-.19.51c.27-.01.54,0,.82.01,4.79.32,10.85,4.98,12.55,9.31-.26.52-1.43,2.68-1.43,2.68-.61-1.19-.15-2.37-.55-3.44-.1-.46-1.09,3.08-1.09,3.08,0,0-.96-1.57-1.08-4.59-.02-.47-1.25,2.03-1.25,2.03-1.55-2.1-1.46-5.73-1.46-5.73-1.74,2.13-.66,3.35-3.35-2.08-.31.56-.16,1.16-.57,1-1.18-.46-2.85-1.3-3.45-1.13.79,1,2.32,1.52,2.74,2.84,0,0-1.21-.1-1.29-.04,1.38.75,2.7,1.4,3.73,2.85-.31.11-1.55-.1-1.5.03,1.86,1.69,4.66,3.06.62,2.68,2.63,1.86,5.56,3.15.99,3.01,3.26,1.55,4.14,2.5,3.53,2.77-.34.15-1.32-.44-2.87.06,2.62,1.07,3.7,1.57,3.8,1.92.13.43-1.12.66-1.97,1.59,0,0,1.05-.24,1.51.25,0,0-.51,1.48-.9,2.34-3.33-3.04-4.64-7.35-5.51-10.13-.43-1.43-.88-2.84-.98-3.13-1.6-4.36-2.25-5.8-3.3-7.24-.17-.24-.22-.21.03-.42.68-.33,1.43-.5,2.23-.54h0Zm80.67,4.2l13.18,23.35h-2.76l-10.41-18.64-15.46,1.55,4.27,17.09h-4.08l-4.22-16.65-23.92.13c-.77,5.58-2.28,16.52-2.28,16.52h-4.42l2.94-16.93-14.13-1.79-8.16,18.72h-3.83l11.78-23.11c22.71,3.56,34.72,4,61.51-.25Zm-59.86,6.78l9.79,1.32-2.67,15.25h-13.84l6.72-16.57Zm58.06.25l8.81,16.32h-15.08l-4.33-15.33,10.61-.99Zm-19.62,1.97l3.16,14.35h-24.35l1.39-14.19,19.79-.15Z"/>
            </g>
          </g>
        </g>
        <path id="uuid-ff03db5a-2b26-495a-80ac-fa46001a1b9f" data-name="path147-0-8-1-3-6-4-3-4" class="uuid-987204d8-552b-4149-a1a1-58b46e796020" d="m182.87,313.3c11-.24,15.93-12.63,7.78-22.25-1.18-1.4-1.3-2.21.86-.86,5.48,3.67,16,1.26,16.53-9.96.67-13.82-18.63-17.81-22.25-3.11-.19,1.55-1.45,1.52-1.15-.69.33-5.98,2.19-11.56,4.76-17.01h-13.07c2.56,5.45,4.43,11.03,4.76,17.01.3,2.2-.96,2.24-1.15.69-3.62-14.7-22.92-10.72-22.25,3.11.54,11.22,11.05,13.63,16.53,9.96,2.16-1.35,2.04-.54.86.86-8.14,9.62-3.21,22.02,7.78,22.25,0,0,0,0,.01,0h0Z"/>
        <path id="uuid-e3329ef8-178e-4c22-b9ab-585f63169da2" data-name="path147-0-8-1-0-3-83-9-4-0" class="uuid-987204d8-552b-4149-a1a1-58b46e796020" d="m66.92,36.7c11,.24,15.93,12.63,7.78,22.25-1.18,1.4-1.3,2.21.86.86,5.48-3.67,16-1.26,16.53,9.96.66,13.82-18.63,17.81-22.26,3.11-.19-1.55-1.45-1.52-1.15.69.33,5.98,2.19,11.56,4.76,17.01h-13.07c2.56-5.45,4.43-11.03,4.76-17.01.3-2.2-.96-2.24-1.15-.69-3.62,14.7-22.92,10.72-22.26-3.11.54-11.22,11.05-13.63,16.53-9.96,2.16,1.35,2.04.54.86-.86-8.14-9.62-3.21-22.02,7.78-22.25,0,0,0,0,.01,0h0Z"/>
      </g>
      <path id="uuid-3ee9da5d-3e8d-4e82-a42e-21792a3966e0" data-name="path147-6-9-8-7-0-5-6-79-2-4-7" class="uuid-987204d8-552b-4149-a1a1-58b46e796020" d="m230.61,293.91c4.4-.1,6.37-5.26,3.11-9.27-.47-.58-.52-.92.34-.36,2.19,1.53,6.4.52,6.61-4.15.27-5.76-7.45-7.42-8.9-1.29-.08.65-.58.63-.46-.29.13-2.49.88-4.82,1.9-7.09h-5.23c1.02,2.27,1.77,4.6,1.9,7.09.12.92-.38.93-.46.29-1.45-6.13-9.17-4.47-8.9,1.29.22,4.67,4.42,5.68,6.61,4.15.87-.56.82-.23.34.36-3.26,4.01-1.29,9.17,3.11,9.27,0,0,0,0,0,0h0Z"/>
      <path id="uuid-6fbfecce-2863-444b-ac38-877630c41aaa" data-name="path147-6-9-8-7-4-5-62-3-3-7-5" class="uuid-987204d8-552b-4149-a1a1-58b46e796020" d="m19.17,56.1c-4.4.1-6.37,5.26-3.11,9.27.47.58.52.92-.34.36-2.19-1.53-6.4-.52-6.61,4.15-.27,5.76,7.45,7.42,8.9,1.29.08-.65.58-.63.46.29-.13,2.49-.88,4.82-1.9,7.09h5.23c-1.02-2.27-1.77-4.6-1.9-7.09-.12-.92.38-.93.46-.29,1.45,6.13,9.17,4.47,8.9-1.29-.22-4.67-4.42-5.68-6.61-4.15-.87.56-.82.23-.34-.36,3.26-4.01,1.29-9.17-3.11-9.27,0,0,0,0,0,0h0Z"/>
      <path id="uuid-894c06ea-4771-4054-a20a-d3a7032ce2cd" data-name="path35-5-6-2-3" class="uuid-987204d8-552b-4149-a1a1-58b46e796020" d="m19.05,15.54v3.88h3.76s.09,3.74.12,11.67c.03,7.7.19,11.52-.3,13.71-1.32,5.05-8.62,5.08-10.07,1.45-.84-2.11-.62-3.76-.66-5.88h-4.04s.02,1.07.03,2.38c.02,5.68,1.9,8.4,6.29,9.47,4.52,1.22,9.8-.64,11.68-4.51,1.12-2.2.99-2.36,1.02-15.69.02-8.89.15-12.59.15-12.59h3.46v-3.88h-11.43Z"/>
      <path id="uuid-a9c79caa-e1d0-4a3a-ad66-b7a43afba737" data-name="path35-6-4-1-2-4" class="uuid-987204d8-552b-4149-a1a1-58b46e796020" d="m230.72,334.47v-3.88h-3.76s-.09-3.74-.12-11.67c-.03-7.7-.19-11.52.3-13.71,1.32-5.05,8.62-5.08,10.07-1.45.84,2.11.62,3.76.66,5.88h4.04s-.02-1.07-.03-2.38c-.02-5.68-1.9-8.4-6.29-9.47-4.52-1.22-9.8.64-11.68,4.51-1.12,2.2-.99,2.36-1.02,15.69-.02,8.89-.15,12.59-.15,12.59h-3.46v3.88h11.43Z"/>
    </g>
  </g>
</svg>