<?xml version="1.0" encoding="UTF-8"?>
<svg id="uuid-3abedf1f-423d-413f-a1af-62b816b9b178" data-name="Cards" xmlns="http://www.w3.org/2000/svg" viewBox="0 0 250 350">
  <defs>
    <style>
      .uuid-086304b4-6c14-4e94-8047-acd95f5f1ae9, .uuid-cc8aa4a0-0901-46ab-a22d-1ccfd4fe5469 {
        stroke-width: 0px;
      }

      .uuid-cc8aa4a0-0901-46ab-a22d-1ccfd4fe5469 {
        fill: #fff;
      }
    </style>
  </defs>
  <g id="uuid-46cdeb28-a7c5-4bf7-a9b4-b086ce568203" data-name="SPADE-7">
    <path id="uuid-ea80113b-0fe8-4d37-ab30-d793f928837b" data-name="rect7056-4-2" class="uuid-cc8aa4a0-0901-46ab-a22d-1ccfd4fe5469" d="m11.91,0h226.08c6.6,0,11.96,5.36,11.96,11.97v326.05c0,6.61-5.35,11.97-11.96,11.97H11.91c-6.6,0-11.96-5.36-11.96-11.97V11.97C-.05,5.36,5.31,0,11.91,0Z"/>
    <path id="uuid-6e262380-37fa-4c76-aa59-862b11093fec" data-name="path7086-8-0" class="uuid-086304b4-6c14-4e94-8047-acd95f5f1ae9" d="m66.97,36.7c-10.33,14.77-21.39,23.27-21.57,34.79-.06,3.73,1.95,10.07,8.25,11.29,4.09.78,9.72-2.53,9.84-9.27-.02-1.34,1.42-1.31,1.4.53-.19,5.32-1.87,11.51-4.69,16.55h13.53c-2.82-5.04-4.5-11.23-4.69-16.55-.01-1.84,1.42-1.87,1.4-.53.12,6.74,5.75,10.06,9.84,9.27,6.3-1.21,8.32-7.56,8.25-11.29-.18-11.52-11.24-20.02-21.57-34.79Z"/>
    <path id="uuid-04a01180-dd45-4f6c-9ac2-6aa6f788f7a1" data-name="path7088-9-3" class="uuid-086304b4-6c14-4e94-8047-acd95f5f1ae9" d="m19.23,56.09c-4.83,6.15-9.99,9.69-10.08,14.5-.03,1.55.91,4.2,3.86,4.7,1.91.33,4.54-1.06,4.6-3.86-.01-.56.66-.54.66.22-.09,2.22-.87,4.79-2.19,6.89h6.32c-1.32-2.1-2.1-4.68-2.19-6.89-.01-.77.66-.78.66-.22.05,2.81,2.69,4.19,4.6,3.86,2.95-.51,3.89-3.15,3.86-4.7-.09-4.8-5.25-8.34-10.08-14.5h0Z"/>
    <path id="uuid-b3d14df3-af47-4e8a-9dc8-39266ba0fa3a" data-name="path7092-7-0" class="uuid-086304b4-6c14-4e94-8047-acd95f5f1ae9" d="m230.66,293.9c-4.83-6.15-9.99-9.69-10.08-14.5-.03-1.55.91-4.2,3.86-4.7,1.91-.33,4.54,1.06,4.6,3.86-.01.56.66.54.66-.22-.09-2.22-.87-4.79-2.19-6.89h6.32c-1.32,2.1-2.1,4.68-2.19,6.89-.01.77.66.78.66.22.05-2.81,2.69-4.19,4.6-3.86,2.95.51,3.89,3.15,3.86,4.7-.09,4.8-5.25,8.34-10.08,14.5h0Z"/>
    <path id="uuid-ec588b59-d40b-4fa2-b256-ea60a9a054c5" data-name="path7094-3-5" class="uuid-086304b4-6c14-4e94-8047-acd95f5f1ae9" d="m182.92,36.7c-10.33,14.77-21.39,23.27-21.57,34.79-.06,3.73,1.95,10.07,8.25,11.29,4.09.78,9.72-2.53,9.84-9.27-.02-1.34,1.42-1.31,1.4.53-.19,5.32-1.87,11.51-4.69,16.55h13.53c-2.82-5.04-4.5-11.23-4.69-16.55-.01-1.84,1.42-1.87,1.4-.53.12,6.74,5.75,10.06,9.84,9.27,6.3-1.21,8.32-7.56,8.25-11.29-.18-11.52-11.24-20.02-21.57-34.79Z"/>
    <path id="uuid-275cdf63-885d-47e1-bf3e-9a7a19357d1a" data-name="path7098-7-3" class="uuid-086304b4-6c14-4e94-8047-acd95f5f1ae9" d="m124.95,92.38c-10.33,14.77-21.39,23.27-21.57,34.79-.06,3.73,1.95,10.07,8.25,11.29,4.09.78,9.72-2.53,9.84-9.27-.02-1.34,1.42-1.31,1.4.53-.19,5.32-1.87,11.51-4.69,16.55h13.53c-2.82-5.04-4.5-11.23-4.69-16.55-.01-1.84,1.42-1.87,1.4-.53.12,6.74,5.75,10.06,9.84,9.27,6.3-1.21,8.32-7.56,8.25-11.29-.18-11.52-11.24-20.02-21.57-34.79Z"/>
    <path id="uuid-7d5293c9-ab79-49f4-baaf-328b4bb0c140" data-name="path7105-0-7" class="uuid-086304b4-6c14-4e94-8047-acd95f5f1ae9" d="m66.97,148.06c-10.33,14.77-21.39,23.27-21.57,34.79-.06,3.73,1.95,10.07,8.25,11.29,4.09.78,9.72-2.53,9.84-9.27-.02-1.34,1.42-1.31,1.4.53-.19,5.32-1.87,11.51-4.69,16.55h13.53c-2.82-5.04-4.5-11.23-4.69-16.55-.01-1.84,1.42-1.87,1.4-.53.12,6.74,5.75,10.06,9.84,9.27,6.3-1.21,8.32-7.56,8.25-11.29-.18-11.52-11.24-20.02-21.57-34.79Z"/>
    <path id="uuid-15e2f99d-4764-42ed-abed-75bc7f3162b9" data-name="path7107-6-3" class="uuid-086304b4-6c14-4e94-8047-acd95f5f1ae9" d="m66.97,313.29c-10.33-14.77-21.39-23.27-21.57-34.79-.06-3.73,1.95-10.07,8.25-11.29,4.09-.78,9.72,2.53,9.84,9.27-.02,1.34,1.42,1.31,1.4-.53-.19-5.32-1.87-11.51-4.69-16.55h13.53c-2.82,5.04-4.5,11.23-4.69,16.55-.01,1.84,1.42,1.87,1.4.53.12-6.74,5.75-10.06,9.84-9.27,6.3,1.21,8.32,7.56,8.25,11.29-.18,11.52-11.24,20.02-21.57,34.79h0Z"/>
    <path id="uuid-18ccd67a-47b2-4d55-8f50-c5714a92ab65" data-name="path7109-5-0" class="uuid-086304b4-6c14-4e94-8047-acd95f5f1ae9" d="m182.92,313.29c-10.33-14.77-21.39-23.27-21.57-34.79-.06-3.73,1.95-10.07,8.25-11.29,4.09-.78,9.72,2.53,9.84,9.27-.02,1.34,1.42,1.31,1.4-.53-.19-5.32-1.87-11.51-4.69-16.55h13.53c-2.82,5.04-4.5,11.23-4.69,16.55-.01,1.84,1.42,1.87,1.4.53.12-6.74,5.75-10.06,9.84-9.27,6.3,1.21,8.32,7.56,8.25,11.29-.18,11.52-11.24,20.02-21.57,34.79h0Z"/>
    <path id="uuid-b83f86e6-fc27-4d72-bff8-50a71bcc7844" data-name="path7119-1-9" class="uuid-086304b4-6c14-4e94-8047-acd95f5f1ae9" d="m182.92,148.06c-10.33,14.77-21.39,23.27-21.57,34.79-.06,3.73,1.95,10.07,8.25,11.29,4.09.78,9.72-2.53,9.84-9.27-.02-1.34,1.42-1.31,1.4.53-.19,5.32-1.87,11.51-4.69,16.55h13.53c-2.82-5.04-4.5-11.23-4.69-16.55-.01-1.84,1.42-1.87,1.4-.53.12,6.74,5.75,10.06,9.84,9.27,6.3-1.21,8.32-7.56,8.25-11.29-.18-11.52-11.24-20.02-21.57-34.79Z"/>
    <path id="uuid-aa0e1633-2151-4b58-8bcd-79dfe315d198" data-name="path25-4-6-4" class="uuid-086304b4-6c14-4e94-8047-acd95f5f1ae9" d="m13.55,52.57c2.43-12.88,5.02-22.55,11.81-33.04h-13.81v4.52h-3.67v-8.51h20.2l2.49,4c-7.22,7.89-13.82,33.41-12.65,33.04h-4.38Z"/>
    <path id="uuid-e92b1a60-c04a-4486-8b4f-c527846495a4" data-name="path25-4-1-9-1" class="uuid-086304b4-6c14-4e94-8047-acd95f5f1ae9" d="m236.34,297.42c-2.43,12.88-5.02,22.55-11.81,33.04h13.81v-4.52h3.67v8.51h-20.2l-2.49-4c7.22-7.89,13.82-33.41,12.65-33.04h4.38Z"/>
  </g>
</svg>