<?xml version="1.0" encoding="UTF-8"?>
<svg id="uuid-e1666433-eed0-463f-83b5-f140e08157cc" data-name="Cards" xmlns="http://www.w3.org/2000/svg" viewBox="0 0 250 350">
  <defs>
    <style>
      .uuid-7035461a-ae23-4de9-bdce-2921bfbc814a, .uuid-db7d318a-fd57-4555-8fde-199581ecaba5 {
        stroke-width: 0px;
      }

      .uuid-db7d318a-fd57-4555-8fde-199581ecaba5 {
        fill: #fff;
      }
    </style>
  </defs>
  <g id="uuid-a373db94-a162-4d2b-9b35-3775a99de7b8" data-name="SPADE-6">
    <path id="uuid-f51be510-5105-4ae2-a7ae-512b5d3a1995" data-name="rect6988-1-0" class="uuid-db7d318a-fd57-4555-8fde-199581ecaba5" d="m11.91,0h226.08c6.6,0,11.96,5.36,11.96,11.97v326.05c0,6.61-5.35,11.97-11.96,11.97H11.91c-6.6,0-11.96-5.36-11.96-11.97V11.97C-.05,5.36,5.31,0,11.91,0Z"/>
    <path id="uuid-c3a050af-7f91-45a8-b48c-3c9a5fa06daf" data-name="path7018-7-4" class="uuid-7035461a-ae23-4de9-bdce-2921bfbc814a" d="m66.97,36.7c-10.33,14.77-21.39,23.27-21.57,34.79-.06,3.73,1.95,10.07,8.25,11.29,4.09.78,9.72-2.53,9.84-9.27-.02-1.34,1.42-1.31,1.4.53-.19,5.32-1.87,11.51-4.69,16.55h13.54c-2.82-5.04-4.5-11.23-4.69-16.55-.01-1.84,1.42-1.87,1.4-.53.12,6.74,5.75,10.06,9.84,9.27,6.3-1.21,8.32-7.56,8.25-11.29-.18-11.52-11.24-20.02-21.57-34.79h0Z"/>
    <path id="uuid-00e71737-2777-4804-89cc-7e2d623865db" data-name="path7020-0-8" class="uuid-7035461a-ae23-4de9-bdce-2921bfbc814a" d="m19.23,56.09c-4.83,6.15-9.99,9.69-10.08,14.5-.03,1.55.91,4.2,3.86,4.7,1.91.33,4.54-1.06,4.6-3.86-.01-.56.66-.54.66.22-.09,2.22-.87,4.79-2.19,6.89h6.32c-1.32-2.1-2.1-4.68-2.19-6.89-.01-.77.66-.78.66-.22.05,2.81,2.69,4.19,4.6,3.86,2.95-.51,3.89-3.15,3.86-4.7-.09-4.8-5.25-8.34-10.08-14.5h0Z"/>
    <path id="uuid-7052edca-fcff-4bee-8a10-51347bb9ee71" data-name="path7024-7-1" class="uuid-7035461a-ae23-4de9-bdce-2921bfbc814a" d="m230.66,293.9c-4.83-6.15-9.99-9.69-10.08-14.5-.03-1.55.91-4.2,3.86-4.7,1.91-.33,4.54,1.06,4.6,3.86-.01.56.66.54.66-.22-.09-2.22-.87-4.79-2.19-6.89h6.32c-1.32,2.1-2.1,4.68-2.19,6.89-.01.77.66.78.66.22.05-2.81,2.69-4.19,4.6-3.86,2.95.51,3.89,3.15,3.86,4.7-.09,4.8-5.25,8.34-10.08,14.5h0Z"/>
    <path id="uuid-797d937c-9b30-4cbf-9e46-a0abe39fdf8b" data-name="path7026-2-6" class="uuid-7035461a-ae23-4de9-bdce-2921bfbc814a" d="m182.92,36.7c-10.33,14.77-21.39,23.27-21.57,34.79-.06,3.73,1.95,10.07,8.25,11.29,4.09.78,9.72-2.53,9.84-9.27-.02-1.34,1.42-1.31,1.4.53-.19,5.32-1.87,11.51-4.69,16.55h13.53c-2.82-5.04-4.5-11.23-4.69-16.55-.01-1.84,1.42-1.87,1.4-.53.12,6.74,5.75,10.06,9.84,9.27,6.3-1.21,8.32-7.56,8.25-11.29-.18-11.52-11.24-20.02-21.57-34.79Z"/>
    <path id="uuid-3d8f9888-8109-45f4-a8f8-9c62a7c43c4d" data-name="path7036-9-6" class="uuid-7035461a-ae23-4de9-bdce-2921bfbc814a" d="m66.97,148.06c-10.33,14.77-21.39,23.27-21.57,34.79-.06,3.73,1.95,10.07,8.25,11.29,4.09.78,9.72-2.53,9.84-9.27-.02-1.34,1.42-1.31,1.4.53-.19,5.32-1.87,11.51-4.69,16.55h13.54c-2.82-5.04-4.5-11.23-4.69-16.55-.01-1.84,1.42-1.87,1.4-.53.12,6.74,5.75,10.06,9.84,9.27,6.3-1.21,8.32-7.56,8.25-11.29-.18-11.52-11.24-20.02-21.57-34.79h0Z"/>
    <path id="uuid-0cf6cd1e-9c8f-4f7b-b139-e905ed539bd9" data-name="path7038-9-6" class="uuid-7035461a-ae23-4de9-bdce-2921bfbc814a" d="m66.97,313.29c-10.33-14.77-21.39-23.27-21.57-34.79-.06-3.73,1.95-10.07,8.25-11.29,4.09-.78,9.72,2.53,9.84,9.27-.02,1.34,1.42,1.31,1.4-.53-.19-5.32-1.87-11.51-4.69-16.55h13.54c-2.82,5.04-4.5,11.23-4.69,16.55-.01,1.84,1.42,1.87,1.4.53.12-6.74,5.75-10.06,9.84-9.27,6.3,1.21,8.32,7.56,8.25,11.29-.18,11.52-11.24,20.02-21.57,34.79h0Z"/>
    <path id="uuid-1241e077-2495-4a8e-afa0-b8ead9e3bda1" data-name="path7040-0-9" class="uuid-7035461a-ae23-4de9-bdce-2921bfbc814a" d="m182.92,313.29c-10.33-14.77-21.39-23.27-21.57-34.79-.06-3.73,1.95-10.07,8.25-11.29,4.09-.78,9.72,2.53,9.84,9.27-.02,1.34,1.42,1.31,1.4-.53-.19-5.32-1.87-11.51-4.69-16.55h13.53c-2.82,5.04-4.5,11.23-4.69,16.55-.01,1.84,1.42,1.87,1.4.53.12-6.74,5.75-10.06,9.84-9.27,6.3,1.21,8.32,7.56,8.25,11.29-.18,11.52-11.24,20.02-21.57,34.79h0Z"/>
    <path id="uuid-c443e55a-ae5d-4b7f-a5fe-c354a89f36bf" data-name="path7050-2-9" class="uuid-7035461a-ae23-4de9-bdce-2921bfbc814a" d="m182.92,148.06c-10.33,14.77-21.39,23.27-21.57,34.79-.06,3.73,1.95,10.07,8.25,11.29,4.09.78,9.72-2.53,9.84-9.27-.02-1.34,1.42-1.31,1.4.53-.19,5.32-1.87,11.51-4.69,16.55h13.53c-2.82-5.04-4.5-11.23-4.69-16.55-.01-1.84,1.42-1.87,1.4-.53.12,6.74,5.75,10.06,9.84,9.27,6.3-1.21,8.32-7.56,8.25-11.29-.18-11.52-11.24-20.02-21.57-34.79Z"/>
    <path id="uuid-630d9dad-d9d6-4e2d-a877-5fa890e8708b" data-name="path23-1-9-8" class="uuid-7035461a-ae23-4de9-bdce-2921bfbc814a" d="m8.38,41.18c-.45-3.12-.44-11.18-.07-13.56,1.15-7.3,3.93-10.65,8.59-11.74,4.53-1.06,10.89.12,12.28,6.22l-3.79.07c-2.05-4.13-7.23-3.03-10.15-1.23-2.33,1.43-3.38,7.4-2.93,7.77,0,0,4.4-3.27,7.87-3.03,7.42.77,10.48,7.22,10.22,13.31-.24,7.32-2.55,13.18-10.42,13.57-7.48-.29-10.9-4.37-11.62-11.4h0Zm18.44-1.93c.04-5.08-2.26-8.89-6.62-9.31-4.35-.42-8.75,3.84-8.44,9.02.3,5.2,2.31,9.58,7.59,9.55,5.68-.02,7.44-5.65,7.47-9.27h0Z"/>
    <path id="uuid-4efb0e8e-5587-4f14-a186-bab712212ee6" data-name="path23-1-5-6-4" class="uuid-7035461a-ae23-4de9-bdce-2921bfbc814a" d="m241.51,308.82c.45,3.12.44,11.18.07,13.56-1.15,7.3-3.93,10.65-8.59,11.74-4.53,1.06-10.89-.12-12.28-6.22l3.79-.07c2.05,4.13,7.23,3.03,10.15,1.23,2.33-1.43,3.38-7.4,2.93-7.77,0,0-4.4,3.27-7.87,3.03-7.42-.77-10.48-7.22-10.22-13.31.24-7.32,2.55-13.18,10.42-13.57,7.48.29,10.9,4.37,11.62,11.4h0Zm-18.44,1.93c-.04,5.08,2.26,8.89,6.62,9.31,4.35.42,8.75-3.84,8.44-9.02-.3-5.2-2.31-9.58-7.59-9.55-5.68.02-7.44,5.65-7.47,9.27Z"/>
  </g>
</svg>