<?xml version="1.0" encoding="UTF-8"?>
<svg id="uuid-fcc38898-56da-4afb-993d-4017b40fc42e" data-name="Cards" xmlns="http://www.w3.org/2000/svg" viewBox="0 0 250 350">
  <defs>
    <style>
      .uuid-92d0bc08-fd23-429b-b240-d29b751333fe, .uuid-fe60c26a-2e7b-4031-88f5-bed00e8deddb {
        stroke-width: 0px;
      }

      .uuid-fe60c26a-2e7b-4031-88f5-bed00e8deddb {
        fill: #fff;
      }
    </style>
  </defs>
  <g id="uuid-2e4d1aab-db5b-4cd9-8b64-022cbfa19385" data-name="SPADE-2">
    <path id="uuid-6b40396d-fdde-4eaa-ade2-cb114aa64367" data-name="rect6716-2-0" class="uuid-fe60c26a-2e7b-4031-88f5-bed00e8deddb" d="m11.95,0h226.08c6.6,0,11.96,5.36,11.96,11.97v326.06c0,6.61-5.35,11.97-11.96,11.97H11.95c-6.6,0-11.96-5.36-11.96-11.97V11.97C0,5.36,5.34,0,11.95,0Z"/>
    <path id="uuid-474748a9-3bee-4c07-bce9-c521f84f140e" data-name="path6748-4-0" class="uuid-92d0bc08-fd23-429b-b240-d29b751333fe" d="m19.27,56.09c-4.83,6.15-9.99,9.69-10.08,14.5-.03,1.55.91,4.2,3.86,4.7,1.91.33,4.54-1.06,4.6-3.86-.01-.56.66-.54.66.22-.09,2.22-.87,4.79-2.19,6.89h6.32c-1.32-2.1-2.1-4.68-2.19-6.89-.01-.77.66-.78.66-.22.05,2.81,2.69,4.19,4.6,3.86,2.95-.51,3.89-3.15,3.86-4.7-.09-4.8-5.25-8.34-10.08-14.5h0Z"/>
    <path id="uuid-6d8eee97-576c-400b-850b-6210791bd9c0" data-name="path6752-9-1" class="uuid-92d0bc08-fd23-429b-b240-d29b751333fe" d="m230.71,293.9c-4.83-6.15-9.99-9.69-10.08-14.5-.03-1.55.91-4.2,3.86-4.7,1.91-.33,4.54,1.06,4.6,3.86-.01.56.66.54.66-.22-.09-2.22-.87-4.79-2.19-6.89h6.32c-1.32,2.1-2.1,4.68-2.19,6.89-.01.77.66.78.66.22.05-2.81,2.69-4.19,4.6-3.86,2.95.51,3.89,3.15,3.86,4.7-.09,4.8-5.25,8.34-10.08,14.5h0Z"/>
    <path id="uuid-8296f793-01f3-454f-b804-c72162a38539" data-name="path6760-2-4" class="uuid-92d0bc08-fd23-429b-b240-d29b751333fe" d="m124.99,36.7c-10.33,14.77-21.39,23.27-21.57,34.79-.06,3.73,1.95,10.07,8.25,11.29,4.09.78,9.72-2.53,9.84-9.27-.02-1.34,1.42-1.31,1.4.53-.19,5.32-1.87,11.51-4.69,16.55h13.54c-2.82-5.04-4.5-11.23-4.69-16.55-.01-1.84,1.42-1.87,1.4-.53.12,6.74,5.75,10.06,9.84,9.27,6.3-1.21,8.32-7.56,8.25-11.29-.18-11.52-11.24-20.02-21.57-34.79h0Z"/>
    <path id="uuid-70ad64db-cc86-4681-96bb-b7795577401b" data-name="path6774-6-2" class="uuid-92d0bc08-fd23-429b-b240-d29b751333fe" d="m124.99,313.3c-10.33-14.77-21.39-23.27-21.57-34.79-.06-3.73,1.95-10.07,8.25-11.29,4.09-.78,9.72,2.53,9.84,9.27-.02,1.34,1.42,1.31,1.4-.53-.19-5.32-1.87-11.51-4.69-16.55h13.54c-2.82,5.04-4.5,11.23-4.69,16.55-.01,1.84,1.42,1.87,1.4.53.12-6.74,5.75-10.06,9.84-9.27,6.3,1.21,8.32,7.56,8.25,11.29-.18,11.52-11.24,20.02-21.57,34.79h0Z"/>
    <path id="uuid-fd2ed7cf-d99b-496d-ab36-255bcc05478e" data-name="path15-3-8-9" class="uuid-92d0bc08-fd23-429b-b240-d29b751333fe" d="m8.75,52.49l.18-2.28c.57-7.06,2.08-9.44,10.66-16.81,4.17-3.57,5.53-5.33,5.72-7.38.55-4.82-3.71-6.33-6.49-6.35-3.59-.03-7.66,2.16-5.72,7.25l-4.03,1.21c-.81-4.75.02-9.21,3.8-11.19,5.04-2.58,11.5-1.57,14.76,2.5,2.19,2.73,2.69,6.5,1.52,9.45-3.44,7.54-15.1,10.86-16.06,19.59h12.89v-4.86h3.8v8.95l-21.04-.08h0Z"/>
    <path id="uuid-6f1f9278-3423-4390-a063-e610c1462229" data-name="path15-3-5-1-4" class="uuid-92d0bc08-fd23-429b-b240-d29b751333fe" d="m241.22,297.5l-.18,2.28c-.57,7.06-2.08,9.44-10.66,16.81-4.17,3.57-5.53,5.33-5.72,7.38-.55,4.82,3.71,6.33,6.49,6.35,3.59.03,7.66-2.16,5.72-7.25l4.03-1.21c.81,4.75-.02,9.21-3.8,11.19-5.04,2.58-11.5,1.57-14.76-2.5-2.19-2.73-2.69-6.5-1.52-9.45,3.44-7.54,15.1-10.86,16.06-19.59h-12.89v4.86h-3.8v-8.95l21.04.08h0Z"/>
  </g>
</svg>