<?xml version="1.0" encoding="UTF-8"?>
<svg id="uuid-77dfdd45-e6fe-4243-81c3-07c8c7a6b302" data-name="Cards" xmlns="http://www.w3.org/2000/svg" viewBox="0 0 250 350">
  <defs>
    <style>
      .uuid-5df4de09-bee7-43ce-9cdf-ec148fa56880, .uuid-e1cd525c-5ee5-4a27-ae62-66777069d83d {
        stroke-width: 0px;
      }

      .uuid-e1cd525c-5ee5-4a27-ae62-66777069d83d {
        fill: #fff;
      }
    </style>
  </defs>
  <g id="uuid-6b35cf16-be1b-418a-b252-45e0d49942db" data-name="SPADE-9">
    <path id="uuid-f698a80f-04df-40a2-b358-dc614ebfdcf2" data-name="rect7195-8-7" class="uuid-e1cd525c-5ee5-4a27-ae62-66777069d83d" d="m11.89,0h226.08c6.6,0,11.96,5.36,11.96,11.97v326.06c0,6.61-5.35,11.97-11.96,11.97H11.89c-6.6,0-11.96-5.36-11.96-11.97V11.97C-.07,5.36,5.28,0,11.89,0Z"/>
    <path id="uuid-9c24041b-d2f2-42c0-aa5b-48eda4d66a76" data-name="path7225-5-2" class="uuid-5df4de09-bee7-43ce-9cdf-ec148fa56880" d="m66.95,36.7c-10.33,14.77-21.39,23.27-21.57,34.79-.06,3.73,1.95,10.07,8.26,11.29,4.09.78,9.72-2.53,9.84-9.27-.02-1.34,1.42-1.31,1.4.53-.19,5.32-1.87,11.51-4.69,16.55h13.54c-2.82-5.04-4.5-11.23-4.69-16.55-.01-1.84,1.42-1.87,1.4-.53.12,6.74,5.75,10.06,9.84,9.27,6.3-1.21,8.32-7.56,8.26-11.29-.18-11.52-11.24-20.02-21.57-34.79Z"/>
    <path id="uuid-7ed6d066-2662-4e58-89ba-fffe14e724b0" data-name="path7227-2-8" class="uuid-5df4de09-bee7-43ce-9cdf-ec148fa56880" d="m19.21,56.09c-4.83,6.15-9.99,9.69-10.08,14.5-.03,1.55.91,4.2,3.86,4.7,1.91.33,4.54-1.06,4.6-3.86-.01-.56.66-.54.66.22-.09,2.22-.87,4.79-2.19,6.89h6.32c-1.32-2.1-2.1-4.68-2.19-6.89-.01-.77.66-.78.66-.22.05,2.81,2.69,4.19,4.6,3.86,2.95-.51,3.89-3.15,3.86-4.7-.09-4.8-5.25-8.34-10.08-14.5h0Z"/>
    <path id="uuid-0da78444-f5b4-4059-8d4b-432fd2324f99" data-name="path7229-4-8" class="uuid-5df4de09-bee7-43ce-9cdf-ec148fa56880" d="m66.95,239.06c-10.33-14.77-21.39-23.27-21.57-34.79-.06-3.73,1.95-10.07,8.26-11.29,4.09-.78,9.72,2.53,9.84,9.27-.02,1.34,1.42,1.31,1.4-.53-.19-5.32-1.87-11.51-4.69-16.55h13.54c-2.82,5.04-4.5,11.23-4.69,16.55-.01,1.84,1.42,1.87,1.4.53.12-6.74,5.75-10.06,9.84-9.27,6.3,1.21,8.32,7.56,8.26,11.29-.18,11.52-11.24,20.02-21.57,34.79Z"/>
    <path id="uuid-62265097-a529-4c49-b1d6-7d086ca136fb" data-name="path7231-7-8" class="uuid-5df4de09-bee7-43ce-9cdf-ec148fa56880" d="m230.64,293.9c-4.83-6.15-9.99-9.69-10.08-14.5-.03-1.55.91-4.2,3.86-4.7,1.91-.33,4.54,1.06,4.6,3.86-.01.56.66.54.66-.22-.09-2.22-.87-4.79-2.19-6.89h6.32c-1.32,2.1-2.1,4.68-2.19,6.89-.01.77.66.78.66.22.05-2.81,2.69-4.19,4.6-3.86,2.95.51,3.89,3.15,3.86,4.7-.09,4.8-5.25,8.34-10.08,14.5h0Z"/>
    <path id="uuid-f3f06db4-e778-4bf5-9bcb-ca8040ff7b57" data-name="path7233-8-9" class="uuid-5df4de09-bee7-43ce-9cdf-ec148fa56880" d="m182.9,36.7c-10.33,14.77-21.39,23.27-21.57,34.79-.06,3.73,1.95,10.07,8.26,11.29,4.09.78,9.72-2.53,9.84-9.27-.02-1.34,1.42-1.31,1.4.53-.19,5.32-1.87,11.51-4.69,16.55h13.54c-2.82-5.04-4.5-11.23-4.69-16.55-.01-1.84,1.42-1.87,1.4-.53.12,6.74,5.75,10.06,9.84,9.27,6.3-1.21,8.32-7.56,8.26-11.29-.18-11.52-11.24-20.02-21.57-34.79Z"/>
    <path id="uuid-bc3947d7-7ef7-4ed6-81a4-af3e59e81620" data-name="path7235-9-4" class="uuid-5df4de09-bee7-43ce-9cdf-ec148fa56880" d="m66.95,110.94c-10.33,14.77-21.39,23.27-21.57,34.79-.06,3.73,1.95,10.07,8.26,11.29,4.09.78,9.72-2.53,9.84-9.27-.02-1.34,1.42-1.31,1.4.53-.19,5.32-1.87,11.51-4.69,16.55h13.54c-2.82-5.04-4.5-11.23-4.69-16.55-.01-1.84,1.42-1.87,1.4-.53.12,6.74,5.75,10.06,9.84,9.27,6.3-1.21,8.32-7.56,8.26-11.29-.18-11.52-11.24-20.02-21.57-34.79Z"/>
    <path id="uuid-6953bc2b-0d6e-45c1-a35a-bd884c2474f7" data-name="path7241-7-2" class="uuid-5df4de09-bee7-43ce-9cdf-ec148fa56880" d="m182.9,110.94c-10.33,14.77-21.39,23.27-21.57,34.79-.06,3.73,1.95,10.07,8.26,11.29,4.09.78,9.72-2.53,9.84-9.27-.02-1.34,1.42-1.31,1.4.53-.19,5.32-1.87,11.51-4.69,16.55h13.54c-2.82-5.04-4.5-11.23-4.69-16.55-.01-1.84,1.42-1.87,1.4-.53.12,6.74,5.75,10.06,9.84,9.27,6.3-1.21,8.32-7.56,8.26-11.29-.18-11.52-11.24-20.02-21.57-34.79Z"/>
    <path id="uuid-1e6089dd-ac75-409a-a30a-9eab51631006" data-name="path7245-1-6" class="uuid-5df4de09-bee7-43ce-9cdf-ec148fa56880" d="m66.95,313.3c-10.33-14.77-21.39-23.27-21.57-34.79-.06-3.73,1.95-10.07,8.26-11.29,4.09-.78,9.72,2.53,9.84,9.27-.02,1.34,1.42,1.31,1.4-.53-.19-5.32-1.87-11.51-4.69-16.55h13.54c-2.82,5.04-4.5,11.23-4.69,16.55-.01,1.84,1.42,1.87,1.4.53.12-6.74,5.75-10.06,9.84-9.27,6.3,1.21,8.32,7.56,8.26,11.29-.18,11.52-11.24,20.02-21.57,34.79h0Z"/>
    <path id="uuid-649c83f7-7bde-4d00-9c29-764d5ba1d33e" data-name="path7247-0-6" class="uuid-5df4de09-bee7-43ce-9cdf-ec148fa56880" d="m182.9,313.3c-10.33-14.77-21.39-23.27-21.57-34.79-.06-3.73,1.95-10.07,8.26-11.29,4.09-.78,9.72,2.53,9.84,9.27-.02,1.34,1.42,1.31,1.4-.53-.19-5.32-1.87-11.51-4.69-16.55h13.54c-2.82,5.04-4.5,11.23-4.69,16.55-.01,1.84,1.42,1.87,1.4.53.12-6.74,5.75-10.06,9.84-9.27,6.3,1.21,8.32,7.56,8.26,11.29-.18,11.52-11.24,20.02-21.57,34.79h0Z"/>
    <path id="uuid-d4c3408d-de03-4a51-8bac-18afe02f43ac" data-name="path7251-3-6" class="uuid-5df4de09-bee7-43ce-9cdf-ec148fa56880" d="m182.9,239.06c-10.33-14.77-21.39-23.27-21.57-34.79-.06-3.73,1.95-10.07,8.26-11.29,4.09-.78,9.72,2.53,9.84,9.27-.02,1.34,1.42,1.31,1.4-.53-.19-5.32-1.87-11.51-4.69-16.55h13.54c-2.82,5.04-4.5,11.23-4.69,16.55-.01,1.84,1.42,1.87,1.4.53.12-6.74,5.75-10.06,9.84-9.27,6.3,1.21,8.32,7.56,8.26,11.29-.18,11.52-11.24,20.02-21.57,34.79Z"/>
    <path id="uuid-d5375303-4319-4885-9343-38d21cdd961f" data-name="path7255-7-8" class="uuid-5df4de09-bee7-43ce-9cdf-ec148fa56880" d="m124.93,148.06c-10.33,14.77-21.39,23.27-21.57,34.79-.06,3.73,1.95,10.07,8.26,11.29,4.09.78,9.72-2.53,9.84-9.27-.02-1.34,1.42-1.31,1.4.53-.19,5.32-1.87,11.51-4.69,16.55h13.54c-2.82-5.04-4.5-11.23-4.69-16.55-.01-1.84,1.42-1.87,1.4-.53.12,6.74,5.75,10.06,9.84,9.27,6.3-1.21,8.32-7.56,8.26-11.29-.18-11.52-11.24-20.02-21.57-34.79Z"/>
    <path id="uuid-0dfeb81b-cec7-487c-977f-27cd983321d1" data-name="path29-33-4-4" class="uuid-5df4de09-bee7-43ce-9cdf-ec148fa56880" d="m8.88,45.43l3.38-1.07c1.28,3.42,3.85,4.43,6.58,4.21,4.89-.39,6.52-5.87,6.88-10.72-1.91,2.03-4.77,3.06-7.21,2.95-7.8-.42-9.8-6.68-9.87-13.23-.21-5.52,2.06-9.52,5.97-11.36,2.07-.93,6.81-.93,8.89.17,4.78,2.53,6.55,6.89,6.23,17.32,0,8.58-1.82,18.57-10.99,18.79-5.3.73-9.32-3.4-9.87-7.05h0Zm13.28-9.4c1.59-1.01,2.49-1.96,3.2-3.38.58-1.17.79-1.77.62-4.18-.43-6.22-3.68-9.75-8.4-9.05-2.63.4-4.07,1.87-4.9,4.62-1.52,5.08.41,11.01,4.03,12.38,1.63.62,4.15.44,5.45-.39h0Z"/>
    <path id="uuid-b8c4f092-8505-4365-892d-b1de18b35b04" data-name="path29-33-3-8-6" class="uuid-5df4de09-bee7-43ce-9cdf-ec148fa56880" d="m240.97,304.56l-3.38,1.07c-1.28-3.42-3.85-4.43-6.58-4.21-4.89.39-6.52,5.87-6.88,10.72,1.91-2.03,4.77-3.06,7.21-2.95,7.8.42,9.8,6.68,9.87,13.23.21,5.52-2.06,9.52-5.97,11.36-2.07.93-6.81.93-8.89-.17-4.78-2.53-6.55-6.89-6.23-17.32,0-8.58,1.82-18.57,10.99-18.79,5.3-.73,9.32,3.4,9.87,7.05h0Zm-13.28,9.4c-1.59,1.01-2.49,1.96-3.2,3.38-.58,1.17-.79,1.77-.62,4.18.43,6.22,3.68,9.75,8.4,9.05,2.63-.4,4.07-1.87,4.9-4.62,1.52-5.08-.41-11.01-4.03-12.38-1.63-.62-4.15-.44-5.45.39h0Z"/>
  </g>
</svg>