<?xml version="1.0" encoding="UTF-8"?>
<svg id="uuid-e13e4891-86aa-46b1-990f-745ea5dd34e3" data-name="Cards" xmlns="http://www.w3.org/2000/svg" viewBox="0 0 250 350">
  <defs>
    <style>
      .uuid-76c54758-8209-478b-b93e-33f2a1e914bb, .uuid-85bcbbcd-f23f-47fa-854d-512dacd2d1c4 {
        stroke-width: 0px;
      }

      .uuid-85bcbbcd-f23f-47fa-854d-512dacd2d1c4 {
        fill: #fff;
      }
    </style>
  </defs>
  <g id="uuid-3b691b09-296d-4407-95b2-185fd11f4c47" data-name="SPADE-8">
    <path id="uuid-8130591a-4c9f-47a5-b04f-cbee35d7d083" data-name="rect7125-2-7" class="uuid-85bcbbcd-f23f-47fa-854d-512dacd2d1c4" d="m11.9,0h226.08c6.6,0,11.96,5.36,11.96,11.97v326.05c0,6.61-5.35,11.97-11.96,11.97H11.9c-6.6,0-11.96-5.36-11.96-11.97V11.97C-.06,5.36,5.29,0,11.9,0Z"/>
    <path id="uuid-e86837ec-04f4-45d6-bd49-71c7eee487f3" data-name="path7155-4-0" class="uuid-76c54758-8209-478b-b93e-33f2a1e914bb" d="m66.96,36.7c-10.33,14.77-21.39,23.27-21.57,34.79-.06,3.73,1.95,10.07,8.25,11.29,4.09.78,9.72-2.53,9.84-9.27-.02-1.34,1.42-1.31,1.4.53-.19,5.32-1.87,11.51-4.69,16.55h13.53c-2.82-5.04-4.5-11.23-4.69-16.55-.01-1.84,1.42-1.87,1.4-.53.12,6.74,5.75,10.06,9.84,9.27,6.3-1.21,8.32-7.56,8.25-11.29-.18-11.52-11.24-20.02-21.57-34.79Z"/>
    <path id="uuid-807f3908-b879-46db-9c9d-7e59ce270ad4" data-name="path7157-2-9" class="uuid-76c54758-8209-478b-b93e-33f2a1e914bb" d="m19.22,56.09c-4.83,6.15-9.99,9.69-10.08,14.5-.03,1.55.91,4.2,3.86,4.7,1.91.33,4.54-1.06,4.6-3.86-.01-.56.66-.54.66.22-.09,2.22-.87,4.79-2.19,6.89h6.32c-1.32-2.1-2.1-4.68-2.19-6.89-.01-.77.66-.78.66-.22.05,2.81,2.69,4.19,4.6,3.86,2.95-.51,3.89-3.15,3.86-4.7-.09-4.8-5.25-8.34-10.08-14.5h0Z"/>
    <path id="uuid-a0bb9562-ddce-4125-903b-506a9c41eda0" data-name="path7162-7-0" class="uuid-76c54758-8209-478b-b93e-33f2a1e914bb" d="m230.65,293.9c-4.83-6.15-9.99-9.69-10.08-14.5-.03-1.55.91-4.2,3.86-4.7,1.91-.33,4.54,1.06,4.6,3.86-.01.56.66.54.66-.22-.09-2.22-.87-4.79-2.19-6.89h6.32c-1.32,2.1-2.1,4.68-2.19,6.89-.01.77.66.78.66.22.05-2.81,2.69-4.19,4.6-3.86,2.95.51,3.89,3.15,3.86,4.7-.09,4.8-5.25,8.34-10.08,14.5h0Z"/>
    <path id="uuid-d0c0aad1-8d53-4439-8cf6-1bc789668d1c" data-name="path7164-8-3" class="uuid-76c54758-8209-478b-b93e-33f2a1e914bb" d="m182.91,36.7c-10.33,14.77-21.39,23.27-21.57,34.79-.06,3.73,1.95,10.07,8.25,11.29,4.09.78,9.72-2.53,9.84-9.27-.02-1.34,1.42-1.31,1.4.53-.19,5.32-1.87,11.51-4.69,16.55h13.53c-2.82-5.04-4.5-11.23-4.69-16.55-.01-1.84,1.42-1.87,1.4-.53.12,6.74,5.75,10.06,9.84,9.27,6.3-1.21,8.32-7.56,8.25-11.29-.18-11.52-11.24-20.02-21.57-34.79Z"/>
    <path id="uuid-4e1c385b-ef06-4270-8866-bb9679485d33" data-name="path7168-3-2" class="uuid-76c54758-8209-478b-b93e-33f2a1e914bb" d="m124.94,92.38c-10.33,14.77-21.39,23.27-21.57,34.79-.06,3.73,1.95,10.07,8.25,11.29,4.09.78,9.72-2.53,9.84-9.27-.02-1.34,1.42-1.31,1.4.53-.19,5.32-1.87,11.51-4.69,16.55h13.53c-2.82-5.04-4.5-11.23-4.69-16.55-.01-1.84,1.42-1.87,1.4-.53.12,6.74,5.75,10.06,9.84,9.27,6.3-1.21,8.32-7.56,8.25-11.29-.18-11.52-11.24-20.02-21.57-34.79Z"/>
    <path id="uuid-75bd8ccb-64aa-49a8-96d8-dfa35895683b" data-name="path7174-5-0" class="uuid-76c54758-8209-478b-b93e-33f2a1e914bb" d="m66.96,148.06c-10.33,14.77-21.39,23.27-21.57,34.79-.06,3.73,1.95,10.07,8.25,11.29,4.09.78,9.72-2.53,9.84-9.27-.02-1.34,1.42-1.31,1.4.53-.19,5.32-1.87,11.51-4.69,16.55h13.53c-2.82-5.04-4.5-11.23-4.69-16.55-.01-1.84,1.42-1.87,1.4-.53.12,6.74,5.75,10.06,9.84,9.27,6.3-1.21,8.32-7.56,8.25-11.29-.18-11.52-11.24-20.02-21.57-34.79Z"/>
    <path id="uuid-dd9e28a1-87eb-4ce7-936d-7260d1e11f2c" data-name="path7176-7-0" class="uuid-76c54758-8209-478b-b93e-33f2a1e914bb" d="m66.96,313.3c-10.33-14.77-21.39-23.27-21.57-34.79-.06-3.73,1.95-10.07,8.25-11.29,4.09-.78,9.72,2.53,9.84,9.27-.02,1.34,1.42,1.31,1.4-.53-.19-5.32-1.87-11.51-4.69-16.55h13.53c-2.82,5.04-4.5,11.23-4.69,16.55-.01,1.84,1.42,1.87,1.4.53.12-6.74,5.75-10.06,9.84-9.27,6.3,1.21,8.32,7.56,8.25,11.29-.18,11.52-11.24,20.02-21.57,34.79h0Z"/>
    <path id="uuid-26f7410f-320b-45ca-8987-90899e36ad6e" data-name="path7178-9-4" class="uuid-76c54758-8209-478b-b93e-33f2a1e914bb" d="m182.91,313.3c-10.33-14.77-21.39-23.27-21.57-34.79-.06-3.73,1.95-10.07,8.25-11.29,4.09-.78,9.72,2.53,9.84,9.27-.02,1.34,1.42,1.31,1.4-.53-.19-5.32-1.87-11.51-4.69-16.55h13.53c-2.82,5.04-4.5,11.23-4.69,16.55-.01,1.84,1.42,1.87,1.4.53.12-6.74,5.75-10.06,9.84-9.27,6.3,1.21,8.32,7.56,8.25,11.29-.18,11.52-11.24,20.02-21.57,34.79h0Z"/>
    <path id="uuid-4a7d9852-4ecb-4bbf-8e86-43188a6b3dbe" data-name="path7180-5-1" class="uuid-76c54758-8209-478b-b93e-33f2a1e914bb" d="m124.94,257.62c-10.33-14.77-21.39-23.27-21.57-34.79-.06-3.73,1.95-10.07,8.25-11.29,4.09-.78,9.72,2.53,9.84,9.27-.02,1.34,1.42,1.31,1.4-.53-.19-5.32-1.87-11.51-4.69-16.55h13.53c-2.82,5.04-4.5,11.23-4.69,16.55-.01,1.84,1.42,1.87,1.4.53.12-6.74,5.75-10.06,9.84-9.27,6.3,1.21,8.32,7.56,8.25,11.29-.18,11.52-11.24,20.02-21.57,34.79Z"/>
    <path id="uuid-c4821106-d5d6-43ee-99f1-200a2c24a56c" data-name="path7189-7-7" class="uuid-76c54758-8209-478b-b93e-33f2a1e914bb" d="m182.91,148.06c-10.33,14.77-21.39,23.27-21.57,34.79-.06,3.73,1.95,10.07,8.25,11.29,4.09.78,9.72-2.53,9.84-9.27-.02-1.34,1.42-1.31,1.4.53-.19,5.32-1.87,11.51-4.69,16.55h13.53c-2.82-5.04-4.5-11.23-4.69-16.55-.01-1.84,1.42-1.87,1.4-.53.12,6.74,5.75,10.06,9.84,9.27,6.3-1.21,8.32-7.56,8.25-11.29-.18-11.52-11.24-20.02-21.57-34.79Z"/>
    <path id="uuid-3d0c3fa7-1742-4d27-b1bd-1c3d0be048ad" data-name="path27-43-30-7" class="uuid-76c54758-8209-478b-b93e-33f2a1e914bb" d="m7.22,41.72c.18-4.97,1.97-6.84,5.5-9.44-2.82-2.04-4.01-5.04-3.76-7.6.58-6.19,5.35-9.28,10.55-9.15,5.21.14,9.69,4.28,10.04,8.77.3,3.91-.86,5.8-3.62,7.85,3.28,2.78,5.38,4.61,5.3,9.5-.08,4.9-4.23,10.73-11.48,10.9-7.25.18-12.71-5.87-12.53-10.85h0Zm20.23.02c.31-4.5-3.66-7.54-8.14-7.58-4.36-.05-8.27,3.69-8.27,7.73,0,4.34,5.08,6.7,8.36,6.71,3.99.02,7.78-2.98,8.05-6.86Zm-1.43-16.11c.09-3.79-3.4-6.51-7-6.4-3.2.1-6.59,2.54-6.59,5.71,0,3.97,3.85,5.95,7.14,6.02,2.99.07,6.38-2.48,6.45-5.34h0Z"/>
    <path id="uuid-a6e8feb7-60df-485e-b420-fbffb19baba3" data-name="path27-43-3-4-8" class="uuid-76c54758-8209-478b-b93e-33f2a1e914bb" d="m218.64,308.27c.18,4.97,1.97,6.84,5.5,9.44-2.82,2.04-4.01,5.04-3.76,7.6.58,6.19,5.35,9.28,10.55,9.15,5.21-.14,9.69-4.28,10.04-8.77.3-3.91-.86-5.8-3.62-7.85,3.28-2.78,5.38-4.61,5.3-9.5-.08-4.9-4.23-10.73-11.48-10.9-7.25-.18-12.71,5.87-12.53,10.85h0Zm20.23-.02c.31,4.5-3.66,7.54-8.14,7.58-4.36.05-8.27-3.69-8.27-7.73,0-4.34,5.08-6.7,8.36-6.71,3.99-.02,7.78,2.98,8.05,6.86h0Zm-1.43,16.11c.09,3.79-3.4,6.51-7,6.4-3.2-.1-6.59-2.54-6.59-5.71,0-3.97,3.85-5.95,7.14-6.02,2.99-.07,6.38,2.48,6.45,5.34h0Z"/>
  </g>
</svg>