<?xml version="1.0" encoding="UTF-8"?>
<svg id="uuid-837c6cfb-3164-4e87-af69-a5e02d233d81" data-name="Cards" xmlns="http://www.w3.org/2000/svg" viewBox="0 0 250 350">
  <defs>
    <style>
      .uuid-9e66247d-cead-4809-8fb9-ecb4d1c88c5f, .uuid-ed8f0cab-0268-4d41-8239-41d3d91b9a0c {
        stroke-width: 0px;
      }

      .uuid-ed8f0cab-0268-4d41-8239-41d3d91b9a0c {
        fill: #fff;
      }
    </style>
  </defs>
  <g id="uuid-d02a8d29-2361-402c-847c-057756462695" data-name="SPADE-1">
    <path id="uuid-bccf6ab3-949d-4f9a-b4dc-c8792d7fd9d4" data-name="rect6355-6-85-62-9-7" class="uuid-ed8f0cab-0268-4d41-8239-41d3d91b9a0c" d="m11.96,0h226.08c6.6,0,11.96,5.36,11.96,11.97v326.06c0,6.61-5.35,11.97-11.96,11.97H11.96C5.36,350,0,344.64,0,338.03V11.97C0,5.36,5.36,0,11.96,0Z"/>
    <path id="uuid-5bfbde02-4652-46c4-b43d-7b562734f41a" data-name="path153-0-1-2-5-5-5-3-4" class="uuid-9e66247d-cead-4809-8fb9-ecb4d1c88c5f" d="m19.28,56.09c-4.83,6.15-9.99,9.69-10.08,14.5-.03,1.55.91,4.2,3.86,4.7,1.91.33,4.54-1.06,4.6-3.86-.01-.56.66-.54.66.22-.09,2.22-.87,4.79-2.19,6.89h6.32c-1.32-2.1-2.1-4.68-2.19-6.89-.01-.77.66-.78.66-.22.05,2.81,2.69,4.19,4.6,3.86,2.95-.51,3.89-3.15,3.86-4.7-.09-4.8-5.25-8.34-10.08-14.5Z"/>
    <path id="uuid-5511a962-b07a-459c-ae0c-e80b9db641ee" data-name="path153-0-1-2-5-6-5-9-1-9" class="uuid-9e66247d-cead-4809-8fb9-ecb4d1c88c5f" d="m230.71,293.9c-4.83-6.15-9.99-9.69-10.08-14.5-.03-1.55.91-4.2,3.86-4.7,1.91-.33,4.54,1.06,4.6,3.86-.01.56.66.54.66-.22-.09-2.22-.87-4.79-2.19-6.89h6.32c-1.32,2.1-2.1,4.68-2.19,6.89-.01.77.66.78.66.22.05-2.81,2.69-4.19,4.6-3.86,2.95.51,3.89,3.15,3.86,4.7-.09,4.8-5.25,8.34-10.08,14.5h0Z"/>
    <path id="uuid-bd9df828-c1e6-4724-8871-dded0ff00843" data-name="path153-6-3-1-6-92-7-2-9-8" class="uuid-9e66247d-cead-4809-8fb9-ecb4d1c88c5f" d="m125,148.06c-10.33,14.77-21.39,23.27-21.57,34.79-.06,3.73,1.95,10.07,8.25,11.29,4.09.78,9.72-2.53,9.84-9.27-.02-1.34,1.42-1.31,1.4.53-.19,5.32-1.87,11.51-4.69,16.55h13.54c-2.82-5.04-4.5-11.23-4.69-16.55-.01-1.84,1.42-1.87,1.4-.53.12,6.74,5.75,10.06,9.84,9.27,6.3-1.21,8.32-7.56,8.25-11.29-.18-11.52-11.24-20.02-21.57-34.79Z"/>
    <path id="uuid-d78da44d-770e-4732-9c67-7a2a8c761b44" data-name="path41-4-9-2" class="uuid-9e66247d-cead-4809-8fb9-ecb4d1c88c5f" d="m7.98,52.57v-3.17h3.02l6.42-33.87h3.66l7.08,33.87h2.43v3.17h-8.3v-3.17h2.24l-.89-5.19h-8.37l-.65,5.19h2.24v3.17H7.98Zm14.94-12.06l-3.64-18.13-3.41,18.13h7.05Z"/>
    <path id="uuid-1c457cd1-4311-4e47-83c6-830a860192bf" data-name="path41-4-2-4-0" class="uuid-9e66247d-cead-4809-8fb9-ecb4d1c88c5f" d="m219.41,297.42v3.17h3.02l6.42,33.87h3.66l7.08-33.87h2.43v-3.17h-8.3v3.17h2.24l-.89,5.19h-8.37l-.65-5.19h2.24v-3.17h-8.88Zm14.94,12.06l-3.64,18.13-3.41-18.13h7.05Z"/>
  </g>
</svg>