<?xml version="1.0" encoding="UTF-8"?>
<svg id="uuid-03adede7-2714-4bd8-8895-04e6f8fd105d" data-name="Cards" xmlns="http://www.w3.org/2000/svg" viewBox="0 0 250 350">
  <defs>
    <style>
      .uuid-dad8a680-53c7-464c-8610-dbda15236ab5, .uuid-a456a79a-377d-497f-b310-f8f93db15c03, .uuid-eeee638c-62f6-4bd5-8d07-11e766e051d0, .uuid-2f86d000-d15f-4ccb-9f4a-6835563743b9, .uuid-0e49e659-f5a6-474b-a9da-43cb88151201 {
        stroke-width: 0px;
      }

      .uuid-a456a79a-377d-497f-b310-f8f93db15c03 {
        fill: #c8102e;
      }

      .uuid-eeee638c-62f6-4bd5-8d07-11e766e051d0 {
        fill: #fff;
      }

      .uuid-2f86d000-d15f-4ccb-9f4a-6835563743b9 {
        fill: #ffcd00;
      }

      .uuid-0e49e659-f5a6-474b-a9da-43cb88151201 {
        fill: #004c97;
      }
    </style>
  </defs>
  <g id="uuid-70a785d6-7fa7-4420-b2fc-53c3b496d1ea" data-name="SPADE-12-QUEEN">
    <path id="uuid-972b169d-e749-41ce-b215-1cbe96251d2a" data-name="rect7399-8-3" class="uuid-eeee638c-62f6-4bd5-8d07-11e766e051d0" d="m11.85,0h226.08c6.6,0,11.96,5.36,11.96,11.97v326.06c0,6.61-5.35,11.97-11.96,11.97H11.85c-6.6,0-11.96-5.36-11.96-11.97V11.97C-.11,5.35,5.25,0,11.85,0Z"/>
    <path id="uuid-8011de4b-9c0f-485c-8ebd-ddafa2680303" data-name="path7431-0-1" class="uuid-dad8a680-53c7-464c-8610-dbda15236ab5" d="m19.18,56.09c-4.83,6.15-9.99,9.69-10.08,14.5-.03,1.55.91,4.2,3.86,4.7,1.91.33,4.54-1.06,4.6-3.86-.01-.56.66-.54.66.22-.09,2.22-.87,4.79-2.19,6.89h6.32c-1.32-2.1-2.1-4.68-2.19-6.89-.01-.77.66-.78.66-.22.06,2.81,2.69,4.19,4.6,3.86,2.95-.51,3.89-3.15,3.86-4.7-.09-4.8-5.25-8.34-10.08-14.5Z"/>
    <path id="uuid-6b84ab0d-7c2d-43eb-b872-8b55f5bc82f0" data-name="path7435-3-6" class="uuid-dad8a680-53c7-464c-8610-dbda15236ab5" d="m230.61,293.91c-4.83-6.15-9.99-9.69-10.08-14.5-.03-1.55.91-4.2,3.86-4.7,1.91-.33,4.54,1.06,4.6,3.86-.01.56.66.54.66-.22-.09-2.22-.87-4.79-2.19-6.89h6.32c-1.32,2.1-2.1,4.68-2.19,6.89-.01.77.66.78.66.22.06-2.81,2.69-4.19,4.6-3.86,2.95.51,3.89,3.15,3.86,4.7-.09,4.8-5.25,8.34-10.08,14.5h0Z"/>
    <path id="uuid-434ece72-3fca-4cf0-9cf7-483b4ef4d815" data-name="path37-0-2-9" class="uuid-dad8a680-53c7-464c-8610-dbda15236ab5" d="m11.03,40.31h-3.09v-4.22h3.09s.02-2.27.11-6.29c.19-8.55.4-9.88,2.87-12.23,4.88-4.65,13.04-.86,12.95,6.13-.14,9.87-.04,19.28-.33,20.61-.51,2.35-.56,2.48-.35,2.91.43.86,4.12,1.23,4.12.99v4.16c-2.82.22-3.99-.05-6.24-1.66-1.41,1.36-5.69,2.73-9.1,1.12-2.59-1.22-4.56-4.38-4.03-11.53h0Zm10.44,7.37c-1.53-2.22-4.11-5.24-6.53-6.32-.15,2.55.07,4.69.96,5.84,1.42,1.83,3.72,2.25,5.57.48h0Zm1.27-24.38c-1.14-3.22-4.05-4.32-6.19-2.3-1.33,1.26-1.55,2.58-1.58,9.75-.02,4.43-.02,6.29-.02,6.29,4.15,1.35,8.03,6.2,8,6.14l.1-13.39c.08-2.17-.03-4.35-.32-6.49h0Z"/>
    <path id="uuid-4a5590f3-7473-45d9-9111-c54f6449fc72" data-name="path37-0-5-5-3" class="uuid-dad8a680-53c7-464c-8610-dbda15236ab5" d="m238.75,309.68h3.09v4.22h-3.09s-.02,2.27-.11,6.29c-.19,8.55-.4,9.88-2.87,12.23-4.88,4.65-13.04.86-12.95-6.13.14-9.87.04-19.28.33-20.61.51-2.35.56-2.48.35-2.91-.43-.86-4.12-1.23-4.12-.99v-4.16c2.82-.22,3.99.05,6.24,1.66,1.41-1.36,5.69-2.73,9.1-1.12,2.59,1.22,4.56,4.38,4.03,11.53h0Zm-10.44-7.37c1.53,2.22,4.11,5.24,6.53,6.32.15-2.55-.07-4.69-.96-5.84-1.42-1.83-3.72-2.25-5.57-.48Zm-1.27,24.38c1.14,3.22,4.05,4.32,6.19,2.3,1.33-1.26,1.55-2.58,1.58-9.75.02-4.43.02-6.29.02-6.29-4.15-1.35-8.03-6.2-8-6.14l-.1,13.39c-.08,2.17.03,4.35.32,6.49h0Z"/>
    <path id="uuid-699f05bf-0cc0-4f1e-ac7d-0eee19b295c7" data-name="path4075-4-3-9" class="uuid-2f86d000-d15f-4ccb-9f4a-6835563743b9" d="m114.21,321.22l26.29-48.09s6.27,2.48,13.69,4.41c-7.12,18.64-.05,43.23-.05,43.23,0,0-39.95.4-39.93.44Zm-72.04-82.11c-1.49-20.42.86-37.74,1.81-56.49.06-.26-8.54-5.6-8.54-5.6l20.21-11.43c2.01,1.05,3.17.87,3.65-1.08-2.04-6.96-2.44-13.69,2.23-19.45,3.5-4.21,11.49-2.05,13.81-2.06,1.81,0,6.11-14.37-1.17-18.6-1.54-.9-2.27,8.38-3.33,12.28-4.68-2.75-13.35-5.06-14.5-9.91-.59-2.68,7.92-7.85,6.24-10.88-2.43-4.41-8.72-11-11.41-9.19-2.54,2.31-8.61,7.02-8.57,10.24,1.89,5.78,6.71,6.18,9.24,11.65.63,1.18,5.29,6.15,5.29,6.15-1.75,2.68,1.08,7.37,1.21,6.65l-22.05-9.64s5.05,38.18-.28,43.83c-.56.6,4.72-1.5,4.81-1.17,1.61,2.04,19.42,13.41,24.51,17.49,9.05-12.67,12.36-18.25,24.03-29.5,2.56-2.12,8.27-6.01,11.53-10.67,2.62-3.75,3.71-7.97,3.24-11.24-.61-4.24-.98-7.13-3.59-10.51-6.02-7.8-15.59-15.24-15.42-15.37l3.27-2.67s11.8,9.8,16.8,17c3.37,4.85,3.4,11.53,3.4,11.53,0,0,6.83-.27,8.4.03.19.04,29.03,26.31,29.03,26.31l-54.45.21c-10.16,9.62-15.6,17.81-25.29,31.63-.58-.25-17.64-13.79-16.93-12.27,0,0,4.09,37.08,2.27,50.65-1.25,11.53-2.96,23.9-3.72,34.53,2.42-.53,5.99-1.22,6.67,2.49.59,5.06-5.9,3.89-6.05,3.45.01,0,3.62,7.81,3.62,7.81,0,0-5.62,9.73-5.47,9.31.1-.26-5.11-8.64-5.11-8.64,0,0,3.87-7.04,4.45-8.46.4-.97-5.92,2.57-6.16-2.57-.25-5.28,6.59-4.02,6.23-3.35-.85-11.3-2.73-22.97-3.93-32.49h0Zm84.54,25.41c.16-.12-14.92-6.07-28.77-5.51-4.88-1.91-12.84-3.9-18.15-.35-5.97-4.06-11.13-8.53-16.37-12.96,1.47-.02,7.78-36.39,10.56-47.87-1.6-15.36,13.14-15.34,14.42-3.05,15.88,16.48,35.32,33.52,55.36,50.29-3.19,6.64-14.7,11.7-17.05,19.43h0Zm34.72-108.63c-18.1-18.52-55.99-51.64-55.99-51.64l17.73-17.37c9.31,2.78,18.88,5.11,29.69,5.22.04.04,11.85,5.39,18.14-.01l16.37,13.02s-6.79,35.84-10.78,48.35c.08,4.96-1.78,10.99-6.66,11.89-4.16.77-7.37-5.16-8.52-9.45h0Zm36.59-42.91c1.89-11.65,2.28-20.13,3.59-33.73-8.17,2.4-8.05-8.65-.03-5.74l-3.72-8.22,5.51-9.26,5.05,8.8-4.35,7.8c9.45-.1,6.95,9.25-.93,6.84,1.47,13.02,4.7,26.18,4.55,39.05,2.8,20.65-3.44,49.38-2.41,50.06l8.82,6.09-1.51,44.92-13.93-6.13-4.15,2.81c1.33,2.64,3.02,5.18,3.6,8.05,0,0,9.59,7.92,8.26,10.39.62.36-6.83,10.25-9.01,10.01-4.16-.47-8.99-5.88-10.39-9.72-1.18-3.87,8.61-7.66,7.38-10.49-1.48-3.39-5.21-5.01-8.51-6.01-4.56-1.37-6.64-4.99-6.85-4.99,0,0-1.77,14.36-3.48,13.21-6.86-4.62-2.17-19.27-.9-18.86,0,0,3,.69,6.53,1.02,12.47,1.31,11.62-14.07,9.21-21.52-.86-2.91,2.83-1.98,4.41-2.42,6.05-1.79,15.42-8.06,15.42-8.06-9.75-5.42-18.35-11.61-26.07-17.48,0,0-7.16,12.27-15.66,20.78-6.18,6.2-7.19,8.3-17.53,16.28-.2.15-7.84,9.32-4.2,20.02,3.11,9.16,18.08,19.07,17.97,19.74l-2.95,2.82c.12.16-21.18-13.26-20.68-27.7-.02-.55-9.68-.73-9.68-.73l-28.07-26.1,23.77-.1,12.21,10,7.63.4c.5.44.78-2.02,7.49-7.05,12.83-9.61,28.74-34.28,28.74-34.28,0,0,16.82,11.87,16.83,11.87-.84-17.82-3.7-36.99-1.96-52.35h0Zm-61.22-84.23s-17.47,32.94-27.06,48.45l-13.57-3.91c5.69-15.15.24-44.02-1.19-44.74l41.82.2Z"/>
    <path id="uuid-6d7b8bfd-b1b4-4a36-9373-51f94de8ff97" data-name="path4073-4-2-4" class="uuid-0e49e659-f5a6-474b-a9da-43cb88151201" d="m33.06,26.83v296.34h183.67V26.83H33.06Zm61.86,1.72c20.85.85,41.71.67,62.57.67.13,1.69-2.44,5.91-4.47,6l-.97,1.74c3.84-1.32,5.63-3.84,6.76-7.74h1.48s-.28.66-.8,2.27c-1.6,3.89-4.79,7.51-8.52,7.4l-.76,1.35c5.19-.16,9.2-5.05,10.39-8.72.46-1.2.64-2.3.64-2.3h1.74s-.39,1.59-.63,2.36c-2.55,8.17-9.38,10.56-13.1,10.39l-.58,1.03c7.66.38,13.74-6.25,14.6-11.96.17-.65.57-1.82.57-1.82h1.58s-.4,1.71-.52,2.32c-2.05,8.78-11.1,13.87-17.03,12.89-.25.41-.54.95-.73,1.34,11.91-.45,15.6-6.62,18.32-12.07,3.24,4.91,6.06,10.18,13.82,13.16v1.88s-.81.11-1.53,0c-9.46-1.53-12.59,7.35-8.56,20.61,1.1,3.63.61,3.08-1.75,5.35-1.12,1.08-1.41,3.19-1.41,3.19,0,0,.59-.99,1.57-1.81.43-.36,1.31-.7,1.95-1.14,1.75-1.02,1.73-1.72,1.11-4.13-.57-2.92-1.49-5.81-1.74-8.79,1.27.72,2.18,1.67,3.61,1.85,0,0-.67-.8-1.33-1.32-1.01-.7-1.67-1.57-2.32-2.57,0,0,.78.24,1.24.38,3.26,1.03,6.06.95,9.22-.98.36,8.75-.84,22.03-8.14,31.52-5.6,6.32-16.33,1.54-20.29-.46-1.61-.81-13.5-8.07-17.08-20.91l-.59,1.13c1.33,3.23,3.04,7.69,3.04,7.69-.08-.45.51,3.51,1.79,10.25-.68,0-1.42-.18-2.16-.38-1.6-5.97-2.02-10.7-3.3-16.46l-.71,1.22c.03.2,1.74,10.76,2.9,14.95-.67-.06-1.92-.34-1.92-.34-.95-4.42-1.7-7.48-2.58-11.83l-.76,1.33c1.08,3.51,1.56,6.71,2.14,10.11-.84-.13-1.68-.21-2.48-.65,0,0-1.12-5.83-1.37-6.46l-.67,1.15c.08.36,1.03,3.49.95,4.92-.8-.13-2.2-.53-3.18-.87-.3.53-1.03,1.65-1.03,1.65h0s20.7,6.56,27.31,4.67c-.01.18,12.65,5.56,19.72.99,0,0,12.29,9.15,17.09,12.8,0,.42,1.69,2.48,3.43,3.71,4.39,2.83,6.9,6.4,6.67,4.87.24-2.31,2.27-20.9,2.67-24.23,1.46-11.2,1.46-11.08-.23-10.56-7.33,1.81-6.11-8.06.7-6.27l-3.45-7.63s3.84-6.87,5.69-9.43l4.97,9.04-4.07,7.97c7.92-.6,7.15,9.4-.61,6.06,0,0-.05,2.97-.03,2.75.07-.85.06-1.58.33-1.74,7.56,2.69,9.47-8.02,1.18-7.77,1.33-2.33,2.58-4.61,3.97-7.18l-5.85-10.72-6.62,11.05,3.33,6.9c-.75-.2-1.35-.08-2.15,0-4.9,1.01-3.85,8.93,1.75,7.84.64-.12,1.6-.61,1.6-.61l-3.62,32.36s-.36.29-1.81-.76c-1.68-1.21-5.19-3.85-5.41-4.12,1.25-20.69-3.9-42.45-9.78-56.08-.37-1.05-.15-21.57-.15-21.57h33.68v95.4c-1.75-1.11-3.82-2.57-5.61-3.84-.54-.44-.87-.96-.64-1.79-.59,1.27-.23,1.81-.23,1.81l7.37,5.91-.29,93.81c-13.12-5.85-12.11-6.95-22.67-10.09.01,0,2.33,5.26,1.67,6.21,1.57,1.52,4.22,4.7,4.35,7.81,1.41,1.22,1.8,1.38,2.86,3.14l4.42-1.6-1,4.62c4.7,3.3.17,7.75-.7,7.34,0,0,2.07,4.47,2.55,6.5-.74-.05-4.46-2.08-5.5-2.56-2.7,5.33-7.25.86-7.29.07l-5.05,2.26,1.79-5.77c-3.25-1.99-5.45-4.99-.19-8.23l-1.22-4.51,4.33,1.71s.81-1.3,1.42-2.25c-1.62-7.07-12.26-5.74-15.68-12.1,0,0-.84,7.94-1.7,10.82-.34,7.6-5.64-.09-5.64-8.12,0-1.81,2.27-7.92,3.04-8.22.8-.11,8.39,3.58,13.49-.09,2.32-2.43,6.33-9.25,2.48-19.93-1.27-2.47,2.42-2.78,3.62-1.95,0,0,11.1-5.83,16.11-8.64-8.41-4.64-25.88-16.97-25.87-17.56-2.33,3.72-5,6.83-8.76,12.09-6.09,7.2-10.84,14.03-18.57,19.78-10.86,7.94-13.41,15.93-10.38,25.32,2.29,7.19,10.05,11.96,18.05,19.53-13.79,12.61-23.26,22.98-29.9,34.44,5.61,2.96,19.13,7.25,19.13,7.25-5.02,16.76-2.74,30.07.57,43.43,0,0-39.24.05-59.61-.59-.17.17-2.38.06-2.41-.08-.08-1.49,3.67-5.6,4.79-5.03.56-.56,1.76-.84,1.54-1.53-2.81-.34-7.07,4.54-7.24,6.55h-1.67c-.34-.3,3.04-8.23,9.82-8.87-.07.29.91-.62.17-1-7.91.94-11.59,9.75-11.36,9.87h-1.22c2.69-8.66,9.69-11.4,13.74-11.77.04-.02,1.31-.46.97-1.22-8.95,1.56-13.42,5.45-15.57,12.99h-1.61c1.16-7.65,9-14.35,17.86-14.13.28-.18.62-.38.47-1.25-9.83,1.11-14.73,4.41-18.77,12.88-3.61-9.42-13.65-13.88-13.77-13.92,0,0-.24-2.63.32-2.53,8.57,3.11,11.84-4.35,11.48-8.69-.2-2.41-.06-3.74-.87-7.22-.72-3.1-1.25-5.19-1.19-6.54.06-1.33.47-1.6,1.45-2.05,1.84-.84,2.99-3.86,2.58-4.23-.94,2.2-3.44,2.58-4.59,4.06-.92,1.22-.51,3.16,1.12,9.89,1,4.1-.19,2.22-2.51.93l-1.55-.88c1.04,1.07,2.14,2.09,3.2,3.14.95.87.42,1.41-.94.9-1.96-.98-5.74-.57-7.18.67-.56.4-.76.36-.91-.01-.63-10.46.46-16.89,3.91-24.75,2.23-5.34,5.55-9.34,9.98-9.63,4.46-.37,10.88,1.2,16.71,5.18,6.85,4.67,13.52,11.77,14.23,20.47.03.1.53-.74.75-1.19.31-1.04-.83-4.15-2.61-7.75-.33-2.71-1.26-7.46-1.99-10.68.56-.25,1.74-.11,2.07.29,1.25,5.32,2.15,9.46,3.22,16.58.02.69.9-1.03.91-1.49-.15-1.06-3.11-15-3.05-14.69.02-.47,2.81.15,2.42.59,0,0,2.12,11.69,2.27,11.33l.72-.99s-2.02-8.54-1.77-10.18c.17-.25,1.74.26,2.24.53.62.84,1.02,3.89,1.29,5.97.72.55.86-1.04.81-1.47-.52-.83-1.07-3.92-.66-4.07.32-.12,2.12.59,2.46.9.41.36,1.97-1.82,1.58-2.19-8.48-3.26-19.17-5.16-27.22-5.29-1.87,0-2.61-.26-5.48-1.3-7.3-2.65-13.34,0-14.23.83-8.92-6.22-18.87-14.91-26.8-20.45-.37-.25-1.26-.4-1.36-.4-1.26,9.65-2.14,20.82-3.21,29.73-.44,3.53-.47,4.08-.31,4.18,2.59-1.35,5.96-.53,6.6,1.68.97,3.3-2.2,5.57-5.31,3.97-1.15-.6-1.32-.48-.79.65.91,2.03,3.53,7.38,3.53,7.38,0,0-3.47,7.41-5.26,9.38-1.75-2.83-4.05-5.84-5.02-8.94,1.37-2.7,3.96-6.17,4.78-8.83-3.1,1.42-6.59.98-6.52-3.11.12-2.96,2.69-3.59,6.43-2.21-3.85-25.46-4.96-40.57-4.01-40.7-.25-.18-4.79-3.45-7.15-5.76l.28-195.9h57.81c5.94,16,4.31,35.24.75,45.26,6.31,1.16,12.68,2.66,19.89,6.81-12.17,17.91-31.26,37.26-51.95,49.65-1.17.53-5.03-1.88-5.48-4.26-.1-.55.2-1.64.82-1.62,1.52.5,2.99,1.17,4.48,1.78,0,0-2.07-5.21-1.07-6,.65-.43,1.18-.79,1.6-1.23,1.48-1.93,1.37-4.11-.21-5.79-.63-.67-1.37-1.13-1.74-1.29,0,0,1.46-4.06,2.19-5.98l-5.74,1.91c-2.65-3.93-6.23-3.85-8.16.04,0,0-1.24-.46-3.57-1.5-2.01-.89-3.25-1.35-3.25-1.35.75,2.26,1.74,4.38,2.61,6.99-3.95,2.53-3.05,6.8.28,8.07l-1.75,5.77s3.74-1.4,5.77-1.94c0,0,1.78,1.79,2.3,3.5.9,2.92,2.96,5.04,4.25,6.25-2.16,1.59-3.23,2.13-5.67,3.3l8.41,3.41c-.52-1.78-1.64-3.11-1.75-5.37-.1-1.93-.21-1.97-1.45-3.28-2.29-2-2.53-4.38-3.3-5.95-1.05-.62-1.72-1.61-2.22-2.65-.55-1.16-4.17,1.56-4.72,1.05-.67-.72,1.17-4.4.96-4.77-1.48-.13-5.61-3.36-.69-6.97l-1.57-5.86s3.75,1.64,5.55,2.57c1.25-5.86,6.94-3.05,7.86-.52,0,0,4.51-1.49,4.23-.28-.13,1.08-.86,3.79-.86,3.79,4.06,3.61,3.22,5.38-.08,7.74-.05,1.91.75,4.88.75,4.88,0,0-2.29-1.02-3.81-1.45-.6.61-1.29,1.71-1.18,2.27,1.03,4.56,6.62,5.83,14.92,10.48.28-2.94,2.31-6.97,2.54-10.5.14-2.58.23-2.62,2.04-1.79,4.75,3.45,3.3,12.92,1.57,16.8-1.03,2.2-1.19,2.14-3.19,1.51-2.76-.88-7.64-.53-10.33.39-3.71,1.53-5.47,9.85-5.51,12.37-.07,2.4.12,4.78,1.37,7.75.52,1.9-.43,3.36-2.14,2.85-.38-.11-1.29-.46-1.29-.46l-16.03,8.33.41.69s10.37-5.48,15.5-8.17c2.56,1,2.22,1.21,3.88-.53.99-1.03,1.48-1.05,2.81-.92,8.1.78,11.69-.4,13.09-3.81.21-.51.13-.49.96-.91,1.53-.6,2.25-1.68,2.33-3.04.05-.89.44-1.01,1.11-1.64,1.26-1.16,1.52-2.62.72-4.12-.37-.7-.66-.93-.5-1.66.26-1.22-.19-2.5-1.36-3.85-1.35-1.55-1.34-1.29,1.2-3.67,4.99-4.76,9.39-8.41,14.24-12.72,3.32-2.95,2.96-2.74,4.25-1.39,4.76,4.97,6.62,12.71,4.48,19.52-.1.32-.14.28.11,0,1.35-1.53,1.38-9.24.23-12.65-1.4-4.2-2.76-6.39-7.39-10.5-2.89-2.62-10.77-10.2-10.77-10.2,11.46-9.98,23.8-22.38,30.72-33.78-3.55-3.82-20.02-7.35-20.02-7.35,2.05-4.27,6.1-23.45-.84-44.71h0Zm71.08.67l1.49.04c.69,5.33,5.46,11.68,10.41,13.64.69.26,1.35.96,1.35.96v1.09s-.87.26-1.35.13c-3.68-1.77-8.78-5.9-11.73-13-.24-1.17-.16-2.86-.16-2.86Zm2.77,0h1.58c.85,5.05,4.54,8.56,8.89,11.57v1.01s-.62.26-.67.26c-3.77-1.57-9.49-7.32-9.8-12.84Zm2.73,0h1.91c.68,3.39,2.53,6.24,5.83,8.15v2.18c-4.47-3.09-7.08-6.14-7.74-10.33h0Zm2.85,0h1.53c.5,2.23,1.81,3.68,3.36,5.13v2.06c-2.59-1.64-4.47-4.71-4.89-7.18Zm4.91,0l-.02,3.8c-1.24-1.14-1.88-1.76-2.33-3.74l2.34-.06Zm-30.87,19.93c-3.15,1.43-3.94,2.39-3.48,2.73.33.24,2.36-.63,3.37-.76,5.48-1.36,9.25-1.7,12.83-.13,1.22.54,2.16.75,2.16.75,0,0-.04-1.16-1.24-2.11-4.25-2.93-9.39-2.33-13.64-.48Zm27.1,1.18c.25,0,.5,0,.75.01,1.18.09,2.28.5,3,1.3l-.02,2.24c-2.55-2.26-5.33-2.18-8.25-1.73.97-1.08,2.78-1.78,4.53-1.84h0Zm-21.94,1.35c-5.19.4-6.98,3.04-10.33,5.75-1.38,1.05-1.06,1.86.61,1.59,2.07-.34,2.9-.26,5.72.71,3.08,1.06,5.29,1.49,6.98.84,1.35-.52,2.15-.71,2.25-.45.15.35-1.03,1.55-3.91,3.87-.95.77-1.41,1.39-1.41,1.39,0,0,.92-.18,2.43-1.23,1.83-1.47,3.09-2.41,3.48-3.21.19-.39.2-1.79.55-1.79,1.16,0,.57-1.46-.49-2.08-.7-.5-.54-1.02.36-1.98,1.41-1.49.93-2.17-.6-1.24-.27.15-.4-.31-1.34-.87-1.48-.9-2.73-1.32-4.31-1.3Zm.54.91c1.19,0,2.3.29,3.19,1.05.54.46.59.98.59.98,0,0-1.05.36-2.61.35-2.31-.02-4.28.22-7.02,1.14-2.02.67-2.81.8-2.81.8,0,0,.68-.75,1.33-1.31,1.73-1.48,4.71-2.99,7.32-3Zm19.39.13h0c2.39-.04,3.91.85,5.58,2.26v.44s-1.02.01-2.01-.34c-1.82-.64-4.29-.55-5.99-.08-1.76.49-2.06.66-1.82-.29.29-1.17,2.15-1.95,4.25-1.99h0Zm-21.55,4.27c.19,0,.79.03,1.02.03.63,3.08,2.96,2.06,3.2.19h.86c-.36,2.5-3.76,4.6-5.08-.22h0Zm20.42.03c.42,2.39,2.63,3.17,3.59.18h.77c-.59,5-5.84,2.57-5-.16l.64-.02Zm-21.26.02c.25.9.67,1.58,1.01,2.25-1.35-.32-2.27-.6-3.11-1.18.72-.65,1.21-.9,2.1-1.07Zm19.59.11c.08.85.36,1.61.82,2.46,0,0-.85-.14-1.4-.24-.54-.09-1.16-.4-1.06-.82.22-.91.76-1.16,1.64-1.4Zm6.95.15c.49.11.06-.03,1.6.41,0,0,.04.66.04.97-.88.47-2.43,1.06-2.47.93.04.26.87-2.09.84-2.31h0Zm-19.87.02s.25.09.48.09c.25,0,.4.13.48.31.14.34.01.86-.25,1.09-.44.34-1.43.6-1.43.6.5-.7.59-1.4.72-2.09Zm2.04,13.06s-1.33.1-1.81.38c-2.15,1.24-1.64,5.62.71,6.21.94.23,1.8.36,3.39-.4.94-.45,2.27-.81,2.64-.65.78.33,1.03-.36,1.19-1.14.37-1.74-2.48-1.79-4.74.02-2.86,2.27-5.06-1.09-2.36-3.61.36-.33.96-.83.99-.8h0Zm-22.55,9.32l2.4,2.79,1.51,6.64c-.92.16-2.02-.35-2.02-.35-.75-3.01-1.48-6.01-1.89-9.07Zm32.72,1.67s-.05,0-.08.02c-.1.04-.55.25-1.17.32-.36.04-.9-.21-1.28-.19-1.05.07-2.03.38-2.3.48-.32.13-.64.19-.92.03-.78-.46-3.07-.33-3.76.08-.82.35-1.75.36-2.42,0-.29-.15-.59-.53-.64-.48-.11.11-.55,1.99-.68,2.72,0,.26-.18.68-.07.73.13.05.56-.34,1.1-.61,1.09-.56,2.31-.52,4.45.01,2.64.65,3.67.46,5.23-.34,1.24-.64,2-.79,2.82-.56.2.06.75.34.82.27.15-.14-.25-.93-.6-1.71-.25-.56-.34-.79-.51-.76h0Zm-28.53,3h0c2.32,2.21,2.15,2.02,3.61,3.11l-.07,2.13s-1.8.04-2.68-.24c-.28-.83-1.48-4.98-.87-5.01h0Zm19.12.8c-.47-.02-.22.48-.01.63.16.11.39.21.7.33.87.33,1.68.61,2.58.91,0,0-.78.23-1.16.36-.69.23-1.78.49-1.95,1.1,0,.12.17.14.35.07,1.27-.5,4.37-.82,5.78-.55,1.83.62,1.94.19.19-.73-.35-.14-1.32-.33-1.32-.33,0,0,1.04-.36,1.31-.5.28-.15.61-.3.81-.46,1.09-.7.34-.99-1.05-.33-1.39.67-3.87.66-5,.02-.5-.25-.98-.49-1.22-.51h0Zm-14.57,3.01l2.17,1.7-2.21-.21.05-1.49Zm-49.01,42.68c-.44,0-.79.36-.79.8s.35.8.79.8.79-.36.79-.8-.36-.8-.79-.8Zm2.89.8l-9.93,4.73,2.62.88-.02,2.73,2.42-.78,1.02,2.55,3.88-10.11Zm.44,2.23c-.44,0-.79.36-.79.8s.35.8.79.8.79-.36.79-.8-.36-.8-.79-.8Zm-12.58,4.84c-.44,0-.79.35-.79.79s.36.8.79.8.79-.36.79-.8-.36-.79-.79-.79Zm3.05,1.48l-11.14,5.14,3.3,1.01-.87,3.41,2.69-1.13,1.5,2.29,4.52-10.72Zm.33,2.45c-.44,0-.79.36-.79.8s.36.8.79.8.79-.36.79-.8-.35-.8-.79-.8Zm-22.11.51c4.19,0,8.89,1.6,10.49,5.2.43,1.8-1.34,2.87-5.1,1.84-6.22-1.71-7.38-1.91-6.35-.84.14.14.41.48,1.34.8,2.34.8,6.88,1.73,8.1,1.6,1.67-.22,2.83.56,2.41,1.96-.47,1.59-2.65,2.24-5.91,1.78-3.38-.48-5.24-.87-6.36-1.21-1.44-.44-1.49-.4-.81.62.36.53.39.95.92,1.05,2.23-.13,4.61.3,6.66.49,3.68.33,4.25,1.38,1.55,2.98-1.28.76-5.11.55-7.29-.24-1.56-.56-5.12-1.37-3.75-.28.33.26.22.9.79,1.11,1.89.26,7.22.64,8.05,1.4.54.49-.67,1.73-3.16,2.37-3.75.71-9.35.41-10.83-.6-2.74-5.6-1.27-14.77,3.02-18.36,1.37-1.08,3.7-1.66,6.21-1.66h0Zm24.57,2.92c-.44,0-.79.36-.79.8s.35.79.79.79.79-.35.79-.79-.36-.8-.79-.8Zm3.31.85l-11.5,5.75,2.91.87-.69,3.36,2.7-1.12,1.63,2.26,4.96-11.13Zm.09,2.81c-.44,0-.79.36-.79.8s.36.8.79.8.79-.36.79-.8-.36-.8-.79-.8Zm6.69,6.78c-5.1,4.98-10.85,8.93-16.1,13.77l1.14-.05,2.86-2.59,80.59-.25-1.88,2.76.79.34s2.42-3.59,2.25-3.75c-17.71.05-31.37.01-50.8.14-3.54-3.52-7.28-6.82-10.98-10.16l-7.87-.21Zm-24.5,3.2c-.44,0-.79.36-.79.8s.36.8.79.8.79-.36.79-.8-.35-.8-.79-.8Zm105.21.61c8,6.56,16.12,11.75,24.44,16.72-4.35,2.42-9.46,5.16-13.79,7.37-1.65.62-2.37-.19-3.54.03-.84.22-1.08.37-1.59,1.04-.82,1.09-.6,1.06-5,.86-4.44-.2-6.27-.1-7.23.39-.92.47-2.49,2.08-2.49,2.74s-.5,1.46-1.42,1.74c-1.07.26-2.3,1.11-2.24,2.42-.28.99-.89,1.43-1.42,1.97-1.27,1.28-1.14,2.29-.77,3.48.17.53.82.49.3,1.99-1.36,3.9,3.22,6.01,3.3,5.98l-20.33,17.47c-2.3-1.33-4.61-5.39-5.38-7.92-2.84-9.36.73-16.75,6.13-21.37,1.87-1.6,4.38-3.51,5.08-3.99,10.16-8.7,18.99-21.02,25.96-30.91Zm-102.28.67l-11.25,5.33,3.62.61-.69,3.14,2.62-1,1.39,2.65,4.31-10.74Zm.69,2.49c-.44,0-.79.36-.79.8s.36.79.79.79.79-.35.79-.79c0-.44-.35-.8-.79-.8Zm101.79.46s-3.55,8.79-4.31,11.77c3.01-1.56,11.83-6.06,11.83-6.06l-3.77-.7.42-3.44-2.9,1.48-1.28-3.03Zm-127.2,3.58c-.44,0-.79.36-.79.8s.36.8.79.8.79-.36.79-.8-.36-.8-.79-.8Zm3.44.73s-8.37,3.94-12.15,5.64l3.53.74-.62,3.44,3.18-1.25,1.28,3.4,4.77-11.99Zm.45,2.6c-.44,0-.79.36-.79.8s.36.79.79.79.79-.35.79-.79c0-.44-.36-.8-.79-.8Zm118.44.57c-.44,0-.79.35-.79.79s.36.8.79.8.79-.36.79-.8-.35-.79-.79-.79Zm13.68.72l-3.98,11.11,10.77-5.45-2.92-.8v-2.75s-2.39.7-2.39.7l-1.47-2.82Zm-127.32,2.67c-.44,0-.79.36-.79.8s.36.8.79.8.79-.36.79-.8-.36-.8-.79-.8Zm117.83.2c-.44,0-.79.36-.79.8s.35.79.79.79.79-.35.79-.79-.36-.8-.79-.8Zm-114.53.81l-11.42,5.59,3.54.83-.39,3.58,2.88-1.64,1.56,3.26,3.82-11.63Zm.71,2.36c-.44,0-.75.36-.75.8s.36.79.79.79.79-.35.79-.79-.4-.8-.83-.8Zm118.71.7c-.44,0-.79.36-.79.8s.36.79.79.79.79-.35.79-.79-.36-.8-.79-.8Zm-16.79.66l-4.22,10.97,11.36-5.22-3.6-.85.06-2.87-2.53.96-1.06-2.99Zm-10.72.74c0,.25-2.9,3.1-2.9,3.1l-33.52.31c3.61.16,9.69,6.62,14.08,10.55l8.32-.33c4.61-4.54,11.53-8,14.62-13.61-.22-.29-.59-.03-.6-.02Zm31.67,2.15c-.44,0-.79.36-.79.8s.36.79.79.79.79-.35.79-.79-.35-.8-.79-.8Zm-25.88,3.83c-.44,0-.79.35-.79.79s.35.8.79.8.79-.36.79-.8-.36-.79-.79-.79Zm13.64,1.1c1,0,2.17.06,3.38.05,2.4-.01,4.72.07,5.32.53,3.71,3.14,1.95,17.82-2.73,19.67-5.14,1.16-8.69,1.38-13.15-1.58-1.26-.62-3.6-2.49-3.11-4.04.67-1.9,2.34-1.76,7.6-.11,1.92.6,2.98.48,3.47.1.46-.35-.14-.74-1.12-.75-.4,0-2.1-.42-3.52-.86-2.01-.62-2.58-.8-3.88-.88-2.18-.13-2.81-.21-2.81-1.55,0-2.5,3.46-2.83,9.84-1.36.76.18,2.14.37,2.48.36.25.09-.49-.83-.61-1.38-.23-.2-.64-.29-1.73-.33-4.1-.4-7.5-.68-7.57-1.22-.36-2.65,4.94-3.37,10.44-1.24,1.41.55,1.44.32,1.43-.09-.02-.76-2.38-2.09-5.87-2.06-3.39.04-2.92-1.69-.13-2.99.48-.22,1.29-.27,2.29-.27h0Zm-9.73,2.89c-.44,0-.79.36-.79.8s.35.8.79.8.79-.36.79-.8-.36-.8-.79-.8Zm-12.93,2.53l-4.61,11.54,11.65-5.96-3.84-.72.34-2.43-2.82.54-.72-2.97Zm-5.22,7.6c-.44,0-.79.36-.79.8s.35.8.79.8.79-.36.79-.8c0-.44-.35-.8-.79-.8Zm10.62.47l-3.92,10.04,9.94-4.46-2.94-.8.42-3.04-2.52,1.06-.98-2.8Zm-6.93,2.83c-.44,0-.79.36-.79.8,0,.44.36.8.79.8s.79-.36.79-.8-.35-.8-.79-.8Zm2.55,3.84c-.44,0-.79.35-.79.79s.36.8.79.8.79-.36.79-.8-.35-.79-.79-.79Zm-5,2.35l-3.35,9.51,9.34-4.54-2.73-.9s.15-2.14-.11-2.04c-.16.06-1.92.55-1.92.55l-1.23-2.59Zm8.31,1.14c-.44,0-.79.35-.79.79,0,.44.35.8.79.8s.79-.36.79-.8-.36-.79-.79-.79Zm36.75,2.91h0s10.65,5.4,15.03,7.45v99.29h-58.47c-6.61-19.81-1.86-37.02-.11-44.22-3.08-.26-18.98-5.43-19.46-7.2,6.3-10.04,14.84-19.17,23.9-27.51,8.7-8.11,17.31-14.81,25.35-19.68,3.12-1.89,4.07-2.17,5.29-1.05,2,1.83,3.24,3.41,2.59,4.69-.15.29-.62.77-.62.77l-4.81-1.84,1.56,5.47c-4.33,1.77-4.25,6.46-.07,8.95l-2.87,6.64,6.68-2.95c.26,1.45,5.02,4.94,7.98,0l6.03,2.95-2.08-7.41c1.98-1.89,3.13-4.92.02-7.71l1.43-5.81-5.45,1.78c-1.36-1.87-2.16-1.74-2.47-2.25-.09-.7-.11-2.32-1.02-3.82-.75-1.24-1.61-2.55-2.41-3.48-.42-.72-.09-.78,2.09-1.96,1.02-.55,1.87-1.12,1.87-1.12h0Zm-49.14,1.67c-.44,0-.79.36-.79.8s.36.8.79.8.79-.36.79-.8-.36-.8-.79-.8Zm3.57,3.68c-.44,0-.79.35-.79.79s.36.8.79.8.79-.36.79-.8-.36-.79-.79-.79Zm-118.05,7.7l6.3,4.27c.13.53-.95.17-.37,6.7.52,5.9,2.31,16.12,4.19,32.71-7.48-3.17-8.93,10.19-.16,7.32.39.08-4.59,7.77-4.59,7.77,0,0,3.99,7.28,5.91,10.37l6.04-10.75-3.95-7.44c6.18,3.16,9.38-6.25,2.89-7.48-1.57-.21-3.3.57-3.3.57l3.41-32.21c2.75,1.88,7.77,5.64,7.77,5.64,1.14,17.74.31,32.53,10.19,58.35l.1,17.88h-34.42v-93.7Zm6.88,3.93s.15.11.15.11c-.05-.09-.1-.12-.15-.11Zm60.63,30.69c.47-.02.9.1,1.17.33.29.28.5,1,.11,1.18-.43.06-1.54-.96-1.76-1.44.16-.04.32-.06.47-.07Zm3.01.33c.61-.01,1.33.11,1.66.48-.15,1.16.57,3.26.43,3.76-.37.18-2.22-1.82-2.68-2.31-.1-.66.01-1.51.04-1.89.16-.03.35-.05.55-.05h0Zm-16.47.47c-.2.01-.51.1-.95.3-1.14.58-2.44,1.01-4.07,1-1.31,0-3.56-.69-3.33-.52.6,1.07,2.15.51,2.18,1.21-.39.69-1.42.62-1.93,1.28-.11.18.15.32.88.25,2.21-1.01,5.1-.99,7.74-.12.56.12.19-.42,0-.56-.34-.25-.91-.52-1.39-.58-2.31-.41-1.29-.64.25-1.34.85-.31,1.22-.97.62-.93h0Zm19.83.08c.6.01,1.23.16,1.64.51.4,2.58,1.53,6.72,1.35,8.11-.17-.13-1.6-1.55-2.66-3.06-.37-.9-.95-4.04-.9-5.54.18-.02.37-.04.57-.03Zm-15.78,3.49c-.31.02-1.08.42-1.92.76-1.42.58-2.74.44-4.65-.09-1.66-.46-2.26-.33-3.92.5-1.1.71-2.3.9-3.17.41-1.13-.64-1.12-.42-.56,1.16.14.4-.14,1.6.35,1.88.37.21.8-.49,1.09-.59.29-.1,2.1.72,3.11-.18,1.8-.66,2.35.41,3.6.31,2.03-.72,3.3-1.46,5.04-.08.1-.52.51-3.36,1.16-4.03-.02-.04-.07-.06-.14-.05Zm-3.7,8.16c-1.46.02-2.25.92-4.13.75-1.5-.11-2.02,1.23-1.38,2.21.45.69,1.05.81,3.1-.13.84-.39,2.01-1.24,2.7-1.17,2,.2,2.49,2.15.82,3.79-.81.48-.82,1-.57,1.01.66.03,2-.77,2.3-1.69.83-2.53-.66-4.81-2.83-4.76Zm6.55,11.64c-1.9.4-4.64,2.59-5.57,4.01-.87,1.38-1.7,2.94-1.1,3.71.5.63,1.2,1.25,1.26,1.59.05.3-.36.6-.74,1.02-1.67,1.87-1.27,1.97,1.07.76,2.55,3.48,7.63,2.36,10.65.18,4.75-3.12,7.37-6.11,3.63-4.86-1.72.57-2.36.47-4.45-.47-3.13-1.42-5.52-1.83-8.11-.93-3.28,1.15-.76-1.57,2.93-3.92.8-.51.9-1.09.43-1.08Zm-20.57,5.36c1.11-.08,2.26.75,2.87,2.76l-1.09.02c-.78-2.65-2.67-2.64-3.49.02l-.91-.06c.45-1.65,1.52-2.64,2.63-2.73h0Zm19.48.2c1.41-.14,2.95,1.32,2.85,2.78l-.82.04c-.5-1.6-2.26-3.01-3.49-.39l-.57-.12c.38-1.57,1.18-2.23,2.03-2.31h0Zm-2.63.36c.51,0,.64.58.06,1.53-.41.67-.9.61-1.39.1-.44-.44-.41-.52.07-.96.51-.47.95-.68,1.26-.68h0Zm6.05.02c.22,0,.65.18,1.12.34,1.25.42,1.53.77,1.02,1.29-.5.5-1.46.66-1.9.37-.02-.63-.64-1.12-.66-1.75,0-.17.2-.24.42-.25Zm-19.54.02c.86-.04,2.02.47,1.94.98-.09.55-.95.91-1.65.96-.47.06-.45-.13-.57-.47-.11-.3-.25-.68-.33-.98-.19-.58.18-.48.62-.49h0Zm-5.92.19s-.48,1.45-.7,1.94c-1.81-.1-1.64-.9-.78-1.48.46-.35.92-.36,1.49-.46Zm29.11,3.16c.1-.01.17,0,.18.05-2.07,2.76-7.67,4.75-10.9,1.54.95-.48,1.47-.66,2.16-.48,2.25.59,5.06.17,6.97-.53.65-.24,1.28-.54,1.59-.58Zm-30.52.28c.33,0,.73.29,1.3.47,1.6.52,4.27.46,6.34-.02.99-.23,1.46-.54,1.68-.38.39.28-.01,1.27-1.45,1.9-1.87.69-4.72,1.07-6.89-.04-1.85-.95-2.05-1.96-.99-1.94h0Zm-.49,2.07c1.7,1.12,3.39,1.48,5.49,1.28,3.14-.12,3.7-.5,1.05.9-2.44,1.3-6.21,1.06-6.94-.35-.42-.81-.15-1.77.4-1.84Zm15.22,1.89s-.02,0-.03,0c.25,1.7,3.1,3.26,4.46,3.63,2.9,1.29,7.5.01,10.97-1.49,2.53-1.1,3.44-2.75.43-1.81-4.85,1.51-10.94,1.63-13.99.45-.99-.47-1.67-.79-1.84-.79h0Zm-15.97,6.37c6.07,1.38,13.41,10.78,13.38,14.89h-1.96c-2.99-10.46-10.74-12.72-11.5-13.34-.35-1.28.09-1.57.07-1.54h0Zm-.1,2.65c7.22,3.17,9.78,8.84,10.86,12.24h-2.11c-1.57-4.68-4.4-8.02-8.77-10.1-.3-.65.02-2.14.02-2.14h0Zm-.01,3.21c3.7,1.09,6.96,5.98,7.89,9.03h-1.85c-1.31-3.42-3.16-5.6-6.11-6.86-.12-.64-.1-1.37.07-2.18h0Zm-.06,3.32h0c1.74.35,4.68,3.06,5.1,5.71h-1.7c-.6-1.79-2.44-3.42-3.39-4.09,0-.32-.02-1.62-.02-1.62h0Zm.18,2.83h.01c.19-.12,2.78,2.23,2.34,2.88h-2.33c-.03-.73-.05-2.89-.01-2.88h0Z"/>
    <path id="uuid-6e09a155-4681-4e54-b570-a10a63ada5da" data-name="path4071-9-6-8" class="uuid-a456a79a-377d-497f-b310-f8f93db15c03" d="m136.83,29.2c-4.4,8.56-26.98,47.11-27.21,48.45l5.78,2.57,28.08-50.82s-5.82-.19-6.65-.2Zm66.43,32.26l-2.45,3.49,1.98,3.99,2.41-3.81-1.94-3.68Zm-103.29,38.61s-8.1,8.08-11.26,11.85c6.8,6.81,19.8,15.37,19.9,28.54l8.96.03,29.02,26.06s26.28.19,26.76.08c.53-.12,9.86-13.54,9.86-13.54l16.65,12.19s-.8-13.13-1.43-21.17c-.21-5.38-.38-8.69,3.53-11.07-5.38-2.58-5.04-7.31-1.08-10.79-2.05-.8-3.99-6.11-3.46-8.59,0,0-1.72-1.36-2.75-2.11-2.51,2.3-6.47,5.7-7.25,9.29-.74,3.94,3.24,6.63,5.54,3.76.65-.81,1.23-.58,1.23.47,0,2.15-2.69,3.36-4.96,2.24-.53-.26-1-.43-1.05-.39,4.33,10.18,5.91,14.1,3.51,20.32-1.04,3.86-.55,6.15,1.31,6.15,1.05,0,1.01,1.01-.04,1.38-2.25.79-3.64-.88-3.72-4.43-.05-2.16-.09-2.21-1.19-1.69-3.84,1.81-8.02-1.43-6.21-4.82.38-.71.83-.49,1.06.53.44,1.91,1.44,2.75,3.24,2.74,4.15-.02,5.88-5.9,3.49-11.82-.48-1.19-.72-1.12-1.35.38-.99,2.36-2.65,3.05-4.01,1.68-.46-.46-.68-1.21-.37-1.24.07,0,.53-.03,1.01-.04,2.42-.08,3.25-2.43,2.12-5.97-1-3.11-1.15-3.67-1.44-5.36-.46-2.61-.14-4.58,1.15-7.11,2.04-2.87,3.95-4.77,6.73-7.06-1.71-1.44-3.24-2.55-5.17-4,0,0-12.36,34.04-11.48,47.3-1.57,17.47-14.36,12.64-15.3.54l-61.54-54.33Zm.75,5.27c3.5,1.02,5.87,6.6,7.29,16.99.53,3.85,2.87,9.25,4.56,10.52,4.28,3.22,10.98.74,10.99-4.07.01-5.98-8.36-6.87-8.49-.9-.03,1.41-.75,1.48-1.44.14-.61-1.19-.06-3.43,1.13-4.55.77-.72.71-.86-.75-1.67-5.09-2.82-7.25-7.03-4.53-8.82,1.19-.78,2.82.21,2.07,1.26-1.17,1.65-1.18,1.91-.21,3.27,2.87,3.19,6.43,3.19,9.79,4.72,3.53,1.62,5.15,5.18,3.92,8.64-.29.82-.57,1.62-.63,1.79-.13.38.08.38,2.57.05,3.96-.53,8.36.89,10.52,3.4,1.16,1.35,2.1,4.38,2.13,6.9.01.49.15,1.59.34,2.44s.42,2.31.53,3.22c1.04,8.65,8.21,13.07,11.31,6.97,1.95-3.84-2.56-7.68-4.85-4.13-.81,1.24-1.64.67-1.17-.81.9-2.87,4.48-3.36,6.91-.94,1.32,1.31,1.95,4.28,1.31,6.16-.34.99-.3,1.05.43.8,1.64-.57,4.46-.02,5.48,1.07,2.39,2.57,1.91,5.65-1.03,6.65-1.34.45-2.85-.02-3.35-1.59-.22-1.12.55-1.45,1.15-.48,1.11,1.81,3.54.35,2.97-1.78-.65-2.43-2.72-2.94-6.53-1.62-6.06,2.1-8.02,1.92-10.93-.98-2.07-2.07-2.85-3.85-3.41-7.8-.62-4.35-.68-4.47-1.75-3.55-5.13,4.38-11.91-2.24-7.56-6.6,1.34-1.35,2.33-.17,1.12,1.34-1.77,2.2.54,5.27,3.42,4.56,5.25-1.3,4.18-9.02-1.5-10.82-1.73-.55-6.49-.32-10.16.49-10.22,2.25-14.74-2.13-16.85-16.33-.25-1.66-.53-2.88-1.5-6.46-1.15-4.24-5.07-6.54-7.21-4.23-1.7,1.84-.81,4.31,1.56,4.32,2.36,0,1.64,1.63-.83,1.85-4.28.38-5.02-6.77-.92-8.82,1.5-.75,2.64-.85,4.11-.6h0Zm-57.2,2.4l1.4,5.16,5.29,1.5-1.68-4.84-5.01-1.82Zm13.63,1.59l-1.42,4.6,3.94-1.38,1.38-4.41-3.9,1.18Zm43.49,7.54c.84,0,1.52.68,1.52,1.53,0,.84-.68,1.53-1.52,1.53s-1.52-.68-1.52-1.53c0-.84.68-1.53,1.52-1.53Zm-50.54,2.68l-4.59,1.54-.8,3.65,4.22-.95,1.17-4.23Zm9.59,1.65l-3.3-1.01.78,3.77,3.61,1.48-1.09-4.23Zm147.77-.71l-2.19,1.71c6.38,5.57-.51,10.94-.72,10.58,4.62,3.07,3.79,7.91,3.19,12.33-1.09,7.9-1.52,15.38-2.71,23.47,0,0,5.56,3.85,9.26,5.34.07,0,.02-47.51.02-47.51l-6.85-5.92Zm-78.78,7.16c.84,0,1.52.68,1.52,1.53s-.68,1.53-1.52,1.53-1.52-.68-1.52-1.53c0-.84.68-1.53,1.52-1.53Zm-93.34,3.91l.19,44.35,9.14-16.41-6.29-7.29,5.44-5.83c-3.2-4.75-5.82-9.79-8.48-14.82Zm89.02,6.76c.84,0,1.52.68,1.52,1.53s-.68,1.53-1.52,1.53-1.52-.68-1.52-1.53c0-.84.68-1.53,1.52-1.53Zm20.76,4.54c.84,0,1.52.68,1.52,1.53,0,.84-.68,1.53-1.52,1.53s-1.52-.68-1.52-1.53.68-1.53,1.52-1.53Zm59.45,49.4l6.72,6.92-5.32,6.56,8.33,14.07-.13-43.54-9.6,15.99Zm-169.31-14.56l.32,47.7,7.18,5.26,1.82-1.73c-4.63-4.97-1.87-8.66,1.63-10.8-6.16-1.44-4.29-9.65-3.92-13.45-.15-7.06,2.43-15.12,1.63-21.91l-8.66-5.07Zm41.36,6.63l-10.29,14.4s-11.31-8.6-17.01-12.48c.61,6.21,1.17,14.14,1.92,20.82,1.85,9.76-2.96,9.93-3.01,10.86,7.65,5.83,1.23,11.28.08,11.01,4.07,2.23,3.74,9,3.74,9l1.93,1.1c2.93-1.98,6.07-5.06,7.1-8.25,1.31-4.45-2.54-8.15-4.96-4.77-1.19,1.66-2.14.55-1.17-1.36.89-1.75,3.21-2.62,4.76-1.79.9.48.7-.77-.69-4.27-.47-1.18-.84-2.46-1.5-5.06-.63-2.52-.39-5.55.71-8.64,1.58-4.45,1.02-7.24-1.52-7.49-1.35-.13-1.5-.56-.4-1.18,2.46-1.4,4.85.59,4.76,3.98-.05,1.83-.03,1.86.93,1.47,4.86-1.96,8.71,3.11,5.31,7-1.04,1.19-1.69.43-1.01-1.16,1.06-2.47.05-4.22-2.42-4.24-3.59-.03-5.57,4.95-4.16,10.42.44,1.71.51,1.73,1.7.59,1.06-1.01,1.85-1.34,2.67-1.09,1.7.51,2.14,2.32.52,2.1-2.8-.39-3.53,2.56-1.95,7.79,2.31,7.96-.41,12.41-7.05,17.21,2.39,2.14,3.93,3.36,7.09,5.29l11.3-45.84s-.19-2.6-.47-3.83c-.01-12.3,11.42-13.48,15-2.31.34,1.07,2.16,3.81,2.16,3.81l59.52,53.03s11.11-10.78,10.96-11.07c-8.44-8.54-19.84-14.58-20.26-28.14-2.02-.06-8.79.07-8.79.07l-28.94-26.65c-9.08.06-17.14-.59-26.57-.31h0Zm16.22,1c1.59-.05,3.19.78,3.19,2.11,0,1.15-.77,1.41-1.4.48-.89-1.3-1.92-1.41-2.97-.3-2.9,3.07,1.61,5.87,6.8,4.22,3.18-1.01,4.72-1.28,5.88-1.05,4.9.99,7.27,4.31,7.69,10.78.21,3.29.21,3.28,1.62,1.97,3.45-3.17,8.43-1.41,9.21,3.27.33,2.01-1.82,4.53-3.86,4.53-.8,0-.67-.84.19-1.25,2.08-1,2.16-4.29.14-5.57-2.68-1.71-6.21.96-6.17,4.65.05,4.44,3.36,6.49,9.88,6.11.96-.06,3.36-.17,5.33-.25,3.12-.13,6.47-.72,9.64,1.68,3.33,2.66,5.53,7.94,6.48,15.57,1.49,9.39,2.64,11.91,5.78,12.13,1.86.13,3.44-1.46,3.44-3.31,0-1.31-1.72-2.46-3.02-2.02-1.58.52-1.89-1.19-.34-1.84,2.15-.9,4.78.84,5.36,3.55.34,1.58-1.44,4.62-3.3,5.37-4.86,1.97-8.32-2.06-9.46-11.09-.7-4.14-1.08-6.93-2.37-10.47-2.36-6.51-6.24-9.2-10.46-7.25-4.78,2.21-3.83,9.39,1.23,9.34,2.78.22,3.37-1.83,3.42-4.03.07-1.62,1.9-.1,2.05,1.02.15,1.35-1.06,3.03-2.13,3.82-1.72,1.16-1.11,1.09.65,1.55,4.74.88,8.27,7.18,5.43,9.32-1.47.9-3.04-.43-2.02-1.73,1.62-2.07-1.12-5.35-6.13-6.45-6.55-1.44-9.16-6.34-6.8-11.37.78-1.66.85-1.63-2.35-1.44-7.03.4-9.53-.58-11.89-4.67-.71-1.23-1.03-2.89-1.18-6.17-.27-5.87-.8-9.51-1.54-10.53-3.65-5.07-11.25-3.55-10.3,2.06.5,2.95,3.53,3.89,5.6,1.74,1.56-1.62,2.29-.11.77,1.58-3.67,4.08-10.06-.68-8.16-6.09.43-1.24.49-1.2-1.86-1.27-5.24-.15-7.73-4.65-4.36-7.86.59-.56,1.42-.83,2.25-.86h0Zm12.64,19.32c.84,0,1.52.68,1.52,1.53s-.68,1.53-1.52,1.53-1.52-.68-1.52-1.53.68-1.53,1.52-1.53Zm21.07,5.42c.84,0,1.52.68,1.52,1.53s-.68,1.53-1.52,1.53-1.52-.68-1.52-1.53.68-1.53,1.52-1.53Zm-4.52,9.96c.84,0,1.52.68,1.52,1.53s-.68,1.53-1.52,1.53-1.52-.68-1.52-1.53.68-1.53,1.52-1.53Zm66.94,5.94l.96,4.52,3.49.92-.54-3.87-3.91-1.57Zm12.21,1.56l-.08,2.68,3.1.37,1.1-4.62-4.13,1.57Zm-52.12,4.04c.84,0,1.52.68,1.52,1.53s-.68,1.53-1.52,1.53-1.52-.68-1.52-1.53.68-1.53,1.52-1.53Zm44.58,6.22l-3.65,1.02-1.75,5.09,4.67-1.7.73-4.41Zm7.14.46l.45,3.77,4.5,2.04-1.52-5.37-3.42-.44Zm-66.27,32.14l-27.91,50.66,7.63-.11,26.34-47.77-6.06-2.78Zm-87.78,12.26l-2.47,3.33,2.34,3.87,2.69-3.88-2.56-3.32Z"/>
    <path id="uuid-e46eed9a-a25d-4c38-a9c4-71cea3da0740" data-name="path4069-2-6-0" class="uuid-dad8a680-53c7-464c-8610-dbda15236ab5" d="m157.13,27.92h-12.69s-.44.5-.44.5h-6.6l-.02-.49h-43.23c5.14,15.64,5.62,31.06,1.16,45.88,2.54.13,13.63,2.98,19.73,6.77-1.13,2.92-18.43,24.28-30.17,33.91,3.34,3.32,7.01,6.64,10.87,10.3,5.84,5.56,7.9,9.39,8.29,16.61-.26,8.49-5.02,13.48-11.59,18.16-5.62,3.72-14.51,14.12-22.45,24.97-1.22,1.67-4.8,6.87-4.8,6.87-11.95-9.79-24.75-17.35-25.08-17.29,0,0,12.91-6.91,15.63-8.32,2.09,1.34,4.92.2,3.56-2.76-2.61-6.73-.81-13.68,2.42-18.5,1.25-1.87,7.93-2.64,12.24-1.52,2.44,1.34,2.93-.38,4.45-6.18,1.51-5.77-.92-13.06-4.4-13.08-.82-.01-1.27.3-1.11,2.35.13,1.55-.25,2.35-.64,3.33-.86,2.1-1.31,4.17-1.59,6.9-.32-.59-3.86-3.79-9.12-5.15-3.82-.45-5.77-5.24-5.6-5.25,0,0,.57-1.3,1.08-1.8,1.31.63,2.59,1.36,4.14,1.82,0,0-.36-1.92-.49-2.44-.71-2.67-.67-3.08.35-3.63,2.54-1.37,2.81-3.83.83-6.07-.5-.57-.92-.94-1.6-1.23l1.25-5.02s-1.15.25-2.07.53c-2.66.81-2.46.84-3.6-.46-2.46-2.82-6.06-2.18-6.8.97-.06.36-.23.93-.23.93l-5.67-2.77c.17,1.34,1.64,5.86,1.64,5.86-4.96,3.87-.77,7.3.58,7.66,0,0-1.16,3.71-1.56,5.25l5.6-1.61c.47,1.07,1.05,1.89,2.21,2.64.3,3.16,2.73,5.71,4.4,7.25,0,0,.24,1.16.1,1.89-.36,1.84,1.5,4.75,1.81,4.93-7.68-3.16-15.69-6.94-23.42-10.66l.48,95.42s1.8,1.62,5.37,4.19q1.72,1.23,1.36,2.66c-.47,1.88-.35,3.3,1.24,15.65.84,6.53,1.76,13.3,2.59,19.37.33,2.21.37,3.63.37,3.63-1.71-.79-4.19-.87-5.48.57-2.22,2.53-.44,6.62,2.84,6.53,1.24-.02,1.93-.27,2.8-.73l-4.9,8.64,5.64,9.53,5.63-10.2-4.09-8.07c2.82,1.58,5.84,1.43,6.48-2.49.2-3.74-4-4.79-6.78-3.18l3.46-33.52,1.86,1.37.61-.33-1.62-1.39c.35-5.33-1.4-7.22-3.29-8.51,6.33-3.61,3.59-9.33-.62-11.09,0,0,2.73-1.6,3.28-3.29.47-1.5.29-3.89-.24-8.12-.4-6.52-1.79-20-1.79-20,5.53,4.18,11.2,8.66,16.54,12.9l10.7-14.93,25.79.18s19.6,17.86,29.46,26.97l8.51.08c.95,13.71,10.42,18.27,19.84,27.8l-10.02,10.14-61.35-55.02s-.29-.8-.41-1.29c-1.42-5.83-5.26-8.27-8.76-7.86-3.67.43-6.8,4.06-6.64,10.24.02.96.37,2.64.37,2.64l-11.21,46.88s-4.48-3.43-6.9-5.09l-.53.31,6.56,4.95.49-.21,1.86,1.46.14,1c5.74,3.92,15.47,11.24,15.47,11.24,4.59-3.43,9.42-2.28,14.26-.99,0,0,3.52,1.18,5.39,1.17,9.5.21,17.92,2.07,26.76,5.27l-32.2,57.32,61.34.13c-3.02-12-6.24-24.18-.49-44.65-6.05-1.23-19.5-6.63-19.5-6.63,0,0-.06-.31.5-1.01,2.49-3.57,8.78-13.25,14.67-18.84.72-.52,10.99-10.52,11.09-10.84.06-.18.3-.85.7-1.12.95-.63,3.46-3.02,3.46-3.02l-12.88-10.93s-.54-.31-.72-.41c-1.79-1.01-5.03-6.63-5.83-10.39-1.84-8.66,1.55-15.5,11.11-22.53,9.34-6.42,27.04-31.34,27.1-31.89,9.55,7.94,17,12.04,25.4,17.25-5.07,2.92-9.21,4.88-12.76,6.81-2.3,1.32-2.62,1.59-4.57,1.04-2.21.02-2.96.87-2.4,2.78,3.34,5.3,1.9,17.63-2.61,20-3.92,2.06-7.73,1.5-10.88.33-2.43-.78-2.4-.79-3.48,1.42-2.38,5.1-2.54,9.39-.34,14.27,1.8,3.92,4.49,5.71,4.82.42.19-3.11,1.56-6.74,1.51-10.07,2.74,3.03,4.55,4.42,9.04,5.65,3.01.47,6.21,4.27,6.11,5.81-.83.84-1.08,1.91-1.21,1.83-1.47-.48-4.64-1.84-4.64-1.84l1.35,4.8s-.22.22-.87.55c-2.99,1.53-2.8,5.67.34,7.33.64.34.68.5.41,1.38-.39,1.97-1.25,3.29-1.71,5.24,0,0,.43.01,4.01-1.65l1.41-.65.85.91c1.85,1.99,4.08,1.98,6.03-.03l.89-.92,2.49,1.27c2.34,1.19,2.96,1.44,2.96,1.44,0,0-1.35-5.26-1.6-5.87-.14-.33-.41-.66-.61-.73-.33-.12-.28-.2.61-.91,2.25-1.79,2.48-4.27.56-6.15-.73-.72-.83-.87-.83-.87l1.17-4.88-4.84,1.61c-.76-1.63-1.98-2.37-2.74-2.71-.08-2.2-.36-4.47-4.13-7.91,1.27-1.16-.24-3.97-1.48-5.65,2.12.71,7.42,2.97,7.42,2.97l.8-.03,2.53,1.22.3.45s7.96,3.77,11.62,5.54c-.01-.2-.04-4.15-.05-47.63-.01-25.92.04-47.25-.02-47.38-1.99-1.76-4.47-3.43-5.98-4.45-1.71-1.14-1.59-1.13-1.24-2.45.41-1.51.4-3.6-.14-7.5-.4-2.88-1.84-13.01-2.85-21.18-.71-5.73-.87-7.01-1.05-7.93-.28-2.32.02-3.33-.03-3.37,8,3.48,8.63-8.06.61-6.5,1.53-3.11,2.83-4.55,4.14-7.87-1.67-3.61-5.37-9.73-5.37-9.73l-5.86,10.25,3.45,7.09c-3.97-.72-6.07,2.18-5.34,4.78.8,2.3,2.99,2.95,4.93,2.02,1.49-.59,1.49-.74.17,10.5-.39,3.32-2.13,18.86-2.37,21.17-.16,1.55-.26,1.98-.89,1.64-.85-.37-1.34-.91-2.2-1.47l-.49.47c.76.62,1.68,1.4,2.6,2.25-.21,4.12-.13,6.5,3.28,8.51-6.18,3.89-2.57,9.88,1.06,10.74-2.16.56-4.3,3.36-3.78,8.91l1.75,22.9-16.77-12.5-9.84,14.14-25.93.03-29.24-26.49s-6.41-.09-9.04-.15c.3-.14-.55-8.19-4.79-13.45-4.6-5.49-15.07-14.55-15.06-14.56l11-11.21,61.74,55.8s.3,1.58.46,2.25c2.06,8.81,12.05,9.34,14.17.37.34-1.45.75-4.82.6-5.22,3.12-13.5,7.09-28.56,10.1-40.16.61-2.19,1.04-4.43,1.66-6.62l4.81,3.49.52-.54c-1.82-1.42-4.94-3.67-4.94-3.67l.03-.96c-10.02-7.21-12.09-9.12-18.02-13.84-4.6,4.07-11.18,2.42-15.3.98-1.06-.42-3.67-1.1-3.67-1.1-10.27.01-19.29-1.98-27.8-4.77l32.85-58.73Zm-25.55,1.34l4.49.09-26.58,47.61-2.82-1.11s.26-.14.26-2.14c0-2.15-.47-3.07-1.43-4.35-.81-1.1-1.15-1.16,1.22-.83,4.85.67,8.29-4.62,6.36-8.75-.74-1.59-.64-1.69,1.33-1.89,5.4-.54,7.51-7.43,3.68-10.86-.79-.72-.44-1.18,1.04-.86,4.68,1.01,8.3-4.19,6.44-8.27-.61-1.14-.06-1.33.79-1.44,4-.94,5.37-4.1,5.23-7.21Zm-35.82.01h20.8c-2.8,4.31,2.14,6.85,2.77,6.55-4.49,2.46-3.25,5.93-.93,7.12,2.26,1.16,5.64.12,4.74-4.89l1.11-.49c1.08,1.23,2.16,8.85-6.1,7.79-1.47-.19-2.27,1.19-1.04,1.95,6.52,7.53-3.69,10.86-4.13,9.61l-.03-1.27c2.76.51,6.3-3.06,3.2-6.24-1.76-1.81-6.87-.92-6,4.55-3.02-4.53-6.31-3.16-7.2-.77-.69,1.85.19,4.39,3.2,4.82-3.36,2.83-1.73,5.98.58,6.68,2.55.77,5.16-.28,4.45-4.93.04-.44.93-.3,1-.32,2.64,6.61-3.67,9.04-7.07,7.67-1.26-.49-1.92,1.46-.58,2.45,2.03,1.51,1.4,5.85,1.17,5.9-3.78-1.44-9.2-2.5-8.99-2.42,3.61-14.34,3.38-28.92-.95-43.76h0Zm33.17.01h1.88c.02,2.7-1.14,6.03-5.73,6.54.02-.72-.03-1.41-.22-2.18,1.72-.39,4.01.09,4.07-4.36Zm8.2.15l6,.03-28.23,50.32-4.51-2.33,26.75-48.02Zm-14.8,3.82c1.06,0,1.92.86,1.92,1.93s-.86,1.93-1.92,1.93-1.92-.87-1.92-1.93.86-1.93,1.92-1.93Zm-12.03,21.94c.98,0,1.78.8,1.78,1.78s-.79,1.79-1.78,1.79-1.78-.8-1.78-1.79.79-1.78,1.78-1.78Zm92.94,1.42l4.78,8.35-5.45,9.7-4.55-9.29,5.22-8.76Zm-.09,2.85l-3.36,5.57,3.05,5.71,3.47-5.43-3.16-5.86Zm.07,2.39l1.74,3.37-2.11,3.42-1.75-3.61,2.13-3.17Zm3.27,11.28c1.74,0,3.16,1.42,3.16,3.18,0,1.75-1.41,3.17-3.16,3.17-1.74,0-3.16-1.42-3.16-3.17,0-1.75,1.41-3.18,3.16-3.18Zm-7.76.06c1.71,0,3.09,1.39,3.09,3.11,0,1.72-1.38,3.11-3.09,3.11-1.71,0-3.09-1.39-3.09-3.11,0-1.72,1.38-3.11,3.09-3.11Zm3.82,4.45s.59,2.64.87,5.02c.1.86.38,3.02.61,4.8.68,5.25,1.06,9.56,1.72,14.4,1.63,11.89,2,15.68,1.61,16.7-1.03,3.54-5.84,3.82-7.86,1.76-1.52-1.56-1.74-3.27-1.15-7.72,1.12-8.8,1.1-11.22,2.27-20.5.4-3.85.88-7.45,1.4-11.24.15-1.36.52-3.2.52-3.2Zm-78.9,10.08s15.43,5.11,27.17,4.87c1.72,0,2-.02,4.15.69,1.27.42,3.27.98,4.45,1.25,3.62.7,6.8.51,9.62-.65.44-.18,1.09-.73,1.75-.53.4.12.98.92.98.92-10.28,2.74-34.33,2.23-49.29-4.1l1.18-2.46Zm79.28,1.62c-.06.01-.13.1-.21.22-.25.4-.04,3.02.89,11.34,1.78,15.9,1.78,16.24-.39,17.91-1.06.82-1.23,1.15-.72,1.45.38.22.35.23,1.12.02,1.82-.51,2.57-1.96,2.56-4.92-.01-2.26-.04-2.53-.74-8.08-.24-1.92-.57-4.63-.74-6.02-1.17-9.9-1.44-11.96-1.79-11.9h0Zm-80.83,1.66c15.36,5.52,31.41,7.09,50.76,4.11.63.57,1.25,1.08,1.88,1.58-.29.52-.6,1.04-.91,1.55-.56.27-1.13.53-1.7.79.52.35,1.05.7,1.59,1.03.27.57.54,1.15.82,1.72.35-.54.69-1.09,1.02-1.64.58-.29,1.15-.58,1.71-.89-.56-.3-1.11-.62-1.65-.94-.26-.51-.51-1.02-.77-1.53,2.17,1.73,4.35,3.15,6.83,4.72-17.25,5.29-45.11,4.38-62.3-3.29-.65-.38-1.04-.68-1.04-.68.52-1.24,1.2-2.44,1.9-3.61.19.44.38.89.58,1.33-.09.63-.18,1.26-.27,1.89.59-.26,1.17-.52,1.75-.79.64.08,1.27.16,1.91.22-.29-.57-.57-1.14-.84-1.71.08-.63.16-1.26.24-1.89-.56.28-1.12.55-1.7.81-.49-.07-.97-.14-1.46-.22.55-.89,1.11-1.77,1.63-2.57h0Zm6.98,3.78c-.54.32-1.08.63-1.63.94-.62-.04-1.25-.09-1.88-.14.29.56.58,1.12.89,1.68-.05.63-.09,1.27-.13,1.9.57-.3,1.13-.61,1.69-.92.64.04,1.28.07,1.92.09-.33-.55-.65-1.09-.96-1.64.03-.63.07-1.27.1-1.9h0Zm5.58,1.42c-.52.35-1.04.7-1.57,1.04-.63,0-1.26,0-1.88-.01.33.54.66,1.08,1.01,1.62v1.91c.55-.34,1.09-.68,1.62-1.03.64,0,1.28-.02,1.92-.04-.36-.52-.72-1.05-1.07-1.58-.01-.63-.02-1.27-.02-1.9h0Zm5.68,1.06c-.5.39-1,.77-1.51,1.14-.63.04-1.25.08-1.88.11.36.52.73,1.04,1.11,1.55.04.63.08,1.27.12,1.91.52-.37,1.04-.75,1.55-1.13.64-.05,1.28-.1,1.92-.16-.39-.5-.78-1.01-1.17-1.51-.05-.63-.1-1.27-.14-1.9Zm28.85.44c-.36.51-.72,1.02-1.1,1.53-.58.22-1.17.43-1.77.64.49.39.99.79,1.5,1.17.22.6.44,1.19.67,1.79.4-.51.78-1.02,1.16-1.54.6-.23,1.19-.48,1.78-.73-.53-.36-1.05-.72-1.56-1.09-.23-.59-.46-1.18-.69-1.77h0Zm-23.1.28c-.47.41-.95.82-1.44,1.23-.62.08-1.25.15-1.88.22.39.5.8.99,1.2,1.48.07.63.15,1.27.23,1.9.5-.4.99-.81,1.48-1.22.64-.08,1.27-.17,1.9-.27-.42-.48-.84-.96-1.25-1.44-.09-.63-.17-1.26-.25-1.89Zm17.39.31c-.4.48-.8.97-1.22,1.45-.6.18-1.21.35-1.82.51.47.43.94.85,1.42,1.27.18.61.35,1.22.54,1.84.43-.48.85-.96,1.27-1.45.62-.19,1.23-.38,1.84-.58-.5-.4-.99-.8-1.47-1.21-.19-.61-.38-1.22-.56-1.82h0Zm-11.6.09c-.05.05-.11.1-.16.15-.4.38-.8.77-1.21,1.15-.62.11-1.24.22-1.86.32.42.47.85.95,1.28,1.41.11.63.22,1.25.34,1.88.44-.4.87-.8,1.3-1.2.04-.03.07-.07.11-.1.63-.12,1.26-.24,1.88-.36-.45-.46-.89-.91-1.32-1.38-.12-.62-.24-1.25-.35-1.87h0Zm5.82.11c-.43.46-.87.92-1.31,1.37-.61.14-1.23.28-1.85.41.44.45.89.9,1.35,1.35.14.62.28,1.24.42,1.87.46-.45.91-.91,1.35-1.37.63-.15,1.25-.3,1.87-.46-.47-.43-.93-.87-1.39-1.31-.15-.62-.3-1.24-.44-1.86h0Zm-42.33,1c.4-.01,1.32.89,1.7,1.89.75,1.98.4,4.17-.77,4.9-1.59.99-3.46-.56-2.37-1.96.19-.25.51-.49.7-.55.82-.26,1.01-1.56.56-3.8-.07-.33.02-.48.17-.48Zm5.96.76c16.63,5.47,35.49,7.3,54.93,3.31,0,0-9.21,37.77-9.41,37.79l-45.52-41.1Zm-8.15.12c.88,0,1.03,1.49.25,2.28-1.01,1.01-2.93.2-2.53-1.07.12-.37,1.71-1.21,2.29-1.21Zm4.78.87c.18-.01.53.35,1.07,1.09,1.87,2.52,2.01,5.34.34,6.63-1.96,1.51-3.39-.83-1.76-2.87.42-.53.48-1.5.23-3.67-.09-.77-.07-1.16.11-1.18h0Zm64.48.91c.21-.01.6.16,1.36.53,1.19.59,1.61,1.44,1.03,2.14-.83,1.01-3.12-.99-2.69-2.35.07-.21.13-.32.3-.32Zm-1.79,1.31c.3.03.78.58,1.33,1.7.36.72.56.92,1.16,1.14,1.42.52,1.69,2,.43,2.43-1.36.48-2.37-.51-2.99-2.9-.41-1.58-.33-2.41.06-2.37h0Zm-59.48,1.06c.21-.01.6.45,1.23,1.38,1.86,2.75,1.22,8.04-1.12,9.28-1.03.54-1.75.43-2.58-.41-1.21-1.22-.91-2.18.88-2.84,1.53-.57,2.03-2.31,1.55-5.5-.19-1.27-.19-1.9.04-1.91h0Zm8.85.87c11.36,9.4,21.61,19.48,34.82,31.25,3.14-9.69,7.71-29.82,7.73-29.89-.5.41-22.2,3.5-42.55-1.36h0Zm49.59.03c.19,0,.74,1.41,1.05,2.7.28,1.17,1.41,3.13,1.84,3.2,2.24.38,3.19,1.63,2.09,2.74-.81.81-2.57.35-3.42-.89-1.59-2.34-2.68-7.75-1.56-7.75Zm-126.71,1.3c1.35.01,2.65.87,2.98,2.63.38,2.05-.77,3.54-1.75,3.3-1.06-.4-1.42-2.09-1.42-2.09,0,0-.25,1.38-.69,2.07-.95,1.46-2.96-.71-2.6-2.81.35-2.05,1.95-3.12,3.48-3.11Zm80.82.54c12.37,1.87,23.01,2.35,37.76.74l-6.95,27.1-30.81-27.84Zm-9.34.04c.18.01.56.34,1.15.96,1.92,2.04,2.47,4.87,1.23,6.28-.76.85-1.27.96-2.08.4-1.03-.71-1.11-1.78-.16-2.27.87-.45.95-1.44.26-3.33-.51-1.4-.66-2.06-.39-2.05Zm-80.68.7l4.52,1.88,1.62,3.84-4.51-1.17-1.63-4.55Zm17.08.51l-1.34,3.81-3.48,1.31,1.35-4.13,3.46-.99Zm117.86.8c.17,0,.42.48.72,1.48.75,2.47,1.06,3.09,1.74,3.42,1.11.53,1.19,1.88.14,2.36-.67.3-.88.24-1.36-.38-.74-.97-1.33-2.83-1.44-4.5-.1-1.56-.02-2.37.2-2.38h0Zm-50.3,1.72c.13-.01.33.18.61.52,1.76,2.09,1.95,5.31.37,6.27-1.52.93-3.65-.99-2.33-2.1,1.26-.34,1.04-1.89,1.05-2.76.02-1.35.07-1.92.29-1.94Zm13.34.22l21.63,19.74,4.97-19.52c-8.54.77-17.47.54-26.6-.21h0Zm-53.14.99c6.83,7.25,15.78,13.11,17.9,20.31,3.81,9.92,1.01,21.42-7.9,28-13.5,8.75-20.62,21.43-29.12,32.71-.75.94-3.31,4.97-3.31,4.97-7.3-6.54-20.48-15.85-30.16-21.07l3.86-2.17c7.61,4.35,17.06,10.55,25.57,17.78,5.16-7.81,11.5-16.47,17.16-22.62,7.44-9.23,15.13-12.28,18.33-16.95,4.68-6.85,4.89-14.96,1.03-21.89-3.8-6.61-11.19-11.14-16.1-16.61l2.74-2.45Zm64.86.54h8.46s-1.24,1.04-2.19,1.68c-.6.4-1.3.35-2.61-.21-1.28-.54-3.65-1.47-3.65-1.47Zm9.68,0l1.97.06c-1.47,1.86-2.99,3.06-4.96,4.71-.26.11-.4.15-.99-.04-4.04-1.34-7.75-3.05-11.69-4.66l3.51-.02s1.69.54,4.22,1.6c2.91,1.21,3.66,1.58,4.78.85,1.08-.72,1.98-1.81,3.16-2.5h0Zm3.99,0l-.71,2.6c-1.18,1.48-3.56,3.19-5.56,4.87-.47.24-.45.29-2.49-.51-7.52-2.93-11.15-4.84-11.15-4.84l-1.52-1.37s1.96.56,3.25,1.07c2.64.97,5.28,2.08,7.82,3.09,3.25,1.29,3.07,1.33,6.19-1.43,3.38-2.99,4.17-3.48,4.17-3.48Zm-113.86.24l3.28,3.77-4.37,3.69-3.3-3.9,4.39-3.56Zm124.46,0c.75,1.42,1.26,3.09,2.48,4.29.92.88,1.15,1.56.61,2.06-1.43.89-1.67-.55-2.12-1.48-.78-1.65-1.73-3.87-.97-4.87h0Zm-118.61.38c3.66-.15,4.51,4.84,1.29,6.49-1.18.45-2.54.25-3.27-.49-.71-.71-.81-1.32-.32-1.69.76-.54,2.57-.58,2.57-.58,0,0-1.64-.56-2.37-.97-1.44-.82-.19-2.67,2.11-2.76Zm72,.01h0c.2.01.54.41,1.02,1.21,1.76,2.93,1.67,8.49-.17,9.9-.96.73-2.15.63-2.95-.26-1.06-1.17-.73-2.36.84-3.05,1.51-.67,1.82-2.18,1.21-5.89-.21-1.29-.2-1.93.05-1.92h0Zm-84.56,0c.9.04,1.75.46,2.26,1.28.37.61.19,1.06-.51,1.36-.85.34-2.46.64-2.46.64,0,0,1.56.26,2.51.64,1.18.52,1.09,1.49-.64,2.31-3.34,1.59-6.4-2.66-3.74-5.25.72-.7,1.68-1.04,2.58-1Zm87.43,2.19h.08c.31.04.87.48,1.44,1.24,1.99,2.64,2.33,6.62.64,7.39-1.79.82-3.08-.87-1.79-2.34.91-1.04.8-2.57-.41-5.6-.18-.44-.13-.66.04-.69h0Zm-81.27.04c-.63,0-1.15.51-1.15,1.15,0,.63.51,1.15,1.15,1.15.63,0,1.14-.51,1.14-1.15,0-.63-.51-1.15-1.14-1.15Zm124.22.08c.16-.01.44.62.9,1.91,1.01,2.83,1.87,4.01,2.91,4.01,1.31,0,1.99,1.8.96,2.53-2.04,1.43-4.71-2.08-4.9-6.46-.06-1.32-.03-1.98.13-1.99Zm-10.78,1.4h0s-.6,2.31-.6,2.31c0,0-1.39,1.36-2.39,2.22-1.58,1.37-1.97,1.64-3.21,1.22-1.92-.66-3.82-1.27-5.82-1.88l-4.62-3.84,10.55,4.13s.92.27,1.23-.05c1.38-1.39,2.9-2.46,4.86-4.11h0Zm9.95,2.17c.13-.03.27.14.36.56.48,2.17,1.17,3.75,1.75,3.99.74.31,1.02.95.71,1.61-.9,1.89-3.26-1.45-3.26-4.61,0-.9.21-1.5.43-1.55Zm-38.06.15c.13-.01.34.18.66.51,1.46,1.46,1.9,5.51.73,6.68-1.69,1.7-3.5-.82-1.86-2.59.43-.47.44-.5.33-2.58-.07-1.44-.08-2.01.14-2.03Zm-88.34.4l-1.14,3.8-3.64.94.85-3.12,3.93-1.61Zm4.36.39c.29-.01.62.1.96.35,1.48,1.08,1.61,2.93.91,4.29-.66,1.33-2.02,1.71-3.33,1.58-1.7-.19-2.99-1.38-2.9-3.21.03-.91.43-1.93,1.04-2.36.43-.3.79-.18,1.17.45.35.61.95,2,.95,2,0,0,.02-1.42.22-2.15.16-.58.52-.92.98-.93Zm2.78.33l2.64.91,1.04,3.6-2.96-1.15-.73-3.35Zm150.48.66c2.82,1.92,3.8,2.62,6.78,5.29l-.09,46.96-8.56-5.34c.91-7.68,1.49-15.41,2.52-23.04.63-7.25,2.02-9.34-2.82-12.41,5.34-2.54,3.77-8.22.47-10.51l1.69-.94Zm-42.45.18l-.48,2.15c-1.71,2.94-3.25,2.79-5.87,1.43l-3.15-2.69c2.04.43,3.13,1.08,5.12,1.71.99.27,1.35.1,2.05-.53.8-.73,1.4-1.28,2.33-2.07h0Zm-24.25.56c.19-.02.56.2.9.57,1.07,1.17,1.35,2.32,1.25,5.17-.21,2.02-.11,3.53-1.77,4.67-.81.53-2.21.53-2.83.01-1.5-1.01-.67-3.02,1.29-3.12,1.24-.02,1.75-4.09,1.04-6.62-.11-.39-.08-.65.11-.67h0Zm34.36.42c.24,0,.67.62.92,1.62.37,1.46.88,2.28,1.68,2.69,1.03.53,1.37,1.54.71,2.14-1.31,1.19-2.65-.24-3.08-3.29-.02-.35-.62-3.14-.22-3.17Zm28.17.5c2.93.05,4.58,2.1,4.58,4.59-.03,1.8-1.01,3.63-2.81,4.38-4.3,1.27-6.65-1.62-6.61-4.43.03-2.27,1.91-4.59,4.84-4.55h0Zm-59.94,1.08c.26,0,.69.37.86.55,2.46,2.47,2.57,7.76.16,7.76-2.89-.96-.64-2.67-.58-3.12.23-1.82-.19-2.99-.61-4.69-.07-.38.02-.51.17-.51Zm60.1.31c-.52-.02-.48.51.47,1.33,1.72,1.48.88,4.22-1.3,4.24-1,.01-1.25.68-.37,1.04,3.38,1.36,5.68-3.79,2.66-5.94-.63-.45-1.14-.65-1.45-.66Zm-129.12.69c2.72.93,3.65,6.13,3.76,7.96.12,3.19-1.36,8.41-2.68,9.45-3.42,2.7-5.02-6.84-2.1-12.98.26-.5.58-1.18.46-2.44-.12-1.24.09-1.98.56-1.99h0Zm89.78.5s-.34,1.56-.71,2.41c-.42.99-.73,1.02-1.71.18-.55-.47-1.45-1.44-1.45-1.44.85.13,1.62.58,2.34.22.77-.38,1.4-1.1,1.53-1.36Zm10.31.08c.19.01.44.55.76,1.62.89,2.94,1.68,4.05,2.86,4.05,1.94,0,2.36,2.35.53,2.95-.68.22-.91.22-1.78-.01-1.31-.35-3.1-4.78-2.84-7.03.12-1.06.26-1.59.46-1.58h0Zm-119.58,1.71c.71-.02.99.34,1.41,1.21.48.99,1.73,2.25,2.79,2.8,2.55,1.26,5.24,2.24,7.76,3.51,3.27,1.65,6.2,6.7,4.19,7.22-.73.17-1.57.18-2.31.11-.24-.13-.72-.68-1.05-1.23-1.49-2.45-4.28-4.85-8.58-5.97-3.03-.79-5.75-4.54-6.33-6.3-.15-.46-.16-.81.25-.93.86-.25,1.45-.39,1.87-.4h0Zm92.19.31c.14-.02.33.15.63.47,1.8,1.94,2.03,5.49.41,6.5-1.76,1.09-3.3-.71-1.92-2.25q.61-.68.61-2.71c0-1.4.04-1.99.27-2.02h0Zm26.27,2.26c.22.01.54.61.94,1.79.56,1.68.63,1.81,1.27,2.14,1.08.56,1.25,1.4.46,2.19-1.47,1.48-2.96-.9-2.97-4.75,0-.93.11-1.38.3-1.37Zm-23.59.27c.13.01.51.31.8.66,2.21,2.63,1.76,8.8-.7,9.72-.82.31-1.07.32-1.58.1-1.84-.8-1.62-2.75.65-3.99,1.69-.93.49-6.47.83-6.5h0Zm-113.05,1.94l9.13,4.55s2.5,5.29,3.65,7.27c.79,1.38,2.37,2.7.74,3.62-2.75,1.87-4.3,2.93-4.28,4.09.02.94,1.18,1.9,2.75,3.75,2.25,2.66,2.23,2.05.19,6.1-1.56,2.84-2.89,9.27-2.89,9.27l-9.22,4.77c2.74-6.58,5.97-12.18,9.59-16.18-2.69-2.01-4.95-4.09-7.31-6.87,1.74-2.34,4.04-4.23,6.16-6.26-4.31-4.89-7.01-9.58-8.51-14.11h0Zm115.45.08h.05c.38.03,1.26.98,2.03,2.51.99,1.98,1.09,4.47.21,5.36-1.52,1.53-3.5-.43-2.08-2.06,1-.73.73-2.55-.06-4.45-.37-.91-.36-1.33-.14-1.37h0Zm-116.46.89c2.38,5.07,5.03,9.19,7.75,13.09l-5.94,6.26c1.83,2.13,4.05,4.42,7.16,7.08-3.82,4.27-6.33,10.24-8.84,15.88l-.13-42.31Zm136.63.11c.21.02.5.63.8,1.86.38,1.56.64,1.96,1.54,2.34,1.44.62,1.47,2.01.06,2.51-.52.18-1.48-.34-1.88-1.02-.53-.97-.8-2.29-.79-3.48-.08-1.48.04-2.24.28-2.22h0Zm31.12.76c.6-.02,1.26.03,1.82.18,2.25.63,3.06,2.89,2.62,7.08-.59,5.6-1.28,11.83-1.84,16.97-.65,5.93-1.18,9.7-1.18,9.7l-.55-.43s.16-3.21.37-5.18c.5-4.43.78-8.31,1.21-12.74.95-9.85.72-12.96-1.05-13.87-1.37-.7-1.96-.29-.95.67,1.93,1.49,1.87,2.12-.2,26.38-.21,2.51-.3,4.28-.3,4.28l-2.62-1.64s-.2-2.08-.44-5.22c-.59-5.91-.94-12.22-1.33-17.89-.42-6.05.71-8.16,4.44-8.31h0Zm-48.35.89c.64.24,1.91,2.6,1.98,2.8.29.8,1.59,6.76-1.74,5.05-.89-.5-.94-1.29-.28-2.06.73-.86.9-2.09.54-3.84-.22-1.07-.49-1.96-.49-1.96Zm-97.45.93c.1-.02.21-.02.33.01,2.82.54,5.92,2.19,7.91,4.25,1.24,1.32,1.18,2.39-.76,2.51-1.86.28-1.9.58-2.79-.19-.4-.31-1.18-1.08-2.07-1.22-2.64-.41-4.06-5.08-2.62-5.35h0Zm114.13,1.57c.3.48.33,1.43.57,2.1.42,1.89,1.71,3.29,2.87,3.11.78-.09,1.86.14,1.97,1.08.23.79-.19,1.54-1.04,1.89-.97.39-2.06.15-2.88-.63-1.74-1.64-2.79-6.98-1.5-7.55h0Zm-13.75.06s.11-.02.19.01c1.01.39,2.3,3.64,2.44,6.22,0,1.85-.29,4.17-1.87,5.05-1.01.52-2.05.26-2.5-.62-.56-1.08-.14-2.2,1.01-2.72,1.41-.64,1.87-3.52,1.01-6.32-.04-.41-.59-1.47-.27-1.6h0Zm-107.51,1.36l7.44,3.78c-1.08,1.48-1.93,2.86-2.52,4.43-2.36-2.69-3.61-5.44-4.92-8.21Zm110.49,1.29c.13,0,.56.41.93.77,1.86,1.81,2.66,5.08,1.54,6.28-.9.96-2.28.89-2.54-.11-.09-.49.43-1.42.66-1.86.34-.66.22-2.54-.3-3.92-.23-.62-.45-1.15-.28-1.16Zm-51.69.74l8.41.29,28.16,25.47-2.64-.06-25.88-23.67-8.05.02v-2.04Zm-48.6,1.43c1.09.08.68,2.49.16,3.16-3.21,5.12-4.09,11.58-2.12,17.32,1.5,4.07-1.77,4.31-3.11,1.63-1.03-2-1.96-5.54-1.31-9.21.78-4.46,2.17-12.13,6.13-12.88.09-.02.17-.02.24-.02Zm108.99,2.21c5.88.22,7.56,8.65,6.57,13.27-.85,4.01-2.44,6-4.68,6.83-9.19,3.41-13.2-15.21-4.67-19.66,1.02-.34,1.94-.47,2.78-.44Zm-60.91,1.11l7.93.16c7.23,6.6,15,12.76,22.73,20.79h-3.9l-20.26-18.51-6.91-.2.42-2.25Zm60.49,1.23c-4.29.17-4.64,6.01-4.51,8.22.31,3.18,1.58,7.88,5.6,7.51,2.95-.3,4.32-3.8,4.05-8.02-.25-3.97-1.87-7.71-5.14-7.71Zm-61.21,1.94l6.96.16,19.05,17.63h-3.04c-5.72-5.17-11.38-10.84-16.6-15.26l-7.22-.28.85-2.24Zm60.57.12c.11-.01.23,0,.35.02,1.67.41,1.57,3.72.77,4.75-.73.85-2.4-.76-2.55-2.77-.07-.94.63-1.92,1.43-2h0Zm-114.22.48c-.56,1.93-.93,4.09-1.16,6.43l-2.91-3.71,4.07-2.72Zm117.19,3.58c.71,0,1.29.58,1.29,1.29,0,.71-.58,1.29-1.29,1.29s-1.29-.58-1.29-1.29c0-.71.57-1.29,1.29-1.29Zm-58.45.65l13.86,13.09-3.95.04-11.37-10.35-7.22-.27,1.41-2.47,7.26-.04Zm53.92.22c.71,0,1.29.58,1.29,1.29,0,.71-.57,1.29-1.29,1.29s-1.29-.58-1.29-1.29c0-.71.58-1.29,1.29-1.29Zm16.5.02c7.82,6.1,18.85,14.19,30.31,20.75,0-.02-1.89,1.49-3.63,1.97-8.92-4.94-19.53-11.9-26.1-17.55-6.21,9.17-18.13,25.86-28.72,33.56-6.69,4.8-10.06,10.72-10.04,17.64.02,7.16,2.54,11.82,9.55,17.68,4.52,3.78,9.47,8.61,9.47,8.61l-2.93,2.45c-9.68-8.35-22.02-17.09-19.57-31.31.92-6.46,3.07-11.09,9.17-16.08,2.34-1.82,4.71-3.23,6.77-5.31,18.95-20.36,25.73-32.43,25.73-32.43Zm-13.83,2.03c.48.08.88.79,1.15,1.29.72,1.48,1.11,3.42-1.13,3.55-1.33.08-2.09-2.15-.94-4.13.33-.58.64-.76.93-.72Zm-65.65.9l7.48.22s7.38,6.46,11.11,10.04h25.07c13.79,0,25.12.05,25.18.12.17.17-1.78,2.8-1.78,2.8l-82.68.05s5.11-4.56,6.93-5.84c3.23-2.26,6.19-4.36,8.69-7.39h0Zm-50.66,3.12c.54,2,.99,4.05,1.93,5.9l-5.74,3.06c1.05-3.05,2.26-5.99,3.81-8.95h0Zm159.4,16.66c-1.14,3.12-4.12,9.48-7.73,14.31-.72.92-1.21,1.65-1.21,1.65l7.03,6.76-6.1,6.52c3.43,3.58,6.33,9.07,7.85,13.44-2.77-1.1-4.32-1.76-7.74-3.67-.97-2.43-1.95-5.01-3.03-7.23-2.49-5.07-2.46-4.57-.42-6.06,2.98-2.18,3.86-2.69,3.09-3.79-.54-.77-4.06-4.96-4.27-5.09-.32-.2-.18-.82.42-1.81,2.04-3.67,3.7-7.71,4.74-11.31l7.37-3.7Zm1.33.26l.19,42.61c-2.52-5.09-5.14-10.29-8.06-13.54-.11-.22,6.37-6.58,6.37-6.58-2.38-2.21-3.76-3.53-7.08-6.6,3.23-4.68,5.79-10.79,8.59-15.9Zm-178.35,1.48l8.06,4.7c-.43,6.01-.96,13.9-1.79,21.9-.69,6.25-.98,9.12.12,10.86.93,1.27,3.45,2.64,3.45,2.64-4.24,1.72-5.88,6.81-1.12,10.61,0,0-1.15.91-1.67,1.46l-6.61-4.97-.45-47.2Zm126.2,2.15c-2.01,2.26-5.16,5.62-7.58,7.22-3.23,2.14-7.76,6.25-7.54,6.31,0,0-4.75-.02-7.96-.15l-11.09-9.93c-12.74-.15-30.07.16-50-.07l2.21-3.12,81.96-.24Zm39.53,1.95c-1.09,3.52-2.79,6.78-4.93,9.83-.5-2.17-.77-4.46-1.81-6.3l6.74-3.53Zm-156.65,1.13l.97.69s-.58,7.35-.77,9.51c-.34,3.98-.51,7.56-.85,11.61-.69,8.04-.58,9.23.99,10.47,1.21.91,2.03.5.96-.65-.71-.91-.7-.89-.92-2.24-.15-.93-.13-2.32.09-6.1,1.2-21.25,1.44-21.96,1.47-21.97l2.41,1.57c-.13.33,2.21,21.41,1.97,26.66-.28,6.13-8.5,4.78-8.89.23-.16-1.05,1.4-18.26,1.4-18.26l1.16-11.51Zm67.03,1.24l3.23.09,19.9,18.36,6.78.15-.59,2.32-6.55-.02-22.76-20.91Zm12.34,0h3.12l11.39,10.37,7.01.11-1.34,2-6.97-.2-13.21-12.27Zm-3.89.01l16.84,15.24,5.74.3-.88,2.08-6.81-.19-18.91-17.39,4.03-.04Zm-16.23.06h3.5l26.32,23.79,6.9.13-.11,2.14-8.3-.04-28.3-26.02Zm88.01.65c.17-.02.35-.01.55.02,1.39.35,2.07,1.7,3.05,6.71,1.14,5.84-1.33,15.33-4.43,17.11-1.6,1.27-3.35-.07-2.21-1.73,3.7-5.39,4.19-14.22,2-19.15-.61-1.39-.14-2.82,1.05-2.97h0Zm-111.1.91c8.41.1,10.58,17.44,2.31,19.87-5.37.8-8.14-4.09-8.92-8.49-.92-5.48,1.48-11.44,6.61-11.38Zm.1,2.26c-4.37-.25-5.11,5.46-4.73,8.14.5,3.48,2.65,7.45,5.77,7.11,4.1-.45,4.62-5.95,4.21-8.72-.49-3.34-2.33-6.37-5.26-6.54h0Zm-.22,1.39c1.17-.02,2.04,1.56,1.72,3.51-.21,1.26-.69,2.82-2.1,1.76-.66-.6-1.25-2.38-1.09-3.7.1-.87.53-1.55,1.48-1.57Zm115.96,4.01l3.95,4.59-4.48,3.16c.63-2.41.84-4.98.54-7.74Zm-113.09.41c.71,0,1.29.58,1.29,1.3s-.57,1.29-1.29,1.29-1.29-.58-1.29-1.29c0-.71.58-1.3,1.29-1.3Zm-4.61.8c.71,0,1.29.58,1.29,1.29s-.58,1.29-1.29,1.29-1.29-.58-1.29-1.29c0-.71.58-1.29,1.29-1.29Zm2.74,1.66c.54.07.97.88,1.27,1.33.86,1.29.97,2.9.36,3.58-1.24,1.48-3.17-.1-2.94-2.38,0-1.08.29-2.29,1.06-2.51.08-.02.16-.03.24-.02Zm10.89,5.07c1.85,0,2.37,2.19.78,3.26-1.03.7-1.26,2.95-.62,6.08.52,2.26.25,2.61-1.1.57-2.29-3.69-1.7-9.91.94-9.91h0Zm-4.32,1.19c1.62-.06,2.14,1.18,1.19,2.13-.55.62-.5,2.24.12,3.58.87,1.94.67,2.52-.97.66-2.26-2.43-2.23-6.3-.35-6.37Zm107.06.94c1.84,2.45,3.47,5.65,4.95,9.28l-7.97-3.67,3.01-5.61Zm-119.55.82c3.45.03,4.64,8.58,3.13,9.04-.56-.66-.84-2.78-1.3-3.68-.36-1.09-.67-1.72-1.26-1.69-3.37.29-3.22-2.95-1.29-3.56.25-.08.49-.12.72-.11Zm19.65,3.12c.97.07.75,1.67.18,2.66-.9,1.55-.16,2.71-.04,4.52.1.82.14,1.04-.53.41-1.6-1.4-2.45-6.17-1.01-7.06.62-.4,1.07-.55,1.39-.52h0Zm79.9.4c.98-.1,1.9.97,2.2,1.68.63,1.61.57,5.57.26,7.68-.49,3.22-1.26,6.18-1.58,8.4-1.13,1.35-3.9-3.42-4.17-7.17-.44-2.98.48-9.37,2.87-10.47.14-.07.28-.1.42-.12Zm10.85.49c.7-.03.54.2,1.05.75.78.82,1.1,1.02,2.21,1.37,2.28.72,4.8,3.92,3.83,4.89-.76.61-2.85-.54-3.56-.79-.76-.26-1.72-.6-2.12-.73-1.91-.65-4.67-4.19-3.81-4.91.46-.38,1.86-.56,2.4-.59Zm-5.57.58c1.42.01,1.8.37,2.61,1.9,1.2,2.27,3.43,3.86,6.67,4.79,4.13,1.27,7.7,3.67,7.53,8.13-.99.01-1.97.08-2.96.38-1.14-3.23-3.99-5.09-6.44-5.65-5.65-1.29-10.9-7.05-9.41-9.33.68-.26,1.29-.23,2-.22h0Zm-97.5.29l48.83,42.69c-20.61-7.68-39.51-7.51-57.79-4.67l8.96-38.02Zm-7.25.74c1.87.2,2.39,2.75,2.47,4.45,0,2.34-.66,2.25-1.03,0-.18-1-.49-1.38-1.29-1.62-1.82-.55-1.94-2.82-.15-2.82Zm26.22.03c1.03.08,1.94,1.01,1.86,2.06-.09,1.33-1.91,1.61-2.28,1.94-.91.8-.79,3.1-.4,5.78.3,1.61-.1,1.54-.95.28-1.49-2.24-1.46-6.11-.47-8.4.56-1.29,1.44-1.73,2.24-1.66h0Zm-4.08.22c1.27.02.84,1.64.56,2.35-.48.53-.49,3.01-.05,4.67.24.92-.21.99-.83.26-1.91-2.42-1.81-6.79-.33-7.19.26-.07.47-.1.65-.1h0Zm-22.44,3.44c1.13.07,1.75,2.45,1.85,3.67.19,2.37-.5,2.59-1.21.32-.18-.53-.48-1.06-.71-1.22-1.33-.91-1.56-1.62-.79-2.4.32-.27.61-.38.87-.37h0Zm9.01,1.59l-6.62,28.35c16.29-1.37,23.7-1.66,41.1,1.75l-34.48-30.1Zm19.33.42c.13,0,.26.02.41.05,1,.25,1.34,1.56.18,2.79-.38.49-.74,1.25-.27,3.25.64,2.74-.43,1.87-1.74-.72-.78-1.55-.5-5.37,1.42-5.37Zm-30.76.14c1.77,0,3.41,2.89,3.44,6.04.02,2.55-.34,2.36-1.29-.07-.66-1.61-1.2-2.19-2.41-2.61-2.23-.78-2.04-3.35.26-3.35h0Zm11.96.82l30.66,26.9c-12.56-2.01-24.88-2.17-36.85-.66l6.19-26.24Zm25.52,1.01c2.41,0,3.35,2.98.4,4.03-1.76.62-1.01,4.19-.68,6.31.12.8-.13.86-.63.14-1.85-2.75-2.89-9.67.92-10.48Zm-3.96,1.12c1.03-.05,1.62,1,.72,2.23-.44.69-.49,1.43-.19,2.77.78,2.88.98,3.41-.65,1.95-1.71-1.82-2.46-5.42-1.03-6.49.4-.3.8-.44,1.14-.46h0Zm-59.87.01c2.85-.02,4.91,1.83,4.81,4.41-.12,2.84-1.89,4.63-4.5,4.78-2.91.15-4.7-2.18-4.76-4.59-.06-2.13,1.29-4.57,4.46-4.6h0Zm-.05,1.14c-3.26-.01-4.48,4.3-1.78,6.29,1.16.85,2.07.61,1.12-.29-1.79-1.71-1.07-4.54,1.29-5.06,1.17-.26.71-.94-.62-.94Zm39.66.73l-3.92,19.09c8.02-1.25,17.73-.87,25.21-.16l-21.29-18.93Zm-13.21.73c1.95-.1,2.52,2.84,2.54,4.02,0,1.52-.18,2.31-.46,1.49-.66-1.91-1.31-2.96-2.01-2.96-.38-.1-.71-.25-1.02-.6-.69-.92-.02-1.91.95-1.95Zm13.57.76l2.59,2.2c-1.66-.73-3.08,1.16-3.08,1.16l.49-3.37Zm26.1,1.27c.9.08,1.52.94.51,2.34-.75.95-.74,2.95-.16,5.27.16.65-.44.17-1.05-.6-1.16-1.46-1.7-3.18-1.49-4.59.12-1.78,1.3-2.5,2.2-2.42Zm-40.38.64c1.67.19,2.3,3.7,2.26,4.76-.05,1.11-.31,1.86-.53,1.19-.43-1.47-1.32-3.57-2.09-4.06-1.32-.83-.95-1.78.35-1.89h0Zm124.38.49c2.09.1,3.59,1.45,3.7,3.44.06,1.24-.45,2.5-1.21,2.91-.78.42-1.25-.15-1.71-1.57-.34-1.05-.46-1.45-.46-1.45,0,0-.29,1.31-.38,1.59-.6,1.82-2.57,1.84-3.4-.2-.88-2.37,1.57-4.8,3.46-4.71h0Zm-108.03.79c.59,0,2.87,1.02,2.87,1.02l2.27,2.02s-2.09-.91-2.82-1.17c-1.76-.62-1.72-.63-3.14.53-1.46,1.2-2.66,2.08-2.66,2.08l.45-2.59s2.14-1.89,3.04-1.89Zm100.34.36l3.1,1.45.66,3.22-2.86-.71-.9-3.96Zm-118.71.06c2.15.12,3.17,3.73,3.47,5.94.34,2.74-.43,2.97-1.17.36-.63-2.24-1.26-3.06-2.33-3.06-1.95.33-2.56-2.43-.96-3.06.36-.14.69-.19.99-.18Zm50.2.12c2.04.16,2.08,3.08.07,3.56-1.4.34-1.39,2.51-.99,5.67.09.72.28,1.59.24,1.71-.21.57-.92-.3-1.88-2.32-1.43-3.69-.98-7.79,1.57-8.5.37-.1.7-.14.99-.11h0Zm84.31.06l-.86,3.73-2.62-.18-.1-2.28,3.58-1.26Zm-89.37.14c1.18-.07,1.62,1.38,1,2.29-1.44,2.09-.15,4.02.17,5.65.06.95-1.17.02-1.87-1.36-1.47-2.89-1.55-5.22-.23-6.26.35-.2.66-.3.93-.32h0Zm-25.91,1.78c2.24.53,3.92,1.34,6.27,2.29l3.35,2.97s-2.94-1.09-4.99-1.96c-4.61-1.96-3.95-2.02-7.6.77-1.05.8-2.15,1.72-2.15,1.72l.44-2.39s1.38-1.37,3.1-2.62c.74-.54,1.07-.8,1.58-.8Zm-42.92,1.13h0c2.36-.06,3.91,1.82,4.48,3.93.33,1.22.05,2.35-.02,3.52-1.6,12.3-2.32,23.73-3.76,35.12-.03.22-.29,1.5-.29,1.5,0,0-.18-.48-.42-1.48-1.73-10.53-2.87-22.08-4.32-32.51-.33-3.89-1.33-8.99,3.57-9.98.26-.05.51-.08.76-.08h0Zm24.1,1.37c1.5.02,2.15,4.9,2.16,5.4-.04.91-.5.54-.62,0-.37-1.22-1.15-2.53-1.8-3.06-.79-.63-.97-1.49-.44-2.03.25-.22.48-.32.7-.32Zm-24.23.02c-1.04.04-2.27.76-2.71,1.68-.89,1.89-.66,5.73,1.04,17.26.14.96.34,2.56.43,3.56.3,3.06.7,5.49.99,5.94.56.86.63-.06.23-3.06-.2-1.53-.48-3.86-.61-5.19-.76-5.47-.93-9.36-1.4-14.35-.24-2.45.75-4.26,2.59-4.75,1-.27,1.05-.72.12-1.02-.21-.07-.44-.1-.68-.09h0Zm150.66.13l3.15,3.48-3.68,3.83-3.46-3.82,4-3.49Zm-7.28.02c.88-.03,2.08.27,2.84,1.04.98.98.93,1.35-.71,1.95-.8.3-1.35.53-1.35.53,0,0,.74.29,1.29.45,1.57.53,1.49,1.44.05,2.53-1.97,1.48-5.13-.48-5.1-3.08.03-2.06,1.29-3.37,2.98-3.41h0Zm12.75.01c3.45.01,4.72,4.86,1.34,6.57-1.25.63-3.35.33-3.87-.68-.25-.79.03-1.25.66-1.58.76-.41,1.88-.75,1.88-.75,0,0-1.83-.36-2.34-1.22-1.11-1.87.93-2.29,2.34-2.33Zm-112.29.24c.89-.01,2.45.74,6.27,2.28,2.1.85,4.52,1.82,4.52,1.82l3.44,3.05s-4.71-1.48-6.35-2.32c-.36-.18-1.14-.52-1.74-.74-.6-.23-2.09-.81-3.31-1.3-2.62-1.06-2.65-1.07-3.53-.32-.38.32-1.3,1.05-2.05,1.61-.75.57-1.84,1.4-2.43,1.85-.69.53-1.57,1.33-1.57,1.33l.55-2.94s.5-.49,1.38-1.17c.72-.55,1.94-1.49,2.71-2.09.79-.61,1.2-1.06,2.09-1.06h0Zm31.67,1.21c.09,0,.18,0,.26.03,2.03.57,2.07,2.05.99,2.85-.89.91-1.01,2.4-.36,4.33.18.53.4,1.16.35,1.21-.94.94-3.4-5-2.81-6.77.31-.93.95-1.63,1.57-1.66h0Zm74.84,1.11c-.63,0-1.14.51-1.15,1.14,0,.63.51,1.15,1.14,1.15h0c.63,0,1.14-.51,1.14-1.15,0-.63-.51-1.14-1.14-1.14Zm-126.98.58c.65-.03,1.39.46,1.77,1.48,1.02,2.86.4,6.36-.64,3.1-.4-1.3-1.5-2.33-2.14-3.15-.52-.66.45-1.41,1.02-1.43Zm21.08.08c.41.01.96.22,1.95.63.9.37,3.42,1.21,4.85,1.77,2.23.86,4.55,2,4.55,2l-5.04-.28s-1.71-.57-2.73-.99c-3.69-1.52-3.49-1.51-5.32-.11-.66.5-1.48,1.31-1.48,1.31l-2.56.14s1.2-1.29,2.94-2.58c.57-.42,1.35-1.03,1.72-1.34.43-.36.7-.54,1.12-.53h0Zm39.86.99c.97.11,1.58,1.11,1.65,1.92.08.92-.95,1.83-2.26,2.09-.27,1.03-1.06,3.37-.6,6.87.37,1.64-.32,1.67-1.03.11-1.14-2.55-2.8-10.09,1.8-10.97.15-.02.3-.03.44-.01h0Zm-5.31.47c1.26.02,1.29,1.44.87,2.34-.6,1.27-.8,2.31-.47,3.92.37,1.79.44,2.23-.57,1.11-1.96-2.63-2.25-6.81-.44-7.28.23-.06.44-.09.62-.08h0Zm-58.32.35h0c.12,0,.26,0,.4.03,3.06.49,3.96,5.72,3.54,7.96-.81,2.71-.77.88-1.05-.25-.75-2.73-1.63-4.21-2.56-4.37-2.35-.39-2.19-3.3-.32-3.37Zm24.07,1.13c.84.06,2.64.68,3.58,1.18l-5.65.05s1.23-1.29,2.07-1.23h0Zm106.98.79c.39-.03.91.42,1.53,1.05,1.42,1.45.8,3.73-1.12,4.86-3,1.77-6.42-1.56-4.77-4.62.91-1.68,1.99-1.38,2.92.99.17.29,0-.3.32-1.02.32-.72.74-1.22,1.12-1.26Zm-5.04.17l-.9,3.64-3.66,1.77,1.33-4.49,3.23-.92Zm7.61.62l2.92.24,1.62,4.73-4.2-1.8-.33-3.17Zm-68.91,2.67c2.12.09,2.34,2.1,1.12,2.98-.68.66-.92,1.61-.78,3.13.06.67.2,1.5.19,1.6-.02.32-.29.27-.65-.12-2.24-2.45-1.94-7.66.12-7.58h0Zm-64.16.79c1.34,0,2.87,3.87,2.12,5.35-.47.87-.93.65-1.1-.35-.13-.73-.55-1.74-1.63-1.92-1.58-.51-1.06-3.08.61-3.08Zm67.41,2.3c.19,0,.4,0,.63.04,1.03.53,1.12,1.72.19,2.38-.72.51-.91.95-1.02,2.34.24,3.17-1.89,1.16-1.71-1.73.12-1.98.56-3,1.91-3.04h0Zm-68.54,1.02c.96,0,2.11,1.74,1.86,2.75-.14.81-.56.66-1.15.07-.23-.18-.74-.36-.98-.44-1.44-.44-1.2-2.38.27-2.38h0Zm27.42,1.34c13.04-.06,26.6,2.02,37.88,6.54-.82,1.53-1.49,2.94-2.21,4.3-.22-.51-.45-1.02-.69-1.53.09-.63.17-1.26.25-1.89-.59.27-1.17.54-1.74.81-.64-.07-1.28-.14-1.91-.2.3.56.59,1.13.87,1.69-.07.63-.14,1.26-.22,1.89.56-.28,1.12-.56,1.68-.84.56.07,1.12.15,1.68.24-.41.78-.83,1.54-1.31,2.29-13.31-4.39-27.66-7.67-51.5-4.12-.98-.76-1.18-.9-1.73-1.33.28-.46.56-.92.85-1.38.57-.26,1.14-.51,1.72-.75-.52-.36-1.04-.72-1.57-1.07-.26-.58-.52-1.16-.78-1.74-.36.53-.71,1.07-1.06,1.61-.58.27-1.16.55-1.73.84.55.32,1.09.65,1.63.99.19.4.38.81.57,1.21-1.62-1.24-2.45-1.87-5.78-4.54,7.53-1.94,16.21-2.99,25.13-3.03h0Zm43.74.58c1.25,0,2.02,1.41,1.11,2.01-.64.42-2.06.54-2.35.19-.59-.72.25-2.2,1.24-2.2Zm-44.29.79c-.45.45-.9.91-1.35,1.37-.62.15-1.25.3-1.87.46.47.43.93.87,1.39,1.31.15.62.3,1.24.44,1.86.43-.46.87-.91,1.31-1.37.61-.14,1.23-.28,1.85-.41-.44-.45-.89-.9-1.35-1.35-.14-.62-.28-1.24-.43-1.86Zm-6.08.12c-.43.48-.85.96-1.27,1.44-.62.18-1.23.38-1.84.57.49.4.98.81,1.46,1.22.19.61.37,1.22.55,1.82.4-.48.81-.96,1.22-1.44.6-.17,1.21-.34,1.82-.51-.47-.43-.94-.86-1.42-1.28-.17-.61-.35-1.22-.53-1.84Zm12.12.06c-.29.26-.58.53-.87.8-.18.17-.36.34-.54.51-.63.12-1.26.24-1.88.37.45.46.89.91,1.32,1.37.12.62.24,1.25.36,1.87.19-.19.39-.37.58-.56.26-.25.52-.5.79-.75.62-.11,1.24-.22,1.86-.33-.42-.47-.85-.94-1.28-1.41-.11-.63-.23-1.25-.34-1.88Zm-18.2.44c-.4.5-.79,1.01-1.18,1.52-.6.23-1.2.46-1.79.7.52.37,1.04.74,1.54,1.12.23.59.45,1.19.67,1.78.36-.51.74-1.01,1.12-1.51.59-.21,1.18-.42,1.78-.62-.49-.4-.99-.79-1.49-1.18-.21-.6-.43-1.2-.65-1.79Zm24.24.02c-.5.41-.99.82-1.47,1.24-.64.09-1.27.18-1.9.28.42.48.84.95,1.26,1.44.09.63.18,1.26.27,1.89.47-.42.95-.83,1.43-1.24.62-.08,1.25-.16,1.88-.23-.4-.49-.8-.98-1.21-1.47-.08-.63-.16-1.26-.25-1.89h0Zm6.03.79c-.52.38-1.03.76-1.54,1.15-.64.05-1.28.11-1.91.18.4.5.79,1,1.18,1.5.06.63.11,1.27.16,1.9.49-.39.99-.77,1.5-1.16.63-.05,1.25-.09,1.88-.13-.37-.51-.74-1.03-1.12-1.54-.04-.63-.09-1.27-.14-1.9h0Zm5.98,1.14c-.54.35-1.08.7-1.61,1.05-.64.01-1.28.04-1.92.06.37.52.73,1.04,1.09,1.57.02.63.03,1.27.05,1.9.51-.36,1.03-.71,1.56-1.06.63,0,1.26-.01,1.88,0-.33-.54-.68-1.07-1.03-1.6-.01-.64-.01-1.27-.02-1.91h0Zm5.9,1.53c-.56.31-1.12.62-1.67.94-.64-.03-1.28-.05-1.92-.06.34.54.66,1.08.98,1.63-.02.63-.05,1.27-.08,1.9.53-.32,1.07-.64,1.62-.96.62.03,1.25.07,1.88.12-.3-.56-.6-1.11-.91-1.67.04-.63.07-1.27.1-1.9h0Zm-28.51,3.1c12.23-.01,23.37,2.1,32.75,5.68,0,0-1.22,2.63-1.65,2.92-6.73-2.7-18.21-5.21-25.96-5.34-2.84-.11-3.47-.18-4.52-.54-5.91-1.95-11.13-2.8-15.94.09l-1.96-1.39c5.94-.95,11.72-1.4,17.28-1.4h0Zm-51.81,15.8c1.74,0,3.16,1.42,3.16,3.17,0,1.75-1.41,3.18-3.16,3.18-1.74,0-3.16-1.42-3.16-3.18,0-1.75,1.41-3.17,3.16-3.17Zm91.55.08c1,.61,4.7,2.26,4.7,2.26l-25.96,47.13-6.28.05,27.55-49.44Zm-83.62.08c1.74,0,3.16,1.42,3.16,3.18,0,1.75-1.41,3.17-3.16,3.17-1.74,0-3.16-1.42-3.16-3.17,0-1.75,1.41-3.18,3.16-3.18Zm89.17,2.48c.7.38,3.22.8,3.44,1.29.09.24-.1.72-.15,1.35-.14,1.5.24,3.16,1.14,4.49,1.48,2.06-.12,1.12-1.6,1.1-3.34-.86-7.59,3.71-5.97,8.41.37,1.04.3,1.12-1.49,1.67-4.06,1.24-5.83,5.57-3.88,9.43,1.02,2.01,1.05,1.91-.74,2.06-4.97.41-7.85,4.84-5.77,9.36.32.7.12.89-.97,1.1-3.39.62-4.91,3.47-5.34,6.6l-4.49.05,25.82-46.89Zm4.29,1.66l8.62,2.36c-3.58,12.22-4.07,26.41.23,42.83l-19.82.02c2.75-2.48,1.67-5.91-1.55-6.66,3.12-1.8,3.12-6.59-.62-7.16-3.29-.51-4.99,2.63-3.53,5.78l-1.4.39s-.63-.79-.77-1.22c-1.24-3.63,1.36-7.24,5.78-7.22,2.73.01,3.29-.77,1.79-2.45-2.7-3.01-1.85-7.25,1.67-8.91,1.62-.77,2.58-.26,2.58-.26l.08,2s-.66.06-1.17.15c-3.89.62-3.17,6.85.79,6.8,2.18-.03,3.73-1.69,3.73-4.07,0-.67,0-1.66,0-1.66,2,3.43,5.43,3.68,6.89.89,1.72-3.29-1.4-5.35-4.53-5.01,0,0,.66-.43,1.07-.64,3.33-1.72,2.19-6.64-1.5-6.64-2.53,0-4.01,2.36-3.19,4.86.13.4.44,1.05.44,1.05l-1.5.38s-.34-.26-.49-.5c-2.58-4.05,1.56-8.52,6.79-7.5,1.91.6,1.85-.73.78-1.93-1.15-1.73-2.02-3.69-1.17-5.65h0Zm-97.39,1.77l4.52,8.01-5.07,9.22-5.02-8.64,5.57-8.59Zm-.44,4.17l-3.14,4.34,3.07,4.98,2.92-5.04-2.85-4.28Zm-.14,1.63l2.04,2.75-2.06,3.38-2.01-3.17,2.03-2.95Zm93.48,8.65c.95,0,1.73.77,1.73,1.73,0,.95-.77,1.73-1.73,1.73s-1.72-.77-1.72-1.73.77-1.73,1.72-1.73Zm-12.18,21.7c.99,0,1.79.8,1.79,1.79s-.8,1.79-1.79,1.79-1.78-.8-1.78-1.79.79-1.79,1.78-1.79Zm-2.7,1.19h0c-.16.07,0,1.63.4,2.27-2.57.16-3.26,2.14-3.51,3.8h-2.3c.38-5.65,5.25-5.78,5.41-6.08h0Z"/>
    <path id="uuid-78867cd0-6d86-4585-9798-b5c131cfd9ea" data-name="path153-6-3-1-9-55-1-6" class="uuid-dad8a680-53c7-464c-8610-dbda15236ab5" d="m66.92,36.7c-10.33,14.77-21.39,23.27-21.57,34.79-.06,3.73,1.95,10.07,8.26,11.29,4.09.78,9.72-2.53,9.84-9.27-.02-1.34,1.42-1.31,1.4.53-.19,5.32-1.87,11.51-4.69,16.55h13.54c-2.82-5.04-4.5-11.23-4.69-16.55-.01-1.84,1.42-1.87,1.4-.53.12,6.74,5.75,10.06,9.84,9.27,6.3-1.21,8.32-7.56,8.26-11.29-.18-11.52-11.24-20.02-21.57-34.79h0Z"/>
    <path id="uuid-d449475b-5415-4321-9c58-756b01da7f3b" data-name="path153-6-3-1-8-6-8-8-0" class="uuid-dad8a680-53c7-464c-8610-dbda15236ab5" d="m182.87,313.3c-10.33-14.77-21.39-23.27-21.57-34.79-.06-3.73,1.95-10.07,8.26-11.29,4.09-.78,9.72,2.53,9.84,9.27-.02,1.34,1.42,1.31,1.4-.53-.19-5.32-1.87-11.51-4.69-16.55h13.54c-2.82,5.04-4.5,11.23-4.69,16.55-.01,1.84,1.42,1.87,1.4.53.12-6.74,5.75-10.06,9.84-9.27,6.3,1.21,8.32,7.56,8.26,11.29-.18,11.52-11.24,20.02-21.57,34.79h0Z"/>
  </g>
</svg>