<?xml version="1.0" encoding="UTF-8"?>
<svg id="uuid-44fc4ed0-f0e9-47c0-b330-20fd7f74b808" data-name="Cards" xmlns="http://www.w3.org/2000/svg" viewBox="0 0 250 350">
  <defs>
    <style>
      .uuid-340de1dd-43c4-4e0e-95bb-3c8f0f276fbd, .uuid-63991f79-fff3-4ec1-b8e9-f45467ea1bc2, .uuid-f1b5d25c-8829-4cad-a871-9a6a850ced3a, .uuid-09223dee-0bb5-48d6-bca4-eb6dc90a31ec, .uuid-d69d64a1-3204-4a1c-843f-a76b147eed00 {
        stroke-width: 0px;
      }

      .uuid-63991f79-fff3-4ec1-b8e9-f45467ea1bc2 {
        fill: #c8102e;
      }

      .uuid-f1b5d25c-8829-4cad-a871-9a6a850ced3a {
        fill: #fff;
      }

      .uuid-09223dee-0bb5-48d6-bca4-eb6dc90a31ec {
        fill: #ffcd00;
      }

      .uuid-d69d64a1-3204-4a1c-843f-a76b147eed00 {
        fill: #004c97;
      }
    </style>
  </defs>
  <g id="uuid-7a2f324c-0e3c-4c3c-bbfa-6ce16a0eca73" data-name="SPADE-11-JACK">
    <path id="uuid-f6c01c13-905f-4c20-86c9-630512ad47c4" data-name="rect7331-9-9" class="uuid-f1b5d25c-8829-4cad-a871-9a6a850ced3a" d="m11.86,0h226.08C244.54,0,249.9,5.36,249.9,11.97v326.05c0,6.61-5.35,11.97-11.96,11.97H11.86c-6.6,0-11.96-5.36-11.96-11.97V11.97C-.1,5.36,5.26,0,11.86,0Z"/>
    <path id="uuid-bbfb8f54-7c6b-4a08-b353-4aa312415f24" data-name="path7363-8-9" class="uuid-340de1dd-43c4-4e0e-95bb-3c8f0f276fbd" d="m19.18,56.09c-4.83,6.15-9.99,9.69-10.08,14.5-.03,1.55.91,4.2,3.86,4.7,1.91.33,4.54-1.06,4.6-3.86-.01-.56.66-.54.66.22-.09,2.22-.87,4.79-2.19,6.89h6.32c-1.32-2.1-2.1-4.68-2.19-6.89-.01-.77.66-.78.66-.22.06,2.81,2.69,4.19,4.6,3.86,2.95-.51,3.89-3.15,3.86-4.7-.09-4.8-5.25-8.34-10.08-14.5h0Z"/>
    <path id="uuid-0311cc87-240c-4fd8-9404-b309b36de1e3" data-name="path7367-3-1" class="uuid-340de1dd-43c4-4e0e-95bb-3c8f0f276fbd" d="m230.62,293.9c-4.83-6.15-9.99-9.69-10.08-14.5-.03-1.55.91-4.2,3.86-4.7,1.91-.33,4.54,1.06,4.6,3.86-.01.56.66.54.66-.22-.09-2.22-.87-4.79-2.19-6.89h6.32c-1.32,2.1-2.1,4.68-2.19,6.89-.01.77.66.78.66.22.06-2.81,2.69-4.19,4.6-3.86,2.95.51,3.89,3.15,3.86,4.7-.09,4.8-5.25,8.34-10.08,14.5h0Z"/>
    <path id="uuid-eb230c79-e17f-416d-bba6-8a5d7cf68457" data-name="path35-7-9-2" class="uuid-340de1dd-43c4-4e0e-95bb-3c8f0f276fbd" d="m19.06,15.53v3.88h3.76s.09,3.74.12,11.67c.03,7.7.19,11.52-.3,13.71-1.32,5.05-8.62,5.08-10.07,1.45-.84-2.11-.62-3.76-.66-5.88h-4.04s.02,1.07.03,2.38c.02,5.68,1.9,8.4,6.29,9.47,4.52,1.22,9.8-.64,11.68-4.51,1.12-2.2.99-2.36,1.02-15.69.02-8.89.15-12.59.15-12.59h3.46v-3.88h-11.43Z"/>
    <path id="uuid-d4f828bd-3fc2-43a8-8b58-fa4952160405" data-name="path35-7-8-1-4" class="uuid-340de1dd-43c4-4e0e-95bb-3c8f0f276fbd" d="m230.73,334.46v-3.88h-3.76s-.09-3.74-.12-11.67c-.03-7.7-.19-11.52.3-13.71,1.32-5.05,8.62-5.08,10.07-1.45.84,2.11.62,3.76.66,5.88h4.04s-.02-1.07-.03-2.38c-.02-5.68-1.9-8.4-6.29-9.47-4.52-1.22-9.8.64-11.68,4.51-1.12,2.2-.99,2.36-1.02,15.69-.02,8.89-.15,12.59-.15,12.59h-3.46v3.88h11.43Z"/>
    <g id="uuid-a4cb86de-3e75-4eb6-8ae0-40e7c980f12e" data-name="g3851-4-2-7-4">
      <path id="uuid-10f35029-1d65-450f-87ac-0c4a86fc0ab6" data-name="path4037-8-0-2" class="uuid-d69d64a1-3204-4a1c-843f-a76b147eed00" d="m33.07,26.83v296.33h183.66V26.83H33.07Zm58.35,1.62l83.2.31-12.9,19.74c-16.82-5.33-44.1-1.87-58.16.82-3.7-6.18-9.06-13.93-12.14-20.86h0Zm-55.93.76h53.41l12.54,22.81c.45.64.02,1.95-.25,2.69-1.55,4.35-2.92,6.88-6.05,12.07-2.97,4.92-4.03,9.42-2.98,12.44.16.37.3.94.24,1.41-.17,1.51-1.44,3.25-3.17,4.45-1.17.19-3.61.34-5.02,1.73-1.21,1.2-2.2,2.94-2.05,6.14.07,1.14.22,1.87.22,1.87-15.95,6.63-27.39,14.4-27.01,14.68-.15-.07-14.12-6.45-19.89-8.03V29.21Zm142.1,0h36.66v104.77l-13.84-9.12c1.15-.8,1.87-1.28,3.08-2.1.22-.07.62-.07.89-.13,2.45-.55,4.16-2.38,3.31-4.28-.58-1.29.21-1.21.92-2.26.8-1.18.63-2.24.12-3.23-.25-.49-.11-.69.31-1.6,1.12-1.39.31-3.74-1.14-4.51-.15-.22.16-.57.23-.89.41-1.89-.34-3.54-1.97-3.96-.84-.22-1.12-.36-.82-1.11.53-1.33-.17-1.82-1.26-2.26-.29-.11-.69-.3-.69-.3l.14-.87s.86-.4,1.51-.69c4.65-2.09,5.75-8.3,2.55-13.94-1.27-2.09-2.5-3.99-3.93-5.98l6.16-8.58s-4.29-5.07-5.81-7.88c.36-1.38,4.65-5.73,5.21-9.95.87-6.62-4.16-10.85-8.92-10.36-3.3.34-7.36,2.45-7.06,8.58.1,1.9.84,3.87,2.19,6.25.94,1.78,2.16,3.66,3.33,5.47l-6.2,8.46,6.26,7.92c-1.1,1.9-2.48,3.93-3.44,5.96-2.31,4.56-3.13,9.57,1.61,13.1.83.51,1.82,1.29,1.82,1.29l-.1.82s-.28.12-.47.16c-8.5.61-14.57,8.09-16.57,14.73l-23.08-14.72c.84-.43.79-2.35.66-3.56-.03-1.83-.02-1.83,1.04-3.51.37-.59.52-1.18.31-2.09-.34-1.02-.37-.7.28-1.4.25-.31.56-.47.61-.81.07-.45.03-1.25.03-2.73.02-2.96-.02-2.72,1.64-4.02,2.07-1.62,2.84-2.38,3.17-3.11.47-1.05,0-1.84-1.16-3.93-1.36-2.52-3.27-5.12-4.08-7.61-.77-1.25-.66-3.43.06-4.7.9-1.6,1.15-2.57,1.12-5.81-.03-3-.25-2.72.52-3.73,5.72-7.57,14.81-21.81,14.81-21.81h0Zm28.93,13.53c4.82,6.68-.14,12.85-3.3,17.51,1.93,2.9,3.53,4.97,5.49,7.94-1.51,3.32-4.07,5.95-5.61,8.56,7.55,10.17,7.82,19.38-2.33,19.93-3.61-.39-6.93-3.46-6.54-7.94.29-4.69,2.79-8.11,5.38-11.92-2.21-3.8-4.41-5.19-5.97-8.19l5.57-8.25c-1.53-3.84-4.78-6.62-5.16-11.66-.53-7.09,6.27-10.54,12.46-5.98Zm-76.3,5.11h0c1.27-.02,2.54,0,3.82.08.4,3.46-11.22,23.89-8.79,25.08,9.14,2.19,6.02,13.01-.93,12.66-1.04-.01-1.14.09-1.8,2.39-1.26,3.36-2.08,5.92-3.43,9.04,0,.8-4.54.59-8.34.56-1.63,1.26-8.63,4.66-12.45-4.05l-.14,7.45s52.34-.83,61.65.34c.2-2.33,5.18,1.8,5.18,1.8l-25.55,40.14,1.19,1.16c3.69-4.47,25.92-40.29,25.92-40.29l48.1,31c-.4,4.61.06,14.94.06,14.94-13.2,7-9.17,10.57-.08,2.09l.15,6.05c-3.29,1.75-6.5,7.72-.23,3.56l.16,3.43c-3.26,4.62-9.63,1.23-8.01-3.55-4.4.57-5.08-3.89-4.86-6.01-5.78-1.26-3.79-7.38-3.79-7.38-3.34-2.79-3.93-5.71-1.22-8.8-2.74-1.7-3.51-2.79-6.52-4.02,2.31,20.49,13.38,31.13,25.03,40.62-.31,0-.34,6.6-1.07,5.38-16.64-12.42-27.33-26.62-29.17-49.59-.14.36-7.89-5.99-9.17-5.65-2.68,37.19,26.96,61.64,39.29,66.46,0,0,.17,5.18-.04,5.2-18.68-8.14-39.46-32.03-43.46-60.46l-11.02,17.05-4.13-1.76,17.82-28.05-12.05-7.55-19.63,31.06s-.52,2.59.9,2.55c27.55,2.94,68.52,36,54.79,89.81-1.19-.47-3.08-1.39-3.18-1.35,2.15-4.64,8.16-34.68-9.91-58.94-8.28-11.12-21.12-22.95-41.72-26.44,1.7,3.51.96,11.47.96,11.47l4.8.97c-1.62-1.71-2.97-3.12-3.61-4.98-.9-2.89.42-4.6,3.62-2.88,1.27.71,1.59.68,2.83-.24,2.58-1.91,5.52.06,4.84,3.24-.1.47.03.77,1.25.88,2.77.28,5.57,1.65,7.38,3.8.89,1.14,1.09.97,1.88.28,1.94-1.68,5.14.65,4.57,3.25-.33,1.49-.15,1.84.54,2.13,3.78,1.59,4.72,2.59,5.89,5.9.43,1.21.78,1.61,1.01,1.54.16-.05.78-.26,1.33-.46,2.83-1.07,4.48,2.34,2.47,5.02-.41.55-.1,1.07.62,1.47,2.35,1.28,3.95,4.34,4.23,7.55.11,1.22.24,1.22,1.46,1.17,3.13-.13,4.61,4.09,2.07,5.64-.89.54-.72,1.24-.03,2.05,1.82,2.16,2.25,3.72,2.09,6.18-.21,3.28,0,3.21,1.04,3.61,3.04,1.16,2.47,6.01-.51,5.99,2.15,4.99-.68,11.09-.59,11.2,5.73,3.22.56,6.64-1.11,6.04,0,0-.85,2.24.12,3.4-5.02,6.64-11.6,7.74-18.88,11.04l-.23-23.38c3.03,2.44,6.03,4.71,9.03,6.98,0,0,.76-.23.06-.87-1.33-1.23-4.69-3.4-5.63-4.26-2.03-1.54-9.46-8.63-10.78-10.32-.59-1.12-1.49-.47-1.46-.4.89,1.53,1.55,3.32,2.7,4.91,2.48,3.44,4.9,7.27,4.64,11.05-.01,2.12-.85,4.3-1.32,5.36-.35,1.45-2.67-.25-2.08-1.47,1.03-3.35,1.88-6.1-1.8-11.48-1.8-2.63-4.12-7.39-4.12-7.39l-1.49.36.06,30.5c-1.25.05-4.42.87-3.76.89,9.87-1.97,12.89,12.14,3.36,12.6-1.66.17-3.36,3.41-3.87,4.87.89,6.79-.79,9.99-4.3,16.19-1.96,3.92-5.82,8.68-4.64,12.99-11.67,2.91-20.42,3.66-32.17,3.93-.11-.18,3.95-11.59,6.91-17.45,2.19-4.32,3.32-7.28,2.7-8.17-9.32.47-7.53-13.19,1.39-12.71,0,0,2.24-7.87,4.74-11.41,2.37-1.32,7.14.48,9.81-1.29,6.3-1.93,10.43,5.51,10.43,5.51l1.7-7.08c-1.48-.34-60.36-.93-64.09.77-1.88-.77-4.55-2.82-4.55-2.82,0,0,21.49-34.41,24.62-39.34.25-.4-.56-1.26-.56-1.27-.12-1.12-25.51,39.78-25.51,39.78-14.34-9.17-32.36-20.78-48.33-30.97l-.04-15.32c11.6-7.3,10.55-10.29-.19-2.33-.15.13-.23-5.75-.23-5.75,8.18-7.3,1.38-5.02-.24-2.49.04-1.82-.38-4.29.78-5.38,3.58-3.29,7.79-.27,8,4.6,4.66.91,4.09,5.01,5.29,6.65,4.76,2.68,2.25,6.75,3.43,8.13,5.01,3.16,1.52,8.23.46,8.11.63.42,6.86,4.59,7.39,4.44-.54-21.86-22.4-39.49-25.3-41.62l.51-4.71s30.11,19.24,29.84,50.11l9.6,5.7c-.85-31.67-15.21-53.15-39.42-66.75l-.32-5.87c20.32,9.45,39.17,28.57,43.56,59.92l11.25-17.45,3.97,1.92-18.07,28.96,11.28,7.41c8.75-11.51,16.05-25.62,20.5-32.34-.12-.61-.36-1.49-.36-1.49-43.02-7.09-67.25-47.36-55.7-89.43l2.99,1.31c-8.97,31.16,5.66,76.01,52.44,85.19-.09-3.31-.68-11.46-.68-11.46,0,0-6.15-1.85-5.24-1.11,1.51,1.29,4.89,6.83,3.46,8.8-1.03.14-2.75-.43-4.63-1.81-.71-.52-.73-.41-1.53.44-2.21,2.36-5.42,1.01-5.45-2.23-.01-1.37-.06-1.66-2.01-1.67-2.95-.02-4.27-.53-6.04-2.89-1.25-1.68-1.14-1.68-2.61-1.18-2.83,1.34-5.08-1.48-4.2-3.8.44-1.09-.03-1.44-1.31-1.65-2.5-.41-5.33-3.55-5.85-6.11-.11-.52-.37-.66-1.84-.6-2.89.1-4.5-1.65-3.36-4.11.62-1.33.79-1.86-.36-2.76-1.42-1.1-2.22-1.87-2.85-3.2-.5-1.06-.57-1.74-.92-3.99-.12-.78-.38-.91-1.41-1.05-2.99-.39-4.17-3.45-1.98-5.43.67-.61.67-.59-.35-1.91-1.96-2.53-2.69-5.84-1.84-8.04.23-.6.01-1.33-.69-1.5-2.73-.68-2.78-3.7-.16-5.4.76-.49.8-.82.22-1.81-1-1.74-.96-6.31.02-8.49.63-1.41.62-1.44-.35-2.06-2.07-1.32-1.48-4.96.97-5.56,1.19-.29,1.27-.45.95-1.89-.57-2.57-.67-3.24.85-4.26,4.18-2.71,14.89-7.9,14.89-7.9l3.54-1.68s.35,22.49.13,25.04c5.03,4.14,7.86,12.45,12.06,7.25l.12-30.78c.25-.7.43-.78,1.24-.87.68-.13,2.37-.32,2.94-.48.8-1.3-1.45-.54-2.47-.3-5.61,1.68-9.76-7.04-5.49-11.44.82-.73,3.88-2.01,5.27-2.1,1.91-1.55,3.8-4.43,3.11-6.58-.99-2.88-.05-7.3,2.91-12.13,3.2-4.56,5.68-9.64,6.98-15.05,9.93-1.2,18.54-3.5,27.41-3.65h0Zm4.87.67s13.62.11,20.45,1.2c5.98.96,5.67.78,5.65,5.12-.02,3.08-.02,3.01-.81,4.49-1.46,2.72-1.21,5.41,1.1,9.17,2.24,3.65,3.88,6.35,3.88,6.87,0,.81-.14,1.79-2.08,3.14-2.29,1.6-2.73,2.72-2.69,4.34.03,1.31-.22,1.74-1.01,1.74-.31,0-1.43.51-2.62,1.08q-2.1.99-4.07.98c-.98-.01-1.46-.38-1.73-.27-.53.25-1.01,2.01-.99,2.53.06.18.34.07.92-.13,3.25-1.11,8.09-.61,8.23-.13.66.59.66,1.51-.33,2.46-.64,1.01-.94,1.53-.67,3.09.36,2.12.09,2.96-.99,3.69-10.74,4.73-24.76-.23-31.56-8.18-1.52-1.82-2.1-3.14-2.1-3.14,1.47-.16,2.92-.19,4.2-.77,5.19-2.35,5.23-12.06-1.82-13.06-2.88-.1,5.94-13.65,9.06-24.22h0Zm17.55,3.39h0c-3.7.1-7.56,1.45-10.83,3.2-2.53,1.42-3.98,4.28-3.98,4.28,0,0,2.15-1.14,3.42-1.81,4.23-2.09,11.25-4.21,14.04-2.59,2.38,1.43,3.3.96,1.92-.96-1.06-1.48-2.71-2.07-4.57-2.14h0Zm-1.8,4.72c-.37,0-.76.05-1.15.13-2.44.54-5.12,2.55-7.35,4.32-1.1.87-2.65,2.6-2.89,3.05-.55,1.02.66,2.15,2.31,1.25.96-.52,1.04-.41,1.97-.28,2.13.64,4.56,1.63,8.31,1.32.35.08.32.16.2.49-.22.6-1.55,1.75-3.29,3.03-.9.66-2.08,1.64-2.08,1.64,0,0,1.26.14,2.57-.61,1.86-1.05,4-3.38,5.31-5.26.12-.18.3-.33.35-.52.13-.43-.66-.26-1.08-.37-.18-.05-.14-.5-.19-.71-.12-.55.09-1.46.19-2.24.08-.63.76-1.13,1.2-1.6,1.96-2.04,1.81-2.96-.83-1.4-.44.26-.8.42-1.23.46-3.89.12-6.14-.03-9.39,2.7-1.44,1.16-2.31,1.27-1.03.04,1.96-1.58,4.41-3.84,7.13-4.44,1.64-.41,3.2.85,3.92.52,0-.9-1.36-1.55-2.98-1.54h0Zm-.93,5.58c.13-.01.26,0,.36.05.45.29.88,1.81.84,2.33-.05.6-1.08.35-1.22.07l-.56-1.69c-.18-.43.19-.72.57-.75h0Zm-2.06.37c.16-.01.31,0,.44.03.48.47.59,1.49.86,2.33-.17.61-4-.21-4.48-.89.5-.65,2.08-1.42,3.18-1.46h0Zm7.16,10.93c-.29-.02-.67.12-1.01.47-1.72,1.76-1.17,4.77.9,5.74,1.01.47,2.54.13,4.8-.57,1.07-.33,1.85-.48,2.05-.48.88,0,1.36-1.36.74-1.98-.71-.72-2.41-.62-4.23.79-.92.71-1.58,1.05-2.32,1.05-1.82-.02-2.71-1.89-.85-3.86.62-.65.4-1.13-.08-1.16h0Zm-11.41,6.64c-2.7-.4-4.08,4.1-1.36,6.29,2.15,1.73,6.23.82,8.97-.99,2.45-1.62,3.47-2.1,5.43-1.76,2.41.41,2.32-.53,1.28-1.72-1.18-1.35-4.11-.93-6.55.69-5.42,3.59-7.38,4.19-8.95,2.25-1.36-1.68-.32-3.83,1.17-3.72.93.07,1.5.64,2.4.94-.66-1.47-1.28-1.81-2.39-1.97Zm-20.41,8c2.74,3.47,5.36,6.33,9.29,8.44l.04.65-12.72-.03c.89-1.55,3.41-8.96,3.39-9.07h0Zm-43.07,9.03c-.27,5.22.67,8.29,3.73,11.94,3.25,3.88,3.01,9.93.92,13.67-.93,1.65-2.81-.38-1.92-1.44,1.26-1.59,1.34-5.46.74-7.88-1.34-4-4.38-5.96-5.61-10.19-.41-1.81-.28-5.05-.28-5.05l2.43-1.05Zm3.98.44c.22-.03.58.2,1.1.65,1.8,1.56,1.49,6.01-.57,8.86-.63.87-1.15.62-1.76-.19-.81-.8-.53-.88.15-2.29.71-1.47.94-3.13.8-5.06-.1-1.3-.05-1.92.27-1.97Zm116.67,1.53c1.59-.02,3.57.31,3.75.89.17.7-.21,1.26-1.09,1.63-2.32.98-5.39-.39-4.62-2.06.19-.3,1.01-.44,1.96-.46Zm-4.06.37c.38-.02.73.05,1.05.24.76.39-.37,3.07,3.42,3.02.91.13,1.57-.08,1.45.33-.19.62-1.81,1.54-3.58,1.8-5.28.78-5.05.52-4.81,4.24.16,2.43,0,3.25-.33,4.73-.57,2.56-.8,5.03-.41,4.22.51-1.09,1.83-4.52,1.82-6.47-.01-2.88,1.02-3.45,1.43-1.36.18,1.38-.44,2.16.48,3.57.53.79.77.78.42,2-.31,1.08-.1,1.4.28,1.95.38.55.77.68.44,1.46-.7,1.67.4,3.25,1.98,3.38.73.06.93.38.71.66-.39.48-1.16.71-1.8.85l-16.77-10.71c3.47-8,7.41-11.69,12.98-13.61.44-.18.85-.29,1.23-.31h0Zm8.94,3.47c.46-.02.81.22,1.19.72,1.03,1.32.13,2.97-2.4,4.4-2.16,1.23-2.79,1.38-3.26-.55-.11-.35-.4-.78-.58-.95-.5-.46-.39-.84.25-1.18.31-.16,1.28-.56,2.06-1.07,1.35-.89,2.15-1.34,2.74-1.37h0Zm-7.14,3.84c.53.01,1.08.14,1.48.4.67.44.68,1.53,0,1.97-1.35.55-3.47-.19-3.3-1.42.09-.63.93-.96,1.82-.94h0Zm8.63,1.35c.48-.01.84.21,1.13.67.67,1.04.1,2.08-1.72,3.16-.32.19-.68.39-1.08.58-1.75.86-3.99,1.23-3.84.72.12-.41-.51-2.4-.78-2.72,1.8-.49,3-.82,4.46-1.68.76-.48,1.36-.72,1.83-.74h0Zm-127.09,1.41c.89,0,1.55,1.16,1.26,1.75-1.23,2.95-1.43,4.26-.84,7.36.49,2.59,1.05,3.88,3.71,7.71,2.02,2.91,2.67,4.04,2.18,4.96-.34.49-1.12.96-1.6.48-.99-1.29-1.58-2.86-2.54-4.29-3.71-5.44-3.97-6.83-4.45-11.12-.22-1.96.91-6.14,1.88-6.76.14-.05.27-.08.4-.08h0Zm87.04.39c-.55.08-2.44,3.42-2.19,3.67.92.91,3.64-3.88,2.19-3.67Zm31.96,1.34c1.49.04,2.01,1.38,1.35,2.07-.97,1.01-2.72.25-2.72-1.17,0-.6.28-.91,1.37-.9h0Zm8.24,1.89c.85-.08.96.88.51,2.11-.57,1.14-1.25,1.33-3.29,1.97-2.45.76-2.84.65-3.21-1.6-.14-.86-.07-.67,2.18-1.27,1.28-.35,2.49-1.09,3.81-1.21Zm-144.45,1.01l.6,4.54.98-3.4-1.58-1.14Zm136.5,1.53c1.2,0,1.85,1.08,1.24,1.73-.34.36-1.21.37-1.63.16-.96-.7-.78-1.89.39-1.88h0Zm-36.76,2.37l2.35,1.45-19.05,30.05-2.3-.05-.22-.48,19.22-30.96Zm43.23.29c1.41-.02,1.53,1.31-.17,2.52-.7.45-1.48.56-2.09.58-.85.04-1.42-.18-1.48-.77-.37-1.43-.58-1.79.73-1.71,1.08-.04,1.99-.43,3.02-.63Zm-5.83,1.31c.97.01,1.59,1.06.94,1.58-.81.64-1.81.24-1.81-.72,0-.62.17-.86.87-.86Zm-137.09,2.13l-5.18,4.59c1.9,2.25,3.49,4.49,5.14,6.84l.05-11.43Zm104.81.29c2.25-.09,2.99,1,1.92,1.73-1.45.97-2.69.92-4.34.7-2.18-.4-.44-2.14,1.94-2.39.16-.02.32-.03.47-.03h0Zm-2.39,3.27c.45-.01,1.12.12,1.99.41,1.47.5,3.31,2.04,3.22,2.89-.14,1.38-2.75.67-4.84-1.31-1.31-1.24-1.36-1.96-.36-1.99h0Zm-1.99.02c1.28.12,2.55,4.43,1.56,5.76-.97,1.3-2.68-1.5-2.37-3.69.12-.87.34-2.02.68-2.06.04,0,.08-.01.13,0h0Zm-83.31.95c.72.17,1.64,1.16,1.44,1.92-.14.3-.45.22-.77.14-.59-.25-1.05-1.07-.93-1.75.06-.18.13-.29.27-.3Zm96.67.74l3.75,2.54-3.75.15v-2.68Zm-16.13,2.24s.02,0,.04,0c.28,0,.51.23.51.51,0,.28-.23.51-.51.51-.28,0-.51-.23-.51-.51,0-.27.21-.49.48-.51h0Zm.6,2.9c2.87.02,3.48.94,1.34,2.07-.89.47-3.07.56-4.19.17-1.78-.62.36-2.26,2.85-2.24Zm23.26,1.93l.2,2.6-7.22.63-.37-2.71,7.39-.52Zm-27.4,1.3c1.31.08,2.45,3.67,1.58,5.44-.47.97-1.07.76-1.93-.84-.83-1.55-.88-4.27.08-4.57.09-.03.18-.04.27-.03h0Zm2.46,0c.5-.03,1.3.2,2.34.73,1.96,1.01,3.08,2.7,2.07,3.24-.92.48-2.55-.09-3.71-1.3-1.53-1.6-1.65-2.61-.7-2.67h0Zm-96.31,1.01l-3.16,6.34,5.72,4.98-2.56-11.32Zm91.16,2.61s.02,0,.04,0c.28,0,.51.23.51.51,0,.28-.23.51-.51.51-.28,0-.51-.23-.51-.51,0-.27.21-.49.48-.51h0Zm30.99,2.27l.51,2.51-6.93,1.71-.68-2.73,7.1-1.48Zm14.75.34c-2.65,1.77-.1,2.75,1.79,1.41-.14-.46-1.24-1.4-1.79-1.41Zm-45,.15c.85.01,1.64.22,2.09.62.63.56.49.8-1,1.41-2.66,1.08-5.93.43-4.03-1.19.67-.57,1.85-.86,2.94-.84Zm-1.94,3.41c1.89.06,5.61,2.65,4.81,3.89-.43.68-2.91.1-3.9-.85-1.3-1.24-1.98-2.9-1.26-3.03.11-.02.23-.03.35-.02h0Zm-2.39.12c.98-.18,2.54,4.36,1.36,5.53-.44.44-.56.41-1.3-.25-1.48-1.31-1.22-3.72-.34-5.07.08-.13.18-.2.28-.22Zm57.21,1.43c-9.2,3.53-6.84,6.89.93.97-.26-.48-.58-.7-.93-.97Zm-20.86,1.28l.92,2.54-6.98,2.76-1.03-2.78,7.09-2.52Zm-119.32,4.81l-2.36,6.21c2.57.01,4.88,1.23,7.23,2.31l-4.87-8.52Zm121.64,1.82l1.48,2.49-6.56,3.55-1.31-2.63,6.39-3.41Zm-152.44,4.86l2.69,1.9-3.95,4.9-.36-.69.04-4.07,1.58-2.04Zm156.02,1.54l1.59,2.29-6.32,4.39-1.55-2.49,6.28-4.18Zm-149.25,2.94l2.9,2.23-4.59,5.53-2.78-2.12,4.46-5.64Zm31.93,1.37l-.14,6.65,6.83.26-6.69-6.91Zm85.52.65c-2.03.39-4.63,1.71-6.59,2.35l7.76,4.47-1.17-6.81Zm36.04.95l1.81,2.25-5.84,4.9-1.87-2.34,5.9-4.81Zm-147.57,1.97l2.7,2.51-4.77,5.14-2.5-2.36,4.56-5.29Zm152.55,3.65l2.1,2.13-5.32,5.53-2.1-2.13,5.32-5.52Zm-146.41,2.71l2.09,2.44-5.44,4.32-2.02-2.45,5.37-4.31Zm31.37.57l1.53,6.52c-.11-.47,6.78-1.94,7.67-1.45l-9.2-5.07Zm80.19.55l6.5,6.86.73-6.6-7.23-.25Zm40.2,1.08l2.35,1.84-4.36,6.21-2.66-2.09,4.67-5.96Zm-147.07,4.14l1.94,2.8-5.71,3.39-1.62-2.47,5.39-3.72Zm153.23.66l.36.36v4.44s-1.82,2.66-1.82,2.66l-2.47-1.46,3.93-6Zm-36.78,4.98l5.75,10.44,1.62-7.79c-2.13-.03-5.49-1.39-7.37-2.66Zm-111.9,1.39l1.37,3.01-6.03,2.75-1.37-3,6.03-2.76Zm3.26,7.19l1.1,3.02-6.41,2.13-1.02-2.92,6.32-2.23Zm-20.68,1.92c-1.09-.02-3.97,1.07-7.97,3.55l2,1.4c5.85-3.07,7.38-4.92,5.98-4.95Zm50.79.08c.39-.04.85.5,1.21,1.7.55,1.81.26,4.06-.97,4.03-.83-.1-1.14-2.22-1.14-2.84-.01-1.82.4-2.84.9-2.89Zm5.7,1.08l2.48.27v.7s-19.73,31.28-19.73,31.28l-2.39-1.52,19.65-30.73Zm-10.62.72c.79.01,1.94.55,2.96,1.63.6.65,1.24,1.56,1.39,2.5-.02.31-.55.19-1.06.12-1.31-.18-3.24-1.09-3.85-2.21-.75-1.37-.33-2.05.56-2.04Zm90.67,1.11l2.63,12.81c.81-3.21,2.53-5.06,3.81-7.57-3.35-1.54-4.73-3.37-6.44-5.24Zm-113.32,2.59l.62,3.31-6.64,1.54-.69-3.21,6.71-1.64Zm25.06,1.16c2.43.27,2.77.81,1.14,1.91-.99.66-3.88.85-4.11.05-.28-.96,1.67-1.91,2.97-1.96h0Zm-46.14.83c-.75.05-1.69.41-2.35,1.11l2.06,1.2c2.21-1.59,1.53-2.39.28-2.31Zm42.36,2.22c.74.01,1.19,1.33,1.45,2.55.13,1.13.06,2.07-.12,2.83-.2.89-1.1.85-1.54.14-1.3-2.1-1.26-5.54.21-5.52Zm3.48,1.6c0,.28-.23.51-.51.51-.28,0-.51-.23-.51-.51,0-.27.21-.49.5-.5.3-.01.52.22.52.5Zm-8.95.33c.35-.01.78.07,1.29.27,1.72.65,4.01,3.29,3.04,3.65-1.43.54-4.54-1.03-5.13-2.61-.3-.8.03-1.28.79-1.31Zm-14.21,2.12l.16,3.27-6.99.28-.21-3.26,7.04-.3Zm17.11,2.76c.69-.02,1.38.07,1.93.31,1,.43.27,1.21-1.45,1.81-1.13.39-2.75.49-3.32.04-1.33-1.04.77-2.1,2.83-2.16Zm-54.09.38c4.79,2.9,14.71,9.37,14.71,9.37-.47.09-.97.46-1.43.82-.36.29-.74.57-1.08.7-.53.22-1.02.25-1.46.34-3.08.67-4.59,2.41-3.63,4.58.38.85.48.71-.18,1.43-1.84,1.75-1.61,2.28-.96,4.52.01.32-2.19,3.01-.25,5.04,1.08.94,1.13.35.74,2.48-.14,1.28.21,2.33,2.08,2.7,1.04.48,1.02.31.66,1.19-.1.49-.13.89-.02,1.18.3.76.66.99,1.48,1.35l.09.79s-.21.11-.31.16c-5.96,3.2-7.71,8.68-1.95,16.68.69.96,2.43,3.67,2.43,3.67-1.97,2.93-3.86,5.34-5.87,7.95l5.86,8.19c-1.24,1.68-3.52,4.74-4.53,7.49-1.71,4.62-.7,10.76,5.2,12.64,2.53.81,5.86.15,7.97-2.29,1.71-1.98,2.64-5.91,1.08-10.01-1.97-4.59-4.33-6.84-5.1-8.15l6.28-7.87s-4.33-6.21-6.05-8.47c11.17-13.66,3.08-17.98.65-19.44-.13-.08-.34-.21-.34-.21l-.22-1.11s.19-.02.29-.03c10.35-1.28,13.92-7.04,17-14.32,6.31,4.06,22.71,14.49,22.71,14.49-.25.8-.45,2.14-.47,3.13.29,1.91.15,2.77-.62,3.5-.72.69-.58,1-.46,1.74.2,1.29.4,1.42-.18,2.07-.71.8-.95,1.18-.82,3.12.08,1.16.23,2.02-.08,2.7-.39.89-1.47,1.34-2.89,2.45-2.48,1.94-2.14,2.54,1.28,9.58,2.91,6.01,3.25,7.38,2.13,9.51-.93,1.77-1.28,3.15-1.17,5.71.03.65.09,1.36.08,1.71-.01.83,0,.73-.48,1.25-.37.4-.99,1.2-1.37,1.78-4.06,6.09-14.75,21.73-14.75,21.73h-36.04v-105.87Zm151.58,1.19c.01,5.55-.11,12.75-2.02,18.06l2.17.98c-.7-5.45.17-9.92,5.17-12.28-2.28-1.54-4.02-4.15-5.32-6.76Zm-101.1,1.65c.42-.03.93.72,1.51,2.25.33.88.3,2.41-.24,2.99-1.07,1.17-2.54-1.57-2.08-3.74.21-.98.49-1.48.81-1.5Zm3.14.77h0s.02,0,.03,0c.28,0,.51.23.51.51,0,.29-.23.52-.51.52-.28,0-.51-.23-.51-.52,0-.27.21-.49.48-.51h0Zm-8.52,1.09c1.13.09,2.24.75,2.99,1.42,1.1.97,2.09,2.31,1.82,2.42-1.7.75-6.02-1.53-5.45-3.31.12-.38.35-.55.63-.53Zm-7.56.23l.05,2.72-4.18-2.67,4.13-.05Zm95.41,1.31c.68.06,1.72.94,1.56,1.56-.29.66-.65.6-1.11-.1-.58-.87-.82-1.41-.44-1.46h0Zm-84.66,3.36c1.01-.03,1.89.2,1.99.72,0,.5-.77,1.15-1.72,1.44-2.38.73-4.16.26-3.51-.91.41-.77,1.94-1.22,3.24-1.26Zm81.58.59c.95-.01,1.76,1.89,1.15,2.49-1,1.8-1.13,7.55.64,9.89,2.75,3.04,5.29,6.99,5,12.25l-2.65,1.18c.15-4.33-.03-7.14-3.41-10.88-4.03-4.37-3.08-11.95-1.69-14.18.3-.55.63-.77.95-.77Zm-110.99,1.79l12.7,8.63s.03.23-.03.48c-1.81,6.94-7.09,12.45-14.9,13.45-.9.12-.44-.45-.98-1.54-.56-1.12-1.6-1.61-2.74-1.62-3.23-.03-.47-1.84,3.47-2.35,1.3-.2,2.87-.38,3.7-1.16.18.08-.68-5.43.2-7.36.45-1.74.02-2.59-.46-1.52-.31.67-.74,2.44-.97,4.26-.19,1.53-.52,1.74-.88,1-.16-.34-.16-1.14.1-1.78.29-1.44-1.53-2.53-1.16-3.85.49-1.1-.02-2.32-.63-2.73-.33-.72-.3-1.23-.25-1.73.1-1.17-.68-2.29-1.91-2.78-.54-.28-.34-.49.19-.86,1.35-.94,3.21.68,4.56,1.46Zm-7.67.29c.31,0,.62.03.91.1.63.39,1.14,2.58.44,2.66-.26.03-1.08.13-1.71.32-2.14.63-3.16.54-3.11-.69.04-1.25,1.8-2.37,3.47-2.4h0Zm2.85.22c.84,0,1.52.99.99,1.52-.55.54-1.6.15-1.6-.64,0-.42.19-.88.6-.88Zm.57,3.42c.24-.01.51.04.8.18.78.36,1.24,1.71.74,2.2-.38.37-1.46.24-2.05-.25-1.04-.88-.54-2.09.51-2.13Zm-2.66.2c.49.01.83.17.93.5.08.29-.05.55.08.96.2.65.62,1.14.26,1.4-1.64-.1-5.05,1.96-6.04,1.86-.82-.11-.91-.87-.2-2.09.82-1.42,3.53-2.67,4.98-2.64h0Zm.99,3.98c.36-.02.42.17.27.7-.1.37-.02,1.25.23,1.82.27.61.76.98.51,1.21-.42.12-1.83.4-3.02.85-1.53.85-5.83,3.39-4.75-.68.34-1.36,1.93-2.31,4.69-3.27,1.05-.37,1.7-.61,2.06-.63Zm2.25.05c.66-.05,1.42.27,1.76,1.09,1,1.98-1.86,2.26-2.78.61-.54-.98.16-1.65,1.01-1.71Zm.55,4.61c1.49.01,2.64,1.85,1.56,2.54-.8.48-1.79.39-2.71.16-1.38-.6-.74-2.72,1.15-2.71Zm142.23.04c5.65,2.96,13.32,5.68,20.78,7.71v73.39h-50.94l-13.95-24.31c-.65-1.14-.92-2.02-.6-3.01.53-1.63,1.86-4.89,3.15-7.18,3.37-6.18,8.16-12.96,5.56-18.89-.3-.68,2.68-4.36,2.68-4.36,4.74.23,8.81-2.9,6.91-9.6,9.56-3.91,17.54-7.13,26.42-13.73h0Zm-144.86.36c.13,0-.26,1.6.55,2.59.51.78.42.75-1.29,1.43-.64.35-1.29.88-1.65,1.2-2.46,2.19-4.89-.67-2.51-2.97,1.92-1.72,3.92-2.1,4.87-2.22.01-.02.02-.02.03-.02h0Zm116.84,1.51c.82.15,1.89,1.24,1.55,1.84-1.16,1.95-1.22,2.99-1.32,5-.12,2.25.27,2.58-.59,2.19-.56-.26-1.6-.71-1.84-1.28-.54-1.32.84-7.99,2.2-7.75Zm-117.64,5.64c.91-.02,1.87.28,2.41.98.45.58.5,1.07.05,1.31-1.06.56-4.58.27-4.76-.45-.27-1.11.97-1.81,2.3-1.83h0Zm53.33,1.43c4.3.02,9.3.97,13.21,2.63,3.4,1.44,8.88,5.4,11.82,10.23,0,0-.7-.01-1.15.04-6.57,1.08-8.89,9.28-3.35,13.14,1.74,1.09,3.14.97,3.14.97,1.41-.12-6.25,14.55-9.29,23.69-9.43-.39-16.55,1.06-25.77-2.1-.99-1.64-.75-5.27-.03-7.15.66-1.7,1.53-3.02,1.11-4.98-.73-3.41-3.85-7.85-4.89-10.67-.91-2.15-.85-2.95.74-4.19,1.88-1.45,2.34-1.75,2.85-2.49.48-.68.27-.84.28-2.38.01-1.87-.03-1.58,1.51-1.85.54-.1,1.81-.5,2.78-1.01,2.01-1.06,3.42-1.02,4.6-.36.51.14.47-.39.68-1.1.09-.31.31-.81.29-.96-.04-.32-.72-.23-1.47-.12-3.01.42-5.38.51-6.6.06-1.06-.39-1.06-1.11-.44-2.28.55-1.05.94-1.03.71-3.22-.28-2.75.1-3.33,1.38-4.23,1.6-1.13,4.51-1.65,7.86-1.64h0Zm15.55,2.42h13.78c-1.85,3.03-2.59,5.54-3.8,8.92-4.27-5.68-7.06-7.11-9.98-8.92Zm-11.59,9.84c-1.67.05-3.76.85-6.39,2.35-1.78,1.02-3.24,1.66-5.14,1.31-1.08-.2-1.22-.05-1.36.31-.64,1.58,1.73,3.27,4.12,2.16.69-.29,6.02-3.05,6.32-3.29.32-.26,2.53-.91,3.11-.9,1.76.02,2.85,1.41,2.63,3-.19,1.43-1.67,2.04-2.6,1.56-.95-.49-.86-1.23-1.28-2.09-.84,1.9.28,3.35,2.05,3.54,2.14-.04,4.08-2.56,2.78-5.14-.99-1.96-2.34-2.87-4.24-2.82h0Zm-10.84,7.37c-.2,0-.41.02-.63.06-1.73.33-2.86,1-4.73,1.16-1.54.34-1.43,1.57-.46,2.21.74.49,1.67.19,4.37-1.52,2.65-1.68,4.92,1.82,2.8,3.62-1.34,1.13-.42,1.43.5.75,2.2-1.64,1.16-6.25-1.85-6.27h0Zm2.16,12.49c-.16.28-.07.75-.15,1.11-.06.29-.29.65-.25.85.04.17.6.35.68.51.35.65.12,2.3-.08,3.5-.1.57-.95.75-1.29,1.09-1.12,1.14-.84,1.48.35,1.04.83-.31.48-.88,2.54-.48,2.67.52,4.79-.21,6.89-1.37,2.33-1.29,3.18-2.01,3.27-1.86.16.25.03.39-1.63,1.77-4.17,3.46-7.27,4.27-9.61,2.97-.7-.48-1.26-.67-.73.35.07.11.64.55,1.03.73,2.4,1.08,5.42.17,9.25-2.86.84-.66,1.59-1.41,2.56-2.22,3.18-2.66,2.34-3.88-1.25-2.58-1.13.41-1.45-.03-2.98-.63-2.06-.8-2.73-.87-5.1-.92-2.06-.04-2.37.16-2.37-.19,0-.44,1.48-1.82,2.95-2.68,1.24-.72,1.57-1.54,1.58-1.54-2.15.38-4.47,1.84-5.67,3.4Zm4.69,2.16c.16-.07,3.6.22,4.53,1.01.38.39-.17.64-1.65,1.34-.84.4-1.61.73-1.72.73-.13.24-1.53-2.92-1.15-3.07Zm-1.31.33c.19-.01.37.18.44.34.35.72.61,1.46.74,2.16.03.21.18.52-.15.52-.26.04-.7.06-.86-.19-.34-.53-.71-2.32-.58-2.67.08-.2.27-.16.41-.16Zm12.79,5.81s-2.42,1.42-3.45,1.92c-5.29,2.54-11.06,3.67-14.96,2.19-1.54-.58-1.82-.38-1.26.67.39.73,1.16,1.59,2.33,1.91,3.73,1.02,9.73-.47,14.35-3.49,1.88-1.23,3-3.2,3-3.2Zm34.69,9.57s11.47,21.52,12.48,22.53l-85.04-.36,14.33-20.25c.13,1.14,34.56,5.86,58.23-1.92Z"/>
      <path id="uuid-078153db-f465-4dcb-82bb-a057f208b8db" data-name="path4035-6-4-6" class="uuid-63991f79-fff3-4ec1-b8e9-f45467ea1bc2" d="m75.24,320.72l13.73-20.26c20.31,3.86,38.59,1.82,58.6-1.75l13.33,22.46-85.67-.45Zm107.7-75.51l-.09-12.03,4.19,1.56c-1.46-5.59,2.22-11.44,5.57-11.67-10.7-8.06-1.81-16.68-1.99-16.87-11.7-6.03-5.83-15.29-6.64-16.12-14.25-3.69-8.69-15-9.77-13.83-8.3,2.49-12.87-4.45-13.01-10.1-7.18,4.07-18.28-1.69-14.8-8.17,0,0,3.8,1.8,4.48,1.44,5.86-4.26,5.4,1.85,6.62,3.18,4.37-.63,6.95,2.71,8.04,4.33,6.45,0,6.18-1.54,6.24,4.71,4.86,1.23,4.67,3.86,7.48,7.44,6.13.07,5.1,2.06,3.71,5.45,4.42,3.51,4.77,6.26,5.5,9.45,4.82,1.74,5.68,2.45,2.54,6.51,4.25,6.37,2.21,10.05,2.85,10.4,5.3,3.82,2.65,5.2.34,6.67.8,5.08,1.45,5.82-.42,10.99,6.09,4.32-.97,6.27-1.33,6.18l-.02,4.28-9.5,6.19Zm-147.55-31.36l-.12-14.9,51.66,33.34-6.53,10.23-45.01-28.67Zm68.62,21.94c14.35-26.65,12.19-23.84,7.82-53.39l35,.76c3.93,8.93,6.31,16.53,16.39,31.32-10.93,2.82-9.43,3.9-10.28,21.22l-48.92.09Zm29.93-6.72c-.36-.74-.56-1.24-.49-1.57.13-.43.46-.41.87-.18,1.49.72,2.97,1.34,4.07-.02.55-.71.41-1.73-.06-2.32-.84-1.71-3.48-.47-4.37-.41-.82.02-1.14-.67-.46-1.66.4-.43.66-.9.72-1.46.46-3.9-6.2-2.51-3.89,1.27,1.05,1.4.44,2.25-1.11,1.36-1.7-.98-4.06-.07-3.98,1.99.06,1.55,2.01,2.51,3.66,1.58.38-.22.68-.45.94-.57.76-.33,1.31-.06,1.06.8-.68,1.07-1.49,2.62-.81,3.63.67,1.48,2.99,1.34,3.78.42.55-.63.7-1.67.06-2.86h0Zm80.73-78.28l-51.76-33.51c3.2-4.14,5.1-7.49,6.88-10.82l44.93,28.87-.05,15.46Zm-80.92-11.33l5.3,27.05-36.13.51c-1.99-9.08-14.4-29.64-14.36-29.28l9.63-23.65,47.95-.06-12.39,25.43Zm-13.56-10.07c.92-.84.85-2.12-.16-3.56-.98-1.39-.54-2.4,1.02-1.46.87.58,2.25.7,3.18.41,1.18-.4,1.67-1.34,1.5-2.53-.21-1.44-1.81-1.83-3.51-1.21-.49.1-.79.51-1.22.7-.92.4-1.29-.7-.44-2.13.93-1.59-.04-3.29-1.75-3.44-1.83-.16-2.92,1.92-2.18,3.06,1.07,1.64.3,2.78-1.24,1.68-2.21-1.58-5.1.42-3.91,2.77.58,1.14,2.48,1.44,4.19.72,1.42-.6,1.85.09.98,1.55-1.77,3,1.14,5.63,3.54,3.43h0Zm-52.43-26.56l-.38,14.42c-5.4-3.3-4.6-3.34-4.8-3.29,1.59,4.33-.27,9.69-4.85,12.32,8.26,7.74,3.8,13.19,2.44,16.86,10.56,6.12,5.2,16.7,5.24,16.15,10.41.06,10.2,9.15,10.5,12.94,12.87-.81,11.14,9.46,12.84,10.35,6.24-2.79,13.53-1.83,15.46,6.54,1.25,4.75-3.34.17-5.34.37-7.11,4.43-5.74-2.33-6.15-3.27-5.89.56-6.68-2.25-9.27-4.24-6.36,1.22-5.84-.87-5.46-4.73-4.99-1.01-6.08-4.12-8.07-7.17-6.89.22-4.08-4.64-4.05-5.6-.84-.75-4.79-4.64-4.99-9.09-7.08-2-2.63-5.56-2.38-6.79-2.68-3.33-3.38-5.79-2.48-9.99-6.28-2.93-1.04-5.68-.59-7.34-2.05-5.47-.56-7.1.25-10.06-4.04-4.73-1.63-4.47,1.33-7.34.37-.52-.66-2.9-.6-4.29l11.34-6.76Zm36.29-53.43l-11.33-20.25h80.91s-8.8,12.19-12.22,18.32c-20.18-3.18-39.06-1.67-57.36,1.93Z"/>
      <path id="uuid-9328748d-ee76-4bfb-8145-0a84b8a7d443" data-name="path4039-1-1-4" class="uuid-09223dee-0bb5-48d6-bca4-eb6dc90a31ec" d="m47.58,307.57c-11.19-4.26-3.99-15.18-.73-19.46-2.3-3.55-3.37-4.8-5.72-8.33,2.07-3.13,4.5-5.52,6.06-8.24-6.22-6.97-10.33-17.52,1.69-20,13.47,3.37,5.52,15.24,1.85,19.83,1.29,2.6,3.54,5.1,5.77,8.37-2.07,2.57-4.25,4.98-6.07,7.93,5.28,6.39,8.91,14.7,2.24,19.12-1.77.91-3.12,1.17-5.09.78h0Zm59.81-107.4c-.19-.32-26.76,42.62-26.76,42.62l3.03,1.94,25.41-39.69c.38.29.76.64.68,1.12,0,0-20.93,34.07-24.42,39.51-.09.15,5.19,3.27,5.37,3.28,7.78-3.83,40.25-.51,61.8-1.83.08.07-.33,7.56-.33,7.56-7.2-9.67-10.67-3.67-19.66-4.03-2.36.72-5.05,9.3-5.58,11.46-4.29-.5-8.43,3.99-7.44,8.16,1.4,4.64,3.81,4.29,6.42,4.37-.24,5.25-9.53,19.1-9.57,25.92,9.82-.78,20.44-.95,30.57-4,0,0,3.8-10.93,8.6-18.13,1.58-2.75,2.34-6.89,1.7-9.5-.41-2.85.83-3.58,1.93-5.57.67-1.25,3.14-1.2,3.46-1.29,6.44-1.86,4.14-10.18,1.4-11.66-3.42-1.85-8.25,1.01-10.11-2.73-1.97-3.96-1.33-12.16-1.33-12.16l-48.63.23s13.74-26.08,13.39-26.28c-3.76-2.06-9.89-9.22-9.94-9.3Zm-32.53,23.74c.23-2.64.65-45.5-39.9-66.81l.22-5.64c.25-.29,36.89,16.52,43.17,60.18l11.3-17.7,4.16,1.63c-6.14,9.22-18.37,31.61-18.95,28.33h0Zm-24.62-15.44c1.67-4.95-1.07-2.32-3.57-2.53-1.71-.93-3.38-2.13-4.97-3.17,11.85-6.27,4.79-5.97-2.11-1.56-1.79-.97-4.05-3.09-4.2-2.91,13.37-8.59,8.36-8.77-.2-2.55.29-5.83.09-3.64.2-5.61,7.3-7.81.5-3.57,0-3.47-1.8-7.79,6.79-6.16,7.58-.27,1.51,1.12,4.48,2.51,5.36,7.34,4.12,2.62,3.69,4.8,3.5,7.94,1.61,1.59,5.78,4.95.92,8.06l-2.52-1.27Zm-15.38-35.55l.27-4.31c.56-1.76,31.83,20.53,29.58,49.17.37-.2-3.46-2-4.56-2.98.02-21.07-22.38-39.6-25.29-41.87Zm179.36,24.17c-20.87-9.55-40.68-32.45-41.72-62.22l-11.78,19.72-4.18-1.77c.39.32,9.32-16.23,18.51-27.68,2.59,37.57,17.34,55.04,39.68,67.73l-.51,4.22Zm-109.27-13.74c-20.22-2.51-49.17-30.84-40.43-68.12,10.97,5.93,16.96,15.18,22.12,20.3,3.23,3.78,15.1,23.25,15.69,31,14.7,4.18,43.09-.51,43.09-.51,23.86,5.32,48.81,31.04,39.8,67.58,0,0-6.34-4.16-11.64-9-16.1-15.55-21.21-28.33-26.92-42.42-20.62-1.87-39.94,1.83-41.71,1.16h0Zm109.47-31.04c.35,1.86.12,5.7.19,5.69-5.37,5.85-5.93,5.95.8,4.07-.83,5.6-4.98,6.53-7.45,4.62-.91-.7-.92-4.57-.92-4.57-4.09-1.02-5.49-2.25-4.91-6.64-4.71-.56-4.52-2.85-4.13-7.63-4.28-2.41-3.22-6.24-.68-7.88l2.12,1.46c-.68.61-.35,4.41,3.41,1.58,0,0,3,2.49,4.45,3.46-10.86,6.98-4.28,5.44,2.41.86,1.26.86,2.97,2.25,3.86,2.86-8.82,6.32-11.71,11.6.84,2.1Zm.53,23.73l-.36,5.03c-21.45-13.11-27.26-30.4-28.85-48.82,0,0,2.88,2.12,4.2,3,1.91,23.76,23.69,39.8,25.01,40.79h0Zm-117.52-62.34l51.44.33-13.64,26.06,7.2,8.5s17.87-27.82,26.85-42.39l-3.11-1.86-25.65,40.26-1.02-1.13,25.28-40.23c-1.52-.99-4.39-2.58-4.39-2.58,0,0-43.81.7-62.85.63.62-2.63.75-7.28.75-7.28,2.81,4.03,5.82,7.62,12.36,3.67,0,0,7.74.26,8.03-.11.95-1.53,2.63-6.34,4.58-11.78,5.67.16,7.27-3.79,7.54-6.08.62-5.44-5.72-6.99-6.2-6.24,1.33-8.13,11.14-24.92,9.43-25.5-2.22-1.47-24.22,2.86-30.62,3.64-.59-.23-3.72,9.98-7.02,14.34-3.59,4.75-4.87,9.84-3.03,14.64-1.9,5.28-5.53,4.74-8.46,6.23-3.31,3.59-2.4,9.08.76,11.2,2.2,1.48,5.58,1.4,9.02-1.39l2.74,17.07Zm102.22-36.87l-6.02-8.08,5.83-8.49c-2.3-3.65-6.1-9.23-5.42-13.66,1.49-8.77,13.33-7.49,14.36.91.56,3.9-2.28,8.67-5.17,12.74,1.9,3.47,2.73,4.04,5.5,8.01-1.65,2.9-5.65,8.58-5.65,8.58,2.5,4.2,5.98,8.83,5.72,13.1-.26,3.67-4.27,7.39-8,6.61-11.62-2.43-5.13-14.84-1.16-19.73Z"/>
      <g id="uuid-ce5d7150-23b7-464c-9770-aa1285f85f4a" data-name="g4049-4-4-2">
        <path id="uuid-2044a9bc-678f-4834-bd3a-00be97f80f60" data-name="path4033-2-3-3" class="uuid-340de1dd-43c4-4e0e-95bb-3c8f0f276fbd" d="m90.82,28.23c3.19,5.99,12.25,22.14,12.25,22.14,21.55-4.46,39.66-5.6,58.7-1.43l13.6-20.61-84.56-.1Zm2.81,1.21h3.9l7.64,15.71,13.18-2.63-2.25-13.04,3.73.02,1.89,12.54,19.37-.49,2.51-12.11,3.57.04-2.56,12.3,15.34,2.06,7.5-14.41h5.16l-11.41,17.79c-20.3-3.95-40.46-2.62-57.34,1.53l-10.22-19.32Zm7.35,0h11.37l2.73,10.6c-1.4.73-6.61,1.97-8.35,1.8-2.08-3.65-4.24-8.92-5.74-12.4h0Zm21.93,0h17.31l-1.48,9.03-14.51.46-1.31-9.49Zm27.43,0h13.34l-5.26,10.96-10.06-1.37,1.99-9.6Zm50.77,10.97c-5.06-.17-7.58,4.59-7.46,7.92.78,4.93,1.89,5.87,5.49,11.93l-5.8,8.52,6.18,8.06s-.96,1.13-1.53,1.93c-2.83,4-4.14,7.74-3.96,10.81.2,3.31,2.13,5.84,5.76,7.06,5.49,1.22,8.96-2.7,9.08-7.2.05-3.04-1.42-6.71-4.35-10.73-.79-1.09-1.18-1.94-1.18-1.94,0,0,4.09-5.82,5.64-8.49l-5.6-8.03c4.45-6.68,5.35-8.16,5.47-12.27-.2-4.07-3.16-7.54-7.72-7.57h0Zm.02.51c5.08.39,7.76,4.16,7.09,9.01-.69,4.62-4.86,8.92-5.52,10.41,2,3.25,5.78,7.88,5.78,7.88-1.6,2.91-5.74,8.55-5.74,8.55,0,0,.24.47.5.84,4.32,6.12,5.51,9.01,5.22,12.68-.23,2.89-2.52,5.47-5.37,6-4.52.83-8.22-2.37-8.68-6.7-.28-3.79,2.17-7.46,4.06-10.33.8-1.2,1.5-2.35,1.5-2.35l-6.15-8.07c1.88-2.97,4.24-5.88,5.98-8.39,0,0-.92-1.47-1.77-2.82-3.37-5.32-4.32-8.05-3.8-11,1.1-4.07,3.83-5.89,6.9-5.7h0Zm-.12,2.71c-1.88.05-3.67,1.43-4.39,3.43-1.03,3.75,2.92,9.43,4.72,10.95,3.37-3.87,5.52-8.21,4.27-11.25-.82-1.84-2.73-3.18-4.6-3.13Zm.46,1.21c3.4.07,4.67,4.1,2.05,8.69-.91,1.57-2.24,3.2-2.24,3.2,0,0-1.25-1.55-2-2.72-3.04-4.76-2.26-8.47,1.48-9.13.25-.03.48-.05.71-.04h0Zm-66.86,2.1c-9.12-.14-22.66,1.97-32.13,3.9-.91,5.61-3.72,11.23-6.8,15.69-2.96,4.83-4.03,9.03-3.04,11.91.93,2.7-1.6,6.72-4.38,6.97-3.45.31-5.65,2.72-5.61,6.14-.1,5.48,3.69,8.84,8.83,6.97.52-.06.86.27.86.27l-.3,31.36c-2.89.45-4.82,1.08-7.28,2.39-4.57-5.2-8.38-8.88-11.88-11.47-.1-6.98.19-14-.13-20.96-5.17,1.99-10.67,5.26-15.2,8.27-1.52,1.02-1.67,1.58-1.1,4.16.32,1.44.24,1.6-.95,1.89-2.45.6-3.22,4.5-1.15,5.82.97.62.98.65.35,2.07-.97,2.18-.93,6.36.07,8.1.57.99.53,1.32-.22,1.81-2.61,1.7-2.43,5.33.29,6.01.7.17.88.47.65,1.07-.85,2.2-.07,5.54,1.88,8.07,1.02,1.32,1.01,1.3.34,1.91-2.2,1.98-1.01,5.54,1.98,5.93,1.03.13,1.03.14,1.15.92.34,2.26.5,2.88,1,3.94.63,1.34,1.39,2.24,2.8,3.34,1.16.9,1.16.91.54,2.24-1.14,2.45.67,4.89,3.57,4.79q1.47-.05,1.58.47c.52,2.56,3.57,5.57,6.07,5.98,1.29.21,1.49.52,1.05,1.61-.7,1.75-.25,2.88,1.53,3.79,1.19.61,1.54.63,2.84.19,1.47-.51,1.49-.5,2.74,1.18,1.77,2.36,2.94,2.95,5.88,2.98,1.94.01,2.02.06,2.03,1.43.03,3.24,3.46,4.59,5.67,2.24q.8-.85,1.51-.33c3.11,2.28,5.87,2.87,5.61.74-.6-4.98-4.21-8.03-4.21-8.03l4.51,1.18c.2,5.26.39,11.61,1.49,16l-20.11,31.99-10.84-7.18,18.14-29.59-5.1-1.97c-3.91,6.14-6.78,11.09-10.42,16.75-3.62-26.54-22.16-49.84-44.59-59.65l.08,6.95c23.55,12.03,40.36,36.87,39.91,66.16-.09.11-1.97-1.01-4.51-2.7-1.34-.89-4.03-2.65-4.37-2.82,1.09-32.44-31.12-51.62-31.17-50.71,0,0-.2,4.19-.29,6.13,13.72,9.19,24.51,25.9,25.6,40.77.01.12-6.44-4.02-6.44-4.02,3.84-1.91,2.78-6.86.02-8.2-.87-.39-.92-.57-.49-1.74.88-2.4-.74-6.01-2.97-6.61-.98-.27-1.14-.52-1.19-1.89-.09-2.51-1.48-4.16-3.99-4.71-.69-.15-.7-.16-.74-1.02-.21-4.87-4.98-6.85-8.55-3.56-.4.37-.82,1.07-.82,1.07l-.03,5.28c1.22-.67,3.07-2.97,3.84-2.87.84.1.43.66-1.46,2.29-1.23,1.06-2.42,2.17-2.42,2.17l.08,6.95c2.04-1.32,4.08-2.81,5.98-4.14,1.64-1.15,2.49-1.52,2.69-1.19.23.37-.14.86-1.07,1.42-2.51,1.67-5.42,3.63-7.53,5.27v4.79s.39.59.39.59l.12,4.2-.37.09v5.28l49.63,31.81,25.1-39.92.41.42-25.24,39.68c2.39,1.59,4.87,3.21,7.4,4.5,1.53-.89,2.26-1.39,5.32-2.06,3.06-.68,54.58.07,54.58.07l.23,6.38c-1.82-6.27-7.69-7.57-12.3-4.76h-7.58c-.06.01-4.48,8.06-5.13,12.27-3.18-.43-7.42,2.67-7.64,5.81-.52,4.48,2.43,7.74,6.28,7.11-1.92,7.87-6.56,15.66-8.92,22.54-1.19,3.26-.79,3.84-.58,3.92,11.3-.16,21.7-1.26,32.43-4.71-1.61-2.63,2.67-9.1,4.9-13.81,3.19-5.66,4.1-7.83,4.42-10.5.23-2.5-.09-3.09-.5-5.06.33-1.7,2.93-4.69,2.98-4.61,3.56.52,6.36-1.96,6.76-5.21.62-6.04-4.47-9.1-9.09-7.84l-.04-30.77,3.55.13,3.9-1.93c6.27,5.35,10.36,10.82,17.12,14.94l-.11.27-5.02-3.44v20.16c5.82-3.02,11.23-5.81,16.46-10.03l-1.05-.91.04-2.88c4.91.39,5.38-5.85,1.35-6.6,0,0,.09-.5.48-1.3,1.24-2.54,1.39-4.93.49-7.56-.55-1.61-.53-2.01.13-2.01,2.98.02,2.71-5.27-.33-6.42-1.05-.4-.97-.07-.76-3.35.16-2.46-.44-4.13-2.26-6.29-.69-.82-.63-1.21.26-1.75,2.54-1.55.7-6.03-2.43-5.9q-1.22.05-1.33-1.17c-.28-3.21-2.07-6.27-4.42-7.55-.73-.4-.84-.72-.43-1.27,2-2.67.13-6.33-2.69-5.26-.55.21-1.12.42-1.28.46-.22.07-.4-.24-.83-1.46-1.17-3.3-2.22-4.33-5.96-5.91-.74-.31-.78-.53-.45-2.03.57-2.6-3.01-5.02-4.95-3.34-.79.68-.81.68-1.7-.46-1.77-2.03-4.65-3.45-7.21-3.72-1.22-.11-1.41-.2-1.31-.67.68-3.18-2.42-5.26-5-3.35-1.24.92-1.56.95-2.83.24-2.67-1.5-3.85-1.56-4.12-.2-.09,1.13.16,2.46.44,3.29.65,2.24,1.49,3.07,3.34,4.64,0,0-3.06-.85-3.84-1,.08-.08-.22-10.62-2.23-16.58l19.58-31.12,11.21,7.39-17.93,28.34,5.22,2.12s6.97-11.57,10.62-17.24c2.39,28.17,24.19,52.87,43.94,60.19-.07.03.06-4.05.15-6.03-20.83-9.16-40.65-34.77-39.4-65.5l8.37,5.35c2.43,24.63,13.17,39.07,31.07,51.27v-7.55c-12.33-9.12-22.58-21.02-25.29-40.07,0,0,4.18,2.64,6.05,3.89,0,0-.53.3-.8.53-2.24,1.86-1.56,5.68,1.39,7.84q.48.35.03,1.55c-.89,2.38.49,5.26,2.82,5.87,1.34.35,1.33.33,1.35,1.86.05,2.97,1.24,4.34,4.42,5.05.43.1.45.14.44,1.47-.02,3.28,3.14,5.49,5.88,4.11.86-.43,3.57-2.69,3.57-2.69v-5.28s-1.23,1-2.11,1.82c-1.55,1.44-2.04,1.62-2.03.74,0-.64.72-1.48,2.2-2.58.77-.57,1.94-1.8,1.94-1.8v-6.15s-.69-1.1-.65-2.41c.02-.71.22-1.8.22-1.8l.74.02v-7.12s-.91-.7-.91-.7l.04-4.72-48.98-31.66-25.51,40.53-.64-.75,25.54-40.27-7.15-4.49c-.15.04-2.81,1.59-5.69,2.16s-26.42-.43-54.07-.08c-.01-2,.01-3.18,0-5.48,0,0,.45.25.61.62,2.22,4.71,7.83,4.78,11.21,2.71.75-.41.89-.42,4.43-.39,3.8.03,4.3.02,4.3.02,1.86-4.89,3.18-8.98,4.39-12.15,9.46.79,10.02-12.08,2.24-12.93-1.35,0-.42-3.59,2.42-9.4,2.95-6.01,3.36-6.93,4.88-10.96,1-2.63,1.47-4.52,1.59-5.67h0Zm-2.34,1.62c.4-.01.81.05,1.22.12.7.59-1.06,4.93-4.23,11.5-2.62,5.42-3.81,8.13-4.35,10.1-.24.88-.27,1.79-.65,2.61-1.54.78-2.73,1.85-3.32,2.82,0,0,.17-1.45.29-2.2.39-2.57,1.41-5.34,3.77-10.16,1.87-3.84,3.69-7.95,5.11-12.14.32-.98.47-1.97,1-2.34.38-.21.77-.3,1.17-.31Zm-3.84.17c.47-.03.92,0,1.24.21.49.34-1.82,6.28-5.8,14.54-4.97,10.3-5.24,17.52-.76,19.28,3.53,1.39,7.08-2.49,4.9-5.32-1.05-1.36-3.3-1.48-4.08-.07-.43.77.16,1.66.92.58,1.1-1.57,3.3.24,2.77,2.1-.36,1.28-2.15,2.3-3.26,2.08-4.89-.97-3.97-7.86,1.1-8.24,7.81.68,6.37,11.48-1.17,11.67-3.16,0-6.11-2.61-5.81-5.02.42-2.21.48-3.99-.27-5.74-.24-.56-.53-1.12-.52-1.82.04-1.96,1.66-5,5.26-12.5,1.29-2.69,2.87-7.35,3.65-10.3.28-.86.14-1.1.47-1.22.4-.09.89-.19,1.36-.23Zm-4.02.29c.36-.02.73,0,1.1.02.74.03-.96,5.45-3.1,10.06-1.63,3.53-3.85,8.07-5.5,12.27-.53.89-.88.96-1.96.38-1.19-.64-.84-1.65,1.98-7.24,2.12-4.25,4.16-9.05,5.59-13.89.13-.58.33-1.08.81-1.36.37-.16.73-.22,1.09-.24h0Zm-4.04.45c.41-.03.82.02,1.18.18.39.52-2.19,7.82-6.18,16.06-.85,1.75-1.43,3.35-2.28,5.13-.41.41-2,.62-2.79.78-.82-.11-.04-1.64,2.29-6.36,1.9-3.84,2.44-4.93,3.44-7.27.73-1.71,1.79-4.65,2.78-7.4.08-.22.16-.72.37-.83.37-.16.78-.27,1.19-.3h0Zm-3.89.39c.63-.05,1.2,0,1.17.25-1.22,5.16-3.7,10.42-5.8,14.61-1.28,2.54-2.45,4.96-2.61,5.39-.16.43-.58,1.56-.94,2.52-2.3,4.92.17,8.8,3.21,9.07,4.74.39,5.19-6.25,1.85-6.89-1.26-.21-2.65.48-2.66,1.93-.09.76.84,1.64.83.55-.05-1.98,2.72-1.89,3.06-.21.66,3.28-3.06,4.88-5.28,2.31-.91-1.06-.91-2.27-.74-3.35.46-2.93,3.84-5.05,6.98-2.84,4.29,3.03,2.81,9.72-2.73,10.81-1.89.49-4.28-.14-5.78-1.67-.95-.98-1.58-2.42-1.82-4.21-.13-1-.19-2.17-.03-3.26.45-3.44,2.96-8.45,5.16-12.71,1.7-3.53,3.03-8.18,4.58-11.93.22-.16.91-.31,1.55-.36h0Zm-3.56.64c.18,0,.36.03.54.08.25.08-1.04,4.15-2.89,8.55-2.03,4.46-4.67,9.57-6.17,13.96-.47,1.08-.81,1.05-2.15-.2-.71-.66-.31-1.64,2.17-6.7,3.82-7.78,5.23-11.1,5.8-12.95.27-.87.49-1.94,1.06-2.28.55-.26,1.09-.47,1.64-.46h0Zm-4.29.82c.41-.02.8.03,1.02.24-.4,1.31-1.73,5.19-3.99,9.79-1.42,2.9-2.8,6.12-4.2,9.12-.78,1.85-.8,1.85-2.14,2.12-2.25.47-2.25.44-.26-3.58,2.56-5.09,5.35-10.11,7.11-15.6.22-.71.53-1.38.89-1.74.14-.08.89-.31,1.57-.34Zm-3.89.73c.4-.01.76.06.93.28.1.91-2.37,6.76-3.89,9.46-.46.83-.92,1.91-1.45,2.87-1.93,3.07-4.26,8.98-4.86,11.44-.95,3.9,3.5,6.84,5.82,4.01,1.47-1.71-.06-4.8-2.17-3.94-.74.3-.44.63.57.71,1.66.14,1.79,2.7.03,3.27-1.96.6-3.41-1.1-3.4-2.84.01-3.57,3.92-4.88,6.37-2.93,2.44,2.03,2.83,6.85-.87,8.72-3.6,1.82-8.04-.65-8.93-4.97-.68-3.3.06-6.32,3.23-11.4,1.83-2.93,4.66-7.98,6.11-12.41.28-.75.54-1.37.8-1.69.24-.28,1.03-.55,1.7-.58h0Zm96.57,10.38l-4.84,6.15c1.4,2.01,4.71,5.98,4.71,5.98l4.59-5.92-4.46-6.21Zm.04,3.44l2,2.59-2.29,2.7-2.15-2.52,2.44-2.77Zm-.2,1.35l-.83,1.29.83,1.29.83-1.29-.83-1.29Zm.39,12.01s-5.85,6.4-4.51,11.15c1.2,4.23,8.26,4.98,9.12-.93.45-3.08-2.34-7.2-4.62-10.22h0Zm0,1.26s1.68,2.43,2.86,4.59c1.33,2.05,1.75,7.62-2.96,7.68-2.56.03-5.06-3.17-3.03-7.28.55-1.25,3.13-4.99,3.13-4.99Zm-96.44,1c.25.04.57.74.75,1.19.28.69-.52,2.69-1.36,3.68-.16.17-1.23.26-2.83,1.07,0-.75.45-2.39.75-3.11.9-.89,1.6-2.07,2.58-2.81.03-.02.07-.03.11-.03h0Zm-11.76.39c.72.81,1.43,1.52,1.4,2.02-.04.74-.91,1.65-1.57,2.29-.82.81-2.46.33-2.46-.72,0-.39,2.35-3.59,2.63-3.59Zm24.76,1.06c.26.59.99,1.73,1.52,2.08-1.02,5.48-4.82,12.3-4.69,12.05,0,0-2.31.41-3.29-.09,2.54-3.52,4.24-7.99,5.39-11.66.49-1.58.72-2.38,1.07-2.38h0Zm-2.14.77c.39-.02.54.29.21,1.14-1.49,6.05-4.84,12.42-7.48,13.58-3.46,1.52-6.9.26-8.38-2.34-1.6-2.82-1.32-7.26,4.01-8.23,3.14-.32,6.35,2.15,4.67,6.12-1.86,2.95-6.87,1.3-5.4-2.5,1.11-1.39,3.43-.18,2.67,1.39-.38.8-.01,1.29.56.74,1.83-1.77-1.18-4.82-3.2-3.3-3.3,2.49.78,7.95,4.62,5.61,1.17-.71,3.29-4.72,4.08-7.64.34-1.26.65-2.45,1.46-3.21.77-.73,1.66-1.31,2.16-1.34Zm-8.72.25c.25.02.49.18.68.24.39.19.84.53.79.98-.06.52-.36,1.64-.95,2.18-.36-.12-1.35-.52-2.02-.7-.42-.11.14-1.02.4-1.53.36-.7.58-1.05.85-1.15.08-.03.17-.03.25-.03Zm-11.03.21c.66-.06,1.34.37,1.9.6.1.75-.86,2.36-2.42,4.26q-1.28,1.56-2.12-.15c-.55-1.12-.57-1.09,1.01-3.05.85-1.05,1.24-1.63,1.63-1.67Zm5.04.54c.02.4-.18,1.29-.35,1.8-1.77,5.27-5.9,10.5-9.3,11.79-4.45,1.45-8.52-.89-8.62-6.28.11-6.36,7.69-8.12,9.98-2.32,1.03,2.62-1.78,6.55-4.22,5.89-2.46-.66-3.48-4.49-1.46-5.44,1.33-.62,2.7.42,2.41,1.82-.1.49-.07.56.21.5,1.26-.24.6-2.77-.89-3.4-2.82-1.19-4.94,2.6-3.04,5.42,2.27,3.38,5.85,2.73,7.91-1.44.35-.71,1.02-1.73,1.48-2.26,1.25-1.44,1.65-2.01,2.75-3.92.61-1.05.93-1.72,1.24-2.06.49-.03.83.1,1.91-.12Zm9.98.28c.53,0,.95.35.93,1.09-.01.62-.89,3.22-1.31,3.85-.16.24-.53,1.08-.58.89-.52-1.73-1.45-2.27-1.58-2.73-.15-.53.32-1.05.53-1.53.44-1.02,1.33-1.58,2.02-1.58h0Zm9.2.58c.74.22,1.52.65,2.25,1.01.22,0-3.47,10.64-3.84,10.67l-2.97-.13c2.03-3.4,4.6-11.48,4.56-11.55Zm40.09,15.45l3.78,2.25-24.92,39.55-3.62-2.77,24.76-39.03Zm-62.16.82c23.27.09,55.32.04,55.32.04l-1.35,2.56s-35.01-.34-53.97-.31v-2.3Zm-31.42,1.62l-.05,13c-2.41-2.11-9.7-6.73-9.73-6.62,0,0,6.28-4.19,9.78-6.38h0Zm99.64,1.29l2.34,1.48-26.18,41.62-1.46-2.85,25.3-40.25Zm-68.22.58h3.64v4.11h-3.64v-4.11Zm8.35,0h4.42v4.11h-4.42v-4.11Zm9.66.04h4.55v4.11h-4.55v-4.11Zm9.49.02h4.6v4.11h-4.6v-4.11Zm9.56.03h4.54v4.11h-4.54v-4.11Zm9.56.09h4.64v2.9l-.7,1.21h-3.94v-4.11Zm-44.76,1.05c-.45,0-.81.36-.81.81h0c0,.45.36.81.81.81.45,0,.81-.36.81-.8h0c0-.45-.36-.81-.8-.81h0Zm8.74,0c-.45,0-.81.36-.81.81h0c0,.45.36.81.81.81.44,0,.81-.36.81-.81,0-.45-.36-.81-.8-.81h0Zm9.67,0c-.44,0-.81.36-.81.81h0c0,.45.36.81.81.81.44,0,.81-.36.81-.81,0-.45-.36-.81-.8-.81h0Zm9.63,0c-.44,0-.81.36-.81.81h0c0,.45.36.81.81.81.44,0,.8-.36.81-.81,0-.45-.36-.81-.8-.81h0Zm9.46,0c-.45,0-.81.36-.81.81h0c0,.45.36.81.81.81.45,0,.81-.36.81-.8h0c0-.45-.36-.81-.8-.81h0Zm9.62,0c-.45,0-.81.36-.81.81h0c0,.45.36.81.81.81.44,0,.81-.36.81-.81,0-.45-.36-.81-.8-.81h0Zm22.66.29l44.4,28.7-.03,3.96-46.22-29.84,1.85-2.82Zm-2.91,3.36l.38.27-1.88,2.88-.39-.22,1.89-2.93Zm-68.59.42h49.84l-1.5,2.52-48.34-.07v-2.45Zm-40.92,1.29c.34-.02.99.27,2.01.85,2.45,1.37,3.99,4.27,2.94,5.32-.94.93-3.15-1.06-4.52-3.91-.73-1.51-.91-2.22-.42-2.25Zm88.19,2.48l-16.08,25.67c-3.64-4.98-7.71-9.27-16.61-6.36-4.64-3.58-9.54-4.14-14.76-1.09l.06-18.13,47.39-.09Zm-82.77.01l1.25,1.08c-.37.71-.54,1.73-.78,2.64-.02-1.25-.13-2.5-.48-3.73h0Zm101.94.27l49.54,32.56v3.02l-51.27-33,1.73-2.58Zm-108.48.77c.61.03,1.19.33,1.71.8.87.79.44,2.55-.61,3.25-2.09,1.4-4.67-1.37-2.95-3.18.61-.64,1.24-.9,1.85-.87Zm8.17.36l2.7,2.16c-4.7,26.75,8.72,53.76,37.61,61.85l.33,3.43c.05.16-12.27-3.66-17.66-7.68-7.36-4.98-13.59-11.98-17.87-20.13-2.93-5.25-4.53-11.04-5.57-15.72-1.23-8.02-1.19-15.97.46-23.91Zm-3.07,3.63c1.04.04,1.15.79.32,2.22-1.07,1.84-2.68,3.13-5.28,4.22-1.43.6-1.81.33-1.64-1.2.25-2.3,1.85-3.98,4.62-4.87.66-.18,1.34-.38,1.99-.38h0Zm7.96.29c.42.36.56.47,1.08.91-.89.3-1.53,1.14-1.53,2.13,0,1.25,1.01,2.26,2.26,2.26,1.12,0,2.04-.81,2.22-1.87.4.35.79.67,1.08.93-.52,1.31-1.8,2.24-3.3,2.24-1.96,0-3.55-1.59-3.55-3.55,0-1.3.7-2.42,1.74-3.04Zm1.81,1.78c.12,0,.24.02.35.05.28.24.51.44.78.67.08.16.13.35.13.54,0,.7-.57,1.26-1.26,1.26-.7,0-1.27-.57-1.27-1.26s.57-1.26,1.27-1.26Zm-8.53.82c-.29,3.45-.2,7.06-.09,10.67-.67-2.86-2.15-5-4.63-6.47,1.71-1.18,3.5-2.62,4.72-4.2h0Zm13.02,2.71l2.4,2.07c-2.07,28.32,22.78,39.07,23.44,38.59l1.05,3.2c-17.15-5.83-29.01-23.54-26.89-43.87Zm98.79,1.15c.22.03.35.43.37,1.45,0,9.18,2.85,46.93,39.22,65.29l-.13,3.57c-19.47-7.55-41.65-35.38-41.37-62.06-5,7.65-7.81,12.76-12.1,19.66l-3.42-1.62c5.62-8.36,10.96-17.3,16.59-25.51.32-.46.61-.8.83-.77h0Zm-118.69,1.06c.63-.04,1.52.26,2.65,1.02,1.78,1.19,3.78,4.88,3.09,5.7-.62.74-3.26-.14-4.57-1.53-2.6-2.75-2.77-5.09-1.17-5.19Zm15.18.37c1.96,0,3.55,1.58,3.55,3.54s-1.59,3.55-3.55,3.55-3.55-1.59-3.55-3.55c0-1.96,1.59-3.54,3.55-3.54Zm7.95.34l2.32,2.71c.45,23.77,19.23,31.1,19.06,31.15l.57,2.55c-1.05.15-23.23-9.94-21.94-36.42Zm-7.95.95c-1.25,0-2.26,1.01-2.26,2.26s1.01,2.26,2.26,2.26,2.26-1.01,2.26-2.26-1.01-2.26-2.26-2.26Zm0,.99c.7,0,1.27.57,1.27,1.26s-.57,1.26-1.27,1.26-1.26-.57-1.26-1.26.57-1.26,1.26-1.26Zm12,2.15c.29,0,1.63,1.94,1.63,1.94,0,0-1.47.51-2.11-.13-.63-.64-.29-1.82.48-1.82Zm102.83.88l3.48,2.38c1.62,16.03,10.82,30.66,24.69,40.81l-.09,3.97c-16.89-11.4-26.27-26.89-28.08-47.15h0Zm-130.21.27c2.13,0,3.03,3.3.75,4.24-1.43.59-2.99-.26-3.14-1.72-.11-1.02.66-2.1,1.69-2.42.25-.08.47-.1.7-.1h0Zm28.87,2.14c.56,0,1.17.32,1.74.97,1.53,1.72,1.51,2.22-.1,2.87-2.26.92-4.15-.36-3.39-2.3.4-1.02,1.03-1.54,1.75-1.54h0Zm-23.19.08c.18,0,.36.02.51.08,1.67.65-1.95,7.27-4.34,7.94-1.52.43-1.84-.17-1.34-2.49.55-2.58,3.39-5.5,5.17-5.54Zm10.65.15c1.96,0,3.55,1.58,3.55,3.54s-1.59,3.55-3.55,3.55-3.55-1.59-3.55-3.55,1.59-3.54,3.55-3.54Zm0,1.29c-1.25,0-2.26,1.01-2.26,2.26,0,1.25,1.01,2.26,2.26,2.26s2.26-1.01,2.26-2.26-1.01-2.26-2.26-2.26Zm-8.87.19c.32,3.28.85,6.31,2.31,10.35-1.37-2.18-3.32-3.27-5.19-4.51,1.31-1.95,2.83-3.9,2.88-5.85Zm8.87.8c.7,0,1.27.57,1.27,1.26s-.57,1.26-1.27,1.26-1.26-.57-1.26-1.26.57-1.26,1.26-1.26Zm20.09.39c3.7-.08,6.32,2.97,6.16,5.88.11,3.39.23,5.56-.05,9.77l-3.01-5.5c-.04-1.56.22-2.74.1-4.29-.34-4.17-4.43-3.59-4.62-3.18l-1.29-2.1c.95-.39,1.86-.58,2.71-.59h0Zm13.04.42c3.47,0,5.48,1.95,5.58,5.42.2,6.65-.15,21.83-.15,21.83h-7.5s-4.1-10.14-4.1-10.14c0,0-.16-.98-.13-1.68.26-3.25.1-6.87.21-9.81.43-3.11,3-5.61,6.09-5.62h0Zm-17.37,1.05c.48,0,.93.14,1.27.48,1.74,1.76,1.73,2.91-.03,3.71-2.33,1.05-3.55.85-4.34-.71-.78-1.53,1.38-3.46,3.1-3.48h0Zm109.41.48l1.91,1.23s-.4.63-.62,1c-1.08,1.86.76,2.95,3.3,1.96.46-.18.85-.43.85-.43l1.57,1.07s-1.13.61-2.37,1.21c-3.17,1.55-5.57.88-6.19-1.84-.42-1.87.17-2.85,1.55-4.2h0Zm-80.5.22c2.9-.1,5.73,2.17,6.4,5.21.28,1.43-.08,20.29-.08,20.29h-11.52s.2-19.79.2-19.79c-.08-1.25,0-2.49.67-3.38,1.27-1.58,2.81-2.28,4.33-2.33h0Zm-11.97.87c-2.33.11-3.65,3.87-1.25,5.65,1,.74,1.02.88.49,3.39-.61,2.86.02,6.78,1.45,8.98,1.1,1.83.87.89.31-.74-.72-3.05-.37-5.29,1.4-8.84,1.58-2.99,3.1-7.58-1.91-8.41-.16-.03-.32-.04-.48-.03h0Zm95.65.86l1.04.7c-.63.85-1.4.81-1.88.51-.42-.51.84-1.21.84-1.21Zm-83.02,1.46c-2.5-.08-4.15,4.55-.95,5.67.73.47.85,1.08.4,1.95-.61,1.17-1.21,3.93-1.12,5.09.14,1.66.56,3.83.9,4.58.84,2.07.67,1.25.45-1.15-.08-2.67.46-4.61,2.01-7.16,1.85-3.06,4.4-8.05-1.45-8.96-.08-.01-.16-.02-.25-.02h0Zm-43.05.01c1.96,0,3.55,1.58,3.55,3.54s-1.59,3.55-3.55,3.55-3.55-1.59-3.55-3.55,1.59-3.54,3.55-3.54Zm16.44.39c.63-.03,1.09.38,1.65,1.21,1.53,2.28,1.36,2.75-1.6,4.38-3.13,1.72-5.23-2.61-2.23-4.61.91-.61,1.55-.94,2.18-.97Zm-32.48.14c3.3.03,8.46,4.74,5.94,5.43-.36.1-.81.16-1,.15-4.15-.25-8.9-5.62-4.94-5.58h0Zm16.04.76c-1.25,0-2.26,1.01-2.26,2.26s1.01,2.26,2.26,2.26,2.26-1.01,2.26-2.26-1.01-2.26-2.26-2.26Zm130.79.66l1.65,1.12s-1.01.46-2.19,1.09c-3.22,1.72-4.16,2.98-3.04,4.1.4.4.87.58,1.71.26,2.23-.87,4.32-2.39,6.4-3.6l1.24.85c-.03-.06-4.92,3.48-7.6,4.96-4.2,2.15-6.59-2.25-4.26-5.19,1.8-1.79,3.73-2.38,6.1-3.6Zm-130.79.33c.7,0,1.26.57,1.26,1.26s-.57,1.26-1.26,1.26-1.27-.57-1.27-1.26.57-1.26,1.27-1.26Zm133.37,1.18l.9.61s-.1.04-2.85,1.62c-2.99,1.72-3.12,1.75-3.29,1.48-.15-.08.06-.78.98-1.4,1.61-1.08,4.46-2.4,4.26-2.31Zm-77.85.09c2.04-.04,4.12.93,5.3,3,.6,1.57.66,3.03.65,4.68l-.05,11.08h-11.61s-.54-7.55,0-13.83c.53-3.16,3.08-4.87,5.71-4.92Zm-36.05,1.64c.74-.05,1.28.67,1.98,2.24.69,1.55.17,2.43-2.01,3.37-.28.12-.59.21-.7.2-2.2-.21-3.11-2.75-1.52-4.29.98-.95,1.67-1.47,2.25-1.51Zm117.97,1.13l1.01.63s-.52.47-4.27,3.2c-3.03,2.21-3.46,2.8-2.83,4.04.51,1,1.62.87,3.15-.31,2.12-1.63,5.51-4.39,5.51-4.39v1.89c-2.2,1.76-4.8,4.63-6.91,5.78-4.07,2-6.99-3.36-3.27-6.07,3.21-2.34,7.6-4.77,7.6-4.77Zm-81.48,0c-3.03-.03-4.16,4.47-.9,5.43.94.5.86.76.23,3-.38,1.36-.5,3.03-.29,4.09.24,1.36.55,1.32.42-.13,0-.8.82-2.92,1.64-4.25,3.03-4.21,2.23-8.1-1.1-8.14h0Zm-70.69.06c2,.01,3.12,2.8,1.39,4-1.23.85-3.8-.19-3.8-1.53.01-1.15.91-2.24,2-2.43.14-.03.27-.04.41-.04h0Zm5.76.23c.63,0,.99.92.99,2.75-.01,2.62-.94,4.9-2.54,6.23-2.32,1.93-2.84-3.33-.67-6.81.9-1.45,1.67-2.17,2.22-2.17h0Zm12.51.81c1.96,0,3.55,1.58,3.55,3.54s-1.59,3.55-3.55,3.55-3.55-1.59-3.55-3.55,1.59-3.54,3.55-3.54Zm135.48.11c.32.22.66.47.66.49-2.46,1.88-3.48,2.88-5.95,4.71-.9.6-1.66.45-1.23-.25,2.14-1.74,4.14-3.42,6.52-4.95Zm-135.48,1.17c-1.25,0-2.26,1.01-2.26,2.26s1.01,2.26,2.26,2.26,2.26-1.01,2.26-2.26-1.01-2.26-2.26-2.26Zm-42.46.06c24.01,12.13,38.99,34.82,42.68,60.67l11.67-18.49,3.15,1.19-17,27.68-.74-.23c-.07-27.04-13.56-52.62-39.82-66.66l.05-4.16Zm42.46.93c.7,0,1.26.57,1.26,1.26s-.57,1.26-1.26,1.26-1.26-.57-1.26-1.26.57-1.26,1.26-1.26Zm-9.91.15c1.05,2.32,2.33,4.75,4.3,7.54-2-1.88-4.19-1.8-6.36-2.08l2.06-5.45Zm28.55.5c.37-.02.74.14,1.04.54.98,1.35,1.16,2.6.48,3.27-.94.92-2.43.56-3.1-.76-.7-1.37.46-3,1.58-3.06Zm117.82,1.99v2.1c-1.35,1.5-3.28,2.66-4.17,4.52-.74,1.54,1.15,2.36,2.76,1.14.56-.42,1.41-1.06,1.41-1.06v2.58c-1.36,1.16-2.77,2.29-4.63,1.92-1.08-.33-2.03-1.18-2.23-2.27-.78-3.25,2.38-4.95,4.83-7.13.79-.7,2.04-1.81,2.04-1.81h0Zm-131.47,1.71c.06,0,.12,0,.18,0,1.96,0,3.55,1.58,3.55,3.54s-1.59,3.55-3.55,3.55-3.55-1.59-3.55-3.55,1.49-3.45,3.37-3.54Zm64.08.72c1.13.04,3.05,1.81,3.36,2.14,1.12,1.19,1.97,4.63,1.31,5.29-1.46,1.5-5.7-3.5-5.45-6.77.11-.49.4-.67.78-.66Zm7.22.08c1.94,0,2.96,2.6,1.4,4.07-.61.58-1.99.99-2.78.45-2.16-1.5-.57-4.42,1.38-4.52Zm-55.75.19c.81,0,.96.73.78,1.16-.17.41-.81.44-1.32.23-.86-.35-.46-1.4.54-1.39Zm-15.36.31c-1.25,0-2.26,1.01-2.26,2.26s1.01,2.26,2.26,2.26,2.26-1.01,2.26-2.26-1.01-2.26-2.26-2.26Zm-16.9.99c4.28,0,8.8,3.37,4.87,4.04-2.92.5-4.81-.08-7.08-2.15-1.15-1.05-.74-1.61,1.36-1.85.28-.03.57-.04.85-.04Zm16.9,0c.7,0,1.26.57,1.26,1.26s-.57,1.26-1.26,1.26-1.27-.57-1.27-1.26.57-1.26,1.27-1.26Zm5.93,3.21c.06,0,.12,0,.19,0,1.96,0,3.55,1.58,3.55,3.54s-1.59,3.55-3.55,3.55-3.55-1.59-3.55-3.55,1.49-3.45,3.37-3.54Zm69.78.18c1.01-.02,1.9.17,2.42.64.63.57-.32,1.68-2.24,2.61-2.25,1.1-6.17.94-6.17-.24.01-1.57,3.4-2.98,5.99-3.02Zm-85.48.93c1.97.01,2.5,6.11.79,9.03-.89,1.52-2.08.5-2.93-2.49-.7-2.45.64-6.55,2.14-6.54Zm15.89.18c-1.25,0-2.26,1.01-2.26,2.26s1.01,2.26,2.26,2.26,2.26-1.01,2.26-2.26-1.01-2.26-2.26-2.26Zm73.43.43c.31-.03.52.06.81.19,2.15,1.05,3.71,5.97,2.59,8.17-1.18,2.31-3.83-2.14-3.81-6.39.01-1.39.1-1.95.41-1.98Zm-94.76.29c1.94-.01,3.35,2.73,1.53,4.11-.8.6-2.03.7-2.79.22-1.49-.95-1.41-3.25.14-4.05.37-.23.75-.27,1.12-.27Zm21.33.28c.7,0,1.26.57,1.26,1.26s-.57,1.26-1.26,1.26-1.26-.57-1.26-1.26.57-1.26,1.26-1.26Zm-13.27.42c1.06,1.58,5.37,5.75,5.97,6.11-1.9-.62-3.86-.35-5.82-.09.22-1.44.45-3.81-.15-6.02Zm69.22.36c29.2,6.83,47.02,37.78,39.97,66.81,0,0-2.46-1.37-2.85-2.03,1.03-5.02,1.67-12.98.37-20.98-2.19-13.57-13.2-33.49-37.33-40.32-.27-.88-.17-3.48-.17-3.48Zm15.73.21c.33,1.99.65,3.99,1.14,5.77-2.06-1.48-4.39-2.74-6.77-3.77,1.7-.36,3.26-.66,5.63-2Zm8.42.64c1.16-.03,2.34.8,2.32,2.23-.01.63-.68,1.76-1.2,2.03-1.94.99-3.93-.89-3.08-2.91.38-.9,1.17-1.33,1.96-1.35Zm-73.36.77c1.96,0,3.55,1.58,3.55,3.54s-1.59,3.55-3.55,3.55-3.55-1.59-3.55-3.55,1.59-3.54,3.55-3.54Zm0,1.29c-1.25,0-2.26,1.01-2.26,2.25s1.01,2.26,2.26,2.26,2.26-1.01,2.26-2.26-1.01-2.25-2.26-2.25Zm-60.42.34c14.51,8.55,27.52,26.74,28.49,47.31l-3.51-2.29c-1.51-13.86-8.61-28.93-25.09-41.29,0,0,.04-1.33.11-3.73Zm80.34,0h18.75v4.04l5.63-2.89v8.93l-5.63-3.4v3.9h-18.75v-4.1l-5.74,2.77.07-8.89,5.68,3.19v-3.55Zm-19.92.65c.7,0,1.26.57,1.26,1.26s-.57,1.27-1.26,1.27-1.26-.57-1.26-1.27.57-1.26,1.26-1.26Zm7.37.71s.05,0,.07,0l.22,1.29s-.07,0-.11,0c-1.25,0-2.26,1.01-2.26,2.26s1.01,2.26,2.26,2.26c.3,0,.59-.06.85-.16l.22,1.29c-.34.11-.7.16-1.07.16-1.96,0-3.55-1.59-3.55-3.55s1.49-3.44,3.37-3.54h0Zm42.55.45c1.96,0,3.55,1.58,3.55,3.54,0,1.68-1.18,3.08-2.75,3.45l-.21-1.27c.96-.26,1.67-1.13,1.67-2.18,0-1.25-1.01-2.26-2.26-2.26-.05,0-.1,0-.15,0l-.22-1.27c.13-.02.25-.01.37-.02h0Zm24.71,1.2c4.38.02,6.19,2.54,2.61,3.6-1.66.49-3.84.23-5.99-.72-1.79-.79.68-2.9,3.38-2.88Zm-91.53.24c1.06,0,2.08.16,2.84.52,1.83.87,1.79,1.46-.17,2.58-2.73,1.57-9.16-.02-7.22-1.79.91-.83,2.78-1.31,4.54-1.31Zm24.46.39c.1,0,.19.01.28.03l.39,2.3c-.2.12-.43.2-.68.2-.7,0-1.26-.57-1.26-1.26s.57-1.26,1.26-1.26h0Zm42.37.45c.69,0,1.25.57,1.25,1.26,0,.55-.35,1.01-.85,1.19l-.41-2.45Zm7.72.91c1.96,0,3.55,1.58,3.55,3.54s-1.59,3.55-3.55,3.55-3.55-1.59-3.55-3.55,1.59-3.54,3.55-3.54Zm-69.12.89c.21-.01.45.09.7.29,2.13,1.74,3.19,5.42,2.35,8.15-.8,2.61-4.11-2.03-4.09-5.72.01-1.7.41-2.69,1.04-2.72Zm91.93.31c.29,0,.61.23.91.74,1.32,2.2,1.26,6.74-.11,8.15-.78.8-1.07.65-1.88-.99-1.38-2.8-.34-7.91,1.07-7.9Zm-22.81.08c-1.25,0-2.26,1.01-2.26,2.26s1.01,2.26,2.26,2.26,2.26-1.01,2.26-2.26-1.01-2.26-2.26-2.26Zm-66.3.61c2.68,1.69,5.43,3.23,8.28,4.52-2.67-.63-4.65.27-6.68,1.47.39-2.23-.37-4.05-1.6-5.99h0Zm66.3.39c.7,0,1.27.57,1.27,1.26s-.57,1.26-1.27,1.26-1.26-.57-1.26-1.26c0-.7.57-1.26,1.26-1.26Zm14.26.09c2,.28,3.98.61,6.29.17-.43,1.96-.58,3.96-.39,6.01-1.72-2.23-3.65-4.32-5.91-6.18Zm-87.57.84c.4,0,.83.1,1.35.27,1.64.81,1.69,2.8.09,3.84-2.01,1.31-4.63-.99-3.38-2.96.7-.83,1.27-1.14,1.93-1.15h0Zm80.44,1.42c1.96,0,3.55,1.58,3.55,3.54s-1.59,3.55-3.55,3.55-3.55-1.59-3.55-3.55,1.59-3.54,3.55-3.54Zm20.77.59c.34,0,.7.07,1.05.26,1.26.66,1.53,2.34.53,3.31-1.11,1.08-2.63.9-3.38-.41-.85-1.5.32-3.13,1.8-3.15Zm-34.25.52c17.48,5.94,29.18,25.36,26.36,44.06l-2.18-2.06c1.66-10.6-4.16-30.84-23.63-39.15l-.55-2.85Zm13.48.17c-1.25,0-2.26,1.01-2.26,2.26,0,1.25,1.01,2.26,2.26,2.26s2.26-1.01,2.26-2.26-1.01-2.26-2.26-2.26Zm0,.99c.7,0,1.26.57,1.26,1.27s-.57,1.26-1.26,1.26-1.27-.57-1.27-1.26.57-1.27,1.27-1.27Zm-66.45.22c.89.08,2.4-.08,2.75.76.4,1.06-1.78,2.9-4.55,3.26-1.13.07-3.54.35-4.05-.46-.48-1.01,2.78-3.53,5.85-3.56Zm-55.48.62c2.36-.1,5.03,3.05,2.63,5.63-1.91,1.98-5.83,4.67-5.83,4.67v-1.73s3.72-3.26,3.9-4.49c.4-2.75-2.46-1.16-4.03.11l.25-2.97c.71-.78,1.98-1.17,3.08-1.22h0Zm60.35.74c1.75.07,5.81,6.32,4.78,7.6-.82,1.01-4.35-1.13-5.36-3.65-.53-1.32-.76-3.76.58-3.95Zm27.01.76s.18,14.55-.64,15.93c-3.28,5.94-10.37,2.85-10.97-1.6-.44-2.68-.18-14.3-.18-14.3l11.79-.03Zm1.04,0h11.32s-.05,20.48-.51,21.66c-.37.96-2.02,2.6-3.05,3.06-3.33,1.45-6.88-.61-7.76-4.49-.63-2.8-.01-20.22-.01-20.22h0Zm12.27,0h7.52s.26,1.09.56,1.98c.52,1.56,2.29,6.02,2.5,6.29.92,1.22.96,14.61.05,16.14-3.32,4.97-8.83,3.52-10.85-1.98-.51-1.76.22-22.43.22-22.43h0Zm8.76.51c13.48,6.4,23.8,19.96,22.51,37.36l-2.48-2.47c.9-12.01-8.25-27.02-18.93-31.49l-1.1-3.41Zm18.56.41c1.96,0,3.55,1.58,3.55,3.54s-1.59,3.55-3.55,3.55-3.55-1.59-3.55-3.55,1.59-3.54,3.55-3.54Zm13.3.36c1.32.02,2.93.47,4.13,1.47,1.44,1.19,1.64,2.12.53,2.47-2.16.66-4.75.02-6.38-1.58-1.51-1.49-.21-2.38,1.72-2.35Zm-13.3.93c-1.25,0-2.26,1.01-2.26,2.26s1.01,2.26,2.26,2.26,2.26-1.01,2.26-2.26-1.01-2.26-2.26-2.26Zm-71.03.28c1.89.01,2.76,2.67,1.31,4.01-.59.55-2.22.67-2.93.21-1.94-1.26-.8-4.24,1.61-4.23h0Zm25,.67c-.63,1.8-1.63,3.83-2.47,5.21-2.23,3.72-1.94,6.21.41,7.47,3.46,1.85,5.97-3.11,2.56-5.06-1.2-.68-1.2-.69-.76-2.53.54-2.3.63-5.04.25-5.09Zm46.03.03c.7,0,1.27.57,1.27,1.26s-.57,1.26-1.27,1.26c-.7,0-1.26-.57-1.26-1.26s.57-1.26,1.26-1.26Zm-33.89.73c-.16-.01-.04.92-.05,2.56-.02,2.65-.24,3.45-1.94,7.01-2.16,4.54-1.88,7.64.81,8.64,2.08.78,4.11-.81,4.12-3.24.01-1.16-.51-2.07-1.3-2.3-.72-.05-1.51-.38-1.46-.72.44-2.71,2.79-7.81-.19-11.94h0Zm44.78.36c1.75,1.1,3.55,2.15,6.16,2.28-1.11,2.66-1,4.61-1.18,6.73-1.11-2.86-2.84-6.02-4.98-9.01Zm-133.28.44c1.69.04,3.09,2.4,2.64,4-.39,1.39-.52,1.63-5.91,5.22-2.99,2-3.31,2.08-3.31,2.08l-1.6-1.08s1.36-.91,3.51-2.35c4.14-2.78,4.74-3.44,4.32-4.68-.46-1.35-2.01-1.07-4.46.82-3.62,2.79-4,2.97-4,2.97v-1.66c2.76-1.94,6.12-5.39,8.8-5.32h0Zm106.6.73c.57-.05.82.34.68.7-.07.17-.31.29-.62.28-.65,0-.63-.93-.06-.98h0Zm-6.65.43c.33,3.78.45,6.91-1.32,9.98-2.3,3.98-1.7,7.39.76,8.14,2.45.75,4.62-1,4.18-3.38-.13-.73-1.14-1.92-1.75-2.08-.75-.19-.84-.66-.41-2.16.83-2.9.55-6.57-.7-9.23-.12-.4-.58-1.29-.75-1.28Zm41.95.09c.42-.08.83.3,1.16,1.38.77,2.62-.88,6.99-1.89,7.55-1.07,1.06-1.74.05-1.98-2.7,0-1.67,1.44-6,2.71-6.24Zm-33.7,1.17c2.07.01,3.04,2.7,1.49,4.11-.86.79-1.41.43-2.31-1.51-.84-1.79-.58-2.62.82-2.61Zm19.25.55c1.96,0,3.55,1.58,3.55,3.54s-1.59,3.55-3.55,3.55-3.55-1.59-3.55-3.55,1.59-3.54,3.55-3.54Zm0,1.28c-1.25,0-2.26,1.01-2.26,2.26s1.01,2.26,2.26,2.26,2.26-1.01,2.26-2.26-1.01-2.26-2.26-2.26Zm0,.99c.7,0,1.27.57,1.27,1.26s-.57,1.26-1.27,1.26-1.26-.57-1.26-1.26.57-1.26,1.26-1.26Zm-15.23.93c.29-.01.57.04.84.16,1.87.9,1.66,3.49-.4,5.04-1.31.98-1.86.64-3.08-1.88-.66-1.37,1.07-3.25,2.64-3.31Zm-108.69.37c.26-.02.53-.02.82,0,1.99.22,3.15,2.78,2.67,4.48-1.06,2.63-4.66,3.52-7.4,4.62l-1.42-1.04s2-1.14,3.95-2.03c1.82-.84,2.12-1.17,1.98-2.23-.27-2.06-1.26-1.99-5.79.45-1.84.99-3.2,1.87-3.2,1.87l-1-.82c1.5-.99,2.4-1.53,4.04-2.65,2.07-1.08,3.51-2.49,5.36-2.66h0Zm142.52.34c.81.05,1.56.45,1.78,1.12.66,2-.69,3.76-2.71,2.97-1.1-.43-1.88-1.83-1.2-3.13.46-.71,1.32-1.01,2.13-.96h0Zm-38.86.42l3.19,5.73s.04,1.59.07,2.48c.12,3.72.92,4.95,3.1,4.59.16-.03.93-.25.93-.25l1.39,2.33s-1.5.65-1.89.74c-2.57.54-6.12-1.39-6.67-3.96-.53-2.49-.12-11.65-.12-11.65h0Zm-104.23,2.34c.55.07.2.85-.19,1.06-1.87.95-3.65,1.99-5.6,3.12l-1.31-.81c2.17-1.17,4.34-2.68,6.8-3.35.12-.02.22-.03.29-.01Zm127.94.75c1.96,0,3.55,1.58,3.55,3.54s-1.59,3.55-3.55,3.55-3.55-1.59-3.55-3.55,1.59-3.54,3.55-3.54Zm-15.02.48c.82-.02,1.5.33,1.94,1.06.95,1.57-.06,3.49-2.36,4.52-1.28.57-1.5.45-2.87-1.57-.93-1.37-.92-1.62.1-2.49,1.15-.98,2.25-1.49,3.18-1.52h0Zm-124.62.31l50.85,32.89-1.45,2.46-49.3-32.24-.1-3.12Zm151.1.42c3.09.06,7.12,3.63,5.69,5.05-.15.15-.45.26-.66.25-4.41-.26-9.28-5.38-5.04-5.3Zm-11.46.07c-1.25,0-2.26,1.01-2.26,2.26s1.01,2.26,2.26,2.26,2.26-1.01,2.26-2.26-1.01-2.26-2.26-2.26Zm-67.91.63l1.35,3.5-25.31,40.25-2.49-1.6,26.45-42.15Zm67.91.36c.7,0,1.27.57,1.27,1.26s-.57,1.26-1.27,1.26-1.26-.57-1.26-1.26.57-1.26,1.26-1.26Zm9.29.42c1.24,2.3,3.3,3.71,5.65,4.7-2.22,1.83-3.33,4.2-3.25,6.67-.56-3.72-1.05-7.42-2.41-11.38h0Zm-133.79,1.22c.54,0,1.03.12,1.42.38,4.74,3.25.39,6.46-.02,6.21l-1.61-1.02c.56-.92,1.82-2.17-.21-3.33-1.15-.5-2.43.1-3.55.88l-1.7-1.16s3.32-1.97,5.67-1.95h0Zm111.84,1.84c.18,0,.36,0,.53.04,2.68.52,2.49,3.35-.31,4.67-1.59.75-1.87.6-3.26-1.79-.65-1.12,1.32-2.86,3.04-2.92h0Zm-112.7,1.04c.28,0,.65.26.69.49.14.74-1.24,1.49-1.24,1.49l-1.59-1.05c.68-.37,1.39-.88,2.14-.93h0Zm142.62.68c.39-.03.67.15.79.62.54,2.2-1.91,6.29-4.17,6.96-1.32.39-1.7-.23-1.27-2.06.61-2.57,3.27-5.41,4.66-5.51Zm-82.02.17l4.12,2.99-24.91,39.01-4.07-2.54,24.87-39.46Zm67.24.32c1.96,0,3.55,1.58,3.55,3.54,0,1.96-1.59,3.55-3.55,3.55s-3.55-1.59-3.55-3.55,1.59-3.54,3.55-3.54Zm0,1.29c-1.25,0-2.26,1.01-2.26,2.26s1.01,2.26,2.26,2.26,2.26-1.01,2.26-2.26-1.01-2.26-2.26-2.26Zm0,.99c.7,0,1.26.57,1.26,1.26s-.57,1.26-1.26,1.26-1.27-.57-1.27-1.26.57-1.26,1.27-1.26Zm-56.77.13c2.68,3.02,5.69,9.77,16.21,6.59,3.58,2.92,8.53,4.58,14.63,1.34l.05,18.2-46.7.05,15.81-26.18Zm-85.28.46l45.98,30.23-1.44,2.54-44.59-28.47.05-4.3Zm129.21.04c2.35.57,2.62,2.92.43,3.82-1.17.48-1.41.36-2.53-1.28-.45-.65-.7-1.2-.63-1.36.89-.57,1.81-1.02,2.73-1.18Zm29.39,2.47c.82,0,1.64.44,2.02,1.3.58,1.29.24,2.36-.94,3.08-1.97,1.18-4.16-.99-3.14-3.11.41-.85,1.24-1.28,2.06-1.27h0Zm-28.79,2.47c1.08,0,1.99,1.04,1.47,1.67-.35.42-.8.3-1.37-.36-.68-.78-.71-1.31-.09-1.3h0Zm13.18.45c1.96,0,3.55,1.58,3.55,3.54s-1.59,3.55-3.55,3.55-3.55-1.59-3.55-3.55,1.59-3.54,3.55-3.54Zm10,.2c2.68.01,6.38,4.48,5.75,6.93-.21.8-1.71.37-3.49-1-2.41-1.85-3.97-5.94-2.26-5.93h0Zm-10,1.09c-1.25,0-2.26,1.01-2.26,2.26s1.01,2.26,2.26,2.26,2.26-1.01,2.26-2.26-1.01-2.26-2.26-2.26Zm8.6.46c.74,2.16,1.5,4.41,4.83,5.98-5.18,2.41-6.17,6.47-5.39,11.67l-1.21-.74c1.11-4.66,1.95-9.97,1.77-16.91Zm-8.6.53c.7,0,1.26.57,1.26,1.26s-.57,1.26-1.26,1.26-1.26-.57-1.26-1.26.57-1.26,1.26-1.26Zm-.66,5.69c1.96,0,3.55,1.58,3.55,3.54,0,1.24-.64,2.33-1.6,2.96l-1.15-.86c.85-.32,1.45-1.15,1.45-2.11,0-1.25-1.01-2.26-2.26-2.26s-2.16.92-2.25,2.08l-1.15-.86c.44-1.45,1.8-2.51,3.4-2.51h0Zm16.15.45c1.69,0-.94,4.69-3.35,5.96-1.84.97-3.52,1.05-3.51.16.01-2.33,4.28-6.14,6.86-6.12Zm-16.15,1.82c.7,0,1.26.57,1.26,1.26s-.57,1.26-1.26,1.26c-.69-.08-1.26-.62-1.27-1.26,0-.7.57-1.26,1.27-1.26Zm15.61,4.27c2.2.23,2.69,2.36,1.46,3.61-2.04,2.02-4.82-.06-3.49-2.6.36-.69,1.2-1.02,2.03-1.01Zm-6.53,1.9c2.84.09,5.06,3.95,4.55,5.95-1.89-.99-3.65-2.18-3.99-2.42-.4-.71-.42-1.85-.56-3.54Zm-3.88,2.19c3.03,2.03,6.01,3.84,8.91,5.35l-8.89,5.71-.02-11.06Zm-79.36,2.65l47.87.17v2.01s-49.18.03-49.18.03l1.31-2.21Zm-1.95,3.14h3.22v3.92h-4.42v-2.16l1.2-1.75Zm46,.09h3.87v3.92h-3.87v-3.92Zm-38,.03h4.41v3.92h-4.41v-3.92Zm9.17.03h4.76v3.92h-4.76v-3.92Zm9.74,0h4.58v3.92h-4.58v-3.92Zm9.78.07h4.36v3.92h-4.36v-3.92Zm-35.71,1.06c-.44,0-.81.36-.81.81,0,.45.36.81.8.81h0c.45,0,.81-.36.81-.81h0c0-.45-.36-.81-.81-.81Zm9.19,0c-.44,0-.8.36-.81.81,0,.45.36.81.8.81h0c.44,0,.81-.36.81-.81h0c0-.45-.36-.81-.81-.81Zm9.4,0c-.44,0-.81.36-.81.81,0,.45.36.81.8.81h0c.45,0,.81-.36.81-.81h0c0-.45-.36-.81-.81-.81Zm9.67,0c-.44,0-.81.36-.81.81,0,.45.36.81.8.81h0c.44,0,.81-.36.81-.81h0c0-.45-.36-.81-.81-.81Zm9.64,0c-.45,0-.81.36-.81.8h0c0,.45.36.81.8.81h0c.44,0,.81-.36.81-.81h0c0-.45-.36-.81-.81-.81Zm9.24,0c-.44,0-.81.36-.81.81,0,.45.36.81.8.81h0c.44,0,.81-.36.81-.8h0c0-.45-.36-.81-.81-.81h0Zm-51.29,3.77l53.1.13v2.35l-54.61-.13,1.52-2.35Zm45.3,4.95c5.41-.06,8.56,5.97,4.33,10.2-3.88,3.89-10.36-1.08-7.13-5.45,1.81-2.44,6.25-.47,5.14,2.13-.73,1.71-3.12.92-3.05-.94,0-.75-.55-.24-.61.56-.08,1,.95,2.12,2.15,2.12,3.14,0,3.61-4.15.58-5.67-2.7-1.36-5.54.38-6.2,3.82-.07.38-.52,1.32-.86,1.98-1,2-1.32,3.16-1.82,5.45-.23.29-.93.74-1.42.99-1.54.77-1.48.45-.9-2.06,2.17-5.97,3.08-12.52,9.78-13.12h0Zm15.99.38c3.34-.07,5.85,2.67,6.29,4.8,1.92,6.46-6.66,10.41-9.65,4.56-1.67-3.34,1.79-7.33,4.96-5.78,2.6,1.27,2.43,5.23-.22,5.21-1.44.07-2.32-1.23-1.52-2.26.41-.41.91-.09,1.11-.77.09-.29-.32-.51-1.3-.32-1.63.33-1.46,3.61.43,4.26,2.81.97,5.22-1.99,3.88-4.92-1.61-3.52-5.96-3.54-7.96.15-.29.54-.74,1.3-.99,1.64-2.97,4.03-3.21,4.63-4.09,6.87-.09.22-.24.39-.51.36-.82,0-1.62.18-2.17.39-.37-.1.12-1.51.16-1.62,2.02-6.24,7.22-12.43,11.6-12.58h0Zm-26.69,1.13c.62.04,1.12.22.83.63-.7,1.23-2.82,5.21-4.29,11.1-.39-.24-1.43-.67-2.18-.94-.29-.1-.05-.43-.07-.93.53-2.66,2.25-7.3,4.14-9.66.2-.15.95-.25,1.57-.2h0Zm3.52.05c2.03-.05,1.14.73.34,1.75-1.81,2.31-3.71,8.46-4.1,11.63-.06.48-.15,1.01-.2,1.18-.28.95-2.06-1.09-2.05-2.35.01-2.14,2.39-8.66,4.08-11.15.59-.87.66-1.01,1.93-1.06Zm-88.6.4c-.43.01-.85.08-1.23.2-4.14,1.45-6.98,5.05-6.15,9.38.87,3.96,3.18,6.64,6.01,10.57,0,0-3.56,5.51-6,8.05l5.77,8.34c-1.6,3.15-4.37,5.53-5.07,9.41-1.09,5.11,1.59,10.1,7.3,10.56,4.26.13,7.05-2.75,7.58-7.1.69-4.51-3-8.95-5.89-13.13,2.04-2.63,4.1-5.32,6.18-7.96l-5.87-8.3c4.02-5.61,6.65-10.06,5.55-14.27-1.1-3.25-5.13-5.83-8.17-5.75Zm.14.63c1.87-.03,3.81.72,5.37,2.36,3.6,3.77,3.28,6.95-1.4,13.92-1.03,1.53-2.04,3.21-2.04,3.21l5.91,8.15c-1.94,2.74-4.14,5.16-6.16,8.05,2.65,3.42,5.4,6.88,5.97,11.35.47,4.1-2.2,8.47-6.76,8.58-4.43.03-7.8-3.66-7.71-8.29.21-4.57,2.93-7.66,5.49-11.4l-5.72-8.33,6.05-8.07s-4.4-5.39-5.76-9.27c-1.1-4.41.96-6.92,1.23-7.31,1.34-1.89,3.39-2.92,5.51-2.95h0Zm.18,2.87c-3.14-.03-6.25,2.78-3.93,8.82.88,2.29,2.31,3.99,3.93,5.61,1.5-1.75,3.17-4.06,4.09-6.26,2.21-5.29-.95-8.16-4.09-8.18Zm.13.81c2.07.1,4.12,1.75,3.9,4.7-.48,3.2-2.17,5.23-4.1,7.89-2.17-2.52-3.7-4.61-3.85-7.94-.12-3.29,1.98-4.75,4.05-4.65Zm106.56,2.24c.17.93,1.07,2.5.99,2.87-.42.97-1.03,1.46-1.88,3.06-.18.34-.09.41-.57.33-.45-.06-1.24-.31-1.66-.43-.24-.07-.52-.2-.4-.51.82-1.88,1.73-4.12,3.52-5.31h0Zm-15.89.09c.51.09,1.27,2.09,1.61,2.74l-1.01,2.62c-.1.28-.11.33-.4.27-.58-.07-1.08-.12-1.66-.07-1.26-.15,1.11-4.85,1.47-5.56h0Zm2.56,3.34s.04,0,.07,0c.52.07,1.28.34,1.85.59.31.13.32.14.19.53-.29.58-.65,2.24-1.03,2.83-.01.08-1.79-1.06-2.3-1.28-.02-.32.56-2.58,1.22-2.67h0Zm5.49.18c.54.12-.32,2.92-.48,3.27-.51.77-1.32,1.78-1.95,2.19-.33.21-1.33-.39-1.3-1.09.02-.5.97-3.01,1.29-3.67.05-.1,1.84-.69,2.45-.7h0Zm9.6.13c.59.02,1.32.56,1.71.86.19.37.02.74-.64,1.87-.58,1-1.18,2.08-1.33,1.96-.44-.34-1.25-.79-1.66-1.35-.3-.41.27-1.47.66-2.05.61-.91.91-1.24,1.25-1.3h0Zm-31.72.92c3.14-.09,4.62,1.02,6,3.37.65,1.11.66,1.16.51,2.2-.35,2.44-.23,4.09.41,5.58.73,1.71.63,2.29-1.17,6.09-1.8,3.82-3.99,8.47-5.66,12.79-.74,1.85-1.42,3.94-1.84,5.66-.28,1.08-2.13.84-2.91.7-.67.15.96-4.34,3.38-9.7,1.93-4.29,4.56-9.12,5.61-13.92.85-3.91.58-5.52.11-7.17-1.81-4.78-8.1-3.61-8.09.8.14,2.85,3.44,4.38,4.65,1.59.2-1.29-.43-.54-.97.09-1.14,1.34-3.09-.15-2.79-2.13.4-2.59,3.76-3.45,5.38-1.39,1.78,2.25,1.39,4.56-1.18,6.3-2.64,1.94-5.05.84-6.36-1.18-2.82-4.52,1.76-9.59,4.9-9.67h0Zm12.98,1.92c2.62.05,5.47,2.25,5.93,3.99.25,1.18-.13,2.57.29,3.71.35.91.69,1.44.44,2.25-2.16,6.94-7.25,14.33-9.77,22.55-.29.57-.56.64-1.21.83-1.01.29-1.4.26-1.5-.27,1.75-7.68,6.24-13.5,9.68-22.79,1.95-3.95-.25-7.83-4.29-7.86-3.2-.02-4.63,4.98-1.83,6.45,2.74,1.43,4.78-2.33,2.35-3.66-.59-.32-.74-.01-.27.55,1.08,1.3.11,3.05-1.4,2.35-2.33-1.08-1.13-5.05,1.59-4.82,4.21.35,4.75,6.47.46,8.01-5.9,2.13-8.99-7.36-3.44-10.55.92-.53,1.95-.76,2.96-.74h0Zm12.42.19c1.55-.04,3.18.51,4.52,1.8,3.3,3.16,2.42,8.05-3.15,17.49-1.82,3.16-3.6,6.97-4.57,9.74-.24.69-.44,1.04-.99,1.35-.97.53-2.06.6-2.2.22-.36-.96,2.4-6.93,7.31-16.3,1.29-2.5,2.93-5.4,2.84-8.37-.32-2.36-2.29-4.06-4.92-3.29-1.77.52-2.49,3.01-1.19,4.27.54.53,1.22.8,1.65.76.82.03,1.74-.78.16-.87-1.67,0-2.24-2.11-.83-3.05,2.03-1.36,4.35.24,4.19,2.89-.34,5.32-8.11,4.52-8.32-.95-.13-3.39,2.54-5.62,5.5-5.69h0Zm-21.97,8.52c1.17-.09-.85,6.23-4.38,13.33-1.93,3.93-3.39,8.15-4.89,12.26-.41.55-2.84.65-2.84.08,4.39-13.34,7.38-16.13,8.85-21.47.26-.91.44-2.22.48-2.34,1.09-.31,2.01-1.62,2.78-1.86Zm-79.96.93l-4.58,5.96,4.47,6.33,4.64-6.05-4.53-6.24Zm97.04.5c.56-.03,2,.83,2.05,1.34,0,.71-1.38,4.15-2.4,6.22-4.48,9.04-5.59,11.47-6.37,13.88-.14.43-.37.72-.65.83-.56.21-2.11.51-2.24.29.95-5.28,8.2-17.3,9.61-22.56Zm5.64.79c.3-.02.42.1.34.51-.14.65-.92,2.2-2.28,4.87-3.78,7.41-5.76,11.81-6.39,14.06-.15.53-.24.94-.49,1.08-.52.28-2.33,1.01-2.42.22.57-3.35,2.78-5.53,8.49-19.51.27-.46.5-.68.75-.73.7-.12,1.31-.45,2-.51h0Zm-17.86.76c.77.12,2.26.86,2.37,1.54-.14.86-.94,2.78-2.77,6.01-2.74,4.83-6.2,14.75-6.2,14.75-.78.37-1.56.63-2.43.21-.3-1.52,2.09-7.18,4.76-13.14,1.45-3.24,3.13-6.47,4.26-9.37Zm6.41.11c.81,0,.18,1.35-1.75,5.17-2.96,5.71-4.83,9.86-6.79,15.48-.24.74-.46,1.11-.76,1.26-.58.29-2,.27-2.24-.03-.39-.48,1.69-6.1,3.73-10.42,1.8-3.63,3.06-6.54,4.62-9.89.42-.67.44-.71.87-.8.9-.07,1.83-.67,2.33-.77h0Zm-91.16.72l2.36,3.15-2.77,3.44-2.3-3.34,2.71-3.24Zm-.15,2.02l-.83,1.29.83,1.29.83-1.29-.83-1.29Zm-.2,11.56s-1,1.15-2.03,2.98c-3.01,5.01-3.09,8.7.46,10.9,1.5.76,3.45.59,4.69-.48,4.02-3.5,1.03-8.32-1.57-11.58-.69-.96-1.55-1.81-1.55-1.81h0Zm.15,1.28c1.51,1.78,2.61,3.11,3.62,5.34,1.16,3,.41,5.36-1.82,6.47-3.53,1.75-6.75-2.18-5.07-6.38,1.24-3.11,3.28-5.43,3.28-5.43Zm98.98,5.93c.33.63-33.64,8.48-58.7,1.74l-15.25,22.04,88.04-.15-14.09-23.64Zm-1.29,1.56s8.18,14.15,12.2,21.08h-5.65l-8.05-17.21c-4.3,1.2-8.55,2.07-12.85,2.61l2.86,14.6h-4.23l-2.39-13.95c-6.17.48-12.45.66-18.86.47l-2.76,13.47h-4.42l2.84-13.38c-4.87-.66-9.72-1.27-14.66-2.09l-8.29,15.47h-6.25l13.02-19.41c19.44,3.9,37.36,2.98,57.49-1.67Zm-3.08,7.6l6.38,13.48h-12.09l-2.22-12.03,7.93-1.45Zm-51.75.98l10.57,1.37-2.73,11.14h-14.27l6.43-12.5Zm34.49,1.66l1.45,10.84h-18.21l2.02-10.63,14.73-.21Z"/>
      </g>
    </g>
    <path id="uuid-4c28db3b-530b-4f9f-ae8c-d84e5f251da6" data-name="path153-6-3-1-9-5-1-4" class="uuid-340de1dd-43c4-4e0e-95bb-3c8f0f276fbd" d="m66.93,36.7c-10.33,14.77-21.39,23.27-21.57,34.79-.06,3.73,1.95,10.07,8.26,11.29,4.09.78,9.72-2.53,9.84-9.27-.02-1.34,1.42-1.31,1.4.53-.19,5.32-1.87,11.51-4.69,16.55h13.54c-2.82-5.04-4.5-11.23-4.69-16.55-.01-1.84,1.42-1.87,1.4-.53.12,6.74,5.75,10.06,9.84,9.27,6.3-1.21,8.32-7.56,8.25-11.29-.18-11.52-11.24-20.02-21.57-34.79Z"/>
    <path id="uuid-4c450ce9-d1b7-4ff8-8867-1acb6a002c21" data-name="path153-6-3-1-8-6-9-9-4" class="uuid-340de1dd-43c4-4e0e-95bb-3c8f0f276fbd" d="m182.87,313.3c-10.33-14.77-21.39-23.27-21.57-34.79-.06-3.73,1.95-10.07,8.25-11.29,4.09-.78,9.72,2.53,9.84,9.27-.02,1.34,1.42,1.31,1.4-.53-.19-5.32-1.87-11.51-4.69-16.55h13.54c-2.82,5.04-4.5,11.23-4.69,16.55-.01,1.84,1.42,1.87,1.4.53.12-6.74,5.75-10.06,9.84-9.27,6.3,1.21,8.32,7.56,8.26,11.29-.18,11.52-11.24,20.02-21.57,34.79Z"/>
  </g>
</svg>