<?xml version="1.0" encoding="UTF-8"?>
<svg id="uuid-4b5f37c4-a097-4e4c-87ed-abef299fc740" data-name="Cards" xmlns="http://www.w3.org/2000/svg" viewBox="0 0 250 350">
  <defs>
    <style>
      .uuid-b099d13c-b07a-4cf0-9f12-b8a16fbe8a40, .uuid-c8b804ef-be19-47ad-a068-904b2bafe10c {
        stroke-width: 0px;
      }

      .uuid-c8b804ef-be19-47ad-a068-904b2bafe10c {
        fill: #fff;
      }
    </style>
  </defs>
  <g id="uuid-e780995b-1bf2-473d-bf59-7e8387fa6196" data-name="SPADE-10">
    <g id="uuid-df2b0034-8c50-4bdd-868b-f2cd0b4f5dd7" data-name="g8587-4-9">
      <path id="uuid-919e6f23-43ed-4929-aecb-e2af9ad86352" data-name="rect7263-6-4" class="uuid-c8b804ef-be19-47ad-a068-904b2bafe10c" d="m11.88,0h226.08c6.6,0,11.96,5.36,11.96,11.97v326.05c0,6.61-5.35,11.97-11.96,11.97H11.88c-6.6,0-11.96-5.36-11.96-11.97V11.97C-.08,5.36,5.27,0,11.88,0Z"/>
      <path id="uuid-747552d9-4a38-4779-9581-0bec7ee4e903" data-name="path7293-3-2" class="uuid-b099d13c-b07a-4cf0-9f12-b8a16fbe8a40" d="m66.94,36.7c-10.33,14.77-21.39,23.27-21.57,34.79-.06,3.73,1.95,10.07,8.25,11.29,4.09.78,9.72-2.53,9.84-9.27-.02-1.34,1.42-1.31,1.4.53-.19,5.32-1.87,11.51-4.69,16.55h13.53c-2.82-5.04-4.5-11.23-4.69-16.55-.01-1.84,1.42-1.87,1.4-.53.12,6.74,5.75,10.06,9.84,9.27,6.3-1.21,8.32-7.56,8.25-11.29-.18-11.52-11.24-20.02-21.57-34.79Z"/>
      <path id="uuid-a8a85941-f58c-4a55-88a5-04948c5080b1" data-name="path7295-4-8" class="uuid-b099d13c-b07a-4cf0-9f12-b8a16fbe8a40" d="m19.2,56.09c-4.83,6.15-9.99,9.69-10.08,14.5-.03,1.55.91,4.2,3.86,4.7,1.91.33,4.54-1.06,4.6-3.86-.01-.56.66-.54.66.22-.09,2.22-.87,4.79-2.19,6.89h6.32c-1.32-2.1-2.1-4.68-2.19-6.89-.01-.77.66-.78.66-.22.05,2.81,2.69,4.19,4.6,3.86,2.95-.51,3.89-3.15,3.86-4.7-.09-4.8-5.25-8.34-10.08-14.5h0Z"/>
      <path id="uuid-71a5c206-7892-488d-a481-b05889cd2d21" data-name="path7297-5-1" class="uuid-b099d13c-b07a-4cf0-9f12-b8a16fbe8a40" d="m66.94,239.06c-10.33-14.77-21.39-23.27-21.57-34.79-.06-3.73,1.95-10.07,8.25-11.29,4.09-.78,9.72,2.53,9.84,9.27-.02,1.34,1.42,1.31,1.4-.53-.19-5.32-1.87-11.51-4.69-16.55h13.53c-2.82,5.04-4.5,11.23-4.69,16.55-.01,1.84,1.42,1.87,1.4.53.12-6.74,5.75-10.06,9.84-9.27,6.3,1.21,8.32,7.56,8.25,11.29-.18,11.52-11.24,20.02-21.57,34.79Z"/>
      <path id="uuid-66ba67d4-5446-4f21-9bec-07e2735ebfc2" data-name="path7299-3-5" class="uuid-b099d13c-b07a-4cf0-9f12-b8a16fbe8a40" d="m230.63,293.9c-4.83-6.15-9.99-9.69-10.08-14.5-.03-1.55.91-4.2,3.86-4.7,1.91-.33,4.54,1.06,4.6,3.86-.01.56.66.54.66-.22-.09-2.22-.87-4.79-2.19-6.89h6.32c-1.32,2.1-2.1,4.68-2.19,6.89-.01.77.66.78.66.22.05-2.81,2.69-4.19,4.6-3.86,2.95.51,3.89,3.15,3.86,4.7-.09,4.8-5.25,8.34-10.08,14.5h0Z"/>
      <path id="uuid-efdd4f82-8fb0-4ef4-9d12-0213c390a9c6" data-name="path7301-4-0" class="uuid-b099d13c-b07a-4cf0-9f12-b8a16fbe8a40" d="m182.89,36.7c-10.33,14.77-21.39,23.27-21.57,34.79-.06,3.73,1.95,10.07,8.25,11.29,4.09.78,9.72-2.53,9.84-9.27-.02-1.34,1.42-1.31,1.4.53-.19,5.32-1.87,11.51-4.69,16.55h13.53c-2.82-5.04-4.5-11.23-4.69-16.55-.01-1.84,1.42-1.87,1.4-.53.12,6.74,5.75,10.06,9.84,9.27,6.3-1.21,8.32-7.56,8.25-11.29-.18-11.52-11.24-20.02-21.57-34.79Z"/>
      <path id="uuid-45eafa56-eac0-4aa1-9965-cd0d36ad4bab" data-name="path7303-7-8" class="uuid-b099d13c-b07a-4cf0-9f12-b8a16fbe8a40" d="m66.94,110.94c-10.33,14.77-21.39,23.27-21.57,34.79-.06,3.73,1.95,10.07,8.25,11.29,4.09.78,9.72-2.53,9.84-9.27-.02-1.34,1.42-1.31,1.4.53-.19,5.32-1.87,11.51-4.69,16.55h13.53c-2.82-5.04-4.5-11.23-4.69-16.55-.01-1.84,1.42-1.87,1.4-.53.12,6.74,5.75,10.06,9.84,9.27,6.3-1.21,8.32-7.56,8.25-11.29-.18-11.52-11.24-20.02-21.57-34.79Z"/>
      <path id="uuid-34503822-dd14-4b9d-a98c-2a61554e3abd" data-name="path7305-6-7" class="uuid-b099d13c-b07a-4cf0-9f12-b8a16fbe8a40" d="m124.92,84.56c-10.33,14.77-21.39,23.27-21.57,34.79-.06,3.73,1.95,10.07,8.25,11.29,4.09.78,9.72-2.53,9.84-9.27-.02-1.34,1.42-1.31,1.4.53-.19,5.32-1.87,11.51-4.69,16.55h13.53c-2.82-5.04-4.5-11.23-4.69-16.55-.01-1.84,1.42-1.87,1.4-.53.12,6.74,5.75,10.06,9.84,9.27,6.3-1.21,8.32-7.56,8.25-11.29-.18-11.52-11.24-20.02-21.57-34.79Z"/>
      <path id="uuid-8b93366b-62e2-4237-8d2e-0211c04d4577" data-name="path7309-8-5" class="uuid-b099d13c-b07a-4cf0-9f12-b8a16fbe8a40" d="m182.89,110.94c-10.33,14.77-21.39,23.27-21.57,34.79-.06,3.73,1.95,10.07,8.25,11.29,4.09.78,9.72-2.53,9.84-9.27-.02-1.34,1.42-1.31,1.4.53-.19,5.32-1.87,11.51-4.69,16.55h13.53c-2.82-5.04-4.5-11.23-4.69-16.55-.01-1.84,1.42-1.87,1.4-.53.12,6.74,5.75,10.06,9.84,9.27,6.3-1.21,8.32-7.56,8.25-11.29-.18-11.52-11.24-20.02-21.57-34.79Z"/>
      <path id="uuid-0579d96e-ed56-4b23-88a9-07df95dc13f2" data-name="path7313-6-8" class="uuid-b099d13c-b07a-4cf0-9f12-b8a16fbe8a40" d="m66.94,313.3c-10.33-14.77-21.39-23.27-21.57-34.79-.06-3.73,1.95-10.07,8.25-11.29,4.09-.78,9.72,2.53,9.84,9.27-.02,1.34,1.42,1.31,1.4-.53-.19-5.32-1.87-11.51-4.69-16.55h13.53c-2.82,5.04-4.5,11.23-4.69,16.55-.01,1.84,1.42,1.87,1.4.53.12-6.74,5.75-10.06,9.84-9.27,6.3,1.21,8.32,7.56,8.25,11.29-.18,11.52-11.24,20.02-21.57,34.79h0Z"/>
      <path id="uuid-1d3d3baa-36fc-4282-bb94-d3f34e3771da" data-name="path7315-7-3" class="uuid-b099d13c-b07a-4cf0-9f12-b8a16fbe8a40" d="m182.89,313.3c-10.33-14.77-21.39-23.27-21.57-34.79-.06-3.73,1.95-10.07,8.25-11.29,4.09-.78,9.72,2.53,9.84,9.27-.02,1.34,1.42,1.31,1.4-.53-.19-5.32-1.87-11.51-4.69-16.55h13.53c-2.82,5.04-4.5,11.23-4.69,16.55-.01,1.84,1.42,1.87,1.4.53.12-6.74,5.75-10.06,9.84-9.27,6.3,1.21,8.32,7.56,8.25,11.29-.18,11.52-11.24,20.02-21.57,34.79h0Z"/>
      <path id="uuid-65b7a9de-8c33-4249-aafb-1807f9385616" data-name="path7317-0-2" class="uuid-b099d13c-b07a-4cf0-9f12-b8a16fbe8a40" d="m124.92,265.43c-10.33-14.77-21.39-23.27-21.57-34.79-.06-3.73,1.95-10.07,8.25-11.29,4.09-.78,9.72,2.53,9.84,9.27-.02,1.34,1.42,1.31,1.4-.53-.19-5.32-1.87-11.51-4.69-16.55h13.53c-2.82,5.04-4.5,11.23-4.69,16.55-.01,1.84,1.42,1.87,1.4.53.12-6.74,5.75-10.06,9.84-9.27,6.3,1.21,8.32,7.56,8.25,11.29-.18,11.52-11.24,20.02-21.57,34.79Z"/>
      <path id="uuid-0da0c3d7-be28-489d-bbb4-8d590c773e82" data-name="path7319-5-6" class="uuid-b099d13c-b07a-4cf0-9f12-b8a16fbe8a40" d="m182.89,239.06c-10.33-14.77-21.39-23.27-21.57-34.79-.06-3.73,1.95-10.07,8.25-11.29,4.09-.78,9.72,2.53,9.84,9.27-.02,1.34,1.42,1.31,1.4-.53-.19-5.32-1.87-11.51-4.69-16.55h13.53c-2.82,5.04-4.5,11.23-4.69,16.55-.01,1.84,1.42,1.87,1.4.53.12-6.74,5.75-10.06,9.84-9.27,6.3,1.21,8.32,7.56,8.25,11.29-.18,11.52-11.24,20.02-21.57,34.79Z"/>
      <path id="uuid-a2d0d3c8-5954-426e-9747-c037bacf431c" data-name="path31-5-4-7" class="uuid-b099d13c-b07a-4cf0-9f12-b8a16fbe8a40" d="m7.98,52.57V15.53h3.58v37.04h-3.58Z"/>
      <path id="uuid-c976224d-0da4-4846-ac51-b450e2240c0d" data-name="path33-4-6-8" class="uuid-b099d13c-b07a-4cf0-9f12-b8a16fbe8a40" d="m22.18,15.53c-3.45,0-6.22,3.16-6.22,7.08v22.89c0,3.92,2.77,7.08,6.22,7.08h2.01c3.45,0,6.23-3.16,6.23-7.08v-22.89c0-3.92-2.78-7.08-6.23-7.08h-2.01Zm1.04,3.5c2.04,0,3.67,1.57,3.67,3.52v23.19c0,1.96-1.64,3.54-3.67,3.54s-3.68-1.58-3.68-3.54v-23.19c0-1.96,1.64-3.52,3.68-3.52Z"/>
      <g id="uuid-23236a5b-9230-4c71-9d53-3e5633b168f5" data-name="g8583-6-9">
        <path id="uuid-6f9dcc0f-0641-4b12-a2a2-9ad3a1f52105" data-name="path31-5-5-6-7" class="uuid-b099d13c-b07a-4cf0-9f12-b8a16fbe8a40" d="m241.85,297.42v37.04h-3.58v-37.04h3.58Z"/>
        <path id="uuid-189c371f-6b8a-4614-84c6-06e0333e7cfe" data-name="path33-4-3-7-9" class="uuid-b099d13c-b07a-4cf0-9f12-b8a16fbe8a40" d="m227.65,334.46c3.45,0,6.22-3.16,6.22-7.08v-22.89c0-3.92-2.77-7.08-6.22-7.08h-2.01c-3.45,0-6.23,3.16-6.23,7.08v22.89c0,3.92,2.78,7.08,6.23,7.08h2.01Zm-1.04-3.5c-2.04,0-3.67-1.57-3.67-3.52v-23.19c0-1.96,1.64-3.54,3.67-3.54s3.68,1.58,3.68,3.54v23.19c0,1.96-1.64,3.52-3.68,3.52Z"/>
      </g>
    </g>
  </g>
</svg>