<?xml version="1.0" encoding="UTF-8"?>
<svg id="uuid-791eff12-08c4-412f-9514-77667ed07c14" data-name="Cards" xmlns="http://www.w3.org/2000/svg" viewBox="0 0 250 350">
  <defs>
    <style>
      .uuid-7077bc07-664d-463d-9c27-77221109eb32 {
        fill: #c8102e;
      }

      .uuid-7077bc07-664d-463d-9c27-77221109eb32, .uuid-97349bdf-249e-4dea-9305-e4a8664044a8 {
        stroke-width: 0px;
      }

      .uuid-97349bdf-249e-4dea-9305-e4a8664044a8 {
        fill: #fff;
      }
    </style>
  </defs>
  <g id="uuid-70f779d5-a7cf-4d3a-9ac6-84112ec25625" data-name="HEART-5">
    <g id="uuid-8fd42c4e-c291-4014-8f73-9394495c8b74" data-name="g9936-1-0">
      <path id="uuid-509c2b18-4ac4-4433-a047-8323ff6d3983" data-name="rect9938-9-5" class="uuid-97349bdf-249e-4dea-9305-e4a8664044a8" d="m11.93,0h226.07c6.6,0,11.96,5.36,11.96,11.97v326.05c0,6.61-5.35,11.97-11.96,11.97H11.93c-6.6,0-11.96-5.36-11.96-11.97V11.97C-.02,5.36,5.33,0,11.93,0Z"/>
    </g>
    <path id="uuid-970a6f30-feaf-4bfc-a189-4195c6d24a69" data-name="path9970-5-6" class="uuid-7077bc07-664d-463d-9c27-77221109eb32" d="m19.25,78.54s-2.49-3.58-5.85-7.79c-2.25-2.82-4.05-5.87-4.21-8.49-.19-3,1.62-6.01,4.91-6.16,3.28-.15,4.62,2.31,5.16,4.34.54-2.03,1.88-4.49,5.16-4.34,3.28.15,5.1,3.16,4.91,6.16-.17,2.63-1.96,5.68-4.21,8.49-3.36,4.21-5.85,7.79-5.85,7.79Z"/>
    <path id="uuid-3839b300-ec2b-4d5f-8785-031820b104a8" data-name="path9972-9-9" class="uuid-7077bc07-664d-463d-9c27-77221109eb32" d="m230.67,271.45s-2.49,3.58-5.85,7.79c-2.25,2.82-4.05,5.87-4.21,8.49-.19,3,1.62,6.01,4.91,6.16,3.28.15,4.62-2.31,5.16-4.34.54,2.03,1.88,4.49,5.16,4.34,3.28-.15,5.1-3.16,4.91-6.16-.17-2.63-1.96-5.68-4.21-8.49-3.36-4.21-5.85-7.79-5.85-7.79Z"/>
    <path id="uuid-ea67a7c5-91a6-4b91-9513-4b0ec2d2ad8c" data-name="path9978-0-4" class="uuid-7077bc07-664d-463d-9c27-77221109eb32" d="m66.99,90.58s-5.23-8.59-12.27-18.7c-4.72-6.76-8.49-14.08-8.84-20.39-.4-7.2,3.4-14.43,10.29-14.78,6.89-.35,9.68,5.55,10.82,10.42,1.14-4.87,3.93-10.77,10.82-10.42,6.89.35,10.7,7.58,10.29,14.78-.35,6.31-4.12,13.63-8.84,20.39-7.05,10.1-12.27,18.7-12.27,18.7Z"/>
    <path id="uuid-4278c38d-0d1d-4006-afa6-851574d97719" data-name="path9984-9-5" class="uuid-7077bc07-664d-463d-9c27-77221109eb32" d="m182.93,90.58s-5.23-8.59-12.27-18.7c-4.72-6.76-8.49-14.08-8.84-20.39-.4-7.2,3.4-14.43,10.29-14.78,6.89-.35,9.68,5.55,10.82,10.42,1.14-4.87,3.93-10.77,10.82-10.42,6.89.35,10.7,7.58,10.29,14.78-.35,6.31-4.12,13.63-8.84,20.39-7.05,10.1-12.27,18.7-12.27,18.7Z"/>
    <path id="uuid-0dc49cbb-61e4-4a3b-b934-184a3b8d05a1" data-name="path9986-7-3" class="uuid-7077bc07-664d-463d-9c27-77221109eb32" d="m124.96,201.94s-5.23-8.59-12.27-18.7c-4.72-6.76-8.49-14.08-8.84-20.39-.4-7.2,3.4-14.43,10.29-14.78,6.89-.35,9.68,5.55,10.82,10.42,1.14-4.87,3.93-10.77,10.82-10.42,6.89.35,10.7,7.58,10.29,14.78-.35,6.31-4.12,13.63-8.84,20.39-7.05,10.1-12.27,18.7-12.27,18.7Z"/>
    <path id="uuid-6718e81a-c4a0-42cd-8359-5118ad30c16b" data-name="path9998-0-9" class="uuid-7077bc07-664d-463d-9c27-77221109eb32" d="m182.93,259.42s-5.23,8.59-12.27,18.7c-4.72,6.76-8.49,14.08-8.84,20.39-.4,7.2,3.4,14.43,10.29,14.78,6.89.35,9.68-5.55,10.82-10.42,1.14,4.87,3.93,10.77,10.82,10.42,6.89-.35,10.7-7.58,10.29-14.78-.35-6.31-4.12-13.63-8.84-20.39-7.05-10.1-12.27-18.7-12.27-18.7Z"/>
    <path id="uuid-52c64c9e-577e-4a04-bac8-2b6b88008bfb" data-name="path10000-8-2" class="uuid-7077bc07-664d-463d-9c27-77221109eb32" d="m66.99,259.42s-5.23,8.59-12.27,18.7c-4.72,6.76-8.49,14.08-8.84,20.39-.4,7.2,3.4,14.43,10.29,14.78,6.89.35,9.68-5.55,10.82-10.42,1.14,4.87,3.93,10.77,10.82,10.42,6.89-.35,10.7-7.58,10.29-14.78-.35-6.31-4.12-13.63-8.84-20.39-7.05-10.1-12.27-18.7-12.27-18.7Z"/>
    <path id="uuid-c2400b3b-1be2-4ba4-a09f-633dda679358" data-name="path21-9-5-1-8" class="uuid-7077bc07-664d-463d-9c27-77221109eb32" d="m7.6,42.99l3.62-.03c.69,2.24,2.22,4.51,4.3,5.14,5.87,1.41,9.64-1.94,10.88-5.8,1.51-4.68-.03-11.25-4.07-13.58-3.35-1.93-8.32-.3-10.6,3.83l-2.54-1.58,1.36-15.42h16.57v3.65h-13.43l-.21,6.42c2.89-2.07,7.33-2.05,10.22-.6,5.47,2.66,8.02,8.72,6.95,15.86-1.47,7.1-4.73,11.13-12.06,11.7-8.16.08-11.04-5.65-11-9.59h0Z"/>
    <path id="uuid-ea52baa1-8560-48f7-b54b-1bea2786b17d" data-name="path21-3-0-6-3-8" class="uuid-7077bc07-664d-463d-9c27-77221109eb32" d="m242.33,307.01l-3.62.03c-.69-2.24-2.22-4.51-4.3-5.14-5.87-1.41-9.64,1.94-10.88,5.8-1.51,4.68.03,11.25,4.07,13.58,3.35,1.93,8.32.3,10.6-3.83l2.54,1.58-1.36,15.42h-16.57v-3.65h13.43l.21-6.42c-2.89,2.07-7.33,2.05-10.22.6-5.47-2.66-8.02-8.72-6.95-15.86,1.47-7.1,4.73-11.13,12.06-11.7,8.16-.08,11.04,5.65,11,9.59h0Z"/>
  </g>
</svg>