<?xml version="1.0" encoding="UTF-8"?>
<svg id="uuid-b8834459-661c-49d1-a789-a598f84038ee" data-name="Cards" xmlns="http://www.w3.org/2000/svg" viewBox="0 0 250 350">
  <defs>
    <style>
      .uuid-d66c3ddd-1243-4a19-a634-d7735cfdbf5b {
        fill: #c8102e;
      }

      .uuid-d66c3ddd-1243-4a19-a634-d7735cfdbf5b, .uuid-980f6e63-785e-4b25-9608-6047aeb224f4 {
        stroke-width: 0px;
      }

      .uuid-980f6e63-785e-4b25-9608-6047aeb224f4 {
        fill: #fff;
      }
    </style>
  </defs>
  <g id="uuid-53e55b3b-d5c8-4091-b0da-12325c2d5c29" data-name="HEART-4">
    <g id="uuid-e9b16404-5c7f-422a-9613-a725fa5fa9e0" data-name="g9868-8-1">
      <path id="uuid-2ffd892f-420c-4406-ab9c-75a6b2bbc002" data-name="rect9870-7-0" class="uuid-980f6e63-785e-4b25-9608-6047aeb224f4" d="m11.93,0h226.08c6.6,0,11.96,5.36,11.96,11.97v326.06c0,6.61-5.35,11.97-11.96,11.97H11.93c-6.6,0-11.96-5.36-11.96-11.97V11.96C-.03,5.35,5.33,0,11.93,0Z"/>
    </g>
    <path id="uuid-ad4dcbe0-1fc8-488c-a756-426b13b7379e" data-name="path9902-6-7" class="uuid-d66c3ddd-1243-4a19-a634-d7735cfdbf5b" d="m19.26,78.54s-2.49-3.58-5.85-7.79c-2.25-2.82-4.05-5.87-4.21-8.49-.19-3,1.62-6.01,4.91-6.16,3.28-.15,4.62,2.31,5.16,4.34.54-2.03,1.88-4.49,5.16-4.34,3.28.15,5.1,3.16,4.91,6.16-.17,2.63-1.96,5.68-4.21,8.49-3.36,4.21-5.85,7.79-5.85,7.79Z"/>
    <path id="uuid-893e27c9-be7f-41d5-889c-48a68cfb4d10" data-name="path9904-6-0" class="uuid-d66c3ddd-1243-4a19-a634-d7735cfdbf5b" d="m230.69,271.45s-2.49,3.58-5.85,7.79c-2.25,2.82-4.05,5.87-4.21,8.49-.19,3,1.62,6.01,4.91,6.16,3.28.15,4.62-2.31,5.16-4.34.54,2.03,1.88,4.49,5.16,4.34,3.28-.15,5.1-3.16,4.91-6.16-.17-2.63-1.96-5.68-4.21-8.49-3.36-4.21-5.85-7.79-5.85-7.79Z"/>
    <path id="uuid-e4f4dcf5-4716-4f11-9fd7-3b7feae2371c" data-name="path9910-2-6" class="uuid-d66c3ddd-1243-4a19-a634-d7735cfdbf5b" d="m67,90.57s-5.23-8.59-12.28-18.7c-4.72-6.76-8.49-14.08-8.84-20.39-.4-7.2,3.4-14.43,10.29-14.78,6.89-.35,9.68,5.55,10.82,10.42,1.14-4.87,3.93-10.77,10.82-10.42,6.89.35,10.7,7.58,10.29,14.78-.35,6.31-4.12,13.63-8.84,20.39-7.05,10.1-12.27,18.69-12.28,18.7Z"/>
    <path id="uuid-534fc03a-eb22-4925-b5ea-eb6af1880a02" data-name="path9916-8-0" class="uuid-d66c3ddd-1243-4a19-a634-d7735cfdbf5b" d="m182.95,90.57s-5.23-8.59-12.28-18.7c-4.72-6.76-8.49-14.08-8.84-20.39-.4-7.2,3.4-14.43,10.29-14.78,6.89-.35,9.68,5.55,10.82,10.42,1.14-4.87,3.93-10.77,10.82-10.42,6.89.35,10.7,7.58,10.29,14.78-.35,6.31-4.12,13.63-8.84,20.39-7.05,10.1-12.27,18.69-12.28,18.7Z"/>
    <path id="uuid-22adfdb7-7eca-4c44-a465-c27c6aa84639" data-name="path9930-7-9" class="uuid-d66c3ddd-1243-4a19-a634-d7735cfdbf5b" d="m182.95,259.42s-5.23,8.59-12.28,18.7c-4.72,6.76-8.49,14.08-8.84,20.39-.4,7.2,3.4,14.43,10.29,14.78,6.89.35,9.68-5.55,10.82-10.42,1.14,4.87,3.93,10.77,10.82,10.42,6.89-.35,10.7-7.58,10.29-14.78-.35-6.31-4.12-13.63-8.84-20.39-7.05-10.1-12.27-18.69-12.28-18.7Z"/>
    <path id="uuid-514e39eb-90d0-4c70-989d-2a1e1fb68188" data-name="path9932-9-8" class="uuid-d66c3ddd-1243-4a19-a634-d7735cfdbf5b" d="m67,259.42s-5.23,8.59-12.28,18.7c-4.72,6.76-8.49,14.08-8.84,20.39-.4,7.2,3.4,14.43,10.29,14.78,6.89.35,9.68-5.55,10.82-10.42,1.14,4.87,3.93,10.77,10.82,10.42,6.89-.35,10.7-7.58,10.29-14.78-.35-6.31-4.12-13.63-8.84-20.39-7.05-10.1-12.27-18.69-12.28-18.7Z"/>
    <path id="uuid-9324c640-dcea-4525-b9b9-a030c9f2ffbc" data-name="path19-3-8-2-9" class="uuid-d66c3ddd-1243-4a19-a634-d7735cfdbf5b" d="m19.52,52.57v-3.27h2.95v-5.4H7.73v-3.81l15.94-24.56h2.6v24.56h4.51v3.81h-4.51l-.09,5.4h2.47v3.28h-9.14,0Zm2.95-28.05l-10.12,15.57h10.12v-15.57Z"/>
    <path id="uuid-c4bb2441-9a15-4495-a222-929d6c6a546a" data-name="path19-4-46-0-1-9" class="uuid-d66c3ddd-1243-4a19-a634-d7735cfdbf5b" d="m230.43,297.43v3.27h-2.95v5.4h14.74v3.81l-15.94,24.56h-2.6v-24.56h-4.51v-3.81h4.51l.09-5.4h-2.47v-3.28h9.14,0Zm-2.95,28.05l10.12-15.57h-10.12v15.57Z"/>
  </g>
</svg>