<?xml version="1.0" encoding="UTF-8"?>
<svg id="uuid-b5b51176-53ca-449f-9bce-22e06b8f27b5" data-name="Cards" xmlns="http://www.w3.org/2000/svg" viewBox="0 0 250 350">
  <defs>
    <style>
      .uuid-83b721cc-5a10-4958-8c54-4ac265f342eb {
        fill: #c8102e;
      }

      .uuid-83b721cc-5a10-4958-8c54-4ac265f342eb, .uuid-303ce3f0-8db5-4140-b033-99e8e136e588 {
        stroke-width: 0px;
      }

      .uuid-303ce3f0-8db5-4140-b033-99e8e136e588 {
        fill: #fff;
      }
    </style>
  </defs>
  <g id="uuid-cc18fb77-3374-45d5-8c80-477e8bf2d642" data-name="HEART-8">
    <g id="uuid-f284e650-1a24-413b-ab88-b955220247db" data-name="g10140-6-7">
      <path id="uuid-2c058fe8-6453-4bd5-9452-386293261128" data-name="rect10142-4-2" class="uuid-303ce3f0-8db5-4140-b033-99e8e136e588" d="m11.9,0h226.08c6.6,0,11.96,5.36,11.96,11.97v326.05c0,6.61-5.35,11.97-11.96,11.97H11.9c-6.6,0-11.96-5.36-11.96-11.97V11.97C-.06,5.35,5.3,0,11.9,0Z"/>
    </g>
    <path id="uuid-1659cdea-2be6-42e7-8218-49ee394f0cc5" data-name="path10174-9-0" class="uuid-83b721cc-5a10-4958-8c54-4ac265f342eb" d="m19.22,78.54s-2.49-3.58-5.85-7.79c-2.25-2.82-4.05-5.87-4.21-8.49-.19-3,1.62-6.01,4.91-6.16,3.28-.15,4.62,2.31,5.16,4.34.54-2.03,1.88-4.49,5.16-4.34,3.28.15,5.1,3.16,4.91,6.16-.17,2.63-1.96,5.68-4.21,8.49-3.36,4.21-5.85,7.79-5.85,7.79Z"/>
    <path id="uuid-3aae843b-6c84-41f9-b700-404d8c6229c0" data-name="path10176-9-9" class="uuid-83b721cc-5a10-4958-8c54-4ac265f342eb" d="m230.65,271.45s-2.49,3.58-5.85,7.79c-2.25,2.82-4.05,5.87-4.21,8.49-.19,3,1.62,6.01,4.91,6.16,3.28.15,4.62-2.31,5.16-4.34.54,2.03,1.88,4.49,5.16,4.34,3.28-.15,5.1-3.16,4.91-6.16-.17-2.63-1.96-5.68-4.21-8.49-3.36-4.21-5.85-7.79-5.85-7.79Z"/>
    <path id="uuid-e2476f04-f48d-4714-9e77-f8853143b2cc" data-name="path10178-8-4" class="uuid-83b721cc-5a10-4958-8c54-4ac265f342eb" d="m124.93,146.26s-5.23-8.59-12.28-18.7c-4.72-6.76-8.49-14.08-8.84-20.39-.4-7.2,3.4-14.43,10.29-14.78,6.89-.35,9.68,5.55,10.82,10.42,1.14-4.87,3.93-10.77,10.82-10.42,6.89.35,10.7,7.58,10.29,14.78-.35,6.31-4.12,13.63-8.84,20.39-7.05,10.1-12.28,18.7-12.28,18.7Z"/>
    <path id="uuid-5b7d1991-1144-44d0-9add-ca81a4cc9f84" data-name="path10182-1-9" class="uuid-83b721cc-5a10-4958-8c54-4ac265f342eb" d="m66.96,90.58s-5.23-8.59-12.28-18.7c-4.72-6.76-8.49-14.08-8.84-20.39-.4-7.2,3.4-14.43,10.29-14.78,6.89-.35,9.68,5.55,10.82,10.42,1.14-4.87,3.93-10.77,10.82-10.42,6.89.35,10.7,7.58,10.29,14.78-.35,6.31-4.12,13.63-8.84,20.39-7.05,10.1-12.28,18.7-12.28,18.7Z"/>
    <path id="uuid-f84914cc-a746-4c69-b91c-8b26890aa7cd" data-name="path10184-9-1" class="uuid-83b721cc-5a10-4958-8c54-4ac265f342eb" d="m182.9,201.94s-5.23-8.59-12.28-18.7c-4.72-6.76-8.49-14.08-8.84-20.39-.4-7.2,3.4-14.43,10.29-14.78,6.89-.35,9.68,5.55,10.82,10.42,1.14-4.87,3.93-10.77,10.82-10.42,6.89.35,10.7,7.58,10.29,14.78-.35,6.31-4.12,13.63-8.84,20.39-7.05,10.1-12.28,18.7-12.28,18.7Z"/>
    <path id="uuid-c0038121-bca2-446d-a148-6ebcc4bd45ef" data-name="path10188-5-4" class="uuid-83b721cc-5a10-4958-8c54-4ac265f342eb" d="m182.9,90.58s-5.23-8.59-12.28-18.7c-4.72-6.76-8.49-14.08-8.84-20.39-.4-7.2,3.4-14.43,10.29-14.78,6.89-.35,9.68,5.55,10.82,10.42,1.14-4.87,3.93-10.77,10.82-10.42,6.89.35,10.7,7.58,10.29,14.78-.35,6.31-4.12,13.63-8.84,20.39-7.05,10.1-12.28,18.7-12.28,18.7Z"/>
    <path id="uuid-333b222e-0a81-42a4-98d2-d97bb6a7b7a5" data-name="path10192-3-6" class="uuid-83b721cc-5a10-4958-8c54-4ac265f342eb" d="m66.96,201.94s-5.23-8.59-12.28-18.7c-4.72-6.76-8.49-14.08-8.84-20.39-.4-7.2,3.4-14.43,10.29-14.78,6.89-.35,9.68,5.55,10.82,10.42,1.14-4.87,3.93-10.77,10.82-10.42,6.89.35,10.7,7.58,10.29,14.78-.35,6.31-4.12,13.63-8.84,20.39-7.05,10.1-12.28,18.7-12.28,18.7Z"/>
    <path id="uuid-ddc70f9f-8136-4397-8504-a419c2f3cfff" data-name="path10196-7-3" class="uuid-83b721cc-5a10-4958-8c54-4ac265f342eb" d="m124.93,203.74s-5.23,8.59-12.28,18.7c-4.72,6.76-8.49,14.08-8.84,20.39-.4,7.2,3.4,14.43,10.29,14.78,6.89.35,9.68-5.55,10.82-10.42,1.14,4.87,3.93,10.77,10.82,10.42,6.89-.35,10.7-7.58,10.29-14.78-.35-6.31-4.12-13.63-8.84-20.39-7.05-10.1-12.28-18.7-12.28-18.7h0Z"/>
    <path id="uuid-18c7d949-b26d-49ca-86c6-8b016a4d4b42" data-name="path10202-2-8" class="uuid-83b721cc-5a10-4958-8c54-4ac265f342eb" d="m182.9,259.42s-5.23,8.59-12.28,18.7c-4.72,6.76-8.49,14.08-8.84,20.39-.4,7.2,3.4,14.43,10.29,14.78,6.89.35,9.68-5.55,10.82-10.42,1.14,4.87,3.93,10.77,10.82,10.42,6.89-.35,10.7-7.58,10.29-14.78-.35-6.31-4.12-13.63-8.84-20.39-7.05-10.1-12.28-18.7-12.28-18.7Z"/>
    <path id="uuid-f34b4194-164b-40bf-9ac5-5bbd877b5345" data-name="path10204-9-4" class="uuid-83b721cc-5a10-4958-8c54-4ac265f342eb" d="m66.96,259.42s-5.23,8.59-12.28,18.7c-4.72,6.76-8.49,14.08-8.84,20.39-.4,7.2,3.4,14.43,10.29,14.78,6.89.35,9.68-5.55,10.82-10.42,1.14,4.87,3.93,10.77,10.82,10.42,6.89-.35,10.7-7.58,10.29-14.78-.35-6.31-4.12-13.63-8.84-20.39-7.05-10.1-12.28-18.7-12.28-18.7Z"/>
    <path id="uuid-3a340066-a24f-498b-8176-25cf18b5c421" data-name="path27-00-0-7-4" class="uuid-83b721cc-5a10-4958-8c54-4ac265f342eb" d="m7.21,41.72c.18-4.97,1.97-6.84,5.5-9.44-2.82-2.04-4.01-5.04-3.76-7.6.58-6.19,5.35-9.28,10.55-9.15,5.21.14,9.69,4.28,10.04,8.77.3,3.91-.86,5.8-3.62,7.85,3.28,2.78,5.38,4.6,5.3,9.5-.08,4.9-4.23,10.73-11.48,10.9-7.25.18-12.71-5.87-12.53-10.85h0Zm20.23.02c.31-4.5-3.66-7.54-8.14-7.58-4.36-.05-8.27,3.69-8.27,7.73,0,4.34,5.08,6.7,8.36,6.71,3.99.02,7.78-2.98,8.05-6.86h0Zm-1.43-16.11c.09-3.79-3.4-6.51-7-6.4-3.2.1-6.59,2.54-6.59,5.71,0,3.97,3.85,5.95,7.14,6.02,2.99.07,6.38-2.48,6.45-5.34h0Z"/>
    <path id="uuid-d910e1c9-7db7-4949-8c45-baae3f150bd3" data-name="path27-0-1-0-8-9" class="uuid-83b721cc-5a10-4958-8c54-4ac265f342eb" d="m218.64,308.27c.18,4.97,1.97,6.84,5.5,9.44-2.82,2.04-4.01,5.04-3.76,7.6.58,6.19,5.35,9.28,10.55,9.15,5.21-.14,9.69-4.28,10.04-8.77.3-3.91-.86-5.8-3.62-7.85,3.28-2.78,5.38-4.6,5.3-9.5-.08-4.9-4.23-10.73-11.48-10.9-7.25-.18-12.71,5.87-12.53,10.85h0Zm20.23-.02c.31,4.5-3.66,7.54-8.14,7.58-4.36.05-8.27-3.69-8.27-7.73,0-4.34,5.08-6.7,8.36-6.71,3.99-.02,7.78,2.98,8.05,6.86Zm-1.43,16.11c.09,3.79-3.4,6.51-7,6.4-3.2-.1-6.59-2.54-6.59-5.71,0-3.97,3.85-5.95,7.14-6.02,2.99-.07,6.38,2.48,6.45,5.34h0Z"/>
  </g>
</svg>