<?xml version="1.0" encoding="UTF-8"?>
<svg id="uuid-f6cba8a2-bfe6-4619-bc72-9373be4c0c1b" data-name="Cards" xmlns="http://www.w3.org/2000/svg" viewBox="0 0 250 350">
  <defs>
    <style>
      .uuid-de3cd19a-9587-4e01-ac8b-aa8834c2b4a6 {
        fill: #c8102e;
      }

      .uuid-de3cd19a-9587-4e01-ac8b-aa8834c2b4a6, .uuid-56eb7a09-cd77-4b02-b4e7-fbedf4e6f73e {
        stroke-width: 0px;
      }

      .uuid-56eb7a09-cd77-4b02-b4e7-fbedf4e6f73e {
        fill: #fff;
      }
    </style>
  </defs>
  <g id="uuid-a366b64a-ed9a-4c54-9a46-516b20507b6f" data-name="HEART-1">
    <g id="uuid-e383fa89-bc15-4762-9fb4-0936fe66fb22" data-name="g9664-0-2">
      <path id="uuid-15887cce-587f-4c12-862d-4cdcd9d7eb6a" data-name="rect9666-2-2" class="uuid-56eb7a09-cd77-4b02-b4e7-fbedf4e6f73e" d="m11.96,0h226.08c6.6,0,11.96,5.36,11.96,11.97v326.06c0,6.61-5.35,11.97-11.96,11.97H11.96C5.35,349.99,0,344.63,0,338.02V11.96C0,5.35,5.35,0,11.96,0Z"/>
    </g>
    <path id="uuid-9859021e-48cd-4103-8cb8-42eaba1c6ad0" data-name="path9698-0-0" class="uuid-de3cd19a-9587-4e01-ac8b-aa8834c2b4a6" d="m19.28,78.54s-2.49-3.58-5.85-7.79c-2.25-2.82-4.05-5.87-4.21-8.49-.19-3,1.62-6.01,4.91-6.16,3.28-.15,4.62,2.31,5.16,4.34.54-2.03,1.88-4.49,5.16-4.34,3.28.15,5.1,3.16,4.91,6.16-.17,2.63-1.96,5.68-4.21,8.49-3.36,4.21-5.85,7.79-5.85,7.79Z"/>
    <path id="uuid-05089022-cd39-44bf-aede-1816cec00442" data-name="path9700-3-2" class="uuid-de3cd19a-9587-4e01-ac8b-aa8834c2b4a6" d="m230.71,271.45s-2.49,3.58-5.85,7.79c-2.25,2.82-4.05,5.87-4.21,8.49-.19,3,1.62,6.01,4.91,6.16,3.28.15,4.62-2.31,5.16-4.34.54,2.03,1.88,4.49,5.16,4.34,3.28-.15,5.1-3.16,4.91-6.16-.17-2.63-1.96-5.68-4.21-8.49-3.36-4.21-5.85-7.79-5.85-7.79Z"/>
    <path id="uuid-807f282a-754a-4814-a219-5a5d4e80e456" data-name="path9714-6-6" class="uuid-de3cd19a-9587-4e01-ac8b-aa8834c2b4a6" d="m124.99,201.94s-5.23-8.59-12.28-18.7c-4.72-6.76-8.49-14.08-8.84-20.39-.4-7.2,3.4-14.43,10.29-14.78,6.89-.35,9.68,5.55,10.82,10.42,1.14-4.87,3.93-10.77,10.82-10.42,6.89.35,10.7,7.58,10.29,14.78-.35,6.31-4.12,13.63-8.84,20.39-7.05,10.1-12.28,18.7-12.28,18.7Z"/>
    <path id="uuid-0cb4f483-65e8-4553-bfbc-ac6ea00005b9" data-name="path41-87-8-3-9" class="uuid-de3cd19a-9587-4e01-ac8b-aa8834c2b4a6" d="m7.98,52.57v-3.17h3.02l6.42-33.87h3.66l7.08,33.87h2.43v3.17h-8.3v-3.17h2.24l-.89-5.19h-8.37l-.65,5.19h2.24v3.17H7.98Zm14.94-12.06l-3.64-18.13-3.41,18.13h7.05Z"/>
    <path id="uuid-c1ff2473-5340-4642-9ca6-b0eb4a232b5c" data-name="path41-8-5-1-8-7" class="uuid-de3cd19a-9587-4e01-ac8b-aa8834c2b4a6" d="m219.41,297.42v3.17h3.02l6.42,33.87h3.66l7.08-33.87h2.43v-3.17h-8.3v3.17h2.24l-.89,5.19h-8.37l-.65-5.19h2.24v-3.17h-8.88Zm14.94,12.06l-3.64,18.13-3.41-18.13h7.05Z"/>
  </g>
</svg>