<?xml version="1.0" encoding="UTF-8"?>
<svg id="uuid-4e70fa48-1dc7-45ac-a111-11212dbf0482" data-name="Cards" xmlns="http://www.w3.org/2000/svg" viewBox="0 0 250 350">
  <defs>
    <style>
      .uuid-8bcc813f-d8f4-4139-a048-4979aec7b1af {
        fill: #c8102e;
      }

      .uuid-8bcc813f-d8f4-4139-a048-4979aec7b1af, .uuid-ff082026-a05f-47b8-b433-93d1ea5c1def {
        stroke-width: 0px;
      }

      .uuid-ff082026-a05f-47b8-b433-93d1ea5c1def {
        fill: #fff;
      }
    </style>
  </defs>
  <g id="uuid-9d35e7bc-95b5-4054-bc29-d655d17de2ca" data-name="HEART-2">
    <g id="uuid-bbba923d-97ca-4832-9c6d-abea23437575" data-name="g9732-9-3">
      <path id="uuid-9a9077db-e185-413f-acbc-134af193af41" data-name="rect9734-4-5" class="uuid-ff082026-a05f-47b8-b433-93d1ea5c1def" d="m11.95,0h226.08c6.6,0,11.96,5.36,11.96,11.97v326.06c0,6.61-5.35,11.97-11.96,11.97H11.95c-6.6,0-11.96-5.36-11.96-11.97V11.96C0,5.35,5.34,0,11.95,0Z"/>
    </g>
    <path id="uuid-6deb0763-7d5a-4843-aac8-b7192391ec1e" data-name="path9766-0-8" class="uuid-8bcc813f-d8f4-4139-a048-4979aec7b1af" d="m19.27,78.54s-2.49-3.58-5.85-7.79c-2.25-2.82-4.05-5.87-4.21-8.49-.19-3,1.62-6.01,4.91-6.16,3.28-.15,4.62,2.31,5.16,4.34.54-2.03,1.88-4.49,5.16-4.34,3.28.15,5.1,3.16,4.91,6.16-.17,2.63-1.96,5.68-4.21,8.49-3.36,4.21-5.85,7.79-5.85,7.79Z"/>
    <path id="uuid-59c9ec31-3148-4bc3-8795-d4784256bec4" data-name="path9768-3-3" class="uuid-8bcc813f-d8f4-4139-a048-4979aec7b1af" d="m230.7,271.45s-2.49,3.58-5.85,7.79c-2.25,2.82-4.05,5.87-4.21,8.49-.19,3,1.62,6.01,4.91,6.16,3.28.15,4.62-2.31,5.16-4.34.54,2.03,1.88,4.49,5.16,4.34,3.28-.15,5.1-3.16,4.91-6.16-.17-2.63-1.96-5.68-4.21-8.49-3.36-4.21-5.85-7.79-5.85-7.79Z"/>
    <path id="uuid-1ac11214-9756-4f18-9506-8010cbdbb2aa" data-name="path9772-1-7" class="uuid-8bcc813f-d8f4-4139-a048-4979aec7b1af" d="m124.99,90.57s-5.23-8.59-12.28-18.7c-4.72-6.76-8.49-14.08-8.84-20.39-.4-7.2,3.4-14.43,10.29-14.78,6.89-.35,9.68,5.55,10.82,10.42,1.14-4.87,3.93-10.77,10.82-10.42,6.89.35,10.7,7.58,10.29,14.78-.35,6.31-4.12,13.63-8.84,20.39-7.05,10.1-12.28,18.7-12.28,18.7Z"/>
    <path id="uuid-b40ca4e7-946b-4733-94d2-9aaa87097b28" data-name="path9786-2-1" class="uuid-8bcc813f-d8f4-4139-a048-4979aec7b1af" d="m124.99,259.42s-5.23,8.59-12.28,18.7c-4.72,6.76-8.49,14.08-8.84,20.39-.4,7.2,3.4,14.43,10.29,14.78,6.89.35,9.68-5.55,10.82-10.42,1.14,4.87,3.93,10.77,10.82,10.42,6.89-.35,10.7-7.58,10.29-14.78-.35-6.31-4.12-13.63-8.84-20.39-7.05-10.1-12.28-18.7-12.28-18.7Z"/>
    <path id="uuid-2cecc2c1-1331-480c-afd0-f5dfabf75e3f" data-name="path15-34-0-0-4" class="uuid-8bcc813f-d8f4-4139-a048-4979aec7b1af" d="m8.75,52.49l.18-2.28c.57-7.06,2.08-9.44,10.66-16.81,4.17-3.57,5.53-5.33,5.72-7.38.55-4.82-3.71-6.33-6.49-6.35-3.59-.03-7.66,2.16-5.72,7.25l-4.03,1.21c-.81-4.75.02-9.21,3.8-11.19,5.04-2.58,11.5-1.57,14.76,2.5,2.19,2.73,2.69,6.5,1.52,9.45-3.44,7.54-15.1,10.86-16.06,19.59h12.89v-4.86h3.8v8.95l-21.04-.08h0Z"/>
    <path id="uuid-783aec96-e776-48cc-917c-ec9dfd2b7319" data-name="path15-5-4-5-2-7" class="uuid-8bcc813f-d8f4-4139-a048-4979aec7b1af" d="m241.22,297.5l-.18,2.28c-.57,7.06-2.08,9.44-10.66,16.81-4.17,3.57-5.53,5.33-5.72,7.38-.55,4.82,3.71,6.33,6.49,6.35,3.59.03,7.66-2.16,5.72-7.25l4.03-1.21c.81,4.75-.02,9.21-3.8,11.19-5.04,2.58-11.5,1.57-14.76-2.5-2.19-2.73-2.69-6.5-1.52-9.45,3.44-7.54,15.1-10.86,16.06-19.59h-12.89v4.86h-3.8v-8.95l21.04.08h0Z"/>
  </g>
</svg>