<?xml version="1.0" encoding="UTF-8"?>
<svg id="uuid-e78180c5-5cbd-4ef1-a3bc-69de41cd2cea" data-name="Cards" xmlns="http://www.w3.org/2000/svg" viewBox="0 0 250 350">
  <defs>
    <style>
      .uuid-b07bf2ff-5152-4917-bc85-945967f1f12f {
        fill: #c8102e;
      }

      .uuid-b07bf2ff-5152-4917-bc85-945967f1f12f, .uuid-37c820d4-b673-4f91-bfe6-e48777a1b5e4 {
        stroke-width: 0px;
      }

      .uuid-37c820d4-b673-4f91-bfe6-e48777a1b5e4 {
        fill: #fff;
      }
    </style>
  </defs>
  <g id="uuid-70207f8e-c790-4e01-bd3f-a9db2b7cca4c" data-name="HEART-6">
    <g id="uuid-51bb3c95-3ecb-4323-b54e-3a5596bea8fb" data-name="g10004-9-9">
      <path id="uuid-2869c8c9-a3a6-4aff-9209-4c9a07d942d1" data-name="rect10006-6-1" class="uuid-37c820d4-b673-4f91-bfe6-e48777a1b5e4" d="m11.91,0h226.08c6.6,0,11.96,5.36,11.96,11.97v326.05c0,6.61-5.35,11.97-11.96,11.97H11.91c-6.6,0-11.96-5.36-11.96-11.97V11.97C-.05,5.36,5.3,0,11.91,0Z"/>
    </g>
    <path id="uuid-283a7a3a-d866-4546-8607-10e88dc4a49d" data-name="path10038-5-0" class="uuid-b07bf2ff-5152-4917-bc85-945967f1f12f" d="m19.23,78.54s-2.49-3.58-5.85-7.79c-2.25-2.82-4.05-5.87-4.21-8.49-.19-3,1.62-6.01,4.91-6.16,3.28-.15,4.62,2.31,5.16,4.34.54-2.03,1.88-4.49,5.16-4.34,3.28.15,5.1,3.16,4.91,6.16-.17,2.63-1.96,5.68-4.21,8.49-3.36,4.21-5.85,7.79-5.85,7.79Z"/>
    <path id="uuid-4b60ff3c-bda6-4216-adcb-3f778a66061c" data-name="path10040-7-6" class="uuid-b07bf2ff-5152-4917-bc85-945967f1f12f" d="m230.66,271.45s-2.49,3.58-5.85,7.79c-2.25,2.82-4.05,5.87-4.21,8.49-.19,3,1.62,6.01,4.91,6.16,3.28.15,4.62-2.31,5.16-4.34.54,2.03,1.88,4.49,5.16,4.34,3.28-.15,5.1-3.16,4.91-6.16-.17-2.63-1.96-5.68-4.21-8.49-3.36-4.21-5.85-7.79-5.85-7.79Z"/>
    <path id="uuid-f5a320e5-e1df-4d02-bb75-1f4faa0888a1" data-name="path10046-1-1" class="uuid-b07bf2ff-5152-4917-bc85-945967f1f12f" d="m66.98,90.58s-5.23-8.59-12.27-18.7c-4.72-6.76-8.49-14.08-8.84-20.39-.4-7.2,3.4-14.43,10.29-14.78,6.89-.35,9.68,5.55,10.82,10.42,1.14-4.87,3.93-10.77,10.82-10.42,6.89.35,10.7,7.58,10.29,14.78-.35,6.31-4.12,13.63-8.84,20.39-7.05,10.1-12.28,18.7-12.28,18.7Z"/>
    <path id="uuid-e967f71c-b574-4f4c-a11b-63f83bc872dd" data-name="path10048-2-0" class="uuid-b07bf2ff-5152-4917-bc85-945967f1f12f" d="m182.92,201.94s-5.23-8.59-12.27-18.7c-4.72-6.76-8.49-14.08-8.84-20.39-.4-7.2,3.4-14.43,10.29-14.78,6.89-.35,9.68,5.55,10.82,10.42,1.14-4.87,3.93-10.77,10.82-10.42,6.89.35,10.7,7.58,10.29,14.78-.35,6.31-4.12,13.63-8.84,20.39-7.05,10.1-12.28,18.7-12.28,18.7Z"/>
    <path id="uuid-491d17f3-3481-4cd0-a254-54273c80a5dc" data-name="path10052-3-1" class="uuid-b07bf2ff-5152-4917-bc85-945967f1f12f" d="m182.92,90.58s-5.23-8.59-12.27-18.7c-4.72-6.76-8.49-14.08-8.84-20.39-.4-7.2,3.4-14.43,10.29-14.78,6.89-.35,9.68,5.55,10.82,10.42,1.14-4.87,3.93-10.77,10.82-10.42,6.89.35,10.7,7.58,10.29,14.78-.35,6.31-4.12,13.63-8.84,20.39-7.05,10.1-12.28,18.7-12.28,18.7Z"/>
    <path id="uuid-209583d9-d1da-4ab4-8f81-9699b10f6b19" data-name="path10056-4-2" class="uuid-b07bf2ff-5152-4917-bc85-945967f1f12f" d="m66.98,201.94s-5.23-8.59-12.27-18.7c-4.72-6.76-8.49-14.08-8.84-20.39-.4-7.2,3.4-14.43,10.29-14.78,6.89-.35,9.68,5.55,10.82,10.42,1.14-4.87,3.93-10.77,10.82-10.42,6.89.35,10.7,7.58,10.29,14.78-.35,6.31-4.12,13.63-8.84,20.39-7.05,10.1-12.28,18.7-12.28,18.7Z"/>
    <path id="uuid-f3238347-869d-47c6-98ed-6371fe1dd32c" data-name="path10066-9-2" class="uuid-b07bf2ff-5152-4917-bc85-945967f1f12f" d="m182.92,259.42s-5.23,8.59-12.27,18.7c-4.72,6.76-8.49,14.08-8.84,20.39-.4,7.2,3.4,14.43,10.29,14.78,6.89.35,9.68-5.55,10.82-10.42,1.14,4.87,3.93,10.77,10.82,10.42,6.89-.35,10.7-7.58,10.29-14.78-.35-6.31-4.12-13.63-8.84-20.39-7.05-10.1-12.28-18.7-12.28-18.7Z"/>
    <path id="uuid-3f21b1e4-d850-48d5-a98f-3b398c4c85b9" data-name="path10068-1-2" class="uuid-b07bf2ff-5152-4917-bc85-945967f1f12f" d="m66.98,259.42s-5.23,8.59-12.27,18.7c-4.72,6.76-8.49,14.08-8.84,20.39-.4,7.2,3.4,14.43,10.29,14.78,6.89.35,9.68-5.55,10.82-10.42,1.14,4.87,3.93,10.77,10.82,10.42,6.89-.35,10.7-7.58,10.29-14.78-.35-6.31-4.12-13.63-8.84-20.39-7.05-10.1-12.28-18.7-12.28-18.7Z"/>
    <path id="uuid-d4cd3285-1898-4609-ba74-0f984e35a717" data-name="path23-5-2-7-3" class="uuid-b07bf2ff-5152-4917-bc85-945967f1f12f" d="m8.38,41.18c-.45-3.12-.44-11.18-.07-13.56,1.15-7.3,3.93-10.65,8.59-11.74,4.53-1.06,10.89.12,12.28,6.22l-3.79.07c-2.05-4.13-7.23-3.02-10.15-1.23-2.33,1.43-3.38,7.4-2.93,7.77,0,0,4.4-3.27,7.87-3.03,7.42.77,10.48,7.22,10.22,13.31-.24,7.32-2.55,13.18-10.42,13.57-7.48-.29-10.9-4.37-11.62-11.4h0Zm18.44-1.93c.04-5.08-2.26-8.89-6.62-9.31-4.35-.42-8.75,3.84-8.44,9.02.3,5.2,2.31,9.58,7.59,9.55,5.68-.02,7.44-5.65,7.47-9.27h0Z"/>
    <path id="uuid-65ce65db-03db-462d-bf85-49ece47848bc" data-name="path23-6-5-1-7-1" class="uuid-b07bf2ff-5152-4917-bc85-945967f1f12f" d="m241.51,308.82c.45,3.12.44,11.18.07,13.56-1.15,7.3-3.93,10.65-8.59,11.74-4.53,1.06-10.89-.12-12.28-6.22l3.79-.07c2.05,4.13,7.23,3.02,10.15,1.23,2.33-1.43,3.38-7.4,2.93-7.77,0,0-4.4,3.27-7.87,3.03-7.42-.77-10.48-7.22-10.22-13.31.24-7.32,2.55-13.18,10.42-13.57,7.48.29,10.9,4.37,11.62,11.4h0Zm-18.44,1.93c-.04,5.08,2.26,8.89,6.62,9.31,4.35.42,8.75-3.84,8.44-9.02-.3-5.2-2.31-9.58-7.59-9.55-5.68.02-7.44,5.65-7.47,9.27h0Z"/>
  </g>
</svg>