<?xml version="1.0" encoding="UTF-8"?>
<svg id="uuid-c122ad45-05c4-4dc0-99a1-1f4c6f31409a" data-name="Cards" xmlns="http://www.w3.org/2000/svg" viewBox="0 0 250 350">
  <defs>
    <style>
      .uuid-0d199ec1-b590-4591-b34f-ebe4e5a6169e, .uuid-d3a04293-dcd6-4f48-96c3-d7041fd7267d, .uuid-0bc7d737-ace3-4497-8c40-bd614b15c734, .uuid-9db37293-0830-4a5e-8082-aef5f3a940c8, .uuid-6c3950d0-ba57-4fb2-8381-253b91091630 {
        stroke-width: 0px;
      }

      .uuid-d3a04293-dcd6-4f48-96c3-d7041fd7267d {
        fill: #c8102e;
      }

      .uuid-0bc7d737-ace3-4497-8c40-bd614b15c734 {
        fill: #fff;
      }

      .uuid-9db37293-0830-4a5e-8082-aef5f3a940c8 {
        fill: #ffcd00;
      }

      .uuid-6c3950d0-ba57-4fb2-8381-253b91091630 {
        fill: #004c97;
      }
    </style>
  </defs>
  <g id="uuid-efd52caf-0c5d-4f1d-9151-467f15fea389" data-name="HEART-12-QUEEN">
    <path id="uuid-5273239b-637e-4330-ac07-3b50da3810c5" data-name="rect10414-2-6" class="uuid-0bc7d737-ace3-4497-8c40-bd614b15c734" d="m11.85,0h226.08c6.6,0,11.96,5.36,11.96,11.97v326.06c0,6.61-5.35,11.97-11.96,11.97H11.85c-6.6,0-11.96-5.36-11.96-11.97V11.97C-.11,5.36,5.25,0,11.85,0Z"/>
    <path id="uuid-c8851366-5d4e-47f6-8bb3-4ed5922d7aec" data-name="path10446-4-8" class="uuid-d3a04293-dcd6-4f48-96c3-d7041fd7267d" d="m19.18,78.54s-2.49-3.58-5.85-7.79c-2.25-2.82-4.05-5.87-4.21-8.49-.19-3,1.62-6.01,4.91-6.16,3.28-.15,4.62,2.31,5.16,4.34.54-2.03,1.88-4.49,5.16-4.34,3.29.15,5.1,3.16,4.91,6.16-.17,2.63-1.96,5.68-4.21,8.49-3.36,4.21-5.85,7.79-5.85,7.79h0Z"/>
    <path id="uuid-5f6b0fd6-c983-482d-bdc5-3d81f1584472" data-name="path10448-8-7" class="uuid-d3a04293-dcd6-4f48-96c3-d7041fd7267d" d="m230.61,271.46s-2.49,3.58-5.85,7.79c-2.25,2.82-4.05,5.87-4.21,8.49-.19,3,1.62,6.01,4.91,6.16,3.28.15,4.62-2.31,5.16-4.34.54,2.03,1.88,4.49,5.16,4.34,3.28-.15,5.1-3.16,4.91-6.16-.17-2.63-1.96-5.68-4.21-8.49-3.36-4.21-5.85-7.79-5.85-7.79Z"/>
    <path id="uuid-d4f814ec-8fda-47e8-b5d6-2a4c3d045da1" data-name="path37-2-5-5-0" class="uuid-d3a04293-dcd6-4f48-96c3-d7041fd7267d" d="m11.03,40.32h-3.09v-4.22h3.09s.02-2.27.11-6.29c.19-8.55.4-9.88,2.87-12.23,4.88-4.65,13.04-.86,12.95,6.13-.14,9.87-.04,19.28-.33,20.61-.51,2.35-.56,2.48-.35,2.91.43.86,4.12,1.23,4.12.99v4.16c-2.82.22-3.99-.05-6.24-1.66-1.41,1.36-5.69,2.73-9.1,1.12-2.59-1.22-4.56-4.38-4.03-11.53h0Zm10.44,7.37c-1.53-2.22-4.11-5.24-6.53-6.32-.15,2.55.07,4.69.96,5.84,1.42,1.83,3.72,2.25,5.57.48h0Zm1.27-24.38c-1.14-3.22-4.05-4.32-6.19-2.3-1.33,1.26-1.55,2.58-1.58,9.75-.02,4.43-.02,6.29-.02,6.29,4.15,1.35,8.03,6.2,8,6.14l.1-13.39c.08-2.17-.03-4.35-.32-6.49h0Z"/>
    <path id="uuid-0eb3310c-4b2b-4012-864b-74b7a3eb7e4d" data-name="path37-3-27-3-0-9" class="uuid-d3a04293-dcd6-4f48-96c3-d7041fd7267d" d="m238.75,309.69h3.09v4.22h-3.09s-.02,2.27-.11,6.29c-.19,8.55-.4,9.88-2.87,12.23-4.88,4.65-13.04.86-12.95-6.13.14-9.87.04-19.28.33-20.61.51-2.35.56-2.48.35-2.91-.43-.86-4.12-1.23-4.12-.99v-4.16c2.82-.22,3.99.05,6.24,1.66,1.41-1.36,5.69-2.73,9.1-1.12,2.59,1.22,4.56,4.38,4.03,11.53h0Zm-10.44-7.37c1.53,2.22,4.11,5.24,6.53,6.32.15-2.55-.07-4.69-.96-5.84-1.42-1.83-3.72-2.25-5.57-.48Zm-1.27,24.38c1.14,3.22,4.05,4.32,6.19,2.3,1.33-1.26,1.55-2.58,1.58-9.75.02-4.43.02-6.29.02-6.29-4.15-1.35-8.03-6.2-8-6.14l-.1,13.39c-.08,2.17.03,4.35.32,6.49h0Z"/>
    <path id="uuid-e2cbe38f-183c-4961-a8b2-0a45442ada70" data-name="path3054-4-0-3" class="uuid-6c3950d0-ba57-4fb2-8381-253b91091630" d="m33.06,26.83v296.34h183.67V26.83H33.06Zm2.93,2.39h75.67l-.25,19s-.1.49-.25.66c1.48.87,1.75,12.68,1.21,16.64.25,1.22.16,3.49.16,3.49-4.55,6.29-6.97,12.26-9,19.57-.78.31-1.94.96-2.76,1.18l-.23,1c1.79-.99,6.86-2.6,6.86-2.6,22.58,11.09,39.16,8.38,56.92.14-2.39,11.1,2.54,25.73,17.73,25.7.49-.15-3.28-8.64-4.19-9.15-4.89-2.14-6.91-7.15-6.38-12.91l-.81-1.37c-1.67,6.99,2.35,14.09,7.86,15.83l1.48,3.26c-9.99-3.02-14.24-12.45-10.92-21.77-1.73-7.78-4.07-8.81-5.39-10.89-8.68-3.34-10.3-11.45-8.78-18,.17-1.24-2.8-5.81-2.72-5.75-2.98,6.5-4.22,14.72,2.59,23.05-4.41,5.89-10.09,10.54-16.44,14.52-9.28,4.88-16.25,1.59-20.73-9.22-2.69-6.49-3.66-12.96-3.64-19.74.02-4.2.06-4.32,1.62-3.61,1.47.67,4.64.76,6.54-.22,1.11-.57,1.72-.76,1.83-.54.16.28-.57,1.27-2.19,2.94-.77.79-1.66,1.98-1.66,1.98,0,0,1.28-.19,3-1.9.63-.63,1.79-2.04,1.79-2.04,0,0-.3,1.64-.55,2.51-.1.33-.41,1.75-.7,3.14-.29,1.39-.68,3.02-.88,3.63-.76,2.41-.56,3.53,1.74,4.64,1.21.59,3.28,2.58,3.26,2.58,0,0-.49-2.19-.31-2.89.22-.85,1.22-.25,2.24.24,2.25,1.08,3.56,1.11,4.77.1,1.67-1.4,1.19-4.55-.87-5.37-1.51-.6-1.77-.04-.27,1.02,2.26,1.59-.29,4.05-2.21,2.52-1.5-1.19-4.11-1.32-4.41-.33-.28.94-.56.77-1.6.15-1.62-.95-1.63-1.12-.27-6.38,2.57-9.95,2.31-13.61-1.09-16.63-2.52-2.24-6.68-3.28-10.99-.79v-3.39c6.33-2.55,10.94-6.89,14.66-13.96h.73c3.7,8.07,9.68,13.99,20.93,18.24.98.55-1.79-6.32-2.39-5.63-5.97-2.33-11.29-6.97-14.22-12.61h1.63c1.71,2.5,5.19,7.17,11.37,10.32.29-1.49-3.98-8.23-4.94-10.32h51.85c-1.65,12.73-3.96,26.35,5.16,51.14-4.28-2.26-21.42,2.56-18.4,3.51,1.52-1.76,12.44-4.36,20.53-2.44-.67-.58-12.33-27.91-5.55-52.21h19.75v115.21c-.07-.66-1.67-1.37-1.52-1.8.15-1.07-.01-3.07-.76-3.91-.31-.35-.82-.91-1.03-1.32-.51-1.02-1.34-2.08-2.01-2.36-.33-.14-.72-.22-.77-.45-.05-.22-.16-.93-.3-1.58-.36-1.64-.67-1.59.36-3.22,3.83-6.63,5.96-12.36,3.78-19.96-3.46,3.5-5.97,7.82-8.32,11.01-.53-4.56-.45-8-.53-11.66,1.85-.53,2.97-1.52,3.76-4.06,0,0,1.98,1.56,3.19,1.34l-.8-2.95c5.3-1.64,6.02-8.61-.23-10.08l.56-3.67c-1.01.42-3.08,1.1-3.08,1.1-3.14-6.1-8.61-3.65-9.89.29l-2.44-1.05c.26,1.25.58,2.52.36,3.77-5.13,2.3-3.86,8.6.23,9.43l-.36,2.94,3.08-1c.45,1.38.22,2.18,2.68,3.74-.06,6.17-.16,10.02.03,15.5-3.21-3.31-6.31-5.61-11.74-7.3,0,0-.05,1.33.27,3.34.1.67.08.57-.23.57-.71-.02-4.03-5.36-4.03-5.36-5.47,11.56-14.02,30.19-25.15,41.22-6.06,6-9.12,12.58-10.69,18.25,0,0-2.31.04-4.39-.45,2.73-13.07,8.9-39.65,8.9-39.65,0,0,4.34-1.24,6.87-1.52l-.03-1.03-5.97,1.4.29-2.28,5.63-1.12v-.54s-5.98.81-5.98.81l.97-3.79s-13.39,1.98-18.18,1.84c.3,14.75-.85,27-.23,42.89l-6.54-4c-.58-11.07-.76-39.02-.76-39.02l-18.07-2.86.6,4.39c-14.98-5.98-30.01-11.49-41.07-23.19,6.81-5.27,18.18-10.5,18.18-10.5l-.37-.84c-27.95,14.53-38.09,24.62-52.14,37.14V29.22Zm76.78,0h2.28c-.5,1.04-1.23,1.93-2.34,2.57l.06-2.57Zm3.92,0h2.45c-1.91,3.06-3.94,5.03-6.38,6.48l.04-2.4c1.42-1.25,2.77-2.66,3.89-4.09Zm4.05,0h2.26c-3.07,4.75-6.21,8.06-10.24,10.07v-1.94c2.49-1.95,6.02-4.94,7.98-8.13Zm3.45,0h1.83c-3.14,6.03-7.52,10.32-13.26,12.64v-1.45c6.28-3.38,9.03-7.26,11.43-11.19Zm5,0h2.19c3.01,6.03,9.27,11.86,16.14,14.36l1.05,2.45c-9.06-3.28-15.05-8.18-19.38-16.8Zm6.35,0h1.57c1.65,2.32,3.64,4.32,5.98,5.88l1.42,2.77c-3.15-2.14-6.67-4.85-8.97-8.65Zm2.86,0h1.75l2.32,4.11c-1.55-.88-2.71-2.77-4.07-4.11h0Zm-2.01,15.78c-2.4-.01-4.59.66-6.17,1.96-1.67,1.37-.44,2.87,1.96,1.74,4.09-1.92,8.8-1.05,13.88,1.75,4.28,2.36,2.78-.1-1.21-2.72-2.73-1.82-5.74-2.71-8.46-2.73Zm-19.31,3.09c3.44.03,7.39,1.57,7.49,3.6-2.28-1.93-6.88-2.86-11.28-.88-.34-.07-.39-1.28-.19-1.72.95-.71,2.41-1.01,3.98-1h0Zm20.86,1.31c-2.18,0-4.17.57-5.09,1.81-.47.59-.6.65-1.11.56-1.01-.17-.96.42.2,2.04.56.78.47,1.68-.28,2.74-.86,1.22-.69,1.25,1.87,2.51.92.45,1.75.99,2.56,1.55,1.46.99,2.46,1.95,4.14,2.37-.77-.99-2.36-2.11-3.71-3.24-1.36-.89-2.31-1.96-2.31-1.96,0,0,1.6.39,2.16.53,1.87.41,3.73.64,5.3.32,1.13-.23,2.6-.98,3.8-2.03.31-.14.61,0,1.36.04,2.86.11,2.23-.74-1.88-3-4.07-2.24-7.26-2.65-9.86-1.42-1.1.52-1.73.65-1.57.32.17-.34.47-.74.97-1.03,4.21-2.54,7.59-.43,11.3,1.47,1.59.96,2.21.9,2.21.9-2.68-2.78-6.45-4.44-10.05-4.48h0Zm-19.09,1.18c2.11.05,3.92.84,5.64,1.75.71.28.39,1.1-.26.84-3.89-1.76-4.67-2.62-9.3-.99-1.53.54-2.14.06-.26-.75,1.53-.65,2.91-.89,4.18-.86Zm2.97,3.82c-1.05,5.39-6.37,3.73-5.77.03h.98c.08,3.26,3.31,3.24,3.87.04l.93-.07Zm30.95.01l1.43,3.09c-3.13,7.78,1.12,18.26,10.37,20.77-.22.08,1.23,2.41,1.2,2.6-17.37-3.88-16.04-20.57-13.01-26.46Zm-16.45.2l.49.03c1.5,3.76,3.68,1.6,4.1.01l1.11.03c-.34,3.89-6.19,4.55-5.7-.07h0Zm-13.39.11c.7-.08.94.98.75,1.18-.05.05-1.34,1.31-1.5.57-.23-1.08.46-1.7.75-1.75Zm-8.1.11c.06,0,.12,0,.18.01.44.33.6,1.34.37,1.85-.26.27-1.3-.1-1.5-.5-.31-.59.06-1.37.95-1.36h0Zm28.17.36c.34.01,1.29.42,1.19.88-.02.12-1.34,1.09-1.63.93-.57-.31.22-1.71.33-1.79.02-.02.06-.02.11-.02h0Zm-7.67.17s.02,0,.02,0c.1.08.94.6.23,1.57-.05.07-1-.27-1.02-.39-.08-.57.64-1.15.77-1.19h0Zm21.05,6.82c-.21,4.47.95,8.81,5.79,11.6l-1.04-1.92c-1.24-1-3.85-3.84-3.52-7.23l-1.23-2.45Zm-43.51,7.99l.55,2.94c-2.67,4.47-4.69,8.85-6.37,13.98l-2.52.93c2-6.47,3.85-11.59,8.34-17.85h0Zm1.06,4.58l.71,2.53c-1.31,2.43-2.71,5.18-3.55,8.38l-2.78,1.04c1.25-4.24,3.09-8.35,5.62-11.94Zm8.83,1.05s-.08,0-.13.01c-.03.5-.02,1.88.08,4.15.02.43.44.25,1.62-.36,1.03-.53.92-.62,1.92-.28,2.77.96,4.03.54,5.11.26,1.65-.43,2.32-.25,3.28.32.53.32,1.25.55,1.39.61.76.28.47-.06-.05-2.13-.58-2.32-.33-2.58-1.26-1.98-.2.13-.79.46-1.11.5-.81.09-2.15-.9-2.95-.58-1.94.77-1.92.56-3.73.12-.9-.22-1.77.33-2.55.49-.45.06-1.01-1.14-1.64-1.13h0Zm33.04,1.2c3.28,3.03,6.65,4.07,10.31,5.22-.44,1.51-1.32,3.21-1.73,5.18-19.05,10.15-38.19,9.83-56.24.62l9.37-3.61c5.12,8.94,11.68,11.32,19.06,8.4,8.24-3.87,14.35-9.24,19.23-15.8Zm-40.7,1.79l.81,2.19-1.21,3.3-2.3.94c.44-2.25,1.29-4.1,2.69-6.43h0Zm17.21,2.54c-.57.03-1.43.41-3.39.42-1.06,0-1.9-.09-2.31,0-.86.17.14.56,2.06,1.11,1.92.55,4.26-.28,4.55-1.12.07-.2-.18-.45-.9-.41h0Zm-15.87,1.08l.5,1.11-.86.31.36-1.42Zm50.64.63l1.42,3.26c-2.46,5.37-4.1,20.1,12.35,24.69l.72,2.11c-11.19.22-22.41-14.12-14.49-30.06h0Zm-37.66,1.11c-1.61-.02-3.29.39-4.37,1.25-.98.78.22,1.27,1.49.65,1.65-.81,4.41-.74,6.02.28,1.24.85,1.88.7,1.05-.59-.65-1.02-2.37-1.57-4.2-1.59Zm71.5,3.75c3.17-.01,6.73,3.71,3.48,7.26,10.41-4.43,10.65,9.02,1.39,7.24.49,5.78-3.61,6.32-3.64,6.32.24,4.88.82,14.85.82,14.85,0,0,4.11-8.79,8.48-11.81,1.41,7.04-2.41,14.61-5.26,18.86-1.77,2.56-5.96,1.22-5.58,2.94.08.38.76,1.07,1.44,1.72.44.42.89.68,1.9.64,1.79-.06,2.48-.43,1.42,1.14-.84,1.24-3.81,1.5-4.15,2.14-.78,1.5-.25,1.17-1.58,2.48-1.02,1.12-.67.55-.2,1.48.73,1.19.43,3.58-.3,5.18-.59,1.31-.52,2.24-.52,2.24.01.11,1.65-1.71,2.15-3.81.41-1.75.9-2.62.89-1.65,0,1.23.21,2.91,1.31,3.55.87.51,1,1.01.85,1.64-.15.64.53,1.21,1.2,1.75.16.16.69.37.63.71-.18,1.07.25,2.34,1.03,2.54.35.17,2.55-.02,2.92-1.27-.04-.4,0-2.04-.88-2.14-.62-.29-.56-.46.38-1.02,1.41-.84,2.43-1.45,3.12-1.58.93-.13,1.82-1.14,1.82-1.14l.18,67.52c-8.34,8.6-17.47,17.16-29.52,25.57-7-5.88-14.65-11.84-22.78-16.29l-2.81-1.67,1.01-1.3-4.87-6.47,5.48-4.45,1.39,1.77-2.59,2.54,3.89,4.34,8.75-8.6-5.76-5.56,3-5.66,1.92.95-1.45,3.59,4.38,2.79,5.49-10.99-6.96-3.19,1.76-7.38,2.15.23-.71,5.31,5.42,1.08,2.21-12.53-7.96-1.43.68-7.14,2.22.03-.32,3.95,5.62.81,1.06-10.92-7.8-1.3,1.01-8.43,1.78.26-.35,5.2,5.72.99c.63-3.53,1.14-7.95,2.08-11.41l-7.37-2.77,2.61-7.08,1.66.58-1.45,3.84,5.44,2.33,4.59-9.13-6.41-4.57c1.44-2.4,2.87-4.69,4.92-6.63l1.26,1.11-2.19,3.54,4.38,3.26,2.75-3.31c.92.48,2.49,1.78,2.49,1.78l.18-.67c-2.21-1.25-11.63-8.28-11.61-13.81,5.64,1.07,8.51,4.35,12.38,8.13-.34-5.96-.82-12.02-.56-18.05-2.21-1.55-3.06-3.54-2.81-6.06-7.3,1.45-9.03-8.42-.38-8.43-.51-4.76,1.48-6.52,3.65-6.52h0Zm-131.32,19.49c11.37,9.65,18.62,16.14,41.76,23.4l.57,3.46c-13.31-3.1-27.82-9.37-45.08-24.95l2.74-1.91Zm-3.42,2.23c7.2,6.77,14.58,11.93,22.05,16.26l2.62,1.59-1.35,1.4,4.39,6.39-5.65,4.65-1.35-1.35,2.95-2.92-4.2-4.16-8.56,8.73,5.86,5.24-3.4,5.27-1.23-.56,1.81-3.67-5.45-3-6.09,11.28,7.76,3.56-1.75,6.93-1.81-.09.61-5.43-5.83-1.04-1.96,12.68,7.5,1.19-.18,7.3-2-.03.14-4.12-5.92-.28-.53,10.64,7.29.95-.73,8.64-1.79-.46.2-5.61-5.56-.55-1.91,11.92,7.5,2.16-2.65,7.43-1.63-.9,1.06-3.84c-1.37-.6-5.21-2.21-5.21-2.21l-4.9,9.26,6.35,4.36-4.18,8.03-1.33-1.42,2.79-4.75-5.28-3.34-2.81,3.98c-1.28-1.12-3.77-2.51-4.64-3.55-.93-.86-1.65-.99-2.85-.7-.95.23-1.86.4-1.65.06.1-.17,1.91-1.39,4.66-3.15.77-.49,1.38-.92,1.37-1.36-.01-.33.42-.85.97-1.19.62-.37.48-.73.38-1.11-.53-2.08-.2-5.33.84-7.51.7-1.46.91-1.73.46-1.73-1.34.17-2.97,5.07-3.29,6.45-.1-.11-.25-1.4-.35-1.9-.17-.9-.3-1.45-1.01-1.62-.85-.2-.58-.62-.67-1.26-.14-1.05-.63-1.72-1.52-2.09s-.95-.5-.91-1.36c0-.68-.7-1.82-1.22-2.18l-2.97,1.06c-.23.79.08,1.82.57,2.19,1.49,1.42-.69,1.44-2.19,2.36-.4.26-.89.84-1.22.65-3.25-1.14-.97-51.48-1.58-66.49,7.97-8.32,31.18-25.66,31.18-25.66h0Zm120.41,12.15l1.15,1.28c-8.07,9.2-13.07,19.91-14.59,30.24-1.72,9.26-1.45,18.55-2.98,27.44-1.56,12.89-5.15,19.75-12.96,27.06-3.43,3.21-14.11,9.28-14.4,9.23l-2.53-.63c21.89-11.29,27.36-19.08,29.73-45.82.46-33.54,15.6-46.53,16.59-48.79h0Zm2.15,2.25h.01l1.17,1.14-6.39,9.1,6.3,4.47-2.5,5.88-1.91-.72,1.36-4.01-5.3-2.25-4.28,11.68,7.55,2.4-1.24,7.61-1.52-.41v-5.19l-5.6-1.15-1.63,13.05,8.25,1.15-.61,6.74-1.95-.14-.07-4.01-5.73-.31-1.31,11.31,8.13,1.39-1.47,8.04-1.73-.41.39-5.3-5.45-.73-3.15,10.86,6.84,3.48-3.37,6.96-1.44-1.01,1.87-4.11-5.32-2.65-5.14,8.98,5.58,5.53-5.45,5.75-1.22-1.57,2.81-3.05-4.2-4.19-8.74,7,4.46,5.92-.53.75-4.61-1.86-2.21-2.94-2.64,1.17-2.08-.8c12.9-6.82,21.3-14.73,24.77-26.65,1.9-6.59,2.47-13.79,3.09-21.04.9-9.7,1.93-20.32,5.2-28.31,2.97-7.11,6.57-12.12,11.02-17.55h0Zm-69.43,4.49l8.86,4.71-.13,3.13-8.19-4.14-.54-3.7Zm2.49.09l6.32.87.03,2.57-6.34-3.44Zm-28.46.08l3.69,1.67,3.12,3.63,2.34-1.55,2.54.96c-8.03,4.16-15.15,9.13-20.7,17.72-6.18,9.57-6.87,22.1-7.66,34.18-2.34,20.84-6.5,31.45-15.48,42.48l-1.04-1.2,5.69-9.9-6.69-4.36,3.05-5.62,1.54.53-1.19,3.35,5.54,2.94,4.24-11.98-7.81-2.45,1.31-7.49,1.96.18-.52,5.37,5.58.89,1.6-12.66-7.52-1.16.17-6.69,1.84.18v4.07s5.92.32,5.92.32l.46-11.55-7.37-.82.91-8.16,2.06.21-.48,4.89,5.68.82,2.69-10.56-7.37-3.36,3.98-7.13,1.79.83-1.83,3.95,5.11,2.51,5.36-8.26-5.7-5.51,5.6-5.9,1.37,1.36-3.04,3.52,4.21,3.92,8.34-7.05-4.07-6.17.78-.95Zm53.03.39l-.26,2.96-8.88,5.08v-2.9l9.14-5.14Zm47.67.1l1.82,1.27-1.28,1.66-1.71-1.09,1.17-1.84Zm-51.41.42l-5.32,3.09v-3.08l5.32-.02Zm62.58,2.86c.51-.04.91.1,1.09.29.35.38.18,1.2-.35,1.57-.79.56-2.94.52-3.16-.05-.25-.67.82-1.41,1.87-1.71.19-.06.38-.09.55-.11h0Zm-84.75,1.25l7.63,4.15-.03,2.93-7.35-4.07-.26-3.01Zm24.87.09l-.45,3.81-7.86,4.2-.06-3.31,8.37-4.71Zm-38.05.07l3.13.8c-11.59,5.21-23.04,12.77-27.5,25.95-1.39,3.95-2.33,8.34-2.94,13.96-.29,5.93-.68,11.8-1.32,16.71-1.32,10.12-3.22,23.26-15.75,38.45l-.94-1.15c18.96-21.06,14.45-49.8,18.79-65.79,4.23-13.31,10.52-20.71,26.53-28.94h0Zm101.05,2.61c.13,0,.26.01.41.04,1.32.2,1.03,2.68-.96,4.32-1.11.91-1.62.78-2.44.05-.24-.33-.94-.56-1.45-.49-1.22,0,1.2-2.51,3.32-3.59.42-.21.73-.32,1.11-.32h0Zm-86.97,2.13l6.81,3.52.06,2.9-6.3-3.44-.58-2.98Zm23.07.39l-.37,3.19-7.09,3.72.04-2.94,7.42-3.97Zm66.32,1.19c.24-.02.42.07.59.26.97,1.08-.87,4.37-2.95,5.36-.8.38-1.29.32-1.96-.26-.32-.28-.8-.65-1.08-.62-1.19.12-.53-1.22.43-1.3.27-.02,1.93-1.28,3.19-2.34.85-.71,1.38-1.06,1.77-1.09h0Zm-7.2,1.28c1.5-.04,2.05,1.22.27,1.78-1.27.39-1.98.11-1.97-.75.27-.88,1.03-.98,1.7-1.03Zm-81.26,1.71l6.04,3.05.03,3.13-5.55-2.92-.52-3.26Zm21.61.43l-.42,2.96-6.5,3.37.02-2.45,6.91-3.88Zm68.17,1.24c.41.03.53.49.53,1.31,0,1.36-.9,2.61-2.24,3.23-.98.45-1.67.41-2.16-.12-.22-.24-.53-.43-.69-.44-2.1-.08-1.76-.63.25-1.48.71-.3,2.1-1.27,2.76-1.74.74-.53,1.24-.78,1.56-.76h0Zm-7.71.96c1.03,0,1.94.74,1.37,1.21-.44.37-2.11.55-2.43.21-.62-.63-.07-1.43,1.06-1.42Zm-81.06,2.1l5.15,2.8-.03,2.98-4.91-2.8-.21-2.97Zm19.74.23l-.12,3.05-5.91,2.94-.04-2.91,6.07-3.08Zm63.57,1.26c1,.07.87,1.05.07,1.52-.6.42-1.38.2-1.7-.29-.72-1.38.91-1.21,1.64-1.23h0Zm1.16,2.86c.37-.03.71.04.83.26.25.45.09.94-.24,1.13-.44.19-1.58,0-1.75-.34-.14-.27-.11-.42.17-.7.23-.19.63-.32.99-.35Zm-83.73.32l4.4,2.42-.03,2.92-4.04-2.37-.33-2.98Zm18.28.08l-.22,2.81-5.11,2.56.07-2.74,5.26-2.62Zm-53.54,1.77c1.1.01,1.94.75,1.3,2-1.69,1.96-2.88,2.68-4.65,3.94-1.57,1.1-1.03-1.19.94-4.57.56-.97,1.56-1.39,2.42-1.38Zm53.15,2.51l-.4,3.09-4.57,2.35v-2.98l4.98-2.47Zm-17.2.29l3.7,1.85.05,3.01-3.36-1.78-.4-3.08Zm44.45.3c.13.02.25.07.36.16-.06,1.41-.21,2.31-.28,3.52-.21.46-1.28-2.22-1.17-2.94.28-.52.71-.79,1.09-.74h0Zm-77.77.5c1.5-.03,2.58,1,2.07,2.53-.58,1.47-3.96,2.4-5.48,3.42-1,.5-1.24-.04-.93-.91.14-.4.25-.72-.51-.83-1.84-.27-.72-1.18,2.66-3.46.74-.5,1.51-.73,2.19-.75Zm74.16.96c.53,0,1.18.31,1.86,1.05,1.16,1.27,2,3.95,1.37,4.64-.49-.05-.73.67-.75.96-.07.84-1.6-.7-3.04-3.12-1.16-1.95-.6-3.51.57-3.53h0Zm-62.28.45c4.56-.03,13.26.92,25.31,8.52,1.54.97,3.07,2.04,4.81,2.91,4.57,2.48,8.34,4.17,14.23,5.27l-.17,3.07c.97,3.44,1.23,8.33,1.85,10.68l1.38,2.85s-7.23-.06-10.52-.71c-5.3-.87-14.96-5.39-19.63-8.95-4.85-3.59-12.18-6.57-18.47-7.73l-.09-2.64s-.62-9.05-1.12-10.29l-1.16-2.86c.28.11,1.5-.1,3.57-.12Zm38.03,1.98l-.35,3.04-4.01,1.9v-2.6l4.36-2.33Zm20.29.12c1.56.11,4.09,3.02,5.3,5.46.06.33-.14.52-.47.48-.76-.14-1.05-.42-1.26.54-.05.24.08.67-.18.59-1.36-.4-5.26-4.36-5.02-5.63.18-.95.66-1.29,1.32-1.42.09-.02.19-.02.3-.02h0Zm-36.02.22l2.92,1.57.13,2.99-2.6-1.13-.45-3.43Zm-31.38.76c.68.03,1.27.36,1.68,1.18.69,1.69-.53,2.71-4.15,3.48-3.14.75-3.08.8-2.64-.38.29-.78-.68-.87-1.22-1.07-.92-.35-.17-.46,2.47-1.78,1.32-.7,2.72-1.47,3.85-1.42Zm-10.6.81c5.33,4.96,4.18,15.64-2.77,18.4l.34-2.77s6.64-4.42,1.75-13.52c.22-.71.45-1.41.69-2.11Zm74.72,1.87c1.8,0,6.86,4.64,4.71,4.8-.25.02-.17.35-.17.56,0,.21-.01.61-.07.76-.16.4-.75.32-1.65-.22-2.3-1.37-2.82-1.81-3.62-2.57-1.57-1.49-1.12-3.34.81-3.34h0Zm-17.82.8l-.03,2.5-3.61,1.76.02-2.26,3.62-2Zm-45.02,1.84c1.98.34,2.88,2.43.69,3.59-.97.51-4.16.15-5.64.02-1.68-.15-.69-.65-.6-.8.23-.38.41-.44-.47-.96-.69-.74-1.09-.92.64-1.14,1.85-.11,3.63-.76,5.37-.7h0Zm73.19.55h0c.18,0,.16.29.09,1.07l-.12,1.67c-1.11.18-6.6,7.06-2.14,15.06l-.37,1.42c-.17.7-.23.81-.81.37-3.34-2.33-4.43-14.19,2.5-19.09.45-.3.71-.49.85-.5h0Zm-13.04,1.39c.65.01,1.44.19,2.34.61,2.11.97,3.51,1.75,3.84,2.27.2.32-.11.59-.54.71-.52.15-.58.37-.44.98,0,.35.09.74-.35.77-.81.04-2.63-.53-4.47-1.53-3.11-1.68-2.68-3.84-.38-3.8Zm-15.77.04v3.04l-2.96-1.38,2.96-1.66Zm-49.66,2.61c1.18.13,2.27.28,3.51.35,3.38-.06,4.78,2.32,1.99,3.51-1.3.55-3.37-.39-5.88-1.06-1-.29-1.35-.61-.69-.84.62-.21.67-.64.29-1.21-.09-.57.09-.78.78-.76Zm78.46,0c-.48,4.7-.87,8.36-1.57,12.96-.51-.2-4.16-8.87,1.57-12.96Zm-14.21,2.25c1.1.02,2.95.44,4.76,1.16,1.58.59,1.78.74.69,1.21-.63.3-.6.61-.38.97.23.39,1.08.8-.03.84-1.06.08-3.85-.08-4.7-.23-2.54-.45-3.24-2.76-1.15-3.84.17-.09.45-.13.82-.12h0Zm-65.38,1.19c.24,0,.67.13,1.45.38,4.57,1.45,6.42,3.21,4.18,4.92-.65.5-1.66.28-3.56-.79-1.94-1.09-2.92-1.69-3.28-2.08-.36-.39-.16-.83.39-.79.76.05.64-.33.58-.98-.04-.45-.07-.66.23-.66h0Zm20.7,2.78l2.31,1.04-2.63,1.31.31-2.35Zm-22.7.53c.09,0,.22.02.4.11.45.21,1.12.66,2.05,1.34,1.97,1.45,3.11,2.45,3.15,3.33.02.44-.3,1-.8,1.26-1.19.63-2.32.12-4.89-2.53-.83-.86-1.38-1.31-1.64-1.69-.29-.44-.08-.86.41-.68,1.82.83.67-1.08,1.31-1.14h0Zm70.02.65c.58,0,1.16.01,1.78.04,1.14-.04,1.12.55.8.76-.53.48-.38.97.16,1.22.37.18.22.55-.23.81-.26.15-.66.31-1.21.48-3.16.99-5.48.7-6.09-.78-.6-1.47.31-2.29,3.03-2.48.6-.04,1.17-.05,1.75-.05h0Zm-43.89.44h0l6.05,3.44,1,38.35c21.93,2.22,38.27,7.06,56.45,24.19-5.87,3.2-8.63,4.81-14.33,7.88l-.83,1.2c14.47-6.81,36.38-20.97,52.26-36.62v101.7h-75.58c-.02-5.98.01-11.97.04-17.95-.9-5.14-.18-11.02-1.02-15.99l-.33-4.78c4.68-5.49,7.22-12.42,9.45-19.49,0,0,2.25-.88,3.35-1.27l.38-1.39c-2.18,1.12-7.18,3-7.18,3-15.97-9.11-38.66-9.47-56.44-.12-.37.26-.7.27-.7.27,3.28-8.79-1.55-22.09-17.67-24.89l.19.91c17.13,1.95,21.15,20.19,14.55,28.66.32.6.62,1.16.91,1.57,1.13-1.75,1.91-3.74,2.66-5.74,8.27-4.74,18.64-7.2,28.9-7.24,9.64-.03,19.17,2.09,26.76,6.49-2.58,1.45-10.81,3.46-10.81,3.46-4.62-5.23-6.98-10.46-15.34-7.79-8.76,2.28-16.64,9.92-21.08,14.99-4.45-2.67-6.86-3.32-10.8-3.54.2.5.52,1.04.6,1.33,14.54,0,19.58,16.43,12.92,25.53.02-.07.54,1.06.54,1.06,4.17-5.55,5.28-16.08-2.11-23.49,5.46-6.14,15.94-15.96,25.01-15.38,3.3.21,6.56,4.24,8.73,7.45,4.59,6.81,5.77,16.31,6.1,21.73.08,1.42.27,2.45.27,3.2.01,2.17-.41,1.91-1.8,1.55-1.75-.45-4.14-.47-5.91.07-1.02.31-1.61.45-1.84.35-.41-.17.36-1.11,1.99-3.14,1.49-1.86,1.36-2.63,1.36-2.63,0,0-1.11.67-1.94,1.96-1.14,1.76-1.72,2.39-1.84,1.99-.15-.49.36-2.46,1.34-5.74,1.17-3.92,1.05-4.2-2.14-6.64-1.26-.79-2.37-1.47-3.02-2.68,0,0-.19,1.39.23,2.23.53,1.04-.59,1.51-2.55.44-4.62-2.58-7.62,2.64-3.5,4.91.97.53,1.51.1.76-.6-2.54-2.36-.77-4.36,2.66-2.26,1.98,1.21,2.74.82,3.4-.69.37-.62,3.45,1.61,3.44,2.47,0,.57-.36,2.38-.71,3.59-.99,3.42-1.25,4.49-1.68,6.71-.77,4.03-.75,6.09.07,7.86,1.86,3.96,6.54,5.83,10.6,4.24.59-.23,1.72-.42,1.72-.42l.05,2.91c-8,3.05-13.78,12.59-13.52,12.92h-2.85c-3.79-7.58-10.46-13.28-18.93-16.44-.18.03.9,3.69,2.31,5.05,4.02,2.06,9.35,5.72,12.29,11.39l-2.02.03c-2.47-3.79-5.66-6.35-8.69-8.58.23-.11,2.32,6.95,3.43,9.04l-52.17.92c3.56-14.04,4.24-29.62-4.1-50.04,6.92.43,13.05-1.07,18.67-3.54l-.51-1.46c-6.41,3.08-13.43,3.69-20.47,2.97,5.34,9.96,10.01,30.64,5.46,50.71h-19.77v-110.93s.59,1.78,1.34,2.73c.6.61,1.01,1.52,1.18,2.18.22.84.45.89,1.64,1.79.57.43.9.81.9,1.04-.03.25-.04,1.02.35,1.49,1.05,1.28.87,2.1.08,2.93-3.67,3.85-5.97,11.94-4.12,20.47,4.35-2.95,8.84-10.68,8.98-10.69l.42,10.55c-.39-.09-3.04,1.5-3.08,3.58-1.2.36-2.67-.24-3.89-.61l.88,3.11c-4.47,1.8-4.71,7.96.47,9.72,0,0-.47,2.41-.88,3.7l3.36-.52c1.95,5.88,9.45,4,9.42-.1,0,0,2.28.86,3.15,1.25l-.74-4.04c4.58-.06,6.9-8.38.2-9.82.03-1.12.43-1.44.9-2.75l-3.44.22c-.63-2.07-2.95-3.76-3.03-3.54l-.48-15.1c2.6,2.29,5.17,4.64,8.62,6.46,1.98,1.04,2.85,1.29,3.12.64.22-1.86-.3-3.4-.91-5.28,1.01.18,4.43,4.86,4.7,7.05,12.45-7.92,24.24-17.92,24.24-17.92l6.05-1.05-.53,2.76-5.49,1.04-.02.96,6.19-1.28-.44,3.65s11.94-2.17,17.98-2.22c0,0,.15-30.43.12-33.75-.02-3.58,0-7.87,0-7.87h0Zm-.84.57l-.03,2.28-3.28,1.59.36-2.32,2.95-1.55Zm-27.85.71c.29.02.76.46,1.44,1.31,3.16,3.9,3.59,4.65,2.55,5.69-1.23,1.23-2.95.04-4.8-3.38-.25-.46-.55-1.05-.74-1.26-.68-.8-.38-1.05.48-.99.47.04.7-.13.71-.62.01-.52.13-.76.35-.75Zm75.44,1.98c1.42.1.8.56.56.86-.39.5-.52.79.31,1.17.14.07.45.45.17.61-.66.45-3.6,1.8-4.67,2.16-2.07.69-3.35-1.01-2.13-2.7.51-.71,4.01-2.23,5.76-2.11h0Zm-78.63.31c.66,0,1.37,1.7,1.53,1.94,2.1,3.16,2.36,4.63.98,5.55-.88.67-2.74-.29-3.17-2.33-.33-1.56-.48-3.19.03-4.49.19-.49.41-.68.63-.67h0Zm31.02.64l.02,2.47-3.98,2.02.37-2.72,3.6-1.76Zm8.12.1l3.75,2.45.22,2.1-3.87-2.15-.09-2.4Zm41.79,2.43c.1,0,.15.05.15.16,0,.29-.07,1.32.49,1.42,1.1.18.85.53-.11,1.37-1.04.93-2,2.04-3.26,2.72-3.25,1.21-4.25-2.22-1.19-4.05,1.27-.76,2.56-1.36,3.93-1.62h0Zm-41.69,1.27l4.34,2.58.15,2.59-4.32-2.21-.18-2.96Zm-8.38.24l.02,2.26-4.24,2.45.35-2.52,3.87-2.18Zm52.22,2c.28-.01.35.27.35.8-.07,1.53-2.57,7.18-4.56,4.29-.55-1.08.01-2.19,1.76-3.53,1.39-1.06,2.1-1.55,2.46-1.56h0Zm-84.6.3c.34.5.87,1.15,1.1,1.45-.05.43-.74.62-1.31.78,0,.06.05-1.46.21-2.23Zm32.43,1.3l-.03,2.87-5.03,2.76.54-3.19,4.51-2.44Zm8.32.4l4.98,2.68.58,3.17-5.52-2.88-.04-2.96Zm-8.33,3.9v2.89l-5.65,2.92.38-2.85,5.26-2.96Zm8.42.25l5.57,3.19.73,3.01-6.22-3.24-.08-2.97Zm-78.93.09c.91-.01,1.24.97.55,1.59-.46.43-1.75.34-1.86,0-.58-.57.22-1.58,1.31-1.59Zm1.57,3.07c.16-.01.32,0,.5.01.67.08,1.07,1.13.67,1.67-.74,1.01-2.7.31-2.42-.96.37-.48.77-.68,1.25-.72h0Zm68.84.95v2.58l-6.15,3.27.39-2.89,5.76-2.96Zm8.69.36l6.34,3.43.49,2.89-6.82-3.57v-2.75Zm-80.41.08c.31-.02.55.07.68.3.12.21.26.73.7.99.82.48.91.58-.66,1.27-.66.29-1.95,1.18-2.4,1.48-1.38.94-1.94.62-2.04-.48-.13-1.4,2.39-3.48,3.72-3.56Zm4.76,2.11c.32-.02.63.04.85.19.53.35.55,1.06.05,1.41-1.16.75-2.98-.28-2.01-1.17.27-.25.7-.41,1.11-.43h0Zm66.95,1.4l.03,3.35-6.86,3.65.45-3.4,6.37-3.6Zm-70.34.39c.45-.03.88.08,1.25.36.41.52.89.68,1.18.69,1.18.05.8.48-.43,1.05-1.7.78-2.89,1.77-4.12,2.92-1.27,1.19-1.37,1.45-1.78.96-1.56-1.82,1.48-5.83,3.9-5.97Zm79.15.04l7.18,3.96.62,3.34-7.8-4.38v-2.93Zm-74.42,2.36c.29,0,.56.06.78.24.51.42.22,1.23-.49,1.6-.6.31-1.59.18-1.88-.11-.68-.69.55-1.7,1.59-1.73Zm-3.47,1.68c.44-.04.83.52,1.19,1.13.12.15.62.09.97.09,1.34.01,1.53.58.23,1.31-.38.21-1.63,1.18-2.47,1.89-2.26,2.17-3.48,1.66-3.19-.56.28-2.13,2.11-3.75,3.28-3.86h0Zm77.9.21l7.93,4.38.77,3.6-8.7-4.73v-3.26Zm-8.75.07l-.03,3.32-7.46,3.98.58-3.37,6.91-3.93Zm8.87,4.22l8.88,5.42.33,3.53-9.2-5.34v-3.6Zm-8.87.59l.02,3.25-8.25,4.22.42-3.07,7.82-4.4Zm-66.97,2.15c.21,0,.41.03.57.1.97.45.71,1.22-.74,2.02-1.48.81-1.99.67-2.31-.24-.27-.77,1.34-1.86,2.48-1.88h0Zm92.69.44c15.43,3.56,30.55,11.26,45.22,24.71l-3.07,2.18s-12.86-14.78-41.43-23.44l-.72-3.45Zm-16.75,1.55l4.28,2.54v.65s-4.28-.35-4.28-.35v-2.84Zm-72.94.03c.32.02.61.21,2.14.94,6.14,4.47,8.61,7.17,10.13,12.07.91,2.94.9,2.82-2.11,1.22-2.83-1.51-6.7-4.02-9.2-7.27-.41,7.64.47,17.13.47,17.13,3.84,1.91,2.6,6.87,2.59,6.84,9.88-2.72,7.71,10.42.35,7.59,1.75,9.86-9.44,9.05-8.3.61-8.91-.35-7.34-10.14.06-8.79-.77-3.02.29-5.07,3.02-6.36l-.42-12.9s-7.27,10.51-8.48,10.34c-.71-.1-1.78-1.3.02-10.52.94-4.8,5.99-10.64,8.81-10.83.5-.03.71-.09.9-.08h0Zm7.1.1l1.3.9-1.29,2.44-1.59-1.19,1.58-2.15Zm56.83.63l-.04,1.93-4,.24,4.04-2.17Zm-42.42,21.94c-.03.82.39,1.05.59,1.22,9.41,1.47,15.17,13.08,10.82,21.48.15.53.52,1.04.82,1.52,4.59-6.56,1.17-22.68-12.22-24.22Zm2.11,4.31c.57,1.28.61,1.4.98,1.74,3.32,1.24,6.88,6.56,6.03,12.03.15.29.57,1.09.79,1.55,1.44-4.28-.37-12.73-7.8-15.31h0Zm73.47,17.24c-1.92,6.26-4.4,12.42-8.6,17.85l-.52-2.71c3.95-6.12,5.83-11.68,6.67-14.12l2.45-1.02Zm-3.73,1.62c.25.4-3.83,10.2-5.84,11.98l-.79-2.53c1.64-2.5,4.07-8.53,4-8.58l2.63-.87Zm-24.88.01c-.13.01-.17.12-.17.37,0,.9.93,1.61,2.62,2,2.29.52,5.5-.28,5.5-1.37,0-.63-.44-.68-1.75-.06-1.65.77-3.1.62-5.24-.53-.49-.26-.79-.42-.95-.4h0Zm20.61,1.47c-.64,2.37-1.61,4.4-2.82,6.21l-.57-1.43c.83-1.36,1.39-2.91,2.09-4.42l1.3-.35Zm-2.61.86c-.31.83-.65,1.78-1.36,2.52l-.92-1.96,2.27-.55Zm-14.59,1.82c-1.46.03-3,.53-3.13,1.36-.06.4.53.25,3.42-.11,1.52-.19,2.25.72,3.65.63.71-.08.05-.75-.18-.94-.78-.67-2.3-.97-3.76-.94Zm-6.53,1.81c-.16.03.02.43.6,1.45.31.55.39,1.67.45,2.37-.07,1.73-.07,1.68.78.68.53-.53,1.57-.42,3.22.03,1.06.29,1.31.39,2.05-.07.85-.54,1.05-.27,1.79-.12.71.14,1.35-.14,2.13-.36.95-.26,1.13-.2,1.96,0,1.26.6,1.08.55,1.18-1.61.11-2.12-.01-2.27-1.23-1.56-1.18.69-1.99,1.01-3.8.37-1.97-.69-2.25-.52-3.65-.09-1.69.51-2.46.69-3.81-.14-.89-.55-1.48-.98-1.66-.95h0Zm-27.59,3.2l.76,1.24c6.83,2.46,11.45,8.08,8.72,17.56l.65,1.05c3.42-9.55-.48-17.45-10.12-19.85Zm2.11,4.04l.93,1.92c5.14,2.5,4.83,9.39,4.54,9.12l.81,1.79c1.28-4.46-1.06-11.04-6.28-12.83Zm21.01,10.37s.31.67,2.66,2.3c2.02,1.41,3.57,2.45,3.45,2.65-.08.13-1.33-.17-2.23-.44-2.34-.7-5.8.14-7.74,1.52-.49.33-1.31-.03-2.02-.22-.28-.08-.91-.16-1.22-.08-1.47.39-.05,1.8,3.54,3.63,4.4,2.25,6.79,2.45,9.46,1.09,1.78-.93,2.41-.24.47.82-6.99,2.25-9.62-1.46-14.46-3.58,4.57,5.5,13.19,7.01,16.5,3.5.17-.06.58-.03.77-.03.92,0,.96-.29,0-1.82-.58-.92-1.75-1.89-.33-3.02,1.08-.86,1-1.26-.3-1.66-.34-.1-.31.13-.83-.29-1.69-1.38-3.37-2.57-4.72-3.38-.89-.52-2-.9-3.01-.99h0Zm1.79,4.94c1.32.04,2.64,1.06,3.05,2.89.04.16.07.33.09.51l-1.12.04c-.93-3.74-3.73-2.5-4-.31l-1.01-.14c.37-2.09,1.68-3.03,2.99-3h0Zm20.48.22c1.19.06,2.39,1.15,2.73,2.97l-.75.11c-.49-1.38-2.7-3.23-3.75.13l-.94-.04c.33-2.27,1.52-3.23,2.71-3.17h0Zm-17.09.9c.29,0,.87.08.98.31.31.71-.56,1.23-.67.99-.19-.07-.42-1.23-.31-1.31Zm14.1.18c.34.22-.24,1.16-.54,1.51-.3.32-.96.05-1.24-.27-.24-.31-.04-.9.34-1.14.53-.35.88-.45,1.44-.1Zm6.6.02c.61.18.99.27,1.08.8,0,.36-.4.74-.87.76-.21,0-.99-.57-.84-1.4.11-.33.45-.22.63-.16Zm-27.92.04c.21-.01.41.04.51.18.17.26-.14,1.02-.22,1.12-.04.05-1.04,0-1.02-.07.02-.08-.09-.65.15-1.07.14-.09.36-.16.57-.17Zm18.78,2.65h0c.09,0,.31.05.5.18,2.82,1.85,6.44,2.67,9.04,1.35.58-.29.96-.28.96,0,0,.31-.65.95-1.85,1.31-2.69.81-7.12-.26-8.65-1.92-.45-.49-.27-.95-.01-.93h0Zm-24.67,1.93c-.27,0-.36.15-.3.48.18,1.1,7.71,5.45,10.86,6.04,2.58.48,4.59.27,6.17-.66,3.84-2.25,2.86-5.29-.9-3-2.52,1.54-8.92.83-12.73-1.38-1.69-.98-2.65-1.47-3.1-1.48Zm24.93.47c.22,0,.5.09.8.26,3.11,1.69,5.42,1.71,7.28,1.17,1.89-.72,2.28-.85,2.48-.68.97.82-.62,2.09-3.51,2.58-2.31.38-3.7.46-6.34-1.51-1.53-1.14-1.37-1.85-.7-1.83h0Zm-23.99,5.99c6.59,2.46,14.01,8.2,17.33,15.14l-2.05-.02c-2.29-4.02-6.81-9.13-14.27-12.72-.34-1.06-1.05-1.94-1-2.41h0Zm34.71,3.19v2.2c-4.12,2.09-7.57,5.31-10.17,9.75l-2.33-.03c2.67-4.76,6.67-9.22,12.5-11.92h0Zm0,3.36v2.7c-2.6,1.54-4.78,3.57-6.3,5.89h-2.76c2.21-3.76,5.24-6.77,9.06-8.59Zm-30.28,2.21c2,1.24,5.09,4.17,6.24,6.44l-1.06.05c-1.08-1.39-2.81-2.98-4.21-4.23-.53-.63-.82-1.45-.97-2.26h0Zm30.28,1.6s.03.02,0,.06v2.15c0,.06-1.98,1.36-2.82,2.57h-2.24c1.54-2.8,4.73-4.79,5.05-4.78h0Zm0,3.57v1.21h-1.41c.09-.13.87-.99,1.41-1.21h0Zm-27.43.3c.42.22.75,1.02.75,1.02l-.38.04-.37-1.06Z"/>
    <path id="uuid-f966d7fc-66b4-4447-a806-344ba21e4300" data-name="path3052-2-5-5" class="uuid-9db37293-0830-4a5e-8082-aef5f3a940c8" d="m52.48,271.93c4.63.13,14.41-1.62,14.25-1.44,0,0,30.33,50.8,29.1,50.3-.39.63-38.86.61-38.86.61-.83.01,8.16-18.82-4.49-49.47Zm13.75-35.79c14.78-12.35,30.26-12.44,46.89-14.13l.38-41.95,6.02,3.63.13,38.44c21.95,1.66,40.88,9.76,57.15,23.94.2.31-23.53,13.1-33.93,16.49-20.82-10.88-39.21-8.08-56.76-.18,3.36-20.25-12.33-23.44-17.85-24.38-.69-.12-1.52-1.62-2.02-1.86Zm-18.97,6.55c.26-4.32-.02-8.63-.34-13.05-.08-1.01-8.64,13.13-9.12,9.7-1.2-8.58,3.03-19.5,9.67-20.83.66-.9,13.82,7.31,13.22,14.4-.2,2.31-11.74-7.81-11.79-7.2-.27,1.18.34,17.02.7,16.99,3.32,1.89,2.6,4.31,2.96,6.31,8.91-1.32,8.42,8.64.01,8.32.52,11.77-10.32,6.45-8.19.18-10.92-.52-5.54-10.8-.1-8.54-.33-2.59.31-5.3,2.97-6.29h0Zm13.09-49.73l-23.85-1.61,1.19-55.62c13.6-26.95,50.03-12.5,50.05-9.86-20.43,12.98-27.28,37.23-27.38,67.09h0Zm41.24-23.04l-.69-6.18c-1.78-3.84,46.33,18.56,46.88,19.03l1.4,6.59c.28,2.9-30.6-11.73-47.58-19.45Zm87.58-10.96c-3.59,27.72-3.39,55.61-23.76,65.25,15.32,14.96,28.13,3.43,47.43-6.26.52,0-.64-59.36-.97-59.31-7.64.41-15.19.58-22.7.32Zm-.17-39.64c-1.1-1.42,8.36,2.54,12.11,8.07-.56-.64-.64-19.56-.81-18.81-.42.22-3.33-1.88-2.57-5.83-8.37,1.86-7.91-9.09-.6-8.65-.95-9.97,11.14-6.31,7.92.37,10.34-1.92,8.56,9.78.74,7.88.66,4.44-1.15,5.66-3.69,6.55.16,1.86.86,14.26.86,14.26,0,0,7.65-11.81,8.19-10.79,2.7,2.57-2.13,19.5-8.49,19.99-5.47,1.07-14.93-10.23-13.66-13.06h0Zm-24.65-30.95c-3.45,11.98,6,25.67,14.93,25.64,1.8-.29,5.24.69,4.05,1.66-14.09,11.5-46.97,13.89-46.98,13.39.34,14.12-.28,28.38-.62,42.5l-6.02-3.66c-.19-12.88-.51-26.05-.8-38.92-21.07-2.77-40-9.62-54.96-24.18,9.93-7.42,21.8-12.05,33.2-16.74,14.35,7.51,34.34,11.85,57.19.31h0Zm-11.85-59.38s27.19.27,40.34.11c-4.42,18.3-1.29,34.69,4.42,50.43-1.51-.36-11.57.47-14.02,1.57-.39.4-30.73-52.12-30.73-52.12h0Z"/>
    <path id="uuid-4b777cc9-5fb1-49f5-90ca-56f3bdb22312" data-name="path3050-3-4-7" class="uuid-d3a04293-dcd6-4f48-96c3-d7041fd7267d" d="m96.63,320.72l-29.59-50.35,4.44-1.94,30.51,52.37-5.36-.07Zm-52.66-67.32l4.28-4.43,4.29,4.38-4.48,4.2-4.08-4.14Zm94.94-28.24l-.6-3.6c17.05,4.21,31,13.04,41.04,22.66l-2.39,1.76c.75-.2-24.22-19.07-38.05-20.82h0Zm-48.97-3.28l4.86-1.05-.15,3.03-4.72.95v-2.92Zm99.25-2.66l-2.95-2.39,2.12-2.53,2.86,2.27-2.04,2.65Zm-100.14-24.4c11.5-8.5,12.35-18.55,12.32-18.52l3.99.95-9.21,38.59-6.38,1.41c-.03-7.38-.72-15.05-.72-22.43Zm48.17,21.84c-2.48-8.12-7.37-26.5-7.37-26.5.18.6,15.88,5.1,21.47,3.46,2.39,3.3,5.02,6.2,7.79,8.85-5.81,5.73-13.03,10.51-21.9,14.19Zm65.8-29.58l-2.76-2.41,2.48-3.06,3.04,2.33-2.75,3.14Zm-36.12-1.61c-2.25-4.08-2.41-8.69,1.77-13.24l-1.77,13.24Zm-85.94-7.11c-.08-4.15.46-8.1,1.44-11.92,2.42,4.41,2.39,8.83-1.44,11.92Zm63.22-3.8s6.08-28.39,8.71-39.51l6.71-1.57-.3,22.99c-6.68,5.49-11.38,18.58-11.16,18.58l-3.96-.49Zm-97.7-4.72l-2.93-2.76,2.91-2.84,2.49,2.87-2.47,2.73Zm52.57-11.07c-2.12-3.11-5.02-6.3-8.06-9.51,4.99-7,13.29-11.05,22.07-14.23l5.95,26.67c-6.72-2.04-13.97-4.25-19.96-2.93h0Zm-41.21-23.78l2.07-2.59,2.71,2.15-2.06,2.87-2.72-2.42Zm97.22-7.8l4.19-.94.15,3.27-5.02.93.68-3.26Zm-84.67-20.38l3.19-2c11.21,10.15,23.6,17.15,37.11,21.13l.45,3.78c-15.23-4.73-29.17-11.3-40.75-22.91h0Zm131.04-4.05l-4.15-4.13,3.74-4.19,4.44,3.87c-1.47,2.23-4.03,4.45-4.03,4.45Zm-23.01-20.08l-31.09-53.45,4.49-.04,30.59,51.48-3.99,2Z"/>
    <path id="uuid-9fa307cc-43cf-492f-898c-9aacafbaff77" data-name="path3048-5-8-9" class="uuid-0d199ec1-b590-4591-b34f-ebe4e5a6169e" d="m147.06,28.34l-7.43.03,42.16,85.47c-12.88-.06-20.41-13.72-17.16-25.96-26.1,11.91-42.26,7.52-57.34-.06l-6.43,2.49c.43-3.91,5.23-18.61,12.41-25.52v-7.41s-.18-3.5-.18-3.5l-.57-6.35c-10.69,10.14-23.16,26.11-24.72,48.78,0,0-9.73,5.04-18.04,10.61.46-.06,12.94,15.38,42.91,24.05l-1.32-4.93c4.46,1.26,10.79,2.26,17.09,3.06l.84,38.7,7.16,4.27.24-42.84c.22.18,11.42-.4,17.44-1.85l-.85,4.13,5.96-1.18v3.01l-6.53,1.55-9.3,40.05,5.42,1.22c1.59-8.07,5.59-14.59,11.39-18.59l-.06-1.54c3.72-2.69,11.45-4.83,11.5-4.78,2.64-12.99,8.78-21.99,15.3-30.55l-3.11-4.26,11.92-4.41-16.55-28.37c6.37-4.43,18.99-2.78,18.99-2.78-5.41-14.72-10.17-29.91-4.82-52.2l-46.03.04-.33-.36Zm44.67.81c-2.93,17.07-1.96,33.69,4.83,49.48,0,0-.99.06-1.11.03-.09-.02.12-.85.07-1.07-.14-.59-1.11-.31-1.93.24-.36.24-.77.52-1.03.65-.84.42-5.11.39-5.11.39,1.39-.95,3.35-3.62,2.21-5.18-.26-.33-.41-.19-.67.26-1.21,2.17-1.81,2.51-3.43,2.49-2.54-.03-4.36-1.62-4.15-4.01.2-2.32,3.6-3.55,3.09-1.3-.14,2.01,1.84,2.4,2.2.4.14-.75.03-.4.19-1.28,3.95-2.12,1.77-6.42-1.92-5.52-.87.23-.98.31-1.59,0-1.14-.59-2.08-.41-2.51.42-.38.73.2,1.31,1.04,1.32.88,0,1.05.43,1.04.96,0,1.23-2.12,1.82-3.51,1.11-3.69-1.9-2.33-6.83,1.96-6.82,1.3,0,1.85.09,1.9-.2.16-.8-1.83-2.18-2.96-1.97-.95.19-1.53.44-1.03-.84.31-1.32.3-1.91.04-2.91-.69-1.41-.67-.69-1.09.46-1.41,2.36-3.54,2.88-5.37,1.59-1.7-1.2-1.65-3.47-.03-5.1,1.12-1.13,2.33-.36,1.65.9-.28.52-.06,1.17.44,1.3,1.01.26,1.65-.34,1.65-1.58-.02-.68-.21-.84,1.01-1.54,3.16-1.82.8-6.78-2.77-5.19-.78.35-.97.69-1.32.53-1.49-1.42-3.63.37-2.36,1.32.55.27,1.22.37,1.39.39.31.18.21.62-.24,1.17-1.48,1.75-4.83.89-5.62-1.59-.92-2.86,1.99-5.88,4.22-4.21.66.49,1.23.55,1.23-.19,0-1.14-1.42-2.44-3.23-2.32-1.84.13-1.64.37-.64-1.31.74-1.49.64-2.95,0-3.83-.5-.68-1.01-.82-.96-.1.4,2.22-2.17,4.33-4.29,3.4-2.03-.92-3.04-3.21-2.04-5.2.92-1.84,3.16-2.03,2.78-.07-.18,1.25.77,1.91,1.68,1.17.33-.27.41-.5.43-1.31.03-.9-.34-1.16.24-1.69,1.51-.2,1.6-3.43,1.37-3.57l24.22-.11Zm-35,.1l5.43.02c-.01,3.72-4.84,3.34-5.43-.02Zm7.99.01c.96,0,1.75.33,1.75,1.29s-.77,1.74-1.73,1.74-1.74-.78-1.74-1.74.76-1.29,1.71-1.29Zm-16.98.13h3.85l30.41,51.09-3.6,1.77-30.66-52.85Zm6.32,1.78c1.84,1.06,3.54,1.94,5.86,2.16-.68,1.38-1.3,2.9-1.41,5.48l-4.45-7.65Zm6.19,10.29c1.88.68,3.5,1.7,6.6.67-1.65,1.47-2.58,3.23-3.28,5.08l-3.32-5.75Zm15.82,6.17c.89,0,1.61.73,1.61,1.62s-.72,1.61-1.61,1.61-1.6-.72-1.6-1.61.72-1.62,1.6-1.62Zm-9.85,4.03c1.36.5,2.78.84,4.35.76-.78,1.08-1.05,2.73-1.1,4.61l-3.26-5.37Zm4.66,8.05c1.26.62,2.74,1.51,5.38,1.23-1.75,2.99-1.37,3.81-1.55,5.12l-3.83-6.34Zm15.24,5.93c.93,0,1.68.76,1.68,1.69s-.75,1.69-1.68,1.69-1.68-.76-1.68-1.69.75-1.69,1.68-1.69Zm-9.44,3.8c1.15.65,3.42,1.03,3.44.85-.15-.11-.65,2.21-.74,3.66l-2.7-4.52Zm5.29,8.7c1.63.97,3.44.88,4.5.99-1.14.23-2.21.52-3.43,1l-1.08-1.99Zm19.27,9.55c-3.94.26-4.85,3.3-4.38,6.38-3-.48-6.36,2.38-5.42,5.89.89,3.33,3.96,3.44,6.08,3.22-.16.81-.61,3.52,2.65,5.82l.43,17.26s-1.44-1.33-2.37-2.27c-4.09-4.11-10.25-7.08-9.86-4.77.06.34.19,1.2.29,1.92.65,3.91,5.86,8.14,9.41,10.26,1.27.71,2.06,1.48,2.06,1.48-6.64,7.16-10.22,14.8-11.1,22.38-.83,7.04-1.5,13.39-2.15,19.86-2.71,32.45-16.52,40.61-17.18,42.2l-.26,4.33-3.86-.29-4.44,3.87c14.56,7.58,23.05,16.73,22.93,16.9,11.62-7.67,21.65-16.19,31.12-25.01l-.18-72.24s-.79.29-.99.29c-.72,0-.81.32-1.06,1.71-.13.74-.57,1.42-.91,1.91-.65.92-.42.46.4.79,1.86.76-.56,4.21-3.21,4.63-1.91.3-2.97.66-3.3,1.1-4.02,3.54-8.02,4.1-11.04,2.8-1.49-.64-3.11-1.58-3.65-3.14-1.24-3.55,1.35-8.66,2.87-11.61,2.78-5.41,7.41-9.48,7.41-9.48l-.76-.83c2.09-.12,5.14-1.29,6.05-2.6,4.47-6.23,6.66-14.61,4.55-19.29-3.15,2.43-6.32,8.11-8.18,11.45-.64-4.96-.83-13.61-.83-13.61.67-.74,4.44-.33,3.61-6.53,3.33,1.51,6.83-.8,6.68-4.03-.23-5.03-4.07-4.88-7.2-4.24,1.49-3.04-1.34-6.69-4.19-6.51h0Zm-.06.42c4.11.13,4.92,4.7,2.41,7.3,0,0-1.63-1.27-2.5-1.99-.82.65-1.06,1.21-1.96,1.88-1.07-.8-1.72-2.21-1.73-3.57.05-2.12,2.17-3.68,3.78-3.63Zm-93.86.14c16.63,9.36,37.47,10.03,56.55.49l-.23,1.59-2.09,1.19,1.18,2.19.66-.32.02,1.45c-15.73,8.56-42.08,10.34-62.71-3.89,1.06-.67,4.08-1.43,4.08-1.43l-.99,1.22,2.58,1.69,1.22-1.85-1.95-1.41,1.69-.91Zm1.46,2.87l-.95,2.18,2.39,1.28.91-2.2-2.34-1.26Zm-9.04.24c25.6,16.2,49.43,11.38,63.74,4.75l.18,1.73c-18.47,7.92-42.76,10.05-65.88-5.62l1.95-.86Zm60.26,1.04l-2.28.92.9,2.1,2.34-1.01-.97-2.01Zm-63.32.39c20.8,13.52,43.12,16.17,67.17,6.26l.92,2.59c-23.42,9.48-48.14,8.39-70.72-7.73l2.63-1.12Zm15.99.08l-.93,2.27,2.58.99.75-2.22-2.4-1.03Zm43.75.94l-2.26.74.7,2.17,2.33-.8-.78-2.1Zm-39.81.62l-.56,2.28,2.63.75.46-2.29-2.54-.74Zm91.22,0c1.95-.05,3.85,1.48,4.06,3.75.35,3.87-5.34,5.74-7.48,2.13l1.88-2.3-1.68-1.58c.86-1.36,2.05-1.97,3.22-2h0Zm-114.35.13l6.21,4.3-4.51,7.06-6.68-4.52,4.98-6.84Zm102.42.06c.95-.01,1.91.36,2.7,1.31l-2.22,2.6,2.4,2.57c-2.84,3.05-7.09,1.17-7.04-2.57.02-1.96,2.07-3.88,4.17-3.91Zm5.15.14l3.94,3.45-3.62,4.27-3.7-3.76,3.37-3.95Zm-48.39.17l-2.37.71.54,2.09,2.45-.64-.62-2.16Zm-31.94.66l-.44,2.25,2.72.59.46-2.24-2.74-.6Zm28.03.38l-2.52.55.43,2.24,2.53-.53-.44-2.26Zm52.57.53l-2.08,2.06,2.08,2.17,2.09-2.17-2.09-2.06Zm-76.24.07l-.32,2.27,2.85.39.22-2.29-2.75-.36Zm19.19.31l-2.56.29.26,2.22,2.66-.34-.36-2.18Zm-15.13.26l-.03,2.33,2.5.2v-2.31l-2.47-.22Zm11.02.22l-2.51.09.02,2.25,2.56-.16-.07-2.18h0Zm-45.77.02c-1.48,0-2.67,1.2-2.67,2.69,0,1.49,1.2,2.69,2.67,2.69s2.67-1.21,2.67-2.69c0-1.49-1.19-2.69-2.67-2.69Zm41.56.08l-2.47.02v2.28s2.55.01,2.55.01l-.09-2.31Zm65.37.01l1.08,1.09-1.08,1.07-1.11-1.07,1.11-1.09Zm0,.7c-.22,0-.4.17-.4.38,0,.21.18.38.4.38s.39-.17.4-.38c0-.21-.18-.38-.4-.38Zm-106.94.16c.97,0,1.75.79,1.75,1.77s-.78,1.77-1.75,1.77-1.76-.8-1.76-1.77.79-1.77,1.76-1.77Zm-9.5.13l3.55,2.92c-1.13,2.18-4.71,6.78-4.71,6.78l-6.56-5.3,3.43-1.96c-.19.36-.29.77-.29,1.21,0,1.46,1.18,2.64,2.63,2.64s2.63-1.18,2.63-2.64c0-1.4-1.09-2.55-2.45-2.64l1.78-1.01Zm-1.98,1.87c.97,0,1.76.8,1.76,1.78,0,.98-.79,1.77-1.76,1.77s-1.76-.79-1.76-1.77.79-1.78,1.76-1.78Zm120.72.84s.97.37,1.2.74c1.91,2.95-.08,6.45-3.27,6.38-3.73-.08-4.71-4.79-2.15-6.72l2.08,1.99,2.13-2.39Zm-96.97,1.2l7.35,2.84-2.79,8.05-8.04-3.32,3.47-7.57Zm-30.22.84c30,27.24,72.61,29.2,103.58,11.12l1.89-.04,1,1.03c-35.28,21.03-79.15,16.46-108.76-10.61l2.29-1.5Zm82.59,1.62l2.37,7.96-8.13,2.16-1.82-8.06,7.58-2.06Zm-85.67.29c9.1,8.84,21.98,16.59,37.09,20.99l.37,3.26c-16.05-4.86-28.17-11.34-39.97-22.6l2.51-1.65Zm35.24.13c-1.45,0-2.63,1.19-2.63,2.65s1.18,2.64,2.63,2.64c1.45,0,2.63-1.18,2.63-2.64s-1.18-2.65-2.63-2.65Zm-13.08.59l7.59,4.04-3.78,7.62-8.05-4.35,4.25-7.31Zm13.05.28c.97,0,1.76.8,1.76,1.78s-.79,1.77-1.76,1.77c-.97,0-1.76-.79-1.76-1.77s.79-1.78,1.76-1.78Zm12.56,1.08l7.29,1.07-.34,8.14-8.5-1.03c.33-2.87,1.55-8.18,1.55-8.18h0Zm35.2.2c-1.45,0-2.63,1.19-2.63,2.65s1.18,2.64,2.63,2.64c1.45,0,2.63-1.18,2.63-2.64s-1.18-2.65-2.63-2.65Zm-.03.87c.97,0,1.76.8,1.76,1.78s-.79,1.77-1.76,1.77-1.76-.79-1.76-1.77.79-1.78,1.76-1.78Zm-59.25.11c-1.45,0-2.63,1.19-2.63,2.65,0,1.46,1.18,2.64,2.63,2.64s2.63-1.18,2.63-2.64c0-1.46-1.18-2.65-2.63-2.65Zm46.59.01l1.04,8.18-7.96.4-.47-8.16,7.38-.42Zm57.03.73h1.13c.1,7.04.66,15.19,1.46,21.21.12.9.18,1.16.09,1.32-.78,1.39-1.69-.36-2.04-4.37-.1-1.1-.22-2.71-.36-3.77-.41-3.19-.28-14.41-.28-14.41Zm-134.5.12h0c-11.97,7.52-31.87,25.5-31.75,25.92l.08,69.06,1.56.08,1.29-2.54c-1.99-.5-1.43-4.27,2.38-5.03.65-.13,2.64-.8,3.12-1.18,2.89-2.22,7.6-3.54,10.89-2.66,4.81,1.24,6.2,4.97,3.48,11-2.32,5.13-4.89,10.94-9.71,13.36,0,0,.79.72,1.08.91,9.35-5.45,14.07-24.98,13.82-37.14.38-12.45,2.51-24.94,7.49-34.03,8.24-15.02,19.14-21.05,19.08-21.11,0,0-14.69-8.99-22.81-16.64h0Zm30.84.01c.97,0,1.76.8,1.76,1.78s-.79,1.77-1.76,1.77c-.97,0-1.76-.79-1.76-1.77s.79-1.78,1.76-1.78Zm72.69.28l2.84,7.6-7.89,3.25-2.84-7.99,7.89-2.87Zm-45.37.04c-1.45,0-2.63,1.19-2.63,2.65s1.18,2.64,2.63,2.64,2.63-1.18,2.63-2.64c0-1.46-1.18-2.65-2.63-2.65Zm16.03.66c-1.45,0-2.63,1.19-2.63,2.65,0,1.46,1.18,2.64,2.63,2.64s2.63-1.18,2.63-2.64c0-1.46-1.18-2.65-2.63-2.65Zm-16.07.21c.97,0,1.76.8,1.76,1.78,0,.98-.79,1.77-1.76,1.77-.97,0-1.76-.79-1.76-1.77,0-.98.79-1.78,1.76-1.78Zm16.03.66c.97,0,1.76.8,1.76,1.78,0,.98-.79,1.77-1.76,1.77s-1.76-.79-1.76-1.77c0-.98.79-1.78,1.76-1.78Zm26.83.91c-1.45,0-2.63,1.19-2.63,2.65s1.18,2.64,2.63,2.64,2.63-1.18,2.63-2.64-1.18-2.65-2.63-2.65Zm43.94.7c1.29,4.07-1.05,9.39-1.17,9.73-1.43,4.09-3.16,7.44-3.78,7.64-.53.2-.77.07-.77-.43,0-.77,1.76-6.02,3.15-9.39.49-1.24.92-2.73,1.05-3.93-1.2,2.16-4.15,7.99-4.71,11.74-.29,2.5-.76,2.14-1.1-.83-.48-4.12.42-6.24,5.02-11.99.69-1.01,1.67-1.86,2.32-2.53Zm-43.98.17c.97,0,1.76.8,1.76,1.78s-.79,1.77-1.76,1.77c-.97,0-1.76-.79-1.76-1.77,0-.98.79-1.78,1.76-1.78Zm-55.71.14l7.88,2.03-1.83,8.33-8.89-2.38,2.84-7.98Zm41.8,1.9l2.28,8.16-9.3,1.6-1.45-8.27,8.47-1.49Zm-38.96.82c-1.45,0-2.63,1.19-2.63,2.65s1.18,2.64,2.63,2.64,2.63-1.18,2.63-2.64-1.18-2.65-2.63-2.65Zm13.91.53l8.43.48.08,8.48-9.15-.4.64-8.57Zm-13.94.34c.97,0,1.76.8,1.76,1.78s-.79,1.77-1.76,1.77-1.76-.79-1.76-1.77.79-1.78,1.76-1.78Zm35.37.75c-1.45,0-2.63,1.19-2.63,2.65,0,1.46,1.18,2.64,2.63,2.64s2.63-1.18,2.63-2.64-1.18-2.65-2.63-2.65Zm-17.47.68c-1.45,0-2.63,1.19-2.63,2.65,0,1.46,1.18,2.64,2.63,2.64s2.63-1.18,2.63-2.64c0-1.46-1.18-2.65-2.63-2.65Zm17.44.19c.97,0,1.76.8,1.76,1.78s-.79,1.77-1.76,1.77c-.97,0-1.76-.79-1.76-1.77s.79-1.78,1.76-1.78Zm-17.47.68c.97,0,1.76.8,1.76,1.78s-.79,1.77-1.76,1.77-1.76-.79-1.76-1.77.79-1.78,1.76-1.78Zm58.11.54c2.09.26,8.09,4.65,9.66,7.34,1.35,2.46.65,3.43-.9,1.24-2.14-2.41-6.97-6.18-6.97-6.18,0,0,.57.97,3.09,3.45,2.5,2.46,5.14,5.66,5.14,6.23,0,.38-.5.33-1.21-.12-2.01-1.14-3.73-2.74-5.38-4.23-2.23-1.97-4.81-6.43-4.32-7.58.15-.35.5-.21.9-.16h0Zm-118.23.64c1.62-.05,3.46.99,3.53,2.9.05,1.35.14,1.45,1.35,1.47,1.15.02,4.5.42,4.5.42v3.77s-1.61-.01-3.46-.1c-3.15-.15-3.14-.15-3.54,1.24-.16.56-.39.84-1.02,1.26-2.83,1.88-5.56-1.53-3.81-4.74.6-1.1.64-1.48.22-2.14-.85-1.92.28-3.99,2.22-4.08h0Zm.69,1.93c-.35,0-.73.15-1.08.5-.47.47-.47,1.8,0,2.57.44.74.43.94-.09,1.43-.92.86-.94,2.56-.05,3.21.81.59,1.68-.19,1.68-1.37,0-1.3.9-1.27.9-1.27l5.93.11.02-.97-4.3-.22c-.6,0-1.22-.06-1.68-.38-.49-.34-1.05-.93-.51-1.65.75-1.01.08-1.96-.81-1.95h0Zm-12.85,2.23l2.81,4.82,3.28.12.29,2.93,3.98,2.58-4.08,2.41-.2,2.95-3.09.39-2.87,3.62-2.75-3.62-3.03.02-.04-3.02-4.17-2.71,4.57-2.59-.05-3.46,3.24-.22,2.13-4.23Zm99.3,2.19l.14,2.91-4.6.82.6-2.96,3.87-.77Zm-29.48,2.93l6.2.19-.36,40.84s-1.22-.01-1.45-.01l-.03-1.59-1.98.07-2.02-1.23-.36-38.26Zm-69.81,1.03l-3.64,4.64,4.41,3.88,3.88-4.54-4.65-3.98Zm71.67.62v1.88h2.6v-1.88h-2.6Zm-71.59,1.61l2.56,1.89-1.95,2.6-2.47-2.16,1.86-2.33Zm99.35,1.07l-.08,22.35c-8.52,6.74-11.17,18.6-11.17,18.6l-3.47-.21,8.81-39.38,5.91-1.37Zm-46.18.49c-7.67,3.68-15.39,6.46-23,15.23,2.94,2.67,6.06,5.39,8.82,9.94,6.33-.95,13.38.19,21.06,3.24l-6.88-28.41Zm18.43.5v1.95h2.6v-1.95h-2.6Zm-89.37.09c1.92-.19,2.84,1.64,3.19,2.71.19.59.25,1.23.25,1.23,5.62-.48,4.19,6.1.61,6.33-.42.05.35,1.17,1.18,1.52,2.13.9,3.66.32,5.05-1.55,1.07-1.44,1.13-1.65,1.13-1.65l3.47,1.85s.1-.05-.51,1.55c-1.12,2.92.51,6.5,1.77,3.89.67-1.39,2.64-2.18,4-1.61,1.59.67,2.15,3.54,1.03,5.35-.34.55-.35.66-.14,1.16.31.76.51,2.72.18,3.35-.42.82-.91,1-1.87.34-1.31-.92-2.04-1.3-4.32-1.93-4-.76-4.78-2.18-6.37-5.49-4.74,1.43-11.83-1.56-10.88-8.65.43-1.56.55-4.57-.24-5.18-1.55-1.2.15-2.94,2.48-3.22Zm70.21.66l6.16,26.02c-6.76-2.5-13.4-4.45-19.28-3-2.69-4.33-4.98-6.46-7.97-9.27,5.81-7.07,13.21-11.02,21.08-13.75h0Zm-69.73,1.28c-.4,0-.85.17-1.32.59,0,0,.42.35.64.83.36.76.37.76-.04,2.45-1.88,6.78,2.58,11.26,8.92,9.3,1.56-.49,1.5-.43,1.95,1.41.74,3.03,2.87,4.6,7.1,5.18.26.03.69.12,1.04.33,1.86,1.2,1.1-.4.59-1.01-.36-.48-1.03-.96-1.03-.96,0,0,.57-.37.83-.51,1.19-.64,1.64-3.14.65-3.67-.9-.49-2.43.25-2.43,1.18-.01,1.69-2.13,1.87-3.99.47-2.38-1.81-.27-6.37-.26-6.36l-1.34-.6c.18.16-2.83,4.47-6.53,2.97-2.58-1.05-4.41-4.07-3.21-4.93.87-.24,1.92.25,2.58-.27,1.32-1.05.26-2.88-1.63-2.81-.4.01-1.3.19-1.3.19.1-.85.32-1.45.21-2.28-.11-.82-.68-1.48-1.44-1.49Zm88.91,1.98v1.6l2.57.02v-1.6l-2.57-.02Zm-.03,3.3v1.65h2.6v-1.65h-2.6Zm0,3.56v1.69h2.6v-1.69h-2.6Zm0,3.32v1.79h2.6v-1.79h-2.6Zm0,3.33v1.67h2.6v-1.67h-2.6Zm0,3.4v1.68h2.6v-1.68h-2.6Zm-84.92,1.65l2.57,3.73,2.6.11.1,2.56,4.42,3.41-3.87,2.79-.28,2.76-3.07.1-2.48,4.22-3.05-3.7-2.45-.4-.28-3.37-3.78-2.85,3.55-2.86.29-2.99,2.89.26,2.84-3.76Zm144.27,1.78c.24,0,.49.07.77.21.92.47,1.21.52,3.6.64,2.77.14,3.75.39,5.12,1.31.83.56.88.56,1.76-.03,3.89-2.6,8.33-.24,8.65,4.6.08,1.27.21,1.78.71,2.85.34.74.69,1.32.49,1.79-.62,1.44-3.62,1.53-5.25-.61-.29-.32-.59-.46-.99-.46-.81.3-2.88-1.34-2.86-1.41-.19,1.14-.29,2.05-.49,3.72l-3.63-.06s-.08-.67-.25-3.01c-.19-2.69-.86-3.47-1.71-2.02-1.47,2.5-5.36,1.4-5.59-1.58-.08-1.01-.13-1.14-.68-1.56-1.84-1.42-1.3-4.42.36-4.39h0Zm-59.35.15v1.49h2.6v-1.49h-2.6Zm59.77,1.6c-.72-.09-.31,1.34.88,2.02q.68.39.59,1.57c-.16,2.15,1.89,3.2,2.81,1.44.16-.31.23-.69.16-.95-.38-1.56,2.97-1.14,3.77.48.19.37.39,1.36.49,2.35.1.94.12,2.04.12,2.04h1.07s-.01-.65.05-1.27c.27-2.67,1.44-4.35,3.02-4.35.67,0,.7.12.23,1-.8,1.49-.03,2.56,1.83,2.58,1.18.01,1.18.01,1.62.86.48.93.85,1.22,1.3,1.05.32-.12.32.06-.09-3.11-.62-4.72-3.34-5.99-7.11-3.32-1.07.76-1.3.73-2.25-.19-1.42-1.38-2.31-1.69-5.08-1.8-1.13-.07-2.31-.26-3.4-.4h0Zm-89.34,1.35c-.62.01-1.33.14-1.95.2.69,3.65,1.01,7.3,1.32,10.95,3.17-.56,7.28-.04,12.69,2.51,3.32,1.56,7.38,4.23,11.64,7.24,4.61,3.26,10.01,5.19,14.61,6.19,5.6,1.23,10.1,1.12,9.98.85-.25.04-2.02-8.95-1.79-10.88-7.75-.72-15.23-3.61-20.95-7.53-7.57-5.19-16.32-9.7-25.55-9.54h0Zm29.57.31v1.52h2.6v-1.52h-2.6Zm-84.92.3l-4.53,4.34,4.53,4.26,3.75-4.26-3.75-4.34Zm0,2.19l2,2.21-2.04,2.21-2.47-2.28,2.5-2.14Zm57.48.12c.55,0,1.09.39,2.9,1.42,1.52,1.06,2.74,1.72,2.29.06.35-.48,2.03,1.08,4.02,2.05,2.39,1.93,2.4,1.47,2.71.51.32-.7.76-.23,2.68,1.56,2.51,2.35,2.29,2.35,2.79,1.77.57-1.1.76-1.08,2.81,1.29,2.13,2.39,2.58,2.9,3.03,1.88.7-.53,1.06-.02,3.95,2.72,1.42,1.43,1.76,1.21,2.02.25.27-.99.35-.77,2.75,1.15,2.78,2.24,3.05,2.41,3.17,1.63.18-1.23,1.04-.79,3.9,1.28,1.73,1.25,2.39,1.59,2.76,1.28.38-.67-.94-1.97,1.85-.75l.77,4.09-.97-.28c-.59-.17-1.9-.62-1.4.66.28.74-.42.65-2.59-.65-3.11-1.87-3.68-2.29-3.91-1.91-.41,1.4-.36,1.49-2.46-.17-2.44-1.86-2.93-2.38-3.27-1.74-.05,1.41-.72,1.12-3-.86-1.92-1.7-2.33-2.58-3.19-1.28-.24.45-.47.34-.79.1-1.12-.83-3.37-3.23-4-3.91-.5-.55-.78-.37-1.19.08-.38.42-.41.29-1.65-.86-2.97-2.74-3.52-3.43-3.93-3.05-.34.64-.01,1.52-2.29-.29-2.86-2.07-4.1-2.99-3.9-1.64-.49.61-.15.73-3.01-.87-2.72-1.51-3.06-1.97-3.45-1.45-.27.82-1.18.53-1.18.48l-.55-4.16h.98s.94-.37,1.37-.38h0Zm-21.8.35c-.22.64-1.72,4.35-1.74,13.79.18.22,3.71-3.41,3.89-6.8.16-3.21-2.14-7-2.15-7Zm49.23.26v1.72h2.6v-1.72h-2.6Zm-49.05,1.36c3.31,5.28-.34,10.26-1.24,10.61,0-3.97.58-7.7,1.24-10.61Zm86.74,4.44c-5.43,3.45-4.55,12.79-1.89,15.18.2,0,1.91-10.09,1.89-15.18Zm-.74,1.15l-1.46,12.02c-1.9-2.12-2.24-8.44,1.46-12.02Zm34.27,2.03l2.87,3.64,2.55.19.57,2.63,3.73,3.06-3.73,2.55-.33,2.91-2.77.28-2.75,4.35-2.69-4.27-2.57-.28-.08-2.8-4.04-3.01,3.86-2.34.07-3.17h3.02s2.29-3.75,2.29-3.75Zm-101.66,1.14c-1.82,8.74-6.18,14.72-12.33,18.74l.03.88-10.35,4.19c-2.27,10.66-6.35,21.07-14.89,30.83l2.39,4.88-11.56,4,16.55,28.62c1.14,0-8.02,4.37-19.08,3.23,7,17.27,8.44,35.15,4.57,50.81l54.18-.23-41.41-81.91-.68-1.33c-.6-1.13,21.71,2.49,17.22,24.32-.07.49.1.55.37.35,4.39-3.8,33.55-14.35,56.84-.42l6.92-2.89c-3.29,11.62-7.04,19.61-13.35,26.62l1.07,16.54c11.17-9.22,23.28-26.14,24.91-48.63,5.03-2.47,9.4-5.27,14.09-7.92l.62.2,3.03-1.84c-9.73-10.73-29.59-20.98-42.31-23.67l.75,3.63c-7.02-1.9-12.27-2.31-17.74-2.9l-.84-38.48-7.07-4.2-.22,42.45c-5.29.07-17.44,2.17-17.44,2.17l.55-3.63-5.57,1.15-.1-3.54,6.29-1.82,9.13-39-4.58-1.21Zm.76.87l2.91.59-9.03,38.23s-5.07,1.41-5.38,1.21c-.4-7.17-.56-21.78-.56-21.78,8.92-7.49,10.31-12.8,12.06-18.26h0Zm-62,2.81c1.36-.02,2.83.98,2.92,1.88.23.55.43.79.8.84,2.28.32,2.35.93,2.42,2.25-.32,2.54,1.37.41,1.84-2.12.05-.26.02-2.19.02-2.19l2.79-.02s.1,2.01.14,2.33c.25,1.95,1.07,3.53,1.64,2.49,1.96-3.55,6.46-1.74,5.75,1.68-.17.81-.16.86.39,1.48.89,1,1.22,2.07.93,2.99-.29.9-.92,1.04-2.27.49-.63-.26-1.4-.35-3.46-.41-2.8.03-3.85-.23-4.94-1.94-2.59,2.25-5.43,2.05-7.32.87-1.41-.73-2.24-2.48-2.46-5.2-.04-1.45-.44-2.5-1.33-2.85-.48-.46.05-1.36.88-2.19.38-.27.82-.39,1.27-.4h0Zm162.66.41l-3.83,4.82,4.56,4.11,4.24-5.03-4.97-3.89Zm-88.78.69l5.31,3.06.68,37.94-6-.17v-40.83Zm-73.59,2.22c.27.89.33,1.45.25,2.07-.56,4.16,4.16,6.27,7.58,3.39.91-1.05,1.06-.98,1.82.14.94,1.18,2.3,1.57,5.16,1.4,1.3-.08,2.17.62,2.74.16.41-.3.01-1.09-.78-1.55-.48-.28-.5-.33-.41-1.3.24-2.46-1.77-3.11-3.2-1.04-1.18,1.72-2.96.58-3.53-2.25-.34-2.18-.61-2.15-.87-.25-.28,2.31-3.3,4.82-4.5,3.68-.33-.34-.33-.25.01-1.41.44-1.49.09-2.04-1.52-2.43-.26-.06-.57-.29-.67-.49-.8-1.25-.82-1.67-1.96-1.79-1.25-.13-.31.95-.1,1.68h0Zm162.75-.81l2.43,2.11-2.12,2.52-2.59-2.01,2.28-2.63Zm-87.5,1.35v1.79h2.27v-1.79h-2.27Zm0,3.61v1.89h2.27v-1.89h-2.27Zm13.68,2.17c2.54,9.53,5.11,19.04,7.67,28.57,2.42-.98,16.4-7.23,23-15.24-.25.02-6-5.64-8.01-9.31-6.59,1.1-14.17-.3-22.66-4.02Zm-13.68,1.13v1.76h2.27v-1.76h-2.27Zm15.11.48c6.01,1.81,13.71,4.3,20.8,3.03,1.83,3.31,4.47,6.03,7.46,8.55-5.36,5.88-13.12,10.37-21.15,13.83l-7.11-25.4Zm57.05.69c.3,0,.61.12.9.38.95.85,1.69,1.15,3.63,1.47,3.13.51,5.52,2.48,6.19,5.11.28,1.1.44,1.16,2,.77,5.91-1.5,10.46,3.44,9.06,10.03-.49,2.3-.64,2.58.05,3.49,1.5,1.63,1.83,1.65.18,3.09-1.5,1.36-4.47.7-5.1-1.5-.6-1.2-.59-1.3-1.58-1.46-3.85-.62-3.7-5.99-.07-6.61.3-.05.53.01.68-.06,1.03-.47-1.12-2.93-2.9-2.55-2.18.46-3.27,1.87-4.13,4.09l-3.44-1.98c.86-1.8,1.5-4.12.75-5.55-.61-1.21-1.37-1.25-1.6-.1-.55,2.72-3.91,3.53-6.11,1.32-1.23-1.24-1.37-2.57-.47-4.36.59-1.16.6-1.24.35-1.73-.87-1.7.3-3.85,1.61-3.84h0Zm-72.15,2.21v1.84h2.28v-1.84h-2.28Zm72.58.15c-.7.01-.69.69-.05,1.53.57.59.69.86-.11,1.36-1,.93-1.21,2.33-.53,3.4,1.03,1.6,3.41.71,3.14-1.18-.19-1.32.84-1.91,2.48-1.42,2.39.72,3.52,3.41,2.58,6.12-.18.51-.53,1.7-.53,1.7l.7.43s.84-1.34,1.16-1.75c2.71-3.36,9.12-1.66,8.4,2.54-.11,1.32-.11,1.5-1.53,1.08-.95-.49-1.86.53-1.83,1.8.05,1.15,1.04,2.07,2.41,1.88,1.09-.21,1.36-.17,1.28,1.31.11,1.03.49,1.71,1.16,2.06,1.62.67,2.45-.25,1.16-1.62-.78-.83-.74-2.1-.24-3.3.59-1.43.28-4.58-.62-6.36-1.3-2.56-4.94-3.63-7.99-2.35-1.39.75-1.55.92-1.68-.39-.76-3.26-3.2-5.73-6.24-5.95-1.17-.08-2.39-.73-3.13-.89h0Zm-72.58,3.34v1.69h2.28v-1.69h-2.28Zm0,3.31v1.87h2.27v-1.87h-2.27Zm0,3.65v1.87s1.24-.03,2.27,0v-1.87h-2.27Zm74.15,3l2.49,3.71,2.75.19.32,2.99,4.17,2.62-3.62,2.28-.03,2.89-3.45.29-3.05,4.07-2.6-3.6h-2.6s-.61-3.2-.61-3.2l-4.6-2.35,4.71-2.71-.13-3.37,3.21-.02,3.01-3.81Zm-74.15.44v1.92h2.27v-1.92h-2.27Zm0,3.52v1.9h2.27v-1.9h-2.27Zm72.76,1.41l-3.56,4.78,4.8,4,3.81-4.83-5.05-3.95Zm-72.76,1.91v2.08h2.27v-2.08h-2.27Zm73.12.25l2.48,1.93-1.77,2.26-2.46-1.89,1.75-2.3Zm-73.12,3.59v1.74h2.27v-1.74h-2.27Zm-67.58.22c-4.38.02-8.52,7.17-9.51,10.55-1.17,4.33-1.35,12.18-.23,12.4,3.92-2.85,5.78-7.67,8.73-11.28.46,4.18.39,12.23.39,12.23,0,0-1.74.93-2.68,2.39-.68,1.22-.9,2.67-.32,4.02-2.18-.71-6.13.09-6.36,4.15.14,5.72,6.34,4.91,6.36,4.84-.13-.04-1.22,6.08,4.28,6.73,1.97.23,5.44-1.21,4.41-6.78,3.47.58,6.46-1.35,6.5-4.71.04-2.31-1.69-4.29-4.69-4.3-.62,0-1.94.28-1.94.28.04-.33,1.2-3.91-2.83-6.51l-.63-16.55s1.39,1.53,2.01,2.1c2.68,2.48,4.42,3.73,7.51,5.37,3,1.6,2.64,1.2,2.12-1.83-1.42-4.56-4.39-8-10.67-12.3-.81-.55-1.63-.8-2.44-.8Zm.43.35l.88,23.41h-1.3l-1.12-23.38,1.54-.02Zm128.81.77c.12,0,.24,0,.36.01,2.83.24,3.56,3.43,2.29,4.85-.5.56-.68.68-.42,1.02,1.22,1.55.54,4-.67,4.38-3.82,1.2-4.4-.91-4.39-3.39l-5.9-.22.04-3.47,6.51.13c-.49-1.57.45-3.25,2.18-3.32h0Zm-131.48.04c.61-.03-.02,1.7-1.73,4.21-3.01,4.43-4.37,8.42-4.38,12.65,1.37-4.3,2.43-7.8,6.08-13.04.57-.51.72-.2.7,1.52-.03,3.87-1.85,7.95-6.19,12.71-.72.79-1.69,1.66-1.76,1.66-.42,0-.41-.88-.4-2.72.03-7.31,2.75-13.8,6.87-16.65.27-.18.54-.33.81-.35Zm4.32.34c1.9.56,5.32,3.64,6.73,5.23,1.63,1.77,3.82,6.69,3.43,7.44-.13.33-.4.28-1.36-.26-6.06-3.44-10.4-7.68-9.26-9.05.32-.38,1.62.41,3.36,2.04,1.18,1.06,2.4,2.13,3.48,3.21,1.7,1.69,2.09,1.94,1.06.06-.92-1.69-3.53-4.52-6.69-6.92-1.28-.98-1.58-1.77-.76-1.75h0Zm127.53.99c-.08,0-.15.01-.21.04-1.19.51-.71,2.06-.82,3.26l-6.55-.23-.04.92,6.15.34c.11.93-.38,2.95.42,3.29,1.72.72,2.66-1.51,1.2-2.86-.52-.47-1.08-.67.36-1.33.95-.82,1.1-2.42.29-3.13-.23-.2-.55-.3-.79-.29h0Zm-82.9.27l-.33,2.45-3.8.96-.1-2.61,4.23-.8Zm44.82.87c14.03,3.81,29.63,12.46,39.76,22.23l-2.03,1.34c-10.52-9.8-24.4-17.24-37.16-20.93l-.57-2.64Zm-24.18.38c23.1-.06,44.17,8.99,61.17,23.61l-2.78,1.76c-15.5-12.92-32.68-21.53-55.79-22.56-15.11-.67-32.34,3.23-49.33,12.65l-1.26-2.32c16.5-9.07,32.7-13.11,48-13.16h0Zm-1.82,3.51l9.09.27-.56,8.51-8.26-.27-.27-8.5Zm-9.77.61l1.28,8.21-7.91,1.49-2.24-8.23,8.87-1.47Zm28.77,1.08l9.03,2.42-2.98,8.36-7.92-2.28,1.87-8.51Zm-14.46.12c-1.43,0-2.6,1.17-2.6,2.61,0,1.44,1.16,2.62,2.6,2.62,1.43,0,2.6-1.17,2.6-2.62,0-1.44-1.16-2.61-2.6-2.61Zm0,.9c.96,0,1.73.76,1.73,1.71,0,.95-.77,1.72-1.73,1.72s-1.73-.77-1.73-1.72c0-.95.77-1.71,1.73-1.71Zm-17.93.02c-1.43,0-2.6,1.17-2.6,2.62,0,1.44,1.16,2.61,2.6,2.61s2.6-1.17,2.6-2.61-1.16-2.62-2.6-2.62Zm0,.91c.96,0,1.73.76,1.73,1.71s-.77,1.72-1.73,1.72c-.96,0-1.73-.77-1.73-1.72s.77-1.71,1.73-1.71Zm35.74,1.05c-1.43,0-2.59,1.17-2.6,2.62,0,1.44,1.16,2.61,2.6,2.61,1.43,0,2.59-1.17,2.59-2.61s-1.16-2.62-2.59-2.62Zm-50.31.31l2.68,8-7.66,3.13-2.87-7.91,7.86-3.23Zm50.31.6c.96,0,1.73.76,1.73,1.71,0,.95-.77,1.72-1.73,1.72-.96,0-1.73-.77-1.73-1.72,0-.95.78-1.71,1.73-1.71Zm15.01,1.92l8.13,4.33-4.2,7.65-7.57-3.98,3.65-8Zm-68.03.69c-1.43,0-2.59,1.17-2.59,2.61s1.16,2.62,2.59,2.62,2.6-1.17,2.6-2.62-1.16-2.61-2.6-2.61Zm30.7.25l.38,8.08-7.2.51-1.31-8.03,8.12-.56Zm8.63.42l8.2,1.14-1.93,7.78-7.42-1.2,1.15-7.72Zm-39.33.23c.96,0,1.73.76,1.73,1.71s-.78,1.72-1.73,1.72c-.96,0-1.73-.77-1.73-1.72s.77-1.71,1.73-1.71Zm26.87,1.05c-1.43,0-2.6,1.17-2.6,2.61s1.16,2.62,2.6,2.62,2.6-1.17,2.6-2.62-1.16-2.61-2.6-2.61Zm-13.1.33l2.13,7.86-7.91,2.28-2.43-7.56,8.21-2.58Zm28.71.13c-1.43,0-2.6,1.17-2.6,2.62,0,1.44,1.16,2.61,2.6,2.61s2.6-1.17,2.6-2.61-1.16-2.62-2.6-2.62Zm-15.61.45c.96,0,1.73.76,1.73,1.71s-.77,1.72-1.73,1.72c-.96,0-1.73-.77-1.73-1.72s.77-1.71,1.73-1.71Zm15.61.45c.96,0,1.73.76,1.73,1.71s-.77,1.72-1.73,1.72-1.73-.77-1.73-1.72.77-1.71,1.73-1.71Zm27.75.02c-1.43,0-2.59,1.17-2.59,2.61s1.16,2.62,2.59,2.62,2.6-1.17,2.6-2.62-1.16-2.61-2.6-2.61Zm-14.04.76l7.93,2.73-3.16,7.47-7.59-2.91,2.82-7.28Zm14.04.14c.96,0,1.73.76,1.73,1.71s-.77,1.72-1.73,1.72c-.96,0-1.73-.77-1.73-1.72s.77-1.71,1.73-1.71Zm-59.62.28c-1.43,0-2.59,1.17-2.59,2.62,0,1.44,1.16,2.61,2.59,2.61,1.43,0,2.6-1.17,2.6-2.61s-1.16-2.62-2.6-2.62Zm0,.91c.96,0,1.73.76,1.73,1.71,0,.95-.77,1.72-1.73,1.72s-1.73-.77-1.73-1.72c0-.95.77-1.71,1.73-1.71Zm48.02,1.53c-1.43,0-2.6,1.17-2.6,2.62,0,1.44,1.16,2.61,2.6,2.61,1.43,0,2.6-1.17,2.6-2.61s-1.16-2.62-2.6-2.62Zm0,.91c.96,0,1.73.76,1.73,1.71,0,.95-.77,1.72-1.73,1.72s-1.73-.77-1.73-1.72.77-1.71,1.73-1.71Zm-92.83.91c2.07.09,3.63,1.97,3.72,3.92.07,1.48-1.81,3.43-1.81,3.43l-2.19-2.04-2.1,1.95c-.35.12-1.99-2.68-1.49-4.12.65-1.88,1.98-3.21,3.86-3.13Zm117.83,0l6.28,5.18s-2.75,1.69-3.26,1.99c.06-.23.09-.46.09-.71,0-1.44-1.16-2.62-2.59-2.62-1.43,0-2.6,1.17-2.6,2.62,0,1.24.86,2.28,2.01,2.55-.65.37-1.5.86-1.5.86l-3.31-2.8,4.9-7.06Zm-49.94.25c12.64.18,26.18,3.96,40,13.59l-2.78,1.15c-17.09-11.32-40.47-17.51-67.2-6.11l-.92-2.23c9.3-3.9,19.74-6.55,30.89-6.39Zm38.48,2.28l6.73,4.16-4.27,6.61-6.57-4.24,4.11-6.53Zm-40.19,1.23c13.51.02,26.75,4.17,38.16,11.58l-2.82,1.07c-20.86-13.51-43.1-12.79-62.97-4.69l-.31-1.9c9.5-4.15,18.69-6.07,27.93-6.06Zm52.16.99c.96,0,1.73.76,1.73,1.71s-.77,1.72-1.73,1.72-1.73-.77-1.73-1.72c0-.95.77-1.71,1.73-1.71Zm-124.56,1.25c1.14-.01,2.32.55,3.18,1.85l-2.32,2.36,2.12,2.4s-.67.57-1.16.84c-2.78,1.52-5.81-.88-5.67-3.48.13-2.37,1.95-3.96,3.85-3.97h0Zm113.56.05c-1.43,0-2.6,1.17-2.6,2.62,0,1.44,1.16,2.61,2.6,2.61s2.6-1.17,2.6-2.61-1.16-2.62-2.6-2.62Zm-101,.11c2.06.02,3.67,1.61,3.87,3.45.16,1.47-.6,2.87-2.23,3.87-2.21,1.35-4.78-.84-4.74-.97l1.86-1.86-2.24-2.31c-.07-.04,1.48-2.19,3.48-2.18h0Zm-6.46.45l3.82,3.84-4.05,3.8-3.74-3.79,3.97-3.85Zm100.8,10.22l-2.15.99-2.92-1.78-.87,1.67,1.63,1.04-1.69.64c-19.49-11.04-41.52-7.84-56.16-.51,0,0,.13-1.14.14-1.14l1.59-.82-.59-2.03-.85.25-.07-2.25c9.15-4.15,18.11-6.07,28.91-5.96,10.8.11,23.29,3.57,33.04,9.89Zm6.66-9.87c.96,0,1.73.76,1.73,1.71,0,.95-.77,1.72-1.73,1.72-.96,0-1.73-.77-1.73-1.72s.77-1.71,1.73-1.71Zm-107.54,1.37l-2.04,2.04,2.03,2.18,1.98-2.11-1.97-2.11Zm63.8.45l-2.67.12.14,2.2,2.61-.07-.08-2.25Zm1.82.01l.05,2.2h2.42s-.01-2.18-.01-2.18l-2.46-.02Zm4.3.04l-.12,2.19,2.41.11.17-2.17-2.46-.12Zm-10.38.28l-2.74.3.3,2.21,2.59-.31-.16-2.2Zm14.86.03l-.2,2.26,2.47.28.33-2.16-2.61-.38Zm-74.39.01l1.19,1.28-1.18,1.19-1.26-1.24,1.25-1.22Zm54.92.67l-2.64.42.28,2.27,2.57-.51-.22-2.18Zm23.93,0l-.44,2.1,2.46.59.4-2.15-2.42-.55Zm-78.86.2c-.22,0-.4.17-.4.38,0,.21.18.38.4.38s.4-.17.4-.38c0-.21-.18-.38-.4-.38Zm50.6.72l-2.22.59.48,2.21,2.34-.58-.61-2.23Zm32.47.09l-.46,2.14,2.5.69.5-2.05-2.54-.78Zm-36.13,1.06l-2.32.83.6,2.05,2.36-.8-.64-2.08Zm40.44.23l-.77,2.06,2.17.88.96-1.86-2.35-1.07Zm-84.74,1.1c2.31,2.06,2.27,6.87-1.81,7.68-3.57.7-6.84-4.69-3.06-7.51l2.23,2.24,2.65-2.41Zm40.48.1l-2.2.91.91,2.03,2.09-.96-.8-1.98Zm48.24.5l-.85,1.88,2.4,1.06.83-1.81-2.37-1.13Zm-68.31,12.1l30.22,51.77-4.78-.09-29.25-50.03,3.81-1.65Zm-4.96,1.97l1.67,2.62c-3.27-2.63-8.08-.42-7.88,2.89.16,1.48,1.4,2.38,1.4.95-.15-1.49,1.94-2.78,3.46-2.71,2.8.04,4.51,3.66,2.58,5.47-1.27,1.18-2.99,1.13-2.41-.49.09-.56.05-.76-.22-1-.8-.74-2.28.22-1.92,1.28.24.69.31.87-.52,1.44-3.2,2.27-.97,6.74,2.91,4.7.79-.29,1.11-.33,1.47-.19,1.61.63,2.72-.79,1.18-1.52-.89-.43-.91-1.16-.05-1.73,1.83-1.23,4.69.69,4.68,3.16-.01,1.75-2.29,3.04-4.48,2.53-1.3-.3-1.46.59-.26,1.51,2.31,1.79,5.77.3,6.81-2.91.32-1.01.28-1.22.28-1.22l3.08,5.13s-.96-.46-1.53-.63c-2.9-.89-6.16,1-6.17,3.6,0,1.22.71,1.69,1.11.74.93-2.23,2.97-3.1,5.05-2.16,1.93.87,2.81,2.84,2.06,4.6-.79,1.84-3.44,2.38-3.14.64.14-.83-.36-1.34-1.24-1.25-.33.03-.76,1.01-.65,1.48.11.44.03.55-1.1,1.44-2.69,2.12-.62,5.57,2.74,4.57.57-.17.78-.15,1.28.09,1.22.59,2.49.22,2.5-.72,0-.65-.29-.9-1.05-.9-1.15,0-.9-1.32.37-1.96,3.2-1.61,6.47,2.46,4.52,5.63-.84,1.36-1.37,1.5-4.36,1.17-.48-.05-.7.28-.41.68.88,1.26,3.52,1.67,5.05.96,1.66-.76,2.66-2.66,2.78-4.7l3.38,5.95c-2.63-2.77-7.17-1.71-7.9,2.26,0,1.01.91,1.53,1.22.7,1.37-3.58,6.57-2.48,6.55,1.39,0,.62-.12.97-.52,1.52-.95,1.86-3.39,2.31-2.95.65.2-.52-.19-1.07-.87-1.24-.66-.16-1.08.4-1.06,1.41.01.76.02.99.02.99-1.22.52-1.99,1.53-2.26,3.03l-23.67.05c2.82-16.54,2.15-31.47-3.23-45.59-.46-1.22-1.13-3.01-1.13-3.01l4.18.11c1.01.88,4.82.54,6.31-.82l2.35-.58Zm4.02,6.5l2.45,4.43c-1.01-.58-2.04-.97-3.62-1.11.82-1.23.89-2.33,1.17-3.32Zm-6.43,4.71c.89,0,1.61.72,1.61,1.62s-.72,1.62-1.61,1.62-1.62-.73-1.62-1.62.73-1.62,1.62-1.62Zm16.86,13.22l2.35,4.22c-1.15-.49-2.11-.97-3.9-1.02.65-.77,1.21-2.05,1.55-3.2Zm-6.79,4.52c.84,0,1.53.69,1.53,1.54s-.68,1.54-1.53,1.54-1.53-.68-1.53-1.54.68-1.54,1.53-1.54Zm17.06,13.17l3.47,6.22c-1.37-.79-2.84-1.79-4.69-1.6.88-1.89,1.36-2.93,1.21-4.62Zm-6.52,5.62c.96-.09,1.91.78,1.89,2.14h-3.73c.33-1.43,1.09-2.07,1.84-2.14h0Zm5.42.55c1.27.07,2.36.5,3.05,1.62h-4.69s.03-1.62,1.64-1.62h0Z"/>
    <path id="uuid-d2f977d0-ae5e-42cb-ac0e-1e8afe0e28cf" data-name="path163-0-2-5-8-7-5-8-8-7" class="uuid-d3a04293-dcd6-4f48-96c3-d7041fd7267d" d="m66.92,90.58s-5.23-8.59-12.28-18.7c-4.72-6.76-8.49-14.08-8.84-20.39-.4-7.2,3.4-14.43,10.29-14.78,6.89-.35,9.68,5.55,10.82,10.42,1.14-4.87,3.93-10.77,10.82-10.42,6.89.35,10.7,7.58,10.29,14.78-.35,6.31-4.12,13.63-8.84,20.39-7.05,10.1-12.28,18.7-12.28,18.7h0Z"/>
    <path id="uuid-be04e886-fed3-4111-9006-93f49937c041" data-name="path163-0-2-5-8-7-7-8-4-8-6" class="uuid-d3a04293-dcd6-4f48-96c3-d7041fd7267d" d="m182.87,259.42s-5.23,8.59-12.28,18.7c-4.72,6.76-8.49,14.08-8.84,20.39-.4,7.2,3.4,14.43,10.29,14.78,6.89.35,9.68-5.55,10.82-10.42,1.14,4.87,3.93,10.77,10.82,10.42,6.89-.35,10.7-7.58,10.29-14.78-.35-6.31-4.12-13.63-8.84-20.39-7.05-10.1-12.28-18.7-12.28-18.7Z"/>
  </g>
</svg>