<?xml version="1.0" encoding="UTF-8"?>
<svg id="uuid-cf54041a-34a6-4de8-977c-4dd3f0701a7c" data-name="Cards" xmlns="http://www.w3.org/2000/svg" viewBox="0 0 250 350">
  <defs>
    <style>
      .uuid-10921efb-29ab-4829-867e-296538d15759, .uuid-872e28d9-02f4-4fbb-a68d-0ba6ef6e11b0, .uuid-42cc6635-3e8d-4851-8658-61863071b2a8, .uuid-d6f12f47-8f08-4440-8011-9fe7c46d99ae, .uuid-b334857a-9864-47a8-9a52-951c8246eb5e {
        stroke-width: 0px;
      }

      .uuid-872e28d9-02f4-4fbb-a68d-0ba6ef6e11b0 {
        fill: #c8102e;
      }

      .uuid-42cc6635-3e8d-4851-8658-61863071b2a8 {
        fill: #fff;
      }

      .uuid-d6f12f47-8f08-4440-8011-9fe7c46d99ae {
        fill: #ffcd00;
      }

      .uuid-b334857a-9864-47a8-9a52-951c8246eb5e {
        fill: #004c97;
      }
    </style>
  </defs>
  <g id="uuid-a6e7574b-90ea-4e9f-96ed-5739b7e4b4ed" data-name="HEART-11-JACK">
    <path id="uuid-3e4cb8fc-f85b-4461-aeea-f927282c5de1" data-name="rect10346-5-7" class="uuid-42cc6635-3e8d-4851-8658-61863071b2a8" d="m11.86,0h226.08c6.6,0,11.96,5.36,11.96,11.97v326.05c0,6.61-5.35,11.97-11.96,11.97H11.86c-6.6,0-11.96-5.36-11.96-11.97V11.97C-.1,5.36,5.26,0,11.86,0Z"/>
    <path id="uuid-1c094534-76f7-46cd-888c-87b4961b865c" data-name="path10378-7-1" class="uuid-872e28d9-02f4-4fbb-a68d-0ba6ef6e11b0" d="m19.18,78.54s-2.49-3.58-5.85-7.79c-2.25-2.82-4.05-5.87-4.21-8.49-.19-3,1.62-6.01,4.91-6.16,3.28-.15,4.62,2.31,5.16,4.34.54-2.03,1.87-4.49,5.16-4.34,3.28.15,5.1,3.16,4.91,6.16-.17,2.63-1.96,5.68-4.21,8.49-3.36,4.21-5.85,7.79-5.85,7.79h0Z"/>
    <path id="uuid-afa5d998-129f-4a10-8d5b-407d88573045" data-name="path10380-5-9" class="uuid-872e28d9-02f4-4fbb-a68d-0ba6ef6e11b0" d="m230.62,271.45s-2.49,3.58-5.85,7.79c-2.25,2.82-4.05,5.87-4.21,8.49-.19,3,1.62,6.01,4.91,6.16,3.28.15,4.62-2.31,5.16-4.34.54,2.03,1.88,4.49,5.16,4.34,3.28-.15,5.1-3.16,4.91-6.16-.17-2.63-1.96-5.68-4.21-8.49-3.36-4.21-5.85-7.79-5.85-7.79Z"/>
    <path id="uuid-e3af4edf-b63a-4df8-abec-438c2553f2ac" data-name="path35-67-2-8-6" class="uuid-872e28d9-02f4-4fbb-a68d-0ba6ef6e11b0" d="m19.06,15.53v3.88h3.76s.09,3.74.12,11.67c.03,7.7.19,11.52-.3,13.71-1.32,5.05-8.62,5.08-10.07,1.45-.84-2.11-.62-3.76-.66-5.88h-4.04s.02,1.07.03,2.38c.02,5.68,1.9,8.4,6.29,9.47,4.52,1.22,9.8-.64,11.68-4.51,1.12-2.2.99-2.36,1.02-15.69.02-8.89.15-12.59.15-12.59h3.46v-3.88h-11.43Z"/>
    <path id="uuid-e8b0aa3d-7a88-482a-9128-405e36dfee48" data-name="path35-6-7-4-8-8" class="uuid-872e28d9-02f4-4fbb-a68d-0ba6ef6e11b0" d="m230.74,334.46v-3.88h-3.76s-.09-3.74-.12-11.67c-.03-7.7-.19-11.52.3-13.71,1.32-5.05,8.62-5.08,10.07-1.45.84,2.11.62,3.76.66,5.88h4.04s-.02-1.07-.03-2.38c-.02-5.68-1.9-8.4-6.29-9.47-4.52-1.22-9.8.64-11.68,4.51-1.12,2.2-.99,2.36-1.02,15.69-.02,8.89-.15,12.59-.15,12.59h-3.46v3.88h11.43Z"/>
    <g id="uuid-84e9cfd2-f898-421c-9dd9-a827fbfc1fcb" data-name="g3347-7-8-1">
      <g id="uuid-f90c336a-5945-4736-91d1-6fd884833cd0" data-name="g3498-4-3-9">
        <g id="uuid-375c9389-59ed-4646-b993-9c39646f5f30" data-name="g2997-9-2-6">
          <g id="uuid-df8346e7-5106-417b-8e9f-96b5330ade55" data-name="g3884-5-1-3">
            <g id="uuid-686dded1-2f63-4332-8747-d6512c025599" data-name="g3000-2-1-2">
              <path id="uuid-6f59a508-3f29-4e8d-8123-1d955dadebe9" data-name="path2993-7-5-1" class="uuid-d6f12f47-8f08-4440-8011-9fe7c46d99ae" d="m214.3,40.83l-12.89,8.44-.18,9.84c-7.64-3.68-10.97-9.72-12.17-16.78-2.16,2.74-2.37,16.66-2.37,16.66-1.96,1.02-2.05,2.26-3.3,3.46,1.23,2.04,4.72,5.52,4.72,5.52-.02-.06-1.6,14.4.31,14.97,1.74-6.16,4.06-11.54,12.6-17.17,0,0,.13,22.95-.42,45.13-3.61-2.5-11.25-6.98-16.19-11.57,6.4-8.29-.12-19.09-9.68-11.91-8.08-9.58-6.79-24.24-10.41-34.14,0,0-20.4-5.66-29.16-5.2,7.36,19.25,5.93,42.7-26.63,47.1-15.6,7.16-33.62,15.15-51.14,30.06-3.23,22.21-14.64,33.14-22.69,39.19.06,9-.06,17.91.31,26.99,0,.06,7.35-4.85,8.51-3.95,6.15,40.14,28.68,48.1,26.42,49.21-.36.18-7.38,7.42-7.38,7.42l-27.49-18.18c-.94,27.75-.4,56.05,0,83.85,4.85-2.75,13.78-9.34,13.78-9.34l.14-9.44c-.04-.9,12.5,7.87,12.53,18.3.98.67,3.12-15.02,1.17-16.72l5.14-5.33-5.54-5.35s1.41-8.88-1.46-14c-1.86,11.72-11.55,15.37-11.55,15.37,0,0-.19-42.82-.44-42.86l17.28,10.98c-9.36,12.79,7.11,16.95,9.04,10.72,10.63,9.94,6.54,21.83,11.18,35.93l30.15,5.55c-12.43-23.15,1.06-49.53,25.46-47.64,4.57-1.91,8.71-4.67,8.71-4.67,0,0-3.03-4.98-6.87-9.6l-52.23-.87,24.35-45.84-16.01-.52c11.12-19.3,11.88-18.8,8.45-39.44l15.49.31c.57-6.4-6.92-30.77-17.48-46.71l58.71.53-33.05,46.28,17.75.51c-10.64,19.22-12.63,18.8-8.89,38.89l-15.75.31c2.72,23.62,20.19,48.71,26.34,56.4,10.16-2.42,29.12-16.99,40.89-26.05,1.53-15.85,6.96-29.35,21.17-39.41l.04-26.1s-8.11,5.26-8.11,4.89c.03-5.65-2.9-17.41-8.31-27.89-5.8-11.25-15.33-21.43-17.52-22.07,5.04-7.66,7.19-8.34,7.12-8.46l27.45,17.68.1-83.29Zm-138.91,56.11c-10.41,2.67-24.53.24-27.47,9.46-.69,2.08.82,2.85,1.92,3.4,6.27-7.81,22.39,2.98,25.55-12.85Zm-34.69,31.35c-2.42.31-1.6,5.32-.8,5.93,1.69-.37,2.17-6.11.8-5.93Zm88.35,41.84l-8.12.04-.05,9.57h8.17s0-9.61,0-9.61Zm79.75,47.63c-.18.95-.91,5.06,1.07,4.32,2.34-1.81.21-9.95-1.07-4.32Zm-7.64,24.02c-.96-1.4-3.92,2.08-6.36,2.22-10.82.58-18.79-.87-20.13,10.49,6.24-4,14.98-2.18,20.61-3.47,4.07-1.36,8.74-5.06,5.88-9.24Z"/>
              <path id="uuid-dd531322-fa18-4ae9-8555-9f3c4cb320de" data-name="path3504-0-2-5" class="uuid-b334857a-9864-47a8-9a52-951c8246eb5e" d="m33.07,26.83v296.33h183.66V26.83H33.07Zm53.83,2.41l92.51.3c-2.82,8.07-10.26,13.57-14.13,21.57-.9,1.26-.85,2.24-.44,3.6.78,2.54,1.72,6.76,2.08,9.33.6,5.66,1.19,12.71,4.26,18.93.42,1.44,3.19,4.88,3.85,4.89,4.04-5.67,14.49-2.21,11.48,7.58-1.17,3.79-3.08,3.75-2.26,4.46l16.63,11.39s.48-44.82.03-44.81c-8.7,5.21-9.07,8.25-12.67,16.51-2.26-3.11.34-10.74-.07-14.84l-5.02-5.51s3.93-4.34,3.93-4.34c0,0,1.34-16.23,1.75-16,.79,5.68,6.22,14.78,12.48,16.82l.14-9.96,13.25-8.51-.49,82.25-1.31,1.41v3.56s-9.85-6.44-10.09-6.9c-.11-1.05-2.75-3.2-3.45-2.12l-2.96-2.14c.44-.12-3.05-5.06-3.54-3.53-.1.32.01,1.38.01,1.38l-2.89-2.16s-.28-.67-.38-.95c-.25-.72-.83-1.48-1.28-2.07-1.09-1.29-2.15-1.36-1.4.59l-1.77-1.15-1.06,1.34,3.3,2.11v2.47l-4.08-3.02c-1.11,0-1.24.16-1.01,1.14l5.09,3.2v2.7c-2.11-1.33-6.34-4.14-6.34-4.14l-.52.71c12.65,11.14,23.08,30.19,25.08,49.57,3.17-1.58,8.11-6.29,7.56-3.46,0,.67.84,1.38.84,1.38l.85,42.23c-8.37,7.56-13.02,13.56-22.79,20.95-13.2,10.57-31.93,21.67-49.76,29.8-5.08.3-9.58-1.1-18.53,5.38-10.1,6.36-13.23,17.57-11.46,29.75.92,4.41,2.61,10.57,3.28,11.33.19.22.65-.2.72-.2.07,0-.13-.31-.13-.31-.93-2.06-4.75-12.13-3.76-19.67.36-2.62.44-6.37,3.33-7.2,1.13-.33,2.09.14,2.64.94,1.09,1.4.36,3.06-.32,4.45,3.72-1.56,1.76-8.62-3.52-6.92,0,0,.25-.71.44-1.03,2.65-5.64,9.64-13.22,18.34-15.4,2.86-.72,6.2-.98,9.28-.35,1.54.32,1.5.98,1.41,3.25-.1,2.29.75,2.81,1.67,3.82,1.88,2.07-3.45,2.77-6.45.98-.72-.43-1.15-.62-1.15-.62,0,0,.22.53.76,1.57.85,1.63,1.48,3.02,2.2,2.66.95-.68.2-1.19,2.81-.36.9.25,2.25.58,2.81.69,1.2.25,1.16.62.87,1.56-.81,2.58-.12,3.31,3.74,5.57,3.26,1.73,2.99,1.77.6,7.1-1.25,2.78-2.63,6.06-3.98,9.09-.54,1.23-.36,1.94.44,3.28.78,1.31,1.34,5.34,1.15,5.66,4.68,5.91,8.52,13.02,13.44,20.21l-92.27-.55s9.41-14.22,14.23-20.85c.89-.77,1.01-1.78.66-2.8-.09-.25-2.79-18.76-2.82-18.81-1.07-5.48-2.46-11.64-7.67-15.41-1.98,2.25-6.99,3.62-9.73.71-.86-.92-1.76-2.13-1.93-4.05-.37-2.6.58-5.93.8-6.28.36-.56,1.18-1.06,1.17-1.46-.03-.78-1.45-1.47-3.49-2.56-4.35-2.4-12.87-8.31-12.87-8.31,0,0-.29,30.93-.03,43.23,8.29-3.5,12.15-15.15,12.15-15.15,2.11,2.65.54,10.66.68,13.36,1.81,2.21,3.5,2.88,5.22,5.26-.92,2.27-2.7,3.73-4.53,5.24.92,4.75,1.28,9.88-.77,15.23-3.16-9.4-5.57-12.44-12.73-16.92.26,3.63-.32,6.48-.06,9.67l-13.94,9.68-1.16-85.24,28.59,19.64.39-.75-27.41-19.21v-2.9l2.66,1.66s.27,2.02,1.02,2.52c.66.43,2.6.03,2.35-.06l4.45,3.04c-.56,1.12,2.97,5.79,3.56,2.47l3.46,2.21c.41.99.3,2.67,2.26,3.66.74.27,1.67.12,1.3-.94l2.6,1.55c.48,1.79,3.13,5.38,3.6,3.75.06-.19-.08-1.26-.08-1.26l1.83,1.33s1.85-.44,1.01-1.28l-3.09-1.98.03-2.2,4,2.77s.96-.72.83-1.24l-4.84-3.34.11-2.16c1.99,1.05,4.03,2.41,6.08,3.77.01,0,.34-.64.35-.64-14.39-11.74-23.07-31.38-25.74-48.34-2.32,1.36-6.25,3.73-8.67,4.1l.03-45.4c8.04-8.75,16.13-15.56,26.31-23.13,14.19-11.51,30.05-19.22,42.96-25.41,2.24-.74,4.34-1.9,6.67-2.09,3.4-.16,4.2-.14,9.98-2.57,15.09-7.38,24.95-18.7,14.21-44.43.46,1.74,2.98,8.73,3.58,14.98.49,5.16-.51,9.73-1.34,10.97-1.9,2.34-4.66,2.09-4.58-1.22.02-.94.74-2.58.74-2.58-2.68-.29-4.39,8.96,3.12,6.39-3.42,9.1-17.9,17.2-24.4,17.69-3.38.51-5-.37-5.11-2.86-.07-1.39-.82-4.2-1.58-5.04-1.83-2.04,3.14-2.85,6.12-.97.97.61,1.21.47.69-.4-.2-.33-.85-1.21-.87-1.64-.05-1.01-.09-1.34-1.46-.89-.81.27-1.28-.13-1.92-.42-.56-.25-1.54-.48-2.78-.58-2.31-.2-2.2.56-1.78-1.89.41-2.44-.1-2.84-2.9-4.64-4.53-2.78-4.29-1.99.25-10.96,3.1-6.12,3.24-6.73,2.01-9.7-.99-2.42-1.86-4.66.69-4.99-5.34-1.74-10.43-15.29-16.28-20.14h0Zm-51.25.19h49.9c4.38,5.96,15,20.89,15,20.89-.03-.06-.21,2.32.91,4.32.86,1.54.72,3.3-.71,5.98-.94,1.77-2.05,4.42-3.23,6.88-2.59,4.24-2.55,5.4-.79,6.69,1.6,1.14,4.7,2.57,5.61,3.41.59.55-.08,2-.26,3.01-.14.54-.52,1.9.05,2.53.88.97,1.07,1.26.65,2.32-.25.65,1.04,1.46,1.25,1.89.85,1.18,1.1,2.09,1.28,2.79.18.72.06,1.34.06,1.34-4.6-1.89-12.8-.43-11.07,9.07-14.37,7.16-25.96,15.09-33.23,20.26-2.4-7.94-6.51-9.76-10.52-10.33-.2-.29.16-.83.69-1.4,1.8-1.84,6.05-2.23,8.94-2.1,9.68.06,13.1-1.68,15.63-7.99.87-2.17.53-4.95.53-4.95,0,0-.73.95-1.13,1.31-2.37,2.11-6.61,2.55-10.01,2.61-5.93-.02-9.03.61-10.89,1.48-3.76,1.77-6.64,4.38-7.06,6.76-.15.86-.27.86-2.02.68-1.89-.19-2.93.95-3.24,2.85-.14.85.11.91-1.21,1.37-1.92.67-2.58,2.63-1.87,4.65.28.78.24.94-.62,1.53-1.35.93-1.61,2.12-1.11,3.57.2.59.35.74-.15,1.44-1.27,1.8.24,4.64,1.98,5.32-.91,5.86-.5,6.15-.49,6.82.11.66.73.94,1.4.92,1.97-.09,1.67-1.66,2-3.26l2.32,2.76-8.58,8.2V29.43Zm146.39,0h31.74v10.59l-13.16,8.47v8.97c-9.42-6.06-10-12.69-11.01-17.26-13.32,14.25-9.74,35.44-.24,45.27-.32-.41,1.71-13.62,11.25-18.15v42.35l-15.5-10.52c6.99-7.89-1.43-20.67-10.43-12.18-6.71-6.71-6.07-20.91-9.26-32.44-.35-1.3.11-2.47,1.93-4.95,4.86-6.63,9.77-13.89,14.68-20.14h0Zm5.35,15.27s-.87,2.48-.57,13.46l-4.76,3.82c.33-10.82,5.33-17.28,5.33-17.28Zm-82.89,7.57c-1.46-.07.16,2.18,1.38,2.72,6.11.43,9.98-.63,16.28,5.05,1.78,1.26,1.67-.09-.09-1.92-3.15-3.29-8.11-5.55-13.08-5.57-1.46,0-3.72-.12-4.16-.22-.13-.03-.24-.04-.34-.05h0Zm1.72,5.59c-.45,0-1.33-.73-1.38-.65-.06,1.18,1.7,3.61,2.15,4.21.04.33-.02.92-.03,1.87-.17.41-2.71.41-1.81,1.54.29.37,1.37.26,2.28.36,1.63.22,5.13,3.49,7.55,3.91.71.12,1.4.06,1.4.06-1.74-.76-3.54-1.53-5.03-2.85-1.13-1.08,1.43-1.06,2.21-1.19,1.03-.12,2.28-.64,2.8-.88,1.48-.69.94-.86,2.48-.31.87.31,1.76.79,2.22.88,2.14.43,1.41-1.15-1.96-2.77-.48-.23-1.28-.97-1.95-1.41-2.68-1.75-4.4-2.4-6.49-2.27-1.28.08-2.02.04-2.02.04,1.47-.7,2.94-.88,4.76-.66,3.12.58,6.22,3.18,9.11,4.99-4.11-5.5-12.28-7.97-16.3-4.88h0Zm5.81,3.27c.27.05.47.27.47.69,0,.28-1.21,2.04-1.58,2.27-.63.4-.59-.48-.19-1.91.21-.73.85-1.13,1.3-1.05Zm1.58.52c2.01.29,3.24,1.62,1.67,2.21-.86.32-3.15.71-3.13.37.02-.46,1-2.64,1.46-2.57Zm68.5,1.15l5.56,5.39c-.31,1.38-.83,6.63-.87,11.82-2.66-4.02-4.76-9.15-4.68-17.21Zm-75.53,6.45c-.33.01-.82.24-.82.24,0,0,.37.27.94.58,3.4,1.85,1.97,5.29-1.77,2.9-2.61-1.67-4.59-2.02-4.94-.08-.15.8-.1,1.48,1.12,1.15.49-.13,1.81.54,2.91.94,1.44.53,4.34,1.78,5.53-1.4.47-1.98-1.2-4.41-2.97-4.33h0Zm10,5.84c-.54-.02-1.24.26-1.24.26,0,0,.68.29,1.2.37,3.7.57,3.47,6.81-4.81,2.45-2.75-1.45-4.19-.92-5.68.34-1.14,1.02-.5,1.63,1.36,1.44,2.37-.23,4.05.74,6.29,1.38,6.9,1.68,8.7-6.03,2.88-6.25Zm-15.55,16.86c1.8.02,3.82.83,5.78,2.74l-1.03.6c-1.62-.54-2.56-.97-4.13-1.53.4,1.22.36,2,.36,2,0,0-1.8-.64-3.54-.88.61,1.22,1.06,2.42,1.06,2.42,0,0-1.16-.02-2.72-.04l.94,1.54-2.33,1.12c-1.26-4.24,1.63-8.02,5.59-7.97h0Zm-26.12,5.08c.37,3.97-3.01,9.31-14.8,9.21-4.57-.1-7.1.02-10.56,3.75l-2.11-1.72c.66-2.54,1.76-6.99,11.17-9.1,5.45-.83,10.57.71,16.3-2.15h0Zm-29.8,11.07c.41,0,.87.13,1.35.41,2.12,1.34,2.45,2.4.32,3.55-1.21.65-1.47.78-2.59-.24-1.73-1.58-.86-3.76.92-3.73Zm61.78.64c4.46,8.04,15.12,27.49,17.35,46.6l2.01-.06,33.04-45.8-52.4-.74Zm-56.3,2.97c1.16,0,2.48.29,3.66.89,1.11.62,2.2,1.67,3.11,2.91,1.21,1.66,2.08,3.63,2.16,5.32.02.45.06.78-.16,1.15-1.32,1.33-4.6,4.01-6.26,5.1-1.82-1.56-2.72-5.29.01-8.29,1.29-1,1.7-1.42-.51-1.3-1.63.08-1.76.16-1.67-.89.22-2.53-.34-1.63-1.32-.08-.69,1.1-2.36,1.68-2.99,1.68-.86,0-.76-.65.06-1.13,1.2-.71,1.3-1.89.87-3.29-.38-1.3,1.11-2.06,3.04-2.05h0Zm-8.68.71c1.94-.14,3.33,1.5,1.57,2.7-1.41.96-1.24,1.73.22,2.96.77.65,1.24.99,1.17,1.16-.28,1.1-3.06-1.86-4.59-2.88-1.12-1.23-1.11-3.13.77-3.77.29-.1.58-.16.85-.18h0Zm148.26,1.78l3.69,2.54v2.09l-3.69-2.16v-2.47Zm-143.97.36c1.06-.1.82,1.6-.62,2.34-.84.43-1.49.16-1.49-.6,0-.39.89-1.25,1.57-1.57.21-.1.39-.15.54-.16h0Zm-6.22,3.46c1.78.15,4.15,2.04,3.78,2.86-.17.37-1.23,1.31-1.05,1.89.3.96-.43.96-1.95-.06-2.53-1.69-3.18-2.92-2.24-4.15.34-.45.87-.59,1.46-.55h0Zm150.13,0l3.75,2.62v2.51l-3.81-2.54.06-2.6Zm6.59.61l3.72,2.33.29,2.53-3.95-2.39-.06-2.46Zm-11.21.38c1.22.64,2.25.88,3.12,2.45.47.38.97.72.97.72l.92-.1,3.69,2.4s.1.96.75,1.92c.63.92,2,1.51,2,1.51.29-.06.22-.93.12-1.45l4.52,3.08s.79,2.59.79,2.59l2.65,1.62s-.23-1.55-.31-2.09l3.93,2.67s.13.35.7,1.72c.76,2.05,2.77,3.41,2.83,1.54h.73v2.93l-20.62-13.81s-1.27-1.14-2.55-2.8c-1.39-1.8-4.26-4.89-4.26-4.89h0Zm-138.35.36c1.32-.07,1.55.15.87.83-.7.69-2.13.31-2.01-.54.06-.38.31-.24,1.14-.29Zm3.02,0c.43-.06.79.44.62,1.2-.71,2.11-.53,5.34,1.38,7.21l-6.18,5.48c-.46.23-1.11.02-1.82-.55-2.08-1.69-2.85-3.27-1.05-3.16,1.17.07,2.65-1.1,2.23-2.48-.25-.83-.09-1.41.81-1.64.89-.38,1.54-1.77,1.24-2.84-.24-.77-.13-1.01.43-.94.59.07,1.21-.5,1.61-1.52.19-.49.47-.72.72-.76h0Zm-5.06,2.45c.35.02.74.23,1.11.69.78,1.55-1.28,2.28-2.09,1.56-.84-.78-.08-2.32.98-2.26h0Zm151.7.64l4.03,2.66.48,2.76-4.35-2.58-.16-2.85Zm-157.98.53c.35-.03.75.08,1.14.37.32.24,1.21.95,1.71,1.25,1.06.65,1.23,1.14.3,1.2-.43.03-1.04.71-.98,1.22-.52.5-1.98-.25-2.97-1.52-.89-1.14-.24-2.43.81-2.51h0Zm164.8.13l4.09,2.73.35,2.68-4.12-2.46-.32-2.95Zm-160.36,3.49c.1,0,.2.03.3.08.83.41,1.14,1.04.34,1.46-.69.42-1.12.38-1.56-.06-.57-.49.19-1.5.91-1.47h0Zm160.63.76l4.53,3.07.09,2.4-4.07-2.26-.56-3.22Zm-163.48.73c1.82,1.15,1.13,6.56-.11,6.55-1.83-1.4-1.64-5.16.11-6.55Zm170.66.12l1.86,1.2v2.42l-1.77-1.05-.09-2.57Zm-17.66.59l19.52,13.04v2.38l-17.33-11.76-2.19-3.65Zm17.93,3.58l1.59.96v2.57l-1.48-1.01-.12-2.52Zm-13.96,3l15.55,10.45v2.66l-13.56-9.1-1.99-4.01Zm3.05,6.4l12.5,8.19v2.73l-10.98-7.3-1.52-3.61Zm2.03,5.32l10.48,6.91v2.61l-9.36-6.34-1.11-3.17Zm1.67,4.94l8.81,5.97v.92l-1.09.77-7.11-4.66-.61-3Zm.98,4.44l5.76,3.82-1.81,1.24-3.4-2.67-.55-2.39Zm-94.92,1.43c.11,1.23-.32,4.14.33,5.23l1.83-2.93h2.25c-1.02,2.37-3.59,7.68-3.59,7.68h9.11s2.32-5.03,3.77-7.28h2.14s-3.38,7.28-3.38,7.28h8.59l3.85-7.38h2.75l-3.48,7.38h6.25l1.26-2.91h-2.85l3.23-7.08h-9.23l-3.66,7.08h-2.15l3.7-7.08h-9.07l-3.76,7.08h-2.74l3.45-7.08h-8.59Zm95.8,2.8l2.12,1.46-1.74,1.03c-.11-.84-.17-1.67-.38-2.49Zm-96.47,22.03l-1.59,2.71h3.2c-1.05,2.42-3.34,6.97-3.34,6.97h8.81l3.84-6.97h3.06l-3.5,6.97h8.06l3.84-6.97h2.77l-3.4,6.97h8.61l-.43-6.28-1.78,3.45h-2.03l3.05-6.85h-8.66l-3.49,6.85h-2.15l3.26-6.85h-9.32l-3.51,6.85h-2.54l3.2-6.85h-5.98Zm-66.87,5.49l.13,1-1.15-.46,1.01-.54Zm-2.27,1.24l2.82,1.77.39,2.22-4.8-3.13,1.59-.86Zm-2.87,1.46l6.5,4.43.57,2.63-9.16-5.94,2.08-1.12Zm-2.08,2.67l9.73,6.82.98,2.89s-8.21-5.34-10.71-7.59v-2.12Zm88.94,1.16l-32.79,46.05,51.87.48c-8.59-14.07-15.18-29.59-19.08-46.54h0Zm-88.94,2.54l11.35,7.95,1.58,3.22-12.93-8.73v-2.45Zm0,3.93s9.35,7.08,13.89,9.37c.53,1.02,2.26,4.18,2.26,4.18l-16.15-11.2v-2.34Zm0,3.94l16.94,11.72,3.19,4.58-20.14-13.73v-2.57Zm178.35,2.41v113.15h-48.5c-4.69-6.94-9.13-13.58-14.28-21.26-.93-1.29-.85-2.97-1.57-4.38-.58-.92-.74-2.89,0-4.08,1.98-4.3,4.24-8.26,5.61-12.86.61-2.03-3.5-3.5-5.59-4.85-1.62-1.08-1.58-1.65-.98-3.92.56-1.61.61-2.4-.41-2.94-.57-.31-.59-.28-.44-1.1.15-.83-.04-1.41-1.05-2.28-.16-.14-.98-1-1.35-2.03-.22-.63-.37-2.15.81-2.05,6.75,2.64,11.66-1.4,10.2-8.51,0,0,22.56-12.99,32.75-21.16,1.36,6.1,4.8,10.93,10.97,11.15-2.95,3.24-7.63,3.17-11.8,3.1-9.69-.16-13.72,4.02-14.33,13.06,2.63-3.82,8.54-4.25,14.35-4.02,5.58.22,13.33-1.65,15.23-9.11,2.69,1,4.66,1,5.71-2.46.2-.46.53-1,.84-1.12,2.4-.94,2.66-2.78,1.98-4.95-.18-.62-.17-.8.67-1.97.58-.81.73-2.54.21-3.77-.22-.52-.23-1.15-.16-1.94.12-1.44-.2-2.53-1.15-3.8-.77-1.05-.83-1.07-.41-2.88.51-2.22.67-4.94.16-5.35-.72-.6-2.91-.77-2.98-.09-.22.27-.15,2.42-.22,2.52-.46-.44-2.59-1.89-2.54-1.88l8.3-8.24Zm-178.35,1.4c6.72,4.47,13.71,10.01,21.79,14.97l2.74,3.3-2.54-.31c-.05,0-1.45-.18-2.25-2.21-.63-1.6-3.07-3.4-4.04-2.09l-2.43-1.48s-.4-.66-.71-1.28c-1.26-2.56-4.03-4.71-4.04-3.15,0,.21-.04.94-.04.94l-2.59-1.44s-.38-.91-.56-1.32c-.71-1.64-2.93-3.69-3.17-2.96-.13.39-.29,1.06-.29,1.06l-1.87-.97v-3.06Zm0,4.58l2.5,1.64.11,2.2-2.61-1.5v-2.33Zm169.06,3.08c1.93.94,3.48,2.58,3.38,3.55-.06.58-.48.75-1.2.87-1.78.28-1.87.86-1.85,2.22.02,1.12.01,1.03-.96,1.67-1.21.81-1.49.95-1.35,2.79.09,1.21.01,1.13-.66,1.35-1.57.31-1.71.68-1.95,1.71-.18,1.1-.89,1.24-.72.32.72-2.1,1.41-4.91-1.22-8.61,0,0,4.22-4.07,6.54-5.86Zm5.07-.88c2.64,1.44.64,6.69-.22,6.62-1.41-1.57-.61-4.97.22-6.62Zm-168.1,1.96l3.73,2.47v2.23s-3.8-2.52-3.8-2.52l.08-2.18Zm-6.03.06l2.45,1.72-.04,2.15-2.41-1.29v-2.58Zm5.92,4.02l4.04,2.67v2.34s-4.09-2.63-4.09-2.63l.06-2.38Zm165.82.48c1.1-.04,1.86,1.03,1.09,1.88-.19.21-.43.23-.83.22-1.79-.03-2.34-1.49-.74-2.01.17-.05.33-.08.49-.09h0Zm-158.39.3l3.87,2.69v2.21s-3.85-2.49-3.85-2.49l-.02-2.41Zm148.23.61c1.79,2.78,2.4,4.5.37,8.21-.75.97-.82,1.15-.05,1.27.91.15,1.92,1.26,1.77,1.7,0,.52.37.26,1.64-.81,1.53-1.43,2.32-1.78,2.11-.84-.51,1.71-1.55,1.84-1.1,3.67.1,1.59.67,1.48-.85,2.15-3.48,1.55-7.19-.76-9.59-5.9-.96-2.06-1.32-3.08-.71-4.12,1.62-1.75,6.38-5.21,6.42-5.33h0Zm13.13.67c.91.13,1.51,2.53,1.4,3.14-.11.67-2.87-.98-2.86-1.76,0-.6.89-1.46,1.46-1.38h0Zm-5.15,2.22c.31.02.64.15.96.4.83.66.71,1.7-.28,2.07-.96.36-1.52.25-1.86-.58-.45-1.11.26-1.96,1.18-1.89h0Zm2.85.68c.25.03.65.31,1.17.66,2.73,1.77,3.37,3.26,2.05,4.66-.75.79-.68.71-2.05-.16-2.69-1.71-3.11-1.91-2.17-2.97.29-.33.75-.88.71-1.3-.06-.69.04-.92.29-.89Zm-159.09.1l3.78,2.52-.04,2.3-3.79-2.26.05-2.56Zm7.2.76l2.91,1.77v2.5l-2.91-1.98v-2.29Zm148.59,2.8c.23-.02,1.03.41,2.29,1.29,4.18,2.92,5.26,5.82,2.59,6.87-1.13.44-2.44-.86-3.2-1.91-.49-.67.03-1.53.52-2.26.59-.88.37-1.31-.99-2.53-1.07-.95-1.42-1.44-1.2-1.46h0Zm-2.78.09c.19-.02.42-.01.69.02.17.07.61.23.13.8-.1.12-1.44.64-1.59-.17-.06-.32.2-.59.78-.65h0Zm-145.81,1.41l2.91,1.85v2.43l-2.91-1.75v-2.53Zm149.11,1.34c.36.05.6.29.55.73,0,.51-.5,1.65-1.08,2.06-1.42,1-2.63-.19-1.61-1.66.57-.81,1.53-1.23,2.13-1.14Zm-.41,4.53c.22.03.44.15.81.34,2.41,1.25,3.21,2.95,1.56,4.34-1.21,1.02-3.09.69-4.81-1.15-1.43-1.52-1.29-1.58.72-2.76,1.02-.6,1.36-.82,1.72-.78Zm-4.6,3.53s.75.24,1.9,1.79c1.48,1.99-1.14,3.84-3.76,6.73-5.6,3.73-15.54.01-23.28,4.56.18-7.43,4.94-10.61,15.01-10.26,6.04.81,10.2-2.71,10.12-2.82Zm-150.38.05l14.83,10.25c-.05.02-2.18,2.24-2.08,6.24.12,5.2,6.13,10.87,12.25,6.01,1.81-.8,4.61,4.38,6.08,8.4,1.96,4.88,1.53,13.77,4.43,24.44l-16.06,24.02h-33.47v-9.84l14.01-10.05v-8.38c8.5,4.26,10.89,12.56,11.27,19.59,9.2-11.48,13.79-31.64-.93-48.2-.43,7.74-2.88,13.73-10.34,18.48v-40.96Zm105.42,9.61c2.53,7.19-7.08,10.4-10.68,4.96l1.57-.58s1.91.95,3.07,1.21c-.4-.59-.51-1.66-.51-1.66,0,0,2.31.49,3.58.42-.39-.65-.93-1.25-.94-1.93.98-.11,2.13.07,3.2-.07-.78-.69-1.04-.43-1.04-1.41l1.76-.94Zm-20.45,17.12c-.46,0-.91.04-1.33.15-3.53.64-4,4.36-2.1,6.29,1.22,1.17,3.4,1.14,4.95.23-1.49.03-2.51.22-3.78-.68-2.36-2.37.5-5.54,4.02-3.63,4.28,2.24,6.31,2.73,7.73,2.01,1.22-.61,1.38-2.31.21-2.06-2.36.42-6.47-2.25-9.71-2.31h0Zm-71.69,1.42c3.24,5.11,5.39,12.5,5.1,17.01l-5.46-4.58c.78-3.8.5-8.55.36-12.43Zm80.99,4.95c-1.02-.06-1.87.24-2.51.89-1.37,1.45-.82,5.85,2.62,4.94,0,0-1.67-.59-2.05-1.59-.74-1.96,1.79-3.86,4.12-1.14,1.76,2.05,4.55,1.61,4.74-.19.09-.82-.31-1.4-1.35-1.02-.62.23-1.18-.06-2.08-.62-1.29-.8-2.47-1.22-3.49-1.28Zm-8.51,6.74c-1.38.05-.93.34.92,1.05,2.86,1.09,4.78,1.89,4.2,2.4.12,0-5.03-.03-7.47,1.6-.5-.03-1.28-.3-2.04-.67-2.49-1.2-3.46.09-1.25,1.62,4.52,3.14,8.2,4.67,11.22,4.35,1.97-.21,3.06-.31,1.88.45-5.69,2.44-10.29-1.72-14.1-4.27-.68-.46-.97-.6-.97-.6,0,0,.38.68.85,1.09,4.29,3.73,8.68,6.34,14.58,4.67,1-.41,1.04-.73,1.41-.56,1.71,1.54,1.18-.92-.01-2.24-.71-.87-.8-.86-.96-2.4-.1-.99-.18-1.09.7-1.5,1.93-.9.78-1.06-.34-1.15-.68-.1-1.84-.91-4.12-2.39-1.37-.89-3.27-1.5-4.48-1.45h0Zm3.41,4.65l-1.31,2.35s-2.14-.37-2.76-.94c-.19-.18.01-.37.4-.57,1.27-.48,2.3-.89,3.66-.84h0Zm1.13.49c.21-.02.4.11.46.47-.07.31-.56,1.42-.89,1.85-.28.37-.57.23-.87.07-.63-.34.14-1.34.69-2.02.16-.2.4-.36.61-.38h0Zm-72.09,1.78c.99,4.23-2.96,15.5-4.42,16.29.08,0,.92-7.78-.3-11.64l4.72-4.66Zm58.44.78c-.19-.03-.08.24.28.79,2.94,4.52,7.35,7.79,14.14,8.15,2.05.11,5.31.31,5.7.44.96.31,1,.55,1.13.16.73-2.25-2.11-4.18-7.36-3.43-3.71.53-7.92-1.59-12.43-5.12-.8-.63-1.28-.96-1.46-.99Z"/>
              <path id="uuid-46cf83f1-d40f-4f0f-be8c-b1e2e13a4c09" data-name="path3502-5-8-1" class="uuid-872e28d9-02f4-4fbb-a68d-0ba6ef6e11b0" d="m112.11,320.8l1.46-7.08,12.99.63s1.51,4.44,2.12,6.45h-16.57Zm-30-.17l6.89-11.43,9.79,2.67-2.25,8.93-14.43-.17Zm19.04.17l2.96-12.2c-5.6-1.24-10.88-2.05-17.06-3.73l-10.03,15.91-6.03-.16c5.2-6.96,14.7-21,14.7-21,21.78,7.52,43.74,8.79,65.85,4.82,0,0,8.15,10.79,11.06,16.64l-5.74-.28-7.14-12c-4.97.54-9.86,1.21-15.04,1.42l3.55,10.58h-5.7s-3.24-10.55-3.24-10.55c-6.22-.24-11.45.25-18.9-.93l-2.63,11.47h-6.61Zm41.1,0l-1.96-7.5,7.01-.82s3.25,5.72,5.03,8.32h-10.08Zm-62.91-69.7c8.72-13.31,39.48-55.96,39.48-55.96l4.58-.03s-27.61,38.74-40.89,58.16l-3.17-2.17Zm-44.46-20.7l10.74,7.76.08,60.44-10.91,7.71.1-75.91Zm44.58-98.88l6.5,12.77c-27.62,26.27-22.2,57.1-7.4,79.09,0,0-3.79,5.43-6.08,10.14-20.02-13.25-26.11-47.7-25.95-48.07,22.06-19.76,25.03-26.05,32.94-53.94Zm112.85,94.15c1.43-19.45,10.9-32.16,21.52-39.93l.54,19.78c-6.95,6.7-14.3,13.61-22.06,20.15Zm-28.84-19.59c24.19-22.68,25.01-54.89,7.39-78.53l7.21-10.11c10.22,10.98,20.24,22.49,24.51,49.24-15.32,12.12-28.85,32.15-32.45,52.37l-6.66-12.97Zm-33.33-26.39l-.04-9.27,8.92-.05v9.25s-8.87.06-8.87.06Zm-19.12-.07l-.13-9.24,8.94.06-.14,9.36-8.67-.19Zm15.19-24.39s30.28-42.47,42.05-57.68l2.5,1.85-39.87,55.73-4.68.1Zm-69.72-29.8c-.03,16.62-10.64,29.8-21.48,38.39l.15-18.93c6.53-6.78,13.75-13.21,21.33-19.46ZM213.99,45.22l.06,73.78-10.13-6.13.86-61.87,9.21-5.78Zm-48.29,4.37c-22.87-5.97-43.7-7.76-65.61-3.04-2.85-3.42-12.45-17.66-12.45-17.66l5.54.08,7.84,12.59,14.93-1.96-3.84-10.24,6.15.03,3.07,10.05c-.03-.08,12.15.12,18.91.93,1.08-3.73,3.08-11.14,3.08-11.14h6.78c-.87,3.56-3.21,12.03-3.21,12.03,5.55.78,15.85,3.4,15.95,3.52,3.61-5.13,6.97-10.26,10.24-15.38l6.61-.03c-1.95,3.31-13.61,20.4-13.98,20.24Zm-4.22-8.84l-10.1-2.37,2.64-8.94h14.12s-6.66,11.31-6.66,11.31Zm-58.02-3.23l-4.7-8.3h9.04s2.99,7.31,2.99,7.31l-7.33.99Zm20.52-1.69l-1.37-6.61h16.42s-1.68,7.04-1.68,7.04l-13.37-.43Z"/>
              <path id="uuid-6e833e43-7a26-45d6-a5c7-80c29e29b588" data-name="path3500-9-6-1" class="uuid-10921efb-29ab-4829-867e-296538d15759" d="m86.45,28.65l14.6,21.16c5.85-.51,15.96-3.32,33.62-1.67,0,0,2.5,7.56,3.34,11.28,2.52,10.05-.81,20.25-6.68,25.5-2.98,2.66-6.9,5.81-11.08,7.43-5.78,2.42-6.37,2.41-9.77,2.57-2.25.11-2.48.19-3.71.84-.38.13-.63.53-.97.65-.29.1-.83-.01-.83-.01-18.78,8.26-33.48,17.48-44.59,25.71-.13.1-.21.52-.34.63-.91.75-1.75,1.31-2.63,1.99-.12.09-.39-.07-.51.02-13.07,10.11-20.47,18.3-23.19,20.67l.27,47.06s5.95-3.07,9-4.94c2.14,18.22,11.19,35.92,25.49,48.21l-6.2,8.58-28.57-19.75.4,86.83,15.19-10.59v-9.16c4.53,3.06,8.95,4.25,12.16,18.19,2.57-4.9,2.34-12.19,1.19-17.06-.22.31,3.41-2.9,5.03-5.62l-5.64-5.03s1.46-12.17-1.2-14.63c-2.11,5.53-3.78,11.38-11.65,15.65l-.1-42.3c3.92,2.49,7.63,5.3,11.51,7.86l.53-.11,4.01,2.76s-.43.86-.82,1.45c-4.87,7.42,3.25,16.53,9.85,11.05,2.59-2.14,7.44,6.77,8.36,15.35.93,5.54,1.44,12.42,2.94,17.23.46,1.4.28,2.19-.71,3.05-5.06,7.15-15.24,21.56-15.24,21.56h7.33l.53-.84h-5.4c4.66-6.22,9.1-13.47,13.93-19.54,18,6.8,47.47,8.37,65.28,4.25,3.68,5.18,7.25,10.6,10.79,15.88h-5.12l.7,1.11h6.93l-14.59-21.57c-10.06,3-34.57,1.83-34.12,1.58,0,0-.07-.17-.92-2.61-4.21-13.64-4.6-25.75,5.96-35.54,5.61-5.01,11.87-8.31,18.87-7.68,3.13-.06,3.19-.23,4.49-.82.72-.33,2.21-.67,2.21-.67l7.09-3.94.94-.19,2.04-1.08.42-.5,3.29-1.68.37.03,4.45-2.57.06-.36,1.75-1.09.42.44c.49.04,17.46-11.14,24.53-17.37l.44.16c8.26-6.71,19.5-17.3,22.83-21.32l-.18-20.14-.28-.25-.11-22.31h-.64l-.03-2.75c-3.65,1.36-7.67,4.76-7.94,4.62-2.33-18.88-10.99-36.28-25.14-49.05l6.02-8.35,27.98,18.9.08-5.52h.35c.34-21.17.53-76.06.53-76.06l-.28-.03v-4.38s-14.31,9.17-14.31,9.17l-.2,9.26c-6.34-2.08-10.36-9.73-11.69-16.54-1.85.74-2.31,16.69-2.31,16.69-.29-.04-4.5,4-4.5,4,0,0,3.59,4.04,5.49,5.69-.4.86-1.18,12.86-.35,14.36.38,1.11,1.7.95,1.71-.22,1.93-9.46,10.87-15.67,11.37-15.1l-.22,43.62-15.88-11.17c3.33-3.78,4.04-10.15-.16-13.27-4.21-3.13-8.33-.48-9.31,1.51-5.15-3.37-6.89-15.87-7.64-20.76-.19-2.38-.8-5.61-1.5-8.53-.44-1.83-.96-3.57-1.03-5.21-.03-.77.06-1.11.76-2.07l15.44-21.99-7.88-.03-.08.14,6.2.02-13.92,19.85c-20.94-6.61-42.66-8.2-65.89-4.01l-11.48-16.21,5.22-.02-.2-.35h-6.55Zm12.11.19l.22.4,9.02-.03-.14-.34s-9.09-.03-9.1-.03Zm13.37.05l.17.48,6.15.02-.19-.47-6.14-.03Zm31.42.17l-.06.22h6.78s.06-.21.06-.21h-6.78Zm-20.78,0l.07.28h16.36l.06-.26-16.49-.02Zm31.5.15l-.06.23h14.12s.12-.23.12-.23h-14.18Zm59.59,12.09l.04,2.98-9.49,6.06c-.24,12.76-.6,61.86-.6,61.86l-2.27-1.5.45-61.48s8.39-5.41,11.87-7.92h0Zm-24.89,2.4h.32l.1.69h-.55l.13-.69Zm.67,1.8l.25.93h-1.39l.17-.9.97-.03Zm23.95.48v1.95l-8.19,5.13v-1.93l8.19-5.15Zm-25.26,1.62l2.14.03.42,1.08h-2.76l.2-1.11Zm-52.56.58l1.43.21c3.28,7.86,4.13,14.61,4.7,21.63,1.31,9.11,3.95,18.2,5.78,22.08h-2.1c-.24-.03-4.68-13.2-5.6-20.99-.25-1.54-.15-2.97-.23-4.4-.47-6.02-1.29-10.55-3.99-18.53Zm2.69.32l1.83.19c1.28,5.58,3.14,10.84,3.89,16.45,1.21,8.97,1.86,18.13,6.16,26.97h-1.71c-2.61-5.97-4.23-12.23-5.27-18.97-.81-3.86-.82-6.76-1.25-10.26-.52-4.19-2.13-9.53-3.65-14.38h0Zm2.78.26l1.83.27c1.2,5.54,3.26,11.64,3.81,16.65,1.11,10.2,2.71,19.68,5.91,26.43h-1.28c-4.95-9.63-5.03-18.22-6.42-27.24-.82-5.31-2.55-10.63-3.86-16.1Zm2.91.43l1.61.25c1.12,5.51,3.14,11.75,3.61,17.34.83,9.9,2.58,17.33,6.25,25.32h-1.51c-4.43-7.78-5.02-17.25-6.4-26.92-.76-5.34-2.48-10.72-3.55-15.99Zm69.45.01v2.41l-8.19,5.28v-2.38l8.19-5.31Zm-66.81.47l1.69.26c1.09,5.32,3.11,10.99,3.58,16.17.82,8.85,2.44,17.77,6.07,26.01h-1.56c-3.84-8.31-5.51-15.77-6.24-25.33-.41-5.36-2.46-11.89-3.54-17.11h0Zm44.58.03l.89,1.62h-4.22l.05-1.61,3.29-.02Zm-41.8.5l2.01.39c2.13,8.48,2.68,16.51,4.13,24.57,1.81,10.02,3.72,15.08,5.28,16.94h-1.66c-4.05-8.67-5.49-17.27-6.43-26.2-.56-5.27-2.27-10.46-3.32-15.71Zm3.06.57l1.53.31c1.82,6.93,2.65,13.41,3.45,19.69,1.46,11.92,5.41,20.92,6.26,21.34h-1.69c-3.66-5.08-5.01-13.73-6.81-25.93-.79-5.36-1.58-10.41-2.73-15.41h0Zm2.46.5l1.71.42s1.55,6.1,2.71,14.19c.97,6.74,1.48,20.02,8.79,27.65,3.65,3.81,10.07,7.12,14.45,3.52,1.87-1.6,3.08-4.17,1.95-6.92-1.89-4.6-8.3-3.81-6.17,1.01.24,1.16-1.27,1.21-2.32.08-1.1-1.21-.83-2.58-.05-3.85,1.65-2.67,6.06-2.94,8.65-.56,4.14,4.07,2.35,11.05-2.89,13.26-6.03,2.57-13.81-2.74-16.89-7.81-5.09-8.83-5.88-17.21-7.08-26.13-.61-4.82-1.78-9.87-2.88-14.87Zm2.58.71l1.74.42s1.91,8.59,2.54,13.67c.78,6.28,1.64,13.67,4.32,19.38,1.66,3.55,4.09,6.54,6.54,8.28,2.11,1.5,3.99,2.44,6.79,1.83,3.23-.71,3.37-5.73.29-5.74-1.58,0-.55-1.53.76-1.57,4.65-.15,4.78,7.21.41,8.85-5.01,1.88-10.43-1.66-13.79-6.11-5.87-9.16-5.64-17.51-6.93-24.9-.34-3.89-2.53-13.92-2.66-14.1h0Zm35.19.26l1.06,1.43-5.91-.03.02-1.36,4.82-.04Zm-32.6.47l1.66.58s1.67,6.65,2.68,14.52c1.2,7.58,1.59,13.89,5.5,19.37,1.63,2.28,4.7,5.32,6.63,5.68,1.2.26,2.44,0,2.74-.92.5-1.5,1.78-.81,1.81.55-.01.95-.7,1.94-1.88,2.28-5.75,1-11.01-6.25-12.6-9.92-2.16-5.34-3.09-11.32-4.02-18.75-.4-3.15-2.3-13.18-2.52-13.38h0Zm53.33.27l-.03,2.4-8.16,5.16v-2.34l8.19-5.23Zm-50.83.47l1.87.51s1.56,5.85,2.48,13.08c.94,7.33,2.96,15.85,6.74,20.25.34.42.58.72.73.97.27.6-.05,1.61-.33,1.61-6.73-3.52-8.32-17.65-8.9-22.42-.85-7.39-2.59-14-2.59-14h0Zm25.39,1.3h6.72l1.42,1.4h-8.06s-.07-1.4-.07-1.4Zm25.44,1.78v1.99l-8.19,5.21v-2.04l8.19-5.16Zm-21.78.76c2,0,4.41,0,6.02.02l2.98,1.76c.08.13-13.52,0-13.52,0,.35-.47.7-.94.92-1.76,0,0,1.6-.02,3.6-.02Zm21.78,2.4v2.39l-8.19,5.15v-2.24l8.19-5.3Zm-26.96.45c1.36.03,10.55.12,14.18.16v1.23h-16.39l2.21-1.39Zm-2.49,2.71l16.67.04v1.67h-14.99l-1.67-1.72Zm29.45.32v2.49l-8.19,5.09v-2.36l8.19-5.22Zm-26.73,2.67s9.3-.02,13.95,0l-2.73,1.39h-9.18l-2.04-1.39Zm26.73.82v2.35l-8.19,5.17v-2.32l8.19-5.2Zm-24.78,1.8h7.96l-1.55,1.51-6.63-.09.23-1.42Zm24.78,1.65v2.52l-8.19,5.02v-2.18l8.19-5.36Zm-25.09.92h5.64l-1.01,1.29h-4.79l.15-1.29Zm-49.26.74c.64,6.87,3.18,13.85,5.45,20.35h-1.8c.09.12-3.54-8.1-4.75-15.8.19-.22,1.2-4.4,1.1-4.55h0Zm48.9,1.63h4.21l-.92,1.71h-3.43s.14-1.71.14-1.71Zm25.45.39v2.2l-8.19,5.05v-2.01l8.19-5.25Zm-25.59,2.23h2.79l-.66,1.54h-2.16l.03-1.54Zm25.59,1.19v2.35l-8.19,5.1v-2.27l8.19-5.18Zm-76.17.42c.82,5.39,4.45,14.09,4.72,14.49h-1.55c-.18.56-4.28-11.97-4.28-11.97,0,0,.33-.83,1.11-2.52h0Zm50.56,1.06h1.66l-.28.94-1.34.03-.03-.97Zm.15,2.08h.86l-.21.85h-.54l-.12-.85Zm25.47.04v1.9l-8.19,5.2v-1.8l8.19-5.3Zm-78.06.21c1.24,3.7,2.46,7.48,3.93,11.09h-1.83c-1.31-3.05-2.48-7.06-3.23-9.58l1.13-1.52Zm-1.85,2.47l3.05,8.63h-1.73c-1.01-2.16-1.87-4.65-2.71-7.07,0,0,.62-.81,1.39-1.55h0Zm79.91.54v2.25l-8.19,5.08v-1.94l8.19-5.4Zm-81.97,1.62c.95,2.04,1.43,4.34,2.46,6.47h-2.14c-.77-1.92-1.43-5.42-1.43-5.42l1.11-1.05Zm-1.96,1.68c.4,1.6.73,3.14,1.36,4.79h-1.99c-.59-1.31-.64-3.75-.64-3.75l1.27-1.05Zm83.93.32v2.36l-8.19,4.94v-2.19l8.19-5.11Zm-85.95,1.31c.07,1.2.29,2.11.5,3.17h-1.8c-.14-.62-.22-1.4-.2-2.18l1.51-.99Zm-2.44,1.61s.13,1.57.14,1.56h-2.83c.97-.49,2.69-1.56,2.69-1.56Zm88.39.89v1.88l-8.19,5.12v-1.91l8.19-5.1Zm-97.31,2.98l49.18.07c.6.76,1.06,1.52,2.08,2.27-18.72.12-37.26.39-60.6,0l2.58-1.34c2.04-.36,4.5-.21,6.76-1Zm97.31.28v2.07l-8.19,4.98v-2.01l8.19-5.04Zm-138.39,1.99c-3.95,1.76-7.64,2.19-10.4,1.97-5.94-.48-15.02,2.01-16.85,7.74-.57,2.02-.58,2.08.51,3.11.54.51,1.07.9,1.17.86.96-.85,2.22-2.43,3.58-2.89,5.3-1.93,10.1-.36,14.98-1.71,3.93-1.08,7.46-4.29,7.02-9.07Zm-.17.52c-.67,7.92-9.21,8.96-12.97,8.73-7.61-.46-10.61,1.82-11.82,3.24-.4.38-.63.29-.57-.06.88-4.39,7.94-4.55,11.5-4.5,8.71.4,10.92-3.82,10.67-3.86-.66.3-1.15.56-1.82.88-.29.12-.23-.06-.98-.49-.01.06-.87,2.02-1.98.16.03.09-.79,1.65-2.31.2.01.16-.92,1.49-2.4.13-1.4,1.2-2.06.54-2.66-.31-.44.27-1.73,2.02-2.81.13-1.15.73-1.63,1.53-2.62,1.05-2.31.41-4.3,2.79-5.12,4.97-.25.75-.77.87-.83.05-.27-2.27,3.45-6.21,7.19-7.3,2.91-.85,4.89-1.46,11.28-1.21,3.63.14,8.25-1.8,8.25-1.8h0Zm93.3.6l2.3,1.57-40.12,55.7h-3.54l41.35-57.27Zm-64.35.04h4.56v7.57h-3.93l-1.4-2.1c.36.21.78.34,1.24.34,1.35,0,2.44-1.1,2.44-2.45s-1.1-2.45-2.44-2.45-2.44,1.09-2.44,2.45c0,.12.01.24.03.35l-1.47-2.19s.62-.37,2.11-1.04c.39-.17,1.31-.48,1.31-.48h0Zm14.06,0h7.73v7.57h-7.73v-7.57Zm16.93,0h8v7.57h-8v-7.57Zm17.27,0h7.99v7.57h-7.99v-7.57Zm61.23.18l.12,2.36-8.19,5v-2.34l8.07-5.02Zm-57.53.78c-1.43,0-2.59,1.16-2.59,2.59s1.17,2.6,2.59,2.6,2.59-1.16,2.59-2.6-1.16-2.59-2.59-2.59Zm-34.03.14c-1.43,0-2.58,1.16-2.58,2.59s1.16,2.6,2.58,2.6,2.59-1.16,2.59-2.6-1.16-2.59-2.59-2.59Zm16.86.05c-1.43,0-2.59,1.16-2.59,2.59s1.16,2.6,2.59,2.6,2.59-1.17,2.59-2.6-1.16-2.59-2.59-2.59Zm-25.58.34c1.2,0,2.17.97,2.17,2.18s-.97,2.18-2.17,2.18-2.17-.97-2.17-2.18.97-2.18,2.17-2.18Zm51.4.08c.52,0,.98.2,1.34.52l-2.36,3.22c-.59-.35-.98-.99-.98-1.73,0-1.11.89-2.01,2-2.01Zm-17.11,0c1.2,0,2.17.97,2.17,2.18s-.97,2.18-2.17,2.18c-1.2,0-2.17-.98-2.17-2.18s.97-2.18,2.17-2.18Zm-16.85,0c1.2,0,2.17.98,2.17,2.18s-.97,2.18-2.17,2.18-2.17-.97-2.17-2.18.97-2.18,2.17-2.18Zm-26.2.16c.89,0,1.62.73,1.62,1.62s-.72,1.63-1.62,1.63-1.62-.73-1.62-1.63.73-1.62,1.62-1.62Zm-4.96.09h0c13.78,17.63,21.11,35.94,24.33,55.41h-2.31c-3.83-21.18-12.45-39.9-24.15-54.56l2.13-.85Zm56.47.02c.95,0,1.71.77,1.71,1.72s-.77,1.72-1.71,1.72-1.71-.77-1.71-1.72.77-1.72,1.71-1.72Zm-34.03.14c.95,0,1.72.77,1.72,1.72s-.77,1.72-1.72,1.72-1.71-.77-1.71-1.72.77-1.72,1.71-1.72Zm16.86.05c.95,0,1.71.77,1.71,1.72s-.77,1.72-1.71,1.72-1.72-.77-1.72-1.72.77-1.72,1.72-1.72Zm42.89,1.23c.91,6.97-.89,11.48-6.18,12.21-6.75.93-7.63,1.44-7.67,7.86-.04,7.61-1.16,9.81-6.53,10.41-6.04.68-7.44,1.4-6.9,8.94.4,5.5-1.76,7.84-6.42,8.86-3.64.8-6.79,2.01-8.14,5.69h-3.32c.86-5.8,6.67-8.51,10.39-8.7,4.01-.95,4.85-2.3,4.2-9.36-.49-5.31,1.45-6.93,7.67-8.14,4.97-.98,6.19-2.42,5.92-6.5-.58-8.75,0-10.07,4.95-11.13,2.52-.6,6.63-.87,8.2-2.8,1.78-2.2,1.33-4.08,1.17-6.78l2.69-.56Zm31.93.23v2.29l-8.19,5.07v-2.23l8.19-5.13Zm-120.29,1.35c-1.75,7.59,4.27,9.24,7.93,10.52,4.26,1.49,5.3,3.65,4.81,11.19-.37,5.7.26,6.96,3.94,8.92,5.62,2.91,7.14,7.06,4.64,13.12-1.54,3.74-.73,5.39.24,8.65h-2.73c-.2.06-2.5-4.7-.54-9.14,2.33-5.27,2.26-7.92-2.93-10.29-4.02-1.83-5.25-3.56-5.5-7.34-.11-1.59-.09-2.38.28-5.84.47-4.36-1.08-6.23-7.5-8.62-2.86-1.07-4.8-3.55-5.39-7.49-.16-1.1-.02-2.37-.02-2.37l2.75-1.29Zm95.95.82l24.4,16.3-.17,3.62-25.89-17.37,1.65-2.56Zm-15.72.36c1.18,0,2.14.96,2.14,2.14s-.96,2.15-2.14,2.15-2.14-.96-2.14-2.15c0-1.18.96-2.14,2.14-2.14Zm-76.76.94c1.07,0,1.93.87,1.93,1.94s-.86,1.95-1.93,1.95-1.94-.87-1.94-1.95c0-1.08.87-1.94,1.94-1.94Zm116.75.23l-.08,2.18-8.03,4.99v-2.18l8.11-4.99Zm-116.81.62l-.51.89-.51.89h2.06l-.51-.89-.51-.89Zm8.75.81h55.72l-1.43,1.93h-52.9l-1.39-1.93Zm-19.27.09c7.38,9.66,14.63,19.77,20.22,38.52l-2.39.92c-4.62-15.09-11.72-27.8-20.09-38.16l2.26-1.28Zm127.4,1.72v2.39l-6.15,3.76-1.81-1.19,7.97-4.97Zm-130.67.26l1.09,1.44c-2.21,1.97-6.36,3.94-6.87,6.5-.55,2.7,1.88,5.21,4.29,5.04,3.1-.22,5.48-2.41,8.18-4.11l.94,1.39s-4.68,3.52-7.43,4.32c-6.03,1.76-10.53-5.91-6.07-10.47.68-.7,2.12-1.63,3.26-2.37,1.17-.76,2.61-1.74,2.61-1.74h0Zm24.81.95l51.22.31-32.71,45.28h-1.45c-2.54-16.79-8.82-31.93-17.06-45.59Zm-22.33,1.9l2.99,4.2s-1.95,1.87-5.17,3.64c-2.58,1.42-5.38-1.16-3.75-3.48,1.67-2.31,5.93-4.35,5.93-4.35Zm128.19.43v2.19l-3.55,2.18-1.62-1.04,5.17-3.33Zm-128.43,1.68c-1.48.02-3.81,1.62-4.7,3.09-.34.6-.22,1.1.1,1.52.48.63,1.06.59,2.76-.32,3.48-1.86,4.13-2.96,2.6-4.06-.21-.15-.47-.22-.75-.22h0Zm-.08.86c.18-.01.36.02.54.06.63.17.42,1-.21,1.18-.14-.22-1.18-.25-1.11.82-.25.6-.24.56-1.01.64-.51-.12-.84.23-.94.45-.53.28-1.17.19-1.3-.13-.12-.31.32-1.2.68-1.2.18.01.49-.25.81-.47-.01-.58.67-.67.87-.67.19.04.85.05,1.16-.48.16-.13.33-.19.51-.2h0Zm128.51.56v3.38l-2.57-1.65,2.57-1.73Zm-142.12.42c9.33,11.06,16.05,22.83,20.32,39.12l-1.87,1.3c-2.83-11.42-7.18-23.49-20.05-39.18l1.6-1.24Zm109.13.19c4.22,3.6,21.53,19.96,24.83,48.99l-2.32,1.42c-1.86-15.32-7.86-32.89-24.01-48.46l1.5-1.95Zm-8.34,1.01c1.18,0,2.14.96,2.14,2.14,0,1.18-.96,2.14-2.14,2.14-1.18,0-2.14-.96-2.14-2.14s.96-2.14,2.14-2.14Zm-103.39.84s1.96,2.02,1.96,2.51c-.01.95-.76,1.49-5.27,3.14-.76.28-4.09,1.05-4.09,1.05l.08-1.66c1.7-.61,6.06-1.68,6.39-2.65.16-.38-.65-1.35-.48-1.35l1.41-1.04Zm31.08.41c1.07,0,1.94.88,1.94,1.95s-.86,1.95-1.94,1.95-1.94-.87-1.94-1.95.87-1.95,1.94-1.95Zm78.51.56c14.1,13.83,21.86,30.92,23.67,48.56-16.42,13.41-27.58,30.27-32.01,51.35-2.19-3.67-4.05-7.88-6.08-12,21.91-19.33,26.52-54.15,7.57-78.55l6.84-9.36Zm-78.46.3l-.51.89-.51.89h2.06l-.51-.89-.51-.89Zm-7.78,2.34l.99,1.54c-1.78,1.68-7.21,3.21-7.7,6.89-.27,2.66,1.61,5.47,4.25,5.04,3.04-.5,4.94-1.74,7.65-3.29l.77,1.6s-2.16,1.76-6.32,3.29c-3.91,1.44-7.61-1.01-8.3-5.55-.51-3.3.93-5.07,6.63-8.32.64-.34,2.02-1.2,2.02-1.2h0Zm67.19.73c1.18,0,2.14.96,2.14,2.15,0,1.18-.96,2.14-2.14,2.14s-2.14-.96-2.14-2.14.96-2.15,2.14-2.15Zm-87.14.08h0l1.29,1.22s-.55.82-3.73,2.74c-2.86,1.73-3.15,1.45-1.73,2.65,2.65,2.25,6.33,7.23,6.31,8.52-.02,1.24-1.12,2.38-3.25,3.34-1.16.52-5.76,2.17-6.43,2.29-1.34.15-1.72.69-.38,1.91,2.28,2.63,4.23,8.25,3.44,9.96-.88,1.93-1.94,2.26-10.39,2.65-.96.04-1.42-.23-.9,1.01.38.9.78,2.13,1.53,5.95.67,3.4.56,4.93-.76,5.63-.76.4-6.63.26-9.06-.22-2.78-.55-3.08-.58-2.63,1.23.58,2.51.94,9.23-.95,10.53-.79.51-1.63.39-5.08-.78-2.2-.74-4.11-1.6-4.11-1.6l.04-2.08c1.79.74,6.71,2.87,8.11,2.2,1.66-2.39-.64-10.75-1.52-12.54-1.06-2.14.05-2.6,2.49-1.28,1.28.91,12.34,5.28,11.72,1.37-.67-3.72-1.88-7.95-4.21-10.6-2.16-2.46-1.08-3.46,1.32-2.39,4.25,1.91,13.03,1.44,12.59-.54-.58-3.21-3.48-7.57-7.46-10.95-1.11-.94-1.15-1.34.16-1.57,3.72-.3,14.36-1.39,12.87-3.9-1.28-2.05-2.98-4.32-4.43-5.55-2.38-2.01-4.79-2.88-5.85-3.29l.07-1.54c4.85-.4,7.36-1.87,10.93-4.38h0Zm-11.73,1.51c-1.74,18.29-9.36,33.35-25.08,43.86l-.09-2.05c13.83-10.43,20.46-25.25,22.26-39.59l2.91-2.22Zm13.35.86l1.29,1.16s-.33.51-2.19,2c-1.45,1.12-.94.68.04,2.01.88,1.06,2.44,3.18,2.44,3.18l-.46,2.82c-1.64-2.34-3-4.04-5.43-6.54-1.23-1.28-1.16-1.31.6-2.23,1.32-.73,2.4-1.62,3.71-2.4h0Zm20.09.24s2.61,4.62,2.6,5.04c-3.05,1.91-6.92,5.07-8.87,1.55-.6-1.13-.22-2.6,1.33-3.62,2.06-1.51,4.75-2.92,4.94-2.96h0Zm15.22,1.58c1.07,0,1.94.87,1.94,1.94,0,1.08-.87,1.95-1.94,1.95s-1.94-.88-1.94-1.95.87-1.94,1.94-1.94Zm-15.69.16c-1.85.49-3.66,2.15-4.68,2.88-.37.27-.08,1.6.28,2.06.46.59,1.3.49,2.3-.07.42-.24,1.19-.62,1.69-.86,1.42-.66,2.01-1.15,1.96-1.7-.23-.74-.81-2.36-1.56-2.31h0Zm-37.17.71c.4,2.05-.83,5.66-1.53,7.69-4.14,5.43-10.14,8.21-15.84,10.11-1.27.42-2.97.21-2.97.21,7.89-8.15,14.66-14.13,20.34-18h0Zm52.86.07l-.51.89-.51.89h2.06l-.51-.89-.51-.89Zm-15.48.13c.29.05.48.52.63,1.03-.89.48-1.38.07-1.27.75,0,0,.09,1.05-1.22,1.08-.32-.14-.87-.11-1.14.16-.91.38-1.71-.42-.72-.88.27-.12.93-.33,1.11-.74.09-.51.51-.91.97-.63.24.02.79.06.96-.33.27-.35.49-.46.66-.43h0Zm-53.55.86c-.16.01-.31.04-.46.07-.38.36-.99,6.02-.6,6.43.55.57,2.08.72,2.23.05.48-2.22.36-3.88.59-5.75-.76-.73-1.29-.83-1.76-.79h0Zm.59.61c.84.35.43,3.35,0,4.74-.22.84-.87.65-1.12-.12-.25-.81-.04-3.1.44-4.04.26-.44.49-.63.68-.58h0Zm36.53.02l1.35,1.68c-2.86,27.28-22.27,50.89-42.99,60.25l-.06-1.81c23.71-12.5,37.98-33.32,41.71-60.12h0Zm93.8.11l2.57,3.55-3.68.12,1.11-3.66Zm-110.23,1.15c1.27,0,8.02,4.17,7.12,6.25-.72,1.65-6.37,1.79-8.96,1.55l.39-1.59s.79.27,3.8-.05c3.16-.21,2.93-1.3-.69-3.61-1.56-.98-1.92-1.22-1.92-1.22l.26-1.34Zm18.71,2.24c2.09,3.54,4.07,7.53,5.93,12-25.53,24.19-23.55,57.13-7.45,78.75l-6.94,9.4c-13.87-13.29-21.42-29.63-23.97-46.99,20.24-14.62,29.76-36.45,32.43-53.16h0Zm94.81,1.07l1.52,2.93-3.66-.06,2.14-2.86Zm-15.81,1.47c1.18,0,2.14.96,2.14,2.14s-.96,2.14-2.14,2.14-2.14-.96-2.14-2.14c0-1.18.96-2.14,2.14-2.14Zm-59.4.58l.73,1.66c.03.21-5.12,1.89-6.84,3.98-3.55,4.3.77,8.07,4.5,6.93,2.04-.62,3.54-1.48,5.56-2.51l.36,1.08c-2.68,1.45-4.93,3.11-7.86,3.17-5.04.1-7.9-6.65-3.56-10.31,2.21-1.86,4.55-2.67,7.11-3.99h0Zm66.77,1.03c16.65,24.11,5.25,50.54-5.5,59.89l-.29-2.84c18.1-20.7,11.81-44.88,4.26-55.63l1.53-1.42Zm10.72,1.08l1.31,2.98-3.87-.41,2.56-2.57Zm-67.12.97c1.07,0,1.94.88,1.94,1.95s-.87,1.94-1.94,1.94-1.94-.87-1.94-1.94c0-1.08.87-1.95,1.94-1.95Zm54.42.38c14.59,21.29,6.45,55.24-21.38,65.58l-.14-2.38c28.39-11.91,31.17-43.63,19.77-61.53l1.76-1.66Zm-63.26.13l1.84,5c-2.32,1.56-3.89,2.1-5.83,2.46-2.75.51-4.34-2.98-2.07-4.45,1.99-1.29,3.73-2.23,6.06-3.01Zm-47.33.02c.34-.02-.02.84-.9,2.98-1.94,4.72-2.07,4.82-6.96,5.6-2.54.4-4.44.51-6.25.33-2.73-.26-3.9-1.04-2.13-1.41,5.13-1.13,10.79-3.8,14.48-6.38.96-.69,1.52-1.11,1.76-1.12h0Zm56.2.4l-.51.89-.52.89h2.06l-.51-.89-.51-.89Zm36.56.18c1.33,0,2.4,1.08,2.4,2.41,0,1.33-1.08,2.41-2.4,2.41s-2.4-1.08-2.4-2.41,1.07-2.41,2.4-2.41Zm-72.22.67l-.53,1.86s-2.96,1.57-4.36,2.16c-1.07.44-1.15.53-.8,1.53.69,1.99,2.03,4.46,2.03,4.46l-1.24,2.81c-.76-2.53-1.55-5.21-2.94-7.56-1.32-1.84-1.56-2.07.49-2.46,2.65-.89,5.03-1.54,7.36-2.8h0Zm26.11.6c-1.45.06-4.48,1.28-4.77,2.45-.17.66.02,1.58.57,1.79,1.51.56,4.53-.68,5.33-1.82.25-.35-.13-1.08-.4-1.53-.2-.35-.16-.92-.73-.9Zm-.02.98c.05,0,.11,0,.17.02.25-.02,1.14,1.11.14,1.02-.35-.03-.66.1-.94.39-.03.55-.81.75-1.19.56-.28-.14-.67.15-.71.32-.56.41-1.27.39-1.37.1-.19-.2.38-1.04.87-1.01.11,0,.46-.23.79-.52.16-.57.76-.47,1.13-.44.42,0,.74-.43,1.11-.45h0Zm78.5.11l1.07,2.98-3.83-.34,2.76-2.64Zm-17.72.66c1.29.37,2,1.57,1.29,2.78-.79,1.01-1.52,1.02-2.68.97.95,1.12,1.36,2.68.44,3.7-1.4,1.43-4.1-.76-3.9-.96l4.84-6.48Zm-103.91,1.09s5.89,5.09,5.93,7.38c.02.87-.26,1.15-.95,1.38-2.31.77-8.75-1.21-8.75-1.21l.83-1.58c1.01.28,6,1.58,6.43.94.45-.66-4.17-5.18-4.18-5.19l.69-1.72Zm29.23,2.13l.71,2.46-2.41-.6,1.7-1.86Zm94.04.44l.63,3.4-3.86-.9,3.23-2.5Zm-73.51.05l.57,2c-25.58,11.91-33.05,39.26-19.71,61.83l-1.51,2.08c-17.86-29.05.23-58.53,20.64-65.91h0Zm-58.17,2.01c.42.02.62.19.53.59,0,.41-2.58,3.72-3.42,4.46-1.81.74-8.81-2.2-9.86-4.47-.21-.67.49-.37,2.04-.06,3.73,1.07,7.53-.14,10.23-.49.19-.02.35-.04.49-.03h0Zm68.07.04c1.07,0,1.94.87,1.94,1.94s-.87,1.95-1.94,1.95-1.94-.87-1.94-1.95.87-1.94,1.94-1.94Zm-32.95.04l.35,3.03-2.97-.17,2.62-2.86Zm32.9.92l-.51.89-.51.89h2.06l-.51-.89-.51-.89Zm-80.53,1.44c1.95,1.76,4.81,3.21,7.35,3.72,1.58.35,1.12.51-.34,2.03-1.37,1.44-1.26,1.62-2.65.91-2.33-1.19-4.86-3.88-4.76-5.34.04-.61.15-1.32.41-1.31h0Zm145.29.33l.48,3.23-3.65-1.27,3.16-1.97Zm-101.28,1.16l1.19,2.9-3.23-.09,2.05-2.8Zm80.02.69c1.52-.07,2.12,1.11,2.13,2.08,0,.4-.1,1.09-.1,1.09,1.9-1.21,4.43-.22,4.35,1.75-.11,2.77-1.45,2.79-3.66,2.43,1.21,2.01-.23,3.94-2.49,3.2-2.07-.67-1.67-2.86-.7-4.16-4.87.8-6.18,7.76-.55,9.83-1.13-1.76-1.41-3.86,1.04-4.21,2.28-.33,3.25,1.41,2.26,3.5,2.14-.75,4.16.49,3.52,2.58-.78,2.53-3.02,2.36-4.34.81.95,2.29-1.25,3.94-2.9,3.06-2.61-1.4-1.32-3.9.43-4.56-6.73-.7-8.29,8.64-3.33,9.98-1.27-.8-1.41-4.48,1.49-3.97,2.85.58,2.17,3.24.34,4.45,2.21-.47,4.28,1.46,2.94,3.42-1.59,2.31-3.77.66-4.59-.91.26,2.11-1.08,3.45-2.8,2.66-2.95-1.36-.77-4.76,1.53-4.54-4.68-2.78-11.04,3.05-7.29,7.87-.15-2.19.94-3.99,2.44-3.74,1.32.15,2.47,1.66,2.1,2.85-.35,1.01-1.49,1.79-2.7,2.03,3.58.4,3.88,2.94,2.4,4.19-2.52,2.13-3.69-.33-4.27-1.76-.51,3.57-4.7,2.36-4.85-.22-.14-2.83,3.11-2.77,3.71-2.61.08-.1-2.98-2.79-5.74-3.15v-1.01c10.89-6.86,15.12-19.34,11.67-30.69l.66-.76c1.78,1.36,3.56,4.28,6.84,3.21,0,0-.77-.54-1.14-.91-1.69-1.67-.74-3.65,1.61-3.75h0Zm-71.76,2.07l1.13,1.66c-16.51,19.43-13.51,41.65-4.01,56.36l-1.38,1.68c-8.41-10.82-15.27-37.05,4.26-59.7h0Zm-52.34.24c1.36.79,2.28,1.98,3.55,3.03.98.8.97.94.16,1.7-1.83,1.77-2.86-.79-3.45-1.84-.72-1.4-.8-2.84-.26-2.89h0Zm64.22.08c1.16.02,2.22,1.03,2.2,2.36-.02.43.01.78.01.78,0,0,.36-.44.64-.97,1.41-2.37,4.44-1,3.94,1.71-.23,1.27-2.37,1.77-2.96,1.41.55,1.52,2.06,1.88,3.88,2.53.64.12,1.91.44,1.91.44v1.03c-9.91,6.27-15.64,16.89-12.01,31.42l-1.1,1.49c-2-4.83-3.82-4.72-7.11-4.91,0,0,.82.58,1.29,1.14,1,1.18.55,3.24-.83,3.46-3.19.5-3.23-1.78-2.8-3.32,0,0-.57.48-.85.66-1.27.83-2.85-.03-2.99-1.67-.14-1.54.38-2.54,1.97-2.73.53-.06,1.35.07,1.35.07,0,0-.32-.61-.49-.95-.76-1.49.91-2.77,2.43-2.45,2.41.58,2.22,2.67.82,4.31,3.73.28,5.69-2.17,5.42-4.6-.34-2.97-1.7-4.57-4.64-5.09,0,0,.47.75.68,1.11.75,1.34-.33,2.98-1.91,2.98-1.62-.01-2.66-1.5-2.03-2.98.15-.36.76-.81.67-.85-.06-.03-.9.23-1.13.27-1.95.3-3.2-1.41-2.38-3.13.58-1.22,2.32-1.55,3.58-.95.2.07.44.36.48.29.04-.06-.13-.46-.18-.74-.4-1.57.35-2.41,2.05-2.31,2.38.15,3.26,2.1,1.66,3.85-.41.45-1.04,1.12-1.04,1.12.08.34,3.39.6,5.08-1.18,1.96-2.06,2.27-6.35.3-7.75-.32-.23-.98-.69-.98-.69.94,1.89-.79,4.06-2.31,3.65-3.04-.74-2.78-3.23-.78-4.02,0,0-2.03-.76-2.61-1.58-.83-1.16-.55-2.23.44-3.04,1.25-1.01,3.02-.35,3.88.9.52-1.58,1.25-2.65,3.4-1.79,1.51.72,1.49,2.74-.17,3.84-.53.35-1.48.68-1.48.68,0,0,1.43.82,3.16.84,3.35.04,6-3.93,4.65-6.95-.27-.61-.96-1.41-.96-1.41,0,0-.07,1.06-.28,1.47-.77,1.51-2.55,1.54-3.6.58-.96-.87-.68-2.02.07-2.81.56-.6,1.07-.72,1.86-1.08-.89-.3-1.89-.52-2.32-1.45-.4-.88-.12-1.97.95-2.64.37-.23.77-.33,1.16-.33h0Zm82,.41l.23,3.42-3.8-1.46,3.57-1.96Zm-104.77.2l1.37,3.11h-3.53s2.16-3.11,2.16-3.11Zm73.78,0c3.32,12.31-1.91,21.84-10.76,28.76v-1.97c6.92-5.9,11.68-12.86,9.39-25.26l1.37-1.53Zm-101.73.04s5.13,6.67,4.1,8.92c-1.36,2.15-9.44-2.48-9.34-2.73l1.02-.98c1.28.52,5.28,2.74,6.16,2.39.31-2.01-2.05-4.62-2.94-6.36l.99-1.25Zm61.05.56h38.92l-1.16,1.88h-3.03l-6.01,11.04h-27.97l-.74-12.91Zm-43.69.52l-1.35,2.44c-1.26.39-5.06.46-5.37.71.46,1.25.96,4.93.96,4.93l-1.5,1.92c-.4-2.37-1.07-5.36-1.66-7.55-.5-1.86-.36-1.45,3.59-1.76,1.77-.1,3.59-.33,5.32-.7Zm7.98,2.94l1.6,2.85-3.24.03,1.64-2.89Zm-38.98.19c.18-.07,1.18,1.06,1.35,1.38-.07.74-1.22,1.15-1.4.88-.07-.11-.09-1.77.02-2.23,0-.02.01-.03.02-.03h0Zm146.83.04l-.03,3.57-3.86-1.72,3.89-1.86Zm30.61.81l-.05,2.31c-13.98,6.86-34.97,25.45-40.92,58.47l-1.09-1.64c5.95-31.53,26.47-50.06,42.06-59.15h0Zm-140.66,3.18l1.74,2.63-3.14.34,1.4-2.98Zm110.12,1.01l-.31,3.16-3.8-2.11,4.11-1.05Zm-72.92.66c.01.75-.05,1.29,0,2.04-8.62,5.6-11.53,14.41-10.09,25.51l-1.19,1.77c-2.8-10.06.15-22.45,11.29-29.32Zm-70.66.43s3.28,7.42,1.99,9.17c-1.26,1.03-4.17-.69-5.49-1.39l-.04-1.78s1.01.52,2.02.93c2.09.93,2.09-.18.95-3.28-.4-1.09-.8-2.35-.8-2.35l1.37-1.31Zm170.43.22c.88.52,3.72,1.36,3.72,1.36l-.03,2.1-5.86-2.11,2.17-1.35Zm-139.01,2.29l2.25,2.36-3.13.72.88-3.08Zm136.2.27c.21-.02.43,0,.66.02,1.99,0,5.82,1.62,5.82,1.62l-.02,2.33c-1.95-.57-4.21-1.65-6.26-1.96-1.63-.23-1.53.69-1.54,2.99-.01,3.12.77,5.94,2.26,9.07,1.23,2.59.59,3.28-1.42,2.12-3.62-2.49-11.33-4.38-12.52-2.93-1.22,1.49,1.18,8.92,3.96,12.47,1.13,1.44,1,1.54.47,2.1-.43.45-.92.62-2.14.23-4.01-1.28-9.82-1.57-11.49-.48-1.66,1.08,2.66,8.52,6.29,10.92,2.35,1.68,1.9,2.52-1.9,2.61-6.21.03-10.98,1.42-10.72,3.12.45,2.89,4.47,6.86,9.08,8.96,2.82,1.16,1.64,1.62-.23,2.29-3.14,1.06-6.16,2.77-9.11,4.36l-1.42-1.82s2.97-1.9,6.2-3.72c.76-.43.72-.58-.34-1.48-3.44-2.9-5.97-6.13-6.5-8.31-.51-2.12.54-3.45,3.67-4.65,1.93-.74,2.65-.95,4.35-1.34,2.46-.55,2.5-.63,1.45-2.53-.47-.85-1.24-2.26-1.71-3.12-3.66-6.29-1.73-8.56,6.77-8.68,2.09-.11,2.49-.12,2.37-.84-.45-2.96-1.76-6.36-1.57-8.87.39-3.78,4.27-4.7,11.08-2.99,1.58.4,1.69.31,1.41-.96-1.24-5.4-.11-10.31,3.06-10.54h0Zm-24.34.42l-.6,3.67-3.63-2.42,4.22-1.25Zm-135.69.87l10.01.66-1.59,1.87-6.05-.11-.23,5.18-1.96,1.92-.19-9.52Zm64.85.4h8.17v8.75h-8.17v-8.75Zm9.82,0h7.67v8.75h-7.67v-8.75Zm9.18,0h8.15v8.75h-8.15v-8.75Zm71.81.7c-.19,2.25.28,6.31.47,8.06-.13.52-.49.45-2.64-.04-1.49-.5-5.63-.65-5.63-.65l1.73-1.85c1.42.17,2.54.16,4,.34-.02-1.47.04-4.28.04-4.28l2.03-1.58Zm-133.13,1.73l2.3,2.32-2.95.76.64-3.08Zm112.37.76l-.91,3.74-3.33-3.01,4.25-.73Zm26.94.1c1.67-.04,3.06.53,4.6,1.88v1.91s-3.26-1.48-3.26-1.48c-.04,2.18,1.88,6.11,1.88,6.11l-1.67,1.42c-1.35-2.21-2.17-4.88-2.25-7.37.02-.9-.11-2.43.7-2.47h0Zm-140.43,3.78l2.74,1.63-3.03,1.23.3-2.86Zm112.44.84l-1.34,3.85-2.92-3.33,4.26-.52Zm-144.96,1.23l7.75,2.76-1.69,1.14-6.13-1.94.07-1.96Zm75.68,1.02h27.81l.61,13.64-38.98-.32,1.36-1.93,2.53-.02,6.67-11.37Zm-43.68,1.06l2.9,2.05-3.01,1.33.12-3.39Zm145.73,1.2v2.23c-9.4,6.98-19.69,18.89-21.42,40.16l-2.42,2.17c1.24-20.77,9.85-34.96,23.85-44.56h0Zm-34.33.08l-1.37,3.46-2.71-3.22,4.07-.24Zm11.21.64c-.06,2.06,1.6,8.45,1.6,8.45-2.57.13-5.05-.17-7.82.61l1.3-2.34s1.21-.13,2.26-.34c2.18-.44,1.95-.17,1.45-2.07-.48-1.79-.5-2.16-.5-2.16,0,0,1.55-2.16,1.71-2.15h0Zm7.18.44c2.56.02,6.4,2.32,8.12,3.64l-.91,1.02c-.26.09-3.84-1.84-6.67-2.3.92,1.83,1.36,3.2,3.41,6.11l-1.32,1.65c-.4-.09-5.51-8.01-4.16-9.73.41-.28.93-.39,1.52-.39Zm-151.02,1.77h0c3.37,20.48,11.41,34.54,24.11,47.2l-1.29,1.69c-14.92-13.71-23.07-31.16-25.2-47.57l2.38-1.32Zm21,.86l2.75,1.5-2.82,1.65.07-3.15Zm145.91.06l-.02,3-1.72-1.74c.46-.42,1.03-.84,1.74-1.26h0Zm-36.17.61l-1.87,3.45-2.44-3.27,4.31-.18Zm33.51,1.49c2.49.35,3.29,5.34,2.46,6.31-.38-.61-3.81-2.75-5.36-3.64-.1-.26,2.41-2.51,2.9-2.67Zm-40.01,2.56l3.98.38-2.12,3.3-1.87-3.68Zm-103.21,0l3.1,1.52-2.82,1.99-.29-3.51Zm140.06,1.47c.52,0,1.1.22,1.82.63,2.8,1.57,4.28,3.29,4.12,4.81-.07.7-.46.84-.92.33-.82-.92-3.58-2.11-5.95-2.58-1.8-.35-1.97-.51-1.43-1.35.82-1.27,1.49-1.85,2.35-1.85h0Zm-47.97,1.45c4.31,16.4,12.07,29.16,21.59,39.55l-2.15,1.54c-7.23-8.32-15.18-18.06-21.67-39.13l2.23-1.96Zm-50.82.82h3.22s.02,0,.02,0c.46.02-1.37,7.23-7.7,7.71-4.01.67-4.46,1.34-4.52,7.61-.08,8.49-1.45,10.48-8.36,11-4.58.35-5.18,1.28-4.4,7.88.74,6.28-1.63,9.48-7.46,9.48-5.05.42-7.14,2.78-7.13,7.48,0,1.9.03,2.36.03,2.36l-3.26.26s.01-3.09.25-4.59c.99-6.08,3.59-8.51,9.05-8.48,4.22-.32,4.88-1.01,4.73-7.44-.16-6.54-.25-6.49,1.45-8.21,1.09-1.1,2.34-1.6,4.56-1.81,6.91-.65,7.45-1.12,7.43-8.23-.64-5.91.99-9.53,4.73-9.82,7.44-.57,7.35-5.19,7.35-5.19h0Zm10.69,0h3.51l-40.42,57.4-2.13-1.61,39.04-55.79Zm4.9,0c3.8,13.85,6.79,27.67,18.73,45.78l-50.66-.33,31.93-45.45Zm1.3,0h1.81c4.44,24.02,18.47,46.75,26.17,55.05l-1.5.8c-11.23-14-21.43-30.35-26.48-55.85h0Zm9.81,0h2.88c.29-.14,1.49,7.34-.29,10.64-1.59,4.46-.81,6.98,2.65,8.6,5.96,2.79,7.46,5.58,6.7,12.44-.53,4.8.92,7.12,5.41,8.66,5.35,1.84,7.69,4.73,7.67,9.47,0,.73-.27,1.56-.27,1.56l-2.99,1.76s.04-.64.15-1.41c.78-5.25-.21-6.68-6.39-9.15-5.83-2.34-7.28-5.04-6.29-11.79.32-2.2-.12-4.42-1.03-6.1-1.53-2.73-4.9-2.7-7.33-5.2-2-2.13-2.23-5.12-.52-10.22,1.29-3.88,1.26-5.71-.36-9.26h0Zm32.72.06l3.98.61-2.33,2.98-1.65-3.59Zm-100.19,1.04l3.44.95-2.59,2.7-.85-3.65Zm136.47.72c1.18-.03,3.46.38,5.33,1.32,4.28,2.14,5.06,3.9,1.31,2.95-2.12-.53-5.16-.41-8.1.32-3.1.77-3.04.8-1.97-1.08,1.35-2.38,1.7-3.46,3.43-3.51h0Zm-15.45.9c2.6-.04,5.22.71,7.68,1.63l-.78,1.34c-1.7-.28-3.49-1.12-6.09-.91,1.06,2.04,2.32,3.1,4.01,4.9l-.63,1.35c-.15.18-4.94-3.83-5.9-6.52-.43-1.22-.04-1.75,1.7-1.79h0Zm-56.31.31c1.28,0,2.32,1.04,2.32,2.33s-1.04,2.34-2.32,2.34-2.32-1.05-2.32-2.34c0-1.29,1.04-2.33,2.32-2.33Zm48.09.07s3.78,7.52,3.54,7.8c-2.35,1.04-4.91,1.57-7.48,2.52l.49-2.19s.86-.06,3.74-1.16c1.38-.53-1.51-4.38-1.51-4.38l1.21-2.59Zm-15.37.56l3.92.71-2.62,2.94-1.31-3.65Zm-73.34.03c.93-.07,2.36,1.73,2.36,1.73l-4.75,6.59c-2.26-.46-1.78-3.9.29-4,.48,0,1.35.08,1.35.08,0,0-.64-.35-1.01-.84-1.39-1.68-.07-3.43,1.76-3.57h0Zm39.53,1l.51.89.51.89.51-.89.51-.89h-2.06Zm23.01.63c5.52.05,5.59,6.85,4.53,9.1-.77,1.54-1.94,2.4-5.47,4-3.06,1.39-3.4,1.29-3.4,1.29l-.73-1.64s1.78-.79,3.7-1.57c3.97-1.61,4.94-2.84,4.5-5.72-.62-4.08-3.76-4.72-9.83-1.98-.71.32-1.59.64-1.59.64l-.42-.82c.1-.08,4.87-2.59,7.54-3.21.42-.06.81-.09,1.18-.09h0Zm-85.4.74l3.12,1.04-2.28,2.25-.85-3.28Zm139.16.88c2.76,0,5.03.46,5.03,1.45,0,.47-.11.51-2.59.85-3.77.52-10.06,3.75-13.61,6.75-2.1,1.77-1.56,1.36-.67-1.21.88-2.56,2.19-5.61,2.9-6.08,1.77-1.16,5.81-1.75,8.94-1.76h0Zm-45.14.35l2.66.58-1.73,1.68-.93-2.27Zm-8.9,1.45c2.16.11,2.82,2.26,1.85,3.6-1.59,2.2-7.3,4-7.3,4l-1.94-5.22s4.44-2.53,7.38-2.38Zm-8.98.63c6.15,17.46,13.67,28.8,21.63,38.19l-1.92,1.21c-8.45-10.04-16.24-21.81-21.84-39.13l2.14-.27Zm67.88.47c.29,0,.47.09.4.38-.16.72-11.06,11.25-17.38,16.61-2.88,2.44-2.78,2.42-3.03,2.12-.15-1.81,1.07-8.29,1.81-9.41,4.22-4.49,10.72-8.2,17.07-9.51.41-.09.83-.18,1.12-.18Zm-59.36.15c-.74.02-1.86.47-3.35,1.05-2.17.84-2.35,1.85-1.38,3.11.42.55.86.43,2.94-.4,2.13-.85,3.04-1.22,3.17-1.98.19-1.11-.42-1.8-1.38-1.78h0Zm.11.59c.75,0,.73.48.82.8.09.33-.49.67-1,.66-.18,0-.62.1-.89.39-.27.4-.45.78-.94.69-.29-.05-.82-.07-1.02.11-.97.85-1.94.15-1.49-.71.11-.21.51-.32.83-.32.28,0,.91-.06,1-.4.11-.41.73-.52,1.16-.51.47.06.85-.17.97-.37.17-.16.38-.33.57-.33h0Zm-49.91.13c1.28,0,2.33,1.04,2.33,2.33s-1.04,2.34-2.33,2.34-2.32-1.05-2.32-2.34c0-1.29,1.04-2.33,2.32-2.33Zm-33.6.05l3.52.48-2.22,2.85-1.3-3.33Zm70.26,1.8c1.28,0,2.32,1.04,2.32,2.33s-1.04,2.33-2.32,2.33-2.32-1.04-2.32-2.33,1.04-2.33,2.32-2.33Zm-1.08,1.6l.51.89.51.89.51-.89.51-.89h-2.06Zm-67.61,1.03l3.82.25-2.19,2.93-1.63-3.18Zm20.16.56c1.28,0,2.32,1.04,2.32,2.33,0,1.29-1.04,2.33-2.32,2.33s-2.32-1.04-2.32-2.33,1.04-2.33,2.32-2.33Zm95.39,1.45c1.59-.03,3.44.14,3.44.14l-.45,1.79c-1.94.19-4.43-.35-6.52.52.77,1.27,5.31,3.07,5.81,3.51.05.19-.37,1.9-.37,1.9.12.44-7.67-3.17-7.93-6.22.01-1.03,3.37-1.6,6.02-1.64h0Zm-26.8,1.86c4.43.04,6.61,6.25,4.89,8.99-2.16,2.99-4.54,4.27-7.81,5.91l-1.16-1.8c5.53-2.37,9.43-5.76,7-9.29-2.81-3.88-6.88-.37-11.35,1.27l-.79-1.44c.21.12,6.22-3.51,9.22-3.64Zm14.26.23c2.11,4.11,5.73,7.21,6.72,7.96,0,0-3.6,2.32-5.76,3.8l-1.26-1.49,3.09-2.66-3.48-4.87.69-2.73Zm-100.7.42h3.48s-1.49,3.15-1.49,3.15l-1.99-3.15Zm134.62.58c-.39,2.03-.45,4.18-.62,6.55.76.7,1.45,1.05,2.05,1.01.67-2.13,1.16-4.55.83-7.04-.64-.5-1.47-.44-2.26-.52h0Zm1.22.67c.25.03.49.38.53.99.1,1.37.05,3.05-.4,4.18-.32.73-1.06.46-1.09-.54-.03-1.35.1-2.5.32-3.71.12-.66.39-.95.64-.92Zm-49.67,1.79c2.28.17,3.16,2.09,2.32,3.46-2.06,2.65-4.17,3.13-6.88,4.66l-2.7-5.07s5.26-2.98,7.26-3.05h0Zm-.06,1.13c-1.52-.08-2.46.92-3.73,1.54-1.55.76-2.06,1.95-1,3.02,1.16,1.3,5.43-1.66,5.89-2.55.64-1.23-.04-1.95-1.16-2.01h0Zm-83.26.21l3.4.04-1.84,2.61-1.56-2.65Zm83.14.32c.14,0,.3.08.5.23.4.3.46,1.13-.35,1.34-.41.11-1.12.11-1.14.66-.01.41-.64.57-1,.51-.37-.06-.98-.09-1.1.37-.31.63-.55.64-.99.2-.47-.48-.25-1.08.67-1.18.39-.04.73-.33.87-.63-.02-.39.25-.62.68-.53.61,0,1.01-.24,1.44-.81.14-.11.27-.17.41-.16h0Zm-19.46.28c1.28,0,2.32,1.04,2.32,2.33s-1.04,2.34-2.32,2.34-2.32-1.05-2.32-2.34,1.04-2.33,2.32-2.33Zm-.96,1.65l.51.89.51.89.51-.89.51-.89h-2.06Zm-48.62,2.64c1.28,0,2.33,1.05,2.33,2.34s-1.04,2.33-2.33,2.33-2.32-1.04-2.32-2.33c0-1.29,1.04-2.34,2.32-2.34Zm97.44,1.74l-.03.24.02,1.62c.06.08-3.25,1.84-5.4,2.81-.7.38-.24,1.25-.2,2.01l-1.06.74s-1.59-1.21-1.78-1.88c-.52-2.13,5.88-4.9,8.45-5.55h0Zm-153,.33l26.59,18.26-1.82,2.66-24.7-16.86-.08-4.06Zm133.77.46c3.33.9,5.74,4.97,5.19,8.16-1.97,3.71-4.29,4.86-7.61,6.89l-1.25-1.55c4.05-1.99,8.8-5.35,6.21-9.5-2.85-3.91-7.3.29-11.57,2.24l-1.18-1.61c3.32-1.42,6.66-4.55,10.21-4.62Zm-18.83,1.33c1.28,0,2.33,1.04,2.33,2.33,0,1.29-1.04,2.34-2.33,2.34s-2.32-1.05-2.32-2.34,1.04-2.33,2.32-2.33Zm-72.04.65c1.28,0,2.32,1.04,2.32,2.33s-1.04,2.33-2.32,2.33-2.32-1.04-2.32-2.33,1.04-2.33,2.32-2.33Zm71.05.98l.51.89.51.89.51-.89.51-.89h-2.06Zm19.07,1.09c.71-.02,1.38.15,1.94.59,2.79,2.81-3.32,6.44-5.71,7.76l-3.35-4.64s4.02-3.61,7.12-3.71h0Zm.02,1c-1.57-.09-4.01,1.76-4.86,2.78-.54.75-.29,1.49.73,2.45.86.52,5.61-2.81,5.51-3.65-.13-1.1-.67-1.54-1.38-1.58Zm-132.85.14l.74.5-.74.59v-1.09Zm132.87.42c.24.02.44.15.62.39.33.4.13,1.09-.57,1.21-.35.06-.87.16-1.04.68-.14.34-.62.64-1.09.62-.55-.13-.84.21-.87.45-.27.46-.94.54-1.35.1-.32-.34.25-1.31.63-1.29.07.03.48.12.97-.54.1-.49.66-.78,1.07-.76.41.14.66-.32.82-.57.3-.21.57-.3.8-.28h0Zm-131.1.74l1.07.73-2.83,2.02v-1.63l1.77-1.12Zm2.07,1.36l1.45.98-5.29,3.81v-2.06l3.84-2.72Zm2.71,1.74l1.53,1.02-8.08,5.48v-2.12l6.55-4.39Zm2.91,1.48v1.76l-9.46,6.63v-1.79l9.46-6.61Zm1.07,1.27l2.04,1.4.51,59.79-12.75,8.8v-2.61s10.72-7.77,10.72-7.77l-.52-59.6Zm153.82,1.62c-2.86,3.28-6.7,3.5-10.04,3.41-9.01.13-14.61.61-15.77,11.4,3.67-2.76,7.56-3.11,12.07-2.98,5.71,0,8.28-.38,10.6-1.55,3.73-1.87,6.09-5.21,5.64-7.56-.44-.51-1.6-2.6-2.5-2.72Zm-154.88.52v2.07l-9.46,6.36v-2.1l9.46-6.33Zm108.06.19c1.28,0,2.33,1.04,2.33,2.33s-1.04,2.33-2.33,2.33-2.32-1.04-2.32-2.33c0-1.29,1.04-2.33,2.32-2.33Zm47.2.34c.51-.03.58.66-.48,1.7-2,1.97-4.08,2.93-10.65,2.82-6.95-.12-9.66.97-11.45,4.08-.52.9-.51,1.26.25.57.63-.76,2.08-2.22,2.68-.84,1.18-.78,2.2-1.96,2.82-.46.34-.08,2.34-2.09,2.82-.31.96-1.07,1.78-1.41,2.23.12,1.36-.65,2.08-1.88,2.86-.18,1.1-.79,1.93-1.77,2.56-.27.93-.28,1.89-2,2.43-.63.1.03,3.48-2.01,4.43-4.02.78-1.78,1.51-.6.61,1.22-2.29,4.45-6.21,6.08-15.2,6.09-5.46,0-7.71.54-9.43,1.55-2.75,1.61-1.27-2.45.66-4.91,2.43-3.1,5.2-4.02,12.79-3.74,4.15.02,6.8-.55,7.92-1.46.95-.77,1.64-1.29,2.15-1.33Zm-108.98.06c16.72.52,52.23,0,52.23,0l1.9,2.31h-55.83l1.71-2.31Zm-14.35.88c1.28,0,2.33,1.05,2.33,2.34s-1.04,2.33-2.33,2.33-2.32-1.04-2.32-2.33,1.04-2.34,2.32-2.34Zm75.16.43l.51.89.51.89.51-.89.51-.89h-2.06Zm-107.09,1.3v2.1l-9.46,6.48v-2.15l9.46-6.44Zm45.76,1.01h7.34v7.78h-7.34v-7.78Zm16.46,0h7.9v7.78h-7.9v-7.78Zm17.59.25h7.62v7.53h-7.62v-7.53Zm16.52.15l5.08.18s2.82,3.6,4.01,5.26l-3.75,1.93h-5.33s0-7.37,0-7.37Zm-47.03.53c-1.43,0-2.59,1.16-2.59,2.59s1.16,2.6,2.59,2.6,2.59-1.16,2.59-2.6-1.16-2.59-2.59-2.59Zm16.89.26c-1.43,0-2.59,1.16-2.59,2.59s1.16,2.6,2.59,2.6,2.59-1.16,2.59-2.6-1.16-2.59-2.59-2.59Zm17.27.07c-1.43,0-2.59,1.16-2.59,2.59s1.16,2.6,2.59,2.6,2.59-1.17,2.59-2.6-1.16-2.59-2.59-2.59Zm-25.77.32c1.15,0,2.07.93,2.07,2.08s-.93,2.09-2.07,2.09-2.07-.94-2.07-2.09.93-2.08,2.07-2.08Zm-15.44.21c.51.37.84.96.84,1.63,0,1.11-.9,2.01-2.01,2.01-.39,0-.75-.11-1.06-.31l2.22-3.34Zm7.06.03c.95,0,1.72.77,1.72,1.72s-.77,1.72-1.72,1.72-1.71-.77-1.71-1.72.77-1.72,1.71-1.72Zm51.34.07c-1.43,0-2.59,1.16-2.59,2.59s1.16,2.6,2.59,2.6,2.59-1.16,2.59-2.6-1.16-2.59-2.59-2.59Zm-25.85.01c1.15,0,2.07.94,2.07,2.09s-.93,2.08-2.07,2.08-2.08-.93-2.08-2.08.93-2.09,2.08-2.09Zm-8.61.18c.95,0,1.71.77,1.71,1.72s-.77,1.72-1.71,1.72-1.71-.77-1.71-1.72.77-1.72,1.71-1.72Zm-66.17.03v2.09l-9.46,6.64v-2.06l9.46-6.67Zm83.44.04c.95,0,1.71.77,1.71,1.72s-.77,1.72-1.71,1.72-1.72-.77-1.72-1.72.77-1.72,1.72-1.72Zm8.44.06c1.15,0,2.08.93,2.08,2.08s-.93,2.08-2.08,2.08-2.07-.93-2.07-2.08.92-2.08,2.07-2.08Zm8.75.56c.95,0,1.71.76,1.71,1.71s-.77,1.72-1.71,1.72-1.71-.77-1.71-1.72.77-1.71,1.71-1.71Zm-73.61,1.8c4.41-.05,9.18,2.19,11.87,5.92,4.07,5.46,6.79,12.43,8.03,21.58.61,4.53,2.72,18.13,3.91,21.35l-1.64-.32c-.22.11-2.33-8.56-3.66-20-.49-4.24-1.39-9.71-3.84-14.7-2.8-5.7-7.55-11.74-13.89-12.22-3.7-.28-7.16,2.05-7.54,5.32-.53,2.59.98,5,2.96,5.8,1.95.79,4.27.2,4.53-2.46.05-.44,0-.88-.16-1.28.9-.15,1.59.26,1.95,1.02.19.02.01,3.86-3,4.62-3.63,1.19-7.82-2.41-8.14-6.09-.25-3.1,2.1-6.92,5.05-7.96,1.12-.39,2.33-.58,3.56-.6h0Zm-27.02,1.19v2.13l-9.46,6.56v-2.15l9.46-6.54Zm27.23,1.35c5.29-.15,10.45,5.78,12.63,9.68,2.28,4.07,4.08,10.54,4.7,16.63,1.06,10.35,3.03,18.82,3.45,19.21l-1.44-.32c-.3.2-2.29-9.15-3.5-19.55-.68-5.84-2.84-11.62-5.4-16.08-2.37-4.11-5.56-7.19-9.34-7.64-2.37-.24-4.81.45-5.28,2.95-.25,1.47.51,2.92,2.25,3.04.41.03.8.06.87.07.92.16-.52,1.66-1.47,1.53-3.39-.47-4.96-5.03-2.28-7.45,1.56-1.42,3.2-2.04,4.82-2.08Zm11.33,1.82h59.45s.05,1.37-3.65,1.2c-3.15-.15-5.18.24-7.26.91h-46.7l-1.83-2.11Zm-38.57.39v1.98l-9.46,6.65v-2.19l9.46-6.44Zm27.63.84c1.14-.02,2.31.28,3.18.79,7.36,4.28,10.18,14.91,11.15,21.6,1.32,9.91,2.85,19.12,3.28,19.34l-1.61-.36c-.21,0-1.97-8.58-3.06-18.21-.88-7.78-3.54-15.6-8.79-18.89-3.37-2.3-4.04-2.54-5.6-1.19-1.35,1.16-2.72-.59-1.59-2.01.78-.73,1.9-1.06,3.04-1.07Zm-27.63,2.68v1.63l-9.46,6.62v-1.93l9.46-6.32Zm41.95.25h1.32s0,0,0,0c.12-.11,5.12,8.19,6.69,21.61.83,7.06,3.21,19.11,3.59,19.21l-1.73-.18c-1.77-7.1-2.75-13.83-3.69-19.89-1.07-6.86-1.93-12.8-6.18-20.75h0Zm2.46,0h1.55c2.64,5.05,5.46,12.8,6.43,20.67.84,6.8,1.69,13.71,4.11,20.91l-1.66-.46c-2.08-5.84-2.82-12.91-3.94-20.22-1.24-8.09-3.18-15-6.49-20.89h0Zm2.84,0h1.42c3.72,8.16,5.26,12.93,6.41,20.82,1.45,9.97,2.84,18.97,4.38,21.31l-1.73-.11c-2.39-7.19-3.47-14.37-4.32-21.56-.92-7.78-3.15-14.37-6.14-20.46Zm2.66,0h1.37s0,0,.01,0c.15-.22,5.16,9.75,6.32,20.82.77,7.36,2.49,14.65,4.84,21.68l-1.6-.04c-1.85-2.14-3.23-12.31-4.76-21.8-1.56-9.69-3.75-15.57-6.18-20.66h0Zm2.8,0h1.24c2.7,7.03,4.46,10.27,5.7,18.92.96,6.72,2.31,15.12,5.39,24.02l-1.56-.07c-2.28-6.14-4.03-14.37-4.83-22.27-1.09-10.73-5.89-20.66-5.93-20.6h0Zm2.37,0h1.69c2.91,5.91,5.32,13.12,6.18,21.34.47,4.46,1.28,11.31,4.62,21.86l-1.35-.09c-2.73-7.08-4.37-15.42-5.35-22.68-.99-7.33-2.73-13.37-5.78-20.43h0Zm2.7,0h2.06c3.53,8.23,5.35,17.02,5.84,19.94,0,0,.49,2.58.52,3.43-.12,7.19,1.12,12.32,3.79,20.05l-1.22-.09c-3.09-8.99-3.93-15.37-4.72-21.46-.65-7.67-3.14-15.6-6.27-21.86h0Zm3.17,0h1.57c2.1,5.27,3.73,10.78,5.19,15.87-.19,1.11-1.03,3.78-1.09,4.99-.08-4.13-2.57-14.17-5.68-20.86h0Zm2.48,0h2.04c1.54,4.16,3.04,8.12,4.1,12.12l-1.08,2.55c-1.5-5.53-3.38-10.31-5.05-14.67Zm2.97,0h1.63l3.22,9.35-1.05,1.85c-.95-3.09-2.12-6.92-3.79-11.2Zm2.59,0h1.68c.68,1.96,2.48,7.01,2.48,7.01l-1.12,1.5s-2.35-6.54-3.03-8.52Zm2.6,0h1.49c.45,1.27,1.88,5.12,1.88,5.12l-1.03,1.11-2.34-6.23Zm2.56,0h1.74l1.21,3.28-1.28,1.09s-1.33-3.13-1.67-4.36h0Zm2.84,0h1.31l.69,1.81-1.07.82-.94-2.63Zm2.36,0h2.51c-.74.44-1.5,1.01-2.06,1.39l-.46-1.39Zm-48.2,2.39c6.16,3.26,7.85,13.02,8.52,18.38,1.17,9.36,2.47,16.98,2.75,17.19l-1.37-.22s-1.01-4.81-1.71-9.39c-.58-3.81-1.03-7-1.19-8.46-.1-.91-.25-1.97-.34-2.36-.86-3.85-1.14-4.73-2.25-7.07-1.59-3.09-2.55-4.28-4.9-6.52l.47-1.56Zm-31.16.5v1.84l-9.46,6.71v-2.1l9.46-6.45Zm0,3.23v2.12l-9.46,6.27v-1.88l9.46-6.51Zm0,3.61v1.97l-9.46,6.62v-2.03l9.46-6.56Zm15.8,1.99h.83l.06,1.3h-1.29l.39-1.3Zm-15.8,1.7v2.1l-9.46,6.27v-1.96l9.46-6.41Zm14.83.8h2l-.02,1.47h-2.57l.59-1.47Zm-1.16,2.31h3.29v1.43h-4.07l.79-1.43Zm-13.67.3v2.21l-9.46,6.32v-2.22l9.46-6.31Zm11.99,2.29h4.81l-.03,1.2h-5.74l.96-1.2Zm-11.99,1.28v2.16l-9.46,6.08v-1.94l9.46-6.3Zm9.98,1.09h6.61l-.16,1.17h-7.53l1.09-1.17Zm-9.98,2.28v2.07l-9.46,6.19v-1.99l9.46-6.27Zm7.51.13h8.69l1.83,1.47h-13.53c.99-.46,2.22-.92,3.01-1.47h0Zm-2.85,2.93h14.94l1.39,1.15h-16.34v-1.15Zm-4.66.47v2.2l-9.46,6.22v-2.01l9.46-6.41Zm4.66,1.93l16.8.08-1.42,1.33h-15.38v-1.41Zm-4.66,1.67v2.01l-9.46,6.45v-2.31l9.46-6.15Zm4.48,1.05h14.32l-1.68,1.6h-9.89l-2.75-1.6Zm-4.48,2.49v1.92l-9.46,6.81v-2.16l9.46-6.57Zm8.67.25h8.41l.25,1.15h-7.32l-1.33-1.15Zm2.33,2.34h6.54c.1.49.12.97.22,1.45h-5.56l-1.19-1.45Zm-10.99,1.02v1.79l-9.46,6.63v-1.98l9.46-6.44Zm13.03,1.46h4.86l.02,1.54h-3.8l-1.08-1.54Zm1.51,2.47h3.32l-.11,1.51h-2.61l-.6-1.51Zm.93,2.62h2.12l-.18,1.15h-1.64l-.3-1.15Zm.64,2.69h1.03l-.18.88h-.53l-.33-.88Zm20.94,14.91l-.49.64h14.79l.16-.64h-14.46Zm19.07,0l-.26.86h6.68l.19-.86h-6.6Zm10.9.17l-.2.81h17.07l-.28-.81h-16.58Zm20.42,0l.35.98h5.74l-.38-.98h-5.71Zm19.81,0h-10.08s.36,1.11.36,1.11h10.42l-.71-1.11Z"/>
            </g>
          </g>
        </g>
      </g>
    </g>
    <path id="uuid-95dcea35-a953-4218-a6c8-fa7cab522d64" data-name="path163-0-2-5-8-7-5-0-7-4" class="uuid-872e28d9-02f4-4fbb-a68d-0ba6ef6e11b0" d="m66.93,90.58s-5.23-8.59-12.28-18.7c-4.72-6.76-8.49-14.08-8.84-20.39-.4-7.2,3.4-14.43,10.29-14.78,6.89-.35,9.68,5.55,10.82,10.42,1.14-4.87,3.93-10.77,10.82-10.42,6.89.35,10.7,7.58,10.29,14.78-.35,6.31-4.12,13.63-8.84,20.39-7.05,10.1-12.28,18.7-12.28,18.7h0Z"/>
    <path id="uuid-25f3e9fc-ea92-4b6e-9afa-02eccd65d39c" data-name="path163-0-2-5-8-7-7-8-0-0-6" class="uuid-872e28d9-02f4-4fbb-a68d-0ba6ef6e11b0" d="m182.87,259.42s-5.23,8.59-12.28,18.7c-4.72,6.76-8.49,14.08-8.84,20.39-.4,7.2,3.4,14.43,10.29,14.78,6.89.35,9.68-5.55,10.82-10.42,1.14,4.87,3.93,10.77,10.82,10.42,6.89-.35,10.7-7.58,10.29-14.78-.35-6.31-4.12-13.63-8.84-20.39-7.05-10.1-12.28-18.7-12.28-18.7Z"/>
  </g>
</svg>