<?xml version="1.0" encoding="UTF-8"?>
<svg id="uuid-33e71f0c-b1a8-4d4d-aade-9242cb7b9ce8" data-name="Cards" xmlns="http://www.w3.org/2000/svg" viewBox="0 0 250 350">
  <defs>
    <style>
      .uuid-378af928-72cb-4ff3-b0e9-53caf9ae81cb {
        fill: #c8102e;
      }

      .uuid-378af928-72cb-4ff3-b0e9-53caf9ae81cb, .uuid-65b6191f-3bf5-449d-9460-38bd59895633 {
        stroke-width: 0px;
      }

      .uuid-65b6191f-3bf5-449d-9460-38bd59895633 {
        fill: #fff;
      }
    </style>
  </defs>
  <g id="uuid-2751822a-490c-4c3c-bf5b-fc4af6e03cb9" data-name="DIAMOND-9">
    <path id="uuid-9b69fa36-fead-4d4a-8834-6a69862968b2" data-name="rect6962-4" class="uuid-65b6191f-3bf5-449d-9460-38bd59895633" d="m11.88-.02h226.08c6.6,0,11.96,5.36,11.96,11.97v326.06c0,6.61-5.35,11.97-11.96,11.97H11.88c-6.6,0-11.96-5.36-11.96-11.97V11.95C-.08,5.34,5.28-.02,11.88-.02Z"/>
    <path id="uuid-161ecd16-bfd5-42a9-86b4-e67e60b616e6" data-name="path6994-9" class="uuid-378af928-72cb-4ff3-b0e9-53caf9ae81cb" d="m19.21,78.53c-2.42-4.01-4.97-7.9-8.15-11.22,3.18-3.33,5.73-7.22,8.15-11.22,2.42,4.01,4.97,7.9,8.15,11.22-3.18,3.33-5.73,7.22-8.15,11.22Z"/>
    <path id="uuid-9b2866e9-8011-4167-9099-5f7459d51f98" data-name="path6996-5" class="uuid-378af928-72cb-4ff3-b0e9-53caf9ae81cb" d="m182.9,90.56c-5.81-9.61-11.92-18.96-19.55-26.94,7.64-7.98,13.75-17.33,19.55-26.94,5.81,9.61,11.92,18.96,19.55,26.94-7.64,7.98-13.75,17.33-19.55,26.94Z"/>
    <path id="uuid-4a8f868e-df22-4df5-9677-6e4b8d49e98b" data-name="path6998-7" class="uuid-378af928-72cb-4ff3-b0e9-53caf9ae81cb" d="m230.64,293.89c-2.42-4.01-4.97-7.9-8.15-11.22,3.18-3.33,5.73-7.22,8.15-11.22,2.42,4.01,4.97,7.9,8.15,11.22-3.18,3.33-5.73,7.22-8.15,11.22Z"/>
    <path id="uuid-235cc7be-959d-40f5-b824-7a0bb87e7509" data-name="path7000-7" class="uuid-378af928-72cb-4ff3-b0e9-53caf9ae81cb" d="m66.95,90.56c-5.81-9.61-11.92-18.96-19.55-26.94,7.64-7.98,13.75-17.33,19.55-26.94,5.81,9.61,11.92,18.96,19.55,26.94-7.64,7.98-13.75,17.33-19.55,26.94Z"/>
    <path id="uuid-623be0ed-65a9-4047-9ddb-1f3c93d31bde" data-name="path7002-0" class="uuid-378af928-72cb-4ff3-b0e9-53caf9ae81cb" d="m182.9,164.81c-5.81-9.61-11.92-18.96-19.55-26.94,7.64-7.98,13.75-17.33,19.55-26.94,5.81,9.61,11.92,18.96,19.55,26.94-7.64,7.98-13.75,17.33-19.55,26.94Z"/>
    <path id="uuid-0562c540-a628-49bf-bda5-8b9671eaf10a" data-name="path7004-0" class="uuid-378af928-72cb-4ff3-b0e9-53caf9ae81cb" d="m66.95,164.81c-5.81-9.61-11.92-18.96-19.55-26.94,7.64-7.98,13.75-17.33,19.55-26.94,5.81,9.61,11.92,18.96,19.55,26.94-7.64,7.98-13.75,17.33-19.55,26.94Z"/>
    <path id="uuid-b4ddaf2b-739f-4ebf-8699-d7bdd45588c0" data-name="path7008-2" class="uuid-378af928-72cb-4ff3-b0e9-53caf9ae81cb" d="m124.92,201.92c-5.81-9.61-11.92-18.96-19.55-26.94,7.64-7.98,13.75-17.33,19.55-26.94,5.81,9.61,11.92,18.96,19.55,26.94-7.64,7.98-13.75,17.33-19.55,26.94Z"/>
    <path id="uuid-3faf744f-aaef-4968-be61-b9d0b84ca0b2" data-name="path7016-2" class="uuid-378af928-72cb-4ff3-b0e9-53caf9ae81cb" d="m66.95,313.29c-5.81-9.61-11.92-18.96-19.55-26.94,7.64-7.98,13.75-17.33,19.55-26.94,5.81,9.61,11.92,18.96,19.55,26.94-7.64,7.98-13.75,17.33-19.55,26.94Z"/>
    <path id="uuid-3f336fe9-6c89-4f02-b298-4b710075451e" data-name="path7018-0" class="uuid-378af928-72cb-4ff3-b0e9-53caf9ae81cb" d="m182.9,313.3c-5.81-9.61-11.92-18.96-19.55-26.94,7.64-7.98,13.75-17.33,19.55-26.94,5.81,9.61,11.92,18.96,19.55,26.94-7.64,7.98-13.75,17.33-19.55,26.94Z"/>
    <path id="uuid-f9dbbd5d-503c-4ebb-b614-c228fb63375c" data-name="path7020-7" class="uuid-378af928-72cb-4ff3-b0e9-53caf9ae81cb" d="m182.9,239.04c-5.81-9.61-11.92-18.96-19.55-26.94,7.64-7.98,13.75-17.33,19.55-26.94,5.81,9.61,11.92,18.96,19.55,26.94-7.64,7.98-13.75,17.33-19.55,26.94Z"/>
    <path id="uuid-cf057c85-6ab1-48cc-8f8e-661c1225f3c4" data-name="path7022-4" class="uuid-378af928-72cb-4ff3-b0e9-53caf9ae81cb" d="m66.95,239.01c-5.81-9.61-11.92-18.96-19.55-26.94,7.64-7.98,13.75-17.33,19.55-26.94,5.81,9.61,11.92,18.96,19.55,26.94-7.64,7.98-13.75,17.33-19.55,26.94Z"/>
    <path id="uuid-1700f5b0-f899-459a-a465-76e8f4d55555" data-name="path29-5-3-7-8" class="uuid-378af928-72cb-4ff3-b0e9-53caf9ae81cb" d="m8.88,45.42l3.38-1.07c1.28,3.42,3.85,4.43,6.58,4.21,4.89-.39,6.52-5.87,6.88-10.72-1.91,2.03-4.77,3.06-7.21,2.95-7.8-.42-9.8-6.68-9.87-13.23-.21-5.52,2.06-9.52,5.97-11.36,2.07-.93,6.81-.93,8.89.17,4.78,2.53,6.55,6.89,6.23,17.32,0,8.58-1.82,18.57-10.99,18.79-5.3.73-9.32-3.4-9.87-7.05h0Zm13.28-9.4c1.59-1.01,2.49-1.96,3.2-3.38.58-1.17.79-1.77.62-4.18-.43-6.22-3.68-9.75-8.4-9.05-2.63.4-4.07,1.87-4.9,4.62-1.52,5.08.41,11.01,4.03,12.38,1.63.62,4.15.44,5.45-.39h0Z"/>
    <path id="uuid-f7a2700f-66ff-4808-bee7-2833d8a9173b" data-name="path29-6-2-9-2" class="uuid-378af928-72cb-4ff3-b0e9-53caf9ae81cb" d="m240.96,304.55l-3.38,1.07c-1.28-3.42-3.85-4.43-6.58-4.21-4.89.39-6.52,5.87-6.88,10.72,1.91-2.03,4.77-3.06,7.21-2.95,7.8.42,9.8,6.68,9.87,13.23.21,5.52-2.06,9.52-5.97,11.36-2.07.93-6.81.93-8.89-.17-4.78-2.53-6.55-6.89-6.23-17.32,0-8.58,1.82-18.57,10.99-18.79,5.3-.73,9.32,3.4,9.87,7.05h0Zm-13.28,9.4c-1.59,1.01-2.49,1.96-3.2,3.38-.58,1.17-.79,1.77-.62,4.18.43,6.22,3.68,9.75,8.4,9.05,2.63-.4,4.07-1.87,4.9-4.62,1.52-5.08-.41-11.01-4.03-12.38-1.63-.62-4.15-.44-5.45.39h0Z"/>
  </g>
</svg>