<?xml version="1.0" encoding="UTF-8"?>
<svg id="uuid-bade49f5-7ee8-4edd-899c-a84188958297" data-name="Cards" xmlns="http://www.w3.org/2000/svg" viewBox="0 0 250 350">
  <defs>
    <style>
      .uuid-6ec65613-e0d4-4c41-80f0-7d09c66c4ba6 {
        fill: #c8102e;
      }

      .uuid-6ec65613-e0d4-4c41-80f0-7d09c66c4ba6, .uuid-62ea7ff3-cc9b-4599-ba4e-190859203e39 {
        stroke-width: 0px;
      }

      .uuid-62ea7ff3-cc9b-4599-ba4e-190859203e39 {
        fill: #fff;
      }
    </style>
  </defs>
  <g id="uuid-e4aa9f87-df99-4ace-999f-a323ccb65727" data-name="DIAMOND-5">
    <path id="uuid-48b62727-ccde-459c-a4ef-4ea2fd0df8c6" data-name="rect6690-8" class="uuid-62ea7ff3-cc9b-4599-ba4e-190859203e39" d="m11.93,0h226.07c6.6,0,11.96,5.36,11.96,11.97v326.05c0,6.61-5.35,11.97-11.96,11.97H11.93c-6.6,0-11.96-5.36-11.96-11.97V11.96C-.03,5.35,5.32,0,11.93,0Z"/>
    <path id="uuid-5c52c8f6-2c48-48f5-9f58-d320b6d46afb" data-name="path6722-9" class="uuid-6ec65613-e0d4-4c41-80f0-7d09c66c4ba6" d="m19.25,78.53c-2.42-4.01-4.97-7.9-8.15-11.22,3.18-3.33,5.73-7.22,8.15-11.22,2.42,4.01,4.97,7.9,8.15,11.22-3.18,3.33-5.73,7.22-8.15,11.22Z"/>
    <path id="uuid-7baefe90-c4fb-4303-80dc-c966629623ed" data-name="path6724-6" class="uuid-6ec65613-e0d4-4c41-80f0-7d09c66c4ba6" d="m182.93,90.57c-5.81-9.61-11.92-18.96-19.55-26.94,7.64-7.98,13.75-17.32,19.55-26.94,5.81,9.61,11.92,18.96,19.55,26.94-7.64,7.98-13.75,17.33-19.55,26.94Z"/>
    <path id="uuid-5a21be7c-761c-416b-91ae-00c75f5095ed" data-name="path6726-3" class="uuid-6ec65613-e0d4-4c41-80f0-7d09c66c4ba6" d="m230.68,293.89c-2.42-4.01-4.97-7.9-8.15-11.22,3.18-3.33,5.73-7.22,8.15-11.22,2.42,4.01,4.97,7.9,8.15,11.22-3.18,3.33-5.73,7.22-8.15,11.22Z"/>
    <path id="uuid-3aa1c978-89ea-4432-8015-c1aa6a7e49b2" data-name="path6728-7" class="uuid-6ec65613-e0d4-4c41-80f0-7d09c66c4ba6" d="m66.99,90.57c-5.81-9.61-11.92-18.96-19.55-26.94,7.64-7.98,13.75-17.32,19.55-26.94,5.81,9.61,11.92,18.96,19.55,26.94-7.64,7.98-13.75,17.33-19.55,26.94Z"/>
    <path id="uuid-c9e6dd2b-3159-4618-8d5c-68cccb95ae7a" data-name="path6736-0" class="uuid-6ec65613-e0d4-4c41-80f0-7d09c66c4ba6" d="m124.96,201.92c-5.81-9.61-11.92-18.96-19.55-26.94,7.64-7.98,13.75-17.32,19.55-26.94,5.81,9.61,11.92,18.96,19.55,26.94-7.64,7.98-13.75,17.32-19.55,26.94Z"/>
    <path id="uuid-4b75657c-8e6d-489e-9700-e68eb14e5978" data-name="path6744-9" class="uuid-6ec65613-e0d4-4c41-80f0-7d09c66c4ba6" d="m66.99,313.29c-5.81-9.61-11.92-18.96-19.55-26.94,7.64-7.98,13.75-17.32,19.55-26.94,5.81,9.61,11.92,18.96,19.55,26.94-7.64,7.98-13.75,17.32-19.55,26.94Z"/>
    <path id="uuid-1f7b8289-6cac-43ed-96e1-2b32ed2323cb" data-name="path6746-2" class="uuid-6ec65613-e0d4-4c41-80f0-7d09c66c4ba6" d="m182.93,313.29c-5.81-9.61-11.92-18.96-19.55-26.94,7.64-7.98,13.75-17.32,19.55-26.94,5.81,9.61,11.92,18.96,19.55,26.94-7.64,7.98-13.75,17.32-19.55,26.94Z"/>
    <path id="uuid-79033609-d72e-440a-b77a-0dde0a1c646f" data-name="path21-9-8-2-7" class="uuid-6ec65613-e0d4-4c41-80f0-7d09c66c4ba6" d="m7.6,42.97l3.62-.03c.69,2.24,2.22,4.51,4.3,5.14,5.87,1.41,9.64-1.94,10.88-5.8,1.51-4.68-.03-11.25-4.07-13.58-3.35-1.93-8.32-.3-10.6,3.83l-2.54-1.58,1.36-15.42h16.57v3.65h-13.43l-.21,6.42c2.89-2.07,7.33-2.05,10.22-.6,5.47,2.66,8.02,8.72,6.95,15.86-1.47,7.1-4.73,11.13-12.06,11.7-8.16.08-11.04-5.65-11-9.59h0Z"/>
    <path id="uuid-ebdeab50-47ee-4197-ba5f-ccb5aefa0328" data-name="path21-3-0-8-6" class="uuid-6ec65613-e0d4-4c41-80f0-7d09c66c4ba6" d="m242.32,307l-3.62.03c-.69-2.24-2.22-4.51-4.3-5.14-5.87-1.41-9.64,1.94-10.88,5.8-1.51,4.68.03,11.25,4.07,13.58,3.35,1.93,8.32.3,10.6-3.83l2.54,1.58-1.36,15.42h-16.57v-3.65h13.43l.21-6.42c-2.89,2.07-7.33,2.05-10.22.6-5.47-2.66-8.02-8.72-6.95-15.86,1.47-7.1,4.73-11.13,12.06-11.7,8.16-.08,11.04,5.65,11,9.59h0Z"/>
  </g>
</svg>