<?xml version="1.0" encoding="UTF-8"?>
<svg id="uuid-db14b8f1-5534-4708-9e4d-6cbadf912706" data-name="Cards" xmlns="http://www.w3.org/2000/svg" viewBox="0 0 250 350">
  <defs>
    <style>
      .uuid-ea199ae3-d46b-4d13-95ec-8f413bf2a847 {
        fill: #c8102e;
      }

      .uuid-ea199ae3-d46b-4d13-95ec-8f413bf2a847, .uuid-0d1456fa-9069-4048-94c3-a544f66d2812 {
        stroke-width: 0px;
      }

      .uuid-0d1456fa-9069-4048-94c3-a544f66d2812 {
        fill: #fff;
      }
    </style>
  </defs>
  <g id="uuid-7079cb03-d39f-4951-bac1-7844ac4de392" data-name="DIAMOND-8">
    <path id="uuid-ff2ace32-0a39-4198-9e19-38ee66e91d9e" data-name="rect6894-2" class="uuid-0d1456fa-9069-4048-94c3-a544f66d2812" d="m11.89-.01h226.08c6.6,0,11.96,5.36,11.96,11.97v326.05c0,6.61-5.35,11.97-11.96,11.97H11.89c-6.6,0-11.96-5.36-11.96-11.97V11.96C-.06,5.35,5.29-.01,11.89-.01Z"/>
    <path id="uuid-1d399597-0dcf-4b6d-a9b1-2f7e07428af8" data-name="path6926-2" class="uuid-ea199ae3-d46b-4d13-95ec-8f413bf2a847" d="m19.22,78.53c-2.42-4.01-4.97-7.9-8.15-11.22,3.18-3.33,5.73-7.22,8.15-11.22,2.42,4.01,4.97,7.9,8.15,11.22-3.18,3.33-5.73,7.22-8.15,11.22Z"/>
    <path id="uuid-b7f7f0a7-e00e-44c9-930a-70fc6895c7e3" data-name="path6928-9" class="uuid-ea199ae3-d46b-4d13-95ec-8f413bf2a847" d="m182.91,90.56c-5.81-9.61-11.92-18.96-19.55-26.94,7.64-7.98,13.75-17.33,19.55-26.94,5.81,9.61,11.92,18.96,19.55,26.94-7.64,7.98-13.75,17.33-19.55,26.94Z"/>
    <path id="uuid-65f16ee7-ce2c-4514-8048-28d2ba314b7a" data-name="path6930-6" class="uuid-ea199ae3-d46b-4d13-95ec-8f413bf2a847" d="m230.65,293.89c-2.42-4.01-4.97-7.9-8.15-11.22,3.18-3.33,5.73-7.22,8.15-11.22,2.42,4.01,4.97,7.9,8.15,11.22-3.18,3.33-5.73,7.22-8.15,11.22Z"/>
    <path id="uuid-44b8580e-1d1a-46a3-9801-555b6fa64e70" data-name="path6932-2" class="uuid-ea199ae3-d46b-4d13-95ec-8f413bf2a847" d="m66.96,90.56c-5.81-9.61-11.92-18.96-19.55-26.94,7.64-7.98,13.75-17.33,19.55-26.94,5.81,9.61,11.92,18.96,19.55,26.94-7.64,7.98-13.75,17.33-19.55,26.94Z"/>
    <path id="uuid-aa91216a-cdb4-40b9-952f-5e2425f6f5f8" data-name="path6938-4" class="uuid-ea199ae3-d46b-4d13-95ec-8f413bf2a847" d="m124.93,146.23c-5.81-9.61-11.92-18.96-19.55-26.94,7.64-7.98,13.75-17.33,19.55-26.94,5.81,9.61,11.92,18.96,19.55,26.94-7.64,7.98-13.75,17.33-19.55,26.94Z"/>
    <path id="uuid-e0ac5ec9-5136-4e8f-bf55-8c70d8e9fca5" data-name="path6942-4" class="uuid-ea199ae3-d46b-4d13-95ec-8f413bf2a847" d="m66.96,201.89c-5.81-9.61-11.92-18.96-19.55-26.94,7.64-7.98,13.75-17.33,19.55-26.94,5.81,9.61,11.92,18.96,19.55,26.94-7.64,7.98-13.75,17.33-19.55,26.94Z"/>
    <path id="uuid-a593fd87-0043-47f4-bd8a-f246fc8107c6" data-name="path6944-9" class="uuid-ea199ae3-d46b-4d13-95ec-8f413bf2a847" d="m182.91,201.9c-5.81-9.61-11.92-18.96-19.55-26.94,7.64-7.98,13.75-17.33,19.55-26.94,5.81,9.61,11.92,18.96,19.55,26.94-7.64,7.98-13.75,17.33-19.55,26.94Z"/>
    <path id="uuid-4578493a-8d95-4a37-8c2c-335bce28663a" data-name="path6948-4" class="uuid-ea199ae3-d46b-4d13-95ec-8f413bf2a847" d="m66.96,313.29c-5.81-9.61-11.92-18.96-19.55-26.94,7.64-7.98,13.75-17.33,19.55-26.94,5.81,9.61,11.92,18.96,19.55,26.94-7.64,7.98-13.75,17.33-19.55,26.94Z"/>
    <path id="uuid-dc564115-db50-41e9-9794-f25b66bbdb93" data-name="path6950-4" class="uuid-ea199ae3-d46b-4d13-95ec-8f413bf2a847" d="m182.91,313.3c-5.81-9.61-11.92-18.96-19.55-26.94,7.64-7.98,13.75-17.33,19.55-26.94,5.81,9.61,11.92,18.96,19.55,26.94-7.64,7.98-13.75,17.33-19.55,26.94Z"/>
    <path id="uuid-2fd10a49-1468-44e4-8e8f-b7dd40dc87e0" data-name="path6956-4" class="uuid-ea199ae3-d46b-4d13-95ec-8f413bf2a847" d="m124.93,257.59c-5.81-9.61-11.92-18.96-19.55-26.94,7.64-7.98,13.75-17.33,19.55-26.94,5.81,9.61,11.92,18.96,19.55,26.94-7.64,7.98-13.75,17.33-19.55,26.94Z"/>
    <path id="uuid-3a5b5bf4-6859-4050-b92b-1ff1d4065f98" data-name="path27-00-7-8-6" class="uuid-ea199ae3-d46b-4d13-95ec-8f413bf2a847" d="m7.21,41.71c.18-4.97,1.97-6.84,5.5-9.44-2.82-2.04-4.01-5.04-3.76-7.6.58-6.19,5.35-9.28,10.55-9.15,5.21.14,9.69,4.28,10.04,8.77.3,3.91-.86,5.8-3.62,7.85,3.28,2.78,5.38,4.61,5.3,9.5-.08,4.9-4.23,10.73-11.48,10.9-7.25.18-12.71-5.87-12.53-10.85h0Zm20.23.02c.31-4.5-3.66-7.54-8.14-7.58-4.36-.05-8.27,3.69-8.27,7.73,0,4.34,5.08,6.7,8.36,6.71,3.99.02,7.78-2.98,8.05-6.86Zm-1.43-16.11c.09-3.79-3.4-6.51-7-6.4-3.2.1-6.59,2.54-6.59,5.71,0,3.97,3.85,5.95,7.14,6.02,2.99.07,6.38-2.48,6.45-5.34h0Z"/>
    <path id="uuid-ca955a24-48b7-4342-9606-9884fb8df34e" data-name="path27-0-1-9-8" class="uuid-ea199ae3-d46b-4d13-95ec-8f413bf2a847" d="m218.64,308.26c.18,4.97,1.97,6.84,5.5,9.44-2.82,2.04-4.01,5.04-3.76,7.6.58,6.19,5.35,9.28,10.55,9.15,5.21-.14,9.69-4.28,10.04-8.77.3-3.91-.86-5.8-3.62-7.85,3.28-2.78,5.38-4.6,5.3-9.5-.08-4.9-4.23-10.73-11.48-10.9-7.25-.18-12.71,5.87-12.53,10.85h0Zm20.23-.02c.31,4.5-3.66,7.54-8.14,7.58-4.36.05-8.27-3.69-8.27-7.73,0-4.34,5.08-6.7,8.36-6.71,3.99-.02,7.78,2.98,8.05,6.86h0Zm-1.43,16.11c.09,3.79-3.4,6.51-7,6.4-3.2-.1-6.59-2.54-6.59-5.71,0-3.97,3.85-5.95,7.14-6.02,2.99-.07,6.38,2.48,6.45,5.34h0Z"/>
  </g>
</svg>