<?xml version="1.0" encoding="UTF-8"?>
<svg id="uuid-8150bbd4-2c34-4881-ab47-ffe7b2950078" data-name="Cards" xmlns="http://www.w3.org/2000/svg" viewBox="0 0 250 350">
  <defs>
    <style>
      .uuid-16647dc6-7a16-401b-b220-a8c221c19f3b {
        fill: #c8102e;
      }

      .uuid-16647dc6-7a16-401b-b220-a8c221c19f3b, .uuid-a8141fd2-0dfa-4dfc-911b-96d7318e3e03 {
        stroke-width: 0px;
      }

      .uuid-a8141fd2-0dfa-4dfc-911b-96d7318e3e03 {
        fill: #fff;
      }
    </style>
  </defs>
  <g id="uuid-42c8b94b-c139-4c8c-a718-371203afe49b" data-name="DIAMOND-6">
    <path id="uuid-52bd7863-1013-433a-845d-b98b03199911" data-name="rect6758-6" class="uuid-a8141fd2-0dfa-4dfc-911b-96d7318e3e03" d="m11.91-.01h226.08c6.6,0,11.96,5.36,11.96,11.97v326.05c0,6.61-5.35,11.97-11.96,11.97H11.91c-6.6,0-11.96-5.36-11.96-11.97V11.96C-.04,5.35,5.31-.01,11.91-.01Z"/>
    <path id="uuid-a76fe4b4-8dbc-4d65-ad0f-3f6cb15ee502" data-name="path6790-5" class="uuid-16647dc6-7a16-401b-b220-a8c221c19f3b" d="m19.24,78.53c-2.42-4.01-4.97-7.9-8.15-11.22,3.18-3.33,5.73-7.22,8.15-11.22,2.42,4.01,4.97,7.9,8.15,11.22-3.18,3.33-5.73,7.22-8.15,11.22Z"/>
    <path id="uuid-cb13465c-43bf-48d9-a45d-ee3a8adaf2e1" data-name="path6792-5" class="uuid-16647dc6-7a16-401b-b220-a8c221c19f3b" d="m182.92,90.56c-5.81-9.61-11.92-18.96-19.55-26.94,7.64-7.98,13.75-17.33,19.55-26.94,5.81,9.61,11.92,18.96,19.55,26.94-7.64,7.98-13.75,17.33-19.55,26.94Z"/>
    <path id="uuid-511fe8c7-73aa-4369-af1d-26f10045fa52" data-name="path6794-1" class="uuid-16647dc6-7a16-401b-b220-a8c221c19f3b" d="m230.67,293.89c-2.42-4.01-4.97-7.9-8.15-11.22,3.18-3.33,5.73-7.22,8.15-11.22,2.42,4.01,4.97,7.9,8.15,11.22-3.18,3.33-5.73,7.22-8.15,11.22Z"/>
    <path id="uuid-4862f2d6-93c3-4edd-ae46-c277ba5c518e" data-name="path6796-2" class="uuid-16647dc6-7a16-401b-b220-a8c221c19f3b" d="m66.98,90.56c-5.81-9.61-11.92-18.96-19.55-26.94,7.64-7.98,13.75-17.33,19.55-26.94,5.81,9.61,11.92,18.96,19.55,26.94-7.64,7.98-13.75,17.33-19.55,26.94Z"/>
    <path id="uuid-9d8e4310-d6e2-4d6c-857f-4a7517763408" data-name="path6806-6" class="uuid-16647dc6-7a16-401b-b220-a8c221c19f3b" d="m66.98,201.89c-5.81-9.61-11.92-18.96-19.55-26.94,7.64-7.98,13.75-17.33,19.55-26.94,5.81,9.61,11.92,18.96,19.55,26.94-7.64,7.98-13.75,17.33-19.55,26.94Z"/>
    <path id="uuid-53d73d6d-8b6e-4b85-a2f7-0960d9a66595" data-name="path6808-6" class="uuid-16647dc6-7a16-401b-b220-a8c221c19f3b" d="m182.92,201.9c-5.81-9.61-11.92-18.96-19.55-26.94,7.64-7.98,13.75-17.33,19.55-26.94,5.81,9.61,11.92,18.96,19.55,26.94-7.64,7.98-13.75,17.33-19.55,26.94Z"/>
    <path id="uuid-0749582d-74ad-427a-b69b-9933594eee18" data-name="path6812-0" class="uuid-16647dc6-7a16-401b-b220-a8c221c19f3b" d="m66.98,313.29c-5.81-9.61-11.92-18.96-19.55-26.94,7.64-7.98,13.75-17.33,19.55-26.94,5.81,9.61,11.92,18.96,19.55,26.94-7.64,7.98-13.75,17.33-19.55,26.94Z"/>
    <path id="uuid-e3562fe0-c380-4678-86b7-677195a32f61" data-name="path6814-4" class="uuid-16647dc6-7a16-401b-b220-a8c221c19f3b" d="m182.92,313.3c-5.81-9.61-11.92-18.96-19.55-26.94,7.64-7.98,13.75-17.33,19.55-26.94,5.81,9.61,11.92,18.96,19.55,26.94-7.64,7.98-13.75,17.33-19.55,26.94Z"/>
    <path id="uuid-ede0753a-e568-4cda-93d9-7b79fa591b96" data-name="path23-5-3-5-5" class="uuid-16647dc6-7a16-401b-b220-a8c221c19f3b" d="m8.38,41.17c-.45-3.12-.44-11.18-.07-13.56,1.15-7.3,3.93-10.65,8.59-11.74,4.53-1.06,10.89.12,12.28,6.22l-3.79.07c-2.05-4.13-7.23-3.02-10.15-1.23-2.33,1.43-3.38,7.4-2.93,7.77,0,0,4.4-3.27,7.87-3.03,7.42.77,10.48,7.22,10.22,13.31-.24,7.32-2.55,13.18-10.42,13.57-7.48-.29-10.9-4.37-11.62-11.4h0Zm18.44-1.93c.04-5.08-2.26-8.89-6.62-9.31-4.35-.42-8.75,3.84-8.44,9.02.3,5.2,2.31,9.58,7.59,9.55,5.68-.02,7.44-5.65,7.47-9.27Z"/>
    <path id="uuid-a4002ded-603a-4e12-b441-876ef95bd070" data-name="path23-6-5-6-6" class="uuid-16647dc6-7a16-401b-b220-a8c221c19f3b" d="m241.52,308.8c.45,3.12.44,11.18.07,13.56-1.15,7.3-3.93,10.65-8.59,11.74-4.53,1.06-10.89-.12-12.28-6.22l3.79-.07c2.05,4.13,7.23,3.02,10.15,1.23,2.33-1.43,3.38-7.4,2.93-7.77,0,0-4.4,3.27-7.87,3.03-7.42-.77-10.48-7.22-10.22-13.31.24-7.32,2.55-13.18,10.42-13.57,7.48.29,10.9,4.37,11.62,11.4h0Zm-18.44,1.93c-.04,5.08,2.26,8.89,6.62,9.31,4.35.42,8.75-3.84,8.44-9.02-.3-5.2-2.31-9.58-7.59-9.55-5.68.02-7.44,5.65-7.47,9.27Z"/>
  </g>
</svg>