<?xml version="1.0" encoding="UTF-8"?>
<svg id="uuid-c520f7f8-f9f2-4105-af29-bb986635b4cd" data-name="Cards" xmlns="http://www.w3.org/2000/svg" viewBox="0 0 250 350">
  <defs>
    <style>
      .uuid-9c9ad8c6-a09a-422d-8718-71c68d14ec15, .uuid-4693e06c-4c40-4beb-bff3-7499b1db1220, .uuid-5cba6223-cddd-4975-9404-9776d8a6e2c2, .uuid-70d894e8-25ab-4c65-94ad-7ddf760a89ec, .uuid-6752554e-1474-4c1b-b933-227c6669a4cd {
        stroke-width: 0px;
      }

      .uuid-4693e06c-4c40-4beb-bff3-7499b1db1220 {
        fill: #c8102e;
      }

      .uuid-5cba6223-cddd-4975-9404-9776d8a6e2c2 {
        fill: #fff;
      }

      .uuid-70d894e8-25ab-4c65-94ad-7ddf760a89ec {
        fill: #ffcd00;
      }

      .uuid-6752554e-1474-4c1b-b933-227c6669a4cd {
        fill: #004c97;
      }
    </style>
  </defs>
  <g id="uuid-d0348187-1380-4f15-b69d-2f60f511ef36" data-name="DIAMOND-12-QUEEN">
    <path id="uuid-f716b5d4-dae2-4c5d-a629-0d3e6cf51b84" data-name="rect7166-7" class="uuid-5cba6223-cddd-4975-9404-9776d8a6e2c2" d="m11.85-.02h226.08c6.6,0,11.96,5.36,11.96,11.97v326.06c0,6.61-5.35,11.97-11.96,11.97H11.85c-6.6,0-11.96-5.36-11.96-11.97V11.95C-.11,5.34,5.25-.02,11.85-.02Z"/>
    <path id="uuid-009a7306-ccff-4424-a3ab-7633f54b317c" data-name="path6307-8" class="uuid-70d894e8-25ab-4c65-94ad-7ddf760a89ec" d="m157.19,29.49s28.39,41.24,38.02,48.56c.71.33,12.58-1.94,12.58-1.94-6.09-14.64-10-29.78-6.05-46.76l-44.55.15Zm15.78,65.22c-19.57,5.55-39.11,10.77-60.33,1.72l-23.18,22.5c-.19.58,28,12.82,28.47,11.38-13.82,37.37,7.73,44.16,21.44,3.05,17.96-2.36,39.5-4.81,57.3-17.23-15.41-9.31-23.73-21.53-23.71-21.42Zm-117.74,6.65c-7.42-4.57-13.22,4.84-7.79,9.54-.64,2.75-.86,6.83,1.79,8.63,2.43,1.54,6.96-.06,7.62-.04.05,0,.12,4.94-.26,4.93-.7-.02-3.36-2.29-4.99-2.79-5.53-1.67-13.37-2.75-13.24-2.46.23.48-1.31,1.88,4.86,5.78,2.29,1.45,9.53-.18,15.3,1.65,3.51,1.11,6.67,2.89,8.58,1.97,5.03-1.38,7-7.99,6.65-7.94-.17-.2-15.21,3.89-13.8,4.61l-.05-5.73c5.93.66,11.29-3.66,5.46-11.07,4.34-4.34-1.73-14.68-10.14-7.06h0Zm24.72,26.23c-14.59,14.78-44.43,42.52-44.43,42.52l.32,20.7,29.14,26.2c2.31-27.82,18.04-53.78,33.02-66.76,1.38-3.95-14.89-21.28-18.06-22.67Zm103.98,5.11c-2.2,17.1-4.2,40.43-33.08,66.35,5,8.56,11.37,17.28,20.54,21.44.65,1.47,26.49-26.87,42.39-40.27l-.08-18.15-29.77-29.37Zm-130.15,3.67c-.06.37-1.13,4.87-1.4,4.75.02.24,2.96-1.1,3.29-2.33.29-1.08.96-2.54,1.01-2.75-.66-4.62-1.91-1.34-2.9.33Zm-10.81,11.96c-1.05,2.55-2.03,7.22-1.67,10.26,5.17,2.6,6.58-8.22,5.18-9.25-.83-.35-2.81-1.04-3.52-1.01Zm159.67,49.59c-.48,2.16-.38,2.8.58,3.22,1.67.74,2.43-.15,3.77-3.67.8-2.09,1.51-5.24.87-6.49-3.17-2.22-4.85,5.31-5.21,6.94h0Zm-90.42,18.15c-21.22,3.38-42.45,5.46-59.31,18.67,1.9-.22,22.32,19.05,23.38,21.76,31.21-15.32,61.53-3.75,61.53-3.75l22.84-22.12c.88-.42-24.84-11.07-29.69-12.86,17.52-47.38-10.23-40.26-18.75-1.7h0Zm83.53-5.41c-1.39,1.12-2.09,2.14-3.17,3.6l1.09,1.77,2.79-3.09-.72-2.28Zm-19.99,19.94c2.94-1.33,13.38-6.42,13.83-5.24l-.22,5.09c-1.6-.53-11.91,1.19-5.94,11.88-3.75,8.49,4.61,12.87,10.47,7.26,12.28,4.23,10.64-8.12,8.1-10.11,2-3.12-.51-9.76-1.76-9.78,0,0,10.72,2.43,9.67.51-.48-.88-1.08-2.38-3.46-3.98-2.75-1.84-7.57-1.17-11.47-1.99-4.17-.88-6.86-2.38-10.37-2.59-5.29.48-10.24,5.15-8.85,8.96h0Zm-119.46,40.08l-14.77,3.97c6.17,15.27,8.6,29.31,6.84,46.43l42.87.22-34.93-50.62Z"/>
    <path id="uuid-0a81379d-7e7a-4112-a6aa-ad58311a3264" data-name="path6309-7" class="uuid-4693e06c-4c40-4beb-bff3-7499b1db1220" d="m94.78,321.15c-18.81-26.97-36.24-52.63-59.37-80.91,0,0,.02-10.93.1-21.77l71.08,102.41-11.81.27Zm38.08-43.55c-.61-5.12-1.64-11.25-3.14-16.53l12.98-12.3c-1.4,10.99-3.55,19.42-9.84,28.83h0Zm62.03-38.75c2.9,3.88-2,6.03-3.85,4.3-3.75-3.5,1.74-7.11,3.85-4.3Zm-128.69-24.41c-2.15,1.39,3.87-33.8,20.41-51.99,10.06,28.95-7.69,45.17-20.41,51.99Zm81.57-.13l-10.98-2.98,5.17-15.43s10.61,2.43,9.73,5.63c-2.86,10.43-3.92,12.78-3.92,12.78h0Zm-50.84-5.93c2.97-4.91,5.23-10.33,7.31-15.87l11-.23-5.53,15.29-12.78.81Zm66.19-21.65c-8.5-17,1.51-43.92,20.01-51.32-.67,17.24-5.99,34.71-20.01,51.32Zm-57.12-4.83c.37-6.04-.31-12.37-1.15-17.98,11.72,2.71,24.5,4.53,38.65,5.18l1.35,16.28c-12.57-2.31-25.36-3.97-38.86-3.48Zm28.08-24.81c1.25-5.05,2.86-9.99,5.04-14.76l13.39-.63c-.07-.26-5.71,8.95-7.07,15.61-2.13-.23-11.37-.23-11.37-.23h0Zm-25.39-4.02c-3.91-1.39-9.25-1.77-11.33-4.81l4.07-12.95,12.04,3.71-4.78,14.05Zm33.8-123.54l9.44-.09s45.35,58.3,62.35,80.99c-.57,2.31.19,21.88.19,21.88-24.08-34.04-71.98-102.78-71.98-102.78ZM54.91,111.76c-4.02-4.07,2.26-7.3,4.55-4.2,1.85,2.5-2.09,6.69-4.55,4.2Zm51.49-10.44c.15-13.51,9.68-29.55,9.58-29.14-.11-.03,1.36,13.21,3.19,17.37-.49.73-12.32,12.61-12.77,11.76Z"/>
    <path id="uuid-1fd3e300-756f-4593-a9bf-f27128fbf274" data-name="path6311-0" class="uuid-6752554e-1474-4c1b-b933-227c6669a4cd" d="m33.47,27.29v295.39h182.85V27.29H33.47Zm2.28,2.24h80.45s.08,1.16-.11,6.18c-.35,10.2-.78,20.89-.11,31.29.11,3.6.04,7.15.55,10.72.5,3.47.72,7.21,2.34,10.44.65,1.75.67,1.62-1.8,3.91-1.21,1.13-2.24,2.32-2.2,2.53.01.07-.05.33.13.19.12-.1,1.02-.99,1.12-1.11.67-.79,1.79.22,5.61,1.31.75.21,1.81.92,2.61,1.51,5.71,4.84,13.75,3.33,19.76.69,1.71-.75,2.12-.83,4.86-1.15,10.15-1.21,20.99-5.66,20.97-5.65l1.32,2.18s.5-.09.85.46c5.84,11.08,24.89,23.73,24.55,23.15l-12.45,6.93c.96,1.19,2.06,2.47,3.24,3.8l.19.05.08.26c10.04,11.25,26.41,26.25,26.41,26.25v27.45c-5.57,4.47-11.06,9.6-15.95,14.61-1.41,1.4-2.4,2.2-1.87,2.22,1.27-.19,2.37,1.06,3.4,1.94.65.73.5.67-.26,1.67-.53.7-.73.91-.73,1.42.02.98.01,1.65-.86,2.38-.54.68-.85,1.12-.95,1.93-.1.81-.09,1.33-.64,2.04-.94.2-1.03,1.57-.86,2.19.98.98.53,2.04.62,1.82-1.88,2.05-3.84,3.82-2.59.96.57-1.07.76-1.95.76-1.95,0,0-.9.94-1.38,1.38-.72.67-.99.28-1.01-1.81-.09-1.58-.76-3.79-1.02-4.21-.15-.24-.17.17-.1,1.69.09,2,.33,2.58-.37,4.58-.95,2.7-1.62,3.08-.08,2.99,1.46-.09,2.69-.11,3.33.77.21.29.49.8,1.08,1.1,1.2.66,2.15,1.39,2.82,2.12,2.16,2.36,1.54,4.46-2.63,3.03-2.2-.75-.76-1.7,1.6-1.48,1.45.14,1.7-.4.44-.79-2.33-.43-2.71-.7-4.25,1.14-6.46-.64-10.09-4.27-11.84-7.23-.73-1.24-.94-1.56-.44-2.26-2.65.9-5.92,5.43-8.19,7.54-6.69-3.81-14.94-10.69-19.66-18.5-2.35,4.42-5.1,12.47-5.1,12.47l-10.49-2.94-.12.22,10.37,3-1.01,3.48c-.11.38-1.71,4.33-1.71,4.33l16.2,7.6c-1.4,2.46-3.89,3.3-4.3,5.98l22.46-21.53s2.9,4.32,3.98,5.3c1.01.92,1.33,1.14.15,1.41-5.28.78-9.37,4.79-7.94,10.18.23.6.69.38,1.7-.25,3.5-3.19,12.07-6.14,12.36-5.39l.03,3.43c-9.22.13-8.28,6.95-7.6,10.6,0,.08-2.67,2.42-2.67,2.42.94.5,1.87,1.01,2.74,1.62-.81,4.54,3.04,11.13,10.61,7.76.65.67,1.27,1.35,1.99,2.2.77-.9,1.67-3.02,1.67-3.02,3.76,1.71,11.56-2.12,7.57-10.88l2.2-2.11-2.11-1.34c-.05-2.23-.4-4.22-1.72-6.16,0,0,3.55.91,6.18,1.06,1.62.15,2.99.19,2.85-.8-.04-.29-.28-1.71-.44-2.17-.78-2.3-4.85-3.98-8.79-4.2-.64-.04-1.34-.02-1.47-.18-.26-.31.2-.76.63-.69,2.16.38,4.24-1.23,4.61-3.27.07-.36.52-1.01,1.15-1.71,1.12-1.24,1.21-1.2,1.19-2.99-.01-1.24.2-1.52.77-2.35.73-1.19,1.08-2.73.71-4.33-.12-.51-.59-1.22-.19-2.49.66-2.06-.79-3.94-2.7-5.01-1.11.8-2.79.16-4.07-.45-.44-.21,1.48-11.37,5.43-10.37.66.4.94,2.34.89,2.37.18,0,.28-1.14.02-1.9-.27-.79-.88-1.55-2.06-1.33-.92.17-1.97,1.39-2.45,2.01-1.85,2.37-1.87,3.88-2.49,6.4-.3,1.19-.33,1.12-1.97-.17-1.18-.92-1.75-1.22-1.34-1.76.18-.24.95-1.01.95-1.01l14.99-13.85v139.18h-81.68s.57-18.29.57-18.29c1.52-12.53-1.15-38.85-3.18-41.33,1.56-1.76,6.4-6.01,6.14-6.2l-.64-.38-2.56,2.37-6.32-1.92c-2.7-1.87-5.45-3.6-8.31-4.34-4.66-1.2-13.64,2.63-13.65,2.67-14.35,1.07-25.84,6.92-25.68,6.87-.62-.58-1.45-2.42-1.47-2.4-7.4-10.34-14.67-16.13-24.6-23.2l12.58-6.98-29.81-31.3-.26-25.41,43.19-41.49c.25-.72,13.78,9.6,18.81,17.99.97-4.1,2.76-7.83,4.26-11.86.16-.37,8.59,3.13,11.1,3.28.37.02.68-.37.68-.37l-11.13-3.64,2.28-6.55s.79-1.78-.1-2.07c-5.08-1.65-9.84-4.56-14.69-7.04,0,0,2.27-2.53,2.3-2.64.03-.11.95-1.47.73-1.93-2.47,2.41-22.62,21.18-22.62,21.18-.57-3.22-1.47-4.35-3.43-6.34,1.07-.05,2.74-1.11,3.7-1.82,2.95-2.16,4.56-6.02,4.17-8.27-2.83.91-5.4,1.97-8.95,2.61-2,.36-3.89,1.27-5.03,2.24l-.18-3.6s4.78.84,6.99-2.38c1.9-2.77,1.12-5.95.69-7.56.05-.36-.06-.32.76-1.08.61-.56,1.55-1.29,1.55-1.29.04-.2-2.46-1.14-2.89-1.99.67-6.66-4.63-9.24-9.12-8.05-.84.25-1.24.41-2.23-.7-.15-.17-1.35-1.44-1.35-1.44,0,0-.53,1.23-.8,1.76-.88,1.74-1.12,1.22-3.02,1.31-4.8.24-6.95,4.13-5.85,8.92.26,1.12.14.95-.59,2.37-.37.73-.99,1.65-.99,1.65,0,0,.88.49,1.47.76.88.39.93.86.92,1.74.12,1.94.55,3.24,1.66,4.91-3.76.09-6.65-.27-10.06-1.4.52,5.26,4.38,7.22,9.11,8,0,0-.5.47-1.02.67-1.11.32-1.8,1.3-1.79,2.17-.16.84-.7,1.68-1.19,2.12-.74.64-1.34,1.54-1.05,3.29-.07,1.27-.38,1.63-.75,2.11-.74.97-.99,1.93-.81,3.21.09.59.27,1.86.15,3.18-.2,2.19.58,3.01,1.57,4.55.64,1,.51,1.02.36,1.75-.36,1.74-.73,2.63-1.11,3.95-.86,2.96-.89,5.2-.19,5.78,1.06.87,2.26.61,2.82.44,4.19-1.3,3.46-5.43,3.68-8.2.12-.71.36-1.05.6-1.02,1.18,1.39,2.43,2.2,4.05,3.07-5.57,5.7-9.14,9.18-16.18,15.4V29.53Zm81.68,0h3.36c-.71,1.33-3.36,5.47-3.59,4.36l.23-4.36Zm4.67,0h1.96c-1.91,4.56-4.59,7.31-7.13,10.07l.09-2.93c.08.18,3.8-4.1,5.08-7.14h0Zm3.37,0h1.93s.06.91-.18,1.55c-1.47,4.75-10.56,13.77-10.3,12.42l-.09-2.33c-.04.1,6.83-6.71,8.63-11.65h0Zm3.32,0h2.11c6.91,12.07,19.29,16.3,22.4,17.11l1.81,2.66c-14.59-2.87-22.4-12.28-26.07-18.1-.29-.45-.25-1.66-.25-1.66Zm3.59,0h2.23c4.63,7.72,12.93,11.97,15.8,12.87.77.85,1.59,2.4,1.92,2.74-7.75-2.11-16.43-8.83-19.95-15.61Zm3.39,0h2.04c2.46,3.57,6.33,6.18,8.5,7.89,1.17.92,2.71,2.8,2.57,3.18-4.84-1.54-10.51-7.07-13.11-11.07Zm3.12,0h2.69c1.15,1.67,2.19,3.02,3.39,4.73.22.33.36.71.3.86-.18.47-.73.12-2.23-1.22-2.47-2.2-4.15-4.36-4.15-4.36h0Zm3.54,0h58.52c-1.49,16.36-1.75,29.01,6.7,45.97-1.53,1.61-13.02,2.06-16.64,3.97-.07.46.93,1.25.93,1.25,3.79-1.77,18.57-3.38,18.57-3.38-6.19-10.84-11.28-31.82-7.45-47.8h11.09v78.93s.13,15,.45,23.57c-5.68-7.37-12.99-17.47-17.91-25.12-5.97-8.43-12.61-18.32-19.43-27.61-2.01-2.92-4.88-6.72-7.22-10.13-3.67-5.28-6.71-9.37-10.52-15.05-4.07-5.88-7.97-11.21-12.8-18.04-4.1-5.81-4.29-6.56-4.29-6.56Zm-14.11,2.31l1.35,2.15c-3.26,5.4-7.35,10.27-12.81,14.11l-.03-2.82c6.19-4.48,8.87-8.98,11.49-13.44h0Zm2.18,3.12h0c3.89,5.26,12.27,13.41,25.71,15.84,0,0,.76.69,1.88,2.22,1.41,1.93,1.43,2.01,1.62,5.18.13,5.8,2,13.66,3.86,18.61-.23,1.23-.45,1.86-2.75,4.99-9.62,13.06-30.12,25.41-40.21,8.55-3.37-5.4-3.7-15.75-3.91-22.21,0,0,.06-.45.09-.58.24-1.17.58-.99,2.4-.48,1.85.8,3.77.15,5.73-.38,2.23-.9,2.41-.21.26,1.81-.74.7-1.65,1.76-1.56,1.71.09-.05,1.34-.56,1.9-.99,1.72-1.31,2.12-.81,1.49.64-2.7,6.13-3.18,6.37.62,8.07.79.35,1.33.75,1.77,1.14,2.59,2.45,1.66,1.13.94,0-1.12-1.76-.11-2.69,1.78-1.6,1.26.73,2.91,1.32,3.81,1.04,1.75-.57,2.28-2.49,1.76-4.61-.41-1.17-2.8-3.24-2.25-1.07,1.43-.06,2.67,1.98,1.43,3.36-.94,1.27-2.62.58-5.19-1.12-1.42-1.07-3.15-.52-3.08.8.05.89-1.2.68-2.02-.45-.45-.63-.14-2.43.7-4.14,5.33-10.77.84-21.21-8.4-18.27-1.02.32-1.93.59-1.93.59l-.05-4.12c5.3-3.71,10.92-9.63,13.6-14.52h0Zm12.62,16.72c-2.76-.09-5.36.63-7.22,2.62-1.39,1.69-.9,3.19,2.16,1.68,2.49-1.23,2.83-1.38,5.55-1.48,3.85-.14,7.31,1.09,11.58,3.73,2.83,1.75,3.25,1.88,2.48.79-1.57-3.03-8.46-7.13-14.54-7.33Zm-22.48,2.93c.74,0,1.54.04,2.18.2,2.67.68,5.24,2.45,4.79,3.18-.16.26-.32.31-.66.14-1.95-.97-5.07-2.56-9.57-.62-.5.21-.77-.12-.77-.72,0-1.17,1.96-2.1,4.03-2.18Zm24.21,1.55c-2-.02-4.12.65-6.51,2.06-1.59.83-2.14,1.27-2.82.9-1.62-.89-1.28-.19-.27,1.6.71,1.26.7,1.52.6,2.29-.11.84-.1.87.71,1.77,1.52,2.01,3.03,3.94,5.31,5.47.71.47,1.66,1.01,1.73,1.02.23,0,.14-.18-.27-.57-2.91-2.82-5.21-5.34-2.25-4.27,3.46,1.13,6.74-.28,9.44-1.2,1.1-.34,2.25-.63,2.54-.63,2.49,0,3.08-1.04,1.49-2.63-3.37-3.79-6.37-5.77-9.71-5.81Zm.03.72c2.1.03,4.34.81,6.24,2.48,1.11,1.03,1.7,1.59,1.59,1.86-.12.29-.98-.2-2.41-.97-2.89-1.55-6.16-1.91-10.26-.73-3.18.92-2.24-.54,1.3-1.92,1.06-.49,2.28-.75,3.54-.73h0Zm-23.43.39c2.43-.04,4.95.76,6.65,2.22,1.18,1.02.32,1.26-1.6.46-2.9-1.2-5.34-1.4-7.72-.28-.75.35-1.61.77-1.84.75-.4-.27-.57-1.06-.22-1.61.96-.94,2.85-1.51,4.74-1.54h0Zm40.01.84c.18,0,.45.29.85.85.73,1.02.75,1.53.15,3.32-.73,2.19-1.03,1.83-1.21-1.22-.12-1.98-.12-2.97.22-2.96Zm2.41,3.3c.28-.04.6.45,1.12,1.46.36.71.28.92-.85,4.23-.47,1.39-.91,2.49-.93,2.5-.35.27-.3.25-.45.06-.8-1.03-.75-3.04-.05-5.45.52-1.83.81-2.75,1.17-2.8h0Zm-21.87.25c.09,0,.63.11.63.11-.06,4.91,3.72,3.92,4.22.43,0,0,.93-.1,1.07.14.45.73-.59,2.83-2.15,3.52-1.13.51-2.68.38-3.6-.47-.26-.48-1.04-2.3-.89-3.06.18-.44.45-.65.71-.67Zm-17.25.55c.3.02.43.16.48.56.19,1.62-1.42,3.38-3.51,3.48-2.02.23-3.12-1.35-3.05-2.89,0-1.17,1.01-1.32,1.12-.39.32,2.67,2.59,2.82,3.63,1.35.39-.58.3-2,.98-2.09.14-.01.26-.02.36-.01Zm15,.02s.07,0,.11,0c.37.02.64.12.79.57l.81,2.49c-.6.72-2.86-.73-2.85-1.82,0-.75.57-1.21,1.15-1.24Zm9.49.54c.16,0,.38.05.69.16,2.09.67,2.14,1,.36,1.64-2.13.77-2.27.87-1.77-.62.28-.83.36-1.17.71-1.18Zm-22.13.24c1.55.1,1.68,1.41.32,1.85-2.03.9-2.71.84-1.93-.49.43-.94.81-1.35,1.61-1.36Zm-9.68.47c.18,0,.4.07.62.24.23.71.63,1.25.94,1.98-.32.32-1.08.31-1.56-.07-.97-.77-.8-2.13,0-2.14h0Zm48.66,1.52c.6,0,1.21.96,1.41,1.67-2.1,2.71-1.77,7.77-2.26,9.3-.42,1.24-.56.17-1.73-3.05-.47-1.3,1.9-7.76,2.45-7.91.04-.01.08-.02.12-.02Zm2.15,2.78c.47.27,1.1.89,1.21,1.85.07.56-.21,1.31-.39,2.05-.42,1.76-1,5.08-1.21,8.14-.09,1.31-.08,2.48-.14,2.59-.63,1.24-1.96-2.1-1.85-4.77.41-2.13.65-9.58,2.37-9.87Zm1.94,3.01c.23-.07.55.15,1.03.81.3.41.48.73.57,1.09.16.62.03,1.36-.34,2.94-.96,4.19-.82,8.71-.19,13.34.13.98-.54.49-1.56-1.19-.57-.93-.93-2.21-1.1-3.72-.36-3.3.33-7.76.91-11.29.16-.97.29-1.88.68-1.99Zm2.63,3.36l1.69,2.04s-.72,4.7-.72,7.2c-.12.94.84,11.14,1.15,11.97-1.04-1.17-1.52-1.85-2.66-3.32-.13.02-1.11-10.05-.43-13.91.41-2.33.97-3.99.97-3.99h0Zm2.65,4.06c.28-.01.64.31,1.09.95.41.58.61,1.05.63,1.77.02.52-.24.93-.25,1.86-.05,5.55.7,10.79,1.64,15.84.33,1.81-.31,1.07-1.38-.07-.98-1.05-1-1.45-1.52-2.93-.1-.3-1.14-10.53-1.13-11.31.04-3.18.13-4.95.49-5.72.12-.25.26-.38.43-.38h0Zm-11.25.43c1.65,3.6,3.14,7.29,5.12,10.72,0,0-1.96,1.01-2.48.66-.83-2.27-3.82-8.35-3.87-9.43.05-.35,1.23-1.95,1.23-1.95h0Zm-31.13,2.99c-.25.03-.49.16-.7.43-.59.7-1.3.41-2.73-.22-.73-.23-.62.08-1.83.71-.94.49-1.27.5-1.89.5-.82,0-1.11-.3-1.12.28,0,.32-.05,1.77-.24,2.52-.26,1.02-.49,1.47-.35,1.64.42.38.77.15,1.65-.7,1.46-1.41,2.44-1.01,4.06-.48,1.85.6,2.23.82,3.92.22,2.39-.84,3.83-.84,4.79-.23,1.64,1.05,2.14.99,1.46-1.88-.22-.93-.23-2.36-.37-2.61-.15-.28-.57.52-1.01.82-.84.56-1.27.56-3.15-.06-.84-.28-1.75-1.02-2.5-.92h0Zm29.09.49c.18-.03.35.05.5.31.73,1.73,3.63,7.49,3.54,8.13-.57.51-1.32.88-1.77.42-1.45-2.66-1.88-4.09-3.06-7.08-.26-.53.26-1.69.79-1.79Zm16.08.1c.21-.03.63.4.95.83.99,1.33,1.05,1.5,1.08,2.93.11,5.19.76,11.29,2.22,16,.29.93.83,2.05.77,2.21-.49.71-2.75-1.2-3.43-4.11-.94-3.69-1.49-7.55-1.79-10.06-.38-4.41-.38-7.57.2-7.8Zm-17.87,2.33c.17-.02.33.12.47.53.84,1.62,1.89,4.41,2.6,6.09.32.73-1.33,1.3-1.71,1.05-.66-.5-.97-1.89-1.41-2.72-1.38-3.03-1.63-3.09-.86-4.04.29-.41.62-.88.91-.91h0Zm21.14,2.38c.12,0,.28.12.48.38.87,1.04,1.46,1.82,1.69,2.59.17.56.03.97.09,1.98.16,2.64.85,6.25,2.8,13.63.19.72.45,1.57.42,1.8-.19,1.36-2.17-.84-2.74-3.11-.67-2.58-1.89-5.86-2.25-8.91-.74-4.83-1.15-8.37-.49-8.37h0Zm-23.48.25c.47.09.73.94,1.07,1.71,1.65,3.86,1.78,3.85.74,4.15-1.09.32-1.16.22-2.45-2.41-.94-1.92-1.12-2.16-.34-2.85.3-.36.55-.54.76-.59.08-.02.15-.02.22-.01h0Zm-21.84.79c-.19,0-.74.42-1.29.64-1.36.54-3.77.58-5.24.13-2.61-1.05-1.87.31.43,1.14,1.79.6,5.33.14,5.88-.98.34-.36.46-.94.22-.94Zm19.41,1.89c.16-.03.3,0,.41.13,1.47,2.28,1.91,3.19,1.66,3.37-.23.24-1.4.68-1.88.44-.6-.3-1.12-1.7-1.39-2.81.14-.4.72-1.05,1.19-1.13h0Zm-36.37,1.09c.66,0,2.36,2.31,2.02,2.72-.1.21-.74.01-2.23-.41-.5-.18-1.63-.33-1.27-1.06.18-.33,1.22-1.26,1.49-1.26Zm33.99.75c.06,0,.11,0,.16.02.22.2.95,1.97,1.06,2.39-.15.39-1.25.48-1.72.46-.4-.85-.51-1.25-.62-1.81.13-.29.73-1,1.13-1.05Zm31.77.18h.01c.23,0,.64.42,1.24,1.28,1.14,1.63.98,1.52,1.8,5.42.93,4.43,2.04,7.58,3.16,12.11.02.75-.29.55-1.12.04-1.36-.83-1.8-1.75-2.23-4.15-.73-3.97-2.27-7.63-2.86-12.32-.31-1.54-.34-2.39,0-2.39h0Zm-34.15,1.58c.8-.03.69,1.21.46,1.41-.58.51-2.2.36-2.47.39-.62-.98,1.49-1.77,2.01-1.8Zm38.22,4.21c.24.03.87.93,2.05,2.6,1.14,1.6.89,1.34,1.57,3.98.96,3.65,2.55,6.28,3.49,9.64,0,.38-.46.33-.9.15-.86-.36-1.63-.97-2.36-1.57-.5-.54-.5-1.23-1.97-6.32-.53-1.84-.67-2.31-1.33-5.11-.56-2.33-.8-3.41-.54-3.37h0Zm-123.17,10.9c3.86,7.14,2.43,10.31-5.88,11.3-.6-.08-.03,3.66-.05,5.33,4.16-2.39,9.2-2.95,13.84-4.45-1.26,4.06-3.48,8.67-10.2,7.96-7.18-5.45-15.28-2.18-20.89-4.39-3.05-1.14-4.21-4.54-4.25-5.13,3.66.37,7.78,1.15,11.33.9-3.87-3-2.74-7.14-2.19-9.04-4.61-5.55-.75-12.18,5.83-10.69.68.16,2.02.82,2.02.82,7.51-6.57,13.69.93,10.44,7.39h0Zm128.38-3.47c.26-.03.84.66,2.01,2.3,3.45,4.85,6.44,9.36,6.39,9.61-.15.84-3.74-.63-4.65-1.82-1.03-1.36-3.94-8.38-3.94-9.5,0-.37.05-.58.19-.59Zm-140.52,20.77c1.79.26,2.3.42,2.28,1.12.15.6-4.36.68-4.97.23-.49-.35.14-1.13.62-1.32.71-.2,1.38-.11,2.07-.04Zm123.85.87c-24.86,12.12-34.98,43.67-22.34,67.89l-1.75,1.27c-12.47-25.76-3.19-53.37,17.06-67.31.82-.59,2.63-1.04,3.48-1.6,0,0-8.26,1.89-11.06,2.99-.57-.02-2.23.57-4.02,2.52-1.57,1.46-6.46,8.24-6.3,8.47l-13.01.53v.48s12.78-.3,12.78-.3c-13.14,21.74-9.92,42.44-1.8,56.92l.29.27c4.38-2.42,8.87-6.97,11.92-10.98-7.38-23.95.55-42.76,21.22-53.49.02-.33-.05-.96-.11-1.51l-1.45-1.4c-22.97,10.23-32.16,35.51-22.81,58.51l-1.54,1.69c-11.71-23.72.73-53.32,22.54-61.95l-.9-.87c-23.66,11.15-33.95,39.41-22.32,63.5l-1.47,1.3c-13.22-26.37.64-55.92,22.43-66.12l-.84-.81Zm-127.77.02s-.17,1.41.33,1.89c.23,1-.14.89-.99.69-2.09-.5-.46.7,1.25,1.66,1.69.95,1.46.92-.01,1.86-.99.63-.89.87-.75,1.35.2.71.33.24.74-.14.86-.8,1.55-.99,2.32-.99,1.15,0,1.27.93,1.06,1.65-.46,1.51-2.01,1.43-3.28,1.06-2.08-.62-5.48-4.24-5.43-6.38-.14-1.91,2.46-2.73,4.76-2.64h0Zm8.11.06h0c.41,0,.94.3,1.24.41.81.3,1.82.7,2.94,1.17,1.54.49,3.11,1.29,4.11,1.97,3.07,2.06,2.88,6.17,2.66,6.58l-15.86,15.1s-.9-.44-1.74-.87c-2.67-1.37-3.31-2.09-1.83-2.85.72-.37.95-1.16,1.05-1.93.14-1.03.08-.86.7-1.33,1.07-.82,1.12-1.16,1.13-2.52,0-.9.1-1.32.42-1.88.8-1.55.45-2.74,1.09-4.3.88-.87,1.29-3.23,2.06-2.57.76.8.47,1.9.51,2.47.14-.14.78-.44.91-.47.33-.08.66.04.75.56-.12,1.48-.03,3.05.24,4.45,1.18,4.08,1.01,3.51.54.12-.25-1.83-.27-3.34.46-5.05.7-1.22.73-1.46-.78-2.06-.56-.22-1.52-.62-1.71-1-.24-.48-.96-1.12-1.9-1.34-2.28-.54-3.6-2.75-3.28-3.08.22-.22,1.13.07,1.71.09,2.08.07,2.52-.03,3.44-.83.49-.42.71-.8,1.1-.83h0Zm109.18,2.86c-21.3,17.32-25.04,45.33-14.41,66.94l-1.84,1.45c-13.36-25.35-4.38-52.71,12.02-67.66l4.22-.73Zm-122.98,2.06c.38-.04.79.52,2.28,2.12,1.01,1.08,2.06,2.02,2.61,2.34,1.25.6.98.35-.06,1.34-1.07,1.23-.48,2.24-1.75,1.62-3.31-1.56-5.64-6.17-3.49-7.28.16-.08.29-.14.41-.15h0Zm-1.65,4.84c.08,0,.17,0,.26.03.41.1.9.87,1.44,1.41,1.47,1.49,2.16,2.15,3.33,2.68,1.16.51,1.19.64.37,1.55-.3.33-.47.73-.54.95-.07.22-.09.5-.34.55-1.29.25-5.58-2.36-5.75-4.17.14-1.69.56-2.94,1.23-2.99Zm9.09.5c.74-.02,1.18.65,1.18,1.73,0,.75-.42,1.05-1.27,1.37-1.82.69-2.94-.62-1.67-2.07.54-.61,1.26-1.02,1.77-1.03h0Zm-1.11,4.4c1.37,0,1.77,1.17.76,2.17-.95.94-2.85.95-2.85-.09,0-.81,1.21-2.09,2.09-2.09h0Zm-8.52,1.39c.93.28,3.19,1.91,4.19,2.11.05.55-.61.7.33,1.74.43.47.46.79.09.99-1.13.61-5.07-1.31-5.33-3.29-.13-.97.19-1.52.72-1.55h0Zm5.13,2.37c1.35.06,2.88.1,2.72.75-.12.47-.6,1.72-1.22,1.48-.3-.11-.59-.41-.8-.62-.72-.7-.91-1.62-.7-1.61h0Zm-4.2,3.23c.83-.41,3.47.42,3.72,1.07,1.07,2.72-.34,8.62-2.8,9.2-.94.23-2.04.57-2.77-1.12-.1-.01,1.5-8.99,1.85-9.15Zm56.24,1.57c-.58.42-.65.48-.88.82,3.94,3.58,18.26,41.03-11.58,68.31l-6.33,1.91c28.64-22.6,23.88-54.68,16.15-68.52-.82.17-1.14.91-1.26,1.08,8.73,13.5,11.99,51.6-22.35,70.02.01.01.15.16.16.16.03.07.22.25.37.39.06-.5,15.49-4.26,14.4-4.36,14.39-12.78,26.91-43.25,11.32-69.81h0Zm-5.18,4.65c-.71.75-.78.64-1.03,1.09,12.39,24.45.89,54.52-21.99,65.88.41.42.52.54.84.87,26.24-14.27,33.64-44.53,22.17-67.85h0Zm-2.03,2.08c-.54.36-.62.36-.91.94,10.3,20.88,2.22,49.85-22.22,61.74.2.21.53.55.93.95,28.49-15.39,31.13-44.65,22.21-63.63h0Zm-2.36,2.49c-.97,1.29-2.91,3.1-2.91,3.1,3.08,2.35,10.38,36.87-20.57,52.15-.01,1.11-.93,2.08,1.12,3.41,22.42-10.2,32.17-37.32,22.37-58.67h0Zm112.45,42.68c.83.06,1.57.31,2.33.41,2.78.36,4.59,2.4,3.35,3.64-.41.41-.98.17-2.79-.72-.83-.41-.97-.79-1.14-1.71-.21-1.1-.43-1.22-.7-.36-.28.87-.59,1.4-1.54,1.18-2.67-.62-1.66-2.47.49-2.45Zm-1.87,3.53c1.4.07,1.29,1.04.31,1.93-.92.7-1.55.84-2.07.31-.91-.92.35-2.31,1.76-2.24Zm3.41.62c.88,0,2.01.41,3.35,1.52,1.6,1.34,1.96,4.57.5,5.13-.61.23-.71,0-2.02-1.25-.88-.84-1.84-1.61-2.79-2.06-1.93-.92-2.17-1.27-.87-1.9.27-.14.63-.47.79-.73.33-.54.44-.71,1.04-.71h0Zm-4.77,3.11c1.35.1,1.53,1.71.33,2.3-.35.28-1.47-.13-1.53.18.08.55-.47.32-.57.12-.19-.23-.23-.57-.23-.83.02-.89,1.02-1.88,2.01-1.77h0Zm2.49,1.19c.05,0,.12,0,.2.01.26.01.6.16,1.13.45,3.25,1.78,4.84,4.58,3.74,6.16-.72,1.03-1.9.64-2.79-.83-.5-.83-1.84-1.88-3.36-2.66-1.74-.89-1.78-1.01-.52-1.62.52-.25.9-.6,1.15-1.05.22-.39.29-.46.45-.46h0Zm-3.31,3.62c.61.03,1.2.25,1.37.86.21.79-1.3,1.26-2.53,1.28-.62.01-1.35.13-1.53-.31-.18-.41.43-1.17.68-1.36.5-.35.91-.38,1.42-.45.19-.02.4-.03.6-.02h0Zm2.94,1.49c.62.13,1.28,1.22,1.61,1.55,2.45,2.46,2.17,3.79.58,4.79-1.09.68-2.83.85-3.41.29-.93-.81-.9-1.74.12-2.04.95-.21.6-.59-.29-.82-3.18-.91-5.14-2.61-1.68-2.24.99.11,1.95-.67,2.47-1.29.19-.23.39-.29.6-.25h0Zm-165.79,2.5l71.49,102.55h-57.77c2.03-16.31-2.05-34.41-7.45-46.22,5.88-1,11.48-2.56,17.08-4.12l-1.14-1.48c-6.69,2.69-12.86,3.67-18.67,4.33,7.71,13.19,10.46,31.36,8.15,47.49h-11.01v-79.62l-.69-22.94Zm150.43,3.48c4.95,1.53,9.66,3.94,14.25,3.56,2.53.01,5.11.42,7.56,1.74,1.65.78,2.51,3.72,2.51,3.72-2.59,1.36-10.66-1.08-10.66-1.08,5.12,3.3,3.31,9.4,2.22,10.14,7.07,8.97-3.92,13.57-7.41,10.34-5.16,5.15-14.02.84-10.61-7.66,0,0-6.48-12.44,6.3-11.61,0,0,.22-5.03-.14-5.26-4.29-.35-9.43,3.35-13.71,5.64-1.28-6.69,5.08-8.51,9.69-9.54h0Zm-137.63,11.78c1.01-.04,3.53,1.75,3.84,3.09.06.28.72,1.93,1.45,3.47.01.28,2.5,4.79,1.41,4.4-2.17-2.96-6.05-8.01-7.03-10.47,0-.33.04-.48.33-.49h0Zm5.28,2.84c.56.03,2.08,1.26,2.46,1.66.14.74.89,2.69,1.48,3.98,1.55,3.34,3.94,8.59,3.45,10.08-.16.49-.16.73-.22.7-1.11-1.29-2.16-3.15-3.19-4.5-.06-.11.02-.18-.25-1.21-1.07-4.86-2.79-7.42-3.91-10.26-.1-.33-.01-.46.17-.45Zm3.84,2.41c.21.15,3.05,2.15,3.33,2.44,1.01,3.6,5.03,15.12,3.99,17.17-.36-.29-1.9-2.14-2.11-3.1-.46-5.51-2.2-9.47-4.07-13.58-.53-1.24-.94-2.47-1.14-2.94h0Zm5.34,4.05c.9.44,1.83,1.45,2.36,2.35.35.61.53,1.33.87,2.85,1.03,4.7,2.99,9.47,2.11,14.48-.55.75-1.75-.95-1.92-2.62-.57-5.55-1.06-8.22-3-14.75-.38-1.27-.66-2.26-.41-2.3h0Zm4.56,4.31c.19.01.59.37,1.24.99,1.28,1.2,1.46,1.65,1.46,3.64.04,2.94,1.01,6.29,1.17,9.25.09,1.71.4,6.13.13,6.4-.37.51-2.02-1.36-1.89-4.23.21-3.45.04-6.05-1.43-12.03-.68-2.76-1.02-3.94-.73-4.01h.04Zm3.93,4.16c.47.06,1.63,1.72,2.16,3.24.48,1.41.32,3.19.67,4.71.79,5.2.74,10.41.53,11.98-.1.78-.61.47-1.3-.28-1-1.09-.86-1.11-.85-4.13.01-2.59-.56-8.98-.82-10.28-.49-2.4-.69-4.7-.57-5.09.03-.11.1-.16.19-.15h0Zm44.8.49c.69,0,1.38.04,2.06.13,5.16.83,9.28,4.37,11.65,10.19,2.28,5.93,2.84,14.01,3.2,21.44-.02,1.78-.75,1.33-2.67.22-2.09-1.02-2.53-.73-5.58-.03-1.9.44-1.73-.86,1.4-3.02,1.07-.7,2.3-1.63,1.9-1.77-.21-.07-1.16.19-1.85.75-3.07,2.49-3.9,3.1-3.02.68.22-.61.93-2.31,1.23-3.13,1.11-3.05-.17-4.35-3.95-6.28-.95-.48-1.57-1.29-.62.4.77,1.38-.82,2.49-2.8.88-1.37-1.12-4.13-.37-5.02,1.02-.86,1.35-.4,3.88,1.3,4.7,1.5.65,2.06.18.61-.83-1.86-1.3-1.5-3.49.59-3.48.52,0,1.43.58,3.74,1.84,1.65.9,2.83.52,2.83-.82,0-.9.51-.82,1.6-.28,1.46.73,1.3,1.38.53,3.41-.52,1.42-.78,3.03-1.26,4.51-1.23,4.99-1.4,10.64-.03,12.4,3.62,4.68,7.47,4.19,10.76,1.09l-.14,5.13c-3.36,2.71-7.28,4.56-13.34,14.6-2.11-2.67-11.18-13.57-25.71-16.03l-3.27-4.5c.06-.28-2.44-16.72-4.08-22.32,0,0,1.8-2.74,3.43-4.77,6.12-7.57,16.2-16.17,26.51-16.14h0Zm-15.75,3.65c.51.03.5.62-1.15,1.14-.56.18-.74-.94-.44-1.15.54-.06,1.12-.01,1.58.01h0Zm-3.67.28c.26-.01.45-.01.62.21.78,1.01,1.1,1.62.39,2.17-.95.79-1.81.59-2.33-.91-.34-1.07.46-1.41,1.32-1.47h0Zm-22,.02c.73.52,1.61,1.92,2.48,3.19.49,2.92.47,5.95.68,9.02.22,3.23-.08,5.94-.55,6.91-.48,1.17-1.46.36-1.7-1.24-.06-.38.26-4.35.26-6.53,0-3.75-.95-8.37-1.18-11.37h0Zm19.14.98c.72.5,1.43,2.07,1.72,3.03-.05.3-.31.55-.88,1.01-.56.52-.74.48-1.37-.51-.98-1.54-1.44-2.56-1.25-3.09.62-.58,1.21-.82,1.77-.43h0Zm34.31.08c1.41.12,2.8.77,4.17,1.09l-2.09,2.03c-.62-1.04-1.33-2.08-2.08-3.12h0Zm-38.8.81c.41-.05,1.04-.03,1.31.25.77,1.01,2.12,3.65,2.05,4.64-.2.33-.5.63-.83.82-.26.07-.49-.38-1.36-1.93-1.52-2.69-1.96-3.45-1.17-3.78h0Zm-1.74.88c.85.74,2.81,4.84,2.92,5.89-.02.32-.12.59-.3.81-1.27,1.37-.95,1.15-2.84-2.76-1.6-3.22-2.02-3.54-.96-3.9.42-.17.86-.32,1.19-.04Zm-3.04,1.05c.55-.01.71.92,1.79,3.05,1.81,4.01,2.49,4.57,2.08,5-.51.64-.8,1.09-1.28.31-1.09-1.78-2.17-4.06-3.19-6.06-.81-1.49-.89-1.67-.36-2.04.3-.21.75-.26.96-.26Zm34.27.99c-.84-.01-1.6.06-1.95.15-.68.19-3.42,1.06-1.74,1.22.34.03,1.2-.18,1.8-.22,1.69-.12,5.22.2,5.09-.12-.2-.76-1.8-1.01-3.2-1.02h0Zm-35.77,2.14c2.64,4.96,4.01,6.81,3.55,7.6-.38.48-.96,1.08-1.3.93-.55-.23-1.29-1.86-3.13-5.57-1.9-3.83-2.1-4.11-1.12-4.61,1.25-.69,1.51.7,2.01,1.64Zm-4.36-1c.36-.04.72.83.91,1.15,1.18,1.93,1.03,1.68,1.01,7.96-.01,3.91-.51,6.41-1.16,7.37-.34.5-.94.21-1.24-.78-.14-.45.25-1.12.33-1.84.46-4.71.14-9.41.15-13.87Zm30.88.82c-.13,0-.22.04-.25.12-.12.31.13.8.79,1.75.55.79.42,1.43.41,2.49-.01,1.5.1,1.61,1.13.85.92-.67.99-.72,2.62.4.97.66,2.19.74,2.98.01.56-.51.75-.28,1.5-.09.81.45,1.04.52,2.79-.33,1.18-.52,1.22-.6,1.92-.23,1.23,1.09,1.41.7,1.25-.73,0-.5.15-1.43.29-2.03.61-2.54-.38-2.56-1.69-.95-.51.63-1.64.9-2.71.39-1.53-.72-3.93-.43-5.7-.13-2.09.35-3.06-.23-3.9-.95-.36-.31-1.06-.59-1.44-.58h0Zm-27.53,5.43c.26-.06.66.72,1.25,2.38.76,2.13-.57,9.55-1.37,10.76-.42.64-.69,1.03-1.56-.15-.35-.52-.08-.68.27-2.14.52-2.22.96-5.81.99-7.47.01-2.17.13-3.3.42-3.37Zm2.67,7.19c.19.01.41.44.71,1.29.43,1.16.22,3.4-.34,5.11-.32,1-.63,2.06-1.19,2.95-.19.5-1.16.33-1.42-.78-.17-.7.41-1.58.69-2.69.28-1.12.6-2.55.76-3.27.29-1.75.51-2.62.78-2.6h0Zm20.65,3.28s-.05,0-.06.01c0-.01-.01.01-.02.02-.04.04,2.01,2.3,2.56,2.93.29.25,2.77,3.27,1.23,2.58-3.89-1.62-8.44-.83-11.24,1.89-.35.34-.64-.01-1.7-.09-2.18-.16-2.97.7-1.64,1.78.2.16.62.24.82.5.18.24.12.68.21.8,4.21,5.61,12,6.71,16.9,3.04.62-.46.96-.62,1.53-.45,1.14.34,1.24-.62.23-1.96-.44-.58-.98-1.26-.67-1.45.62-.54.93-1.42-.15-1.74-.74-.23-1.58-1.06-2-2.22-.49-1.36-5.28-5.53-6.01-5.63h0Zm-19.12,2.43c.21-.03.33.26.35.32.57,1.15.48,5.35-.39,6.76-.52.62-1.71-.54-1.53-1.73.14-.91,1.13-4.97,1.33-5.2.09-.1.17-.15.24-.15Zm18.66,3.41c.77-.01,1.82.34,2.65,1.1.45.41,1.24,2.18.91,2.88-.09.35-1.04.33-1.13.07-.52-3.58-3.41-4.1-4.33-.76,0,0-.6.51-.67-.47.21-1.9,1.09-2.81,2.56-2.82h0Zm23.28.3h0c.92-.02,1.79.45,2.24,1.43.31.69.35,1.27.22,1.57-.09.23-.4.13-.4.13-1.47-4.04-3.46-2.17-4.19.06,0,0-.75.24-.85-.01-.09-.24-.04-.7.26-1.33.57-1.2,1.67-1.84,2.71-1.86h0Zm-19.63.26c.52-.03,1.41.39,2.07,1.07.68.68.74,1.09.2,1.6-.33.31-1.49.61-1.72.08l-.98-2.3c-.09-.22.19-.43.43-.44h0Zm-7.07.11c.58,0,.7.14-.21,2.27-.2.46-2.54-.21-2.09-1.09.67-.7,1.72-1.18,2.3-1.18h0Zm23.97.3c-.21.08-1.09,2.33-1.09,2.33-.84-.1-1.84.02-2.02-.67-.17-.65.17-1.05,1.35-1.5.69-.31,1.71-.37,1.77-.16Zm6.36.45c.88.35,1.09,1.08.98,1.47-.09.29-.53.33-.8.07-.31-.3-.62-.89-.67-1.27-.05-.43.36-.32.49-.27h0Zm-44.2,2.08c.27.52.76,3.44.19,3.36-.56-.14-.82-1.03-.92-1.82-.02-.16.48-1.52.73-1.54h0Zm9.76,1.56c.26-.04.91.19,1.88.74,3.18,1.54,6.44,1.76,9.91.99,2-.52,2.51-.83,2.79-.48.48.59-.28,1.17-3.1,2.12-3.09,1.04-6.3.87-10.53-2.12-1.13-.8-1.28-1.2-.95-1.25h0Zm35.04.59c.11.02.2.08.27.22.52.98-1.24,2.02-2.16,2.18-2.5.42-4.91.21-6.87-.96-1.34-1-.78-1.71.7-.94,1.6.83,4.85.98,6.58.14.65-.31,1.15-.69,1.47-.63h0Zm-39.24,2.05c-.18.04.12.49.74,1.17,4.35,4.91,14.74,7.57,20.57,2.51,1.83-1.72,1.55-2.5-1.33-1.12-4.79,1.19-11.04,2.31-18.3-1.57-1-.74-1.53-1.03-1.68-.99Zm29.83.05s.12,0,.15.01c.27.02.73.27,1.77.74,1.82.81,4.94.48,5.92.1,2.3-.9,2.78.23.6,1.45-2.44,1.48-5.81.9-7.77-1.01-.61-.55-.94-1.23-.67-1.28h0Zm-28.72,8.78c8.57.79,21.97,9.8,27.02,20.06h-3.32c-5.07-8.08-12.86-15.05-22.12-17.47-.37-.28-1.77-2.23-1.58-2.59h0Zm37.69,1.93v2.79c-1.44,1.18-6.94,5.91-10.85,12.77-.28-.36-.67-1.17-1.19-1.75,4.12-7.26,8.27-11.41,12.03-13.82h0Zm-34.33,2.17c1.97-.14,14.76,7.24,19.07,15.96h-2.27c-4.85-6.34-10.23-10.94-15.01-12.6-1.16-1.23-2.53-3.31-1.79-3.36Zm34.33,2.07v3.74c-3.06,2.99-5.32,6.47-7.07,10.15h-2.38c.07.04-.45-.59-.71-1.52,2.59-4.55,5.5-8.55,10.15-12.37Zm-30.99,3.06c1.15,0,10.27,6.74,11.56,10.84h-2.3c-1.94-2.76-4.82-5.88-7.47-7.46-1.08-1.35-2.39-3.02-1.91-3.29,0-.06.04-.09.12-.09h0Zm30.99,2.45s.01.06,0,.12v3.08c-1.33,1.55-2.64,2.86-4.1,5.19h-1.96c1.67-3.63,5.68-8.63,6.06-8.39h0Zm-26.44,4.4s.06,0,.09.01c.71.19,3.3,3.14,3.22,3.97h-1.17c-.65-.83-1.43-2.2-1.89-3.05-.25-.47-.43-.91-.26-.94h0Zm26.44.7h0v3.29h-2.73c-.21-.04,1.71-2.76,2.73-3.45v.16Z"/>
    <path id="uuid-6bb302cd-e8ca-4572-b86c-2b4b58cd6ca5" data-name="path6313-8" class="uuid-9c9ad8c6-a09a-422d-8718-71c68d14ec15" d="m171.46,29c-9.96,0-19.85.06-29.68.16l73.25,104.42.06-23.2-23.5-30.48c5.35-1.66,11.88-2.8,17.02-3.26-6.61-14.71-9.91-28.53-7-47.47-10.14-.12-20.18-.17-30.14-.17h0Zm28.92.65c-.57,6.69-1.33,14.14-.12,22.42-3.81-1.4-4.71.99-5.34,1.24-.72-1.61-3.38-4.39-6.38-1.12-1.56,1.7-.8,4.89,2.83,6.33-4.16.32-6.32-3.25-7.05-6.93-2.25-1.44-4.61-2.87-4.83-7.94l1.15.19c-.38,3.54,3.27,5.34,5.41,3.65,1.38-1.06,1.53-2.71.98-5.26,1.11-.23,3.71-1.32,3.03-4.68-.95-4.64-5.69-4.09-7.86-1.04-1.8-2.24-5.1-2.66-6.42.82-.74,1.94.94,4.11,2.85,4.53-4.24.82-6.38-5.06-6.61-9.03l-1.76-3.13c11.46-.07,16.47-.05,30.12-.06h0Zm-57.42.12h8.51s62.09,80.74,62.09,80.74l.13,20.1L142.97,29.77Zm21.51.01l1.36.02c1.06,7.11,5.13,12.25,12.09,14.75.36,5.8,3.15,13.69,13.72,16.36-.31,6.55,3.88,12.82,8.37,15.82,0,0-1.21.3-2.16.39-6.03-4.81-8.12-14.8-8.12-14.8-1.92-.69-11.71-4.29-13.75-17.44-4.39-.82-11.29-7.95-11.5-15.09h0Zm-5.47.02h4.77c.49,5.72,3.99,12.66,11.71,15.91,1.81,9.29,5.51,13.46,13.69,17.29,1.24,5.41,4.49,12.15,7.86,14.34l-1.88.42-36.15-47.95Zm23.28,8.76c1.08,0,1.95.88,1.95,1.96s-.87,1.96-1.95,1.96-1.95-.87-1.95-1.96.88-1.96,1.95-1.96Zm-65.78,10.7c.11.28-26.66,23.04-24.05,65.84l-.78.87.21.31c-.88,1.01-1.74,1.82-2.7,2.8,5.55,3.55,15.23,7.44,15.26,7.33l-1.85,4.3,11.57,3.75-1.55,4.09s-8.05-2.68-11.38-3.8c-1.65,3.67-2.64,7.54-3.84,11.35-.11.31-.38.16-.79-.44-6.01-10.29-18.34-17.72-17.93-16.99l-43.76,41.71-.3,25.78,30.28,31.36s-8.76,4.33-12.91,7.18c3.22,2.64,6.87,4.68,10.08,7.18,6.63,4.7,11.11,11.61,15.4,16.29,20.27-10.1,40.68-9.54,58.31-3.41-2.05,2.17-4.35,4.05-6.46,6.41,5.12,13.51,3.48,40.34,3.23,41.07,10.67-10.95,26.54-34.43,24.42-67.49l4.49-4.52c-.08-.23-11.23-6.23-15.87-7.53l1.28-4.11-11.13-3.49,1.24-3.26,11.08,3.22c2.1-5.18,4.32-12.43,4.32-12.43,4.43,6.65,9.3,12.7,19.35,18.86l43.51-41.82-.28-26.89-29.62-29.76,12.33-6.46c-1.18-.96-2.9-1.87-4.12-2.83-.09-.07.25-.28.16-.34-.31-.24-.54-.43-.85-.65-.07-.05-.29.27-.36.22-4.18-2.95-8.37-5.85-11.66-9.38-.08-.09.04-.46-.04-.54-1.71-1.84-3.42-3.55-5.16-5.35-.81-.82-2.14-2.76-2.14-2.76l-.08-.64-1.87-2.37c-6.02,3.57-31.71,12.53-56.56,2.61l4.72-4.74c-1.26-3.05-2.07-6.45-2.4-9.23-1.3-11.17-.8-31.29-.8-31.29h0Zm78.34,6.33c1.14,0,2.06.93,2.06,2.07s-.92,2.07-2.06,2.07-2.06-.93-2.06-2.07.92-2.07,2.06-2.07Zm6.44,2.46c1.05,5.15,3.36,12.62,5.65,17.65l-2.74.31c-2.23-1.45-4.58-3.58-4.83-6.59-6.03.05-7.79-9.45-5.59-8.31-.28,3.24,2.04,4.52,4.31,4.2,1.96-.27,3.65-2.99,1.32-5.98,1.03-.4,1.54-.71,1.87-1.28h0Zm-85.4,15.21c.4,6.58,1.68,11.38,2.88,16.35l-11.91,11.29c.93-10.3,3.94-19.51,9.02-27.64h0Zm57.11,21.67l1.51,2.18c-17.21,10.15-46.57,10.87-64.47,2.31l2.38-2.27c15.73,7.14,41.35,7.67,60.58-2.22Zm-111.76,3.39c-1.73-.02-3.74.64-5.86,2.27-7.89-3.61-13.06,4.83-8.18,10.43-.72,4.03-1.27,4.78,1.75,8.85-3.2.41-7.25-.43-10.69-.96.58,5.96,9.08,7.35,12.62,6.7,3.82-.83,7.42,1.07,7.58,1.11,2.25.63,3.64,1.72,5.86,2.24,4.17.5,8.98-2.82,9.72-8.64-2.5.64-5.24,1.55-7.67,2.08-2.38.59-4.18,1.17-5.99,2.59l-.15-4.93c12.37.59,6.98-11.22,6.28-11.73,2.3-4.66-.46-9.95-5.26-10.01h0Zm112.4.37l2.69,6.5-7.15,2.44-1.83-6.36,6.28-2.57Zm-112.91.2c4.2.04,7.96,4.49,3.92,9.47,7.82,6.93-2.2,14.36-6.98,9.21-6.36,5.85-13.11-.26-9.56-6.63-6.78-6.1,1.58-14.27,7.29-9,1.4-2.17,3.41-3.06,5.32-3.04h0Zm48.8,2.38c1.01,0,1.82.82,1.82,1.83s-.81,1.83-1.82,1.83-1.82-.82-1.82-1.83.82-1.83,1.82-1.83Zm-46.43.12s-.08-.01-.13.02c-1.72,1.22-2.72,3.04-4.26,4.51-2.06-.68-3.57-.22-4.93.64-2.07-1.09-2.63-1.94-4.67-2.93-.67-.32-.7.44-.5.64,1.47,1.49,2.84,2.11,4.52,3.39-.16,1.55.09,2.81.68,3.98-1.15,2.19-2.24,2.81-3.23,5.16-.15.36.18.56.44.34,1.73-1.44,2.55-2.8,3.99-4.68,2.2.77,2.97.3,4.35-.19,1.36,1.05,2.45,2.07,4.18,3.07.54.31.57-.5.55-.52-1.29-1.06-2.72-2.1-3.97-3.36.75-2.8-.01-3.72-.59-4.63,1.07-1.54,2.47-2.87,3.78-5.05-.02-.12-.1-.35-.21-.4h0Zm50.54.42l6.44,2.01-1.42,6.72-6.86-2.22,1.84-6.51Zm46.58,1.65l1.79,6.56-6.69,1.79-1.1-6.96,6-1.38Zm4.7.11c1.01,0,1.82.82,1.82,1.83s-.81,1.83-1.82,1.83-1.82-.82-1.82-1.83.82-1.83,1.82-1.83Zm15.22.23l5.63,5.04-6.25,3.17-3.01-6.56,3.63-1.65Zm-53.07,1.46l6.54.77-.27,7.06-7.5-1.01,1.23-6.82Zm-22.69.07l7.28,3.21-2.62,7.37-7.45-3.21,2.8-7.36Zm18.76.57c2.68.42,1.96,3.6,0,3.66-1.01,0-1.82-.82-1.82-1.83s.82-1.83,1.82-1.83Zm23.52.01l.9,7.06-6.79.41-.15-7.18,6.04-.3Zm-89.91.6c1.46,0,2.65,1.18,2.65,2.65s-1.19,2.66-2.65,2.66-2.64-1.19-2.64-2.66,1.18-2.65,2.64-2.65Zm94.58.2c1.01,0,1.82.82,1.82,1.83s-.81,1.83-1.82,1.83-1.82-.82-1.82-1.83.82-1.83,1.82-1.83Zm-14.12.59c1.01,0,1.82.82,1.82,1.83s-.82,1.83-1.82,1.83-1.82-.82-1.82-1.83.82-1.83,1.82-1.83Zm31.97.45l2.64,7.26-7.42,2.4-2.1-7.46,6.87-2.21Zm-112.39.05c-.77,0-1.4.63-1.4,1.4s.63,1.4,1.4,1.4c.77,0,1.4-.63,1.4-1.4s-.63-1.4-1.4-1.4Zm117.59.15c1.01,0,1.82.82,1.82,1.83s-.82,1.83-1.82,1.83-1.82-.82-1.82-1.83.81-1.83,1.82-1.83Zm12.83,2.06l4.79,3.4-2.37,1.33c-.62-1.5-1.72-3.27-2.42-4.73Zm-68.51.66l7.08,1.54-1.08,7.45-7.72-1.55,1.73-7.44Zm-21.05.41l3.76,1.78-2.48,6.21-6.08-3.25,4.8-4.73Zm16.8.4c1.01,0,1.82.82,1.82,1.83s-.81,1.83-1.82,1.83-1.82-.82-1.82-1.83.81-1.83,1.82-1.83Zm40.87.41l1.26,7.45-7.98,1.13-.49-7.59,7.21-.98Zm29.88.14c1.01,0,1.82.82,1.82,1.83s-.81,1.83-1.82,1.83-1.82-.82-1.82-1.83.82-1.83,1.82-1.83Zm-5.66.06l2.64,6.56-7.81,3.28-2.31-6.57,7.48-3.27Zm-19.91.47c1.01,0,1.82.82,1.82,1.83s-.81,1.83-1.82,1.83-1.82-.82-1.82-1.83.82-1.83,1.82-1.83Zm-26.37.75l7.47.14-.09,7.53-8.18-.23.8-7.44Zm59.75.52l2.94,2.05c-30.24,19.54-72.73,21.96-105.88,2.73,0,0,1.36-1.36,2.13-2.15,29.89,17.97,73.52,15.45,100.82-2.63h0Zm-63.81.85c1.01,0,1.82.82,1.82,1.83s-.81,1.83-1.82,1.83c-1.01,0-1.82-.82-1.82-1.83s.82-1.83,1.82-1.83Zm15.34.41c1.01,0,1.82.82,1.82,1.83s-.82,1.83-1.82,1.83-1.82-.82-1.82-1.83.81-1.83,1.82-1.83Zm-35.58,1.01l7.8,2.27-1.33,6.19-8.56-2.47,2.08-5.98Zm-5.16.04c1.01,0,1.82.82,1.82,1.83s-.82,1.83-1.82,1.83-1.82-.82-1.82-1.83.81-1.83,1.82-1.83Zm60.6,1.32l1.86,6.95-8.63,1.85-1.04-6.83,7.8-1.97Zm4.95,1.01c1.01,0,1.82.82,1.82,1.83s-.82,1.83-1.82,1.83-1.82-.82-1.82-1.83.81-1.83,1.82-1.83Zm-112.7,1.08h0l-.02,4.87c-1.43-1.18-3.05-2.44-4.7-3.72,1.69.09,3.26-.38,4.72-1.15h0Zm-17.76.12c.39,0,1.31.32,2.41.32,3.51-.01,10.07,1.09,12.01,2.69.65.53,1.62,1,2.14,1.86,0,.41-.58.42-1.43-.11-1.63-1.01-4.33-1.92-7.95-2.42-.65-.09-.74-.06-.74.25,0,.38.6.61,2.51.92,2.47.41,2.99.65,3.54.8,1.47.4.53.94-.98,1.09-6.16.58-10.77-2.08-11.7-5.12-.07-.2,0-.27.18-.27Zm85.79.11l7.75,1.01-.35,6.52-8.48-.98,1.09-6.55Zm-66.75.23c.28.02.55.13.86.34,1.45.94.42,4.31-.32,5.26-.48.54-1.59.25-1.59-.5.17-.68-.07-3.9.08-4.89.38-.15.68-.22.96-.2h0Zm90.65.62l.4,6.72-8.45.39.07-6.6,7.99-.51Zm-28.52.45c1.01,0,1.82.82,1.82,1.83s-.81,1.83-1.82,1.83-1.83-.82-1.83-1.83.82-1.83,1.83-1.83Zm-47.1.09c.31,4.93-7.22,8.27-10.04,6.76-1.25-.67-.73-1.08,1.74-1.59,3.2-.85,5.31-1.68,5.32-2.28,0-.37-.49-.32-1.79.16-2.01.68-4.1.97-6.02,1.84-1.43.65-1.99.88-2.32.49-.68-.82,2.51-2.91,5.82-3.46,2.48-.42,4.98-1.74,7.29-1.92Zm80.28.62c1.01,0,1.82.82,1.82,1.83s-.81,1.83-1.82,1.83-1.82-.82-1.82-1.83.81-1.83,1.82-1.83Zm-16.94,1.34c1.01,0,1.83.82,1.83,1.83s-.82,1.83-1.83,1.83-1.82-.82-1.82-1.83.81-1.83,1.82-1.83Zm40.6,3.11c12.19,11.67,25.56,25.1,36.58,36.14-.02,5.78-.05,17.34-.05,17.34l-42.1,40.2c-7.62-4.68-14.08-10.52-20.02-20.9.67-.58,1.52-1.09,2.02-1.72l-2.45,1.46c-7.77-12.48-11.06-37.34,2.13-57.27l-13.33.49,2.17-4.56,14.51-.8,5.87-6.32s1.86-.35,3.4-.7c1.53-.35,4.65-1.25,6.93-1.99,2.29-.74,4.23-1.35,4.32-1.35h0Zm-98.42,3.23s12.53,6.84,19.49,20.55c-22.49,19.44-30.96,42.07-32.88,65.63-12.24-11.5-18.43-17.87-29.49-29.04l.4-16.67,42.48-40.47Zm47.3,2.17c-3.24,6.96-6.03,14.59-8.53,22.77l-3.49-1.04s2.26-.95,3.26-1.55l-1.81-2.93,3.43-1.42-2.03-2.48,3.48-2.03-1.74-2.19,3.19-1.6-1.98-2.29,3.35-1.87-1.74-2.19,4.61-1.18Zm1.07.02s.45.09.98.19c.13-.05-.63,1.83-.55,1.89,1.22.25,1.29.18,1.65.29l.93-1.93,1.52.29c-3.07,6.97-6.36,14.59-8.25,22.85l-1.79-.38s.52-1.74.53-1.97c-.21-.04-1.22-.47-1.53-.6-.11.27-.75,2.29-.75,2.29l-1.42-.04c2.33-9.01,6.38-19.01,8.68-22.89h0Zm5.84.27l3.18,2.65-3.61,1.41,1.87,2.5-3.83,1.39,2.2,2.6-3.79,1.41,2.26,3.14-3.94,1.33,2.49,2.76-3.56,1.67,2.13,2.12s-2.22.73-2.35.77c-.36.09-1.85-.28-1.85-.28,2.25-8.04,5.03-16.2,8.79-23.48Zm-77.43,1.34c-.88.57-.38,1.82-1.48,2.89-.18.19-.19.63-.26,1.01-.05.29-.93,3.77-.93,3.77,0,0,.22-.27.57-1.38.3-.95.56-2.75.72-3.05.81-.25.94-2.91,1.76-2.55.48.21.38.65.12,1.67-.59,2.04-.82,2.9.19,1.51,1.5-1.82,1.65-3.46-.04-3.81-.18-.03-.55-.06-.65-.07h0Zm22.74.76l-39.33,37.11-.12,13.85,13.69,13.94,9.72,9.46c3.53-21.19,11.62-41.41,31.54-58.91-3.05-4.93-8.28-11.14-15.49-15.46h0Zm106.03.38c-23.11,10.91-28.43,33.3-21.27,53.56,11.01-14.23,19.66-27.61,21.27-53.56Zm-82.26,1.13l10.49,3.39-3.95,13.54-9.45-2.88-.97-2.4,3.87-11.66Zm81.1.35c-1,18.11-7.8,35.8-19.63,49.68-5.98-14.82-2.38-38.52,19.63-49.68Zm-56.53.1l-.66,1.68,1.45.41.62-1.71-1.41-.39Zm-1.45,3.98l-.6,1.71,1.49.51.56-1.74-1.45-.48Zm61.92.31c-3.24,25.12-16.74,47.98-31.01,59.63,4.55,7.41,9.89,12.18,15.33,16.16l40.2-38.69-.15-12.91-24.36-24.19Zm-107.32.78c1.38-.09,1.78,3.35,1.09,5.89-.25.92-.33,1.39-.33,1.39,0,0,.46-.43,1.68-1.1,7.9-3.96,5.35,2.06,1.63,4.29-.83.44-1.69.97-1.69.97,0,0,.79.18,1.64.34,4.79,1,3.77,3.82-1.23,3.38-.74-.06-1.61-.21-1.61-.17,0,.04.3,1.1.65,1.98,1.69,4.27-1.46,4.6-3.53,1.89-.29-.38-.94-1.42-.94-1.42,0,0-.21.79-.33,1.55-1.79,6.68-6.19,6.51-4.55-.27.21-.7.46-1.96.46-1.96,0,0-.99.6-2.07,1.09-5.71,2.56-6.64-.07-1.45-3.93,1.48-1.1,1.98-1.53,1.98-1.53-.92-.07-1.77-.21-2.52-.4-4.14-1.04-5.24-3.53,1.39-3.41.98.02,1.97.09,1.97.09,0,0-.33-1.43-.67-2.51-1.6-4.98,1.63-5.58,4.34-1.11.58.95.74.95.74.95.37-2.59,1.6-5.84,3.32-6h0Zm72.19.93c-2.76,4.9-5.17,9.77-6.32,14.85l-10.74-.19c.74-4.51,2.64-9.19,4.91-14.15,4.37-.12,8.31-.31,12.15-.52Zm-28.36,2.17l-.62,1.8,1.56.48.57-1.76-1.51-.53Zm-80.32,3.38c-1.15,3-1.54,6.35-2.18,9.03-.27,1.55,0,2.2.93,2.55,1.32.49,3.22-.18,4.29-1.71.6-.86,1.04-2.65,1.13-5.8l.1-2.81c-1.63-.3-2.75-.74-4.28-1.27h0Zm78.87.39l-.51,1.66,1.5.56.57-1.67-1.56-.54Zm69.55.62h0c1.83.05,2.17.21,3.82,1.19l3.19,3.3c-.84.81-1.36,1.94-1.36,3.19,0,2.44,1.97,4.42,4.4,4.42,1.2,0,3.09-1.28,3.09-1.28l5.06,5.27c-3.18,1.23-5.53-1.17-7.25-3.34-.17,2.16-1.75,9.06-4.99,9.63-2.48-.42.05-10.31.07-10.08-1.7,1.81-10.01,3.74-9.43,1.72,1.16-4.02,7.37-5.56,8.19-6.26-3.3-2-7.49-7.53-4.81-7.77h0Zm-148.02.13c1.05.07,1.77.2,2.49.5.33.09.35.37.39.63.01,1.19.3,4.67-.79,4.7-1.22-.03-2.36.24-3.16.85-.64.49-.86.14-.68-1.13.17-1.23.77-3.8,1.03-4.84.04-.43.38-.73.72-.71Zm32.82.05c-2.43,0-4.4,1.98-4.4,4.42s1.97,4.42,4.4,4.42,4.4-1.98,4.4-4.42-1.97-4.42-4.4-4.42Zm0,1.55c1.58,0,2.87,1.29,2.87,2.88s-1.29,2.87-2.87,2.87-2.86-1.28-2.86-2.87,1.28-2.88,2.86-2.88Zm22.72.05c10.09,17.5,8.92,41.53-2.97,59l12.79-.9-1.68,3.29-13.64,1.34c-2.08,1.92-3.98,4.11-6.03,6.15l-.02.73c-4.67,1.09-9.35,2.34-14.12,4.07-2.52-2.48-7.25-7.44-7.22-7.57l.3-1.6c32.43-16.62,22.94-49.97,20.66-52.71,3.86-4.4,8.11-8.54,11.92-11.8h0Zm-22.77,2.06c-.42,0-.75.34-.75.75,0,.42.33.75.75.75h0c.42,0,.75-.34.75-.75h0c0-.42-.34-.75-.75-.75Zm112.77,1.12c1.31,0,2.38,1.07,2.38,2.39s-1.06,2.39-2.38,2.39-2.38-1.07-2.38-2.39,1.07-2.39,2.38-2.39Zm10.57.64l1.5,1.55c-.17.14-.27.35-.27.58,0,.42.34.75.75.75.21,0,.42-.09.56-.25l1.44,1.49c-.52.51-1.23.84-2.01.84-1.58,0-2.86-1.28-2.86-2.87,0-.82.34-1.56.89-2.09Zm-136.88.51c1.31,0,2.37,1.07,2.37,2.39s-1.06,2.39-2.37,2.39-2.38-1.07-2.38-2.39,1.07-2.39,2.38-2.39Zm-18.34.92c.23-.01.45.01.64.08,1.11.37.85,1.42-.58,2.34-.93.6-1.78.73-2.6.28-1.36-.73.94-2.61,2.55-2.7Zm19.02,5.93l-14.33,13.93c.9-2.31.94-4.62,1-6.93,4.31.45,6.12-1.75,5.49-6.28,2.79.17,5.67-.13,7.84-.72Zm22.96,1.59c6.64,19.04.87,39.18-19.91,50.85.86-18.24,8.47-35.68,19.91-50.85Zm18.93,1.67c11.41,3,24.39,4.4,37.87,4.41.1,5.15.35,10.6,1.4,15.86-11.48-3.02-24.31-4.42-38.32-4.17.58-5.45-.35-11.63-.95-16.1Zm84.57,2.82l-12.15,14.27.51-7.79c4.09.52,5.55-1.65,4.94-5.93,2.23.28,4.46-.12,6.69-.55Zm-118.02.79l-.96,5.7c-2.42.07-4.8.93-4.77,6.37l-7.24-.09,12.97-11.98Zm133.66,1.05c1.31,0,2.38,1.07,2.38,2.39s-1.06,2.39-2.38,2.39-2.38-1.07-2.38-2.39,1.07-2.39,2.38-2.39Zm-144.68.73c1.31,0,2.38,1.07,2.38,2.39s-1.07,2.39-2.38,2.39-2.38-1.07-2.38-2.39,1.06-2.39,2.38-2.39Zm139.38,2.45l-1.27,8.63c-3.31-.29-6.07.22-5.22,6.07-2.8-.28-6.69.39-9.29.62l15.78-15.31Zm-11.86,1.56c1.31,0,2.38,1.07,2.38,2.39s-1.07,2.39-2.38,2.39-2.38-1.07-2.38-2.39,1.07-2.39,2.38-2.39Zm-144.95,1.85c1.31,0,2.38,1.07,2.38,2.39s-1.07,2.39-2.38,2.39-2.37-1.07-2.37-2.39,1.06-2.39,2.37-2.39Zm7.89,2.83c3.04.69,1.64,7.8.95,9.73-.05.05,8.47-4.49,8.98-2.48.33,4.02-7.06,6.82-7.06,6.82,0,0,4.98,4.35,5.12,7.08.01,1.77-2.08,1.44-4.8-.8-1.16-1.15-2.06-2.01-2.86-2.81.93-.81,1.52-2.01,1.52-3.35,0-2.44-1.97-4.42-4.4-4.42-1.34,0-2.55.6-3.35,1.56-.63-.61-1.35-1.32-2.3-2.23-1.57-1.48-2.67-2.65-2.52-3.18,2.07-1.47,6.2,2.47,6.57,2.83-.31-.77,1.97-8.34,4.15-8.75h0Zm125.03,6.08c2.24,0,1.16,4.61.47,6.85,0,0,1.22-.96,1.76-1.21,3.93-1.85,5.4.24,3.42,2.67-.95,1.25-2.25,1.53-3.31,2.58,2.68.18,4.86.63,6.33,2.97-1.13,2.07-4.81,1.51-7.7.8,1.69,2.01,2.45,7.3.36,7.37-2.11-.57-3.14-2.92-3.96-4.61-.68,1.89-1.33,3.9-2.84,5.31-1.5,1.39-2.26.24-2.19-2.12.03-.94.71-3.73.71-3.73-8.86,3-8.2-1.06-1.28-4.62-4.26-2.04-6.85-3.88.4-4.29-.19-.17-1.45-4.07-.1-4.98,1.26-.85,3.94,2.06,4.07,2.21.8-2.77,1.7-5.17,3.87-5.18h0Zm-127.56,5.2c1.58,0,2.87,1.29,2.87,2.88,0,.91-.43,1.72-1.09,2.25-.71-.71-1.03-1.03-1.54-1.55.19-.14.3-.37.3-.6,0-.42-.34-.75-.75-.75-.24,0-.46.11-.6.3-.42-.42-.99-1-1.43-1.43.52-.67,1.33-1.09,2.25-1.09Zm158.51.18c-1.54.14-2.5,1.52-3.22,2.72-.14.24-.41.33-.51.65-.64,2.07-1.2,4.54-1.54,7.63.98.4,3.18,1.09,4.16.72.27-.12.19-.83.28-1.06.58-1.57,4.28-10.91.83-10.65Zm-.45.48c.4-.04.76.15.99.71.39.94-.86,1.97-2.47,1.96-.96,0-1.27.13-.84-.7.35-.7,1.43-1.88,2.32-1.97Zm-20.59.05c1.31,0,2.38,1.07,2.38,2.39s-1.07,2.39-2.38,2.39-2.38-1.07-2.38-2.39,1.06-2.39,2.38-2.39Zm-125.47.17c1.31,0,2.38,1.07,2.38,2.39s-1.07,2.39-2.38,2.39-2.38-1.07-2.38-2.39,1.06-2.39,2.38-2.39Zm112.53.97c-2.43,0-4.4,1.98-4.4,4.42s1.97,4.42,4.4,4.42,4.4-1.98,4.4-4.42-1.97-4.42-4.4-4.42Zm-58.84.59c-1.16,5.1-2.94,9.97-5.19,14.79-4.24.26-8.83.46-11.86.89,5.04-8.87,5.16-10.95,7.03-15.65l10.02-.03Zm7.29.72c1.19.14,2.5.32,3.67.55-2.17,7.66-5.03,15.53-8.73,23.1l-2.24-.35-1.06-1.32,3.56-1.43-2.77-2.85,4.59-1.39-2.83-2.8,4.54-1.14-2.43-2.97,4.07-1.6-2.59-3.35,4.34-1.2-2.13-3.26Zm51.55.23c1.58,0,2.86,1.29,2.86,2.88s-1.28,2.87-2.86,2.87-2.86-1.28-2.86-2.87,1.28-2.88,2.86-2.88Zm-47.06.44l1.52.25-.47,1.63,1.73.37.56-1.76s1.38.13,1.53.24c-1.81,7.4-8.19,22.88-8.27,22.79l-1.64-.25.43-1.56-1.53-.22s-.53,1.11-.74,1.68l-1.63-.14c3.95-9.07,6.65-16.02,8.52-23.04Zm80.37.59c1.21-.01,1.14.62.26,2.92-.83,2.16-1.14,3.02-1.54,3.3-.96.68-3.02.11-2.85-.88.54-3.23.74-4.6,1.56-5.04.86-.17,1.7-.3,2.56-.3h0Zm-74.28.27l3.95.77-3.3,1.97,2.1,2.46-4.06,1.74,2.46,2.56-3.92,1.61,2.38,2.82-4.06,1.72,2.77,2.41-4.57,1.45,1.73,2.67-1.72.97-2.12-.33c3.52-8.25,5.78-15.03,8.36-22.8Zm40.99.82c-.42,0-.75.34-.75.75h0c0,.42.34.75.75.75.42,0,.75-.34.75-.75,0-.42-.33-.75-.75-.75h0Zm-31.29,1.15l7.73,2.11,1.54,2.77-3.63,12.31-10.3-3.04,4.65-14.15Zm-15.37,1.19l-.74,2.02,1.7.35.66-2.08-1.62-.29Zm-1.5,4.64l-.74,2.02,1.6.32.76-2.04-1.62-.29Zm-1.51,4.08l-.75,2.01,1.56.32.74-2.02-1.54-.32Zm72.64,3.7s-.79.57-1,.83c.17.46.67,1.17.6,1.64-.07.35-.45.63-1.04,1.26-1.46,1.7-1.97,1.52-1.12-.3.28-.57.4-1.1.4-1.1-.34.47-.59,1.03-.82,1.48-.48.93-.93,1.81-.93,1.81.93.32,1.55,1.01,2.14,1.46,0,0,.3-.82.51-1.61.29-1.1.87-1.55,1.58-1.93.45-.24.88-.67.88-.67-.78-.8-.87-1.95-1.21-2.86Zm-74.25.5l-.8,2.14,1.55.38.86-2.19-1.61-.34Zm-87.48,5.38c-.14,8.53.14,14.14-.16,23.33l22.97,29.91-3.58,1.21s-.04.42-.23.47c-4.91,1.36-12.87,2.71-12.87,2.71,5.92,13.59,9.76,30.58,7.11,47.55l59.46-.16-72.7-105.02Zm75.93,1.75c17.29.14,34.43,4.51,49.81,12.69l-2.05,2.06c-30.24-16.44-71.88-16.38-102.27,3.53l-2.48-1.82c17.62-11.34,37.4-16.62,56.99-16.46h0Zm-74.82,1.24l69.98,101.01-8.22.12-61.7-81.1-.06-20.03Zm150.19,1.83c-7.38,1.36-10.99,4.4-10.41,9.39.13,1.99,2.41-.11,2.41-.12,0,0,4-3.27,11.8-4.8l-.26,4.58c-9.63-.04-9.1,7.65-6.33,11.64-.97,1.85-3.09,8.3,3.89,10.75,3.48.7,7.17-2.15,7.06-2.29,6.43,3.05,13.88-2.07,8.07-10.93,2.19-3.87.65-6.74-1.44-9.21,2.9.4,5.74,1.29,9.77,1.3.01-4.17-3.43-6.04-10.6-6.6-5.08.72-13.96-3.73-13.96-3.7h0Zm-77.47.47h1.04l-.34,7.13-7.82.36-.51-7.1c2.69-.19,5.19-.38,7.62-.39h0Zm9.36.19l8.38,1.02-1.27,6.66-7.72-.83.61-6.85Zm67.95.08c.69.08.47.89-.48,1.07-1.51.3-5.37,2.56-5.38,3.14,0,.38.19.32,1.6-.44,2.01-1.01,3.96-1.69,6.05-2.56,1.3-.59,1.95-.18,1.48.93-.31.74-.43.79-3.45,1.75-3.23.92-4.73,2.17-7.5,3.68-1.78.93-2.14.93-2.14-.32.21-5.16,6.12-6.82,9.8-7.27Zm-72.51.86c1.05,0,1.9.85,1.9,1.91s-.85,1.91-1.9,1.91-1.9-.85-1.9-1.91.85-1.91,1.9-1.91Zm-20.74.51l.62,6.47-7.68,1.98-1.76-6.68c2.94-.72,5.88-1.23,8.82-1.77Zm98.97.49c2.11.32,1.94,5.17.86,6.01-1.66,1.2-2.68-1.31-1.94-4.64.21-1,.59-1.35,1.08-1.37Zm-94.62.26c1.05,0,1.9.85,1.9,1.91s-.85,1.91-1.9,1.91-1.9-.85-1.9-1.91.85-1.91,1.9-1.91Zm37.53.55l8.68,2.38-2.12,6.75-8.15-2.31,1.59-6.83Zm-4.73.13c1.05,0,1.9.85,1.9,1.91s-.85,1.91-1.9,1.91-1.9-.85-1.9-1.91.85-1.91,1.9-1.91Zm71.05.56c3.74.04,8.68,1.93,8.69,4.83-.08.83-7.84-.27-11.42-1.72-1.27-.51-2.82-2.08-2.82-2.73,0-.39.76-.36,1.07.02.5.62,2.29,1.26,6.4,2.3,3.15.8,3.47.83,3.47.35-.5-.92-5.12-1.49-7.41-2.25-1.88-.62,1.26-.76,2.03-.8h0Zm-6.61,1.51c.94.44,1.28,1.33,1.8,1.8-.65.31-.94.62-1.98.7.02-.7-.17-1.53.18-2.49Zm-113.75.52c1.05,0,1.9.85,1.9,1.91s-.85,1.91-1.9,1.91-1.9-.85-1.9-1.91.85-1.91,1.9-1.91Zm-5.11.54l2.05,6.6-7.34,3.21-2.6-6.54c2.54-1.34,5.31-2.31,7.89-3.27Zm33.95,1.08s5.85.01,7.87.03l-.47,7.45-7.3.06-.1-7.54Zm-7.81.41l.41,7.44-7.03.95-1.39-7.48,8.01-.91Zm44.43.06c1.05,0,1.9.85,1.9,1.91s-.85,1.91-1.9,1.91-1.9-.85-1.9-1.91.85-1.91,1.9-1.91Zm50.85.17c4.28.02,8.36,4.96,4.13,10.14,6.93,5.36-.61,14.37-6.74,9.12-8.76,8.65-13.66-3.1-10.04-6.21-5.36-8.84,1.23-14.43,8.01-10.53,1.25-1.78,2.95-2.53,4.63-2.52h0Zm-71.62.21l7.71,1.72-1.55,7.36-7.53-1.54,1.37-7.55Zm25.51.18l7.05,3.52-5.46,5.28-4.06-2.03,2.48-6.77Zm-45.19.83c1.05,0,1.9.85,1.9,1.91s-.85,1.91-1.9,1.91-1.9-.85-1.9-1.91.85-1.91,1.9-1.91Zm15.23.24c1.05,0,1.9.85,1.9,1.91,0,1.05-.85,1.91-1.9,1.91-2.79-.44-2.04-3.75,0-3.81Zm-35.11,1.07l1.72,7.36-7.14,2.42-2.55-7.17,7.98-2.61Zm4.9.52c1.05,0,1.9.85,1.9,1.91s-.85,1.91-1.9,1.91-1.9-.85-1.9-1.91.85-1.91,1.9-1.91Zm108.35.65c-.19,0-.43.1-.62.35-1.02,1.3-2.18,2.61-3.27,3.86-1.78-.74-3.5-.44-4.65.35-1.55-1.23-2.78-2.41-4.52-3.43-.27-.16-.57.04-.41.27,1.09,1.6,2.74,2.5,4.09,4.05-.53,1.7-.52,3.04.48,4.47-.74,1.26-2.26,2.83-3.2,4.59-.35.66.41.57.46.53,1.51-1.15,2.24-2.67,3.9-4.04,1.77.48,2.76.92,4.53-.55,1.68.78,2.65,1.96,4.53,3.06.62.36.81-.42.53-.7-1.57-1.59-2.63-2.23-4.27-3.58.38-.62.64-2.82-.64-4.32,1.18-1.47,1.72-2.05,3.29-4.19.3-.4.09-.7-.23-.71h0Zm-57.72.64l6.96,2.94-2.49,7.31-6.72-2.76,2.25-7.48Zm-76.54.49c1.05,0,1.9.85,1.9,1.91s-.85,1.91-1.9,1.91-1.9-.85-1.9-1.91.85-1.91,1.9-1.91Zm71.16.2c1.05,0,1.9.85,1.9,1.91s-.85,1.91-1.9,1.91-1.9-.85-1.9-1.91.85-1.91,1.9-1.91Zm-76.02.52l2.28,5.67-5.18-3.88,2.9-1.79Zm57.09,1.46l6.93.82-1.1,6.64-5.98-.54.14-6.91Zm-7.56.02l-.07,6.82-6.58.28-.56-6.81,7.21-.29Zm-33.87,1.24c1.05,0,1.9.85,1.9,1.91s-.85,1.91-1.9,1.91-1.9-.85-1.9-1.91c0-1.05.85-1.91,1.9-1.91Zm-5.25.14l2.68,6.85-4.15,2.01-5.57-5.29,7.04-3.58Zm24.78.09l1.07,6.52-6.86,1.7-1.67-6.64,7.46-1.59Zm98.11.07c1.49,0,2.7,1.22,2.7,2.72s-1.21,2.72-2.7,2.72-2.71-1.22-2.71-2.72,1.21-2.72,2.71-2.72Zm-80.32.21c1.05,0,1.9.85,1.9,1.91s-.85,1.91-1.9,1.91-1.9-.85-1.9-1.91.85-1.91,1.9-1.91Zm18.7.7l7.32,2.38-2.46,5.89-6.32-1.72,1.46-6.55Zm-32.44.25c1.05,0,1.9.85,1.9,1.91s-.85,1.91-1.9,1.91-1.9-.85-1.9-1.91.85-1.91,1.9-1.91Zm94.05.13c-.77,0-1.4.63-1.4,1.4s.63,1.4,1.4,1.4c.77,0,1.4-.63,1.4-1.4s-.63-1.4-1.4-1.4Zm-66.21.57c1.05,0,1.9.85,1.9,1.91s-.85,1.91-1.9,1.91-1.9-.85-1.9-1.91.85-1.91,1.9-1.91Zm-46.48,2.23l2.52,5.83-6.89,2.99-3-5.94,7.36-2.88Zm4.88.35c1.05,0,1.9.85,1.9,1.91s-.85,1.91-1.9,1.91-1.9-.85-1.9-1.91.85-1.91,1.9-1.91Zm25.37,1.76c11.3-.02,21.51,2.35,29.7,5.76l-2.44,2.3c-26.57-9.17-43.95-5.04-61.77,2.81l-1.8-2.23c12.6-6.19,25-8.61,36.3-8.64Zm30.06.07c1.05,0,1.9.85,1.9,1.91s-.85,1.91-1.9,1.91-1.9-.85-1.9-1.91.85-1.91,1.9-1.91Zm-69.24,4.17h0c1.52.1,1.67,2.96.96,2.13l-1.7-1.98c.28-.12.52-.17.74-.15h0Zm71.03,1.2c-.06,2.17-2.1,16.7-8.99,26.68-.42-5.05-1.64-11.09-2.99-15.12,0,0,7.42-6.89,11.98-11.56Zm-88.21,22.02l35.88,48.62-3.77-.03c-1.51-9.13-6.77-13.85-12.87-16.35-.49-7.69-5.24-14.64-13.02-17.08-.51-5.14-2.81-10.19-8.6-14.45l2.39-.7Zm-3.56,1.12c6.87,5.28,7.21,6.57,9.17,14.72,9.82,3.33,12.29,10.67,12.92,16.9,6.47,2.55,11.77,7.99,12.69,15.83h-1.97c-1.41-8.88-6.98-12.43-12.87-14.09.46-12.56-9.26-16.47-12.65-17.06.2-9.04-5.62-12.78-9.38-15.81.73-.19,1.44-.32,2.09-.48h0Zm-5.74,1.29c2.94.96,5.16,5.07,4.94,6.96,3.87.49,7.94,4.25,7.04,8.17-.29.17-.74.2-1.19-.25,1.04-7.6-10.25-3.84-5.74,1.66l-2.02,1.32c-1.62-7.6-3.62-11.91-5.79-17.4.79-.21,2.75-.46,2.75-.46h0Zm9.35,15.93c1,0,1.81.82,1.81,1.82s-.81,1.82-1.81,1.82-1.81-.82-1.81-1.82.81-1.82,1.81-1.82Zm4.65.88c2.62-.18,5.17,4.7,5.04,7.32,4.31,1.23,5.71,5.61,5.56,7.2l-.95-.02c-1.52-6.95-9.39-3.17-6.1,2.37-4.21,1.56-3.88,5.47-2.64,7.01,1.71,2.13,6.07,2.07,7.41-1.21,4.1,5.32,9.75-.65,4.76-5.61,4.08,1.51,4.74,7.01,4.12,8.72,1.89.65,4.08,3.67,3.79,3.65h-30.59s1.48-12.39-.09-21.75c2.04.49,3.4.98,5.74-1.78,3.79,3.15,6.51.77,6.32-1.95-.29-1.9-1.27-2.85-2.89-3.86.17-.06.35-.09.53-.11h0Zm8.45,16.06c1.03,0,1.87.84,1.87,1.88s-.84,1.88-1.87,1.88-1.87-.84-1.87-1.88.84-1.88,1.87-1.88Z"/>
    <path id="uuid-8a3e3981-0eac-4bbe-ad28-39ce54a981d2" data-name="path7198-0" class="uuid-4693e06c-4c40-4beb-bff3-7499b1db1220" d="m19.65,78.53c-2.42-4.01-4.97-7.9-8.15-11.22,3.18-3.33,5.73-7.22,8.15-11.22,2.42,4.01,4.97,7.9,8.15,11.22-3.18,3.33-5.73,7.22-8.15,11.22Z"/>
    <path id="uuid-395963a6-3e7a-4fa4-aaa9-fb756f6e5813" data-name="path7202-9" class="uuid-4693e06c-4c40-4beb-bff3-7499b1db1220" d="m230.14,293.89c-2.42-4.01-4.97-7.9-8.15-11.22,3.18-3.33,5.73-7.22,8.15-11.22,2.42,4.01,4.97,7.9,8.15,11.22-3.18,3.33-5.73,7.22-8.15,11.22Z"/>
    <path id="uuid-5768d923-fb70-4ff5-af0b-a76817674873" data-name="path7204-2" class="uuid-4693e06c-4c40-4beb-bff3-7499b1db1220" d="m67.18,90.56c-5.81-9.61-11.92-18.96-19.56-26.94,7.64-7.98,13.75-17.33,19.56-26.94,5.81,9.61,11.92,18.96,19.56,26.94-7.64,7.98-13.75,17.33-19.56,26.94Z"/>
    <path id="uuid-1baed603-ca13-4272-a229-b9a22af37060" data-name="path7222-2" class="uuid-4693e06c-4c40-4beb-bff3-7499b1db1220" d="m182.61,313.3c-5.81-9.61-11.92-18.96-19.56-26.94,7.64-7.98,13.75-17.33,19.56-26.94,5.81,9.61,11.92,18.96,19.56,26.94-7.64,7.98-13.75,17.33-19.56,26.94Z"/>
    <path id="uuid-359d2043-9668-4f92-9c36-9c2e003125d9" data-name="path37-2-1-6-5" class="uuid-4693e06c-4c40-4beb-bff3-7499b1db1220" d="m11.51,40.3h-3.09v-4.22h3.09s.02-2.27.11-6.29c.19-8.55.4-9.88,2.87-12.23,4.88-4.65,13.04-.86,12.95,6.13-.14,9.87-.04,19.28-.33,20.61-.51,2.35-.56,2.48-.35,2.91.43.86,4.12,1.23,4.12.99v4.16c-2.82.22-3.99-.05-6.24-1.66-1.41,1.36-5.69,2.73-9.1,1.12-2.59-1.22-4.56-4.38-4.03-11.53Zm10.44,7.37c-1.53-2.22-4.11-5.24-6.53-6.32-.15,2.55.07,4.69.96,5.84,1.42,1.83,3.72,2.25,5.57.48Zm1.27-24.38c-1.14-3.22-4.05-4.32-6.19-2.3-1.33,1.26-1.55,2.58-1.58,9.75-.02,4.43-.02,6.29-.02,6.29,4.15,1.35,8.03,6.2,8,6.14l.1-13.39c.08-2.17-.03-4.35-.32-6.49h0Z"/>
    <path id="uuid-8292ca73-8679-4f04-a63d-82460187ac45" data-name="path37-3-27-1-5" class="uuid-4693e06c-4c40-4beb-bff3-7499b1db1220" d="m238.28,309.67h3.09v4.22h-3.09s-.02,2.27-.11,6.29c-.19,8.55-.4,9.88-2.87,12.23-4.88,4.65-13.04.86-12.95-6.13.14-9.87.04-19.28.33-20.61.51-2.35.56-2.48.35-2.91-.43-.86-4.12-1.23-4.12-.99v-4.16c2.82-.22,3.99.05,6.24,1.66,1.41-1.36,5.69-2.73,9.1-1.12,2.59,1.22,4.56,4.38,4.03,11.53h0Zm-10.44-7.37c1.53,2.22,4.11,5.24,6.53,6.32.15-2.55-.07-4.69-.96-5.84-1.42-1.83-3.72-2.25-5.57-.48Zm-1.27,24.38c1.14,3.22,4.05,4.32,6.19,2.3,1.33-1.26,1.55-2.58,1.58-9.75.02-4.43.02-6.29.02-6.29-4.15-1.35-8.03-6.2-8-6.14l-.1,13.39c-.08,2.17.03,4.35.32,6.49h0Z"/>
  </g>
</svg>