<?xml version="1.0" encoding="UTF-8"?>
<svg id="uuid-32b6f8ae-3c7f-4b32-a008-52e2c4a6a519" data-name="Cards" xmlns="http://www.w3.org/2000/svg" viewBox="0 0 250 350">
  <defs>
    <style>
      .uuid-4cdeda7c-7326-4576-9a50-3a9ee89705df, .uuid-9c7c4621-ebcf-4f10-aaf7-4439b0744991 {
        stroke-width: 0px;
      }

      .uuid-9c7c4621-ebcf-4f10-aaf7-4439b0744991 {
        fill: #fff;
      }
    </style>
  </defs>
  <g id="uuid-d1d2e14c-5b3c-4769-9e3e-112d19a570c2" data-name="CLUB-6">
    <path id="uuid-405448c2-4bd4-42ab-adf8-99b09d7b842d" data-name="rect6355-6-85-3-2-3-6" class="uuid-9c7c4621-ebcf-4f10-aaf7-4439b0744991" d="m11.92.02h226.07c6.6,0,11.96,5.36,11.96,11.97v326.05c0,6.61-5.35,11.97-11.96,11.97H11.92c-6.6,0-11.96-5.36-11.96-11.97V11.99C-.04,5.38,5.31.02,11.92.02Z"/>
    <path id="uuid-32e24316-ab3c-4844-a21f-62e61a2c35df" data-name="path147-0-8-1-6-13-2-5-7-1" class="uuid-4cdeda7c-7326-4576-9a50-3a9ee89705df" d="m182.92,37.18c-11,.24-15.93,12.63-7.78,22.25,1.18,1.4,1.3,2.21-.86.86-5.48-3.67-16-1.26-16.53,9.96-.66,13.82,18.63,17.81,22.25,3.11.19-1.55,1.45-1.52,1.15.69-.33,5.98-2.19,11.56-4.76,17.01h13.07c-2.56-5.45-4.43-11.03-4.76-17.01-.3-2.2.96-2.24,1.15-.69,3.62,14.7,22.92,10.72,22.25-3.11-.54-11.22-11.05-13.63-16.53-9.96-2.16,1.35-2.04.54-.86-.86,8.14-9.62,3.21-22.02-7.78-22.25,0,0,0,0-.01,0h0Z"/>
    <path id="uuid-3a35776c-a291-4d32-82c8-5faec769e7f1" data-name="path147-0-8-1-6-75-2-83-8-8-7" class="uuid-4cdeda7c-7326-4576-9a50-3a9ee89705df" d="m66.98,37.18c-11,.24-15.93,12.63-7.78,22.25,1.18,1.4,1.3,2.21-.86.86-5.48-3.67-16-1.26-16.53,9.96-.67,13.82,18.63,17.81,22.25,3.11.19-1.55,1.45-1.52,1.15.69-.33,5.98-2.19,11.56-4.76,17.01h13.07c-2.56-5.45-4.43-11.03-4.76-17.01-.3-2.2.96-2.24,1.15-.69,3.62,14.7,22.92,10.72,22.25-3.11-.54-11.22-11.05-13.63-16.53-9.96-2.16,1.35-2.04.54-.86-.86,8.14-9.62,3.21-22.02-7.78-22.25,0,0,0,0-.01,0h0Z"/>
    <path id="uuid-f70a3a36-7827-4db8-a4ed-b723d0e0623f" data-name="path147-0-8-1-6-7-5-5-7-8-7-8" class="uuid-4cdeda7c-7326-4576-9a50-3a9ee89705df" d="m182.92,313.78c-11-.24-15.93-12.63-7.78-22.25,1.18-1.4,1.3-2.21-.86-.86-5.48,3.67-16,1.26-16.53-9.96-.66-13.82,18.63-17.81,22.25-3.11.19,1.55,1.45,1.52,1.15-.69-.33-5.98-2.19-11.56-4.76-17.01h13.07c-2.56,5.45-4.43,11.03-4.76,17.01-.3,2.2.96,2.24,1.15.69,3.62-14.7,22.92-10.72,22.25,3.11-.54,11.22-11.05,13.63-16.53,9.96-2.16-1.35-2.04-.54-.86.86,8.14,9.62,3.21,22.02-7.78,22.25,0,0,0,0-.01,0h0Z"/>
    <path id="uuid-32fd499f-eacd-48f7-acb3-878d715247fe" data-name="path147-0-8-1-6-75-6-1-2-0-6-8" class="uuid-4cdeda7c-7326-4576-9a50-3a9ee89705df" d="m66.98,313.78c-11-.24-15.93-12.63-7.78-22.25,1.18-1.4,1.3-2.21-.86-.86-5.48,3.67-16,1.26-16.53-9.96-.67-13.82,18.63-17.81,22.25-3.11.19,1.55,1.45,1.52,1.15-.69-.33-5.98-2.19-11.56-4.76-17.01h13.07c-2.56,5.45-4.43,11.03-4.76,17.01-.3,2.2.96,2.24,1.15.69,3.62-14.7,22.92-10.72,22.25,3.11-.54,11.22-11.05,13.63-16.53,9.96-2.16-1.35-2.04-.54-.86.86,8.14,9.62,3.21,22.02-7.78,22.25,0,0,0,0-.01,0h0Z"/>
    <path id="uuid-ffc21640-7073-49fc-a1b6-a748ddbbad3c" data-name="path147-0-8-1-6-7-5-7-3-0-9-6-4" class="uuid-4cdeda7c-7326-4576-9a50-3a9ee89705df" d="m182.92,148.54c-11,.24-15.93,12.63-7.78,22.25,1.18,1.4,1.3,2.21-.86.86-5.48-3.67-16-1.26-16.53,9.96-.66,13.82,18.63,17.81,22.25,3.11.19-1.55,1.45-1.52,1.15.69-.33,5.98-2.19,11.56-4.76,17.01h13.07c-2.56-5.45-4.43-11.03-4.76-17.01-.3-2.2.96-2.24,1.15-.69,3.62,14.7,22.92,10.72,22.25-3.11-.54-11.22-11.05-13.63-16.53-9.96-2.16,1.35-2.04.54-.86-.86,8.14-9.62,3.21-22.02-7.78-22.25,0,0,0,0-.01,0h0Z"/>
    <path id="uuid-6c436140-67a7-4e5d-83da-0c0531c4a336" data-name="path147-0-8-1-6-75-6-6-5-3-0-0-2" class="uuid-4cdeda7c-7326-4576-9a50-3a9ee89705df" d="m66.98,148.54c-11,.24-15.93,12.63-7.78,22.25,1.18,1.4,1.3,2.21-.86.86-5.48-3.67-16-1.26-16.53,9.96-.67,13.82,18.63,17.81,22.25,3.11.19-1.55,1.45-1.52,1.15.69-.33,5.98-2.19,11.56-4.76,17.01h13.07c-2.56-5.45-4.43-11.03-4.76-17.01-.3-2.2.96-2.24,1.15-.69,3.62,14.7,22.92,10.72,22.25-3.11-.54-11.22-11.05-13.63-16.53-9.96-2.16,1.35-2.04.54-.86-.86,8.14-9.62,3.21-22.02-7.78-22.25,0,0,0,0-.01,0h0Z"/>
    <path id="uuid-cd6d7bbd-f6fb-42a8-915f-92765738ed9a" data-name="path147-6-9-8-7-0-5-6-4-2-8" class="uuid-4cdeda7c-7326-4576-9a50-3a9ee89705df" d="m230.67,293.92c4.4-.1,6.37-5.26,3.11-9.27-.47-.58-.52-.92.34-.36,2.19,1.53,6.4.52,6.61-4.15.27-5.76-7.45-7.42-8.9-1.29-.08.65-.58.63-.46-.29.13-2.49.88-4.82,1.9-7.09h-5.23c1.02,2.27,1.77,4.6,1.9,7.09.12.92-.38.93-.46.29-1.45-6.13-9.17-4.47-8.9,1.29.22,4.67,4.42,5.68,6.61,4.15.87-.56.82-.23.34.36-3.26,4.01-1.29,9.17,3.11,9.27,0,0,0,0,0,0h0Z"/>
    <path id="uuid-def4f510-718a-4766-b23f-092fa7646112" data-name="path147-6-9-8-7-4-5-62-0-2-9" class="uuid-4cdeda7c-7326-4576-9a50-3a9ee89705df" d="m19.24,56.11c-4.4.1-6.37,5.26-3.11,9.27.47.58.52.92-.34.36-2.19-1.53-6.4-.52-6.61,4.15-.27,5.76,7.45,7.42,8.9,1.29.08-.65.58-.63.46.29-.13,2.49-.88,4.82-1.9,7.09h5.23c-1.02-2.27-1.77-4.6-1.9-7.09-.12-.92.38-.93.46-.29,1.45,6.13,9.17,4.47,8.9-1.29-.22-4.67-4.42-5.68-6.61-4.15-.87.56-.82.23-.34-.36,3.26-4.01,1.29-9.17-3.11-9.27,0,0,0,0,0,0h0Z"/>
    <path id="uuid-e6e26d24-8309-42bc-8d79-4f8a52867d59" data-name="path23-8-1-4" class="uuid-4cdeda7c-7326-4576-9a50-3a9ee89705df" d="m8.39,41.19c-.46-3.12-.44-11.18-.07-13.56,1.15-7.3,3.93-10.65,8.59-11.74,4.53-1.06,10.89.12,12.28,6.22l-3.79.07c-2.05-4.13-7.23-3.02-10.15-1.23-2.33,1.43-3.38,7.4-2.93,7.77,0,0,4.4-3.27,7.87-3.03,7.42.77,10.48,7.22,10.22,13.31-.24,7.32-2.55,13.18-10.42,13.57-7.48-.29-10.9-4.37-11.62-11.4h0Zm18.44-1.93c.04-5.08-2.26-8.89-6.62-9.31-4.35-.42-8.75,3.84-8.44,9.02.3,5.2,2.31,9.58,7.59,9.55,5.68-.02,7.44-5.65,7.47-9.27h0Z"/>
    <path id="uuid-5d440b05-c827-43ad-8f37-506eaf23b85c" data-name="path23-6-8-9-6" class="uuid-4cdeda7c-7326-4576-9a50-3a9ee89705df" d="m241.52,308.83c.46,3.12.44,11.18.07,13.56-1.15,7.3-3.93,10.65-8.59,11.74-4.53,1.06-10.89-.12-12.28-6.22l3.79-.07c2.05,4.13,7.23,3.02,10.15,1.23,2.33-1.43,3.38-7.4,2.93-7.77,0,0-4.4,3.27-7.87,3.03-7.42-.77-10.48-7.22-10.22-13.31.24-7.32,2.55-13.18,10.42-13.57,7.48.29,10.9,4.37,11.62,11.4h0Zm-18.44,1.93c-.04,5.08,2.26,8.89,6.62,9.31,4.35.42,8.75-3.84,8.44-9.02-.3-5.2-2.31-9.58-7.59-9.55-5.68.02-7.44,5.65-7.47,9.27h0Z"/>
  </g>
</svg>