<?xml version="1.0" encoding="UTF-8"?>
<svg id="uuid-ceb967c9-03f2-4137-93fa-959193e178ed" data-name="Cards" xmlns="http://www.w3.org/2000/svg" viewBox="0 0 250 350">
  <defs>
    <style>
      .uuid-a0f8bdb6-5c15-43fd-a578-e73d379df576, .uuid-044cd567-b59b-48be-b8da-d10f7d1ee09d {
        stroke-width: 0px;
      }

      .uuid-044cd567-b59b-48be-b8da-d10f7d1ee09d {
        fill: #fff;
      }
    </style>
  </defs>
  <g id="uuid-436b0d98-d3c1-4822-b95a-3d5c1cc8a526" data-name="CLUB-1">
    <path id="uuid-5ff4877e-45ed-4f55-a416-35cab9dd4a1c" data-name="rect6355-6-85-9-3-2" class="uuid-044cd567-b59b-48be-b8da-d10f7d1ee09d" d="m11.96,0h226.08c6.6,0,11.96,5.36,11.96,11.97v326.05c0,6.61-5.35,11.97-11.96,11.97H11.96c-6.6,0-11.96-5.36-11.96-11.97V11.97C0,5.36,5.35,0,11.96,0Z"/>
    <path id="uuid-88ae334e-95bc-4cb0-8239-ea666556cfda" data-name="path147-0-8-1-6-1-1-0-9-1-8" class="uuid-a0f8bdb6-5c15-43fd-a578-e73d379df576" d="m124.99,148.53c-11,.24-15.93,12.63-7.78,22.25,1.18,1.4,1.3,2.21-.86.86-5.48-3.67-16-1.26-16.53,9.96-.66,13.82,18.63,17.81,22.26,3.11.19-1.55,1.45-1.52,1.15.69-.33,5.98-2.19,11.56-4.76,17.01h13.07c-2.56-5.45-4.43-11.03-4.76-17.01-.3-2.2.96-2.24,1.15-.69,3.62,14.7,22.92,10.72,22.26-3.11-.54-11.22-11.05-13.63-16.53-9.96-2.16,1.35-2.04.54-.86-.86,8.14-9.62,3.21-22.02-7.78-22.25,0,0,0,0-.01,0h0Z"/>
    <path id="uuid-dc69ce6b-068c-495f-bf64-62379fdbbdea" data-name="path147-6-9-8-7-0-5-0-8-3" class="uuid-a0f8bdb6-5c15-43fd-a578-e73d379df576" d="m230.71,293.9c4.4-.1,6.37-5.26,3.11-9.27-.47-.58-.52-.92.34-.36,2.19,1.53,6.4.52,6.61-4.15.27-5.76-7.45-7.42-8.9-1.29-.08.65-.58.63-.46-.29.13-2.49.88-4.82,1.9-7.09h-5.23c1.02,2.27,1.77,4.6,1.9,7.09.12.92-.38.93-.46.29-1.45-6.13-9.17-4.47-8.9,1.29.22,4.67,4.42,5.68,6.61,4.15.87-.56.82-.23.34.36-3.26,4.01-1.29,9.17,3.11,9.27,0,0,0,0,0,0h0Z"/>
    <path id="uuid-4329b018-6278-42c6-b463-e35ffd6dcd73" data-name="path41-6-3-5-1" class="uuid-a0f8bdb6-5c15-43fd-a578-e73d379df576" d="m7.98,52.57v-3.17h3.02l6.42-33.87h3.66l7.08,33.87h2.43v3.17h-8.3v-3.17h2.24l-.89-5.19h-8.37l-.65,5.19h2.24v3.17H7.98Zm14.94-12.06l-3.64-18.13-3.41,18.13h7.05Z"/>
    <path id="uuid-be1b33ff-a19b-4436-8fb6-8e1f3441d6c7" data-name="path41-6-4-0-2-8" class="uuid-a0f8bdb6-5c15-43fd-a578-e73d379df576" d="m219.41,297.42v3.17h3.02l6.42,33.87h3.66l7.08-33.87h2.43v-3.17h-8.3v3.17h2.24l-.89,5.19h-8.37l-.65-5.19h2.24v-3.17h-8.88Zm14.94,12.06l-3.64,18.13-3.41-18.13h7.05Z"/>
    <path id="uuid-de07ea4f-622c-4c8e-9a5e-37caf8be5d72" data-name="path147-6-9-8-7-4-5-6-8-9" class="uuid-a0f8bdb6-5c15-43fd-a578-e73d379df576" d="m19.28,56.09c-4.4.1-6.37,5.26-3.11,9.27.47.58.52.92-.34.36-2.19-1.53-6.4-.52-6.61,4.15-.27,5.76,7.45,7.42,8.9,1.29.08-.65.58-.63.46.29-.13,2.49-.88,4.82-1.9,7.09h5.23c-1.02-2.27-1.77-4.6-1.9-7.09-.12-.92.38-.93.46-.29,1.45,6.13,9.17,4.47,8.9-1.29-.22-4.67-4.42-5.68-6.61-4.15-.87.56-.82.23-.34-.36,3.26-4.01,1.29-9.17-3.11-9.27,0,0,0,0,0,0h0Z"/>
  </g>
</svg>