<?xml version="1.0" encoding="UTF-8"?>
<svg id="uuid-934f2a04-8c79-4100-ba27-c342ff8f0601" data-name="Cards" xmlns="http://www.w3.org/2000/svg" viewBox="0 0 250 350">
  <defs>
    <style>
      .uuid-66d10f18-b211-49ac-83ff-cc3ae1e8f188, .uuid-290767c9-7031-4284-81dd-6d20d434e5b4 {
        stroke-width: 0px;
      }

      .uuid-290767c9-7031-4284-81dd-6d20d434e5b4 {
        fill: #fff;
      }
    </style>
  </defs>
  <g id="uuid-038b6dee-b383-47d1-a8f9-68e507d12415" data-name="CLUB-2">
    <g id="uuid-b4af9bb8-e29d-4347-8a23-126d1ecf4b8f" data-name="layer1-33-1-8-0-7">
      <path id="uuid-4f44fc31-da30-46f0-9663-7cd4117f3163" data-name="rect6355-6-85-4-0-5" class="uuid-290767c9-7031-4284-81dd-6d20d434e5b4" d="m11.95,0h226.08c6.6,0,11.96,5.36,11.96,11.97v326.06c0,6.61-5.35,11.97-11.96,11.97H11.95C5.35,350,0,344.64,0,338.03V11.97C0,5.36,5.35,0,11.95,0Z"/>
    </g>
    <path id="uuid-d180ee2a-7b16-4e49-a283-24cd4c38a42b" data-name="path147-0-8-1-6-7-2-1-6-3" class="uuid-66d10f18-b211-49ac-83ff-cc3ae1e8f188" d="m124.99,37.17c-11,.24-15.93,12.63-7.78,22.25,1.18,1.4,1.3,2.21-.86.86-5.48-3.67-16-1.26-16.53,9.96-.66,13.82,18.63,17.81,22.26,3.11.19-1.55,1.45-1.52,1.15.69-.33,5.98-2.19,11.56-4.76,17.01h13.07c-2.56-5.45-4.43-11.03-4.76-17.01-.3-2.2.96-2.24,1.15-.69,3.62,14.7,22.92,10.72,22.26-3.11-.54-11.22-11.05-13.63-16.53-9.96-2.16,1.35-2.04.54-.86-.86,8.14-9.62,3.21-22.02-7.78-22.25,0,0,0,0-.01,0h0Z"/>
    <path id="uuid-e6153267-6b84-49ca-a340-063aa67f72b0" data-name="path147-0-8-1-6-1-4-5-4-2" class="uuid-66d10f18-b211-49ac-83ff-cc3ae1e8f188" d="m124.99,313.77c-11-.24-15.93-12.63-7.78-22.25,1.18-1.4,1.3-2.21-.86-.86-5.48,3.67-16,1.26-16.53-9.96-.66-13.82,18.63-17.81,22.26-3.11.19,1.55,1.45,1.52,1.15-.69-.33-5.98-2.19-11.56-4.76-17.01h13.07c-2.56,5.45-4.43,11.03-4.76,17.01-.3,2.2.96,2.24,1.15.69,3.62-14.7,22.92-10.72,22.26,3.11-.54,11.22-11.05,13.63-16.53,9.96-2.16-1.35-2.04-.54-.86.86,8.14,9.62,3.21,22.02-7.78,22.25,0,0,0,0-.01,0h0Z"/>
    <path id="uuid-d7f62160-8531-4637-9616-ffe904fa318d" data-name="path147-6-9-8-7-0-5-4-9-1" class="uuid-66d10f18-b211-49ac-83ff-cc3ae1e8f188" d="m230.71,293.91c4.4-.1,6.37-5.26,3.11-9.27-.47-.58-.52-.92.34-.36,2.19,1.53,6.4.52,6.61-4.15.27-5.76-7.45-7.42-8.9-1.29-.08.65-.58.63-.46-.29.13-2.49.88-4.82,1.9-7.09h-5.23c1.02,2.27,1.77,4.6,1.9,7.09.12.92-.38.93-.46.29-1.45-6.13-9.17-4.47-8.9,1.29.22,4.68,4.42,5.68,6.61,4.15.87-.56.82-.23.34.36-3.26,4.01-1.29,9.17,3.11,9.27,0,0,0,0,0,0h0Z"/>
    <path id="uuid-0ec03a18-aa4f-4170-a3c1-b8b290deb1dd" data-name="path147-6-9-8-7-4-5-9-2-7" class="uuid-66d10f18-b211-49ac-83ff-cc3ae1e8f188" d="m19.27,56.09c-4.4.1-6.37,5.26-3.11,9.27.47.58.52.92-.34.36-2.19-1.53-6.4-.52-6.61,4.15-.27,5.76,7.45,7.42,8.9,1.29.08-.65.58-.63.46.29-.13,2.49-.88,4.82-1.9,7.09h5.23c-1.02-2.27-1.77-4.6-1.9-7.09-.12-.92.38-.93.46-.29,1.45,6.13,9.17,4.47,8.9-1.29-.22-4.68-4.42-5.68-6.61-4.15-.87.56-.82.23-.34-.36,3.26-4.01,1.29-9.17-3.11-9.27,0,0,0,0,0,0h0Z"/>
    <path id="uuid-bc5c197e-8134-48ef-a763-97e020fffa82" data-name="path15-9-1-0-1" class="uuid-66d10f18-b211-49ac-83ff-cc3ae1e8f188" d="m8.2,52.5l.18-2.28c.57-7.06,2.08-9.44,10.66-16.81,4.17-3.57,5.53-5.33,5.72-7.38.55-4.82-3.71-6.33-6.49-6.35-3.59-.03-7.66,2.16-5.72,7.25l-4.03,1.21c-.81-4.75.02-9.21,3.8-11.19,5.04-2.58,11.5-1.57,14.76,2.5,2.19,2.73,2.69,6.5,1.52,9.45-3.44,7.54-15.1,10.86-16.06,19.59h12.89v-4.86h3.8v8.95l-21.04-.08h0Z"/>
    <path id="uuid-cf8355cb-c954-410a-acfb-a32b201aa7b7" data-name="path15-5-7-4-9-4" class="uuid-66d10f18-b211-49ac-83ff-cc3ae1e8f188" d="m241.23,297.5l-.18,2.28c-.57,7.06-2.08,9.44-10.66,16.81-4.17,3.57-5.53,5.33-5.72,7.38-.55,4.82,3.71,6.33,6.49,6.35,3.59.03,7.66-2.16,5.72-7.25l4.03-1.21c.81,4.75-.02,9.21-3.8,11.19-5.04,2.58-11.5,1.57-14.76-2.5-2.19-2.73-2.69-6.5-1.52-9.45,3.44-7.54,15.1-10.86,16.06-19.59h-12.89v4.86h-3.8v-8.95l21.04.08h0Z"/>
  </g>
</svg>