<?xml version="1.0" encoding="UTF-8"?>
<svg id="uuid-f8f2be67-ff35-4a0f-a4d1-ea68e9a14ec0" data-name="Cards" xmlns="http://www.w3.org/2000/svg" viewBox="0 0 250 350">
  <defs>
    <style>
      .uuid-47b44b3a-b93c-4a90-a19c-210f036c5d92, .uuid-dad311a0-c36d-4257-a694-09098a1d0c32 {
        stroke-width: 0px;
      }

      .uuid-dad311a0-c36d-4257-a694-09098a1d0c32 {
        fill: #fff;
      }
    </style>
  </defs>
  <g id="uuid-d7dfe440-01ee-4394-8a71-d5c4482852cf" data-name="CLUB-7">
    <path id="uuid-2dd8a6d8-f8d5-4f66-963e-b0d0f1fced3b" data-name="rect6355-6-85-3-1-8-1" class="uuid-dad311a0-c36d-4257-a694-09098a1d0c32" d="m11.9.02h226.07c6.6,0,11.96,5.36,11.96,11.97v326.05c0,6.61-5.35,11.97-11.96,11.97H11.9c-6.6,0-11.96-5.36-11.96-11.97V11.99C-.06,5.38,5.3.02,11.9.02Z"/>
    <path id="uuid-09cf3c4b-700b-4a06-9a1c-a117a6839727" data-name="path147-0-8-1-6-13-2-0-1-5" class="uuid-47b44b3a-b93c-4a90-a19c-210f036c5d92" d="m182.9,37.18c-11,.24-15.93,12.63-7.78,22.25,1.18,1.4,1.3,2.21-.86.86-5.48-3.67-16-1.26-16.53,9.96-.66,13.82,18.63,17.81,22.25,3.11.19-1.55,1.45-1.52,1.15.69-.33,5.98-2.19,11.56-4.76,17.01h13.07c-2.56-5.45-4.43-11.03-4.76-17.01-.3-2.2.96-2.24,1.15-.69,3.62,14.7,22.92,10.72,22.25-3.11-.54-11.22-11.05-13.63-16.53-9.96-2.16,1.35-2.04.54-.86-.86,8.14-9.62,3.21-22.02-7.78-22.25,0,0,0,0-.01,0h0Z"/>
    <path id="uuid-15e1146a-f20d-4a59-81b9-79e04c4f28ee" data-name="path147-0-8-1-6-75-2-83-2-0-7" class="uuid-47b44b3a-b93c-4a90-a19c-210f036c5d92" d="m66.96,37.18c-11,.24-15.93,12.63-7.78,22.25,1.18,1.4,1.3,2.21-.86.86-5.48-3.67-16-1.26-16.53,9.96-.66,13.82,18.63,17.81,22.25,3.11.19-1.55,1.45-1.52,1.15.69-.33,5.98-2.19,11.56-4.76,17.01h13.07c-2.56-5.45-4.43-11.03-4.76-17.01-.3-2.2.96-2.24,1.15-.69,3.62,14.7,22.92,10.72,22.25-3.11-.54-11.22-11.05-13.63-16.53-9.96-2.16,1.35-2.04.54-.86-.86,8.14-9.62,3.21-22.02-7.78-22.25,0,0,0,0-.01,0h0Z"/>
    <path id="uuid-44b525a5-f6eb-4924-a5d3-a8635e4bf051" data-name="path147-0-8-1-6-7-5-5-7-7-7-6" class="uuid-47b44b3a-b93c-4a90-a19c-210f036c5d92" d="m182.9,313.78c-11-.24-15.93-12.63-7.78-22.25,1.18-1.4,1.3-2.21-.86-.86-5.48,3.67-16,1.26-16.53-9.96-.66-13.82,18.63-17.81,22.25-3.11.19,1.55,1.45,1.52,1.15-.69-.33-5.98-2.19-11.56-4.76-17.01h13.07c-2.56,5.45-4.43,11.03-4.76,17.01-.3,2.2.96,2.24,1.15.69,3.62-14.7,22.92-10.72,22.25,3.11-.54,11.22-11.05,13.63-16.53,9.96-2.16-1.35-2.04-.54-.86.86,8.14,9.62,3.21,22.02-7.78,22.25,0,0,0,0-.01,0h0Z"/>
    <path id="uuid-401f5243-5260-4526-ae7d-a19b0a4c89e3" data-name="path147-0-8-1-6-75-6-1-2-9-1-9" class="uuid-47b44b3a-b93c-4a90-a19c-210f036c5d92" d="m66.96,313.78c-11-.24-15.93-12.63-7.78-22.25,1.18-1.4,1.3-2.21-.86-.86-5.48,3.67-16,1.26-16.53-9.96-.66-13.82,18.63-17.81,22.25-3.11.19,1.55,1.45,1.52,1.15-.69-.33-5.98-2.19-11.56-4.76-17.01h13.07c-2.56,5.45-4.43,11.03-4.76,17.01-.3,2.2.96,2.24,1.15.69,3.62-14.7,22.92-10.72,22.25,3.11-.54,11.22-11.05,13.63-16.53,9.96-2.16-1.35-2.04-.54-.86.86,8.14,9.62,3.21,22.02-7.78,22.25,0,0,0,0-.01,0h0Z"/>
    <path id="uuid-f05c18ec-2c67-4970-9591-afc8725a0785" data-name="path147-0-8-1-6-2-00-7-2-3-4" class="uuid-47b44b3a-b93c-4a90-a19c-210f036c5d92" d="m124.93,92.86c-11,.24-15.93,12.63-7.78,22.25,1.18,1.4,1.3,2.21-.86.86-5.48-3.67-16-1.26-16.53,9.96-.66,13.82,18.63,17.81,22.25,3.11.19-1.55,1.45-1.52,1.15.69-.33,5.98-2.19,11.56-4.76,17.01h13.07c-2.56-5.45-4.43-11.03-4.76-17.01-.3-2.2.96-2.24,1.15-.69,3.62,14.7,22.92,10.72,22.25-3.11-.54-11.22-11.05-13.63-16.53-9.96-2.16,1.35-2.04.54-.86-.86,8.14-9.62,3.21-22.02-7.78-22.25,0,0,0,0-.01,0h0Z"/>
    <path id="uuid-561de782-ff90-47c6-be83-c4fdf060ed25" data-name="path147-0-8-1-6-7-5-7-3-0-1-7-4" class="uuid-47b44b3a-b93c-4a90-a19c-210f036c5d92" d="m182.9,148.54c-11,.24-15.93,12.63-7.78,22.25,1.18,1.4,1.3,2.21-.86.86-5.48-3.67-16-1.26-16.53,9.96-.66,13.82,18.63,17.81,22.25,3.11.19-1.55,1.45-1.52,1.15.69-.33,5.98-2.19,11.56-4.76,17.01h13.07c-2.56-5.45-4.43-11.03-4.76-17.01-.3-2.2.96-2.24,1.15-.69,3.62,14.7,22.92,10.72,22.25-3.11-.54-11.22-11.05-13.63-16.53-9.96-2.16,1.35-2.04.54-.86-.86,8.14-9.62,3.21-22.02-7.78-22.25,0,0,0,0-.01,0h0Z"/>
    <path id="uuid-ac0833a3-e062-43ac-9921-8e645c401577" data-name="path147-0-8-1-6-75-6-6-5-3-9-6-0" class="uuid-47b44b3a-b93c-4a90-a19c-210f036c5d92" d="m66.96,148.54c-11,.24-15.93,12.63-7.78,22.25,1.18,1.4,1.3,2.21-.86.86-5.48-3.67-16-1.26-16.53,9.96-.66,13.82,18.63,17.81,22.25,3.11.19-1.55,1.45-1.52,1.15.69-.33,5.98-2.19,11.56-4.76,17.01h13.07c-2.56-5.45-4.43-11.03-4.76-17.01-.3-2.2.96-2.24,1.15-.69,3.62,14.7,22.92,10.72,22.25-3.11-.54-11.22-11.05-13.63-16.53-9.96-2.16,1.35-2.04.54-.86-.86,8.14-9.62,3.21-22.02-7.78-22.25,0,0,0,0-.01,0h0Z"/>
    <path id="uuid-48318cdd-dcd8-448a-8972-8256b9475426" data-name="path147-6-9-8-7-0-5-6-8-4-3" class="uuid-47b44b3a-b93c-4a90-a19c-210f036c5d92" d="m230.65,293.92c4.4-.1,6.37-5.26,3.11-9.27-.47-.58-.52-.92.34-.36,2.19,1.53,6.4.52,6.61-4.15.27-5.76-7.45-7.42-8.9-1.29-.08.65-.58.63-.46-.29.13-2.49.88-4.82,1.9-7.09h-5.23c1.02,2.27,1.77,4.6,1.9,7.09.12.92-.38.93-.46.29-1.45-6.13-9.17-4.47-8.9,1.29.22,4.67,4.42,5.68,6.61,4.15.87-.56.82-.23.34.36-3.26,4.01-1.29,9.17,3.11,9.27,0,0,0,0,0,0h0Z"/>
    <path id="uuid-e097a45e-e863-4599-ad82-522a056e4125" data-name="path147-6-9-8-7-4-5-62-5-2-9" class="uuid-47b44b3a-b93c-4a90-a19c-210f036c5d92" d="m19.22,56.11c-4.4.1-6.37,5.26-3.11,9.27.47.58.52.92-.34.36-2.19-1.53-6.4-.52-6.61,4.15-.27,5.76,7.45,7.42,8.9,1.29.08-.65.58-.63.46.29-.13,2.49-.88,4.82-1.9,7.09h5.23c-1.02-2.27-1.77-4.6-1.9-7.09-.12-.92.38-.93.46-.29,1.45,6.13,9.17,4.47,8.9-1.29-.22-4.67-4.42-5.68-6.61-4.15-.87.56-.82.23-.34-.36,3.26-4.01,1.29-9.17-3.11-9.27h0Z"/>
    <path id="uuid-d81b6f0b-b306-4069-9aea-a1f07d5f54f6" data-name="path25-6-8-8" class="uuid-47b44b3a-b93c-4a90-a19c-210f036c5d92" d="m13.54,52.59c2.43-12.88,5.02-22.55,11.81-33.04h-13.81v4.52h-3.67v-8.51h20.2l2.49,4c-7.21,7.89-13.82,33.41-12.65,33.04h-4.38Z"/>
    <path id="uuid-c30cdc11-2195-41b2-ac4a-fbf1f40e73da" data-name="path25-7-7-3-9" class="uuid-47b44b3a-b93c-4a90-a19c-210f036c5d92" d="m236.33,297.44c-2.43,12.88-5.02,22.55-11.81,33.04h13.81v-4.52h3.67v8.51h-20.2l-2.49-4c7.21-7.89,13.82-33.41,12.65-33.04h4.38Z"/>
  </g>
</svg>