<?xml version="1.0" encoding="UTF-8"?>
<svg id="uuid-397a7dd5-90f4-4651-9735-0cafa83f0fae" data-name="Cards" xmlns="http://www.w3.org/2000/svg" viewBox="0 0 250 350">
  <defs>
    <style>
      .uuid-1fff3bd8-cea5-4d1f-bac6-f5dbd0ab7523, .uuid-09319688-9c7e-4f70-9c96-38ed1add02de {
        stroke-width: 0px;
      }

      .uuid-09319688-9c7e-4f70-9c96-38ed1add02de {
        fill: #fff;
      }
    </style>
  </defs>
  <g id="uuid-4df9eb74-2820-476c-925a-dca36c80fceb" data-name="CLUB-8">
    <path id="uuid-32af0b98-1477-4025-817c-d1b0167b4c97" data-name="rect6355-6-85-3-3-4-3" class="uuid-09319688-9c7e-4f70-9c96-38ed1add02de" d="m11.89.01h226.08c6.6,0,11.96,5.36,11.96,11.97v326.05c0,6.61-5.35,11.97-11.96,11.97H11.89c-6.6,0-11.96-5.36-11.96-11.97V11.98C-.07,5.37,5.29.01,11.89.01Z"/>
    <path id="uuid-3b4ff637-5429-45e1-bdda-b976c031332c" data-name="path147-0-8-1-6-13-2-2-3-8" class="uuid-1fff3bd8-cea5-4d1f-bac6-f5dbd0ab7523" d="m182.9,37.18c-11,.24-15.93,12.63-7.78,22.25,1.18,1.4,1.3,2.21-.86.86-5.48-3.67-16-1.26-16.53,9.96-.66,13.82,18.63,17.81,22.25,3.11.19-1.55,1.45-1.52,1.15.69-.33,5.98-2.19,11.56-4.76,17.01h13.07c-2.56-5.45-4.43-11.03-4.76-17.01-.3-2.2.96-2.24,1.15-.69,3.62,14.7,22.92,10.72,22.25-3.11-.54-11.22-11.05-13.63-16.53-9.96-2.16,1.35-2.04.54-.86-.86,8.14-9.62,3.21-22.02-7.78-22.25,0,0,0,0-.01,0h0Z"/>
    <path id="uuid-1bd9a877-2c1a-4f60-b099-a8447a9e6186" data-name="path147-0-8-1-6-75-2-83-9-8-9" class="uuid-1fff3bd8-cea5-4d1f-bac6-f5dbd0ab7523" d="m66.95,37.18c-11,.24-15.93,12.63-7.78,22.25,1.18,1.4,1.3,2.21-.86.86-5.48-3.67-16-1.26-16.53,9.96-.66,13.82,18.63,17.81,22.25,3.11.19-1.55,1.45-1.52,1.15.69-.33,5.98-2.19,11.56-4.76,17.01h13.07c-2.56-5.45-4.43-11.03-4.76-17.01-.3-2.2.96-2.24,1.15-.69,3.62,14.7,22.92,10.72,22.25-3.11-.54-11.22-11.05-13.63-16.53-9.96-2.16,1.35-2.04.54-.86-.86,8.14-9.62,3.21-22.02-7.78-22.25,0,0,0,0-.01,0h0Z"/>
    <path id="uuid-9495b42e-b753-4ced-b5d9-04c908e353f8" data-name="path147-0-8-1-6-7-5-5-7-62-3-0" class="uuid-1fff3bd8-cea5-4d1f-bac6-f5dbd0ab7523" d="m182.9,313.77c-11-.24-15.93-12.63-7.78-22.25,1.18-1.4,1.3-2.21-.86-.86-5.48,3.67-16,1.26-16.53-9.96-.66-13.82,18.63-17.81,22.25-3.11.19,1.55,1.45,1.52,1.15-.69-.33-5.98-2.19-11.56-4.76-17.01h13.07c-2.56,5.45-4.43,11.03-4.76,17.01-.3,2.2.96,2.24,1.15.69,3.62-14.7,22.92-10.72,22.25,3.11-.54,11.22-11.05,13.63-16.53,9.96-2.16-1.35-2.04-.54-.86.86,8.14,9.62,3.21,22.02-7.78,22.25,0,0,0,0-.01,0h0Z"/>
    <path id="uuid-6421dc3a-bc02-4013-9b87-0d58e473c9af" data-name="path147-0-8-1-6-75-6-1-2-41-4-5" class="uuid-1fff3bd8-cea5-4d1f-bac6-f5dbd0ab7523" d="m66.95,313.77c-11-.24-15.93-12.63-7.78-22.25,1.18-1.4,1.3-2.21-.86-.86-5.48,3.67-16,1.26-16.53-9.96-.66-13.82,18.63-17.81,22.25-3.11.19,1.55,1.45,1.52,1.15-.69-.33-5.98-2.19-11.56-4.76-17.01h13.07c-2.56,5.45-4.43,11.03-4.76,17.01-.3,2.2.96,2.24,1.15.69,3.62-14.7,22.92-10.72,22.25,3.11-.54,11.22-11.05,13.63-16.53,9.96-2.16-1.35-2.04-.54-.86.86,8.14,9.62,3.21,22.02-7.78,22.25,0,0,0,0-.01,0h0Z"/>
    <path id="uuid-1a402310-c6cf-49bd-8aa2-21754e274186" data-name="path147-0-8-1-6-2-00-7-5-5-3" class="uuid-1fff3bd8-cea5-4d1f-bac6-f5dbd0ab7523" d="m124.93,92.86c-11,.24-15.93,12.63-7.78,22.25,1.18,1.4,1.3,2.21-.86.86-5.48-3.67-16-1.26-16.53,9.96-.66,13.82,18.63,17.81,22.25,3.11.19-1.55,1.45-1.52,1.15.69-.33,5.98-2.19,11.56-4.76,17.01h13.07c-2.56-5.45-4.43-11.03-4.76-17.01-.3-2.2.96-2.24,1.15-.69,3.62,14.7,22.92,10.72,22.25-3.11-.54-11.22-11.05-13.63-16.53-9.96-2.16,1.35-2.04.54-.86-.86,8.14-9.62,3.21-22.02-7.78-22.25,0,0,0,0-.01,0h0Z"/>
    <path id="uuid-bc3a26dc-4ce0-445f-bc5b-8212262f7d9f" data-name="path147-0-8-1-6-7-5-7-3-0-4-4-6" class="uuid-1fff3bd8-cea5-4d1f-bac6-f5dbd0ab7523" d="m182.9,148.54c-11,.24-15.93,12.63-7.78,22.25,1.18,1.4,1.3,2.21-.86.86-5.48-3.67-16-1.26-16.53,9.96-.66,13.82,18.63,17.81,22.25,3.11.19-1.55,1.45-1.52,1.15.69-.33,5.98-2.19,11.56-4.76,17.01h13.07c-2.56-5.45-4.43-11.03-4.76-17.01-.3-2.2.96-2.24,1.15-.69,3.62,14.7,22.92,10.72,22.25-3.11-.54-11.22-11.05-13.63-16.53-9.96-2.16,1.35-2.04.54-.86-.86,8.14-9.62,3.21-22.02-7.78-22.25,0,0,0,0-.01,0h0Z"/>
    <path id="uuid-9d452856-e928-4151-8a63-6bd6e3487e0a" data-name="path147-0-8-1-6-75-6-6-5-3-2-4-8" class="uuid-1fff3bd8-cea5-4d1f-bac6-f5dbd0ab7523" d="m66.95,148.54c-11,.24-15.93,12.63-7.78,22.25,1.18,1.4,1.3,2.21-.86.86-5.48-3.67-16-1.26-16.53,9.96-.66,13.82,18.63,17.81,22.25,3.11.19-1.55,1.45-1.52,1.15.69-.33,5.98-2.19,11.56-4.76,17.01h13.07c-2.56-5.45-4.43-11.03-4.76-17.01-.3-2.2.96-2.24,1.15-.69,3.62,14.7,22.92,10.72,22.25-3.11-.54-11.22-11.05-13.63-16.53-9.96-2.16,1.35-2.04.54-.86-.86,8.14-9.62,3.21-22.02-7.78-22.25,0,0,0,0-.01,0h0Z"/>
    <path id="uuid-cddbefa7-89a0-4d81-b60e-239dd5558b44" data-name="path147-0-8-1-6-2-0-8-6-42-9-6" class="uuid-1fff3bd8-cea5-4d1f-bac6-f5dbd0ab7523" d="m124.93,258.09c-11-.24-15.93-12.63-7.78-22.25,1.18-1.4,1.3-2.21-.86-.86-5.48,3.67-16,1.26-16.53-9.96-.66-13.82,18.63-17.81,22.25-3.11.19,1.55,1.45,1.52,1.15-.69-.33-5.98-2.19-11.56-4.76-17.01h13.07c-2.56,5.45-4.43,11.03-4.76,17.01-.3,2.2.96,2.24,1.15.69,3.62-14.7,22.92-10.72,22.25,3.11-.54,11.22-11.05,13.63-16.53,9.96-2.16-1.35-2.04-.54-.86.86,8.14,9.62,3.21,22.02-7.78,22.25,0,0,0,0-.01,0h0Z"/>
    <path id="uuid-5171901e-9866-42ec-bebb-1717387113b0" data-name="path147-6-9-8-7-0-5-6-1-6-9" class="uuid-1fff3bd8-cea5-4d1f-bac6-f5dbd0ab7523" d="m230.65,293.91c4.4-.1,6.37-5.26,3.11-9.27-.47-.58-.52-.92.34-.36,2.19,1.53,6.4.52,6.61-4.15.27-5.76-7.45-7.42-8.9-1.29-.08.65-.58.63-.46-.29.13-2.49.88-4.82,1.9-7.09h-5.23c1.02,2.27,1.77,4.6,1.9,7.09.12.92-.38.93-.46.29-1.45-6.13-9.17-4.47-8.9,1.29.22,4.67,4.42,5.68,6.61,4.15.87-.56.82-.23.34.36-3.26,4.01-1.29,9.17,3.11,9.27h0Z"/>
    <path id="uuid-4e681150-5483-416b-b88f-e6ae407e40f6" data-name="path147-6-9-8-7-4-5-62-4-0-0" class="uuid-1fff3bd8-cea5-4d1f-bac6-f5dbd0ab7523" d="m19.21,56.11c-4.4.1-6.37,5.26-3.11,9.27.47.58.52.92-.34.36-2.19-1.53-6.4-.52-6.61,4.15-.27,5.76,7.45,7.42,8.9,1.29.08-.65.58-.63.46.29-.13,2.49-.88,4.82-1.9,7.09h5.23c-1.02-2.27-1.77-4.6-1.9-7.09-.12-.92.38-.93.46-.29,1.45,6.13,9.17,4.47,8.9-1.29-.22-4.67-4.42-5.68-6.61-4.15-.87.56-.82.23-.34-.36,3.26-4.01,1.29-9.17-3.11-9.27h0Z"/>
    <path id="uuid-9d4aba48-1090-4917-b4ef-ad41bc426d58" data-name="path27-3-3-2" class="uuid-1fff3bd8-cea5-4d1f-bac6-f5dbd0ab7523" d="m7.21,41.74c.18-4.97,1.97-6.84,5.5-9.44-2.82-2.04-4.01-5.04-3.76-7.6.58-6.19,5.35-9.28,10.55-9.15,5.21.14,9.69,4.28,10.04,8.77.3,3.91-.86,5.8-3.62,7.85,3.28,2.78,5.38,4.61,5.3,9.5-.08,4.9-4.23,10.73-11.48,10.9-7.25.18-12.71-5.87-12.53-10.85h0Zm20.23.02c.31-4.5-3.66-7.54-8.14-7.58-4.36-.05-8.27,3.69-8.27,7.73,0,4.34,5.08,6.7,8.36,6.71,3.99.02,7.78-2.98,8.05-6.86Zm-1.43-16.11c.09-3.79-3.4-6.51-7-6.4-3.2.1-6.59,2.54-6.59,5.71,0,3.97,3.85,5.95,7.14,6.02,2.99.07,6.38-2.48,6.45-5.34Z"/>
    <path id="uuid-8e249844-36b7-4743-8dd6-92c4a0098626" data-name="path27-0-0-5-0" class="uuid-1fff3bd8-cea5-4d1f-bac6-f5dbd0ab7523" d="m218.64,308.28c.18,4.97,1.97,6.84,5.5,9.44-2.82,2.04-4.01,5.04-3.76,7.6.58,6.19,5.35,9.28,10.55,9.15,5.21-.14,9.69-4.28,10.04-8.77.3-3.91-.86-5.8-3.62-7.85,3.28-2.78,5.38-4.6,5.3-9.5-.08-4.9-4.23-10.73-11.48-10.9-7.25-.18-12.71,5.87-12.53,10.85h0Zm20.23-.02c.31,4.5-3.66,7.54-8.14,7.58-4.36.05-8.27-3.69-8.27-7.73,0-4.34,5.08-6.7,8.36-6.71,3.99-.02,7.78,2.98,8.05,6.86h0Zm-1.43,16.11c.09,3.79-3.4,6.51-7,6.4-3.2-.1-6.59-2.54-6.59-5.71,0-3.97,3.85-5.95,7.14-6.02,2.99-.07,6.38,2.48,6.45,5.34Z"/>
  </g>
</svg>