<?xml version="1.0" encoding="UTF-8"?>
<svg id="uuid-62b57a87-b4b8-4f0e-ab4c-9eb97bbad6b5" data-name="Cards" xmlns="http://www.w3.org/2000/svg" viewBox="0 0 250 350">
  <defs>
    <style>
      .uuid-c5c38478-0501-403e-8554-2fca38f77ff1, .uuid-e21721c2-e5d0-4bfa-b1ee-a29d9c846c45 {
        stroke-width: 0px;
      }

      .uuid-e21721c2-e5d0-4bfa-b1ee-a29d9c846c45 {
        fill: #fff;
      }
    </style>
  </defs>
  <g id="uuid-a09e5651-06d6-484c-8365-39b10b6f9c56" data-name="CLUB-5">
    <g id="uuid-0422df16-e41d-4be8-a0f9-ebca614bf12d" data-name="layer1-33-1-41-1-2-6">
      <path id="uuid-9acda038-b2b9-4c20-9991-7db1be28c2df" data-name="rect6355-6-85-3-7-9-4" class="uuid-e21721c2-e5d0-4bfa-b1ee-a29d9c846c45" d="m11.92.03h226.07c6.6,0,11.96,5.36,11.96,11.97v326.05c0,6.61-5.35,11.97-11.96,11.97H11.92c-6.6,0-11.96-5.36-11.96-11.97V12C-.04,5.39,5.32.03,11.92.03Z"/>
    </g>
    <path id="uuid-2fe78763-a85f-4809-90fe-2fd90ae4612f" data-name="path147-0-8-1-6-13-2-8-2-5" class="uuid-c5c38478-0501-403e-8554-2fca38f77ff1" d="m182.93,37.19c-11,.24-15.93,12.63-7.78,22.25,1.18,1.4,1.3,2.21-.86.86-5.48-3.67-16-1.26-16.53,9.96-.66,13.82,18.63,17.81,22.25,3.11.19-1.55,1.45-1.52,1.15.69-.33,5.98-2.19,11.56-4.76,17.01h13.07c-2.56-5.45-4.43-11.03-4.76-17.01-.3-2.2.96-2.24,1.15-.69,3.62,14.7,22.92,10.72,22.25-3.11-.54-11.22-11.05-13.63-16.53-9.96-2.16,1.35-2.04.54-.86-.86,8.14-9.62,3.21-22.02-7.78-22.25,0,0,0,0-.01,0h0Z"/>
    <path id="uuid-433d91c0-9d6a-4fdf-87c9-836cd4590e8f" data-name="path147-0-8-1-6-75-2-83-7-6-4" class="uuid-c5c38478-0501-403e-8554-2fca38f77ff1" d="m66.98,37.19c-11,.24-15.93,12.63-7.78,22.25,1.18,1.4,1.3,2.21-.86.86-5.48-3.67-16-1.26-16.53,9.96-.66,13.82,18.63,17.81,22.25,3.11.19-1.55,1.45-1.52,1.15.69-.33,5.98-2.19,11.56-4.76,17.01h13.07c-2.56-5.45-4.43-11.03-4.76-17.01-.3-2.2.96-2.24,1.15-.69,3.62,14.7,22.92,10.72,22.25-3.11-.54-11.22-11.05-13.63-16.53-9.96-2.16,1.35-2.04.54-.86-.86,8.14-9.62,3.21-22.02-7.78-22.25,0,0,0,0-.01,0h0Z"/>
    <path id="uuid-afd1fd6b-f7c8-497e-a585-a2b6ce2f16bd" data-name="path147-0-8-1-6-7-5-5-7-6-8-5" class="uuid-c5c38478-0501-403e-8554-2fca38f77ff1" d="m182.93,313.78c-11-.24-15.93-12.63-7.78-22.25,1.18-1.4,1.3-2.21-.86-.86-5.48,3.67-16,1.26-16.53-9.96-.66-13.82,18.63-17.81,22.25-3.11.19,1.55,1.45,1.52,1.15-.69-.33-5.98-2.19-11.56-4.76-17.01h13.07c-2.56,5.45-4.43,11.03-4.76,17.01-.3,2.2.96,2.24,1.15.69,3.62-14.7,22.92-10.72,22.25,3.11-.54,11.22-11.05,13.63-16.53,9.96-2.16-1.35-2.04-.54-.86.86,8.14,9.62,3.21,22.02-7.78,22.25,0,0,0,0-.01,0h0Z"/>
    <path id="uuid-2a98b3ca-45d1-44ac-82a2-0da94d00958e" data-name="path147-0-8-1-6-75-6-1-2-4-9-5" class="uuid-c5c38478-0501-403e-8554-2fca38f77ff1" d="m66.98,313.78c-11-.24-15.93-12.63-7.78-22.25,1.18-1.4,1.3-2.21-.86-.86-5.48,3.67-16,1.26-16.53-9.96-.66-13.82,18.63-17.81,22.25-3.11.19,1.55,1.45,1.52,1.15-.69-.33-5.98-2.19-11.56-4.76-17.01h13.07c-2.56,5.45-4.43,11.03-4.76,17.01-.3,2.2.96,2.24,1.15.69,3.62-14.7,22.92-10.72,22.25,3.11-.54,11.22-11.05,13.63-16.53,9.96-2.16-1.35-2.04-.54-.86.86,8.14,9.62,3.21,22.02-7.78,22.25,0,0,0,0-.01,0h0Z"/>
    <path id="uuid-b64fb2a2-3043-49ec-8cab-169968ffb598" data-name="path147-0-8-1-6-1-1-0-5-6-4-0" class="uuid-c5c38478-0501-403e-8554-2fca38f77ff1" d="m124.96,148.55c-11,.24-15.93,12.63-7.78,22.25,1.18,1.4,1.3,2.21-.86.86-5.48-3.67-16-1.26-16.53,9.96-.66,13.82,18.63,17.81,22.25,3.11.19-1.55,1.45-1.52,1.15.69-.33,5.98-2.19,11.56-4.76,17.01h13.07c-2.56-5.45-4.43-11.03-4.76-17.01-.3-2.2.96-2.24,1.15-.69,3.62,14.7,22.92,10.72,22.25-3.11-.54-11.22-11.05-13.63-16.53-9.96-2.16,1.35-2.04.54-.86-.86,8.14-9.62,3.21-22.02-7.78-22.25,0,0,0,0-.01,0h0Z"/>
    <path id="uuid-b8fa987a-8922-49eb-92d2-475139a987bb" data-name="path147-6-9-8-7-0-5-6-7-4-6" class="uuid-c5c38478-0501-403e-8554-2fca38f77ff1" d="m230.68,293.92c4.4-.1,6.37-5.26,3.11-9.27-.47-.58-.52-.92.34-.36,2.19,1.53,6.4.52,6.61-4.15.27-5.76-7.45-7.42-8.9-1.29-.08.65-.58.63-.46-.29.13-2.49.88-4.82,1.9-7.09h-5.23c1.02,2.27,1.77,4.6,1.9,7.09.12.92-.38.93-.46.29-1.45-6.12-9.17-4.47-8.9,1.29.22,4.67,4.42,5.68,6.61,4.15.87-.56.82-.23.34.36-3.26,4.01-1.29,9.17,3.11,9.27,0,0,0,0,0,0h0Z"/>
    <path id="uuid-5012058b-6bf7-4f42-a849-843ff4a894da" data-name="path147-6-9-8-7-4-5-62-2-3-8" class="uuid-c5c38478-0501-403e-8554-2fca38f77ff1" d="m19.25,56.12c-4.4.1-6.37,5.26-3.11,9.27.47.58.52.92-.34.36-2.19-1.53-6.4-.52-6.61,4.15-.27,5.76,7.45,7.42,8.9,1.29.08-.65.58-.63.46.29-.13,2.49-.88,4.82-1.9,7.09h5.23c-1.02-2.27-1.77-4.6-1.9-7.09-.12-.92.38-.93.46-.29,1.45,6.12,9.17,4.47,8.9-1.29-.22-4.67-4.42-5.68-6.61-4.15-.87.56-.82.23-.34-.36,3.26-4.01,1.29-9.17-3.11-9.27,0,0,0,0,0,0h0Z"/>
    <path id="uuid-d0d8978d-0c5a-4bf4-97cb-708f861f424b" data-name="path21-39-8-1" class="uuid-c5c38478-0501-403e-8554-2fca38f77ff1" d="m7.6,43.01l3.62-.03c.69,2.24,2.22,4.51,4.3,5.14,5.87,1.41,9.64-1.94,10.88-5.8,1.51-4.68-.03-11.25-4.07-13.58-3.35-1.93-8.32-.3-10.6,3.83l-2.54-1.58,1.36-15.42h16.57v3.65h-13.43l-.21,6.42c2.89-2.07,7.33-2.05,10.22-.6,5.47,2.66,8.02,8.72,6.95,15.86-1.47,7.1-4.73,11.13-12.06,11.7-8.16.08-11.04-5.65-11-9.59h0Z"/>
    <path id="uuid-f3b58c5f-039d-4a67-89f5-4dfec80ce673" data-name="path21-3-4-1-8" class="uuid-c5c38478-0501-403e-8554-2fca38f77ff1" d="m242.32,307.03l-3.62.03c-.69-2.24-2.22-4.51-4.3-5.14-5.87-1.41-9.64,1.94-10.88,5.8-1.51,4.68.03,11.25,4.07,13.58,3.35,1.93,8.32.3,10.6-3.83l2.54,1.58-1.36,15.42h-16.57v-3.65h13.43l.21-6.42c-2.89,2.07-7.33,2.05-10.22.6-5.47-2.66-8.02-8.72-6.95-15.86,1.47-7.1,4.73-11.13,12.06-11.7,8.16-.08,11.04,5.65,11,9.59h0Z"/>
  </g>
</svg>