<?xml version="1.0" encoding="UTF-8"?>
<svg id="uuid-85983053-068e-4706-b9da-124cf69b820f" data-name="Cards" xmlns="http://www.w3.org/2000/svg" viewBox="0 0 250 350">
  <defs>
    <style>
      .uuid-66f0296c-486c-4d02-adf6-45f7959f7a15, .uuid-88842a24-0ca4-4c18-9f6d-a14467a2c3f9 {
        stroke-width: 0px;
      }

      .uuid-88842a24-0ca4-4c18-9f6d-a14467a2c3f9 {
        fill: #fff;
      }
    </style>
  </defs>
  <g id="uuid-b7de0109-8489-4d10-bcdb-0eb59294b674" data-name="CLUB-10">
    <path id="uuid-13aa0796-2047-417b-9138-53ed9eaf7228" data-name="rect6355-6-85-3-6-8-7" class="uuid-88842a24-0ca4-4c18-9f6d-a14467a2c3f9" d="m11.87.02h226.08c6.6,0,11.96,5.36,11.96,11.97v326.05c0,6.61-5.35,11.97-11.96,11.97H11.87c-6.6,0-11.96-5.36-11.96-11.97V11.99C-.09,5.37,5.26.02,11.87.02Z"/>
    <path id="uuid-e63e0931-8e58-4530-ba89-28e92e5a91f2" data-name="path147-0-8-1-6-13-2-22-1-5" class="uuid-66f0296c-486c-4d02-adf6-45f7959f7a15" d="m182.87,37.18c-11,.24-15.93,12.63-7.78,22.25,1.18,1.4,1.3,2.21-.86.86-5.48-3.67-16-1.26-16.53,9.96-.66,13.82,18.63,17.81,22.25,3.11.19-1.55,1.45-1.52,1.15.69-.33,5.98-2.19,11.56-4.76,17.01h13.07c-2.56-5.45-4.43-11.03-4.76-17.01-.3-2.2.96-2.24,1.15-.69,3.62,14.7,22.92,10.72,22.25-3.11-.54-11.22-11.05-13.63-16.53-9.96-2.16,1.35-2.04.54-.86-.86,8.14-9.62,3.21-22.02-7.78-22.25,0,0,0,0-.01,0h0Z"/>
    <path id="uuid-2a43e799-250d-45d9-91a2-369e3cf1b07f" data-name="path147-0-8-1-6-75-2-83-21-1-8" class="uuid-66f0296c-486c-4d02-adf6-45f7959f7a15" d="m66.93,37.18c-11,.24-15.93,12.63-7.78,22.25,1.18,1.4,1.3,2.21-.86.86-5.48-3.67-16-1.26-16.53,9.96-.66,13.82,18.63,17.81,22.25,3.11.19-1.55,1.45-1.52,1.15.69-.33,5.98-2.19,11.56-4.76,17.01h13.07c-2.56-5.45-4.43-11.03-4.76-17.01-.3-2.2.96-2.24,1.15-.69,3.62,14.7,22.92,10.72,22.25-3.11-.54-11.22-11.05-13.63-16.53-9.96-2.16,1.35-2.04.54-.86-.86,8.14-9.62,3.21-22.02-7.78-22.25,0,0,0,0-.01,0h0Z"/>
    <path id="uuid-28191fdb-0b1b-46b3-b54f-121935c0b099" data-name="path147-0-8-1-6-7-5-5-7-3-5-5" class="uuid-66f0296c-486c-4d02-adf6-45f7959f7a15" d="m182.87,313.78c-11-.24-15.93-12.63-7.78-22.25,1.18-1.4,1.3-2.21-.86-.86-5.48,3.67-16,1.26-16.53-9.96-.66-13.82,18.63-17.81,22.25-3.11.19,1.55,1.45,1.52,1.15-.69-.33-5.98-2.19-11.56-4.76-17.01h13.07c-2.56,5.45-4.43,11.03-4.76,17.01-.3,2.2.96,2.24,1.15.69,3.62-14.7,22.92-10.72,22.25,3.11-.54,11.22-11.05,13.63-16.53,9.96-2.16-1.35-2.04-.54-.86.86,8.14,9.62,3.21,22.02-7.78,22.25,0,0,0,0-.01,0h0Z"/>
    <path id="uuid-042ade15-e7e0-4440-b720-189afe8187a5" data-name="path147-0-8-1-6-75-6-1-2-7-9-3" class="uuid-66f0296c-486c-4d02-adf6-45f7959f7a15" d="m66.93,313.78c-11-.24-15.93-12.63-7.78-22.25,1.18-1.4,1.3-2.21-.86-.86-5.48,3.67-16,1.26-16.53-9.96-.66-13.82,18.63-17.81,22.25-3.11.19,1.55,1.45,1.52,1.15-.69-.33-5.98-2.19-11.56-4.76-17.01h13.07c-2.56,5.45-4.43,11.03-4.76,17.01-.3,2.2.96,2.24,1.15.69,3.62-14.7,22.92-10.72,22.25,3.11-.54,11.22-11.05,13.63-16.53,9.96-2.16-1.35-2.04-.54-.86.86,8.14,9.62,3.21,22.02-7.78,22.25,0,0,0,0-.01,0h0Z"/>
    <path id="uuid-75d10e72-5d40-407d-8300-50fadcd2ede8" data-name="path147-0-8-1-6-2-00-7-1-1-4" class="uuid-66f0296c-486c-4d02-adf6-45f7959f7a15" d="m124.9,74.3c-11,.24-15.93,12.63-7.78,22.25,1.18,1.4,1.3,2.21-.86.86-5.48-3.67-16-1.26-16.53,9.96-.66,13.82,18.63,17.81,22.25,3.11.19-1.55,1.45-1.52,1.15.69-.33,5.98-2.19,11.56-4.76,17.01h13.07c-2.56-5.45-4.43-11.03-4.76-17.01-.3-2.2.96-2.24,1.15-.69,3.62,14.7,22.92,10.72,22.25-3.11-.54-11.22-11.05-13.63-16.53-9.96-2.16,1.35-2.04.54-.86-.86,8.14-9.62,3.21-22.02-7.78-22.25,0,0,0,0-.01,0h0Z"/>
    <path id="uuid-b736f74c-a392-4f81-b158-02c934f40050" data-name="path147-0-8-1-6-2-0-8-6-8-1-8" class="uuid-66f0296c-486c-4d02-adf6-45f7959f7a15" d="m124.9,276.66c-11-.24-15.93-12.63-7.78-22.25,1.18-1.4,1.3-2.21-.86-.86-5.48,3.67-16,1.26-16.53-9.96-.66-13.82,18.63-17.81,22.25-3.11.19,1.55,1.45,1.52,1.15-.69-.33-5.98-2.19-11.56-4.76-17.01h13.07c-2.56,5.45-4.43,11.03-4.76,17.01-.3,2.2.96,2.24,1.15.69,3.62-14.7,22.92-10.72,22.25,3.11-.54,11.22-11.05,13.63-16.53,9.96-2.16-1.35-2.04-.54-.86.86,8.14,9.62,3.21,22.02-7.78,22.25,0,0,0,0-.01,0h0Z"/>
    <path id="uuid-2df9e5c5-6177-4786-b842-31ae71ab1577" data-name="path147-6-9-8-7-0-5-6-83-3-7" class="uuid-66f0296c-486c-4d02-adf6-45f7959f7a15" d="m230.62,293.91c4.4-.1,6.37-5.26,3.11-9.27-.47-.58-.52-.92.34-.36,2.19,1.53,6.4.52,6.61-4.15.27-5.76-7.45-7.42-8.9-1.29-.08.65-.58.63-.46-.29.13-2.49.88-4.82,1.9-7.09h-5.23c1.02,2.27,1.77,4.6,1.9,7.09.12.92-.38.93-.46.29-1.45-6.13-9.17-4.47-8.9,1.29.22,4.67,4.42,5.68,6.61,4.15.87-.56.82-.23.34.36-3.26,4.01-1.29,9.17,3.11,9.27,0,0,0,0,0,0h0Z"/>
    <path id="uuid-8ad99166-66dd-45b6-9844-17b50cdf4839" data-name="path147-0-8-1-6-75-2-9-77-44-0-7" class="uuid-66f0296c-486c-4d02-adf6-45f7959f7a15" d="m66.93,111.42c-11,.24-15.93,12.63-7.78,22.25,1.18,1.4,1.3,2.21-.86.86-5.48-3.67-16-1.26-16.53,9.96-.66,13.82,18.63,17.81,22.25,3.11.19-1.55,1.45-1.52,1.15.69-.33,5.98-2.19,11.56-4.76,17.01h13.07c-2.56-5.45-4.43-11.03-4.76-17.01-.3-2.2.96-2.24,1.15-.69,3.62,14.7,22.92,10.72,22.25-3.11-.54-11.22-11.05-13.63-16.53-9.96-2.16,1.35-2.04.54-.86-.86,8.14-9.62,3.21-22.02-7.78-22.25,0,0,0,0-.01,0h0Z"/>
    <path id="uuid-0f94bb82-1fe2-4433-a1f4-d8a36fba7f98" data-name="path147-0-8-1-6-75-2-8-0-3-9-3" class="uuid-66f0296c-486c-4d02-adf6-45f7959f7a15" d="m66.93,239.54c-11-.24-15.93-12.63-7.78-22.25,1.18-1.4,1.3-2.21-.86-.86-5.48,3.67-16,1.26-16.53-9.96-.66-13.82,18.63-17.81,22.25-3.11.19,1.55,1.45,1.52,1.15-.69-.33-5.98-2.19-11.56-4.76-17.01h13.07c-2.56,5.45-4.43,11.03-4.76,17.01-.3,2.2.96,2.24,1.15.69,3.62-14.7,22.92-10.72,22.25,3.11-.54,11.22-11.05,13.63-16.53,9.96-2.16-1.35-2.04-.54-.86.86,8.14,9.62,3.21,22.02-7.78,22.25,0,0,0,0-.01,0h0Z"/>
    <path id="uuid-ce75eb46-1764-40fe-8458-60890968b3db" data-name="path147-0-8-1-6-75-2-9-7-1-9-7-9" class="uuid-66f0296c-486c-4d02-adf6-45f7959f7a15" d="m182.87,111.42c-11,.24-15.93,12.63-7.78,22.25,1.18,1.4,1.3,2.21-.86.86-5.48-3.67-16-1.26-16.53,9.96-.66,13.82,18.63,17.81,22.25,3.11.19-1.55,1.45-1.52,1.15.69-.33,5.98-2.19,11.56-4.76,17.01h13.07c-2.56-5.45-4.43-11.03-4.76-17.01-.3-2.2.96-2.24,1.15-.69,3.62,14.7,22.92,10.72,22.25-3.11-.54-11.22-11.05-13.63-16.53-9.96-2.16,1.35-2.04.54-.86-.86,8.14-9.62,3.21-22.02-7.78-22.25,0,0,0,0-.01,0h0Z"/>
    <path id="uuid-58575f6b-9e25-4e0e-9348-f2ca795dae94" data-name="path147-0-8-1-6-75-2-8-5-1-52-2-8" class="uuid-66f0296c-486c-4d02-adf6-45f7959f7a15" d="m182.87,239.54c-11-.24-15.93-12.63-7.78-22.25,1.18-1.4,1.3-2.21-.86-.86-5.48,3.67-16,1.26-16.53-9.96-.66-13.82,18.63-17.81,22.25-3.11.19,1.55,1.45,1.52,1.15-.69-.33-5.98-2.19-11.56-4.76-17.01h13.07c-2.56,5.45-4.43,11.03-4.76,17.01-.3,2.2.96,2.24,1.15.69,3.62-14.7,22.92-10.72,22.25,3.11-.54,11.22-11.05,13.63-16.53,9.96-2.16-1.35-2.04-.54-.86.86,8.14,9.62,3.21,22.02-7.78,22.25,0,0,0,0-.01,0h0Z"/>
    <path id="uuid-881c6ac7-1326-48ea-a8ca-e96dd7a89890" data-name="path147-6-9-8-7-4-5-62-52-8-0" class="uuid-66f0296c-486c-4d02-adf6-45f7959f7a15" d="m19.19,56.11c-4.4.1-6.37,5.26-3.11,9.27.47.58.52.92-.34.36-2.19-1.53-6.4-.52-6.61,4.15-.27,5.76,7.45,7.42,8.9,1.29.08-.65.58-.63.46.29-.13,2.49-.88,4.82-1.9,7.09h5.23c-1.02-2.27-1.77-4.6-1.9-7.09-.12-.92.38-.93.46-.29,1.45,6.13,9.17,4.47,8.9-1.29-.22-4.67-4.42-5.68-6.61-4.15-.87.56-.82.23-.34-.36,3.26-4.01,1.29-9.17-3.11-9.27,0,0,0,0,0,0h0Z"/>
    <path id="uuid-38dc580c-4a90-4327-bb0b-c30e235ef615" data-name="path31-6-7-6" class="uuid-66f0296c-486c-4d02-adf6-45f7959f7a15" d="m7.97,52.59V15.55h3.58v37.04h-3.58Z"/>
    <path id="uuid-a3a0eb08-f5cb-4e80-a6c1-a3c9f497a7d9" data-name="path33-9-3-6" class="uuid-66f0296c-486c-4d02-adf6-45f7959f7a15" d="m22.17,15.55c-3.45,0-6.22,3.16-6.22,7.08v22.88c0,3.92,2.77,7.08,6.22,7.08h2.01c3.45,0,6.23-3.16,6.23-7.08v-22.88c0-3.92-2.78-7.08-6.23-7.08h-2.01Zm1.04,3.5c2.04,0,3.67,1.57,3.67,3.52v23.19c0,1.96-1.64,3.54-3.67,3.54s-3.68-1.58-3.68-3.54v-23.19c0-1.96,1.64-3.52,3.68-3.52Z"/>
    <path id="uuid-9c3468ec-e4c0-45dd-8148-20669b170e19" data-name="path31-1-4-0-7" class="uuid-66f0296c-486c-4d02-adf6-45f7959f7a15" d="m241.84,297.43v37.04h-3.58v-37.04h3.58Z"/>
    <path id="uuid-05ba8720-1560-43e9-9dd3-e9423a0c2069" data-name="path33-5-7-4-0" class="uuid-66f0296c-486c-4d02-adf6-45f7959f7a15" d="m227.64,334.47c3.45,0,6.22-3.16,6.22-7.08v-22.89c0-3.92-2.77-7.08-6.22-7.08h-2.01c-3.45,0-6.23,3.16-6.23,7.08v22.89c0,3.92,2.78,7.08,6.23,7.08h2.01Zm-1.04-3.5c-2.04,0-3.67-1.57-3.67-3.52v-23.19c0-1.96,1.64-3.54,3.67-3.54s3.68,1.58,3.68,3.54v23.19c0,1.96-1.64,3.52-3.68,3.52Z"/>
  </g>
</svg>