<?xml version="1.0" encoding="UTF-8"?>
<svg id="uuid-512a6b9a-22d5-4d75-a0e8-55653c6ab2f9" data-name="Cards" xmlns="http://www.w3.org/2000/svg" viewBox="0 0 250 350">
  <defs>
    <style>
      .uuid-da58ff5f-f61c-4ba5-845e-1416e0de0385, .uuid-aac615d5-b344-4d8d-9947-48a76d62d72c, .uuid-d20bb16c-1658-486d-a569-e40e2ca8163c, .uuid-7d4f99ab-f697-492a-83ff-c552d696102b, .uuid-5b4bc527-97d5-40aa-975e-001c5a318ccc {
        stroke-width: 0px;
      }

      .uuid-aac615d5-b344-4d8d-9947-48a76d62d72c {
        fill: #c8102e;
      }

      .uuid-d20bb16c-1658-486d-a569-e40e2ca8163c {
        fill: #fff;
      }

      .uuid-7d4f99ab-f697-492a-83ff-c552d696102b {
        fill: #ffcd00;
      }

      .uuid-5b4bc527-97d5-40aa-975e-001c5a318ccc {
        fill: #004c97;
      }
    </style>
  </defs>
  <g id="uuid-6138a868-89e1-4792-9460-5f299a1b153a" data-name="CLUB-13-KING">
    <path id="uuid-9f6b7949-90e4-4ab4-92e8-5b3a86bbd6f8" data-name="rect6355-6-85-3-64-3-5" class="uuid-d20bb16c-1658-486d-a569-e40e2ca8163c" d="m11.85.07h226.06c6.6,0,11.96,5.36,11.96,11.97v326.03c0,6.61-5.35,11.97-11.96,11.97H11.85c-6.6,0-11.96-5.36-11.96-11.97V12.04C-.11,5.43,5.24.07,11.85.07Z"/>
    <path id="uuid-7c97c2cc-4d47-4405-b53f-2ee0f77f3eb4" data-name="path147-6-9-8-7-0-5-6-9-6-3" class="uuid-da58ff5f-f61c-4ba5-845e-1416e0de0385" d="m230.59,293.95c4.4-.1,6.37-5.26,3.11-9.27-.47-.58-.52-.92.34-.36,2.19,1.53,6.4.52,6.61-4.15.27-5.76-7.45-7.42-8.9-1.29-.08.65-.58.63-.46-.29.13-2.49.88-4.82,1.9-7.09h-5.23c1.02,2.27,1.77,4.6,1.9,7.09.12.92-.38.93-.46.29-1.45-6.12-9.17-4.47-8.9,1.29.22,4.67,4.42,5.68,6.61,4.15.87-.56.82-.23.34.36-3.26,4.01-1.28,9.17,3.11,9.27,0,0,0,0,0,0h0Z"/>
    <path id="uuid-8e5068db-b5a9-4ecd-952b-adcf380f0ee4" data-name="path147-6-9-8-7-4-5-62-08-0-2" class="uuid-da58ff5f-f61c-4ba5-845e-1416e0de0385" d="m19.17,56.16c-4.4.1-6.37,5.26-3.11,9.27.47.58.52.92-.34.36-2.19-1.53-6.4-.52-6.61,4.15-.27,5.76,7.45,7.42,8.9,1.29.08-.65.58-.63.46.29-.13,2.49-.88,4.82-1.9,7.09h5.23c-1.02-2.27-1.77-4.6-1.9-7.09-.12-.92.38-.93.46-.29,1.45,6.12,9.17,4.47,8.9-1.29-.22-4.67-4.42-5.68-6.61-4.15-.87.56-.82.23-.34-.36,3.26-4.01,1.28-9.17-3.11-9.27h0Z"/>
    <path id="uuid-8e4ea4ce-28d9-4d00-8b34-a4d69f12db41" data-name="path39-7-2-1" class="uuid-da58ff5f-f61c-4ba5-845e-1416e0de0385" d="m20.06,48.56h3.72l-5.46-13.68-4.17,5.78.03,7.9h2.93v4.07H6.78v-4.07h3.4v-29.41h-3.4s0-3.55,0-3.55h10.48v3.68h-2.89l-.06,14.33,9.15-14.45h-3.23v-3.56h11.15v3.56h-2.94l-7.53,11.81,7.37,17.59h3.27l.02,4.07h-11.46l-.03-4.08h0Z"/>
    <path id="uuid-a955dde2-0f25-46eb-9d92-613b38d431a0" data-name="path39-3-8-1-1" class="uuid-da58ff5f-f61c-4ba5-845e-1416e0de0385" d="m229.69,301.55h-3.72l5.46,13.68,4.17-5.78-.03-7.9h-2.93v-4.07h10.33v4.07h-3.4v29.41h3.4s0,3.55,0,3.55h-10.48v-3.68h2.89l.06-14.33-9.15,14.46h3.23v3.56h-11.15v-3.56h2.94l7.53-11.81-7.37-17.59h-3.27l-.02-4.07h11.46l.03,4.08h0Z"/>
    <g id="uuid-f3515af6-5e01-454e-ae87-aa30dc615649" data-name="g5429-3-1-8">
      <g id="uuid-afd1b8b3-bbc8-4e3f-a0aa-8c2b87cc8f27" data-name="layer1-6-4-4-1">
        <g id="uuid-04f7c73a-01c3-48f0-a900-a3d65a942567" data-name="KC-7-1-9">
          <g id="uuid-2110616b-1325-427d-9ea5-d3098c2831f9" data-name="g3440-6-4-8">
            <g id="uuid-53bd407f-d74e-4df6-b343-99025da131fc" data-name="g3454-7-1-1">
              <path id="uuid-d1cb5b9b-6b1e-425f-8e2c-dc5a9d105892" data-name="path3450-5-0-3" class="uuid-7d4f99ab-f697-492a-83ff-c552d696102b" d="m180.14,29.19l-91.9.45,11.67,22.34c23.89-2.17,44.82-.24,66.63.48l13.61-23.27Zm-62.77,78.55c-.1.13-3.82,1.1-3.44,1.96,9.73,21.05,14.08,38.18,18.14,59.82,2.05-1.68,5.38-1.62,5.38-1.62-1.64-8.03,8.39-9.04,8.45-.63,1.92.45,3.9.46,5.64,2.42.78-23.64,9.67-48.73,20.52-65.68-12.36,4.94-30.99,17.88-30.99,17.88,0,0-15.09-6.3-23.7-14.15Zm75.12,2.52c-16.45,15.77-22.41,58.14-21.71,60.16-21.2-.71-27.63,22.9-9.25,35.63-.73,2.47-2.52,4.48-3.91,6.66,1.9,1.1,3.96,1.33,6.03,1.56,1.57,1.88,3.11,4.05,4.82,4.22,1.85-1.18,3.16-2.9,4.7-4.39,1.92-.49,3.83-1.04,5.65-1.88-1.61-2.28-3.53-4.58-3.58-6.71,15.98-11.38,13.79-26.85-.62-34.77,2.13-27.19,10.09-42.95,17.82-54.54l.05-5.94Zm-113.28,20.13c-2.09,1.03-3.23,3.2-4.75,4.91-2.08.1-4.09.81-6.07,1.71,0,0,4.77,6.65,4.47,7.01-15.46,10.22-15.33,25.17-.49,35.01,2.51,21.27-15.38,54.93-16.28,53.95l-.03,6.96c12.73-14.06,20.01-39.45,20.73-59.95,25.43-1.71,26.33-26.53,8.82-35.86-1.35-1.25,4.4-7.01,4.4-7.01-1.46-1.45-3.9-1.62-6.04-1.79-1.35-1.63-2.52-3.25-4.77-4.93Zm125.71,18.49c1.62,2.88,6.05,5.22,6.52-.2-.76-4.07-3.41-4.97-13.93-3.2-6.2,2.78-5.48-4.54-8.52-1.67-9.89,9.3,15.73,8.28,15.93,5.06Zm-5.95,10.48c-2.95,0-3.45,11.64-3.41,15.14-8.54,13.62,17.51,12.07,6.25-2.77.49-1.53-1.27-4.42-1.39-6.5-.92-.12-1.33-5.38-1.45-5.88Zm-152.48,17.56c-.27,3.52,2.29,14.21,3.23,13.85,3.34-5.43,2.94-10.07,2.6-15.38,7.95-15.45-19.21-9.11-5.83,1.53Zm49.57,2.48c-1.19,22.75-6.7,45.06-19.21,64.42,10.76-5.07,21.21-11.6,31.31-17.2l23.62,14.77c1.37-.6,2.31-.89,3.22-1.8-10.88-16.08-14.25-39.22-18.99-60.16-1.8,1.29-5.2,1.94-5.2,1.94-.24,7.26-7.78,9.61-9.32.14l-5.43-2.11Zm-57,17.75c-2.52.16-4.41,6.46,2.72,7.39,5.04.72,11.49-1.78,14.68-.63,3.72,5.99,7.06-2.83,2.09-4.27-5.34-1.55-16.21,2.49-17.42-.94-.62-1.17-1.37-1.61-2.08-1.56Zm42.84,98.53l-14.25,25.42,91.1-.55-11.91-24.25c.2-.27-39.79,4.8-64.94-.62Z"/>
              <path id="uuid-a6c43ac7-b256-497b-961d-adbe26571b12" data-name="path3446-6-3-4" class="uuid-aac615d5-b344-4d8d-9947-48a76d62d72c" d="m130.56,51.13c-9.34.08-19.02,1.05-29.23,3.28l1.81,3.31c21.34-3.55,38.14-4.11,60.22.2l2.01-3.45c-11.33-2.06-22.79-3.45-34.81-3.35Zm-6.98,48.22s-1.41,3.2-2.12,4.9l18.62,12.17s8.92-6.37,12.72-9.06l-2.31-3.42c-7.87,17.54-21.72,3.67-26.91-4.58h0Zm55.09,1.24l-5.53,3.37c-12.75,19.15-21.45,43.27-20.76,74.81,4.71-5.44,10.56-8.94,18.69-8.45,1.03-22.81,8.86-43.09,21.4-61.36l-13.79-8.38Zm-1.4,6.92c.82-.06,1.75.18,2.67.79,2.11,1.42,2.01,4.86-.29,5.49-1.86.51-1.91,1.01-.27.93,2.93-.14,3.71,3.81,1.63,5.74-2.4,2.22-5.45.65-5.73-2.14-.13-.79-.29-.78-.55-.33-.74,1.29-.81,2.96-.66,4.47l-4.33-2.71c1.54-.77,2.48-1.24,3.6-2.41.15-.15.25-.27.25-.33,0-.12-.48.04-1.36.13-2.62.28-4.63-1.44-4.09-3.93.46-2.12,1.54-3.04,3.36-3.08,1.29-.03,2,.48,2.65,1.8.73,1.5,1.01,1.13.54-.74-.51-2.03.79-3.56,2.61-3.69Zm-128.28,17.98s-9.34,7.07-13.68,10.48l.21,62.89c1.3-.48,3.23-2.17,4.35-2.79-2.6-2.32-1.93-4.1-2.44-5.81-1.17-1.81-.1-3.16-.29-4.29-.28-8.02,1.16-9.08,7.6-9.8-1.36.49-4.79-10.04,4.49-9.99l-.23-40.69Zm117.8,3.51c3.49-.05,6.37,2.77,6.42,6.3.05,3.53-2.74,6.43-6.23,6.48-3.49.05-6.37-2.77-6.42-6.3-.05-3.53,2.74-6.43,6.24-6.48h0Zm.06,1.14c-2.8.04-5.03,2.36-4.99,5.19.04,2.83,2.34,5.09,5.14,5.05,2.8-.04,5.04-2.37,4.99-5.2-.04-2.83-2.35-5.08-5.14-5.04Zm.13,1.62c1.9-.03,3.46,1.5,3.49,3.42.03,1.92-1.49,3.5-3.39,3.53-1.9.03-3.45-1.51-3.48-3.42-.03-1.92,1.48-3.49,3.38-3.52Zm-125.59,2.63c.26,0,.53.03.81.12,1.58.51,2.13,1.91,1.27,3.24-.67,1.04-.6,1.13.58.69.92-.35,1.4-.24,2.12.49,2.18,2.18-1.07,5.85-3.2,3.63-1.06-1.1-1.16-.78-.42,1.12.24.61.63,1.56.63,1.56l-3.13-.05s.49-1.26.71-1.86c.54-1.43.56-1.64-.57-.74-2.55,2.03-5.44-1.45-3.09-3.72.48-.46,1.24-.48,2.31-.06.78.31.87.09.29-.65-1.27-1.61-.1-3.75,1.71-3.78h0Zm125.67.06c-.49,0-.89.4-.89.89,0,.49.4.89.89.89.49,0,.89-.4.89-.89,0-.49-.4-.89-.89-.89Zm-60.93,4.78c-1.27,8.43.04,21.05.01,27.37,3.4.65,3.43,2.99,3.96,5.9,1.65-.58,5.26,1.88,5.76,1.67.39-8.15-4.08-30.18-9.72-34.93h0Zm56.56,9.24c4.82.39,3.9,4.15,2.46,5.7-.68.79-.55,1.15.19.69,2.04-1.24,3.65-.34,4.31,1.8,1.12,3.66-3.64,6.81-5.76,3.53-.72-1.11-1.16-.86-.98.3.11,1.12,1.19,3.45,1.19,3.45l-4.73-.43s1.45-2.43,1.7-3.08c.53-1.36.25-1.72-.76-.62-2.96,2.74-7.06-.77-5.15-4.39.94-1.79,2.68-2.37,4.56-.94,1.26.83,1.54.47.41-.54-2.11-1.89-.27-5.68,2.57-5.45Zm49.06,1.52c-5.3,5.54-3.64,2.27-1.18,6.49,1.32,7.26-.32,7.37-.11,10.83.41,4.65-3.91,5.42-7.74,6.2.62-.04,5.93,9.87-3.98,10.64l.11,40.27,15.52-11.56-.07-62.86h-2.56Zm-169.97,1.46c.41,0,.83.12,1.25.36,1.18.67,1.5,1.99.76,3.13-.42.66-.3,1.07.19.64.66-.58,2.12-.19,2.68.71,1.46,2.31-1.39,5.33-3.21,3.41-.8-.85-1.11-.88-1.02-.33.26,1.05.94,2.83.94,2.83l-3.28.06s.71-1.88.87-2.83c.12-.75-.18-.64-.96.25-.76.87-1.45.96-2.42.31-2.39-1.6-.48-5.71,2.01-4.33.86.48.98.2.31-.69-1.2-1.6.03-3.43,1.7-3.52.05,0,.11,0,.16,0h0Zm53.47,19.8c-3.92,3.14-10.29,10.19-18.36,8.47-.94,25.13-9.1,44.58-20.74,61.29,4.02,2.4,8.44,5.28,12.55,7.13,3.48-1.81,5.43-2.57,8.84-5.4,13.99-21.84,18.43-45.72,17.71-71.49Zm36.54,4.6c.79,12.9,2.86,25.12,9.51,34.93l.45-27.42c-2.37-.57-4.31-2.12-5-6.5l-4.96-1Zm-48.01,7.61l4.44.11s-1.01,2.03-1.44,3.16c-.53,1.39-.28,1.67.73.71,1.32-1.25,3.42-1.37,4.52-.25,2.93,2.97-.13,7.81-3.6,5.69-1.49-.91-1.73-.6-.56.68,2.29,2.15-.1,5.25-2.78,5.26-1.94,0-3.19-1.57-3.35-3.3-.07-1.08.46-2.17,1.4-2.7.97-.55.28-.91-.78-.34-3.45,1.87-5.75-2.94-3.15-5.68,1.5-1.58,3.09-1.43,4.61.07,1.06,1.05,1.45.96,1.15-.28-.3-1.4-1.19-3.13-1.19-3.13h0Zm119.83,3.78h3.18c-.31.8-.72,1.61-.97,2.4-.27.86-.07.97.77.14,2.19-1.49,4.53,0,4.06,2.36-.33,1.63-1.68,2.42-3.23,1.72-1.37-.62-.93-.36-.15.59.93,1.13.69,2.44-.54,3.32-2.17,1.54-5.04-1.02-3.6-3.26.85-1.33.46-1.19-.31-.54-1.16.86-2.91-.35-2.94-2.03-.13-2.41,2.28-3.77,3.98-2.07.81.69,1.01.61.64-.4-.34-.73-.44-1.51-.89-2.22h0Zm3.5,17.52s-.05.26-.56,1.23c-.6,1.15-.51,2.33.12,1.53,1.06-1.36,3.32-.98,4.06.68.86,1.93-.82,4.07-2.56,3.26-1.13-.53-1.21-.41-.46.69.73,1.07.41,2.39-.78,3.15-2.34,1.51-5.15-1.5-3.2-3.43.52-.52.36-.77-.27-.42-2.58,1.42-4.49-2.11-2.26-4.17.95-.88,1.68-.82,3.24.27.49.34.58-.01.23-.87-.6-1.47-.9-1.87-.9-1.87l3.33-.04Zm-127.08,2.15c3.71-.05,6.76,2.94,6.81,6.69.05,3.75-2.91,6.83-6.62,6.89-3.71.05-6.76-2.94-6.82-6.69-.05-3.75,2.91-6.83,6.62-6.88h0Zm.08,1.21c-3.05.04-5.48,2.57-5.44,5.65.04,3.08,2.55,5.54,5.6,5.5s5.48-2.58,5.44-5.66c-.04-3.08-2.55-5.54-5.6-5.49Zm.06,2.14c1.88-.03,3.42,1.48,3.44,3.38.03,1.9-1.47,3.46-3.34,3.49-1.88.03-3.42-1.49-3.45-3.39-.03-1.9,1.47-3.45,3.35-3.48h0Zm.04,2.67c-.49,0-.89.4-.89.89,0,.49.4.89.89.89.49,0,.89-.4.89-.89,0-.49-.4-.89-.89-.89Zm-8.49,13.78l3.88,1.92s-1.83,1.51-2.56,2.28c-.93,1-.87,1.47.39.99,2.4-.91,4.81.45,4.85,2.97.06,3.36-3.88,4.98-5.76,2.43-.56-.76-1.23-1.07-.97-.45.64,1.5.25,3.4-.87,4.18-.89.62-2.52.81-3.35.38-2.83-1.48-2.98-4.78-.27-6.08,1.36-.65,1.41-1.27.07-.93-2.79.7-4.41-2.71-2.4-5.05,2.13-2.49,5.61-1.97,6,1.71.07.65.51.18.71-.82.24-.74.29-3.52.29-3.52h0Zm36.15,5.53l-13.77,8.51,3.15,4.41c7.05-16.13,23.92-2.77,26.62,5.46.59.36.69.26,1.32.55.06-.58,1.23-6.3,1.23-6.3l-18.56-12.63Zm36.41,59.31c-23.25,5.99-60.05.68-59.69.25l-2.29,3.29c-.79.34,35.4,6.53,63.95.24l-1.98-3.79Z"/>
              <path id="uuid-f12f219e-e5c0-4754-a3d4-83e630e35f05" data-name="path3444-9-5-7" class="uuid-5b4bc527-97d5-40aa-975e-001c5a318ccc" d="m33.06,26.9v296.31h183.65V26.9H33.06Zm147.27,1.93l-17.04,29.48c.16-1.55-33.13-6.32-60.35-.51l-14.81-28.61,92.21-.36Zm32.85.48l.54,120.33,1.13,63.07-15.93,11.72-.23-40.41s-2.28-1.1-2.88-1.18c-.22-.02-.51.49-.11.75.59.38,2.03.91,2.03.91l.34,40.05c-12.96,9.4-29.15,15.94-41.46,21.12-1.01-3.36-10.97-11.22-22.17-5.67-1.03.38-2.29.72-3.15,1.32-4.27.79-5.67,5.4-6.32,9.88-.02.18.34.14.35.15.05.06,1.02-4.3,1.4-5.13.82-1.76,1.86-2.82,2.41-2.99.25-.04.47.35.13.97-.67,1.23-1.22,3.86-1.39,5.04-.15,1.09-.17,1.97.03,2.01.04.03.99-3.31,1.42-4.49,1.12-3.08,1.83-4.35,2.91-5.01,1.11-.67,1.37-.58,1.15.14-1.65,3.25-2.33,5.7-2.65,9.16-.05.69.3.71.57-.43.9-3.63,2.14-8.54,5.07-10.01,1.25-.57,1.8-.54,1.67-.14-3.49,4.45-4.36,9.39-4.32,10.98.01.53.23.43.67-.72,1.18-4.38,2.93-8.11,5.01-9.94.8-.71,1.78-.9,2.59-1,2.46-.31,2.55.61.4,1.87-2.44,1.44-5.26,6.66-5.58,10.58-.11,1.36.37,1.5.7-.31,1.45-7.8,8.06-12.95,13.37-10.56,2.39,1.07,2.82,2.57.74,1.9-4.2-1.34-8.87,1.67-10.8,5.87-1.74,3.8-1.7,5.79-.48,10.88.83,4.7,2.46,10.7,1.92,15.3-.58.89-2.4-.37-4.56-.64-1.3-.25-2.89-.31-4.25.22-1.18.46-1.85.57-2.07-.07-.07-.21.91-1.22,1.35-1.78.31-.39.46-.84.46-.84,0,0-.59.22-1.15.77-.48.48-1.52,1.59-1.81,1.65-.62.13-.65-.58-.14-2.39,1.77-7.02,1.29-7.13-1.74-8.56-3-1.15-2.05-1.74-3.38-2.89-.94.74,1.22,4.13,3.67,4.87,2,.61,1.75,1.64.88,4.42-.89,3.89-2.4,9.03-1.53,12.49,1.84,7.25,9.13,7.1,14.71,4.17l.68,1.85c-4.72,1.93-29.6,3.58-37.98,2.61-.65-2.29-.71-2.88-.98-5.57,0,0,5.18,2.36,7.76,2.77,3.23.51,8.2.54,9.47-2.47.39-.88-.01-1.62-1.12-1.11-2.05.94-5.55,1.63-8.37,1.45-2.37-.15-5.75-1.11-7.22-2-.69-.42-1.28-1.25-.74-2.29.48-.11,1.12.43,1.49.62,4.28,2.18,6.69,2.77,9.42,1.77,1.82-.67,3.86-1.58,4.27-3.6-1.58.8-3.04,2.24-4.73,2.7-3.36.92-6.96-.48-10.46-2.77-1.08-.95-.59-1.64.74-.88,5.24,2.67,7.43,4.43,12.45.69,1.12-.84,1.75-.73,2.4-.22,2.6,2.36,2.6,1.03.69-1.42-.43-.56-.83-1.33-1.09-2.16-.19-.61-.24-1.23-.58-1.63-.59-.69-1.66-1.02-2.88-1.56-1.12-.5-1.93-.35-1.93-.35,0,0,.42.35.89.58,2.27,1.12,3.38,2.32.56,1.67-2.56-1.16-6.84-.51-9.26,1.19-1.9.94-2.74,1.94-3.18-.18-.94-4.42-.02-10.41-1.28-18.12-.24-1.47-.54-2.4-.23-2.6.39-.26,1.37.7,2.58,2.41.55.78,1.65,2.29,1.64,1.97.04-1.63-2.47-4.7-4.55-5.9-1.14-.66-1.91-3.73-.61-3.06,1.01.5,6.24,5.15,7.24,6.81.46.77.85.28.36-.63-.29-.54-1.52-2.14-2.72-3.32-2.12-2.09-2.37-2-1.96-2.42.81-.85,2.53.25,5.61,3.06.79,1.01,1.83,1.91,1.71,1.41.31-.78-2.76-4.13-4.59-5.02-.34-.22-.39-.44-.36-.86.17-1.58,3.71.74,6.64,3.45,1.1,1.01.19-.89-1.09-2.19-1-1.02-2.61-2.29-3.71-2.72-1.09-.45-1.15-1.41-.3-1.81,2.94-.13,5.98,2.91,7.79,5.3.5.66.96,1.16.44-.08-1.68-3.74-5.16-5.84-7.58-6.27-1.96-.35-1.92-2.13-.07-1.93,2.03.22,5.35,2.07,8.16,4.93.82.83,2.2,2.72,1.91,1.61-.01-.3-.87-1.48-1.87-2.62-2.3-2.31-4.98-4.35-7.82-4.96-1.33-.38-5.27.39-5.29-.3-.01-.51.41-.82,1.67-1.24,4.87-1.64,11.99,2.59,15.89,9.09.28.46.81.66.84.56-1.88-5.31-7.73-10.12-12.38-10.95-3.16-.51-6.35.3-7.87,2.46-1.71,2.42-1.04,5.66,1.52,5.4,1.34-.13,1.24-.89,1.21-.92-.09-.09-.87.28-1.36.18-1.75-.35-1.57-3.55.99-3.23,2.95.36,3.37,5.06.07,6.05-3.04.91-4.16-.49-4.99-2.16-1.22-2.44.09-6.37,2.24-7.88,6.01-4.22,13.62-.68,17.92,3.5,2.13,2.07,3.68,4.53,4.65,7.19.25.62.79.55.54-.08-6.05-15.61-24.12-17.43-26.76-5.31-4.37-6.93-8.2-7.41-14.06-4.39-5.98,2.5-8.92,4.53-14.45,7.15l-12.54-6.8c-.74-12.58-.32-25.2-.27-37.8.04-.29-2.72.2-7.3.93-12.19,2.46-11.14-4.14-12.73-4.47-.85-.17-.79.2-1.02-23.03-.07-6.75-.2-18.6-.3-26.36-.1-7.75-.12-14.21-.06-14.34.07-.14.75-.73,1.54-1.29,2.97-2.13,4.64-3.41,11.14-8.42,1.47-1.13,1.84-1.33,1.84-1.33.75,13.95.08,28.61.44,40.61h.55s-.21-40.28-.21-40.28c-1.12-.3,25.63-16.11,40.28-21.24.27-.1.96.21.96.21,8.41,10.42,30.55,7.26,32.33-5.42,3.67,7.73,19.78,22.75,27.14,4.65,0,0,2.67,5.2,4.96,5.55,5.15.69,5.72-.13,17.04-5.68-12.95,19.85-20.09,40.86-21,66.32-1.77-2.58-5.49-2.47-5.8-2.28.02-2.43-.41-5.72-4.03-6.07-3.68-.28-5.57,4.63-4.17,6.7-2.27-.95-5.68,1.44-5.68,1.66-.29,0-2.89,6.96,4.99,7.32.72,3.28,1.94,4.87,4.46,6.22l.06,26.79.89,1.22.08-28.07c4.03-.18,4.53-4.84,4.23-5.92,1.79.08,3.42-.28,4.79-1.34l.47,4.57s.95-1.61.74-2.47c-1.75-26.31,7.67-54.77,20.03-73.22.66-.77.86-1.7,1.19-1.71,3.02-1.64,4.92-2.75,4.92-2.75,4.97,2.41,13.85,8.24,13.85,8.24l.14,37.49c-.14-.37,16.55-1.88,16.3-1.42,0,0-1.46-.58-1.48-1.56l-.43-87.73-7.3-4.82s-6,3.96-7.68,5.32l.18,51.65-12.93-7.65s.21-1.83.22-2.42c.55-5.97-3.61-9.38-10.15-7.32-.87.28-1.48.53-1.91.16-2.75-8.11-3.98-29.42-3.98-29.42l18.4-31.49,31.21-.17Zm-177.52.56h50.14l16.91,30.59s.99,1.91.4,3.91c-.65,2.18-1.2,3.15-1.79,4.26.06-.64-4.87-1.27-4.46,3,.28,2.89,3.89,4.52,6.59,2.27.43-.04.43.37.33,1.07-.25,1.65-1.99,6.9-3.18,7.25-6.07-5.03-8.24,4.15-4.14,5.99,2.37,1.06,6.01.19,7.72-2.69,1.3-2.2,1.16-1.84,1.57.83.15.99.37,2.15.48,2.66.35,1.62,0,1.93-2.7,2.67-2.17.85-4.37,1.33-6.61,1.81-4.09.68-6.18,3.8-6.28,7.59-.02.82.01,1.2-.17,1.44-17.31,6.64-35.52,15.92-54.81,31.78V29.88Zm164.92,22.7s3.55,2.37,5.27,3.56l.02,3.81-5.13-3.39-.16-3.98Zm-1.87.57c1.1,3.51,1.09,11.02.68,14.37-.69,2.18-1,11.88-.21,16.82.62,3.94.51,10.44-.08,13.56-.23,1.22-.05,6.92.38,12.2.33,4.03.24,7.7-.25,9.8-.38,1.65-.25,7.58.19,9.85.64,3.34.75,14.09.46,14.67-.76.87-6.69.99-6.29.69l-.17-88.43s3.53-2.37,5.29-3.54h0Zm-64.42,4.71c4.98-.03,8.36.12,8.33.18.48,1.93.66,3.85.85,5.78,0,0-4.53-2.24-6.89-2.99-3.64-1.13-9.39.11-10.41,2.22-.58,1.2-.28,1.99,2.17.66,4-2.18,12.17-.52,15.05,1.79.66.53.63.65.64,1.27.02.95.07,1-1.24.3-6.87-3.55-12.73-3.14-14.76,1.52-.47-.14-2.25-.45-2.25-.45l1.91,2.86.36,2.99c1.9.99,2.47,1.3,5.69,2.81,0,0-1.06-1.03-2.2-1.83-1.53-1.07-.31-1.42.7-1.01,2.07.48,5.1,1.09,8.61-1.16,1.09-.7,3.58-.09,3.62.22,0,0,.33,2.62.66,8.07.16,2.58.47,5.95.65,7.34.54,4.18.69,4.42-1.48,2.41-.73-.67-1.95-1.79-1.96-1.72-.28,1.3,2.93,3.57,3.68,4.35,1.14,1.19,2.05,4.22,1.59,4.4-.29.11-3.34-2.5-5.74-4.85-.9-.88-2.24-2.06-2.28-2.02-.5.33,1.52,2.63,3.41,4.35,2.2,2.01,2.46,2.19,1.72,2.49-1.37.56-2.6-.14-5.92-2.91-.32-.27-1.58-1.17-1.64-1.11-.3.41,2.76,3.34,3.46,3.59,1.29.47,1.66,1.73.64,2.22-.68.33-3.22-1.07-5.25-2.85-.36-.32-1.37-.86-1.44-.79-.4.26,1.87,2.25,4.04,3.57,2.12,1.29,2.46,1.61,1.92,2.68-.5,1.11-5.16-1.45-7.49-4.09-.5-.56-.89-.8-.79-.61,1.02,2.84,4.36,4.88,6.84,5.69.44.15,1.09.33,1.38.56.71.57.55,1.16-.22,1.49-2.65.75-6.83-2.49-9.82-5.89-.35-.14-.14.3-.05.45,2.49,4.02,7.27,7.08,10.15,6.51,1.68-.33,3.03.18,3.05.75.01.47-.92,1.21-2.72,1.34-4.09.29-10.48-4.23-14.22-9.98-.12-.18-.25-.25-.26-.14-.1,1.22,2.22,4.21,4.01,5.93,5.3,5.09,10.31,6.81,14.21,3.94,2.2-1.72,4.33-5.5,1.05-6.76-1.74-.67-2.84,1.75-1.35,1.06,1.95-.24,2.4.81,2.14,1.79-.5,1.69-2.15,1.96-3.5,1.25-2.34-1.28-1.85-5.68,1.19-6.45,2.73-.67,5.12,1.68,5.43,3.9.49,3.45-3.36,7.18-6.45,8.11-10.54,3.17-18.77-11.63-18.82-11.96-.53-1.03-1.16-1.57-1.57-.38-.43,1.74-2.81,6.83-4.08,6.8.4-1.8,2.06-4.81,1.66-7.46-.7,2.17-2.19,6.8-5.02,9.27-.74.68-2.89,1.48-1.41-.27,1.79-2.55,4.14-6.03,3.66-9.3-.48.74-.74,2.6-1.28,3.82-1.36,3.08-4.34,6.73-6.3,7.32-1.45.44-1.31-.06.17-1.64,1.59-1.69,4.41-6.67,4.23-8.82-.08-.95-2.93,8.19-8.27,10.7-1.44.53-2.26-.14-2.26-.14,2.1-1.22,7.91-7.01,7.36-13.58,0,0-.31.97-.77,2.43-1.97,6.27-6.2,10.4-9.49,10.74-2.63.27-4.47-.8-3.82-1.27,3.41.03,6.22-1.17,8.41-4.53,2.23-3.42,3.06-8.9,1.71-14.71-1.22-5.24-1.48-9.95-1.91-14.98,3.74,1.29,7.5,2.15,11.14.71-.37,1.5-.97,1.68-1.93,2.82-.25.29-.32.58-.32.58,1.35-.45,4-2.43,4-2.43,0,0-.33,1.86-1.12,4.94-1.18,4.6-.88,4.93,3.5,6.67.82.32,1.12.64,1.41.99.13.16.85,1.47.92,1.51.16.11.12-1.33.03-1.7-.23-.97-.75-1.69-1.2-1.98-.86-.8-2.1-.87-2.89-1.24-1.18-.56-1.64-.54-1.41-1.85.15-.86,1.36-6.65,1.94-8.88,1.73-6.7.1-10.41-4.79-11.9-3.31-1.01-6.17-.5-9.55,1.32l-.61-1.89c8.85-2.34,21.61-2.89,29.91-2.94h0Zm66.72.07l4.78,3.27.05,4.14-4.82-3.23v-4.18Zm-56.97.17l2.12.24s.79,3.07,1.65,11.35c.42,4.11.87,12.65,1.22,16.57.53,5.83,3.14,15.16,4.76,17.51,2.63,3.84,7.93,1.36,6.16-3.2-.92-2.37-4.48-1.98-3.98.47.01.44.34-.31.86-.78,1.54-.59,3.27,1.03,2.37,2.98-1.12,2.49-4.44,1.35-5.54-1.78-1.31-3.74,3.12-6.55,6.43-4.27,3.69,2.54,3.7,8.99.72,11.02-5,1.84-8.41-1.84-10.04-5.6-.66-1.07-2.75-6.7-3.33-9.04-1.5-11.38-1.79-24.88-3.39-35.47Zm3.5.63l2.2.14c.88,4.6,1.26,9.84,1.6,15.09.11,8.09,1.1,16.63,2.98,22.22l-1.61,1.71c-2.75-6.41-2.97-16.52-3.58-23.36-.27-7.7-1.52-15.74-1.59-15.79Zm3.17.31l1.93.21c.59,5.47,1.49,9.18,1.83,15.2.44,7.79,1.78,14.19,2.61,20.27l-1.45.48c-.97.45-2.57-6.74-3.29-21.31-.22-4.41-.96-9.37-1.64-14.85Zm2.92.2l2.3.42c1.02,13.84,2.63,26.84,4.31,34.28l-2,.41c-2.49-10.64-2.65-23.24-4.62-35.11Zm3.33.49l2.12.37c2.55,31.65,4.12,31.24,4.61,32.48l-2.29.94c-2.48-9.09-2.98-21.92-4.44-33.79Zm3.03.59l2.53.26c-.08.06,1.79,25.95,4.06,30.24-.36,1.07-1.22.97-2.16,1.08-1.05-2.91-1.66-6.37-2.1-9.77-.97-7.46-1.32-14.45-2.32-21.8Zm-47.78,2.68c3.33.16,6.09,1.67,6.36,3.88.06.5-.33.25-.78-.09-2.86-2.22-6.13-2.91-10.06-1.48-.86.31-1.56.8-1.94.74-.34-.22-.45-.76-.19-1.21.92-1.55,4.96-1.92,6.61-1.84h0Zm88.85.56l4.81,3.32-.03,3.59-5.12-3.46.34-3.45Zm-96.87,1.03s.29,1.98.29,2.85c.07,3.49-.77,5.41-2.58,6.21-2.18.97-4.99-1.11-3.62-3.44,1.03-1.76,2.8-1.23,3.13.62l2.78-6.24Zm6.88,1.13c.23,0,.47,0,.7,0,1.12.05,2.23.29,3.23.69,2.52,1.01,3.45,2.24,3.54,2.79-.15.41-.4.13-2.24-.87-2.84-1.76-6.54-2.05-9.79.19-.81.16-.89-.3-.08-1.18,1.35-1.07,2.99-1.57,4.63-1.62h0Zm23.1.03c2.22-.07,4.87.5,7.12,1.63.99.5,1.88.82,2.53,1.39.52.27.56,1.46.18,1.55-.34.05-.89-.22-1.72-.8-5.33-3.49-9.16-3.06-12.24-.91-.17.12-.7.24-.91.23-.59-.04-.62-.29-.37-.61,1.43-1.63,3.56-2.41,5.42-2.48h0Zm66.57,2.52l5.13,3.62v3.56l-5.46-3.83.33-3.35Zm-92.66,1.45l.75.02c1.75,4.28,3.94,2.07,4.85.36l.91.15c-1.43,5.73-7.24,2.73-6.51-.53h0Zm28.88.31l.6.19c-.16,2.44-4.23,5.05-6.16-.04l.81-.06c2.21,3.4,3.49,1.39,4.75-.09Zm-30.16.26c.85.1.82,1.07,1.08,1.78.59,1.58-1.66.24-2.04-.14-.65-.69.28-1.57.96-1.64h0Zm32.21.22c.24,0,.71.18,1.15.35,1.21.49,1.15.86-.19,1.46-2.14.96-2.89,1.09-2.25-.27.37-.62.61-1.45,1.29-1.54Zm-8.65.45c.07-.01.16.01.24.07.54.4.89.84.96,1.56.04.51-1.63-.08-1.63-.89.04-.39.2-.72.43-.75h0Zm-14.59.27c1.1.41.97.94.2,1.42-1.38.77-1.96.62-1.08-.6.41-.56.5-.81.87-.82Zm84.62,1.79l5.56,3.95-.05,3.62-5.55-3.83c-.26-1.55-.01-2.6.05-3.75h0Zm-.15,4.94l5.55,4.09.02,3.6-5.51-3.83c-.22-1.6-.12-2.75-.07-3.87Zm-73.28.45c-.85.05-.72.63.5,1.09,1.7.64,1.88,2.47.37,3.3-1.76,1.2-4.65-1.85-6.77-1.59-1.01.31-1.66,1.26-1.08,2.43.45.82,1.97,1.32,2.59.78.57-.56.74-.58,1.83-.16,3.42,1.3,6.14-1.17,5.34-3.78-.29-.94-1.57-1.96-2.36-2.05-.16-.02-.3-.02-.42-.01h0Zm-22.64.22c.26,0,.37.89.43,2.17.1,2.14-2.05,5.12-4.23,6.15-2.62,1.24-5.44-.5-4.97-3.07.43-2.37,3.76-2.47,3.89-.28-.32.58.13,1.06.32,1.01.86-.23,2.88-2.07,3.7-4.12.32-.8.51-1.62.74-1.81.04-.04.09-.05.12-.05h0Zm31.36,3.64c-1.16.01-2.56.64-2.85,1.39-.42.71-.08,1.99.78.9,2.21-2.6,5.42.65,3.7,2.72-1.56,1.88-3.47,1.27-7.52-.29-2.95-1.14-3.41-.75-4.14.07-.6.68-.29,2.04.48,2.02,2.39.55,4.45,1.08,6.93,1.6,5.22,1.08,8.41-5.72,3.64-8.21-.29-.15-.65-.21-1.04-.21h0Zm64.92,1.13l5.22,3.73-.03,3.47-5.06-3.69-.13-3.51Zm-88.74.34c-.74-.02-1.53.23-2.08.7-2.04,1.85-.37,6.7,2.63,7.13.63.09,1.57.06,2.63-.25,2.1-.61,4.41-1.86,4.51-2.6.43-3.32-4.46-.34-5.11.05-1.54.95-3.18.82-4-.3-1.85-2.53,1.47-5.44,3.49-2.34.13.2.33.48.33.48,0,0-.15-1.26-.56-1.93-.39-.64-1.09-.93-1.84-.95h0Zm89.13,4.73l4.95,3.59.08,3.6-5.19-3.45c.1-1.3.12-2.52.16-3.75Zm-27.72,2.07c4.35.07,6.8,6.56,4.51,9.26-.68.8-1.23,1.02-1.54.72-.07-.06.04-.79.09-1.61.14-2.62-.41-4.41-2.3-6.39-1.42-1.49-1.96-1.95-.76-1.98Zm-51.96.62c-.54-.01-1.02.21-1.58.41-.82.3-1.69.89-2.36.75-.66-.15-.98.19-1.24.71-1,2.01-.69,2.66,1.29,1.52.94-.54,1.26-.35,3.77.13,1.79.34,3.01.31,4.58-.11,1.96-.51,3.13-.55,4.12,0,.99.55,1.67,1.3,1.69.69-.11-.72-.73-2.56-.87-3.17-.07-.29-.56-.03-1.02,0-1.62.12-3.56-1.36-4.81-.58-1,.62-1.14.79-2.51-.03-.38-.23-.72-.32-1.05-.32h0Zm48.79.15c.74-.02,1.43.24,2,.72,2.94,2.48,3.7,4.69,3.41,6.49-.15,1.32-.24,2.77-1.52,3.56-.24.11-.58.18-.91.23.99-3.74-.18-7.08-4.34-10.65.45-.23.91-.34,1.36-.35Zm-64.4.71c.82-.03.78,1.31.61,2.01-.14.57-.73.07-1.19-1-.35-.58.02-1.01.58-1.01Zm61.22.81c.76-.05,1.78.35,2.24.66,2.74,1.86,4.32,6.73,2.64,9.49-.18.34-.41.53-.7.72-.57.36-.9.65-1.02.4-.09-.19.23-1.02.26-1.29,1.2-5.67-4.23-9.45-4.34-9.28.1-.48.47-.67.92-.7Zm-63.94.25c1.07-.02,1.48.97,1.67,1.76.16.68-.04,2.69-.61,1.99-.14-.43-.72-1.8-1.19-2.16-1.04-.8-.94-1.57.13-1.59h0Zm97.87.22l5.11,3.7v3.96s-5.34-3.63-5.34-3.63c.12-1.39.18-2.71.23-4.03h0Zm-100.9.78c.16,0,.36.02.6.06,1.68.28,2.96,2.98,2.57,4.51-.89,1.65-1.22.54-1.51-.96-.23-.62-.92-1.59-1.34-2.09-.87-1.04-1.01-1.5-.33-1.52h0Zm64.15.04c4.07-.07,6.67,6.58,4.79,9.86-.48.52-1.96,1.58-2.01,1.09,0-.41.27-1.69.33-2.32.24-2.43-.88-4.89-2.87-6.82-1.67-1.62-1.82-1.78-.24-1.81Zm-67.47.79c2.5-.04,4.64,2.94,3.85,5.78-.98,2.96-5.85,2.32-5.04-.62.23-.85,1.13-1.47,1.98-.94,1.24.77,1.1-.48.32-.92-1.21-.68-2.87-.27-3.24,1.11-1.29,4.82,4.84,6.47,8.18,1.48,1.22-1.82,2.55-3.77,3.28-4.6.66-.75.8-.67.69.29-.43,4.48-3.52,10.08-9.31,9.77-5.63-.54-7.4-6.58-3.14-10.35.8-.61,1.57-.99,2.44-1.01h0Zm29.86.24c-2.06,1.01-3.93,1.39-5.96.5-1.5-.66-1.48.06-.82.65,1.88,1.62,5.31.89,6.78-.02.48-.3.63-1.15,0-1.12h0Zm34.52.02c1.52.09,3.94,2.04,4.67,3.96.83,2.16,1.03,4.39-.13,6.82-.81.52-2.07,1.57-2.44,1.42-.2-.12.01-.51.25-1.44.93-3.48.34-6.2-1.88-8.75-1.24-1.43-1.71-1.68-1.06-1.93.17-.07.37-.09.59-.08h0Zm39.47,3.35l5.5,3.78.02,3.6-5.7-3.86c-.09-.86,0-2.17.19-3.52h0Zm0,4.99l5.43,3.61.14,3.57-5.28-3.3-.3-3.88Zm.38,5.01l5.19,3.62.07,3.9-5.14-3.42-.12-4.1Zm-126.42,4.07c-.05-.27-3.75,10.6-3.75,10.6l3.53,2.5,3.75-2.45-3.86-5.16s.38-5.22.33-5.49h0Zm126.63,1.32l5,3.47.08,3.6-5.19-3.63.12-3.44Zm-.2,4.41l5.13,3.74.1,3.82-5.81-3.91.58-3.65Zm-114.59,2.29c-.05-.27-3.75,10.6-3.75,10.6l3.53,2.5,3.75-2.45-3.86-5.16s.38-5.22.33-5.49h0Zm-23.7.85c-.05-.27-3.75,10.6-3.75,10.6l3.53,2.5,3.75-2.45-3.86-5.16s.38-5.22.33-5.49Zm137.62,1.69l6.02,4.26.05,4.06-5.83-3.95-.24-4.38Zm.4,5.61l5.54,4.03.07,3.56-5.06-3.64-.55-3.95Zm-101.8,4.61c-.05-.27-3.75,10.6-3.75,10.6l3.53,2.5,3.75-2.45-3.86-5.16s.38-5.22.33-5.49h0Zm102.68,1.08l4.7,3.25-.03,3.65-4.62-3.13-.04-3.77Zm-96.32,3.05c.07,2.58.24,29.01.2,29.18-3.24.38-4.14,2.59-4.43,5.56-2.53-.19-4.17,1.35-4.22,1.6-.93-1.29-.24-3.2-.97-4.55-2.24,7.91,2.12,12.64,5.92,12.2.61,7.59,8.89,8.97,8.61-.24,10.01-.59,6.62-9.9-.15-8.67.05-4.01-2.04-5.04-3.77-5.86,0,0-.29-25.43-.25-26.19,0,.11-.44-2.75-.49-2.92,0,0-.41-.11-.41-.11h0Zm96.32,1.82l4.6,3.29-.06,1.58-4.58-.09.04-4.78Zm-138.47,1.5c-.05-.27-3.75,10.6-3.75,10.6l3.53,2.5,3.75-2.45-3.86-5.16s.38-5.22.33-5.49Zm143.12,9.33c-10.1.48-19.16,1.19-18.82,15.02-1.45,5.87,1.01,11.1,8.05,9.48,1.54-1.39.53-3.41.34-4.38-.6-2.67.09-4.4.29-5.65.6-3.87,3.4-7.46,3.71-1.4.49-.76.26-.87,1.07-1.19,1.94-.7,1.93,1.27,1.54,2.07-.25.41-.64.38-1.03.33-.56-.07-1.3-.28-1.31-.49-.15.63,1.02,1.8.9,2.39-.16.56-.26.52.26.14,2.43-1.75,3.95,2.17.44,1.72,1.73.93-.83,3.67.96,5.07,5.45.42,9.51-3.32,7.77-6.01,2.03-5.47.78-11.12-2.14-13.52-.44-.53,1.04-1.06,1.61-1.98-1.74.47-2.67-.42-3.62-1.61h0Zm-6.03,1.96c.93,0,1.17.18,1.11.94.36,1.87.83,2.74,3.24,2.55,2.44-.32,3.21-.48.76,1.01-1.24.55-1.64.66-3.11.53-1.48-.13-1.37-.29-2.21.22-.47.28-.99.63-1.37.7-.57.1-1.57.33-1.57.33-.57,2.91-1.44,4.37-2.63,5.75-1.69,1.94-2.54,2.28-.48,2.13.77.05.37-.34.7,2.8.12,1.1.32,2.37.48,2.8.54,1.43.61,2.14-1.44,2.24-5.1.39-6.3-4.63-5.62-7.19.3-1.54.36-3.05.27-4.46.12-4.78,1.24-6.04,5.44-9.15,1.27-.94,3.54-1.13,5.24-1.15.48-.02.87-.04,1.18-.04h0Zm3.31.3c2.36-.05,4.63,1.09,3.5,1.84-.73.48-3.39.28-4.12-.25-.95-.68-.59-1.56.62-1.59Zm5.1,3.29c1.53.31,1.59,1.71,1.2,2.58-.85,1.91-6.56,2.83-6.56,2.83-.05-.82.07-1.61-.53-2.53,0,0,3.8-1.01,4.61-1.75.54-.49.86-1.12,1.28-1.14h0Zm-110.23.88c-.03-.14-1.89,5.19-1.89,5.19l-.3,6.51,1.97,1.4,3.75-2.45-3.85-5.16s.38-5.22.33-5.49h0Zm102.59,2.36c.47-.03,1.08.39,1.21.97.09,1.73-2.22,1.34-2.29.25-.05-.78.65-1.19,1.09-1.22Zm8.77,1.1c.55,0,.85.41,1,1.24.07.44-.09.82-.45,1.3-1.45,1.59-5.53,2.7-7,2.29-.1-.14.15-1.82.25-2.56,1.96.06,5.26-1.7,6.2-2.27Zm-67.92,2.81c1.25.04,2.43.77,2.96,2.04.28.88.37,1.88.05,2.76-.26.73-.74.84-.74.84l-2.51-2.16-2.45,2.3s-1.5-1.53-.68-3.65c.8-1.51,2.11-2.16,3.36-2.12h0Zm67.76,1.69c1.61-.1.77,1.76-1.6,3.03-1.49.79-2.73,1.02-3.26.73-.29-.88-.05-1.68.14-2.03,1.01-.53,3.8-1.45,4.72-1.73h0Zm-103.64,3.52c1.78-.04,3.33,1.24,3.38,3.51.02.93-.45,1.85-.45,1.85l-2.98-2.22-2.28,2.45c-.39.14-1.78-1.62-.82-3.53.7-1.39,1.92-2.03,3.14-2.06Zm103.2.11c.43,0,.54.17.67.57.35,1.16-.54,2.32-2.08,2.69-1.43.34-1.29.51-1.96-.78-.53-1.01-.67-.97.16-1.28,1-.33,2.07-.71,3.23-1.2Zm-61.38.72c.43-.02.86.04,1.24.21,2.51,1.15,2.94,4.69.5,6.05-1.16.65-2.98,1.01-3.83-.3l2.46-2.71-2.83-2.4c-.08-.08,1.18-.79,2.46-.85Zm-11.55.45c1.03.02,1.85.4,1.67.57,0,0-1.78,1.82-2.55,2.59l2.68,2.82c.13.34-3.09,1.81-4.78-.4-1.1-1.44-.48-4.18,1.08-5.12.6-.36,1.29-.47,1.91-.46Zm5.5.25c1.58-.02,2.87,1.25,2.9,2.85.02,1.6-1.24,2.91-2.82,2.93-1.58.02-2.88-1.25-2.9-2.85-.02-1.6,1.24-2.91,2.82-2.93Zm62.03.22c.71.04,1.33.52,1.35,1.29.02,1.1-1.23,1.46-2.21.85-.76-.47-.81-1.34-.4-1.73.37-.31.83-.44,1.25-.41h0Zm-62.04,2.26c-.3,0-.55.25-.55.55,0,.3.25.55.55.55.3,0,.55-.25.55-.55,0-.3-.25-.55-.55-.55Zm-29.37,1.39c.4,0,.8.05,1.14.23,1.81.91,2.73,4.2.71,5.93-1.61,1.38-4.06.23-4.11.07l2.52-2.79-2.68-2.6c-.03-.16,1.22-.81,2.42-.83Zm-11.69.36c.67,0,1.28.21,1.97.64l-2.56,2.71,2.77,3.05s-2.2.36-2.98.21c-3.78-.71-3.41-5.19-.49-6.37.46-.16.88-.25,1.28-.25Zm5.67.64c1.52-.02,2.78,1.21,2.8,2.75s-1.2,2.81-2.72,2.83-2.78-1.21-2.8-2.75c-.02-1.54,1.2-2.81,2.72-2.83Zm-51.62.56c-.73.03-1.54.15-2.43.37,0,0,.5,5.75.97,7.71-.3,2.24-1.74,3.76-2.38,6.06-.34,1.02-1.64,2.4-1.89.96-.93-1.78-.04-3.98-.81-5.25-.59-1.2-.27-1.87-.54-3.11-.73-1.03-1.07-1.49-.95-2.4-.15-4.06-1.16-3.26-2.94-2.93-6.92.6-6.92,4.63-6.5,9.75-.98,4.8.83,3.66.77,4.52-.09,1.37.13,3.28.54,3.49,2.47,2.86,2.59,4.84,5.8,4.35,5.44.43,14.08-.39,15.94-7.08,1.06-8.56,1.45-16.73-5.59-16.45h0Zm-.05.91c1.03-.01,2.24.2,3.23,1.17,2.13,2.07,1.66,3.89,1.28,11.89-.23,4.73-4.27,7.17-8.8,8.26-1.11.27-2.07.28-2.82.27-.81,0-1.28-.38-1.34-1.07.18-1.85-1.69-2.03-2.78-1.93-1.93.08-2.13.28-.92-.66,1.38-1.08,4.55-1.09,5.15-.46,1.24-1.25,2.53-1.4,4.1-1.58-.23-.35-.8-1.73-.43-2.62.82-1.45,2.19-4.01,3.64-4.97,1.43-1.89.21-1.03-.67-1-.51.02-.46-.15-.54-.49-.35-1.47-.86-4.22-.87-5.86,0-.79.73-.94,1.76-.95h0Zm89.75.26c2.08,2.54.3,5.57-2.5,5.76-2.32.12-4.22-2.39-3.35-4.88.48-.68.68-.58.68-.58l2.64,2.38,2.53-2.67Zm-38.11.53c-.3,0-.55.25-.55.55,0,.3.25.55.55.55.3,0,.55-.25.55-.55,0-.3-.25-.55-.55-.55Zm-61.67.97c.33-.03.68.06.93.28.56.5.55,1.2-.03,1.72-.67.6-2,.27-2.03-.85.06-.71.59-1.1,1.14-1.15h0Zm-2.5.18c.24.01.47.07.61.2-.19.73.06,1.46.09,1.81-.46.33-2.42.91-3.46,1.43-.73.25-1.26-.44-1.16-1.07.28-1.18,1.99-1.94,3.23-2.31.19-.05.44-.08.69-.07h0Zm107.33,1.87l-3.75,2.45.06.07-.06.04,3.85,5.15c-.01.19-.32,5.39-.32,5.39h.01s-.01.11-.01.11l2.65-11.51s-1.41-.98-2.44-1.7h0Zm-40.55,1.17c1.74,3.93-.26,5.72-2.4,5.68-2.36-.05-4.87-2.31-2.67-5.51l2.73,2.25,2.34-2.42Zm-65.74.53c.71-.09.5,1.47.23,2.26-.26.57-1.04.54-1.74.59-1.23.07-2.79,1.51-3.46,1.28-.22-.1-.38-.69-.4-1.07.14-2.07,3.55-2.83,5.37-3.05h0Zm2.39.08c1.25-.05,1.92,1.22,1.34,2.08-.24.35-.99.51-1.63.34-1.04-.29-1.19-1.79-.28-2.31.2-.07.39-.1.57-.11Zm-1.55,3.62c.67.12.34,2.2.23,2.27-.55.21-2.94.52-3.94,1.38-2.14,1.69-3.05.66-2.06-1.37.94-1.18,4.38-2.25,5.62-2.27.05-.01.1-.01.15,0h0Zm2.57.11c.95-.09,1.62.98,1.04,1.99-.79.74-2.17.2-2.17-.85,0-.66.53-1.1,1.13-1.14Zm-2.21,3.41c.97,0-.07,1.51.8,2.59.13.55-.06.38-1.06.68-.55.16-1.42.54-2.32,1-1.32.68-1.69,1.04-2.16.96-.37-.08-.81-.25-.92-.63-.46-1.53.77-3.08,3.64-4.15.6-.22,1.66-.4,2.03-.44h0Zm2.5.29c1.39-.02,1.65,1.84.61,2.17-2.43.63-2.22-2.17-.61-2.17Zm-3.63,6.57h0c.95-.02,1.6-.02,1.92.28.39.38.44,1,.01,1.32-.8.4-3.88.06-3.9-.81-.01-.58,1.01-.77,1.97-.79h0Zm141.82.21l-3.75,2.45,3.86,5.16s-.38,5.22-.33,5.49,3.75-10.6,3.75-10.6l-3.53-2.5Zm-149.29,5.93c1.52,1.81,2.33,2.99,4.86,3.93.59,26.49.49,87.19.49,87.19l7.46,5.13,7.86-5.7c-.08-19.11-.16-32.29-.23-49.97l11.51,6.39s.35.52.3,2.9c-.8,6.6,5.52,10.89,9.72,8.28,1.62-.69,1.75-.81,2.09-.29.94,1.42,2.01,7.5,2.18,11.38.27,5.85,1.79,17.76,2.16,17.84l-18.74,31.92h-29.66v-118.98Zm113.66,1.53l-3.75,2.45,3.85,5.16s-.38,5.22-.33,5.49c.05.27,3.75-10.6,3.75-10.6l-3.53-2.5Zm-94.55,1.41l.66,86.84s-3.64,2.64-4.81,3.4c-.61.23-.91.27-1.05-.32-.18-.73.11-2.1.36-4.37.23-2.1.23-2.22-.11-5.22-.36-3.13-.4-3.26-.11-7.39.33-4.61.39-9.08.03-11.85-.34-2.63-.34-8.64-.08-11.99.32-4.11.22-7.71-.32-10.69-.95-5.31-1.1-7.14-.12-11.13.37-1.5.55-2.29.48-4.79-.09-2.78-.14-3.69-1.12-9.86-.57-3.55-.61-4.03-.08-9.65.11-1.13.14-1.89.57-2.25.5-.42,5.7-.73,5.7-.73h0Zm-7.35,1.03c-.44,1.79-.53,3.16-.58,4.45l-5.03-3.34-.05-1.05,5.66-.06Zm-5.58,2.35l4.98,3.28c.01,1.39-.1,2.71.1,4.09l-5.05-3.39-.04-3.99Zm.01,5.21l5.33,3.68c.21,1.43.64,2.88.81,4.17l-6.04-4.13-.1-3.72Zm172.37,1.45l.28,106h-53.06l-16.82-32.64s.17-3,.59-4.54c.5-1.85.64-2.26,1.34-2.34,1.89.99,3.99-.33,4.63-1.77.79-1.78-.81-4.47-3.28-5.06-1.09-.26-2.27.23-3.47,1.16-.7.59-.85.65-.99.14-.31-1.15.7-4.28,2.51-6.97,1.01-1.5,1.28-1.93,1.61-1.36,1.32,2.3,4.14,1.83,5.21.53,1.3-1.57,1.03-5.16-1.91-6.11-5.75-1.86-8.39,3.97-8.32,3.96l-1.23-6.99c6.92-1.71,10.92-2.32,13.12-4.44,1.73-1.67,2.56-4.55,2.34-7.12,0,0,19.23-7.89,28.23-12.8,15.5-8.44,29.22-19.65,29.22-19.65h0Zm-28.43.81l-3.75,2.45,3.86,5.16s-.38,5.22-.33,5.49,3.75-10.6,3.75-10.6l-3.53-2.5Zm-24.2,1.04l-3.75,2.45,3.85,5.16s-.38,5.22-.33,5.49,3.75-10.6,3.75-10.6l-3.53-2.5Zm-119.49,1.99l6.11,4.25c.13,1.38.31,2.61.13,4.18l-6.43-4.3.2-4.13Zm-.11,5.43l6.32,4.23c.02,1.31.09,2.54-.36,3.46l-5.96-3.87v-3.82Zm131.46.35l-3.75,2.45,3.86,5.16s-.38,5.22-.33,5.49,3.75-10.6,3.75-10.6l-3.53-2.5Zm-131.45,4.57l5.48,4.07c.08.06-.31,1.85-.22,2.87l-5.21-3.25-.05-3.69Zm.15,5.03l5.11,3.55c.01,1.34.1,2.61.31,3.75l-5.55-3.64.13-3.66Zm-.09,5.12l5.91,4.25.31,3.41-6.26-3.98.04-3.69Zm46.85,1.2c.56-.05,1.16.02,1.77.22,5.67,2.14,10.98,13.03,10.82,27.13-.11,9.79,2.81,23.76,2.76,23.6,0,0-1.64.22-2.11-.15-2.14-7.19-2.85-14.78-3.18-21.05-.28-5.22-.57-10.35-.9-11.55-.93-4.21-1.94-9.13-4.61-12.33-2.08-2.41-4.44-2.84-5.86-.12-1.16,2.22,1.28,5.9,3.31,4.67.49-.28.78-.75.14-.74-2.1.31-3.51-2.62-2.18-4.02,2.34-2.47,6.44,3.03,4.54,6.05-.84,1.31-3.03,1.54-4.78,1.06-3.9-1.9-4.88-6.57-3.57-9.64.75-1.76,2.16-2.99,3.86-3.14h0Zm-5.09,1.62c.45-.11.15.88-.28,2.22-1,3.21.88,8.19,3.48,9.18.78.54.74.74.22,1.04-1.7.97-4.79-1.93-5.6-5.16-.59-2.33-.45-5.09.67-6.26.4-.54.97-.9,1.51-1.03h0Zm-3.77,1.84c.47-.01.29.78.16,2.22-.3,3.35.73,5.78,3.07,7.8.99.85,1.26,1.12.83,1.57-.6.63-2.33-.22-3.69-1.64-2.48-2.61-3.3-7.55-1.37-9.34.42-.39.75-.6,1-.61Zm-38.06.05l6.31,4.16c.29,1.3.16,2.69-.03,4.08l-6.31-4.45.04-3.8Zm108.22.53c2.7-.11,4.97.95,5.22,4.28.37,4.87-4.13,7.53-7.26,4.74-2.81-2.81.04-7.2,3.3-5.14,1.64,1.04-.32,3.42-1.64,2.19-.6-.55-.86-.21-.44.43,1.28,1.93,3.81.33,3.63-1.38-.36-3.35-4.43-3.3-5.96-1.99-2.1,1.79-3.95,4.44-5.33,6.36-1.13,1.67-1.37,1.63-1.2-.44.44-5.45,5.48-8.88,9.69-9.05Zm-73.4,1.06c.43-.02.26.61.29,2.21.17,4.12,1.89,6.68,4.07,8.11.73.81-.21,1.39-1.58,1-3.13-.97-6.32-7.77-3.67-10.69.37-.41.66-.62.89-.63h0Zm-3.04,1.35c.43-.03.19.88.23,2.6.09,3.61,1.19,5.35,3.85,7.55.87.72.97.64.63,1.04-.91,1.06-4-.44-5.31-2.61-1.57-2.58-1.8-6.46-.34-7.93.41-.41.71-.64.94-.66Zm-3.03,1.74c.36,0,.16.66.21,2.22.13,3.78.99,5.66,3.37,7.41,1.49,1.1,1.86.77,1.4,1.2-.8.76-2.99.11-4.63-1.29-2.46-2.1-3.15-7.27-1.15-9.05.36-.32.61-.49.8-.49h0Zm-28.64.54l6.06,4.24-.17,3.59-6.03-4.12.14-3.7Zm103.34,1.68c.14.03.29.18.45.51.36,1.41,1.3,3.37,2.57,3.75.51.15.08.87-.39.78-2.47-.51-3.4-2.31-3.1-4.35.06-.43.24-.74.47-.69Zm-50.43.81c2.78,7.08,2.73,14.81,3.19,22.12.61,9.71,2.31,16.25,2.87,17.36,0,0-2.72.03-2.85-.36,0,0-2.56-12.88-2.18-19.25.03-7.13-1.35-13.39-2.19-16.21-.89-2.49-.93-.85,1.15-3.65h0Zm29.29,1.26c-1.25.02-3.83.71-3.82,1.18,0,.21.84.39,2.16.07,1.46-.36,2.91-.29,4.03.02,1.19.33,1.33-.06.25-.53-.53-.23-1.36-.76-2.62-.74Zm19.16.44c.18-.01.4.16.63.59.14.26.59.86.98,1.32.75.88.96.89.62,1.25-.79.83-2.44-.37-2.61-1.9-.1-.7.08-1.24.38-1.26Zm-51.58.89c2.72,3.92,3.12,13.12,3.18,19.65.05,5.89,2.02,16.67,2.18,16.63-.56.33-1.32.22-2.02-.06-.7-.92-1.13-3.5-1.94-10.5-.21-1.8-.62-7.55-.71-12.17-.08-4.08-2.34-12.91-2.34-12.91,0,0,.88-.63,1.66-.64h0Zm24.85.17c-.27.02-.18.96.03,2.09.07,2.6.4,1.54,1.31,1.13.69-.06,1.24.32,2.52.79,1.62.6,1.48.8,2.62.24.7-.35,1.26-.47,1.6-.19,1.33,1.09,3.05.48,4.02-.41.76-.4,1.58-.18,2.22-.12.92.09.68-.51.8-1.69.1-1.05-.3-1.14-1.37-.79-1.1.36-2.18.41-3.13.12-2.43-.75-4.21-.26-5.42-.07-2.85.45-3,.16-3.64-.25-.48-.31-1.28-.87-1.55-.86h0Zm-74.67,0l5.83,3.85c-.08,1.32-.09,2.64-.08,3.95l-5.72-4.09-.04-3.72Zm46.79.8c2.48,5.6,2.89,11.15,3,17.89.11,6.38,1.51,13.85,2.04,17.15-.84.09-1.72.16-2.07-.22-1.41-4.66-1.84-12.42-2.23-18-.49-7.86-.61-9.81-1.71-13.73-.63-2.22-.85-2.18-.37-2.6.36-.33,1.05-.49,1.36-.48Zm53.34.08c.17.07.31.37.59.74.63.83.81,1.22.29,1.3-1.4.2-1.75.06-1.7-.82.04-.7.19-.97.64-1.2.07-.03.13-.04.18-.01Zm-56.27,1.25c2.05,2.09,2.57,13.81,2.81,16.33.74,13.67,2.02,15.63,1.36,16.66-.78-.01-1.05.28-1.56-.41-1.76-5.01-1.65-10.15-1.94-15.38-.4-6.92-1.08-10.67-2.05-14.1-.64-2.28-.63-2.32.52-2.94.21-.11.66-.17.84-.16Zm-3.57,1.47c.24,0,.51.05.81.18.72,1.66,2.18,9.21,2.37,15.72.16,5.17,1.38,15.29,1.6,15.34-.75.07-1.64-.09-2-.66-2.24-9.97-1.53-19.64-4.11-29.67.12-.36.6-.91,1.33-.93Zm52.71.3c-.91-.06-1.93.14-3.03.64-3.41,1.34-4.3,2.44-3.76,3.4.45.81,1.81.53,5.45-1.01,2.72-1.15,3.57-.65,4.12,1.08-.03,2.55-2.47,2.81-3.86,2.5-.22-.05-.48-.16-.48-.16,0,0,.13.59.61.99,2.74,2.33,6.27-2.13,4.55-4.9-.84-1.58-2.07-2.45-3.59-2.56Zm-21.85.82c-.9-.03-1.76.18-2.61.86-2.82,2.23-1.81,6.26.53,6.86.65.33,1.62.18,2.01-.08.35-.24.35-.62-.37-.74-2.18-.37-3.41-1.98-2.36-3.61,1.02-1.59,2.91-1.28,6.55.3,3.14,1.37,4.52.95,4.89-.7.16-.73-.03-1.41-1.54-1.46-2.88-.11-5.1-1.36-7.09-1.43Zm-71.06.29l6.05,4.38.13,3.74-6.17-4.42v-3.69Zm106.99,3.34c1.92.09,3.14,1.31,3.19,2.68.12,3.09-3.53,3.12-4.03.7-.19-1.16-2.05.03-3.29,2.08-1.21,2.02-1.34,2.31-1.59.21-.37-3.13,2.84-5.57,4.85-5.65.3-.04.59-.04.86-.03Zm-107.12,1.54l6.4,4.44s.22,2.38.08,3.66l-6.43-4.16-.05-3.95Zm84.02,1.07c-.19.01-.4.07-.62.18-.46.23-.81.45-1.8.21-1.5-.32-3.3-.66-4.71.04-2.79,1.91-1.15,5.39.8,5.78,2.05.41,2.2-1.03.16-1.46-1.09-.43-1.37-1.48-.95-2.29.97-1.61,2.78-.57,3.82-.07,2.32,1.12,3.53,1.53,4.26.75,1.14-1.2.39-3.23-.97-3.13h0Zm-83.97,4.21l6.3,4.36-.19,3.85-5.91-4.39-.19-3.82Zm.13,5.29l5.93,4.27c-.09,1.63-.05,2.28.02,3.32l-5.99-3.91.05-3.67Zm104.78.82c4.75.47,3.18,5.99-.14,4.5-.88-.67-1.15-.62-2.13,1.8-1.26,3.09-1.57,2.84-1.39-.73.13-3.5,1.72-5.54,3.67-5.56Zm-10.85.6c1.3.05,2.63,1.23,3.67,3.74l-1.44.09c-1.29-3.13-3.11-3.6-4.66-.51l-1.11-.32c.96-1.98,2.24-3.04,3.54-2.99Zm-3.51.16c.74-.04.64.3-.13,1.35-.67.92-.83,1.06-1.5.56-1.1-.82.73-1.86,1.62-1.92h0Zm-19.69.01c1.2-.04,2.35.77,2.96,2.9l-.85.12c-1.28-2.89-3.95-2.23-4.77.45l-1.17-.13c.67-1.85,2.29-3.29,3.84-3.34Zm-3.38.06c.11,0,.2.02.26.07.32.36-.64,1.8-1.46,2.65-.6.4-2.06-.68-1.71-1.2.42-.51,2.14-1.43,2.91-1.51Zm29.89.02c.14,0,.3.02.49.07,1.48.37,2.16,1.08,1.43,1.99-.45.57-.89.79-1.19.41-1-1.66-1.55-2.52-.73-2.47Zm-23.31.56c.38-.04.85.17.93.43.15.62-.33,1.06-.87.54-.22-.21-.41-.57-.39-.83.08-.08.2-.13.32-.14Zm-73.98,2.56l6.09,4.42c.2,1.56.24,2.74.23,3.8l-6.27-4.2-.05-4.02Zm86.96.43c.36,0,1.2.46,1.84.91,3.51,2.43,7.62,2.4,10.2.26.58-.48,1.08-.5,1.09-.04-.37,1.7-4.84,3.89-8.34,2.65-1.92-.68-3.5-1.35-4.76-3.17-.28-.44-.24-.61-.03-.61h0Zm.16,2.07c.05,0,.12,0,.19.02,5.13,4.47,9.21,3.23,12.3.97.46-.12.46.3.56,1.07.13.99-.68,1.48-2.9,2.15-4.3,1.3-9.33-.12-10.24-3.03-.09-.5-.27-1.13.09-1.18Zm-87.14,2.69l6.18,4.28-.2,3.27-6.02-4.11.04-3.44Zm.1,5.01l5.83,3.99-.02,2.71-5.67-4.08-.14-2.62Zm102.15,1.18l15.33,30.37-92.36.13c6.03-9.87,11.05-20.66,17.23-30.4,24.87,5.69,42.5,2.99,59.8-.09Z"/>
              <path id="uuid-c19d0eb3-1e01-4352-9e16-304a2d1f7429" data-name="path3442-2-7-0" class="uuid-da58ff5f-f61c-4ba5-845e-1416e0de0385" d="m86.88,28.18c2.66,4.62,4.76,9.39,7.16,14.12l.38.25.57,1.09.06.53,1.42,2.3v.49s6.02,11.32,6.02,11.32c4.97-1.87,45.79-5.25,60.91.27l2.2-3.77h.53s3.88-6.89,3.88-6.89l-.06-.58,1.31-1.51.19-.69,4.28-6.77.02-1.09,5.36-9.02-94.23-.07Zm92.44,1.3s-2.79,5.43-4.23,7.62c-1.17-.93-4.54-.3-4.34,3.3-5.51-2.11-6.84,4.53-2.58,6.02-2.19,1.93-4.27-.25-5.93-1.73-1.62.41-4.99,1.61-6.89-1.93,0,0,.8.43,1.59.91,4.51,1.38,4.87-4.76,1.52-5.76-.42-.11-1.22-.16-1.22-.16,1.13-4.72-6.1-6.37-6.24-.7,0,0-.86-.14-1.51-.02-3.83.71-2.96,6.42.96,6.14.54-.04,1.02.06,1.02.06-.06.91-4.81,2.66-8.22-.48-1.62,1.25-4.18,2.81-7.53-.3,2.2-.09,4.31-.72,4.28-3.24-.02-1.64-1.47-3.1-3.58-3.18-.12-1.83-1.47-3.58-3.22-3.71-2.14.13-3.24,1.87-3.25,3.71-1.82.19-3.52,1.81-3.13,3.67.53,2.54,2.47,2.85,4.68,2.36-2.69,4.36-7.06,2.09-8.4.7-1.61,1.51-4.4,3.56-7.85.76,1.84-.32,3.88-1.41,3.54-4-.27-2.04-2.54-2.65-3.52-2.54,0-1.35-1.01-3.57-3.39-3.34-2.6.25-2.44,3.57-2.41,3.59-2.14-.18-3.7,2.37-3.09,4,.74,1.98,2.3,2.59,5.17,2.06-3.34,3.17-5.46,1.94-7.29,1.27-1.61,1.71-3.77,2.26-5.98.74,4.94.24,4.16-8.59-1.71-5.39-4.17-4.95-4.09-2.75-7.83-10.04l90.59-.4Zm-46.05,8.7c.24-.01.49.04.74.17.77.4.92,1.09.45,2.11-.17.36-.4.77-.37,1.15,5.44,10.14,17.44,5.61,18.57.9.07-.3-.07-.63-.22-.95-.46-.77-.4-1.41.2-1.94,1.28-1.13,3.11.2,2.37,1.73-.2.4-.4.84-.25,1.38,3.08,7.07,9.21,7.6,14.36,4.8-2.37,4.29-11.56,6.92-15.42-3.41-6.16,8.41-15.94,8.25-20.37-1.25-3.99,9.72-16.03,9.95-20.41,1.88-3.99,9.23-13.24,7.14-15.86,1.36,8.59,6.28,14.25-.28,15.27-3.07,0,0-.2-.33-.47-.6-1.1-1.09-1.07-2.37.07-2.88,1.46-.65,2.83.76,2.08,2.15-.21.39-.4.47-.26.81,2.67,6.3,15.84,8.13,18.51-.71.09-.5.04-.97-.19-1.35-.63-1.05.17-2.25,1.21-2.29Zm-38.44,3.57c2.08.12,1.5,1.92,1.08,2.06l-1.08-2.06Zm77.13,1.13s-1.28,2.34-1.28,2.34c-.69-1.11-.51-2.48,1.28-2.34Zm-7.02,11.64s-1.33,2.96-1.76,3.21c-24.6-6.37-58.93-.83-59.78-.22l-1.51-2.88c21.57-4.35,43.08-3.42,63.05-.12Zm-41.56,44.05c-2.38,9.26-8.13,10.2-15.07,11.32-8.6,1.39-14.21-1.77-16.83-6.61,0,0-12.3,4.7-16.79,7.43,9.34,4.32,21.67,13.89,28.68,24.75,2.5,3.31,2.37,2.56,2.37,9.83,0,15.76.03,21.62.03,21.62,3.85.58,4.06,3.26,3.85,6.26,3.09-1.38,6.07.31,6.05,3.26-.02,5.42-5.29,3.95-6.39,3.35,1.71,4.78-.3,6.75-2.35,6.99-2.53.29-5.43-.94-4.59-6.41-6.27,1.51-6.58-4.48-6.87-9.75,6.83-12.97-1.74-23.52-9.79-26.99,0,0,2.28-4.75,5.22-6.09.3-.09-1.78-3.18-5.29-2.51-1.61.03-1.24.02-2.75-1.97-3-3.94-4.41-4.2-7.33,0-1.29,1.85-1.59,1.9-3.12,1.94-1.68.03-4.25,1.25-4.8,2.34-.13.25.53.5,1.4,1.53,1.26,1.48,3.2,3.52,2.89,5.59-6.63,2.72-17.61,14.67-6.06,29.97l-8.36.11-.4-54.47-5.81,3.27.26,42.66-1.66-.55c.13-13.61-.08-27.21-.5-40.81l-15.32,11.28.68,63.97,1.63.35c1.21,8.72,18.3,2.62,19.3,3.38l.2,35.55-.75,1.76,13.6,7.51,12.47-6.53s1.68-.31,2.31-.64c5.17-2.75,9.03-2.14,11.84,1.9,1.73,2.49,2.03,2.86,2.03,2.86,1.05-7.19,7.36-9.84,13.48-7.96,4.5,1.38,10.65,5.91,12.53,11.44,0,0,.34.83.67,1.21l.26.11c-.02-.14-.3-.83-.4-1.17-6.31-14.64-24.1-16.89-26.84-4.93l-2.52-3.57,13.24-8.2,18.1,12.03s-.85,4.23-.95,6.06l.31.15c.13-2.21.78-4.74,1.82-6.62.43-.77.92-1.4,1.48-1.87,1.08-.63,2.08-.57,3.18-1.61l-2.64-2-.06-6.4,5.31,7.51c1.67-.39,8.17-2.35,12.03-.18.44.14,6.09-1.49,9.62,6.48,6.22-2.65,13.16-5.42,18.05-7.89-16.91-6.31-33.99-28.63-32.34-28.99,0,0-.05-2.29.08-7.91.14-6.26.06-12.66.17-18.94-5.76-1.86-4.32-6.54-4.32-6.54-3.46.77-4.01.09-4.89-.53l-.6-5.93c2.07-1.78,3.32-1.95,5.89-1.38,0,0-1.24-2.58-.11-4.7.95-1.68,3.49-2.74,5.52-1.55,2.55,1.69,2.12,5.04,1.46,6.02-.02.02-.04.06-.04.09,2.72-1.21,6.04.15,6.86,2.86.41-8.04,1.1-17.04,2.7-24.05,2.94-12.66,7.76-25.91,13.8-36.33,1.6-2.73,3.2-4.79,4.66-7.51,0,0-1.29.72-2.66,1.1-1.97.54-3.45,1.05-3.67,1.28-1.44,1.22-3.32,2.13-4.86,2.81-5.43,2.14-9.08-1.05-11.34-5.91-1.26,6.18-6.86,11.41-15.12,8.16-4.67-2.5-6.14-4.1-10.5-10.64-.37-.67-1.31-1.44-1.31-1.44h0Zm.18,1.01c3.09,6.17,7.72,10.55,12.21,12.29,8.03,2.66,13.32-2.53,14.82-7.31l1.55,2.65-12.16,8.72-18.34-11.78c.31-.28,1.95-4.44,1.92-4.58h0Zm55.2.43l-5.45,3.24s-3.62,5.9-4.83,8.12c-6.35,11.34-11.12,23.67-13.61,35.9-2.22,10.13-3.04,22.67-2.8,31.21l.43.47s-.67,1.18-1.15,2.18c-1.3,2.71-1.62,4.24-1.54,7.38.18,7.23,4.53,14.15,10.68,16.97.35.16.81.36.81.36,0,0-1.05,2.88-2.96,4.9-1.28,1.35-1.55,1.42-1.1,2.08.63.92,2.65,1.73,5.17,1.69.89-.01.88-.02,2.53,1.79,3.21,3.53,4.18,3.46,7.1-.54.87-1.19,1.36-1.48,2.63-1.51,1.87-.04,5.27-1.57,5.26-2.28-2.3-1.03-4.96-6.33-4.54-6.38,12.56-6.72,15.23-20.64,6.05-30.88l8.76-.14.32,55.54c1.72-1.15,5.6-3.63,5.6-3.63l-.13-43.22c.6.12,1.22.55,2.39.74l.34,41.15s11.26-8.02,16.62-12.21l-.33-62.97h-1.28l.2,62.94-14.88,10.98-.1-39.12s1.18-.18,1.61-.24c4.35-.62,6.37-6.23,3.48-9.89-1.03-1.3-.3-1.21,1.88-1.63,3.87-.34,6.01-3.3,4.89-5.4-.48-.9.15-.81.55-1.66.27-.67.22-1.51.1-2.17-.15-.87.2-1.26.42-1.81.34-.87.01-1.85-.56-2.67-.6-.86-.44-1.79-.44-2.36-.03-1.28-.48-1.46-1.82-2.7-1.01-.93-.2-1.14,1.29-1.91,2.35-1.22,2.51-5.54-.61-7.38-3.91-1.61-10.02.14-16.71.81,0,0-.02-24.62-.19-37.31l-14.08-8.45Zm0,.87s13.36,7.9,13.25,8.12c-4.49,6.21-21.22,30.95-21.34,60.86-12.27-1.56-17.29,8.14-17.89,8.1-1.61-36.61,13.09-62.81,20.63-73.93l5.35-3.15Zm-8.79,4.03l.02,2.02-2.68,4.3-.1-4.53,2.76-1.79Zm-3.73,2.18l.1,6.44-5.42,4.19-.15-6.71,5.48-3.91Zm-50.27,1.47l2.79,1.95-.1,6.39-4.2-7.71,1.51-.62Zm76.3,2.15l.02,4.62c-10.69,15.24-16.31,32.65-18.02,54.69l-2.6-.09c.69-21.92,7.99-41.92,20.6-59.23Zm-72.43.47l6.6,4.35-.29,7.29-5.99-3.88-.56-1.49.24-6.27Zm39.94.31l-.03,6.77-5.1,3.82-.24-6.73,5.36-3.87Zm-61.76,1.77c.76,0,1.36.57,1.5,1.62.56,4.5,3.95,3.2,4.76,4.56.31.46-.42.86-2.74.67-4.26-.32-7.36-3.8-5.18-6.09.56-.52,1.15-.77,1.66-.76Zm29.41,2.9l5.63,3.63-.02,7.48-5.52-3.4-.1-7.7Zm25.7.02l.44,6.62-6.17,4.14-.22-6.57,5.95-4.19Zm11.74.03l-3.54,7.62-20.66,15.02-17.14-11.22-3.18-7.35,20,13.18,24.52-17.25Zm-55.71,3.02c5.49-.07,9.7,5.82,11.14,10.98,1.05,3.41,1.21,4.64,1.32,10.05.11,5.52.28,6.47,1.31,7.25.63.48.81.35.89-.63.18-2.17,2.74-.83,2.79,1.45.05,2.54-2.71,3.35-4.76,1.4-1.09-1.04-1.1-1.03-1.44,1.01-.23,1.37-1.8,9.91,2.22,12.04.76.07.94-.54.38-1.26-1.13-1.43,1.13-3.09,2.96-2.17,2.22,1.1,2,4.72-.38,6.01-2.72,1.47-6.23-.2-7.87-3.75-1.2-2.6-1.2-6.21.02-11.57.56-2.47.81-4.04.94-5.94.04-.62.11-1.3.16-1.51.13-.58-.15-.6-1.12-.11-2.66,1.35-5.55.39-6.27-2.08-.85-2.96,2.41-6.01,4.42-4.14.76.71.67,1.42-.24,1.87-1.58.79-1.04,2.86.64,2.45,5.55-1.68.48-17.41-5.77-18.5-4.13-.72-7.38,4.03-4.39,6.58,1.17,1,2.36.46,2.1-.95-.36-1.96,2.23-1.75,3.18.26,1.55,3.27-2.46,5.94-6.2,4.13-6.72-4.03-2.13-12.76,3.96-12.89Zm24.89,1.25l5.54,3.76.05,7.3-5.5-3.29-.09-7.76Zm12.2.63l.03,6.7-5.34,3.93v-7.13l5.32-3.5Zm14.39,4.39l-2.73,7.69-17.25,11.92-14.23-9.01-2.45-7.12,16.76,10.97,19.89-14.45Zm-111.93.56v38.94c-5.59.24-8.8,5.82-4.62,11.1,0,0-.73.1-1.58.22-3.78.52-6.31,2.55-5.81,5,.15.75,0,1.51-.22,1.89-.34,1.01-.25,1.78.2,2.65.35.68.3.96.1,1.46-.43,1.09-.33,1.93.18,2.76.62.62.45,1.11.37,2.1-.1,1.39.15,1.95,1.02,2.5,1.12.7,1.54,1.84.26,1.75-.63-.05-2.86,2.12-2.86,2.12l-.21-62.5,13.17-9.99Zm30.3,5c1,0,2.03,1.27,3.51,3.41.89,1.53.91,1.33,2.95,1.25,2.09.15,3.36.71,3.91,1.35.21.24-.34.3-1.66,1.66-1.37,1.4-1.56,1.96-2.47,3.53-.33.57-1.04.62-1.38.1-.27-.42.42-1.78,1.72-3.38,1.83-1.79,1.45-1.97-1.22-1.69-1.87.2-2.07.1-2.78-1.04-2.12-4.26-3.24-4.11-5.27.13-.55,1.19-.33,1.11-2.73.92-1.89-.15-2.36.33-1.29,1.34,1.67,1.38,2.31,4.64,2.22,4.6l-1.29.12s-.39-.73-.56-1.2c-.35-.94-1.29-2.34-2.3-3.45-1.44-1.57-.65-2.43,2.57-2.78,1.79-.2,1.83-.22,2.66-1.44,1.45-2.15,2.42-3.42,3.42-3.43Zm78.23,3.88l-1.86,6.64-14.71,10.42-11.97-8.07-1.59-6.25,13.75,8.8,16.37-11.55Zm-50.72,5.26s4.25,8.37,5.8,13.79c1.34,4.72,3.21,18.38,2.72,19.22-1.05-1.45-4.5-1.12-4.55-1.11.29-1.6-.99-4.83-3.93-5.46l-.03-26.44Zm48.4,3.06l-1.47,6.54-12.53,9.15-10.34-7.13-1.36-6.32,11.44,7.72,14.25-9.95Zm-72.82.36l1.63.57.31,11.81,12.53,2.1.29,2.02-14.51-2.36c-.15-5.04-.24-14.15-.24-14.15Zm-6.36.35l.35,13.74c-.14-.05-10.45,1.44-14.39,2.48l.23-1.88s7.17-1.58,12.36-2.18c0-3.84-.03-7.88-.04-11.8l1.49-.36Zm116.59,2.53s1.71.16,5.35-.49c9.41-1.66,11.95-.99,13.16,1.94,1.31,4.54-3.62,4.65-4.49,1.77-.56-1.87-2.58-1.46-9.32.16-5.77,1.38-9.42.28-9.35-3.03.07-3.39,3.9-3.69,4.66-.35Zm-77.3-2.48c1.16-.02,2.12.92,2.14,2.1s-.91,2.14-2.08,2.16-2.12-.92-2.14-2.09c-.02-1.18.91-2.15,2.07-2.16Zm-30.56.38l1.49.45s.22,8.96.26,8.98c3.2.71,9.91,1.98,9.91,1.98l.36,1.77c-2.81-.67-11.76-2.15-11.76-2.15-.28-3.89-.25-11.04-.25-11.04Zm-10.84.17s0,7.15-.11,10.99c.05-.03-7.6,1.23-11.48,2.04l.3-1.44c3.07-.7,6.42-1.4,9.8-2.12-.07-2.81-.06-8.98-.06-8.98l1.56-.5Zm5.46,1.54c.93-.01,1.71.75,1.72,1.69.01.94-.74,1.72-1.67,1.73-.93.01-1.7-.74-1.71-1.68-.01-.94.73-1.73,1.66-1.74Zm127.27,4.46c1.04,1.56,1.91,1.51,2.94,1.36-.26.08-1.47.8-1.4,1.04.03.12-.51,2.09.32,2.17,3.12.3,1.54,3.58,1.92,4.08.84.97,1.46,1.59.88,2.8-.51,1.08-1.25,1.04-.68,1.96,1.24,1.89-.47,2.28-.32,3.57.1.78.37,1.84.09,2.44-.85,1.82-3.87,2.86-7.23,3-.48.02-.12-.77-.34-1.27-.83-.53-.38-1.42-.1-2.01q.28-.78-.24-1.17c-1.43-.9-1.36-1.31-1.24-1.96.31-1.92.02-2.11-.55-2.39-.73-.36-.63-1.17-.31-2.21.23-.72.07-.9-.28-1.55-.2-.38-.26-.59-.27-.84.1-.99-.78-.99-2.01-.02-1.04,1.82-1.4,4.2-2.06,5.71-.51,1.16-.59,2.37.02,5.03,1.16,4.08.3,4.76-4.25,3.89-3.42-.85-4.43-4.53-3.48-9.04.15-.73.11-1.43.04-2.01-.37-3.1.42-6.09,2.57-8.12,3.58-3.4,5.35-3.92,12.75-3.44,2.9.21,3.12.39,3.12.39,0,0,.01-1.41.1-1.42h0Zm-53.29.94l-.86,6.32-7.06,4.91c-3.11-2.9-6.41-1.94-7.98,1.1-1.82-.93-5.47-3.48-5.47-3.48l-.93-7.17,10.1,7.08,12.2-8.76Zm-73.83,1.5c.93-.01,1.7.74,1.71,1.69.01.94-.73,1.72-1.66,1.73-.93.01-1.71-.74-1.72-1.68-.01-.94.74-1.73,1.67-1.74Zm72.67,6.48l-.38,6.09-2.47,1.88-3.19-.16c.29-1.55-.17-3.68-.14-3.7l6.18-4.1Zm-72.71.05c.93-.01,1.71.75,1.72,1.69.01.94-.74,1.72-1.67,1.73s-1.7-.74-1.71-1.68c-.01-.94.73-1.73,1.66-1.74Zm6.81.19c.93-.01,1.7.74,1.71,1.68.01.94-.73,1.72-1.66,1.73-.93.01-1.7-.74-1.72-1.69-.01-.94.73-1.72,1.67-1.73Zm-13.54.33c.93-.01,1.7.74,1.72,1.69.01.94-.73,1.72-1.66,1.73s-1.71-.74-1.72-1.69c-.01-.94.73-1.72,1.67-1.73Zm125.8.28c.48-.04,1.18.68.84,1.75-.46,1.22-.14,1.64.63,2.63.65.84.53.95.44,1.49-.15,3.52,2.09,2,1.12,4.55-.21.56.07,1.35.17,2.01-.22-.6-4.34-.55-4.69.07-.59-.09-1.33-4-.74-4.52.08,0,.51.67.73,1.05.55.95.67.91.5-.18-.68-4.36-.27-8.8,1.01-8.83Zm-105.43.3c.93-.01,1.7.74,1.72,1.69.01.94-.73,1.72-1.67,1.73s-1.7-.74-1.71-1.68c-.01-.94.73-1.72,1.66-1.73Zm-27.4.32c.93-.01,1.7.74,1.71,1.69.01.94-.73,1.72-1.66,1.73-.93.01-1.71-.74-1.72-1.68-.01-.94.74-1.72,1.67-1.73Zm66.33.49l5.07,3.32c.07.92-.2,1.23.29,3.06-3.31-.31-4.98,1.59-4.98,1.59l-.38-7.97Zm-36.11,5.31l-.39,1.81c-9.99-2.6-21.15-2.73-31.82.12l-.83-1.9c10.77-3.3,22.22-3.42,33.04-.03Zm-47.29-.11c1.45-.03,2.94.52,3.99,1.71,1.97,2.23,1.02,6.35-1.76,7.67-4.16,1.96-8.49-2.24-6.73-6.56.73-1.8,2.63-2.78,4.5-2.81Zm102.94.53l-.06,1.81-1.26-1.07,1.33-.74Zm-26.47.08c1.83-.03,3.34,1.46,3.37,3.31s-1.44,3.38-3.27,3.4c-1.83.03-3.34-1.45-3.37-3.31s1.44-3.38,3.27-3.41Zm-76.38.11c-.45,0-1.19.19-1.53.51-.89.83,0,.85,1.17,1.07,2.08.39,2.65,2.19,2.46,4.14-.17,1.77.42,1.75.89,1.09,1.93-2.68.28-6.58-3-6.8Zm30.74,1.95c2.48-.05,2.75,4.08.55,8.69-.66,1.39-1,1.21-1.72-.88-1.79-5.16-1.4-7.75,1.17-7.81Zm5.75.12c.48-.02.94.16,1.32.6,1.34,1.54.31,4.03-3.25,7.86-.87.93-1.31,1.29-1.63,1.29-.89.02-.89-.13.12-3.46.66-1.96.98-6.18,3.43-6.3Zm-8.05,7.23c.27.8.45,1.56.41,1.69-.22.62-1.81-.22-2.94-1.55-2.28-2.68-3.19-5-2.72-6.25.69-1,2.63-1.58,3.28-.57,1.22,1.91,1.22,4.42,1.97,6.68Zm14.78-6.2c2.4,1.43-.37,4.7-5.75,7.42-2.3,1.16-2.14.64-.39-1.65.67-.88,1.56-2.3,2-3.18.97-1.93,1.93-3.85,4.14-2.59Zm-24,.01c.76,0,1.54.82,2.99,2.94,1.04,1.58,2.9,3.19,3.44,4.53-.25,1.48-7.75-3.22-8.29-5.2-.19-1.21.75-2.29,1.85-2.27Zm107.33,4.31c1.35,2.81,1.47,4.56.35,5.19-1.59.9-3.63-.47-3.68-2.47-.01-.67-.7-3.02-1.32-4.54-.52-1.25-.59-2.03-.16-2.09,1.66.27,4.11,2.59,4.81,3.91Zm-8.98-2.13c-.77,1.99-.87,4.56-1.45,6.15-1.09,2.98-4.62.53-3.43-2.46,1.08-2.69,3.82-5.49,4.9-5.58.74-.06.05,1.66-.03,1.89Zm2.19-1.54c.54-.05,1,1.14,1.7,3.16.95,2.72.91,4.84-.11,5.75-2.18,1.94-4.48-.88-3.59-4.41.71-2.82,1.4-4.43,2.01-4.49Zm-73.3.5c2.72,40.44-17.8,71.56-19.26,72.41l-6.98,3.86-12.25-6.74c12.69-17.58,20.28-37.74,20.85-61.14,11.74,1.15,17.78-8.34,17.64-8.38Zm67.28.13c.86-.24.26.52-.59,1.76-.91,1.32-2.08,4.91-3.02,5.49-2.09,1.02-4.46-.92-3.19-2.6,1.17-1.55,4.61-4.03,6.8-4.64Zm12.46.27c.33,0,.94.22,1.83.66,4.36,2.15,6.51,4.99,4.64,6.35-1.31.95-2.71.21-4.02-2.29-.44-.85-1.26-2.12-1.8-2.82-.98-1.27-1.21-1.89-.66-1.89Zm24.51,1.44c2.8-.04,5.1,2.21,5.14,5.05.04,2.83-2.2,5.16-5,5.2-2.8.04-5.1-2.23-5.14-5.06-.04-2.83,2.2-5.15,5-5.19Zm-1.54,1.33c-3.3,1.48-2.3,6.71.54,7.46,1.2.34,2.66-.17,2.06-.75-3.75-1.19-3.78-3.99-2.27-6.03.24-.33-.08-.79-.33-.68Zm-137.32,7.19c-.13,2.96.5,6.38-.89,9.59-2.13,4.93-8.92,7.18-12.55,6.75-.76-.31-1.64-.61-2.39-.29-.45.19-1.01.17-1.49-.06-.46-.22-.91.07-1.36-.1-.53-.36-1.39-1.18-1.29-1.78.16-.86.1-1.49-.89-1.77-1.37-.39-1.65-1.14-1.25-3.34.09-.48.19-.69-.11-.9-1.01-.69-1.4-1.95-.73-3.29.43-.77.71-1.07.08-1.83-.49-.59-.35-1.06.32-1.96.71-.85.83-.95.38-1.68-1.02-1.64.14-2.85,1.51-3.52,1.84-.76,3.44-1.15,5.38-1.38.72.04.69.68,1.12,1.3.64,1-.26,2.45.26,2.97.75.35,1.09,1.05,1.03,1.65-.03,1.39.06,1.87.43,2.45.41.65.57,1.83.18,2.64-.34.72-.31.67.15,1.09.45.42.67,2.52.51,2.48l1.89-.17c-.2.21.71-3.93,2.86-7.12-.12-2.51-1.06-4.81-.98-8.12,4.66-1.68,8.02,2.32,7.84,6.41h0Zm72.35-5.63c.67.53,4.01,1.47,4.13,1.36-.1,1.62.87,4.75,4.35,5.8.04,4.5,0,25.29,0,25.29-4.85-8.21-7.85-18.8-8.49-32.45h0Zm-81.07.73s.18.6.36,1.76c.3,2.36-.02,2.69-.65,1.07-.73-1.89-.77-.42.05,3.91.2,1.05.19,1.29-.06,2-.16.44-.44,1.47-.67,2.28-.66,2.38-1.04,3.06-1.71,1.17-.34-.97-.63-1.12-.39-1.87.31-.95.23-1.66-.38-2.58-.1-.15-.32-.5-.36-1.47.19-2.2-.78-2.22-.97-2.78.03-.86-.36-2.94.22-2.89.48.05,2.23.09,3.05-.21.37-.14,1.51-.39,1.51-.39h0Zm72.24.27c1.8-.03,3.28,1.43,3.3,3.25s-1.41,3.31-3.21,3.34-3.28-1.42-3.31-3.24c-.03-1.82,1.42-3.32,3.22-3.34Zm-50.32,2.01l2.47.47c.55.19.15,34.59-19.62,59.42l-.17-5.75c9.41-13.75,16.18-30.62,17.32-54.14Zm41.88.72l.45,8.22c-1.39-1.19-4.92-3.43-4.9-3.48l.02-3.04s3.04.24,4.43-1.7h0Zm-19.04.11c.6.25,1.11.84,1.63,1.26l-1.61,1.1v-2.35Zm56.58.41c10.66,3.2,21.16,3.1,31.55.77l.71,2.01c-11.27,3.09-22.46,2.91-33.59-.68l1.33-2.1Zm-51.65,1.54l.57,3.54-6.02,3.94.29-5.38,3.14-2.06,2.02-.04Zm53.28,2.95c.97-.01,1.77.77,1.79,1.76s-.77,1.79-1.74,1.81c-.97.01-1.77-.77-1.78-1.76s.76-1.79,1.73-1.81Zm27.4.15c.97-.01,1.77.77,1.79,1.76.01.98-.77,1.79-1.74,1.81-.97.01-1.77-.77-1.78-1.76-.01-.98.76-1.79,1.73-1.81Zm-51.32,5.53c.79,2.81.62,9.16-.4,13.46-.3,1.29-.49,5.88-.49,5.88-.19.24,6.04-5.21,8.04,1.94.69,2.46-2.11,4.79-3.98,4.1-.36-.13-.25-1.35.09-2.06,1.04-2.14-1.92-3.25-3.61-1.35-3.9,4.37.11,15.45,6.23,16.53,5.07.89,9.14-4.21,5.76-7.25-1.48-1.33-3.85.5-2.77,2.2,1.16,1.81-.97,2.53-2.59.85-2.81-2.92.35-7.32,4.6-6.31,6.79,1.56,5.4,12.29-1.73,12.9-5.45.46-9.11-1.94-11.42-6.19-2.16-4.09-2.32-7.34-1.33-14.51.59-4.25.1-7.84-1.07-7.81-.64.01-1.14.33-1.24,1.09-.21,1.56-.38,1.85-1.35,1.28-1.23-.72-1.91-3.03.1-4.6,2.06-1.61,4.72.9,4.61,1.33.05-.08.26-.49.53-2.31.9-5.93-1.1-12.2-3.56-11.2-.54.22-.48.47.23.87,1.64.93.2,3.32-1.87,3.08-2.92-.34-3.58-4.46-1.01-6.28,4.05-2.21,7.35,1.25,8.23,4.36h0Zm-19.94-4.94s5.18,3.19,5.46,4.01c.18.53.39,5.11.39,5.11l-8.99-5.69-12.89,8.05c.21-1.77,1.14-6.32,1.14-6.32l6.86-4.38c.03.26,4.74,3.4,8.04-.78Zm64.37.3c.97-.01,1.77.77,1.79,1.76s-.76,1.79-1.73,1.81c-.97.01-1.77-.77-1.79-1.75-.01-.98.76-1.8,1.73-1.81Zm-13.72.03c.97-.01,1.78.77,1.79,1.75.01.98-.77,1.8-1.74,1.81-.97.01-1.77-.77-1.78-1.76s.76-1.79,1.73-1.81Zm6.9.4c.97-.01,1.78.77,1.79,1.76s-.77,1.79-1.74,1.81c-.97.01-1.77-.77-1.79-1.76-.01-.98.76-1.79,1.73-1.81Zm-17.27,2.52c4.67.98,9.35,1.99,13.82,2.48l.18,13.88-1.31-.08-.19-12.4c-4.32-.31-8.4-1.25-12.23-2.25l-.28-1.64Zm34.71.45l-.24,1.63s-8.08,1.41-12.3,1.96c-.07,2.79-.06,12.13-.06,12.13l-1.61.3v-14.13c4.78-.53,9.57-1.07,14.21-1.89h0Zm-78.15.78l9.51,6.35,1.12,6.73-11.08-7.44s-10.05,6.83-13.81,9.37l1.15-6.34,13.12-8.66Zm43.89,1.26c3.83.82,7.66,1.67,11.48,2l.16,11.17-1.76-.47-.14-9.06c-2.99-.26-6.06-.85-9.15-1.51l-.6-2.13Zm33.86.33l-.32,1.52s-6.13.93-9.29,1.51c-.28.06-.18,9.83-.18,9.83l-1.51.23-.18-11.4,11.48-1.69Zm-17.16,1.25c.97-.01,1.77.77,1.78,1.76.01.98-.76,1.79-1.73,1.81-.97.01-1.77-.77-1.79-1.75-.01-.98.77-1.8,1.74-1.81Zm-60.74,4.03l11.24,7.67s1.3,3.99,1.58,6.2l-12.94-8.44-16.19,10.84,1.87-6.7,14.43-9.57Zm-68.13.23c.67,0,1.33.46,1.68,1.5.49,1.46,1.4,1.89,3.79,1.84,4.7-.25,9.63-2.49,14.07-.81,2.16.8,2.93,4.02,1.12,4.86-1.96.91-2.8.34-3.48-1.22-.63-.66-1.41-.56-5.62.17-1.86.3-4.04.58-5.88.73-4.7.38-7.29-1.11-7.88-3.94-.37-1.81,1.08-3.15,2.2-3.13Zm128.77,2.59c.97-.01,1.77.77,1.79,1.75.01.98-.77,1.8-1.74,1.81-.97.01-1.77-.77-1.79-1.76s.77-1.79,1.74-1.81Zm-34.44,2.17c1.26-.02,2.31,1.01,2.32,2.28.02,1.28-1,2.33-2.26,2.35-1.26.02-2.3-1.01-2.32-2.28s.99-2.33,2.25-2.35Zm-26.19,1.62s9.25,6.24,13.53,9.13l2.37,6.87-15.76-10.35-19.28,12.67,2.31-7.07,16.82-11.25Zm66.79,2.15c.84,2.28,2.36,4.02,3.97,5.79,0,0-.9,1.72-4.09,1.61-1.75-.06-1.84.22-2.44,1.42-.98,1.52-1.78,2.51-2.41,3-1.12.87-3.22-.43-4.95-3.08-.63-.96-.89-1.19-2.79-1.15-2.92.06-3.98-.76-2.46-2.08,1.32-1.63,2.27-3.42,3.45-5.13l1.31.15c.06.2-1.02,3.48-2.53,4.82-.77.88.31,1.19,2.18.79,1.19-.36,1.5-.22,2.38,1.62,1.84,3.51,2.79,3.34,4.97-.22.76-1.59.73-1.75,2.82-1.29,2.25.23,2.92-.06,2-.85-1.87-1.6-2.89-5.37-2.89-5.37l1.47-.04Zm-66.71,4.7s16.73,11.07,16.69,10.83l3.35,7.98-19.63-13.2-23.99,15.76,3.59-7.9,20-13.48Zm.65,7.27l5.83,3.88-.02,6.98-5.96-4.04.14-6.81Zm-1.5.2l.11,6.88-5.23,3.15-.29-6.46,5.41-3.57Zm-6.58,4.39l.25,6.59-6.02,4.21.02-7.01,5.75-3.79Zm15.35.12l5.48,3.7.23,7.38-5.95-3.94.24-7.14Zm6.77,4.51l5.5,3.86.19,7.37-5.62-3.82-.08-7.41Zm-29.1.03l-.03,6.81-5.47,3.79-.26-6.89,5.76-3.71Zm57.88,8.79c-1.09,1.14-1.49,1-2.42-.89-.96-1.96-2.41-2.87-4.51-2.84-2.65.05-.92-1.71,1.89-1.91,4.85-.22,7.31,3.07,5.04,5.64Zm-65.01-4.25l.29,6.77-5.51,3.14-.1-3.2,2.8-4.95,2.52-1.76Zm-6.37,7.99l.07,2.4-1.4.94,1.33-3.34Zm65.02,50.66c-22.92,4.95-44.89,3.2-60.65.26l-7.2,12.44-.5-.02-1.86,3.22.2.37s-5.99,11.61-8.51,15.27c29.45-.29,94.09-.43,94.09-.43l-3.94-8,.22-.22-3.89-8.36-1.26-1.45s-.77-1.51-1.35-3.13c-.53-1.49-2.81-5.58-2.81-5.58l-.32.03-2.21-4.39Zm-59.82,1.75c.3.24,29.35,5.77,59.46.09l1.65,2.78c-26.35,6.13-64.48.27-62.98-.29l1.87-2.58Zm.5,5.47c2.66-.1,5.35,1.35,7.16,3.75.58.77,1.52,3.02,1.52,3.02,0,0,1.27-2.13,2.52-3.19,1.89-1.61,4.33-2.95,7.87-2.83,3.26.12,6.85,1.9,10.08,7.05.82-2.97,11.52-13.07,20.34-.48,1.01-3.35,5.73-10.03,13.37-5.36.52,1.13,1.06,2.37,1.06,2.37-4.51-3.19-11.95-1.05-13.7,3.93-.16.61.04.92.27,1.51,2.32,3.36-3.72,3.28-1.93.56.34-.62.36-1.13-.17-1.94-1.42-2.15-5.69-4.82-8.82-4.75-3.62.08-7.63,2.5-8.96,4.71-.49.81-.61,1.63-.17,2.34.32.72.21,1.32-.32,1.76-1.25,1.03-2.81-.16-2.21-1.69.39-.67.33-1.5-.47-2.64-1.62-2.3-5.4-4.72-8.7-4.65-4.71.11-9.47,3.54-9.17,6.36.13,1.24-.2,1.7-1.21,1.56-1.22-.17-1.36-1.34-.5-2.28.13-.3.33-1.04-.06-1.58-4.97-6.8-12.42-4.82-14.13-3.29,1.66-2.87,3.97-4.16,6.32-4.24h0Zm-4.43,4.72c1.87.02,3.88,1.44,4.51,2.56.46-.48,4.68-2.52,6.74.39-5.38-.41-5.44,5.35-1.47,5.91-1.81,5.56,6.31,5.9,5.8.67,6.07.91,5.32-6.87-.39-6.05,2.99-2.2,5.03-1.49,8.63,1.03,1.21-1.59,6.14-3.08,7.35-.3-5.65-.35-4.69,6.26-.47,6.32-1.25,4.58,7.05,6.27,5.77-.58,5.27.37,4.51-6.82-.54-6.23.37-1.31,5.5-1.87,7.76.63,2.08-1.92,4.38-3.23,8.53-.49-5.66-.95-5.73,6.47-.47,6.02-.49,4.92,6.94,5,5.7-.68,5.66-1.54,2.55-7.66-1.61-5.98,1.85-2.22,4.99-1.17,6.24-.72,3.85-4.45,7.2-.73,7.2-.73-6.7-.71-5.24,8.94,1.29,5.44,0,1.99.84,3.7,3.5,3.99l3.17,6.63-89.81.6,4.96-8.81c.5.16,3.36.42,3.98-2.97,5.9,1.89,6.3-5.05,1.89-6.15.53-.37,1.14-.52,1.76-.52h0Zm-3.5,2.51c.59.95.1,1.57-.91,1.6,0,0,.66-.96.91-1.6Zm73.88,1.23l.58,1.23c-.63-.26-.71-.53-.58-1.23Z"/>
            </g>
          </g>
        </g>
      </g>
    </g>
    <path id="uuid-9bc0ae81-db55-4d52-84c0-abde47eb1e0c" data-name="path147-0-8-1-3-6-2-4-7" class="uuid-da58ff5f-f61c-4ba5-845e-1416e0de0385" d="m182.85,313.34c10.99-.24,15.92-12.63,7.78-22.25-1.18-1.4-1.3-2.21.86-.86,5.48,3.67,15.99,1.26,16.53-9.96.66-13.82-18.63-17.81-22.25-3.11-.19,1.55-1.45,1.52-1.15-.69.33-5.97,2.19-11.56,4.76-17.01h-13.07c2.56,5.45,4.43,11.03,4.76,17.01.3,2.2-.96,2.24-1.15.69-3.62-14.7-22.92-10.72-22.25,3.11.54,11.22,11.05,13.63,16.53,9.96,2.16-1.35,2.04-.54.86.86-8.14,9.62-3.21,22.01,7.78,22.25,0,0,0,0,.01,0h0Z"/>
    <path id="uuid-bb8f5487-ac2a-48bb-87ca-d55aa3fdeeb3" data-name="path147-0-8-1-0-3-83-7-5-7" class="uuid-da58ff5f-f61c-4ba5-845e-1416e0de0385" d="m66.91,36.76c10.99.24,15.92,12.63,7.78,22.25-1.18,1.4-1.3,2.21.86.86,5.48-3.67,15.99-1.26,16.53,9.96.66,13.82-18.63,17.81-22.25,3.11-.19-1.55-1.45-1.52-1.15.69.33,5.97,2.19,11.56,4.76,17h-13.07c2.56-5.45,4.43-11.03,4.76-17,.3-2.2-.96-2.24-1.15-.69-3.62,14.7-22.92,10.72-22.25-3.11.54-11.22,11.05-13.63,16.53-9.96,2.16,1.35,2.04.54.86-.86-8.14-9.62-3.21-22.01,7.78-22.25,0,0,0,0,.01,0h0Z"/>
  </g>
</svg>